<svg width="24" height="24" viewBox="0 0 24 24" fill="none" xmlns="http://www.w3.org/2000/svg">
<g id="Actions/assignment-returned">
<path id="Icon Shape" d="M12 2C13.3 2 14.4003 2.84 14.8203 4H19C20.1 4 21 4.9 21 6V20C21 21.1 20.1 22 19 22H5C3.9 22 3 21.1 3 20V6C3 4.9 3.9 4 5 4H9.17969C9.59969 2.84 10.7 2 12 2ZM10 10V14H7L11.6504 18.6504C11.8403 18.8399 12.1597 18.8399 12.3496 18.6504L17 14H14V10H10ZM12 4C11.45 4 11 4.45 11 5C11 5.55 11.45 6 12 6C12.55 6 13 5.55 13 5C13 4.45 12.55 4 12 4Z" fill="#2F455C"/>
</g>
</svg>
