<svg width="24" height="24" viewBox="0 0 24 24" fill="none" xmlns="http://www.w3.org/2000/svg">
<g id="Actions/flip-to_back">
<path id="Icon Shape" d="M4 7C4.55 7 5 7.45 5 8V18C5 18.55 5.45 19 6 19H16C16.55 19 17 19.45 17 20C17 20.55 16.55 21 16 21H5C3.9 21 3 20.1 3 19V8C3 7.45 3.45 7 4 7ZM9 17C7.89 17 7 16.1 7 15H9V17ZM13 17H11V15H13V17ZM17 15V17H15V15H17ZM21 15C21 16.1 20.1 17 19 17V15H21ZM9 13H7V11H9V13ZM21 13H19V11H21V13ZM9 9H7V7H9V9ZM21 9H19V7H21V9ZM9 5H7C7 3.9 7.89 3 9 3V5ZM13 5H11V3H13V5ZM17 5H15V3H17V5ZM19 3C20.1 3 21 3.9 21 5H19V3Z" fill="#2F455C"/>
</g>
</svg>
