<svg width="24" height="24" viewBox="0 0 24 24" fill="none" xmlns="http://www.w3.org/2000/svg">
<path d="M17.7197 1C18.8897 1 19.8398 1.95012 19.8398 3.12012V21.4902C19.8397 22.6601 18.8896 23.6104 17.7197 23.6104H7.12012C5.9502 23.6104 5.00013 22.6601 5 21.4902V3.12012C5 1.95012 5.95012 1 7.12012 1H17.7197ZM7.12012 4.05957C6.99018 4.05957 6.87999 4.16989 6.87988 4.2998V20.3203C6.88006 20.4502 6.99022 20.5596 7.12012 20.5596H17.7197C17.8496 20.5596 17.9598 20.4502 17.96 20.3203V4.2998C17.9599 4.16989 17.8497 4.05957 17.7197 4.05957H7.12012ZM9.16992 14.8203H11.4404V16H7.99023V13.0596H9.16992V14.8203ZM16.8496 16H13.7998V14.8301H15.6699V13.0596H16.8496V16ZM16.8604 9.88965V11.0703H7.98047V9.88965H16.8604ZM11.4404 6.12988H9.16992V8.34961H7.99023V4.95996H11.4404V6.12988ZM16.8496 8.34961H15.6699V6.13965H13.7998V4.95996H16.8496V8.34961Z" fill="#2F455C"/>
</svg>
