<svg width="24" height="24" viewBox="0 0 24 24" fill="none" xmlns="http://www.w3.org/2000/svg">
<g id="Actions/settings-input_svideo">
<path id="Icon Shape" d="M12 1C18.07 1 23 5.93 23 12C23 18.07 18.07 23 12 23C5.93 23 1 18.07 1 12C1 5.93 5.93 1 12 1ZM12 3C7.04 3 3 7.04 3 12C3 16.96 7.04 21 12 21C16.96 21 21 16.96 21 12C21 7.04 16.96 3 12 3ZM8.5 15C9.33 15 10 15.67 10 16.5C10 17.33 9.33 18 8.5 18C7.67 18 7 17.33 7 16.5C7 15.67 7.67 15 8.5 15ZM15.5 15C16.33 15 17 15.67 17 16.5C17 17.33 16.33 18 15.5 18C14.67 18 14 17.33 14 16.5C14 15.67 14.67 15 15.5 15ZM6.5 10C7.33 10 8 10.67 8 11.5C8 12.33 7.33 13 6.5 13C5.67 13 5 12.33 5 11.5C5 10.67 5.67 10 6.5 10ZM17.5 10C18.33 10 19 10.67 19 11.5C19 12.33 18.33 13 17.5 13C16.67 13 16 12.33 16 11.5C16 10.67 16.67 10 17.5 10ZM13.5 5C14.33 5 15 5.67 15 6.5C15 7.33 14.33 8 13.5 8H10.5C9.67 8 9 7.33 9 6.5C9 5.67 9.67 5 10.5 5H13.5Z" fill="#2F455C"/>
</g>
</svg>
