<svg width="24" height="24" viewBox="0 0 24 24" fill="none" xmlns="http://www.w3.org/2000/svg">
<g id="Actions/find-replace">
<path id="Icon Shape" d="M8.2663 11.4712C8.71608 11.4712 8.93606 12.0107 8.62665 12.3208L6.93622 14.0112C7.84622 14.9112 9.09626 15.4712 10.4763 15.4712C12.6562 15.4712 14.5159 14.0712 15.196 12.1313C15.336 11.7313 15.7066 11.4712 16.1266 11.4712C16.8164 11.4715 17.296 12.1612 17.0661 12.811C16.8361 13.461 16.5159 14.0709 16.1159 14.6108L20.2165 18.731C20.6265 19.1409 20.6264 19.8112 20.2165 20.2212C19.8065 20.6312 19.1363 20.6312 18.7263 20.2212L14.6159 16.1108C13.4559 16.9608 12.0262 17.4712 10.4763 17.4712C8.54632 17.4712 6.79605 16.6916 5.52606 15.4116L4.32587 16.6108C4.01587 16.9308 3.47629 16.7112 3.47626 16.2612V11.9712C3.47626 11.6912 3.69626 11.4712 3.97626 11.4712H8.2663ZM10.4763 3.47119C12.4062 3.47119 14.1565 4.25083 15.4265 5.53076L16.6266 4.33154C16.9366 4.01157 17.4762 4.23119 17.4763 4.68115V8.97119C17.4763 9.25119 17.2563 9.47119 16.9763 9.47119H12.6862C12.2364 9.47116 12.0165 8.93164 12.3259 8.62158L14.0163 6.93115C13.1063 6.03115 11.8563 5.47119 10.4763 5.47119C8.29634 5.47119 6.4366 6.87115 5.75653 8.81104C5.61653 9.21104 5.24587 9.47119 4.82587 9.47119C4.12608 9.47093 3.65622 8.77072 3.89618 8.11084C4.85626 5.41099 7.43637 3.47119 10.4763 3.47119Z" fill="#2F455C"/>
</g>
</svg>
