<svg width="24" height="24" viewBox="0 0 24 24" fill="none" xmlns="http://www.w3.org/2000/svg">
<g id="Actions/toll">
<path id="Icon Shape" d="M15 4C19.42 4 23 7.58 23 12C23 16.42 19.42 20 15 20C10.58 20 7 16.42 7 12C7 7.58 10.58 4 15 4ZM5.67969 4.73047C6.28963 4.4405 6.99986 4.86992 7 5.5498V5.74023C6.9999 6.11013 6.76962 6.42011 6.42969 6.58008C4.39984 7.54014 3 9.61011 3 12C3 14.3899 4.39984 16.4599 6.42969 17.4199C6.76954 17.5799 6.99981 17.8997 7 18.2695V18.4502C6.99986 19.1301 6.28963 19.5495 5.67969 19.2695C2.91992 18.0094 1 15.2298 1 12C1 8.77017 2.91992 5.99056 5.67969 4.73047ZM15 6C11.69 6 9 8.69 9 12C9 15.31 11.69 18 15 18C18.31 18 21 15.31 21 12C21 8.69 18.31 6 15 6Z" fill="#2F455C"/>
</g>
</svg>
