<svg width="24" height="24" viewBox="0 0 24 24" fill="none" xmlns="http://www.w3.org/2000/svg">
<g id="Actions/code">
<path id="Icon Shape" d="M8 6.40747C8.26305 6.40747 8.51534 6.51329 8.7002 6.70044C9.08981 7.09041 9.08993 7.70995 8.7002 8.09985L4.7998 12.0002L8.7002 15.8997C9.09018 16.2896 9.09014 16.91 8.7002 17.3C8.3102 17.69 7.6898 17.69 7.2998 17.3L2.70996 12.7004C2.32002 12.3105 2.32014 11.6803 2.70996 11.2903L7.2998 6.70044C7.48466 6.51329 7.73695 6.40747 8 6.40747ZM15.2998 6.70044C15.6898 6.31044 16.3102 6.31044 16.7002 6.70044L21.29 11.2903C21.6799 11.6803 21.68 12.3105 21.29 12.7004L16.7002 17.3C16.3102 17.69 15.6898 17.69 15.2998 17.3C15.1127 17.1152 15.0078 16.8629 15.0078 16.5999C15.0078 16.3368 15.1127 16.0845 15.2998 15.8997L19.2002 12.0002L15.2998 8.09985C15.1128 7.91501 15.0078 7.66263 15.0078 7.39966C15.0079 7.13688 15.1129 6.88519 15.2998 6.70044Z" fill="#2F455C"/>
</g>
</svg>
