<svg width="24" height="24" viewBox="0 0 24 24" fill="none" xmlns="http://www.w3.org/2000/svg">
<g id="Actions/commute">
<path id="Icon Shape" d="M19.5946 9C20.0446 9 20.4253 9.26016 20.5653 9.66016L21.995 13.7695L22.0048 19.0098C21.9948 19.5598 21.5548 20 21.0048 20C20.4549 19.9999 20.0048 19.5499 20.0048 19V18H12.0048V19C12.0048 19.55 11.5548 20 11.0048 20C10.4549 19.9999 10.0048 19.5597 10.0048 19.0098V13.7695L11.4247 9.66016C11.5747 9.26016 11.9452 9 12.4052 9H19.5946ZM11.995 4C13.655 4 14.995 5.34 14.995 7V8H12.995V6.5C12.995 6.22 12.775 6 12.495 6H4.495C4.215 6 3.995 6.22 3.995 6.5V12.5C3.995 12.78 4.215 13 4.495 13H8.995V18H6.995L5.22547 19.7695C4.94547 20.0495 4.50547 20.0495 4.22547 19.7695C3.94547 19.4895 3.94547 19.0495 4.22547 18.7695L4.995 18C3.335 18 1.995 16.66 1.995 15V7C1.995 5.34 3.335 4 4.995 4H11.995ZM4.995 14C4.445 14 3.995 14.45 3.995 15C3.995 15.55 4.445 16 4.995 16C5.545 16 5.995 15.55 5.995 15C5.995 14.45 5.545 14 4.995 14ZM11.995 14C11.445 14 10.995 14.45 10.995 15C10.995 15.55 11.445 16 11.995 16C12.545 16 12.995 15.55 12.995 15C12.995 14.45 12.545 14 11.995 14ZM19.995 14C19.445 14 18.995 14.45 18.995 15C18.995 15.55 19.445 16 19.995 16C20.545 16 20.995 15.55 20.995 15C20.995 14.45 20.545 14 19.995 14ZM12.7645 10C12.5447 10.0002 12.3546 10.14 12.3046 10.3398L11.6151 12.3398C11.5051 12.6598 11.7449 12.9999 12.0848 13H19.9354C20.2752 12.9997 20.5151 12.6597 20.4052 12.3398L19.7147 10.3398C19.6447 10.14 19.4549 10 19.245 10H12.7645Z" fill="#2F455C"/>
</g>
</svg>
