<svg width="24" height="24" viewBox="0 0 24 24" fill="none" xmlns="http://www.w3.org/2000/svg">
<g id="Actions/track-changes">
<path id="Icon Shape" d="M18.307 5.66699C17.947 6.02699 17.917 6.58699 18.237 6.98699C19.687 8.80699 20.447 11.297 19.767 13.907C18.977 16.957 16.587 19.237 13.557 19.847C8.45696 20.857 3.98696 16.917 3.98696 11.987C3.98696 7.90699 7.03696 4.54699 10.987 4.05699V6.07699C7.85696 6.60699 5.55696 9.53699 6.05696 12.907C6.44696 15.517 8.61696 17.617 11.237 17.937C14.877 18.387 17.987 15.547 17.987 11.987C17.987 10.737 17.607 9.58699 16.957 8.62699C16.617 8.12699 15.887 8.09699 15.457 8.51699L15.447 8.52699C15.107 8.86699 15.077 9.39699 15.337 9.79699C15.937 10.717 16.177 11.897 15.827 13.117C15.437 14.487 14.287 15.577 12.887 15.887C10.287 16.457 7.98696 14.497 7.98696 11.987C7.98696 10.127 9.26696 8.57699 10.987 8.12699V10.267C10.387 10.617 9.98696 11.247 9.98696 11.987C9.98696 13.087 10.887 13.987 11.987 13.987C13.087 13.987 13.987 13.087 13.987 11.987C13.987 11.247 13.587 10.607 12.987 10.267V2.69699C12.987 2.30699 12.667 1.98699 12.277 1.98699C6.91696 1.78699 2.29696 6.04699 2.00696 11.387C1.64696 17.937 7.41696 23.207 14.017 21.787C17.897 20.957 20.897 17.987 21.767 14.117C22.477 10.957 21.567 7.95699 19.797 5.74699C19.427 5.27699 18.727 5.24699 18.307 5.66699Z" fill="#2F455C"/>
</g>
</svg>
