<svg width="24" height="24" viewBox="0 0 24 24" fill="none" xmlns="http://www.w3.org/2000/svg">
<g id="Actions/all-out">
<path id="Icon Shape" d="M8 20H4.5C4.22 20 4 19.78 4 19.5V16L8 20ZM20 19.5C20 19.78 19.78 20 19.5 20H16L20 16V19.5ZM12 5C15.87 5 19 8.13 19 12C19 15.87 15.87 19 12 19C8.13 19 5 15.87 5 12C5 8.13 8.13 5 12 5ZM12 7C9.24 7 7 9.24 7 12C7 14.76 9.24 17 12 17C14.76 17 17 14.76 17 12C17 9.24 14.76 7 12 7ZM4 8V4.5C4 4.22 4.22 4 4.5 4H8L4 8ZM19.5 4C19.78 4 20 4.22 20 4.5V8L16 4H19.5Z" fill="#2F455C"/>
</g>
</svg>
