<svg width="24" height="24" viewBox="0 0 24 24" fill="none" xmlns="http://www.w3.org/2000/svg">
<g id="Actions/done-all">
<path id="Icon Shape" d="M1.79004 12.1123C2.05454 12.1123 2.3083 12.2171 2.49512 12.4043L7.375 17.3047L6.6748 18.0049C6.2848 18.3945 5.65454 18.3947 5.26465 18.0049L1.08496 13.8242C0.695079 13.4342 0.695 12.7943 1.08496 12.4043C1.27179 12.2171 1.52554 12.1123 1.79004 12.1123ZM21.5049 5.99414C21.8949 5.60422 22.5253 5.60491 22.9053 6.00488H22.915C23.3047 6.39484 23.3048 7.02413 22.915 7.41406L12.3252 17.9941C11.9352 18.3841 11.305 18.3841 10.915 17.9941L6.73535 13.8145C6.34535 13.4245 6.34535 12.7943 6.73535 12.4043C6.92216 12.2172 7.17602 12.1123 7.44043 12.1123C7.70465 12.1124 7.95783 12.2173 8.14453 12.4043L11.625 15.874L21.5049 5.99414ZM16.5596 5.71191C16.8241 5.71191 17.0778 5.81763 17.2646 6.00488C17.6446 6.38489 17.6446 7.02432 17.2646 7.4043L11.625 13.0547L10.2148 11.6445L15.8555 6.00488C16.0422 5.81773 16.2952 5.71203 16.5596 5.71191Z" fill="#2F455C"/>
</g>
</svg>
