<svg width="24" height="24" viewBox="0 0 24 24" fill="none" xmlns="http://www.w3.org/2000/svg">
<g id="Actions/settings-voice">
<path id="Icon Shape" d="M8.99953 23.5H6.99953V21.5H8.99953V23.5ZM12.9995 23.5H10.9995V21.5H12.9995V23.5ZM16.9995 23.5H14.9995V21.5H16.9995V23.5ZM18.0796 9.5C18.5995 9.5 19 9.95984 18.9302 10.4697C18.4702 13.4297 15.9595 15.7797 12.9995 16.2197V18.5C12.9995 19.05 12.5495 19.5 11.9995 19.5C11.4497 19.4997 10.9995 19.0498 10.9995 18.5V16.2197C8.02975 15.7695 5.52982 13.4296 5.06984 10.4697C5.00003 9.95984 5.40053 9.5 5.92043 9.5C6.33022 9.50021 6.6895 9.80016 6.74953 10.21C7.11951 12.8298 9.46971 14.5994 11.9995 14.5996C14.5295 14.5996 16.8795 12.8199 17.2495 10.21C17.3095 9.80009 17.6598 9.50019 18.0796 9.5ZM11.9995 0.5C13.6595 0.5 14.9995 1.84 14.9995 3.5L14.9898 9.5C14.9898 11.16 13.6595 12.5 11.9995 12.5C10.3397 12.4997 8.99953 11.1598 8.99953 9.5V3.5C8.99953 1.84016 10.3397 0.500253 11.9995 0.5Z" fill="#2F455C"/>
</g>
</svg>
