<svg width="24" height="24" viewBox="0 0 24 24" fill="none" xmlns="http://www.w3.org/2000/svg">
<g id="Actions/accessible">
<path id="Icon Shape" d="M9 14.1699C7.84 14.5899 7 15.69 7 17C7 18.66 8.34 20 10 20C11.31 20 12.4201 19.16 12.8301 18H14.9004C14.4404 20.28 12.42 22 10 22C7.24 22 5 19.76 5 17C5 14.58 6.72 12.5596 9 12.0996V14.1699ZM11.75 7.03027C12.22 6.97027 12.63 7.07027 13 7.28027H13.0098C13.0198 7.28027 13.0203 7.29004 13.0303 7.29004C13.2602 7.40002 13.4697 7.55032 13.6396 7.74023L14.9297 9.16992C15.7297 10.0499 16.9102 10.7197 18.1602 10.9297C18.6401 11.0097 19 11.4104 19 11.9004C18.9998 12.5302 18.4197 13.0001 17.7998 12.8701C16.3999 12.5901 15 11.8798 14 11.0498V14.5H17C18.1 14.5 19 15.4 19 16.5V21C19 21.55 18.55 22 18 22C17.45 22 17 21.55 17 21V17H12C10.9 17 10 16.1 10 15V9.09961C10.0002 8.06978 10.7301 7.15027 11.75 7.03027ZM12 2C13.1046 2 14 2.89543 14 4C14 5.10457 13.1046 6 12 6C10.8954 6 10 5.10457 10 4C10 2.89543 10.8954 2 12 2Z" fill="#2F455C"/>
</g>
</svg>
