<svg width="24" height="24" viewBox="0 0 24 24" fill="none" xmlns="http://www.w3.org/2000/svg">
<g id="Actions/3d-rotation">
<path id="Icon Shape" d="M0.770126 13.0048C1.19007 12.9349 1.57048 13.215 1.63048 13.6249C2.18051 17.1145 4.43016 20.0244 7.52013 21.4843L8.8502 20.1542L12.6598 23.9735C10.22 24.1234 8.06016 23.5039 6.39024 22.6141C3.11033 20.8744 0.750088 17.6746 0.150009 13.8651C0.0800092 13.4552 0.360126 13.0648 0.770126 13.0048ZM8.39024 8.00574C8.76007 8.00576 9.0999 8.05545 9.40977 8.14539C9.70977 8.24538 9.98028 8.38509 10.1803 8.57507C10.4003 8.75505 10.5701 8.98555 10.69 9.2655C10.81 9.54542 10.8697 9.8656 10.8697 10.2255C10.8697 10.3853 10.8503 10.5452 10.8004 10.705C10.7504 10.8649 10.6797 11.0149 10.5797 11.1649C10.4797 11.3149 10.3596 11.4549 10.2096 11.5848C10.0596 11.7148 9.88995 11.825 9.69005 11.9149C9.93004 11.9949 10.1304 12.0945 10.3004 12.2245C10.4604 12.3545 10.5998 12.4952 10.6998 12.6552C10.8098 12.8151 10.8803 12.985 10.9303 13.1649C10.9802 13.3448 10.9996 13.5347 10.9996 13.7245C10.9996 14.0845 10.9304 14.4052 10.8004 14.6952C10.6704 14.9851 10.4796 15.225 10.2496 15.4149C10.0197 15.6048 9.73937 15.7544 9.41954 15.8544C9.1097 15.9543 8.76001 16.0047 8.39024 16.0048C8.05031 16.0048 7.73023 15.9543 7.43028 15.8544C7.12028 15.7644 6.84997 15.6242 6.60997 15.4442C6.38013 15.2543 6.19034 15.0246 6.0504 14.7548C5.9104 14.4848 5.84044 14.1645 5.84044 13.8046H7.14024C7.14024 13.9744 7.17019 14.1344 7.23009 14.2743C7.29004 14.4242 7.37996 14.5445 7.48985 14.6444C7.59985 14.7544 7.73024 14.8246 7.89024 14.8846C8.04014 14.9346 8.21994 14.9647 8.40977 14.9647C8.80977 14.9647 9.12997 14.8646 9.35997 14.6346C9.58993 14.4247 9.70955 14.1148 9.70958 13.705C9.70958 13.485 9.67997 13.2946 9.60997 13.1346C9.54 12.9748 9.43983 12.8451 9.31993 12.7352C9.19993 12.6352 9.04974 12.5548 8.86974 12.5048C8.68985 12.4548 8.48996 12.4354 8.27013 12.4354H7.49962V11.4052H8.27013C8.49008 11.4051 8.69024 11.3753 8.8502 11.3153C9.01016 11.2553 9.15038 11.175 9.26036 11.0751C9.37027 10.9751 9.46039 10.8548 9.51036 10.705C9.56031 10.555 9.59044 10.3946 9.59044 10.2147C9.59036 9.84513 9.49017 9.55524 9.3004 9.35535C9.1104 9.14537 8.80977 9.0448 8.40977 9.0448C8.23002 9.04482 8.0801 9.07498 7.93028 9.12488C7.78032 9.17486 7.66038 9.25562 7.5504 9.34558C7.4404 9.43557 7.3604 9.55544 7.3004 9.68542C7.24041 9.81541 7.20958 9.96565 7.20958 10.1356H5.90977C5.90977 9.82565 5.97044 9.54501 6.09044 9.28503C6.22042 9.02521 6.3903 8.80501 6.6002 8.61511C6.82016 8.42522 7.09034 8.27487 7.39024 8.16492C7.70014 8.05502 8.03038 8.00574 8.39024 8.00574ZM14.36 8.00574C14.8999 8.00574 15.39 8.09531 15.8199 8.27527C16.2597 8.45517 16.6397 8.71505 16.9596 9.0448C17.2795 9.3747 17.5296 9.77516 17.7096 10.245C17.8796 10.7149 17.9703 11.2354 17.9703 11.8153V12.2147C17.9703 12.7947 17.8796 13.3151 17.7096 13.785C17.5396 14.2447 17.2901 14.6447 16.9703 14.9745C16.6504 15.3044 16.2601 15.5543 15.8102 15.7343C15.3603 15.9142 14.8502 16.0047 14.3004 16.0048H11.9996V8.00574H14.36ZM13.4 14.8944H14.3102C14.6801 14.8944 15.0104 14.8347 15.3004 14.7147C15.5803 14.5947 15.8204 14.4143 16.0104 14.1844C16.2002 13.9545 16.3401 13.6646 16.44 13.3348C16.53 12.9949 16.5797 12.6249 16.5797 12.205V11.7948C16.5797 10.9252 16.3901 10.2654 16.0104 9.80554C15.6404 9.34559 15.0897 9.11511 14.3697 9.11511H13.4V14.8944ZM11.3404 0.0262451C13.7802 -0.123633 15.9401 0.495819 17.61 1.38562C20.89 3.12545 23.2502 6.326 23.8502 10.1356C23.9199 10.5454 23.6399 10.935 23.2301 10.995C22.8101 11.065 22.4297 10.7848 22.3697 10.3749C21.8197 6.88536 19.57 3.97531 16.4801 2.5155L15.15 3.84558L11.3404 0.0262451Z" fill="#2F455C"/>
</g>
</svg>
