<svg width="24" height="24" viewBox="0 0 24 24" fill="none" xmlns="http://www.w3.org/2000/svg">
<g id="Actions/label-off">
<path id="Icon Shape" d="M2.6358 3.49902C3.02579 3.11904 3.65619 3.12884 4.03619 3.50879L19.5967 19.0791C19.9864 19.4691 19.9866 20.0994 19.5967 20.4893C19.2069 20.8791 18.5766 20.8789 18.1866 20.4893L16.8965 19.1992H4.89655C3.79669 19.1992 2.89677 18.299 2.89655 17.1992V7.19922C2.89655 6.64926 3.12643 6.14906 3.48639 5.78906L2.61627 4.91895C2.22639 4.52906 2.22617 3.87907 2.6358 3.49902ZM15.8965 5.19922C16.5664 5.19931 17.1665 5.52913 17.5264 6.03906L21.4864 11.6191C21.7361 11.969 21.7361 12.4285 21.4864 12.7783L19.2559 15.9287L8.5567 5.19922H15.8965Z" fill="#2F455C"/>
</g>
</svg>
