<svg width="24" height="24" viewBox="0 0 24 24" fill="none" xmlns="http://www.w3.org/2000/svg">
<g id="Actions/highlight-off">
<path id="Icon Shape" d="M12 2C17.53 2 22 6.47 22 12C22 17.53 17.53 22 12 22C6.47 22 2 17.53 2 12C2 6.47 6.47 2 12 2ZM12 4C7.59 4 4 7.59 4 12C4 16.41 7.59 20 12 20C16.41 20 20 16.41 20 12C20 7.59 16.41 4 12 4ZM9.40527 8.40723C9.66969 8.4073 9.92358 8.51301 10.1104 8.7002L12 10.5898L13.8896 8.7002C14.2696 8.3202 14.9098 8.3202 15.2998 8.7002C15.6898 9.0902 15.6898 9.72035 15.2998 10.1104L13.4102 12L15.2998 13.8896C15.6898 14.2796 15.6898 14.9098 15.2998 15.2998C14.9098 15.6898 14.2796 15.6898 13.8896 15.2998L12 13.4102L10.1104 15.2998C9.72035 15.6898 9.0902 15.6898 8.7002 15.2998C8.3102 14.9098 8.3102 14.2796 8.7002 13.8896L10.5898 12L8.7002 10.1104C8.3102 9.72035 8.3102 9.0902 8.7002 8.7002C8.88703 8.51294 9.14076 8.40723 9.40527 8.40723Z" fill="#2F455C"/>
</g>
</svg>
