<svg width="24" height="24" viewBox="0 0 24 24" fill="none" xmlns="http://www.w3.org/2000/svg">
<g id="Actions/donut-large">
<path id="Icon Shape" d="M9.2529 2.44373C10.2127 2.14398 11.1823 2.8835 11.1826 3.88318V3.89392C11.1825 4.56372 10.7325 5.13334 10.0927 5.33337C7.25284 6.22334 5.18274 8.87344 5.18259 12.0033C5.18259 15.1333 7.25274 17.7832 10.0927 18.6732C10.7327 18.8732 11.1826 19.4437 11.1826 20.1136C11.1826 21.1235 10.2128 21.8636 9.2529 21.5638C5.1629 20.3138 2.18259 16.5033 2.18259 12.0033C2.18274 7.50344 5.163 3.69369 9.2529 2.44373ZM20.333 12.9935C21.3228 12.9938 22.0428 13.9538 21.7529 14.9037C20.7829 18.0837 18.2727 20.5938 15.0927 21.5638C14.1427 21.8538 13.1826 21.1332 13.1826 20.1332V20.0941C13.1826 19.4441 13.6229 18.874 14.2529 18.684C16.4428 18.0039 18.1823 16.2735 18.8623 14.0736C19.0522 13.4437 19.6224 13.0037 20.2822 12.9935H20.333ZM13.1826 3.86365C13.1826 2.86365 14.143 2.14396 15.083 2.43396C18.2628 3.40406 20.7722 5.91427 21.7422 9.09412C22.0319 10.044 21.3124 11.0033 20.3125 11.0033H20.2724C19.6226 11.0032 19.0523 10.5638 18.8623 9.93396C18.1823 7.74405 16.4428 6.00367 14.2529 5.32361C13.6229 5.13361 13.1826 4.56366 13.1826 3.90369V3.86365Z" fill="#2F455C"/>
</g>
</svg>
