<svg width="24" height="24" viewBox="0 0 24 24" fill="none" xmlns="http://www.w3.org/2000/svg">
<g id="Actions/room">
<path id="Icon Shape" d="M12 2.26489C15.87 2.26489 19 5.39489 19 9.26489C19 13.4349 14.5795 19.1852 12.7695 21.3752C12.3695 21.8547 11.6402 21.8548 11.2402 21.3752C9.42023 19.1852 5 13.4349 5 9.26489C5 5.39489 8.13 2.26489 12 2.26489ZM12 6.76489C10.62 6.76489 9.5 7.88489 9.5 9.26489C9.5 10.6449 10.62 11.7649 12 11.7649C13.38 11.7649 14.5 10.6449 14.5 9.26489C14.5 7.88489 13.38 6.76489 12 6.76489Z" fill="#2F455C"/>
</g>
</svg>
