<svg width="24" height="24" viewBox="0 0 24 24" fill="none" xmlns="http://www.w3.org/2000/svg">
<g id="Actions/lightbulb-outline">
<path id="Icon Shape" d="M15 21C15 21.55 14.55 22 14 22H10C9.45 22 9 21.55 9 21V20H15V21ZM12 2C15.86 2 19 5.14 19 9C19 11.38 17.81 13.4702 16 14.7402V17C16 17.55 15.55 18 15 18H9C8.45 18 8 17.55 8 17V14.7402C6.19 13.4702 5 11.38 5 9C5 5.14 8.14 2 12 2ZM12 4C9.24 4 7 6.24 7 9C7 10.63 7.80039 12.1596 9.15039 13.0996L10 13.7002V16H14V13.7002L14.8496 13.0996C16.1996 12.1596 17 10.63 17 9C17 6.24 14.76 4 12 4Z" fill="#2F455C"/>
</g>
</svg>
