<svg width="24" height="24" viewBox="0 0 24 24" fill="none" xmlns="http://www.w3.org/2000/svg">
<g id="Actions/fingerprint">
<path id="Icon Shape" d="M11.9654 6.82031C16.5152 6.82054 20.2154 10.3305 20.2154 14.6504C20.2152 16.2701 18.8351 17.5897 17.1354 17.5898C15.4355 17.5898 14.0555 16.2702 14.0553 14.6504C14.0553 13.5805 13.1251 12.7101 11.9752 12.71C10.8252 12.71 9.89513 13.5804 9.89513 14.6504C9.89523 16.3602 10.5553 17.9602 11.7652 19.1602C12.7151 20.1 13.625 20.6198 15.0348 21.0098C15.3048 21.0798 15.4554 21.3601 15.3854 21.6201C15.3353 21.8501 15.1246 22 14.9147 22C14.8747 21.9999 14.8247 21.9904 14.7848 21.9805C13.1948 21.5405 12.155 20.9499 11.065 19.8799C9.66511 18.4899 8.89517 16.6401 8.89513 14.6602C8.89513 13.0402 10.2752 11.7197 11.9752 11.7197C13.6751 11.7198 15.0553 13.0402 15.0553 14.6602C15.0554 15.7301 15.9854 16.5996 17.1354 16.5996C18.2851 16.5994 19.2153 15.73 19.2154 14.6602C19.2154 10.8903 15.9652 7.8303 11.9654 7.83008C9.12544 7.83008 6.52509 9.41035 5.35509 11.8604C4.96517 12.6703 4.76524 13.6203 4.76524 14.6602C4.76525 15.4401 4.83533 16.6698 5.43517 18.2695C5.53516 18.5295 5.40508 18.8201 5.14513 18.9102C4.88522 19.0101 4.59558 18.87 4.50548 18.6201C4.0155 17.3102 3.77503 16.0101 3.77501 14.6602C3.77501 13.4602 4.00471 12.3699 4.4547 11.4199C5.7847 8.62992 8.73544 6.82031 11.9654 6.82031ZM12.0055 9.26953C15.1253 9.26978 17.6647 11.6903 17.6647 14.6602C17.6646 14.9401 17.4446 15.1602 17.1647 15.1602C16.8849 15.16 16.6647 14.94 16.6647 14.6602C16.6647 12.2403 14.5753 10.2698 12.0055 10.2695C9.43548 10.2695 7.34532 12.2402 7.34532 14.6602C7.34535 16.1 7.66509 17.4298 8.27501 18.5098C8.91491 19.6596 9.35483 20.1499 10.1246 20.9297C10.3146 21.1297 10.3146 21.4396 10.1246 21.6396C10.0148 21.7395 9.8853 21.7899 9.75548 21.79C9.62548 21.79 9.49489 21.7396 9.40489 21.6396C8.53505 20.7698 8.06505 20.2099 7.39513 19C6.70515 17.77 6.34535 16.2701 6.34532 14.6602C6.34532 11.6902 8.88548 9.26953 12.0055 9.26953ZM11.9449 14.1602C12.2249 14.1602 12.4449 14.3802 12.4449 14.6602C12.445 16.0701 13.1654 17.3998 14.3854 18.2197C15.0953 18.6997 15.9255 18.9297 16.9254 18.9297C17.1654 18.9297 17.5657 18.9 17.9654 18.8301C18.2353 18.7803 18.4946 18.9604 18.5445 19.2402C18.5944 19.5101 18.4151 19.7702 18.1354 19.8203C17.5659 19.9302 17.066 19.9404 16.9254 19.9404C15.7354 19.9404 14.6848 19.6398 13.8248 19.0498C12.335 18.0398 11.445 16.4 11.4449 14.6602C11.4449 14.3802 11.665 14.1602 11.9449 14.1602ZM6.84532 5.66016C9.98529 4.04026 14.005 4.03042 17.1549 5.65039C18.6549 6.42039 19.9149 7.51041 20.9049 8.90039C21.0647 9.12037 21.0147 9.43965 20.7848 9.59961C20.5548 9.75958 20.2446 9.71037 20.0846 9.48047C19.1846 8.22047 18.0449 7.23004 16.6949 6.54004C13.8249 5.07006 10.1545 5.06981 7.29454 6.5498C5.93474 7.24976 4.79504 8.24995 3.89513 9.50977C3.81521 9.64962 3.6653 9.71959 3.50548 9.71973C3.40557 9.71973 3.30537 9.68977 3.21544 9.62988C2.98544 9.46988 2.93532 9.15969 3.09532 8.92969C4.08528 7.52986 5.34545 6.43009 6.84532 5.66016ZM12.0152 2C14.1449 2.00004 16.0048 2.46977 18.0445 3.51953C18.2945 3.64953 18.3855 3.95043 18.2555 4.19043C18.1655 4.37032 17.995 4.46971 17.815 4.46973C17.735 4.46973 17.6546 4.45016 17.5846 4.41016C15.6648 3.4203 14.005 3.00003 12.0152 3C10.0352 3 8.15493 3.47016 6.44493 4.41016C6.20498 4.54005 5.90524 4.44986 5.76524 4.20996C5.63524 3.96996 5.72544 3.66027 5.96544 3.53027C7.82538 2.52035 9.86533 2 12.0152 2Z" fill="#2F455C"/>
</g>
</svg>
