<svg width="24" height="24" viewBox="0 0 24 24" fill="none" xmlns="http://www.w3.org/2000/svg">
<g id="Actions/android">
<path id="Icon Shape" d="M18 18.0005C17.9998 18.5503 17.5499 19.0005 17 19.0005H16V22.5005C15.9998 23.3303 15.3299 24.0005 14.5 24.0005C13.6701 24.0005 13.0002 23.3303 13 22.5005V19.0005H11V22.5005C10.9998 23.3303 10.3299 24.0005 9.5 24.0005C8.67013 24.0005 8.00021 23.3303 8 22.5005V19.0005H7C6.45013 19.0005 6.00021 18.5503 6 18.0005V8.00049H18V18.0005ZM3.5 8.00049C4.33 8.00049 5 8.67049 5 9.50049V16.5005C4.99979 17.3303 4.32987 18.0005 3.5 18.0005C2.67013 18.0005 2.00021 17.3303 2 16.5005V9.50049C2 8.67049 2.67 8.00049 3.5 8.00049ZM20.5 8.00049C21.33 8.00049 22 8.67049 22 9.50049V16.5005C21.9998 17.3303 21.3299 18.0005 20.5 18.0005C19.6701 18.0005 19.0002 17.3303 19 16.5005V9.50049C19 8.67049 19.67 8.00049 20.5 8.00049ZM16.1201 0.149902C16.3201 -0.0499219 16.6301 -0.049987 16.8301 0.149902C17.03 0.34985 17.0299 0.659858 16.8301 0.859863L15.5303 2.15967C17.0303 3.24967 18 5.01049 18 7.00049H6C6 5.0105 6.97021 3.26041 8.4502 2.17041L7.13965 0.859863C6.93997 0.65988 6.93982 0.349807 7.13965 0.149902C7.33955 -0.05 7.6496 -0.0498047 7.84961 0.149902L9.33984 1.63037C10.1398 1.23037 11.04 1.00049 12 1.00049C12.9499 1.00049 13.8497 1.23042 14.6396 1.63037L16.1201 0.149902ZM9 5.00049H10V4.00049H9V5.00049ZM14 4.00049V5.00049H15V4.00049H14Z" fill="#2F455C"/>
</g>
</svg>
