<svg width="24" height="24" viewBox="0 0 24 24" fill="none" xmlns="http://www.w3.org/2000/svg">
<g id="Actions/open-in_browser">
<path id="Icon Shape" d="M19 4C20.11 4 21 4.9 21 6V18C21 19.1 20.1 20 19 20H16C15.45 20 15 19.55 15 19C15 18.45 15.45 18 16 18H19V8H5V18H8C8.55 18 9 18.45 9 19C9 19.55 8.55 20 8 20H5C3.9 20 3 19.1 3 18V6C3 4.9 3.89 4 5 4H19ZM11.6504 10.3496C11.8404 10.16 12.1597 10.1605 12.3496 10.3604L15.1396 13.1504C15.4596 13.4604 15.24 14 14.79 14H13V19C13 19.55 12.55 20 12 20C11.45 20 11 19.55 11 19V14H9.20996C8.75999 14 8.54036 13.4596 8.86035 13.1396L11.6504 10.3496Z" fill="#2F455C"/>
</g>
</svg>
