<svg width="24" height="24" viewBox="0 0 24 24" fill="none" xmlns="http://www.w3.org/2000/svg">
<g id="Actions/calendar-view_day">
<path id="Icon Shape" d="M20 16.5C20.55 16.5 21 16.95 21 17.5C21 18.05 20.55 18.5 20 18.5H4C3.45 18.5 3 18.05 3 17.5C3 16.95 3.45 16.5 4 16.5H20ZM20 9.5C20.55 9.5 21 9.95 21 10.5V13.5C21 14.05 20.55 14.5 20 14.5H4C3.45 14.5 3 14.05 3 13.5V10.5C3 9.95 3.45 9.5 4 9.5H20ZM20 5.5C20.55 5.5 21 5.95 21 6.5C21 7.05 20.55 7.5 20 7.5H4C3.45 7.5 3 7.05 3 6.5C3 5.95 3.45 5.5 4 5.5H20Z" fill="#2F455C"/>
</g>
</svg>
