<svg width="24" height="24" viewBox="0 0 24 24" fill="none" xmlns="http://www.w3.org/2000/svg">
<g id="Actions/description">
<path id="Icon Shape" d="M13.1699 2C13.6998 2 14.2099 2.20994 14.5898 2.58984L19.4102 7.41992C19.7901 7.78992 20 8.3001 20 8.83008V20C20 21.1 19.1 22 18 22H5.99023C4.89023 22 4 21.1 4 20V4C4 2.9 4.9 2 6 2H13.1699ZM9 16C8.45 16 8 16.45 8 17C8 17.55 8.45 18 9 18H15C15.55 18 16 17.55 16 17C16 16.45 15.55 16 15 16H9ZM9 12C8.45 12 8 12.45 8 13C8 13.55 8.45 14 9 14H15C15.55 14 16 13.55 16 13C16 12.45 15.55 12 15 12H9ZM13 8C13 8.55 13.45 9 14 9H18.5L13 3.5V8Z" fill="#2F455C"/>
</g>
</svg>
