<svg width="24" height="24" viewBox="0 0 24 24" fill="none" xmlns="http://www.w3.org/2000/svg">
<g id="Actions/spellcheck">
<path id="Icon Shape" d="M20.1425 11.7439C20.5225 11.3639 21.1629 11.3637 21.5429 11.7537C21.9329 12.1436 21.9328 12.7738 21.5429 13.1638L13.4628 21.2537C13.0728 21.6437 12.4427 21.6437 12.0527 21.2537L8.373 17.574C7.983 17.184 7.983 16.5538 8.373 16.1638C8.55982 15.9767 8.81362 15.8718 9.07808 15.8718C9.34249 15.8719 9.5964 15.9766 9.78316 16.1638L12.7529 19.1335L20.1425 11.7439ZM7.75288 2.45386C8.31283 2.4539 8.81242 2.79402 9.02242 3.32397L13.2724 14.1335C13.5224 14.7635 13.0629 15.4537 12.373 15.4539C11.973 15.4539 11.6128 15.2037 11.4628 14.8337L10.5625 12.4539H4.92281L4.04292 14.824C3.89291 15.2039 3.53275 15.4539 3.13277 15.4539C2.45277 15.4539 1.98238 14.7635 2.23238 14.1335L6.48238 3.32397C6.69238 2.79397 7.19288 2.45386 7.75288 2.45386ZM5.68257 10.4539H9.8232L7.75288 4.93433L5.68257 10.4539Z" fill="#2F455C"/>
</g>
</svg>
