<svg width="24" height="24" viewBox="0 0 24 24" fill="none" xmlns="http://www.w3.org/2000/svg">
<g id="Actions/text-rotate_up">
<path id="Icon Shape" d="M17.9939 4.24976C18.1938 4.04985 18.5038 4.05005 18.7038 4.24976L20.4939 6.04956C20.8139 6.35955 20.5942 6.90012 20.1443 6.90015H19.3542V18.9001C19.3541 19.4501 18.9042 19.9001 18.3542 19.9001C17.8043 19.9001 17.3543 19.4501 17.3542 18.9001V6.90015H16.5642C16.1143 6.90012 15.894 6.3598 16.2038 6.03979L17.9939 4.24976ZM13.0144 7.98022C13.6444 7.71025 14.3542 8.17012 14.3542 8.86011C14.3542 9.24993 14.1144 9.59992 13.7546 9.73999L12.154 10.4001V15.4001L13.7546 16.0496C14.1145 16.1996 14.3542 16.5503 14.3542 16.9402C14.3541 17.63 13.6443 18.0997 13.0144 17.8298L4.04466 13.95C3.62472 13.77 3.35431 13.3601 3.35423 12.9001C3.35423 12.4401 3.62466 12.0301 4.04466 11.8601L13.0144 7.98022ZM5.3347 12.9001L10.3542 14.7703V11.03L5.3347 12.9001Z" fill="#2F455C"/>
</g>
</svg>
