<svg width="24" height="24" viewBox="0 0 24 24" fill="none" xmlns="http://www.w3.org/2000/svg">
<g id="Actions/camera-enhance">
<path id="Icon Shape" d="M14.1201 3C14.6801 3.00003 15.2199 3.24042 15.5898 3.65039L16.8301 5H20C21.1 5 22 5.9 22 7V19C22 20.1 21.1 21 20 21H4C2.9 21 2 20.1 2 19V7C2 5.9 2.9 5 4 5H7.16992L8.40039 3.65039C8.78036 3.24042 9.31992 3.00003 9.87988 3H14.1201ZM12 8C9.24 8 7 10.24 7 13C7 15.76 9.24 18 12 18C14.76 18 17 15.76 17 13C17 10.24 14.76 8 12 8ZM13.25 11.75L16 13L13.25 14.25L12 17L10.75 14.25L8 13L10.75 11.75L12 9L13.25 11.75Z" fill="#2F455C"/>
</g>
</svg>
