<svg width="24" height="24" viewBox="0 0 24 24" fill="none" xmlns="http://www.w3.org/2000/svg">
<g id="Actions/update">
<path id="Icon Shape" d="M11.1586 3.03809C13.9785 2.78817 16.5586 3.82872 18.3686 5.63867L20.1488 3.8584C20.4588 3.53888 20.9981 3.75844 20.9985 4.20801V9.49805C20.9985 9.77803 20.7784 9.99802 20.4985 9.99805H15.2084C14.7584 9.99805 14.5388 9.45867 14.8588 9.13867L16.9487 7.04883C15.6787 5.78884 13.9284 4.99806 11.9985 4.99805C8.10846 4.99805 4.93846 8.19863 4.99846 12.0986C5.05855 15.8186 8.1889 18.948 11.8988 18.998C15.5087 19.0478 18.5187 16.3483 18.9487 12.8584C19.0087 12.3685 19.4283 11.9982 19.9281 11.998C20.5281 11.998 20.998 12.5183 20.9281 13.1182C20.3781 17.5581 16.5884 20.998 11.9985 20.998C6.68849 20.998 2.45808 16.3985 3.05803 10.9785C3.51803 6.78852 6.96862 3.41809 11.1586 3.03809ZM11.7485 7.99805C12.1584 7.99807 12.4981 8.33838 12.5082 8.73828V12.1387L15.3783 13.8486C15.7383 14.0586 15.8481 14.5189 15.6381 14.8789C15.4281 15.2284 14.9686 15.3483 14.6088 15.1387L11.4887 13.2881C11.1888 13.1081 10.9985 12.7786 10.9985 12.4287V8.74805C10.9987 8.33824 11.3386 7.99805 11.7485 7.99805Z" fill="#2F455C"/>
</g>
</svg>
