<svg width="24" height="24" viewBox="0 0 24 24" fill="none" xmlns="http://www.w3.org/2000/svg">
<g id="Actions/add-shopping_cart">
<path id="Icon Shape" d="M8.09706 18.5C9.19706 18.5 10.0971 19.4 10.0971 20.5C10.0971 21.6 9.19706 22.5 8.09706 22.5C6.99706 22.5 6.10683 21.6 6.10683 20.5C6.10683 19.4 6.99706 18.5 8.09706 18.5ZM18.0971 18.5C19.1971 18.5 20.0971 19.4 20.0971 20.5C20.0971 21.6 19.1971 22.5 18.0971 22.5C16.9971 22.5 16.1068 21.6 16.1068 20.5C16.1068 19.4 16.9971 18.5 18.0971 18.5ZM4.73671 2.5C5.11671 2.5 5.4771 2.72031 5.6371 3.07031L9.62733 11.5H16.6469L20.0375 5.37012C20.2975 4.89019 20.9071 4.72048 21.3871 4.98047C21.8669 5.25053 22.0467 5.85992 21.7767 6.33984L18.3969 12.4697C18.0569 13.0897 17.3969 13.5 16.6469 13.5H9.19667L8.09706 15.5H19.0971C19.6471 15.5 20.0971 15.95 20.0971 16.5C20.0971 17.05 19.6471 17.5 19.0971 17.5H8.09706C6.57714 17.5 5.61728 15.8702 6.34706 14.5303L7.69667 12.0898L4.09706 4.5H3.09706C2.54706 4.5 2.09706 4.05 2.09706 3.5C2.09706 2.95 2.54706 2.5 3.09706 2.5H4.73671ZM13.0971 1.5C13.6471 1.5 14.0971 1.95 14.0971 2.5V4.5H16.0971C16.6471 4.5 17.0971 4.95 17.0971 5.5C17.0971 6.05 16.6471 6.5 16.0971 6.5H14.0971V8.5C14.0971 9.05 13.6471 9.5 13.0971 9.5C12.5471 9.5 12.0971 9.05 12.0971 8.5V6.5H10.0971C9.54706 6.5 9.09706 6.05 9.09706 5.5C9.09706 4.95 9.54706 4.5 10.0971 4.5H12.0971V2.5C12.0971 1.95 12.5471 1.5 13.0971 1.5Z" fill="#2F455C"/>
</g>
</svg>
