<svg width="24" height="24" viewBox="0 0 24 24" fill="none" xmlns="http://www.w3.org/2000/svg">
<path d="M6.96387 17.1943C7.06887 17.179 7.17685 17.168 7.28613 17.168C8.52868 17.1682 9.53594 18.2 9.53613 19.4736C9.53613 19.5857 9.52477 19.6961 9.50977 19.8037H14.4902C14.4752 19.6961 14.4639 19.5857 14.4639 19.4736C14.4641 18.2 15.4713 17.1682 16.7139 17.168C16.8232 17.168 16.9311 17.179 17.0361 17.1943H17.0381V7.06348H19.1807V19.4121C19.1807 20.8377 18.0832 22 16.7354 22H7.2666C5.91874 22 4.82129 20.8399 4.82129 19.4121V7.06348H6.96387V17.1943ZM20.3574 3C22.3652 3.00016 24 4.67632 24 6.73438C23.9999 8.75506 22.4224 10.4087 20.4639 10.4658V8.26465C21.2416 8.21194 21.8573 7.54477 21.8574 6.73438C21.8574 5.88661 21.1844 5.19644 20.3574 5.19629H3.64258C2.81556 5.19644 2.14258 5.88661 2.14258 6.73438C2.14272 7.54477 2.75836 8.21194 3.53613 8.26465V10.4658C1.57765 10.4087 0.000141013 8.75506 0 6.73438C0 4.67632 1.63485 3.00016 3.64258 3H20.3574ZM15.2139 7.06348C15.2139 8.8822 13.7743 10.3584 12 10.3584C10.2257 10.3584 8.78613 8.8822 8.78613 7.06348H15.2139Z" fill="#2F455C"/>
</svg>
