<svg width="24" height="24" viewBox="0 0 24 24" fill="none" xmlns="http://www.w3.org/2000/svg">
<path d="M22 3C23.1046 3 24 3.89543 24 5V19C24 20.1046 23.1046 21 22 21H2C0.895431 21 0 20.1046 0 19V5C0 3.89543 0.895431 3 2 3H22ZM14.2959 6.45703C13.1996 6.00292 11.993 5.88373 10.8291 6.11523C9.66534 6.34678 8.59685 6.91878 7.75781 7.75781C6.91878 8.59684 6.34679 9.66535 6.11523 10.8291C5.88374 11.993 6.00293 13.1996 6.45703 14.2959C6.91116 15.3922 7.68031 16.33 8.66699 16.9893C9.65357 17.6483 10.8135 18 12 18C13.5907 17.9982 15.1154 17.365 16.2402 16.2402C17.365 15.1154 17.9982 13.5907 18 12C18 10.8135 17.6483 9.65357 16.9893 8.66699C16.33 7.68031 15.3922 6.91116 14.2959 6.45703ZM12 7.33301C13.2373 7.33443 14.4239 7.8263 15.2988 8.70117C16.1737 9.57605 16.6655 10.7627 16.667 12C16.6669 12.923 16.3936 13.8253 15.8809 14.5928C15.3681 15.3602 14.6389 15.9583 13.7861 16.3115C12.9334 16.6647 11.9951 16.7571 11.0898 16.5771C10.1845 16.3971 9.3529 15.9525 8.7002 15.2998C8.04748 14.6471 7.60294 13.8155 7.42285 12.9102C7.2428 12.0048 7.33525 11.0667 7.68848 10.2139C8.04173 9.36107 8.63972 8.63197 9.40723 8.11914C10.1747 7.60637 11.077 7.33301 12 7.33301ZM12 10C11.6045 10 11.2176 10.1172 10.8887 10.3369C10.5599 10.5566 10.3037 10.8691 10.1523 11.2344C10.001 11.5998 9.96092 12.0027 10.0381 12.3906C10.1153 12.7784 10.3063 13.1345 10.5859 13.4141C10.8656 13.6937 11.2216 13.8847 11.6094 13.9619C11.9973 14.0391 12.4002 13.999 12.7656 13.8477C13.1309 13.6963 13.4434 13.4401 13.6631 13.1113C13.8828 12.7825 14 12.3955 14 12C14 11.4696 13.7891 10.961 13.4141 10.5859C13.039 10.2109 12.5304 10 12 10Z" fill="#25252A"/>
</svg>
