<svg width="24" height="24" viewBox="0 0 24 24" fill="none" xmlns="http://www.w3.org/2000/svg">
<g id="Actions/swap-horiz">
<path id="Icon Shape" d="M6.13597 11.855C6.44591 11.5353 6.98528 11.7549 6.98558 12.2046V13.9946H12.9953C13.5452 13.9946 13.9952 14.4448 13.9953 14.9946C13.9953 15.5446 13.5453 15.9946 12.9953 15.9946H6.98558V17.7954C6.98521 18.235 6.4459 18.4646 6.13597 18.145L3.3557 15.355C3.1657 15.155 3.1657 14.845 3.3557 14.645L6.13597 11.855ZM17.0159 6.20459C17.0162 5.76486 17.5555 5.53517 17.8655 5.85498L20.6457 8.64502C20.8356 8.83501 20.8359 9.15524 20.636 9.34521L17.8557 12.1353C17.5457 12.4551 17.0061 12.2346 17.0061 11.7847V9.99463H10.9953C10.4455 9.99448 9.99535 9.54454 9.99535 8.99463C9.99553 8.44487 10.4456 7.99478 10.9953 7.99463H17.0159V6.20459Z" fill="#2F455C"/>
</g>
</svg>
