<svg width="24" height="24" viewBox="0 0 24 24" fill="none" xmlns="http://www.w3.org/2000/svg">
<g id="Actions/group-work">
<path id="Icon Shape" d="M12 2C17.52 2 22 6.48 22 12C22 17.52 17.52 22 12 22C6.48 22 2 17.52 2 12C2 6.48 6.48 2 12 2ZM8 12.5C6.62 12.5 5.5 13.62 5.5 15C5.5 16.38 6.62 17.5 8 17.5C9.38 17.5 10.5 16.38 10.5 15C10.5 13.62 9.38 12.5 8 12.5ZM16 12.5C14.62 12.5 13.5 13.62 13.5 15C13.5 16.38 14.62 17.5 16 17.5C17.38 17.5 18.5 16.38 18.5 15C18.5 13.62 17.38 12.5 16 12.5ZM12 5.5C10.62 5.5 9.5 6.62 9.5 8C9.5 9.38 10.62 10.5 12 10.5C13.38 10.5 14.5 9.38 14.5 8C14.5 6.62 13.38 5.5 12 5.5Z" fill="#2F455C"/>
</g>
</svg>
