<svg width="24" height="24" viewBox="0 0 24 24" fill="none" xmlns="http://www.w3.org/2000/svg">
<g id="Actions/opacity">
<path id="Icon Shape" d="M12.0049 2.55371C12.2694 2.55371 12.5231 2.65943 12.71 2.84668L17.6602 7.78613C19.22 9.34602 19.9999 11.4259 20 13.4258C20 15.4258 19.2202 17.5367 17.6602 19.0967C16.1002 20.6566 14.0499 21.4463 12 21.4463C9.95007 21.4463 7.89982 20.6566 6.33984 19.0967C4.77984 17.5367 4 15.4258 4 13.4258C4.00011 11.4259 4.77998 9.34602 6.33984 7.78613L11.2998 2.84668C11.4866 2.65945 11.7404 2.55374 12.0049 2.55371ZM7.75977 9.38574C6.61978 10.5157 6.01001 11.7862 6 13.7861H18C17.99 11.7863 17.38 10.5564 16.2402 9.43652L12 5.05664L7.75977 9.38574Z" fill="#2F455C"/>
</g>
</svg>
