<svg width="24" height="24" viewBox="0 0 24 24" fill="none" xmlns="http://www.w3.org/2000/svg">
<path d="M17.5 21.5C18.2653 21.5 18.7789 21.8159 18.9834 21.9414C19.0159 21.9614 19.041 21.976 19.0576 21.9844C19.4528 22.1819 19.6126 22.6625 19.415 23.0576C19.2174 23.4527 18.7369 23.6126 18.3418 23.415C18.2278 23.358 18.1424 23.3085 18.0703 23.2666C17.8822 23.1572 17.7838 23.0996 17.5 23.0996C17.2162 23.0996 17.1178 23.1572 16.9297 23.2666C16.8576 23.3085 16.7722 23.358 16.6582 23.415C16.2631 23.6126 15.7826 23.4527 15.585 23.0576C15.3874 22.6625 15.5472 22.1819 15.9424 21.9844C15.959 21.976 15.9841 21.9614 16.0166 21.9414C16.2211 21.8159 16.7347 21.5 17.5 21.5ZM17.5049 17.8096C18.7243 17.8097 19.8575 18.1859 20.8154 18.834C20.9053 18.6386 20.9666 18.4273 20.9893 18.2041V18.2051C20.9668 18.4285 20.9065 18.6399 20.8174 18.835C20.9264 18.9088 21.0334 18.9857 21.1377 19.0664C21.5641 19.4093 21.5998 20.0856 21.2178 20.4951C20.9069 20.8282 20.4188 20.8474 20.0635 20.5811C19.344 20.0383 18.4553 19.714 17.5049 19.7139C16.5543 19.7139 15.6659 20.0385 14.9463 20.5908C14.5909 20.8575 14.102 20.8284 13.791 20.4951C13.409 20.0856 13.4358 19.3997 13.8711 19.0664C14.8927 18.276 16.1457 17.8096 17.5049 17.8096ZM19 4C20.11 4 21 4.89 21 6V12H3V17C3 17.55 3.50625 18 4.125 18H9.5V18.0586C9.50005 18.9193 10.0507 19.6838 10.8672 19.9561L11 20H3C1.89 20 1 19.11 1 18L1.00977 6C1.00977 4.89 1.89 4 3 4H19ZM17.5049 14C19.8501 14.0001 21.9998 14.8862 23.6699 16.3623C24.0784 16.7242 24.1143 17.3813 23.7412 17.7812C23.4214 18.124 22.9148 18.1523 22.5684 17.8477C21.2003 16.6383 19.4325 15.9044 17.5049 15.9043C15.5771 15.9043 13.8087 16.6379 12.4316 17.8379C12.0852 18.1426 11.5786 18.1143 11.2588 17.7715C10.8857 17.3715 10.9215 16.7144 11.3301 16.3525C13.0092 14.8859 15.1595 14 17.5049 14ZM3 8H19V6H3V8Z" fill="#2F455C"/>
</svg>
