<svg width="24" height="24" viewBox="0 0 24 24" fill="none" xmlns="http://www.w3.org/2000/svg">
<g id="Actions/settings-input_antenna">
<path id="Icon Shape" d="M9.49965 12.5037C9.49965 10.8837 11.0392 9.62344 12.7291 10.1033C13.539 10.3332 14.1888 10.9936 14.4088 11.8035C14.7588 13.1333 14.0695 14.3136 12.9997 14.7937V18.0935L15.7096 20.7937C16.0994 21.1837 16.0995 21.8139 15.7096 22.2039C15.3197 22.5938 14.6895 22.5937 14.2995 22.2039L11.9997 19.9041L9.69887 22.2039C9.30895 22.5935 8.67962 22.5935 8.28969 22.2039C7.89969 21.8139 7.89969 21.1837 8.28969 20.7937L10.9997 18.0935V14.7937C10.1197 14.4037 9.49965 13.5237 9.49965 12.5037ZM11.9997 1.50366C17.6995 1.50385 22.3889 5.84418 22.9489 11.4041C23.0087 11.9939 22.5388 12.5037 21.9489 12.5037C21.4391 12.5035 21.0097 12.1236 20.9596 11.6238C20.5196 7.0639 16.6695 3.50385 11.9997 3.50366C7.32965 3.50366 3.47969 7.06378 3.03969 11.6238C2.98966 12.1237 2.55935 12.5036 2.04946 12.5037C1.45958 12.5037 0.999683 11.9939 1.04946 11.4041C1.60946 5.84405 6.29965 1.50366 11.9997 1.50366ZM11.9997 5.50366C15.4795 5.50385 18.3691 8.0439 18.8991 11.3738C18.999 11.9637 18.5188 12.5037 17.9088 12.5037C17.4192 12.5034 17.0095 12.1437 16.9293 11.6541C16.5194 9.29417 14.4695 7.50385 11.9997 7.50366C9.52965 7.50366 7.47899 9.29405 7.06899 11.6541C6.98883 12.1438 6.57926 12.5036 6.0895 12.5037C5.47952 12.5037 4.98955 11.9637 5.0895 11.3738C5.6295 8.04378 8.51965 5.50366 11.9997 5.50366Z" fill="#2F455C"/>
</g>
</svg>
