<svg width="24" height="24" viewBox="0 0 24 24" fill="none" xmlns="http://www.w3.org/2000/svg">
<g id="Actions/find-in_page">
<path id="Icon Shape" d="M13.1699 2C13.6999 2 14.2101 2.20987 14.5801 2.58984L19.4102 7.41992C19.7901 7.78992 20 8.3001 20 8.83008V19.5898L16.1699 15.75C16.8799 14.67 17.2001 13.3096 16.8701 11.8496C16.44 9.91983 14.8199 8.40035 12.8701 8.07031C9.49022 7.50033 6.60025 10.3298 7.04004 13.6797C7.36003 16.0296 9.38986 17.8801 11.7598 17.9902C12.8697 18.0502 13.8998 17.7299 14.7598 17.1699L19.1904 21.5996C18.8504 21.8496 18.45 22 18 22H5.99023C4.89023 22 4 21.1 4 20L4.00977 4C4.00977 2.9 4.9 2 6 2H13.1699ZM12 10C13.66 10 15 11.34 15 13C15 14.66 13.66 16 12 16C10.34 16 9 14.66 9 13C9 11.34 10.34 10 12 10Z" fill="#2F455C"/>
</g>
</svg>
