<svg width="24" height="24" viewBox="0 0 24 24" fill="none" xmlns="http://www.w3.org/2000/svg">
<path d="M21.3301 3.8501C22.32 3.85014 23.1298 4.66001 23.1299 5.6499V21.2505C23.1297 22.2403 22.3199 23.0502 21.3301 23.0503H12.3301C11.3402 23.0503 10.5305 22.2403 10.5303 21.2505V5.6499C10.5304 4.65998 11.3401 3.8501 12.3301 3.8501H21.3301ZM4.62012 0.149902C4.7501 -0.0498729 4.95012 -0.0499325 5.08008 0.149902L5.58984 0.949707C5.71984 1.14971 5.9198 1.14971 6.0498 0.949707L6.55957 0.159668C6.6795 -0.0400694 6.87979 -0.0398808 7.00977 0.159668L7.51953 0.949707C7.64953 1.14971 7.85047 1.14971 7.98047 0.949707L8.48047 0.159668C8.61045 -0.0397805 8.81054 -0.0400543 8.94043 0.159668L9.4502 0.949707C9.5802 1.14971 9.77039 1.14971 9.90039 0.949707L10.4102 0.159668C10.5401 -0.0398759 10.7402 -0.0399593 10.8701 0.159668L11.3701 0.949707C11.5001 1.14971 11.7001 1.14971 11.8301 0.949707L12.3398 0.159668C12.3898 0.0600343 12.4798 0.0104327 12.5596 0.0102539V3.00049H12.2598C11.4899 3.00055 10.8 3.31013 10.29 3.81006H2.83008C2.60019 3.81006 2.41034 3.99991 2.41016 4.23975C2.41016 4.46975 2.60008 4.65967 2.83008 4.65967H9.70996C9.54996 5.00967 9.45996 5.39029 9.45996 5.80029V8.10986H2.83008C2.60018 8.10986 2.41033 8.29993 2.41016 8.52979C2.41016 8.76978 2.60008 8.96045 2.83008 8.96045H9.45996V10.2505H2.83008C2.60008 10.2505 2.41016 10.4402 2.41016 10.6802C2.4102 10.9101 2.6001 11.1001 2.83008 11.1001H9.45996V12.3999H2.83008C2.60017 12.3999 2.41031 12.5899 2.41016 12.8198C2.41016 13.0598 2.60008 13.2505 2.83008 13.2505H9.45996V20.6401C9.45014 20.6402 9.44999 20.6498 9.44043 20.6597L8.92969 21.4497C8.79969 21.6497 8.61047 21.6497 8.48047 21.4497L7.96973 20.6597C7.83976 20.4602 7.63968 20.46 7.50977 20.6597L7.00977 21.4497C6.87977 21.6497 6.6798 21.6497 6.5498 21.4497L6.04004 20.6597C5.91009 20.46 5.7098 20.46 5.58984 20.6597L5.08008 21.4497C4.95008 21.6497 4.75012 21.6497 4.62012 21.4497L4.11035 20.6597C3.99042 20.46 3.79013 20.4601 3.66016 20.6597L3.15039 21.4497C3.02039 21.6497 2.82043 21.6497 2.69043 21.4497L2.19043 20.6597C2.06054 20.4599 1.86045 20.4602 1.73047 20.6597L1.21973 21.4497C1.16973 21.5497 1.08 21.6001 1 21.6001V0.0102539C1.07992 0.0102539 1.1697 0.0600694 1.21973 0.149902L1.73047 0.949707C1.86047 1.14971 2.06043 1.14971 2.19043 0.949707L2.69043 0.149902C2.82044 -0.0497639 3.02046 -0.0499864 3.15039 0.149902L3.66016 0.949707C3.79016 1.14971 3.99035 1.14971 4.11035 0.949707L4.62012 0.149902ZM12.3301 6.44971C12.2201 6.44971 12.13 6.53998 12.1299 6.6499V20.2505C12.1301 20.3603 12.2202 20.4497 12.3301 20.4497H21.3301C21.4399 20.4497 21.53 20.3603 21.5303 20.2505V6.6499C21.5302 6.54001 21.44 6.44975 21.3301 6.44971H12.3301ZM2.83008 16.4702C2.60008 16.4702 2.41016 16.6601 2.41016 16.8901C2.41018 17.1301 2.60009 17.3198 2.83008 17.3198H4.7002C4.94009 17.3197 5.12986 17.1301 5.12988 16.8901C5.12988 16.6602 4.9401 16.4703 4.7002 16.4702H2.83008ZM14.0703 15.5903H16V16.5903H13.0703V14.0903H14.0703V15.5903ZM20.5898 16.5903H18V15.5903H19.5898V14.0903H20.5898V16.5903ZM20.6104 11.3999V12.3999H13.0703V11.3999H20.6104ZM16 8.21045H14.0703V10.0903H13.0703V7.21045H16V8.21045ZM20.5898 10.0903H19.5898V8.21045H18V7.21045H20.5898V10.0903Z" fill="#2F455C"/>
</svg>
