<svg width="24" height="24" viewBox="0 0 24 24" fill="none" xmlns="http://www.w3.org/2000/svg">
<g id="Actions/face">
<path id="Icon Shape" d="M12 2C17.52 2 22 6.48 22 12C22 17.52 17.52 22 12 22C6.48 22 2 17.52 2 12C2 6.48 6.48 2 12 2ZM9.25977 5.76953C8.27977 8.15953 6.4098 10.0896 4.0498 11.1396C4.0198 11.4196 4 11.71 4 12C4 16.41 7.59 20 12 20C16.41 20 20 16.41 20 12C20 11.2101 19.8799 10.4502 19.6699 9.74023C18.95 9.91021 18.1999 10 17.4199 10C14.05 9.99997 11.0698 8.32951 9.25977 5.76953ZM9 11.75C9.69 11.75 10.25 12.31 10.25 13C10.25 13.69 9.69 14.25 9 14.25C8.31 14.25 7.75 13.69 7.75 13C7.75 12.31 8.31 11.75 9 11.75ZM15 11.75C15.69 11.75 16.25 12.31 16.25 13C16.25 13.69 15.69 14.25 15 14.25C14.31 14.25 13.75 13.69 13.75 13C13.75 12.31 14.31 11.75 15 11.75Z" fill="#2F455C"/>
</g>
</svg>
