<svg width="24" height="24" viewBox="0 0 24 24" fill="none" xmlns="http://www.w3.org/2000/svg">
<g id="Actions/thumbs-up_down">
<path id="Icon Shape" d="M22.005 10.0002C23.105 10.0002 24.0052 10.9002 23.9952 12.0002V17.7903C23.9951 18.3202 23.7853 18.8205 23.4053 19.2004L19.4053 23.2004C18.9755 23.6403 18.2653 23.64 17.8253 23.2004C17.5653 22.9305 17.4445 22.5499 17.5245 22.1799L18.1846 19.0002H13.9454C12.5055 19.0002 11.5449 17.5301 12.1046 16.2102L14.2452 11.2102C14.5652 10.4802 15.285 10.0002 16.085 10.0002H22.005ZM4.60457 0.800049C5.03453 0.360088 5.74464 0.360166 6.18465 0.800049C6.44454 1.06993 6.56522 1.44973 6.48543 1.81958L5.82527 5.00024H10.0645C11.4945 5.00024 12.4654 6.47028 11.9053 7.79028L9.76472 12.7903C9.44465 13.5201 8.72475 14.0002 7.92488 14.0002H2.00496C0.90505 14.0002 0.00510838 13.1001 0.00495911 12.0002V6.21021C0.00495911 5.68032 0.214725 5.17003 0.604568 4.80005L4.60457 0.800049Z" fill="#2F455C"/>
</g>
</svg>
