<svg width="24" height="24" viewBox="0 0 24 24" fill="none" xmlns="http://www.w3.org/2000/svg">
<g id="Actions/shopping-basket">
<path id="Icon Shape" d="M11.1602 2.93604C11.5502 2.34619 12.4203 2.34609 12.8203 2.93604L17.21 9.50635H22C22.55 9.50635 23 9.95635 23 10.5063L22.9697 10.7759L20.4297 20.0464C20.1896 20.8862 19.4199 21.5063 18.5 21.5063H5.5C4.58009 21.5063 3.81016 20.8863 3.58008 20.0464L1.04004 10.7759C1.01012 10.686 1.00001 10.5962 1 10.5063C1 9.95635 1.45 9.50635 2 9.50635H6.76953L11.1602 2.93604ZM12 13.5063C10.9 13.5063 10 14.4063 10 15.5063C10.0001 16.6063 10.9001 17.5063 12 17.5063C13.0999 17.5063 13.9999 16.6063 14 15.5063C14 14.4063 13.1 13.5063 12 13.5063ZM9.17969 9.50635H14.7998L11.9902 5.29639L9.17969 9.50635Z" fill="#2F455C"/>
</g>
</svg>
