<svg width="24" height="24" viewBox="0 0 24 24" fill="none" xmlns="http://www.w3.org/2000/svg">
<g id="Actions/search">
<path id="Icon Shape" d="M3.52672 10.7913C3.00693 6.56148 6.56647 3.00194 10.7962 3.52173C13.5962 3.86173 15.9161 6.08161 16.3861 8.86157C16.7261 10.8915 16.1065 12.8014 14.9066 14.2014L15.1869 14.4719H15.9769L20.2162 18.7317C20.6262 19.1417 20.6262 19.8119 20.2162 20.2219C19.8063 20.6314 19.1368 20.6314 18.7269 20.2219L14.4769 15.9719V15.1819L14.2064 14.9016C12.8064 16.1016 10.8965 16.7211 8.86656 16.3811C6.0866 15.9111 3.86671 13.5912 3.52672 10.7913ZM9.97691 5.47192C7.48691 5.47192 5.47691 7.48192 5.47691 9.97192C5.4771 12.4618 7.48703 14.4719 9.97691 14.4719C12.4666 14.4717 14.4767 12.4616 14.4769 9.97192C14.4769 7.48204 12.4668 5.47211 9.97691 5.47192Z" fill="#2F455C"/>
</g>
</svg>
