<svg width="24" height="24" viewBox="0 0 24 24" fill="none" xmlns="http://www.w3.org/2000/svg">
<g id="Actions/toc">
<path id="Icon Shape" d="M16 15C16.55 15 17 15.45 17 16C17 16.55 16.55 17 16 17H4C3.45 17 3 16.55 3 16C3 15.45 3.45 15 4 15H16ZM21 17H19V15H21V17ZM16 11C16.55 11 17 11.45 17 12C17 12.55 16.55 13 16 13H4C3.45 13 3 12.55 3 12C3 11.45 3.45 11 4 11H16ZM21 11V13H19V11H21ZM16 7C16.55 7 17 7.45 17 8C17 8.55 16.55 9 16 9H4C3.45 9 3 8.55 3 8C3 7.45 3.45 7 4 7H16ZM21 9H19V7H21V9Z" fill="#2F455C"/>
</g>
</svg>
