<svg width="24" height="24" viewBox="0 0 24 24" fill="none" xmlns="http://www.w3.org/2000/svg">
<g id="Actions/swap-vert">
<path id="Icon Shape" d="M14.9965 10.0054C15.5463 10.0056 15.9965 10.4555 15.9965 11.0054V17.0151H17.7963C18.2361 17.0154 18.4659 17.5548 18.1459 17.8647L15.3559 20.645C15.1559 20.8349 14.8459 20.835 14.6459 20.645L11.8559 17.8647C11.5361 17.5547 11.7566 17.0151 12.2065 17.0151H13.9965V11.0054C13.9965 10.4554 14.4465 10.0054 14.9965 10.0054ZM8.64594 3.35498C8.83594 3.16498 9.15613 3.16498 9.34613 3.35498L12.1362 6.14502C12.456 6.45504 12.2355 6.99463 11.7856 6.99463H9.99652V13.0054C9.99627 13.555 9.54616 14.0051 8.99652 14.0054C8.44668 14.0054 7.99678 13.5552 7.99652 13.0054V6.99463H6.20648C5.75655 6.99463 5.53611 6.45504 5.8559 6.14502L8.64594 3.35498Z" fill="#2F455C"/>
</g>
</svg>
