<svg width="24" height="24" viewBox="0 0 24 24" fill="none" xmlns="http://www.w3.org/2000/svg">
<g id="Actions/help">
<path id="Icon Shape" d="M12 2C17.52 2 22 6.48 22 12C22 17.52 17.52 22 12 22C6.48 22 2 17.52 2 12C2 6.48 6.48 2 12 2ZM11 19H13V17H11V19ZM15.2598 6.84961C14.3597 5.59982 12.9095 4.80983 11.3896 5.0498C9.83985 5.2899 8.59017 6.41006 8.16016 7.87988C8.00016 8.43988 8.40047 9 8.98047 9H9.28027C9.67015 8.99987 9.97964 8.71952 10.0996 8.34961C10.4297 7.39974 11.4604 6.7701 12.5703 7.08008C13.2702 7.28017 13.83 7.89046 13.96 8.61035C14.0898 9.31023 13.8701 9.97023 13.4102 10.4102L12.1699 11.6699C11.7499 12.0899 11.4197 12.6104 11.2197 13.1904C11.0798 13.6003 11 14.0402 11 14.5V15H13C13 14.5402 13.0499 14.1803 13.1299 13.8604C13.3099 13.1404 13.6699 12.6799 14.1699 12.1699L15.0703 11.25C16.0902 10.23 16.4397 8.47953 15.2598 6.84961Z" fill="#2F455C"/>
</g>
</svg>
