<svg width="24" height="24" viewBox="0 0 24 24" fill="none" xmlns="http://www.w3.org/2000/svg">
<g id="Actions/flight-land">
<path id="Icon Shape" d="M20.5 19.3434C21.05 19.3434 21.5 19.7934 21.5 20.3434C21.4999 20.8933 21.05 21.3434 20.5 21.3434H3.5C2.95005 21.3434 2.50007 20.8933 2.5 20.3434C2.5 19.7934 2.95 19.3434 3.5 19.3434H20.5ZM10.1299 3.73303C10.13 3.02314 10.8005 2.51301 11.4805 2.69299C11.8403 2.79308 12.1205 3.06358 12.2305 3.42346L14.8096 11.8737L20.1201 13.2936C20.92 13.5137 21.3897 14.3335 21.1797 15.1334C20.9596 15.9333 20.1398 16.403 19.3398 16.193L3.50977 11.9537C3.06982 11.8337 2.76953 11.443 2.76953 10.983V7.23303C2.76967 6.90314 3.08046 6.66356 3.40039 6.75354L3.73047 6.84338C4.04024 6.92349 4.28045 7.14337 4.40039 7.43323L5.15039 9.29358L10.1299 10.6129V3.73303Z" fill="#2F455C"/>
</g>
</svg>
