<svg width="24" height="24" viewBox="0 0 24 24" fill="none" xmlns="http://www.w3.org/2000/svg">
<g id="Actions/compare-arrows">
<path id="Icon Shape" d="M9.00977 12.1997C9.01003 11.7599 9.55043 11.5302 9.86035 11.8501L12.6396 14.6401C12.8296 14.8401 12.8296 15.1501 12.6396 15.3501L9.86035 18.1401C9.55035 18.4601 9.00977 18.2396 9.00977 17.7896V16.0005H3C2.45015 16.0005 2.00025 15.5503 2 15.0005C2 14.4505 2.45 14.0005 3 14.0005H9.00977V12.1997ZM14.1396 5.85986C14.4496 5.53986 14.9902 5.76045 14.9902 6.21045V8.00049H21C21.55 8.00049 22 8.45049 22 9.00049C21.9998 9.55028 21.5498 10.0005 21 10.0005H14.9902V11.7896C14.9902 12.2396 14.4496 12.4599 14.1396 12.1499L11.3604 9.35986C11.1704 9.15986 11.1704 8.8499 11.3604 8.6499L14.1396 5.85986Z" fill="#2F455C"/>
</g>
</svg>
