<svg width="24" height="24" viewBox="0 0 24 24" fill="none" xmlns="http://www.w3.org/2000/svg">
<g id="Actions/account-balance_wallet">
<path id="Icon Shape" d="M18.5 3C19.6 3 20.5 3.9 20.5 5V6H11.5C10.39 6 9.5 6.9 9.5 8V16C9.5 17.1 10.39 18 11.5 18H20.5V19C20.5 20.1 19.6 21 18.5 21H4.5C3.39 21 2.5 20.1 2.5 19V5C2.5 3.9 3.39 3 4.5 3H18.5ZM21.5 16H12.5C11.95 16 11.5 15.55 11.5 15V9C11.5 8.45 11.95 8 12.5 8H21.5V16ZM15.5 10.5C14.67 10.5 14 11.17 14 12C14 12.83 14.67 13.5 15.5 13.5C16.33 13.5 17 12.83 17 12C17 11.17 16.33 10.5 15.5 10.5Z" fill="#2F455C"/>
</g>
</svg>
