<svg width="24" height="24" viewBox="0 0 24 24" fill="none" xmlns="http://www.w3.org/2000/svg">
<g id="Actions/youtube-searched_for">
<path id="Icon Shape" d="M17.2758 14.4727H16.4758L16.2058 14.2027C17.3558 12.8627 17.9658 11.0627 17.7158 9.11269C17.3758 6.47269 15.3658 4.25269 12.7658 3.65269C8.5258 2.67269 4.7758 6.00269 4.7758 9.97269H2.6758C2.2058 9.97269 1.9958 10.5627 2.3658 10.8627L5.7658 13.6127C5.9558 13.8127 6.2758 13.8227 6.4758 13.6227L9.3758 10.8327C9.6958 10.5227 9.4758 9.97269 9.0258 9.97269H6.7758C6.7758 7.48269 8.7758 5.49269 11.2358 5.47269C13.6758 5.45269 15.7758 7.52269 15.7758 9.96269C15.7758 12.4427 13.7558 14.4727 11.2758 14.4727C10.8258 14.4727 10.3858 14.4027 9.9758 14.2827C9.6358 14.1827 9.2658 14.2827 9.0158 14.5427C8.4858 15.0727 8.6958 15.9927 9.4058 16.2027C9.9958 16.3727 10.6258 16.4727 11.2758 16.4727C12.8858 16.4727 14.3558 15.8827 15.4958 14.9027L15.7658 15.1727V15.9627L20.0358 20.2127C20.4458 20.6227 21.1058 20.6227 21.5158 20.2127C21.9258 19.8027 21.9258 19.1327 21.5158 18.7227L17.2758 14.4727Z" fill="#2F455C"/>
</g>
</svg>
