<svg width="24" height="24" viewBox="0 0 24 24" fill="none" xmlns="http://www.w3.org/2000/svg">
<g id="Actions/motorcycle">
<path id="Icon Shape" d="M15 5C15.2599 5 15.52 5.10988 15.71 5.2998L17.3096 6.90039L19.4404 9.03027C22.0302 9.23048 24 11.3502 24 14C24 16.8 21.8 19 19 19C16.2 19 14 16.8 14 14C14 13.3702 14.1097 12.7703 14.3096 12.2305L12.1299 14.4102C11.7599 14.7901 11.2497 15 10.7197 15H9.90039C9.45039 17.31 7.46 19 5 19C2.2 19 0 16.8 0 14C0 11.2 2.2 9 5 9H16.5898L14.5898 7H12C11.45 7 11 6.55 11 6C11 5.45 11.45 5 12 5H15ZM5 11C3.37 11 2 12.37 2 14C2 15.63 3.37 17 5 17C6.28 17 7.40031 16.15 7.82031 15H5C4.45 15 4 14.55 4 14C4 13.45 4.45 13 5 13H7.82031C7.40031 11.85 6.28 11 5 11ZM19 11C17.34 11 16 12.34 16 14C16 15.66 17.34 17 19 17C20.66 17 22 15.66 22 14C22 12.34 20.66 11 19 11Z" fill="#2F455C"/>
</g>
</svg>
