<svg width="24" height="24" viewBox="0 0 24 24" fill="none" xmlns="http://www.w3.org/2000/svg">
<g id="Actions/autorenew">
<path id="Icon Shape" d="M17.79 8.71008C18.3 8.20009 19.1597 8.37994 19.4297 9.04993C19.7997 9.95993 20 10.9601 20 12.0001C19.9998 16.42 16.4199 20.0001 12 20.0001V21.7999C11.9999 22.2398 11.4604 22.4594 11.1504 22.1495L8.36035 19.3595C8.16035 19.1595 8.16035 18.8495 8.36035 18.6495L11.1504 15.8595C11.4604 15.54 12 15.7603 12 16.2101V18.0001C15.3099 18.0001 17.9998 15.31 18 12.0001C18 11.2102 17.8395 10.4501 17.5596 9.75012C17.4096 9.40017 17.5201 8.98009 17.79 8.71008ZM12 2.21008C12 1.7602 12.5396 1.54008 12.8496 1.84973L15.6396 4.63977C15.8396 4.83977 15.8396 5.14973 15.6396 5.34973L12.8496 8.13977C12.5397 8.45944 12.0003 8.23985 12 7.79016V6.00012C8.69 6.00012 6 8.69012 6 12.0001C6.00004 12.79 6.15047 13.5602 6.44043 14.2501C6.59017 14.61 6.47986 15.0203 6.20996 15.2902C5.69994 15.7999 4.84028 15.6193 4.57031 14.9493C4.20043 14.0395 4.00004 13.0399 4 12.0001C4 7.58012 7.58 4.00012 12 4.00012V2.21008Z" fill="#2F455C"/>
</g>
</svg>
