<svg width="24" height="24" viewBox="0 0 24 24" fill="none" xmlns="http://www.w3.org/2000/svg">
<g id="Actions/settings-brightness">
<path id="Icon Shape" d="M21 3C22.1 3 23 3.9 23 5V19C23 20.1 22.1 21 21 21H3C1.9 21 1 20.1 1 19V5C1 3.9 1.9 3 3 3H21ZM4 4.99023C3.45 4.99023 3 5.44023 3 5.99023V18.0098C3 18.5598 3.45 19.0098 4 19.0098H20C20.55 19.0098 21 18.5598 21 18.0098V5.99023C21 5.44023 20.55 4.99023 20 4.99023H4ZM11.6396 6.84961C11.8395 6.64976 12.1496 6.65001 12.3496 6.84961L13.5 8H15.5C15.78 8 16 8.22 16 8.5V10.5L17.1504 11.6396C17.3502 11.8395 17.35 12.1496 17.1504 12.3496L16 13.5V15.5C16 15.78 15.78 16 15.5 16H13.5L12.3604 17.1504C12.1605 17.3502 11.8504 17.35 11.6504 17.1504L10.5 16H8.5C8.22 16 8 15.78 8 15.5V13.5L6.84961 12.3604C6.64976 12.1605 6.65001 11.8504 6.84961 11.6504L8 10.5V8.5C8 8.22 8.22 8 8.5 8H10.5L11.6396 6.84961ZM12 15C13.66 15 15 13.66 15 12C15 10.34 13.66 9 12 9V15Z" fill="#2F455C"/>
</g>
</svg>
