<svg width="24" height="24" viewBox="0 0 24 24" fill="none" xmlns="http://www.w3.org/2000/svg">
<g id="Actions/input">
<path id="Icon Shape" d="M21 3.01001C22.1 3.01001 23 3.91001 23 5.01001V18.9905C22.9997 20.0903 22.0998 20.9905 21 20.9905H2.98047C1.89047 20.9905 1 20.1 1 19.01V16.0002C1 15.4502 1.45 15.0002 2 15.0002C2.55 15.0002 3 15.4502 3 16.0002V18.0198C3 18.5698 3.45 19.0198 4 19.0198H20C20.55 19.0198 21 18.5698 21 18.0198V5.99048C21 5.44048 20.55 4.99048 20 4.99048H4C3.45 4.99048 3 5.44048 3 5.99048V8.00024C2.99987 8.55014 2.54992 9.00024 2 9.00024C1.45008 9.00024 1.00013 8.55014 1 8.00024V5.01001C1 3.91001 1.9 3.01001 3 3.01001H21ZM11 9.21021C11 8.76039 11.5395 8.5402 11.8496 8.85962L14.6396 11.6497C14.8396 11.8497 14.8396 12.1596 14.6396 12.3596L11.8496 15.1497C11.5397 15.4596 11.0002 15.2401 11 14.7903V13.0002H2C1.45008 13.0002 1.00013 12.5501 1 12.0002C1 11.4502 1.45 11.0002 2 11.0002H11V9.21021Z" fill="#2F455C"/>
</g>
</svg>
