<svg width="24" height="24" viewBox="0 0 24 24" fill="none" xmlns="http://www.w3.org/2000/svg">
<g id="Actions/settings-power">
<path id="Icon Shape" d="M9.00253 23H7.00253V21H9.00253V23ZM13.0025 23H11.0025V21H13.0025V23ZM17.0025 21V23H15.0025V21H17.0025ZM15.942 4.05957C16.312 3.6896 16.9026 3.66978 17.2926 4.00977C18.9526 5.47977 20.0025 7.62 20.0025 10C20.0025 14.95 15.5219 18.8396 10.4019 17.8496C7.25216 17.2395 4.73216 14.6899 4.14218 11.54C3.58218 8.55004 4.69273 5.78953 6.70273 4.01953C7.1026 3.67004 7.69222 3.69003 8.0621 4.05957L8.08261 4.08008C8.48243 4.49009 8.44224 5.14033 8.0123 5.53027C6.78239 6.63027 6.00253 8.22008 6.00253 10C6.00253 13.7398 9.43209 16.69 13.3219 15.8604C15.5918 15.3804 17.4223 13.5201 17.8824 11.2402C18.3324 8.9703 17.5125 6.88004 16.0025 5.54004C15.5625 5.16004 15.5125 4.49008 15.9225 4.08008L15.942 4.05957ZM12.0025 1C12.5524 1.0001 13.0025 1.45006 13.0025 2V10C13.0025 10.5499 12.5524 10.9999 12.0025 11C11.4525 11 11.0025 10.55 11.0025 10V2C11.0025 1.45 11.4525 1 12.0025 1Z" fill="#2F455C"/>
</g>
</svg>
