<svg width="24" height="24" viewBox="0 0 24 24" fill="none" xmlns="http://www.w3.org/2000/svg">
<path fill-rule="evenodd" clip-rule="evenodd" d="M19 3H3C1.89 3 1.01 3.89 1.01 5L1 17C1 18.11 1.89 19 3 19H4C4.55228 19 5 18.5523 5 18C5 17.4477 4.55228 17 4 17C3.45 17 3 16.55 3 16V11H19V12.5C19 13.0523 19.4477 13.5 20 13.5C20.5523 13.5 21 13.0523 21 12.5V5C21 3.89 20.11 3 19 3ZM3 7H19V5H3V7Z" fill="#2F455C"/>
<path d="M10 18.2994H19.01V16.4994C19.01 16.0594 19.55 15.8294 19.86 16.1494L22.64 18.9394C22.83 19.1394 22.83 19.4494 22.64 19.6494L19.86 22.4394C19.55 22.7594 19.01 22.5394 19.01 22.0894V20.2994H10C9.45 20.2994 9 19.8494 9 19.2994C9 18.7494 9.45 18.2994 10 18.2994Z" fill="#2F455C"/>
</svg>
