<svg width="24" height="24" viewBox="0 0 24 24" fill="none" xmlns="http://www.w3.org/2000/svg">
<g id="Actions/view-week">
<path id="Icon Shape" d="M6.5 5C7.05 5 7.5 5.45 7.5 6V18C7.5 18.55 7.05 19 6.5 19H3.5C2.95 19 2.5 18.55 2.5 18V6C2.5 5.45 2.95 5 3.5 5H6.5ZM13.5 5C14.05 5 14.5 5.45 14.5 6V18C14.5 18.55 14.05 19 13.5 19H10.5C9.95 19 9.5 18.55 9.5 18V6C9.5 5.45 9.95 5 10.5 5H13.5ZM20.5 5C21.05 5 21.5 5.45 21.5 6V18C21.5 18.55 21.05 19 20.5 19H17.5C16.95 19 16.5 18.55 16.5 18V6C16.5 5.45 16.95 5 17.5 5H20.5Z" fill="#2F455C"/>
</g>
</svg>
