<svg width="24" height="24" viewBox="0 0 24 24" fill="none" xmlns="http://www.w3.org/2000/svg">
<g id="Actions/view-list">
<path id="Icon Shape" d="M6.5 15C7.05 15 7.5 15.45 7.5 16V18C7.5 18.55 7.05 19 6.5 19H4.5C3.95 19 3.5 18.55 3.5 18V16C3.5 15.45 3.95 15 4.5 15H6.5ZM19.5 15C20.05 15 20.5 15.45 20.5 16V18C20.5 18.55 20.05 19 19.5 19H9.5C8.95 19 8.5 18.55 8.5 18V16C8.5 15.45 8.95 15 9.5 15H19.5ZM6.5 10C7.05 10 7.5 10.45 7.5 11V13C7.5 13.55 7.05 14 6.5 14H4.5C3.95 14 3.5 13.55 3.5 13V11C3.5 10.45 3.95 10 4.5 10H6.5ZM19.5 10C20.05 10 20.5 10.45 20.5 11V13C20.5 13.55 20.05 14 19.5 14H9.5C8.95 14 8.5 13.55 8.5 13V11C8.5 10.45 8.95 10 9.5 10H19.5ZM6.5 5C7.05 5 7.5 5.45 7.5 6V8C7.5 8.55 7.05 9 6.5 9H4.5C3.95 9 3.5 8.55 3.5 8V6C3.5 5.45 3.95 5 4.5 5H6.5ZM19.5 5C20.05 5 20.5 5.45 20.5 6V8C20.5 8.55 20.05 9 19.5 9H9.5C8.95 9 8.5 8.55 8.5 8V6C8.5 5.45 8.95 5 9.5 5H19.5Z" fill="#2F455C"/>
</g>
</svg>
