<svg width="24" height="24" viewBox="0 0 24 24" fill="none" xmlns="http://www.w3.org/2000/svg">
<g id="Actions/settings-backup_restore">
<path id="Icon Shape" d="M13.4043 3.00171C18.0942 3.13184 22.0135 7.05203 22.1435 11.7419C22.2835 16.8319 18.1935 21.0017 13.1435 21.0017C11.5337 21.0016 10.0335 20.5715 8.72362 19.8416C8.15401 19.5214 8.06452 18.7321 8.5244 18.2722C8.83438 17.9522 9.3141 17.8716 9.70409 18.0916C10.724 18.6615 11.8937 19.0016 13.1435 19.0017C17.0435 19.0017 20.1934 15.812 20.1435 11.9021C20.0935 8.18213 16.9641 5.05176 13.2441 5.00171C9.32417 4.95171 6.14362 8.10178 6.14354 12.0017H7.93358C8.38358 12.0017 8.60393 12.5423 8.29393 12.8523L5.50389 15.6423C5.30395 15.842 4.99383 15.842 4.79393 15.6423L2.00389 12.8523C1.68389 12.5423 1.90448 12.0017 2.35448 12.0017H4.14354C4.14362 6.95178 8.31433 2.86171 13.4043 3.00171ZM13.1435 10.0017C14.2435 10.0017 15.1435 10.9018 15.1435 12.0017C15.1435 13.1017 14.2435 14.0017 13.1435 14.0017C12.0438 14.0014 11.1435 13.1015 11.1435 12.0017C11.1436 10.9019 12.0438 10.002 13.1435 10.0017Z" fill="#2F455C"/>
</g>
</svg>
