<svg width="24" height="24" viewBox="0 0 24 24" fill="none" xmlns="http://www.w3.org/2000/svg">
<g id="Actions/offline-pin">
<path id="Icon Shape" d="M12 2C17.5 2 22 6.5 22 12C22 17.5 17.5 22 12 22C6.5 22 2 17.5 2 12C2 6.5 6.5 2 12 2ZM8 16C7.45 16 7 16.45 7 17C7 17.55 7.45 18 8 18H16C16.55 18 17 17.55 17 17C17 16.45 16.55 16 16 16H8ZM16.2998 6.59961C15.9099 6.21003 15.2903 6.2101 14.9004 6.59961L10.2998 11.2002L9.09961 10C8.70963 9.61023 8.09014 9.61016 7.7002 10C7.51305 10.1849 7.40723 10.4371 7.40723 10.7002C7.40728 10.9632 7.51309 11.2156 7.7002 11.4004L9.58984 13.29C9.9798 13.68 10.6198 13.6799 11.0098 13.29L16.2998 8C16.6898 7.61 16.6898 6.98961 16.2998 6.59961Z" fill="#2F455C"/>
</g>
</svg>
