<svg width="24" height="24" viewBox="0 0 24 24" fill="none" xmlns="http://www.w3.org/2000/svg">
<g id="Actions/settings-ethernet">
<path id="Icon Shape" d="M5.59016 6.25C5.94018 5.82011 6.57035 5.77015 7.00031 6.12012C7.43011 6.47015 7.48014 7.10035 7.1302 7.53027L3.42023 12L7.1302 16.4697C7.48012 16.8996 7.43006 17.5298 7.00031 17.8799C6.57033 18.2299 5.94016 18.18 5.59016 17.75L1.34992 12.6396C1.04022 12.2697 1.04018 11.7303 1.34992 11.3604L5.59016 6.25ZM17.0003 6.12012C17.4203 5.77026 18.0605 5.83005 18.4105 6.25L22.6497 11.3604C22.9597 11.7303 22.9596 12.2697 22.6497 12.6396L18.4105 17.75C18.0605 18.18 17.4303 18.2298 17.0003 17.8799C16.5803 17.5299 16.5204 16.8997 16.8704 16.4697L20.5804 12L16.8704 7.53027C16.5204 7.10027 16.5703 6.47012 17.0003 6.12012ZM9.00031 13H7.00031V11H9.00031V13ZM13.0003 13H11.0003V11H13.0003V13ZM17.0003 13H15.0003V11H17.0003V13Z" fill="#2F455C"/>
</g>
</svg>
