<svg width="24" height="24" viewBox="0 0 24 24" fill="none" xmlns="http://www.w3.org/2000/svg">
<g id="Actions/view-carousel">
<path id="Icon Shape" d="M16 4.5C16.55 4.5 17 4.95 17 5.5V18.5C17 19.05 16.55 19.5 16 19.5H8C7.45 19.5 7 19.05 7 18.5V5.5C7 4.95 7.45 4.5 8 4.5H16ZM5 6.5C5.55 6.5 6 6.95 6 7.5V16.5C6 17.05 5.55 17.5 5 17.5H3C2.45 17.5 2 17.05 2 16.5V7.5C2 6.95 2.45 6.5 3 6.5H5ZM21 6.5C21.55 6.5 22 6.95 22 7.5V16.5C22 17.05 21.55 17.5 21 17.5H19C18.45 17.5 18 17.05 18 16.5V7.5C18 6.95 18.45 6.5 19 6.5H21Z" fill="#2F455C"/>
</g>
</svg>
