<svg width="24" height="24" viewBox="0 0 24 24" fill="none" xmlns="http://www.w3.org/2000/svg">
<g id="Actions/theaters">
<path id="Icon Shape" d="M15 3C15.55 3 16 3.45 16 4V5H18V4C18 3.45 18.45 3 19 3C19.55 3 20 3.45 20 4V20C20 20.55 19.55 21 19 21C18.45 21 18 20.55 18 20V19H16V20C16 20.55 15.55 21 15 21H9C8.45 21 8 20.55 8 20V19H6V20C6 20.55 5.55 21 5 21C4.45 21 4 20.55 4 20V4C4 3.45 4.45 3 5 3C5.55 3 6 3.45 6 4V5H8V4C8 3.45 8.45 3 9 3H15ZM6 17H8V15H6V17ZM16 17H18V15H16V17ZM6 13H8V11H6V13ZM16 13H18V11H16V13ZM6 9H8V7H6V9ZM16 7V9H18V7H16Z" fill="#2F455C"/>
</g>
</svg>
