<svg width="24" height="24" viewBox="0 0 24 24" fill="none" xmlns="http://www.w3.org/2000/svg">
<g id="Actions/explore-off">
<path id="Icon Shape" d="M3.5159 3.92639C3.78034 3.92645 4.03419 4.03118 4.22098 4.21838L19.7708 19.7789C20.1606 20.1689 20.1607 20.7991 19.7708 21.1891C19.3808 21.5789 18.7506 21.5788 18.3606 21.1891L17.511 20.3385C15.4411 21.7185 12.8308 22.3389 10.0608 21.819C6.10098 21.069 2.9311 17.8889 2.18094 13.9391C1.66096 11.1692 2.29056 8.55885 3.66043 6.48889L2.81082 5.63831C2.42093 5.2483 2.42086 4.60835 2.81082 4.21838C2.99763 4.03126 3.25148 3.92639 3.5159 3.92639ZM6.00027 17.9987L12.261 15.0885L8.91043 11.7389L6.00027 17.9987ZM12.0003 1.99866C17.5203 1.99866 22.0003 6.47866 22.0003 11.9987C22.0003 14.0385 21.391 15.9285 20.3411 17.5084L15.0911 12.2584L18.0003 5.99866L11.7405 8.90881L6.49051 3.65881C8.0704 2.60889 9.96044 1.99874 12.0003 1.99866Z" fill="#2F455C"/>
</g>
</svg>
