<svg width="24" height="24" viewBox="0 0 24 24" fill="none" xmlns="http://www.w3.org/2000/svg">
<g id="Actions/text-rotation_angle_up">
<path id="Icon Shape" d="M20.1508 8.48633C20.4308 8.48633 20.6508 8.70633 20.6508 8.98633V11.5264C20.6507 11.9662 20.1112 12.186 19.8012 11.8662L19.2406 11.3066L10.7514 19.7959C10.3614 20.1859 9.73123 20.1859 9.34123 19.7959C8.95124 19.4059 8.95123 18.7757 9.34123 18.3857L17.8207 9.89648L17.2612 9.33594C16.9512 9.02598 17.1709 8.48649 17.6108 8.48633H20.1508ZM3.68108 4.24609C4.001 3.92625 4.48069 3.8265 4.91057 3.98633L14.0014 7.58594C14.6412 7.84607 14.8107 8.66632 14.3207 9.15625C14.0407 9.43613 13.6309 9.51618 13.2709 9.36621L11.6713 8.69629L8.13127 12.2363L8.82072 13.8359C8.9707 14.1959 8.89066 14.6057 8.61076 14.8857C8.12085 15.3757 7.29159 15.2061 7.04143 14.5664L3.43108 5.47656C3.26108 5.04656 3.36108 4.56609 3.68108 4.24609ZM7.31096 10.5166L9.95061 7.87598L5.08049 5.64648L7.31096 10.5166Z" fill="#2F455C"/>
</g>
</svg>
