<svg width="24" height="24" viewBox="0 0 24 24" fill="none" xmlns="http://www.w3.org/2000/svg">
<g id="Actions/record-voice_over">
<path id="Icon Shape" d="M9.00187 15.2263C11.6719 15.2263 17.0019 16.5663 17.0019 19.2263V20.2263C17.0017 20.7761 16.5517 21.2263 16.0019 21.2263H2.00187C1.452 21.2263 1.00208 20.7761 1.00187 20.2263V19.2263C1.00187 16.5663 6.33187 15.2263 9.00187 15.2263ZM19.1816 3.11597C19.6714 2.62608 20.5115 2.66594 20.9316 3.21558C23.6916 6.86558 23.6816 11.6961 20.9316 15.2361C20.5115 15.7858 19.6822 15.8255 19.1923 15.3357L19.162 15.3064C18.772 14.9164 18.7014 14.2955 19.0214 13.8455C21.0113 11.0055 21.0217 7.33543 19.0517 4.59546C18.7221 4.13557 18.7818 3.51585 19.1816 3.11597ZM9.00187 5.22632C11.211 5.22632 13.0019 7.01718 13.0019 9.22632C13.0017 11.4353 11.2109 13.2263 9.00187 13.2263C6.79286 13.2263 5.00208 11.4353 5.00187 9.22632C5.00187 7.01718 6.79273 5.22632 9.00187 5.22632ZM15.7118 6.62573C16.3018 6.0359 17.3015 6.17603 17.6816 6.91577C18.4615 8.42574 18.462 10.1259 17.7021 11.5759C17.3221 12.3059 16.3319 12.4255 15.7519 11.8455L15.7216 11.8162C15.3616 11.4562 15.2816 10.9258 15.4716 10.4558C15.7916 9.66581 15.7916 8.78585 15.4716 7.99585C15.2817 7.52589 15.3621 6.98546 15.7021 6.6355L15.7118 6.62573Z" fill="#2F455C"/>
</g>
</svg>
