<svg width="24" height="24" viewBox="0 0 24 24" fill="none" xmlns="http://www.w3.org/2000/svg">
<path d="M21.1777 15C21.4422 15.0001 21.696 15.1058 21.8828 15.293C22.2723 15.6829 22.2722 16.3223 21.8926 16.7021L20.0029 18.5928L20.6025 19.1924C20.8126 18.9105 20.9519 18.5729 20.9893 18.2041V18.2051C20.9521 18.575 20.8138 18.9128 20.6045 19.1943L21.8926 20.4824C22.2826 20.8724 22.2826 21.5026 21.8926 21.8926C21.5026 22.2826 20.8724 22.2826 20.4824 21.8926L18.5928 20.0029L16.7021 21.8926C16.3122 22.2823 15.6829 22.2822 15.293 21.8926C14.903 21.5026 14.903 20.8724 15.293 20.4824L17.1826 18.5928L15.293 16.7021C14.903 16.3122 14.903 15.683 15.293 15.293C15.4797 15.1058 15.7327 15.0001 15.9971 15C16.2616 15 16.5153 15.1057 16.7021 15.293L18.5928 17.1826L20.4727 15.293C20.6595 15.1057 20.9132 15 21.1777 15ZM19 4C20.11 4 21 4.89 21 6V12H3V17C3 17.55 3.50625 18 4.125 18H12V20H3C1.89 20 1 19.11 1 18L1.00977 6C1.00977 4.89 1.89 4 3 4H19ZM3 8H19V6H3V8Z" fill="#2F455C"/>
</svg>
