<svg width="24" height="24" viewBox="0 0 24 24" fill="none" xmlns="http://www.w3.org/2000/svg">
<g id="Actions/perm-scan_wifi">
<path id="Icon Shape" d="M12.0001 3.08569C16.5901 3.08572 20.1405 4.62606 23.1105 6.69604C23.6 7.02616 23.7001 7.69616 23.3302 8.15601L13.5499 20.1755C12.7499 21.1655 11.2503 21.1555 10.4503 20.1755L0.670029 8.1355C0.300149 7.67553 0.399872 7.00553 0.889755 6.67554C3.85976 4.61554 7.41011 3.08569 12.0001 3.08569ZM12.0001 10.0857C11.4501 10.0857 11.0001 10.5357 11.0001 11.0857V15.0857C11.0001 15.6357 11.4501 16.0857 12.0001 16.0857C12.5501 16.0856 13.0001 15.6357 13.0001 15.0857V11.0857C13.0001 10.5357 12.5501 10.0858 12.0001 10.0857ZM11.0001 6.08569V8.08569H13.0001V6.08569H11.0001Z" fill="#2F455C"/>
</g>
</svg>
