<svg width="24" height="24" viewBox="0 0 24 24" fill="none" xmlns="http://www.w3.org/2000/svg">
<g id="Actions/event-seat">
<path id="Icon Shape" d="M18 15C19.1 15 20 15.9 20 17V19.5C20 20.33 19.33 21 18.5 21C17.67 21 17 20.33 17 19.5V18H7V19.5C7 20.33 6.33 21 5.5 21C4.67 21 4 20.33 4 19.5V17C4 15.9 4.9 15 6 15H18ZM4 10C4.55 10 5 10.45 5 11V12C5 12.55 4.55 13 4 13H3C2.45 13 2 12.55 2 12V11C2 10.45 2.45 10 3 10H4ZM15 3C16.1 3 17 3.9 17 5V13H7V5C7 3.9 7.9 3 9 3H15ZM21 10C21.55 10 22 10.45 22 11V12C22 12.55 21.55 13 21 13H20C19.45 13 19 12.55 19 12V11C19 10.45 19.45 10 20 10H21Z" fill="#2F455C"/>
</g>
</svg>
