<svg width="24" height="24" viewBox="0 0 24 24" fill="none" xmlns="http://www.w3.org/2000/svg">
<g id="Actions/stars">
<path id="Icon Shape" d="M11.9902 2C17.5201 2.00013 22 6.48008 22 12C22 17.5199 17.5201 21.9999 11.9902 22C6.47023 22 2 17.52 2 12C2 6.48 6.47023 2 11.9902 2ZM12.46 6.08984C12.2899 5.68004 11.7101 5.68004 11.54 6.08984L10.0801 9.54004L6.33984 9.86035C5.89998 9.90049 5.71985 10.4503 6.0498 10.7402L8.87988 13.1904L8.03027 16.8496C7.93027 17.2796 8.40027 17.6196 8.78027 17.3896L12 15.4502L15.2197 17.3896C15.5997 17.6196 16.06 17.2796 15.96 16.8496L15.1104 13.1797L17.9404 10.7305C18.2804 10.4405 18.1001 9.8897 17.6602 9.84961L13.9199 9.53027L12.46 6.08984Z" fill="#2F455C"/>
</g>
</svg>
