<svg width="24" height="24" viewBox="0 0 24 24" fill="none" xmlns="http://www.w3.org/2000/svg">
<g id="Actions/history">
<path id="Icon Shape" d="M13.4043 3.00159C18.0942 3.13172 22.0135 7.05191 22.1435 11.7418C22.2835 16.8318 18.1935 21.0016 13.1435 21.0016C11.0537 21.0015 9.14389 20.2913 7.62401 19.0914C7.15426 18.7315 7.12426 18.0222 7.54393 17.6022C7.90393 17.2422 8.46424 17.2121 8.86424 17.5221C10.0441 18.4519 11.5339 19.0015 13.1435 19.0016C17.0435 19.0016 20.1934 15.8119 20.1435 11.902C20.0935 8.18201 16.9641 5.05164 13.2441 5.00159C9.32417 4.95159 6.14362 8.10165 6.14354 12.0016H7.93358C8.38358 12.0016 8.60393 12.5422 8.29393 12.8522L5.50389 15.652C5.30391 15.8518 4.99387 15.8518 4.79393 15.652L2.00389 12.8522C1.68389 12.5422 1.90448 12.0016 2.35448 12.0016H4.14354C4.14362 6.95165 8.31433 2.86159 13.4043 3.00159ZM12.8935 8.00159C13.3035 8.00159 13.6435 8.34182 13.6435 8.74182V12.1422L16.5244 13.8522C16.874 14.0623 16.9939 14.5217 16.7842 14.8815C16.5742 15.2314 16.1139 15.3521 15.7539 15.1422L12.6338 13.2916C12.3339 13.1116 12.1435 12.7812 12.1435 12.4313V8.75159C12.1436 8.34181 12.4838 8.00185 12.8935 8.00159Z" fill="#2F455C"/>
</g>
</svg>
