<svg width="24" height="24" viewBox="0 0 24 24" fill="none" xmlns="http://www.w3.org/2000/svg">
<g id="Actions/today">
<path id="Icon Shape" d="M17 2C17.55 2 18 2.45 18 3V4H19C20.1 4 21 4.9 21 6V20C21 21.1 20.1 22 19 22H5C3.89 22 3 21.1 3 20L3.00977 6C3.00977 4.9 3.89 4 5 4H6V3C6 2.45 6.45 2 7 2C7.55 2 8 2.45 8 3V4H16V3C16 2.45 16.45 2 17 2ZM5 19C5 19.55 5.45 20 6 20H18C18.55 20 19 19.55 19 19V9H5V19ZM11 11C11.55 11 12 11.45 12 12V15C12 15.55 11.55 16 11 16H8C7.45 16 7 15.55 7 15V12C7 11.45 7.45 11 8 11H11Z" fill="#2F455C"/>
</g>
</svg>
