<svg width="24" height="24" viewBox="0 0 24 24" fill="none" xmlns="http://www.w3.org/2000/svg">
<g id="Actions/play-for_work">
<path id="Icon Shape" d="M16.9004 13.5C17.5102 13.5002 18.0096 14.0505 17.8896 14.6504C17.3494 17.4102 14.9198 19.5 12 19.5C9.08014 19.5 6.65049 17.4102 6.11032 14.6504C5.99035 14.0505 6.48977 13.5003 7.09958 13.5C7.58958 13.5 7.98981 13.8501 8.08981 14.3301C8.46982 16.14 10.07 17.5 12 17.5C13.9299 17.5 15.5299 16.14 15.9199 14.3301C16.0199 13.8501 16.4104 13.5 16.9004 13.5ZM12 4.5C12.55 4.5 13 4.95 13 5.5V10.0898H15.2998C15.7398 10.0898 15.9604 10.6304 15.6504 10.9404L12.3603 14.2305C12.1605 14.4303 11.8503 14.43 11.6504 14.2305L8.36032 10.9404C8.04034 10.6304 8.25998 10.0899 8.70993 10.0898H11V5.5C11 4.95001 11.45 4.50002 12 4.5Z" fill="#2F455C"/>
</g>
</svg>
