<svg width="24" height="24" viewBox="0 0 24 24" fill="none" xmlns="http://www.w3.org/2000/svg">
<g id="Actions/speaker-notes_off">
<path id="Icon Shape" d="M1.45145 1.68408C1.80145 1.33408 2.37098 1.33408 2.72098 1.68408L22.1712 21.144C22.521 21.494 22.5211 22.0636 22.1712 22.4136C21.8212 22.7635 21.2517 22.7635 20.9016 22.4136L15.8108 17.3237H6.81082L2.81082 21.3237L2.83133 4.3335L1.45145 2.95361C1.10147 2.60364 1.10152 2.03409 1.45145 1.68408ZM20.8108 1.32373C21.9108 1.32373 22.8108 2.22373 22.8108 3.32373V15.3237C22.8108 16.4037 21.9511 17.274 20.8811 17.314L13.8909 10.3237H17.8108C18.3608 10.3237 18.8108 9.87373 18.8108 9.32373C18.8108 8.77373 18.3608 8.32373 17.8108 8.32373H11.8909L4.8909 1.32373H20.8108ZM7.81082 11.3237C7.26102 11.324 6.81082 11.7739 6.81082 12.3237C6.81082 12.8736 7.26102 13.3235 7.81082 13.3237C8.36082 13.3237 8.81082 12.8737 8.81082 12.3237C8.81082 11.7737 8.36082 11.3237 7.81082 11.3237ZM7.81082 8.32373C7.26102 8.32396 6.81082 8.77387 6.81082 9.32373C6.81082 9.87359 7.26102 10.3235 7.81082 10.3237C8.36082 10.3237 8.81082 9.87373 8.81082 9.32373C8.81082 8.77373 8.36082 8.32373 7.81082 8.32373ZM11.8108 5.32373C11.261 5.32397 10.8108 5.77387 10.8108 6.32373C10.8108 6.87359 11.261 7.3235 11.8108 7.32373H17.8108C18.3608 7.32373 18.8108 6.87373 18.8108 6.32373C18.8108 5.77373 18.3608 5.32373 17.8108 5.32373H11.8108Z" fill="#2F455C"/>
</g>
</svg>
