<svg width="24" height="24" viewBox="0 0 24 24" fill="none" xmlns="http://www.w3.org/2000/svg">
<g id="Actions/report-problem">
<path id="Icon Shape" d="M11.1346 3.50122C11.5146 2.83124 12.475 2.83128 12.8651 3.50122L22.1346 19.5012C22.5145 20.1711 22.0352 21.0009 21.2655 21.0012H2.73518C1.96518 21.0012 1.48507 20.1712 1.86507 19.5012L11.1346 3.50122ZM11.0047 18.0012H13.0047V16.0012H11.0047V18.0012ZM12.0047 10.0012C11.4549 10.0014 11.0048 10.4514 11.0047 11.0012V13.0012C11.0047 13.5511 11.4548 14.0011 12.0047 14.0012C12.5547 14.0012 13.0047 13.5512 13.0047 13.0012V11.0012C13.0047 10.4513 12.5547 10.0012 12.0047 10.0012Z" fill="#2F455C"/>
</g>
</svg>
