<svg width="24" height="24" viewBox="0 0 24 24" fill="none" xmlns="http://www.w3.org/2000/svg">
<g id="Actions/store">
<path id="Icon Shape" d="M19.1796 7C19.6596 7 20.07 7.33989 20.1601 7.7998L21.1601 12.7998C21.2801 13.4198 20.8096 14 20.1796 14H19.9999V19C19.9999 19.55 19.5499 20 18.9999 20C18.45 20 17.9999 19.55 17.9999 19V14H13.9999V19C13.9999 19.55 13.5499 20 12.9999 20H4.99993C4.44996 20 3.99993 19.55 3.99993 19V14H3.82024C3.19024 14 2.71977 13.4198 2.83977 12.7998L3.83977 7.7998C3.92983 7.33988 4.34029 7 4.82024 7H19.1796ZM5.99993 14V18H11.9999V14H5.99993ZM18.9999 4C19.5499 4 19.9999 4.45 19.9999 5C19.9999 5.55 19.5499 6 18.9999 6H4.99993C4.44996 5.99996 3.99993 5.54998 3.99993 5C3.99993 4.45002 4.44996 4.00004 4.99993 4H18.9999Z" fill="#2F455C"/>
</g>
</svg>
