<svg width="24" height="24" viewBox="0 0 24 24" fill="none" xmlns="http://www.w3.org/2000/svg">
<g id="Actions/settings-applications">
<path id="Icon Shape" d="M19 3C20.11 3 21 3.9 21 5V19C21 20.1 20.11 21 19 21H5C3.89 21 3 20.1 3 19V5C3 3.9 3.89 3 5 3H19ZM10.5996 5C10.4298 5.0002 10.2801 5.13003 10.25 5.2998L9.99023 7.15039C9.57023 7.33039 9.16957 7.55984 8.80957 7.83984L7.07031 7.13965C6.91031 7.07965 6.72965 7.14004 6.63965 7.29004L5.24023 9.70996C5.15023 9.85996 5.19031 10.0502 5.32031 10.1602L6.7998 11.3203C6.76983 11.5402 6.75 11.7701 6.75 12C6.75 12.23 6.7698 12.4604 6.7998 12.6904L5.32031 13.8496C5.19032 13.9596 5.15027 14.1498 5.24023 14.2998L6.63965 16.7197C6.72965 16.8697 6.91031 16.9301 7.07031 16.8701L8.80957 16.1699C9.16957 16.4499 9.56023 16.6804 9.99023 16.8604L10.25 18.71C10.28 18.8698 10.4298 18.9998 10.5996 19H13.4004C13.5702 18.9998 13.7199 18.87 13.75 18.7002L14.0098 16.8496C14.4298 16.6696 14.8304 16.4402 15.1904 16.1602L16.9297 16.8604C17.0897 16.9204 17.2704 16.86 17.3604 16.71L18.7598 14.29C18.8498 14.14 18.8097 13.9498 18.6797 13.8398L17.2002 12.6797C17.2302 12.4598 17.25 12.2299 17.25 12C17.25 11.77 17.2302 11.5396 17.2002 11.3096L18.6797 10.1504C18.8097 10.0404 18.8497 9.85019 18.7598 9.7002L17.3604 7.28027C17.2704 7.13027 17.0897 7.06988 16.9297 7.12988L15.1904 7.83008C14.8304 7.55008 14.4398 7.31965 14.0098 7.13965L13.75 5.29004C13.72 5.13016 13.5702 5.0002 13.4004 5H10.5996ZM12 10C13.1 10 14 10.9 14 12C14 13.1 13.1 14 12 14C10.9 14 10 13.1 10 12C10 10.9 10.9 10 12 10Z" fill="#2F455C"/>
</g>
</svg>
