<svg width="24" height="24" viewBox="0 0 24 24" fill="none" xmlns="http://www.w3.org/2000/svg">
<g id="Actions/settings-remote">
<path id="Icon Shape" d="M15.0048 9.5C15.5548 9.5 16.0048 9.95 16.0048 10.5V22.5C16.0048 23.05 15.5548 23.5 15.0048 23.5H9.00476C8.45487 23.4999 8.00476 23.0499 8.00476 22.5V10.5C8.00476 9.95008 8.45487 9.50013 9.00476 9.5H15.0048ZM12.0048 11.5C10.9049 11.5001 10.0048 12.4001 10.0048 13.5C10.0048 14.5999 10.9049 15.4999 12.0048 15.5C13.1048 15.5 14.0048 14.6 14.0048 13.5C14.0048 12.4 13.1048 11.5 12.0048 11.5ZM12.0048 4.5C13.5347 4.5 14.9446 4.99036 16.0946 5.82031C16.5746 6.1803 16.6154 6.89031 16.1854 7.32031C15.8354 7.67031 15.2846 7.69016 14.8846 7.41016C14.0747 6.84023 13.0747 6.5 12.0048 6.5C10.9348 6.50005 9.93481 6.83997 9.12487 7.41992C8.72495 7.69983 8.17506 7.67012 7.82507 7.32031C7.39513 6.89037 7.42511 6.17037 7.91491 5.82031C9.06485 4.99036 10.4749 4.50005 12.0048 4.5ZM12.0048 0.5C14.6448 0.5 17.0652 1.43047 18.9452 2.98047C19.4048 3.36045 19.4449 4.0498 19.0253 4.46973C18.6653 4.82973 18.095 4.86004 17.705 4.54004C16.165 3.27004 14.1748 2.5 12.0048 2.5C9.83485 2.50006 7.84474 3.27032 6.2948 4.53027C5.90488 4.84999 5.33539 4.81968 4.97546 4.45996C4.5555 4.04 4.59468 3.34975 5.05456 2.96973C6.9445 1.42977 9.36485 0.500057 12.0048 0.5Z" fill="#2F455C"/>
</g>
</svg>
