<svg width="24" height="24" viewBox="0 0 24 24" fill="none" xmlns="http://www.w3.org/2000/svg">
<path fill-rule="evenodd" clip-rule="evenodd" d="M3 4H19C20.11 4 21 4.89 21 6V12H3V17C3 17.55 3.50625 18 4.125 18H6V19V20H3C1.89 20 1 19.11 1 18L1.01 6C1.01 4.89 1.89 4 3 4ZM20.3241 19.5028C19.9721 19.8127 19.5092 20 19 20C19.5078 20 19.9713 19.8108 20.3241 19.499V19.5V19.5028ZM20.4897 19.3387C20.4378 19.3966 20.3824 19.4514 20.3241 19.5028C20.3241 19.6701 20.3241 19.7342 20.3316 19.7984H21.6V20.7581H20.4911C20.6658 21.2339 20.9696 21.4677 21.3949 21.4677C21.919 21.4677 22.2 21.1774 22.3823 20.3629L23.9544 20.6694C23.6734 22.2177 22.8076 23 21.3494 23C19.9367 23 19.0329 22.2258 18.7139 20.7581H18V19.7984H18.6C18.5924 19.7339 18.5924 19.6613 18.5924 19.5V19.3387H18V18.3871H18.6911C19.0101 16.8548 19.9671 16 21.3797 16C22.8684 16 23.7342 16.7984 24 18.4355L22.3519 18.7339C22.1468 17.8226 21.8886 17.5484 21.3797 17.5484C20.9165 17.5484 20.6051 17.8387 20.4532 18.3871H20.9626C20.8916 18.7487 20.7233 19.0754 20.4859 19.3387H20.3241V19.499C20.381 19.4487 20.435 19.3951 20.4859 19.3387H20.4897ZM20.9631 18.3871H20.9626C20.9871 18.2619 21 18.1324 21 18C21 18.1325 20.9873 18.262 20.9631 18.3871ZM20.9631 18.3871C20.8929 18.7494 20.7259 19.0758 20.4897 19.3387H21.6V18.3871H20.9631ZM19 8H3V6H19V8ZM10.0205 18.3201L9.39733 18.1682C8.87681 18.0371 8.75218 17.906 8.75218 17.6368C8.75218 17.333 9.02343 17.1329 9.5073 17.1329C9.9765 17.1329 10.2184 17.3676 10.2917 17.8714L11.868 17.6989C11.7873 16.8706 11.1642 16.2494 10.1818 16.063V15H8.89147V16.063C8.39294 16.1527 7.98239 16.3598 7.68914 16.6773C7.39589 16.9948 7.24926 17.3538 7.24926 17.7679C7.24926 18.2166 7.38856 18.5755 7.65982 18.8654C7.93107 19.1553 8.42227 19.3969 9.12607 19.5833L9.63926 19.7144C10.2478 19.8732 10.3724 19.9905 10.3724 20.2873C10.3724 20.6255 10.0791 20.8602 9.58794 20.8602C8.96478 20.8602 8.62021 20.5358 8.61288 19.9146L7 20.094C7.02933 21.0811 7.71847 21.7575 8.88414 21.9508V23H10.1744V21.9508C10.7243 21.8611 11.1788 21.6471 11.5014 21.302C11.8386 20.9638 11.9999 20.5634 11.9999 20.1079C12.0073 19.2105 11.4281 18.679 10.0205 18.3201ZM16.131 13H18L16.4679 15.7786H17.4947V16.6286H16.0027L15.9064 16.8071V17.0357H17.4947V17.8857H15.9064V19H14.0936V17.8857H12.5294V17.0357H14.0936V16.9L13.9492 16.6286H12.5294V15.7786H13.492L12 13H13.9332L15.016 15.1571L16.131 13Z" fill="#2F455C"/>
</svg>
