<svg width="24" height="24" viewBox="0 0 24 24" fill="none" xmlns="http://www.w3.org/2000/svg">
<g id="Actions/redeem">
<path id="Icon Shape" d="M15 2.5C16.66 2.5 18 3.84 18 5.5C18 5.84996 17.9303 6.19003 17.8203 6.5H20C21.11 6.5 22 7.39 22 8.5V19.5C22 20.61 21.11 21.5 20 21.5H4C2.89 21.5 2 20.61 2 19.5L2.00977 8.5C2.00977 7.39 2.89 6.5 4 6.5H6.17969C6.06971 6.19003 6 5.84996 6 5.5C6 3.84 7.34 2.5 9 2.5C10.05 2.5 10.96 3.0399 11.5 3.83984L12 4.51953L12.5 3.84961C13.04 3.03976 13.9501 2.5 15 2.5ZM4 18.5C4 19.05 4.45 19.5 5 19.5H19C19.55 19.5 20 19.05 20 18.5V17.5H4V18.5ZM9.20996 11.7002C8.88997 12.14 8.26026 12.2397 7.82031 11.9199C7.37031 11.5999 7.26961 10.9695 7.59961 10.5195L9.08008 8.5H5C4.45 8.5 4 8.95 4 9.5V14.5H20V9.5C20 8.95 19.55 8.5 19 8.5H14.9199L16.4004 10.5195C16.7304 10.9695 16.6297 11.5999 16.1797 11.9199C15.7397 12.2397 15.11 12.14 14.79 11.7002L12 7.90039L9.20996 11.7002ZM9 4.5C8.45 4.5 8 4.95 8 5.5C8 6.05 8.45 6.5 9 6.5C9.55 6.5 10 6.05 10 5.5C10 4.95 9.55 4.5 9 4.5ZM15 4.5C14.45 4.5 14 4.95 14 5.5C14 6.05 14.45 6.5 15 6.5C15.55 6.5 16 6.05 16 5.5C16 4.95 15.55 4.5 15 4.5Z" fill="#2F455C"/>
</g>
</svg>
