<svg width="24" height="24" viewBox="0 0 24 24" fill="none" xmlns="http://www.w3.org/2000/svg">
<g id="Actions/zoom-out">
<path id="Icon Shape" d="M3.52171 10.7913C3.00192 6.56148 6.56147 3.00194 10.7912 3.52173C13.5912 3.86173 15.9111 6.08161 16.3811 8.86157C16.7211 10.8915 16.1015 12.8014 14.9016 14.2014L15.1819 14.4719H15.9719L20.2219 18.7317C20.6316 19.1416 20.6315 19.8012 20.2219 20.2112L20.2112 20.2219C19.8012 20.6315 19.1416 20.6316 18.7317 20.2219L14.4719 15.9719V15.1819L14.2014 14.9016C12.8014 16.1016 10.8915 16.7211 8.86156 16.3811C6.08159 15.9111 3.86171 13.5912 3.52171 10.7913ZM9.97191 5.47192C7.48191 5.47192 5.47191 7.48192 5.47191 9.97192C5.4721 12.4618 7.48203 14.4719 9.97191 14.4719C12.4616 14.4717 14.4717 12.4616 14.4719 9.97192C14.4719 7.48204 12.4617 5.47211 9.97191 5.47192ZM11.9719 9.47192C12.2517 9.47211 12.4719 9.69204 12.4719 9.97192C12.4717 10.2516 12.2516 10.4717 11.9719 10.4719H7.97191C7.69203 10.4719 7.47209 10.2518 7.47191 9.97192C7.47191 9.69192 7.69191 9.47192 7.97191 9.47192H11.9719Z" fill="#2F455C"/>
</g>
</svg>
