<svg width="24" height="24" viewBox="0 0 24 24" fill="none" xmlns="http://www.w3.org/2000/svg">
<g id="Actions/text-rotate_vertical">
<path id="Icon Shape" d="M6.13702 4.10498C6.68682 4.10523 7.13702 4.55513 7.13702 5.10498V17.105H7.92609C8.37597 17.105 8.59631 17.6446 8.27667 17.9546L6.48663 19.7446C6.29663 19.9446 5.97644 19.9446 5.78644 19.7446L3.9964 17.9546C3.67681 17.6445 3.89712 17.105 4.34698 17.105H5.13702V5.10498C5.13702 4.54498 5.58702 4.10498 6.13702 4.10498ZM15.137 5.10498C15.5968 5.10516 16.0067 5.37555 16.1966 5.79541L20.0765 14.7651C20.3464 15.3951 19.8865 16.105 19.1966 16.105C18.8068 16.105 18.4571 15.8651 18.3069 15.5054L17.6468 13.9048H12.6468L11.9866 15.5054C11.8366 15.8651 11.4867 16.1048 11.097 16.105C10.4071 16.105 9.93655 15.3951 10.2064 14.7651L14.0862 5.79541C14.2662 5.37541 14.677 5.10498 15.137 5.10498ZM13.2669 12.105H17.0062L15.137 7.08545L13.2669 12.105Z" fill="#2F455C"/>
</g>
</svg>
