<svg width="24" height="24" viewBox="0 0 24 24" fill="none" xmlns="http://www.w3.org/2000/svg">
<path d="M1.7406 0.463623C2.14982 0.0544673 2.81378 0.0545008 3.22302 0.463623L5.37634 2.61694L5.3949 2.59839L20.9906 18.1941V18.2322L23.4554 20.697C23.8645 21.1063 23.8646 21.7693 23.4554 22.1785C23.0462 22.5874 22.3832 22.5875 21.974 22.1785L20.9906 21.1951V21.7996C20.8707 21.7995 20.7409 21.749 20.641 21.6492L19.851 20.8591C19.6512 20.6594 19.341 20.6599 19.141 20.8591L18.351 21.6492C18.151 21.8491 17.841 21.8489 17.641 21.6492L16.851 20.8591C16.6512 20.6594 16.341 20.6599 16.141 20.8591L15.351 21.6492C15.151 21.8491 14.841 21.8489 14.641 21.6492L13.851 20.8591C13.6512 20.6594 13.341 20.6599 13.141 20.8591L12.351 21.6492C12.151 21.8491 11.841 21.8489 11.641 21.6492L10.851 20.8591C10.6512 20.6594 10.341 20.6599 10.141 20.8591L9.35095 21.6492C9.15104 21.8491 8.841 21.8489 8.64099 21.6492L7.85095 20.8591C7.65122 20.6594 7.341 20.6599 7.14099 20.8591L6.35095 21.6492C6.15104 21.8491 5.841 21.8489 5.64099 21.6492L4.85095 20.8591C4.65122 20.6594 4.341 20.6599 4.14099 20.8591L3.35095 21.6492C3.26111 21.749 3.13014 21.7994 3.00037 21.7996V3.20483L1.7406 1.94604C1.33156 1.53689 1.33169 0.872861 1.7406 0.463623ZM10.9388 8.14331C9.17503 8.60807 8.00043 10.1521 8.00037 11.9919C8.00052 14.406 9.77646 15.9998 12.1996 15.9998C13.4607 15.9997 14.6393 15.6052 15.4525 14.8796L14.6556 13.7908C14.0748 14.3427 13.162 14.6422 12.3656 14.6423C10.8552 14.6423 9.95932 13.6798 9.82654 12.5437H15.3392L14.1556 11.3601H9.80994C9.87657 10.445 10.5733 9.3562 12.0502 9.3562C12.086 9.35622 12.1217 9.35898 12.1566 9.36011L10.9388 8.14331ZM8.64099 2.34937C8.841 2.15006 9.15118 2.14964 9.35095 2.34937L10.1508 3.14917C10.3508 3.34901 10.6608 3.34912 10.8607 3.14917L11.6508 2.35913C11.8508 2.15982 12.1609 2.1594 12.3607 2.35913L13.1508 3.14917C13.3508 3.34901 13.6608 3.34912 13.8607 3.14917L14.6508 2.35913C14.8508 2.15982 15.1609 2.1594 15.3607 2.35913L16.1508 3.14917C16.3508 3.34901 16.6608 3.34912 16.8607 3.14917L17.6508 2.35913C17.8508 2.15982 18.1609 2.1594 18.3607 2.35913L19.1508 3.14917C19.3508 3.34901 19.6608 3.34912 19.8607 3.14917L20.6508 2.35913C20.7384 2.26218 20.8643 2.21223 20.9906 2.20972V15.2312L8.37634 2.61694L8.64099 2.34937Z" fill="#2F455C"/>
</svg>
