<svg width="24" height="24" viewBox="0 0 24 24" fill="none" xmlns="http://www.w3.org/2000/svg">
<g id="Actions/line-style">
<path id="Icon Shape" d="M4 18C4.55 18 5 18.45 5 19C5 19.55 4.55 20 4 20C3.45 20 3 19.55 3 19C3 18.45 3.45 18 4 18ZM8 18C8.55 18 9 18.45 9 19C9 19.55 8.55 20 8 20C7.45 20 7 19.55 7 19C7 18.45 7.45 18 8 18ZM12 18C12.55 18 13 18.45 13 19C13 19.55 12.55 20 12 20C11.45 20 11 19.55 11 19C11 18.45 11.45 18 12 18ZM16 18C16.55 18 17 18.45 17 19C17 19.55 16.55 20 16 20C15.45 20 15 19.55 15 19C15 18.45 15.45 18 16 18ZM20 18C20.55 18 21 18.45 21 19C21 19.55 20.55 20 20 20C19.45 20 19 19.55 19 19C19 18.45 19.45 18 20 18ZM7 14C7.55 14 8 14.45 8 15C8 15.55 7.55 16 7 16H4C3.45 16 3 15.55 3 15C3 14.45 3.45 14 4 14H7ZM13.5 14C14.05 14 14.5 14.45 14.5 15C14.5 15.55 14.05 16 13.5 16H10.5C9.95 16 9.5 15.55 9.5 15C9.5 14.45 9.95 14 10.5 14H13.5ZM20 14C20.55 14 21 14.45 21 15C21 15.55 20.55 16 20 16H17C16.45 16 16 15.55 16 15C16 14.45 16.45 14 17 14H20ZM10 10C10.55 10 11 10.45 11 11C11 11.55 10.55 12 10 12H4C3.45 12 3 11.55 3 11C3 10.45 3.45 10 4 10H10ZM20 10C20.55 10 21 10.45 21 11C21 11.55 20.55 12 20 12H14C13.45 12 13 11.55 13 11C13 10.45 13.45 10 14 10H20ZM20 4C20.55 4 21 4.45 21 5V7C21 7.55 20.55 8 20 8H4C3.45 8 3 7.55 3 7V5C3 4.45 3.45 4 4 4H20Z" fill="#2F455C"/>
</g>
</svg>
