<svg width="24" height="24" viewBox="0 0 24 24" fill="none" xmlns="http://www.w3.org/2000/svg">
<g id="Actions/accessible-forward">
<path id="Icon Shape" d="M9.5 13.73C7.85001 13.73 6.50002 15.08 6.5 16.73C6.5 18.38 7.85 19.73 9.5 19.73C11.15 19.73 12.5 18.38 12.5 16.73H14.5C14.5 19.49 12.26 21.73 9.5 21.73C6.74 21.73 4.5 19.49 4.5 16.73C4.50002 13.97 6.74001 11.73 9.5 11.73V13.73ZM15.46 6.72998C16.94 6.72998 17.9196 8.23006 17.3096 9.56006L15.6396 13.23H17.5C18.6 13.23 19.5 14.13 19.5 15.23V19.73C19.5 20.28 19.05 20.73 18.5 20.73C17.95 20.73 17.5 20.28 17.5 19.73V15.73H12.5195C11.0598 15.7296 10.07 14.1594 10.6699 12.8296L12.5 8.72998H10.29L9.99023 9.43994C9.79024 9.90993 9.28003 10.16 8.79004 10.02C8.22004 9.86002 7.90035 9.24994 8.11035 8.68994L8.38965 7.93018C8.71962 7.20025 9.44986 6.73007 10.2598 6.72998H15.46ZM17.5 2.27002C18.6046 2.27002 19.5 3.16545 19.5 4.27002C19.5 5.37459 18.6046 6.27002 17.5 6.27002C16.3954 6.27002 15.5 5.37459 15.5 4.27002C15.5 3.16545 16.3954 2.27002 17.5 2.27002Z" fill="#2F455C"/>
</g>
</svg>
