<svg width="24" height="24" viewBox="0 0 24 24" fill="none" xmlns="http://www.w3.org/2000/svg">
<g id="Actions/language">
<path id="Icon Shape" d="M11.9902 2C17.5201 2.00013 22 6.48008 22 12C22 17.5199 17.5201 21.9999 11.9902 22C6.47023 22 2 17.52 2 12C2 6.48 6.47023 2 11.9902 2ZM10.0898 16C10.5198 17.43 11.17 18.76 12 19.96C12.83 18.76 13.4802 17.43 13.9102 16H10.0898ZM5.08008 16C6.04008 17.66 7.57017 18.9296 9.41016 19.5596C8.81024 18.4497 8.35025 17.2499 8.03027 16H5.08008ZM15.9697 16C15.6498 17.2499 15.1898 18.4497 14.5898 19.5596C16.4298 18.9296 17.9599 17.65 18.9199 16H15.9697ZM4.25977 10C4.09977 10.64 4 11.31 4 12C4 12.69 4.09977 13.36 4.25977 14H7.63965C7.55965 13.34 7.5 12.68 7.5 12C7.5 11.32 7.55965 10.66 7.63965 10H4.25977ZM9.66016 10C9.57016 10.65 9.5 11.32 9.5 12C9.5 12.68 9.57016 13.34 9.66016 14H14.3398C14.4298 13.34 14.5 12.68 14.5 12C14.5 11.32 14.4298 10.65 14.3398 10H9.66016ZM16.3604 10C16.4403 10.66 16.5 11.32 16.5 12C16.5 12.68 16.4403 13.34 16.3604 14H19.7402C19.9002 13.36 20 12.69 20 12C20 11.31 19.9002 10.64 19.7402 10H16.3604ZM9.41016 4.44043C7.57017 5.07043 6.04008 6.34002 5.08008 8H8.03027C8.35025 6.75012 8.81024 5.55034 9.41016 4.44043ZM12 4.04004C11.17 5.24003 10.5198 6.57001 10.0898 8H13.9102C13.4802 6.57001 12.83 5.24003 12 4.04004ZM14.5898 4.44043C15.1898 5.55034 15.6498 6.75012 15.9697 8H18.9199C17.9599 6.35002 16.4298 5.07043 14.5898 4.44043Z" fill="#2F455C"/>
</g>
</svg>
