<svg width="24" height="24" viewBox="0 0 24 24" fill="none" xmlns="http://www.w3.org/2000/svg">
<g id="Actions/copyright">
<path id="Icon Shape" d="M12 2C17.52 2 22 6.48 22 12C22 17.52 17.52 22 12 22C6.48 22 2 17.52 2 12C2 6.48 6.48 2 12 2ZM12 4C7.59 4 4 7.59 4 12C4 16.41 7.59 20 12 20C16.41 20 20 16.41 20 12C20 7.59 16.41 4 12 4ZM11.8496 7.61035C12.3596 7.61035 12.8202 7.67984 13.2402 7.83984C13.6602 7.99984 14.0203 8.22003 14.3203 8.5C14.6201 8.77988 14.8496 9.11999 15.0195 9.50977C15.1895 9.89971 15.2798 10.3299 15.2998 10.7998H13.5098C13.4998 10.5799 13.46 10.36 13.3701 10.1602C13.2801 9.96019 13.1702 9.77987 13.0303 9.62988C12.8903 9.47988 12.7098 9.35953 12.5098 9.26953C12.3199 9.18963 12.1097 9.14964 11.8799 9.13965C11.5099 9.14966 11.2097 9.22013 10.9697 9.37012C10.7198 9.5301 10.5198 9.74032 10.3799 9.99023C10.2399 10.2402 10.1301 10.5305 10.0801 10.8604C10.0301 11.1902 10 11.5202 10 11.8701V12.1396C10 12.4695 10.0301 12.8098 10.0801 13.1396C10.1301 13.4695 10.24 13.7696 10.3799 14.0195C10.5198 14.2694 10.7199 14.4797 10.9697 14.6396C11.1997 14.7896 11.5004 14.8601 11.8604 14.8701C12.0702 14.8601 12.2701 14.8395 12.46 14.7695C12.6599 14.6995 12.8305 14.5997 12.9805 14.4697C13.1303 14.3398 13.2499 14.1896 13.3398 14.0098C13.4298 13.8298 13.4802 13.6396 13.4902 13.4297H15.2803C15.2703 13.8396 15.1604 14.2201 14.9805 14.5801C14.8005 14.9399 14.5501 15.2496 14.2402 15.5195C13.9302 15.7895 13.5702 16.0004 13.1602 16.1504C12.7502 16.3004 12.3098 16.3799 11.8398 16.3799C11.1899 16.3799 10.6196 16.26 10.1396 16.04C9.65983 15.8201 9.26035 15.5097 8.94043 15.1299C8.62051 14.75 8.38048 14.3001 8.23047 13.7803C8.08047 13.2603 8 12.7196 8 12.1396V11.8701C8 11.2903 8.0903 10.7504 8.24023 10.2305C8.39023 9.71047 8.6302 9.26012 8.9502 8.87012C9.27019 8.48013 9.6704 8.18019 10.1504 7.9502C10.6302 7.72032 11.1999 7.6104 11.8496 7.61035Z" fill="#2F455C"/>
</g>
</svg>
