<svg width="24" height="24" viewBox="0 0 24 24" fill="none" xmlns="http://www.w3.org/2000/svg">
<g id="Actions/g-translate">
<path id="Icon Shape" d="M10.8799 5H20C21.1 5 22 5.9 22 7V20C22 21.1 21.1 22 20 22H12L11 19H4C2.9 19 2 18.1 2 17V4C2 2.9 2.9 2 4 2H10L10.8799 5ZM11.1797 6L12.3604 10.04H14.3203V9H15.3604V10.04H19V11.0801H17.7305C17.4105 12.3401 16.7096 13.5598 15.8096 14.5898L18.5195 17.2695L17.79 18L15.1104 15.3096L14.1904 16.2305L15 19L13 21H20C20.55 21 21 20.55 21 20V7C21 6.45 20.55 6 20 6H11.1797ZM13.8496 15.1104L14.3896 14.5801C13.9397 14.0601 13.5302 13.4798 13.2002 12.8799L13.8496 15.1104ZM7.16992 6.41016C4.90996 6.4102 3.08008 8.24003 3.08008 10.5C3.08008 12.76 4.91996 14.5898 7.16992 14.5898C9.47992 14.5898 11.0898 12.9398 11.0898 10.5898C11.0898 10.3801 11.08 10.1902 11.04 9.98047L11.0303 9.91016H7.08008V11.46H9.29004C9.13004 12.05 8.53992 12.9199 7.16992 12.9199C5.85996 12.9199 4.79004 11.83 4.79004 10.5C4.79004 9.17003 5.85996 8.08012 7.16992 8.08008C7.90992 8.08008 8.40043 8.39992 8.69043 8.66992L8.75 8.71973L9.98047 7.54004L9.91016 7.48047C9.16016 6.78047 8.20992 6.41016 7.16992 6.41016ZM12.9805 12.1201H13.9697C14.2097 12.5901 14.5796 13.2003 15.0996 13.8203C16.316 12.3946 16.6581 11.0879 16.6602 11.0801H12.6699L12.9805 12.1201Z" fill="#2F455C"/>
</g>
</svg>
