<svg width="24" height="24" viewBox="0 0 24 24" fill="none" xmlns="http://www.w3.org/2000/svg">
<g id="Actions/shopping-cart">
<path id="Icon Shape" d="M7.99629 18C9.09629 18 9.99629 18.9 9.99629 20C9.99629 21.1 9.09629 22 7.99629 22C6.89629 22 6.00606 21.1 6.00606 20C6.00606 18.9 6.89629 18 7.99629 18ZM17.9963 18C19.0963 18 19.9963 18.9 19.9963 20C19.9963 21.1 19.0963 22 17.9963 22C16.8963 22 16.0061 21.1 16.0061 20C16.0061 18.9 16.8963 18 17.9963 18ZM4.63594 2C5.01594 2 5.37633 2.22031 5.53633 2.57031L6.20625 4H21.0061C21.7661 4 22.2462 4.82047 21.8762 5.48047L18.2961 11.9697C17.9561 12.5897 17.2961 13 16.5461 13H9.0959L7.99629 15H18.9963C19.5463 15 19.9963 15.45 19.9963 16C19.9963 16.55 19.5463 17 18.9963 17H7.99629C6.47637 17 5.51651 15.3702 6.24629 14.0303L7.5959 11.5898L3.99629 4H2.99629C2.44629 4 1.99629 3.55 1.99629 3C1.99629 2.45 2.44629 2 2.99629 2H4.63594Z" fill="#2F455C"/>
</g>
</svg>
