<svg width="24" height="24" viewBox="0 0 24 24" fill="none" xmlns="http://www.w3.org/2000/svg">
<g id="Actions/http">
<path id="Icon Shape" d="M5.25 9C5.66 9 6 9.34 6 9.75V14.25C6 14.66 5.66 15 5.25 15C4.84 15 4.5 14.66 4.5 14.25V12.5H2.5V14.25C2.5 14.66 2.16 15 1.75 15C1.34 15 1 14.66 1 14.25V9.75C1 9.34 1.34 9 1.75 9C2.16 9 2.5 9.34 2.5 9.75V11H4.5V9.75C4.5 9.34 4.84 9 5.25 9ZM10.75 9C11.16 9 11.5 9.34 11.5 9.75C11.5 10.16 11.16 10.5 10.75 10.5H10V14.25C10 14.66 9.66 15 9.25 15C8.84 15 8.5 14.66 8.5 14.25V10.5H7.75C7.34 10.5 7 10.16 7 9.75C7 9.34 7.34 9 7.75 9H10.75ZM16.25 9C16.66 9 17 9.34 17 9.75C17 10.16 16.66 10.5 16.25 10.5H15.5V14.25C15.5 14.66 15.16 15 14.75 15C14.34 15 14 14.66 14 14.25V10.5H13.25C12.84 10.5 12.5 10.16 12.5 9.75C12.5 9.34 12.84 9 13.25 9H16.25ZM21.5 9C22.33 9 23 9.68 23 10.5V11.5C23 12.32 22.33 13 21.5 13H19.5V14.25C19.5 14.66 19.16 15 18.75 15C18.34 15 18 14.66 18 14.25V10C18 9.45 18.45 9 19 9H21.5ZM19.5 10.5V11.5H21.5V10.5H19.5Z" fill="#2F455C"/>
</g>
</svg>
