<svg width="24" height="24" viewBox="0 0 24 24" fill="none" xmlns="http://www.w3.org/2000/svg">
<path d="M10.9414 16.1514C11.2514 15.8316 11.791 16.052 11.791 16.502V18.292H20.791C21.341 18.292 21.791 18.742 21.791 19.292C21.7908 19.8418 21.3409 20.292 20.791 20.292H11.791V22.0811C11.791 22.5309 11.2517 22.7513 10.9316 22.4316L8.1416 19.6416C7.9516 19.4516 7.95137 19.1314 8.15137 18.9414L10.9414 16.1514ZM19 3C20.11 3 21 3.89 21 5V12.5C21 13.0523 20.5523 13.5 20 13.5C19.4477 13.5 19 13.0523 19 12.5V11H3V16C3 16.55 3.45 17 4 17C4.55228 17 5 17.4477 5 18C5 18.5523 4.55228 19 4 19H3C1.89 19 1 18.11 1 17L1.00977 5C1.00977 3.89 1.89 3 3 3H19ZM3 7H19V5H3V7Z" fill="#2F455C"/>
</svg>
