<svg width="24" height="24" viewBox="0 0 24 24" fill="none" xmlns="http://www.w3.org/2000/svg">
<g id="Actions/contact-support">
<path id="Icon Shape" d="M12 2C16.69 2 20.5 5.81 20.5 10.5C20.5 15 17.36 19.66 12.5 22V19H12C7.31 19 3.5 15.19 3.5 10.5C3.5 5.81 7.31 2 12 2ZM11 16.5H13V14.5H11V16.5ZM12.5996 4.04004C10.5398 3.74025 8.71989 5.01019 8.16992 6.83008C8 7.41005 8.44007 8 9.04004 8H9.24023C9.65013 7.99989 9.98014 7.70954 10.1201 7.34961C10.4402 6.45982 11.3801 5.85035 12.4199 6.07031C13.3799 6.27031 14.0802 7.2202 13.9902 8.2002C13.8801 9.44004 12.5099 9.77996 11.6699 10.8799L11.6602 10.8701C11.6302 10.9001 11.6101 10.9502 11.5801 10.9902C11.5502 11.04 11.5104 11.0898 11.4805 11.1396C11.3905 11.2796 11.3198 11.4201 11.2598 11.5801C11.2498 11.6199 11.22 11.6399 11.21 11.6797C11.2 11.6897 11.2002 11.7 11.2002 11.71C11.0802 12.0699 11 12.4999 11 13.0098H13.0098C13.0098 12.7599 13.0404 12.54 13.1104 12.3301C13.1304 12.2601 13.1604 12.1901 13.1904 12.1201C13.2004 12.0801 13.2105 12.0398 13.2305 12.0098C13.2704 11.9299 13.3202 11.8494 13.3701 11.7695C13.38 11.7497 13.3905 11.7297 13.4004 11.7197C14.3005 10.4 16.3696 9.80984 15.9297 7.37012C15.6397 5.68012 14.2896 4.29004 12.5996 4.04004Z" fill="#2F455C"/>
</g>
</svg>
