<svg width="24" height="24" viewBox="0 0 24 24" fill="none" xmlns="http://www.w3.org/2000/svg">
<g id="Actions/settings-phone">
<path id="Icon Shape" d="M6.74657 3.01807C7.76641 3.01807 8.61659 3.77783 8.7368 4.7876L9.02684 7.30811C9.09683 7.91809 8.88652 8.51776 8.45653 8.94775L6.60692 10.7983C8.04692 13.6382 10.3669 15.9482 13.1968 17.3882L15.0366 15.5483C15.4666 15.1183 16.0672 14.908 16.6772 14.978L19.2173 15.2681C20.2271 15.3883 20.987 16.2387 20.977 17.2485V18.978C20.977 20.108 20.0367 21.048 18.9067 20.978C10.3769 20.448 3.54723 13.6282 3.01707 5.08838C2.94707 3.95838 3.88707 3.01807 5.01707 3.01807H6.74657ZM12.9868 11.0083H10.9868V9.0083H12.9868V11.0083ZM16.9868 11.0083H14.9868V9.0083H16.9868V11.0083ZM20.9868 11.0083H18.9868V9.0083H20.9868V11.0083Z" fill="#2F455C"/>
</g>
</svg>
