<svg width="24" height="24" viewBox="0 0 24 24" fill="none" xmlns="http://www.w3.org/2000/svg">
<path d="M19 14C19.6875 14 20.25 14.5625 20.25 15.25V17.75H22.75C23.4375 17.75 24 18.3125 24 19C24 19.6875 23.4375 20.25 22.75 20.25H20.25V22.75C20.25 23.4375 19.6875 24 19 24C18.3125 24 17.75 23.4375 17.75 22.75V20.25H15.25C14.5625 20.25 14 19.6875 14 19C14 18.3125 14.5625 17.75 15.25 17.75H17.75V15.25C17.75 14.5625 18.3125 14 19 14ZM19 4C20.11 4 21 4.89 21 6V12H3V17C3 17.55 3.50625 18 4.125 18H12V20H3C1.89 20 1 19.11 1 18L1.00977 6C1.00977 4.89 1.89 4 3 4H19ZM3 8H19V6H3V8Z" fill="#2F455C"/>
</svg>
