<svg width="24" height="24" viewBox="0 0 24 24" fill="none" xmlns="http://www.w3.org/2000/svg">
<g id="Actions/settings">
<path id="Icon Shape" d="M14.0024 2C14.2523 2.00008 14.4626 2.17999 14.4926 2.41992L14.8725 5.07031C15.4822 5.32025 16.0421 5.64997 16.5619 6.0498L19.0522 5.0498C19.2721 4.96985 19.5425 5.04971 19.6625 5.26953L21.6625 8.73047C21.7822 8.95035 21.7322 9.22022 21.5424 9.37012L19.4321 11.0195C19.4721 11.3395 19.5024 11.66 19.5024 12C19.5024 12.34 19.4721 12.6605 19.4321 12.9805L21.5424 14.6299C21.7322 14.7798 21.7822 15.0496 21.6625 15.2695L19.6625 18.7305C19.5425 18.9503 19.2821 19.0401 19.0522 18.9502L16.5619 17.9502C16.0421 18.34 15.4822 18.6797 14.8725 18.9297L14.4926 21.5801C14.4626 21.82 14.2523 21.9999 14.0024 22H10.0024C9.75239 22 9.54216 21.82 9.51213 21.5801L9.13225 18.9297C8.52228 18.6797 7.9618 18.3502 7.44182 17.9502L4.95256 18.9502C4.73268 19.0302 4.46231 18.9502 4.34221 18.7305L2.34221 15.2695C2.22246 15.0496 2.27243 14.7798 2.46233 14.6299L4.57268 12.9805C4.53268 12.6605 4.50237 12.33 4.50237 12C4.50237 11.67 4.53268 11.3395 4.57268 11.0195L2.46233 9.37012C2.27243 9.2202 2.21248 8.95041 2.34221 8.73047L4.34221 5.26953C4.4623 5.0498 4.72269 4.95985 4.95256 5.0498L7.44182 6.0498C7.9618 5.65982 8.52228 5.32031 9.13225 5.07031L9.51213 2.41992C9.54216 2.17996 9.75239 2 10.0024 2H14.0024ZM12.0024 8.5C10.0724 8.5 8.50237 10.07 8.50237 12C8.50237 13.93 10.0724 15.5 12.0024 15.5C13.9323 15.4999 15.5024 13.9299 15.5024 12C15.5024 10.0701 13.9323 8.50009 12.0024 8.5Z" fill="#2F455C"/>
</g>
</svg>
