<svg width="24" height="24" viewBox="0 0 24 24" fill="none" xmlns="http://www.w3.org/2000/svg">
<g id="Actions/system-vertical_alt">
<path id="Icon Shape" d="M8.00977 3C8.54977 3 9 3.45 9 4C9 4.54 8.54977 4.99023 8.00977 4.99023H4C3.45 4.99023 3 5.44023 3 5.99023V18.0098C3 18.5598 3.45 19.0098 4 19.0098H20C20.55 19.0098 21 18.5598 21 18.0098V5.98047C21 5.43047 20.55 4.98047 20 4.98047H15.9902C15.4503 4.98047 15.0001 4.54012 15 3.99023C15 3.45023 15.4502 3 15.9902 3H21C22.1 3 23 3.9 23 5V19C23 20.1 22.1 21 21 21H3C1.9 21 1 20.1 1 19V5C1 3.9 1.9 3 3 3H8.00977ZM12 3C12.55 3 13 3.45 13 4V12.0098H14.79C15.23 12.0098 15.4496 12.5504 15.1396 12.8604L12.3496 15.6504C12.1596 15.84 11.8403 15.8395 11.6504 15.6396L8.86035 12.8496C8.54038 12.5396 8.75999 12 9.20996 12H11V4C11 3.45 11.45 3 12 3Z" fill="#2F455C"/>
</g>
</svg>
