<svg width="24" height="24" viewBox="0 0 24 24" fill="none" xmlns="http://www.w3.org/2000/svg">
<g id="Actions/text-rotation_angle_down">
<path id="Icon Shape" d="M4.90033 9.03857C5.1648 9.03858 5.41859 9.14337 5.60541 9.33057L14.0956 17.8208L14.6552 17.2612C14.9652 16.9412 15.5048 17.1608 15.5048 17.6108V20.1509C15.5048 20.4209 15.2848 20.6509 15.0048 20.6509H12.4658C12.0258 20.6509 11.805 20.1105 12.1249 19.7905L12.6855 19.231L4.19525 10.7407C3.80533 10.3507 3.80528 9.72054 4.19525 9.33057C4.38207 9.14338 4.63587 9.03857 4.90033 9.03857ZM18.5351 3.43115C18.9651 3.26115 19.4456 3.36115 19.7656 3.68115C20.0853 4.00109 20.1854 4.49083 20.0156 4.91064L16.4052 14.0005C16.1452 14.6405 15.3249 14.8108 14.8349 14.3208C14.5551 14.0409 14.4751 13.6308 14.6249 13.271L15.2949 11.6704L11.7548 8.13037L10.1552 8.80127C9.79529 8.95113 9.38512 8.87097 9.11517 8.60107C8.62517 8.11107 8.79549 7.28076 9.43549 7.03076L18.5351 3.43115ZM13.4755 7.31104L16.1152 9.95068L18.3456 5.08057L13.4755 7.31104Z" fill="#2F455C"/>
</g>
</svg>
