<svg width="24" height="24" viewBox="0 0 24 24" fill="none" xmlns="http://www.w3.org/2000/svg">
<g id="Actions/restore-page">
<path id="Icon Shape" d="M13.1699 2C13.6999 2 14.2101 2.21008 14.5801 2.58008L19.4102 7.41016C19.7901 7.79014 20 8.30015 20 8.83008V20C20 21.1 19.1 22 18 22H5.99023C4.89023 22 4 21.1 4 20L4.00977 4C4.00977 2.9 4.9 2 6 2H13.1699ZM12 8C10.26 8 8.70981 8.88983 7.7998 10.2998L6.5 9V12.5C6.5 12.78 6.72 13 7 13H10.5L8.88965 11.3896C9.47967 10.2397 10.6701 9.5 12 9.5C13.93 9.5 15.4902 11.07 15.4902 13C15.4902 14.9299 13.9201 16.4999 11.9902 16.5C10.8404 16.5 9.76039 15.9302 9.11035 14.9805C8.88039 14.6405 8.4103 14.5502 8.07031 14.79C7.73031 15.02 7.64988 15.4901 7.87988 15.8301C8.80988 17.1901 10.35 18 12 18C14.76 18 17 15.76 17 13C17 10.24 14.76 8 12 8Z" fill="#2F455C"/>
</g>
</svg>
