<svg width="24" height="24" viewBox="0 0 24 24" fill="none" xmlns="http://www.w3.org/2000/svg">
<g id="Actions/bug-report">
<path id="Icon Shape" d="M15.5947 3.20374C15.8592 3.20374 16.113 3.30945 16.2998 3.4967C16.6896 3.88669 16.6897 4.51593 16.2998 4.90588L15.3701 5.83655C16.12 6.34653 16.7405 7.01659 17.1904 7.79651H19C19.55 7.79651 20 8.24651 20 8.79651C19.9998 9.34638 19.5499 9.79651 19 9.79651H17.9102C17.9601 10.1264 18 10.4566 18 10.7965V11.7965H19C19.55 11.7965 20 12.2465 20 12.7965C19.9998 13.3464 19.5499 13.7965 19 13.7965H18V14.7965C18 15.1364 17.9601 15.4666 17.9102 15.7965H19C19.55 15.7965 20 16.2465 20 16.7965C19.9998 17.3464 19.5499 17.7965 19 17.7965H17.1904C16.1504 19.5865 14.22 20.7965 12 20.7965C9.78001 20.7965 7.84957 19.5865 6.80957 17.7965H5C4.4501 17.7965 4.00016 17.3464 4 16.7965C4 16.2465 4.45 15.7965 5 15.7965H6.08984C6.03986 15.4666 6.00002 15.1364 6 14.7965V13.7965H5C4.4501 13.7965 4.00016 13.3464 4 12.7965C4 12.2465 4.45 11.7965 5 11.7965H6V10.7965C6 10.4566 6.03987 10.1264 6.08984 9.79651H5C4.4501 9.79651 4.00016 9.34638 4 8.79651C4 8.24651 4.45 7.79651 5 7.79651H6.80957C7.25956 7.01653 7.88015 6.34654 8.62012 5.83655L7.7002 4.90588C7.31031 4.51593 7.31036 3.88669 7.7002 3.4967C7.88703 3.30945 8.14076 3.20374 8.40527 3.20374C8.66969 3.20381 8.92358 3.30952 9.11035 3.4967L10.5898 4.96643C11.0398 4.85643 11.51 4.79651 12 4.79651C12.49 4.79651 12.9599 4.85643 13.4199 4.96643L14.8896 3.4967C15.0764 3.30952 15.3303 3.20381 15.5947 3.20374ZM11 13.7965C10.45 13.7965 10 14.2465 10 14.7965C10.0002 15.3464 10.4501 15.7965 11 15.7965H13C13.5499 15.7965 13.9998 15.3464 14 14.7965C14 14.2465 13.55 13.7965 13 13.7965H11ZM11 9.79651C10.45 9.79651 10 10.2465 10 10.7965C10.0002 11.3464 10.4501 11.7965 11 11.7965H13C13.5499 11.7965 13.9998 11.3464 14 10.7965C14 10.2465 13.55 9.79651 13 9.79651H11Z" fill="#2F455C"/>
</g>
</svg>
