<svg width="24" height="24" viewBox="0 0 24 24" fill="none" xmlns="http://www.w3.org/2000/svg">
<g id="Actions/perm-identity">
<path id="Icon Shape" d="M12 13C14.67 13 20 14.34 20 17V19C20 19.55 19.55 20 19 20H5C4.45 20 4 19.55 4 19V17C4 14.34 9.33 13 12 13ZM12 15C9.30027 15 6.20056 16.2897 6 17.0098V18H18V17C17.8 16.29 14.7 15 12 15ZM12 4C14.21 4 16 5.79 16 8C16 10.21 14.21 12 12 12C9.79 12 8 10.21 8 8C8 5.79 9.79 4 12 4ZM12 6C10.9 6 10 6.9 10 8C10 9.1 10.9 10 12 10C13.1 10 14 9.1 14 8C14 6.9 13.1 6 12 6Z" fill="#2F455C"/>
</g>
</svg>
