<svg width="24" height="24" viewBox="0 0 24 24" fill="none" xmlns="http://www.w3.org/2000/svg">
<g id="Actions/work-off">
<path id="Icon Shape" d="M3.03902 1.95581C3.30344 1.95588 3.55733 2.06159 3.74409 2.24878L22.0742 20.5886C22.464 20.9786 22.4639 21.6088 22.0742 21.9988C21.6842 22.3887 21.054 22.3886 20.664 21.9988L19.374 20.7087H3.63374C2.52374 20.7087 1.63374 19.8187 1.63374 18.7087L1.64351 7.70874C1.64351 6.59874 2.52374 5.70874 3.63374 5.70874H4.37398L2.33394 3.65894C1.94394 3.26894 1.94394 2.63878 2.33394 2.24878C2.52076 2.06158 2.77454 1.95581 3.03902 1.95581ZM13.6337 1.70874C14.7437 1.70874 15.6337 2.59874 15.6337 3.70874V5.70874H19.6337C20.7437 5.70874 21.6337 6.59874 21.6337 7.70874V17.3083L10.0341 5.70874H13.6337V3.70874H9.63374V5.30835L7.67378 3.34839C7.83392 2.40856 8.64387 1.70874 9.63374 1.70874H13.6337Z" fill="#2F455C"/>
</g>
</svg>
