<svg width="24" height="24" viewBox="0 0 24 24" fill="none" xmlns="http://www.w3.org/2000/svg">
<g id="Actions/feedback">
<path id="Icon Shape" d="M19.9952 2C21.0951 2.00013 21.9952 2.90008 21.9952 4V16C21.9952 17.0999 21.0951 17.9999 19.9952 18H5.99524L2.005 22V4C2.005 2.9 2.905 2 4.005 2H19.9952ZM10.9952 14H12.9952V12H10.9952V14ZM11.9952 6C11.4452 6 10.9952 6.45 10.9952 7V9C10.9952 9.55 11.4452 10 11.9952 10C12.5451 9.99987 12.9952 9.54992 12.9952 9V7C12.9952 6.45008 12.5451 6.00013 11.9952 6Z" fill="#2F455C"/>
</g>
</svg>
