<svg width="24" height="24" viewBox="0 0 24 24" fill="none" xmlns="http://www.w3.org/2000/svg">
<g id="Actions/settings-input_hdmi">
<path id="Icon Shape" d="M16 2C17.1 2 18 2.9 18 4V7C18.55 7 19 7.45 19 8V12.7002C19 12.8901 18.94 13.0901 18.8301 13.25L16 19V21C16 21.55 15.55 22 15 22H9C8.45 22 8 21.55 8 21V19L5.16992 13.25C5.05997 13.0901 5.00004 12.9001 5 12.7002V8C5 7.45 5.45 7 6 7V4C6 2.9 6.9 2 8 2H16ZM8 4V7H10V5.5C10 5.22 10.22 5 10.5 5C10.78 5 11 5.22 11 5.5V7H13V5.5C13 5.22 13.22 5 13.5 5C13.78 5 14 5.22 14 5.5V7H16V4H8Z" fill="#2F455C"/>
</g>
</svg>
