<svg width="24" height="24" viewBox="0 0 24 24" fill="none" xmlns="http://www.w3.org/2000/svg">
<g id="Actions/voice-over_off">
<path id="Icon Shape" d="M4.41586 3.49268C4.68036 3.49269 4.93411 3.5984 5.12094 3.78564L20.4305 19.105C20.8205 19.495 20.8205 20.1251 20.4305 20.5151C20.0405 20.905 19.4103 20.9051 19.0203 20.5151L16.7108 18.2056C16.8907 18.5255 17.0008 18.8552 17.0008 19.2251V20.2251C17.0008 20.7751 16.5508 21.2251 16.0008 21.2251H2.00082C1.45082 21.2251 1.00082 20.7751 1.00082 20.2251V19.2251C1.00104 16.5652 6.33087 15.2251 9.00082 15.2251C10.7807 15.2251 13.7403 15.8255 15.5203 17.0054L11.1209 12.605C10.2309 13.165 9.11073 13.4057 7.92074 13.0757C6.59075 12.7057 5.51121 11.6352 5.15121 10.3052C4.83121 9.11518 5.06094 7.99498 5.62094 7.10498L3.71078 5.19482C3.32109 4.80488 3.32107 4.17558 3.71078 3.78564C3.89761 3.59839 4.15134 3.49268 4.41586 3.49268ZM19.1805 3.11572C19.6805 2.61574 20.5112 2.6749 20.9412 3.23486C23.6312 6.80483 23.6811 11.4954 21.1112 15.0054C20.6812 15.5954 19.8106 15.6453 19.3006 15.1353C18.9108 14.7453 18.8308 14.1255 19.1405 13.6655C21.0005 10.8455 20.9806 7.27521 19.0506 4.59521C18.7208 4.13538 18.7809 3.5157 19.1805 3.11572ZM15.7205 6.63525C16.3005 6.04525 17.3108 6.17529 17.7108 6.92529C18.4308 8.34529 18.4709 9.94545 17.8309 11.3354C17.4708 12.1153 16.4104 12.245 15.8104 11.645C15.4608 11.3051 15.3607 10.7854 15.5203 10.3257C15.7903 9.56568 15.7705 8.73486 15.4705 7.98486C15.2808 7.51503 15.3708 6.98515 15.7205 6.63525ZM9.43051 5.26514C11.2905 5.46514 12.7608 6.93541 12.9608 8.79541L9.43051 5.26514Z" fill="#2F455C"/>
</g>
</svg>
