<svg width="24" height="24" viewBox="0 0 24 24" fill="none" xmlns="http://www.w3.org/2000/svg">
<g id="Actions/text-rotation_down">
<path id="Icon Shape" d="M5.64622 4.10425C6.19602 4.1045 6.64622 4.5544 6.64622 5.10425V17.1042H7.43529C7.88529 17.1042 8.10587 17.6446 7.78587 17.9646L5.99583 19.7546C5.80581 19.9445 5.48558 19.9438 5.29564 19.7439L3.5056 17.9539C3.18601 17.6438 3.40632 17.1042 3.85619 17.1042H4.64622V5.10425C4.64622 4.55425 5.09623 4.10425 5.64622 4.10425ZM9.64622 7.06421C9.64625 6.37423 10.3561 5.90457 10.9861 6.17456L19.9558 10.0544C20.3757 10.2345 20.6462 10.6443 20.6462 11.1042C20.6462 11.5642 20.3757 11.974 19.9558 12.1541L10.9861 16.0339C10.3561 16.3039 9.64622 15.8441 9.64622 15.1541C9.64631 14.7641 9.88589 14.4144 10.2458 14.2644L11.8454 13.6042V8.60425L10.2458 7.95386C9.88588 7.80384 9.64622 7.45418 9.64622 7.06421ZM13.6462 12.9744L18.6658 11.1042L13.6462 9.23413V12.9744Z" fill="#2F455C"/>
</g>
</svg>
