<svg width="24" height="24" viewBox="0 0 24 24" fill="none" xmlns="http://www.w3.org/2000/svg">
<g id="Actions/alarm-off">
<path id="Icon Shape" d="M2.54222 2.68433C2.93224 2.30461 3.55196 2.30442 3.93187 2.68433L20.9416 19.6843C21.3216 20.0743 21.3215 20.694 20.9416 21.074L20.9114 21.1042C20.5214 21.4841 19.9017 21.4842 19.5217 21.1042L18.1116 19.6941C16.5316 21.0641 14.4718 21.8942 12.2219 21.8943C7.25191 21.8943 3.22191 17.8643 3.22191 12.8943C3.22194 10.6443 4.05213 8.5846 5.4221 7.00464L4.62132 6.20483L4.31175 6.45483C3.89183 6.80459 3.28185 6.75444 2.93187 6.33472L2.9016 6.30444C2.56172 5.88452 2.61171 5.26458 3.03148 4.92456L3.2014 4.78491L2.52171 4.10425C2.13186 3.72427 2.13185 3.10457 2.52171 2.7146L2.54222 2.68433ZM6.84203 8.42456C5.83205 9.63453 5.22194 11.1943 5.22191 12.8943C5.22191 16.7543 8.36191 19.8943 12.2219 19.8943C13.9218 19.8942 15.4817 19.2841 16.6916 18.2742L6.84203 8.42456ZM12.2219 3.89429C17.1918 3.89437 21.2218 7.92441 21.2219 12.8943C21.2219 14.1443 20.9614 15.3348 20.4914 16.4148L18.9319 14.8542C19.1118 14.2343 19.2219 13.5742 19.2219 12.8943C19.2218 9.03441 16.0818 5.89437 12.2219 5.89429C11.542 5.89429 10.8819 6.00436 10.2619 6.18433L8.69164 4.61401C9.78162 4.15403 10.9719 3.89429 12.2219 3.89429ZM16.9416 2.45483C17.2916 2.04483 17.9015 1.98472 18.3215 2.33472L21.4221 4.92456C21.8318 5.27454 21.8919 5.88454 21.5422 6.30444L21.5119 6.33472C21.162 6.74453 20.552 6.80446 20.1321 6.45483L17.0315 3.86401C16.6218 3.51397 16.5615 2.90401 16.9114 2.48413L16.9416 2.45483ZM6.31175 2.23413C6.71173 2.02421 7.21198 2.09487 7.51195 2.45483L7.54222 2.48413C7.80211 2.80403 7.83141 3.23404 7.6516 3.57397L6.31175 2.23413Z" fill="#2F455C"/>
</g>
</svg>
