<svg width="24" height="24" viewBox="0 0 24 24" fill="none" xmlns="http://www.w3.org/2000/svg">
<g id="Actions/view-day">
<path id="Icon Shape" d="M20.5 18C21.05 18 21.5 18.45 21.5 19V20C21.5 20.55 21.05 21 20.5 21H3.5C2.95 21 2.5 20.55 2.5 20V19C2.5 18.45 2.95 18 3.5 18H20.5ZM20.5 8C21.05 8 21.5 8.45 21.5 9V15C21.5 15.55 21.05 16 20.5 16H3.5C2.95 16 2.5 15.55 2.5 15V9C2.5 8.45 2.95 8 3.5 8H20.5ZM20.5 3C21.05 3 21.5 3.45 21.5 4V5C21.5 5.55 21.05 6 20.5 6H3.5C2.95 6 2.5 5.55 2.5 5V4C2.5 3.45 2.95 3 3.5 3H20.5Z" fill="#2F455C"/>
</g>
</svg>
