<svg width="24" height="24" viewBox="0 0 24 24" fill="none" xmlns="http://www.w3.org/2000/svg">
<g id="Actions/touch-app">
<path id="Icon Shape" d="M11.0519 4.5C11.8817 4.50025 12.5519 5.17016 12.5519 6V12H13.1613C13.4713 12 13.7719 12.07 14.0519 12.21L18.131 14.2402C18.9009 14.6202 19.3416 15.4597 19.2218 16.3096L18.591 20.7803C18.4508 21.7701 17.6114 22.5 16.6115 22.5H10.5119C9.98189 22.5 9.47099 22.2899 9.09099 21.9199L5.08122 17.9102C4.65131 17.4702 4.65139 16.7701 5.08122 16.3301C5.35121 16.0601 5.74151 15.9396 6.1115 16.0195L9.55193 16.7402V6C9.55193 5.17 10.2219 4.5 11.0519 4.5ZM11.0519 1.5C13.5417 1.50025 15.5519 3.51016 15.5519 6C15.5519 7.55991 14.7618 8.93022 13.5519 9.74023V6C13.5519 4.62016 12.4317 3.50025 11.0519 3.5C9.67193 3.5 8.55193 4.62 8.55193 6V9.74023C7.34193 8.93023 6.55193 7.56 6.55193 6C6.55193 3.51 8.56193 1.5 11.0519 1.5Z" fill="#2F455C"/>
</g>
</svg>
