<svg width="24" height="24" viewBox="0 0 24 24" fill="none" xmlns="http://www.w3.org/2000/svg">
<g id="Actions/picture-in_picture_alt">
<path id="Icon Shape" d="M21 3C22.1 3 23 3.88047 23 4.98047V19C23 20.1 22.1 21 21 21H3C1.9 21 1 20.1 1 19V4.98047C1 3.88047 1.9 3 3 3H21ZM4 4.96973C3.45009 4.96973 3.00015 5.41985 3 5.96973V18.0195C3 18.5695 3.45 19.0195 4 19.0195H20C20.55 19.0195 21 18.5695 21 18.0195V5.96973C20.9999 5.41985 20.5499 4.96973 20 4.96973H4ZM18 11C18.55 11 19 11.45 19 12V16C19 16.55 18.55 17 18 17H12C11.45 17 11 16.55 11 16V12C11 11.45 11.45 11 12 11H18Z" fill="#2F455C"/>
</g>
</svg>
