<svg width="24" height="24" viewBox="0 0 24 24" fill="none" xmlns="http://www.w3.org/2000/svg">
<g id="Actions/translate">
<path id="Icon Shape" d="M17.705 10C18.305 10 18.8453 10.3704 19.0653 10.9404L22.7352 20.7402C22.9649 21.35 22.5051 21.9997 21.8554 22C21.4654 22 21.1145 21.7496 20.9745 21.3896L20.0751 19H15.3251L14.4354 21.3896C14.2954 21.7596 13.9446 22 13.5546 22C12.9048 21.9997 12.4455 21.3501 12.6854 20.7402L16.3554 10.9404C16.5654 10.3704 17.105 10 17.705 10ZM9.20497 2C9.75497 2 10.205 2.45 10.205 3V4H16.2147C16.7547 4 17.205 4.45023 17.205 4.99023V5.00977C17.205 5.54977 16.7547 6 16.2147 6H14.2753C13.5453 8.35999 12.3053 10.5903 10.5653 12.5303L10.535 12.5596L12.6249 14.6201C12.9048 14.9001 12.9952 15.31 12.8554 15.6699C12.6054 16.3399 11.7345 16.5295 11.2245 16.0195L9.20497 14L4.9247 18.29C4.52469 18.6799 3.89472 18.68 3.50478 18.29C3.10491 17.9001 3.10496 17.2601 3.50478 16.8701L7.87489 12.5596C6.975 11.5596 6.20503 10.4795 5.57509 9.34961C5.23535 8.74965 5.67522 8 6.36513 8C6.69505 8.00006 6.98542 8.17979 7.1454 8.46973C7.71536 9.48965 8.39506 10.4597 9.20497 11.3496C10.6448 9.74978 11.7049 7.92022 12.3749 5.98047H2.19521C1.65528 5.98047 1.2051 5.54012 1.20497 4.99023C1.20497 4.45023 1.65521 4 2.19521 4H8.20497V3C8.20497 2.45 8.65497 2 9.20497 2ZM16.0849 17H19.3251L17.705 12.6699L16.0849 17Z" fill="#2F455C"/>
</g>
</svg>
