<svg width="24" height="24" viewBox="0 0 24 24" fill="none" xmlns="http://www.w3.org/2000/svg">
<g id="Actions/gavel">
<path id="Icon Shape" d="M12.8075 20.5869C13.3575 20.5869 13.8075 21.0369 13.8075 21.5869C13.8075 22.1369 13.3575 22.5869 12.8075 22.5869H2.8075C2.25752 22.5869 1.80754 22.1369 1.8075 21.5869C1.8075 21.0369 2.2575 20.5869 2.8075 20.5869H12.8075ZM21.6073 17.5566C22.3873 18.3366 22.3873 19.6067 21.6073 20.3867C20.8273 21.1667 19.5572 21.1667 18.7772 20.3867L6.04773 7.65723L8.87781 4.82715L21.6073 17.5566ZM10.2977 14.7266L8.88758 16.1367C8.10758 16.9167 6.8375 16.9167 6.0575 16.1367L3.22742 13.3066C2.44756 12.5266 2.44747 11.2565 3.22742 10.4766L4.63758 9.06641L10.2977 14.7266ZM11.7079 2.00684C12.4879 1.21703 13.758 1.21714 14.538 1.99707L17.3671 4.82715C18.1471 5.60715 18.1471 6.87723 17.3671 7.65723L15.9471 9.07715L10.2977 3.41699L11.7079 2.00684Z" fill="#2F455C"/>
</g>
</svg>
