<svg width="24" height="24" viewBox="0 0 24 24" fill="none" xmlns="http://www.w3.org/2000/svg">
<g id="Actions/watch-later">
<path id="Icon Shape" d="M12 2C17.5 2 22 6.5 22 12C22 17.5 17.5 22 12 22C6.5 22 2 17.5 2 12C2 6.5 6.5 2 12 2ZM11.75 7C11.34 7 11.0002 7.34 10.9902 7.75V12.4404C10.9904 12.7902 11.17 13.1101 11.4697 13.29L15.5498 15.7998C15.9098 16.0198 16.3796 15.9096 16.5996 15.5596C16.8195 15.1996 16.6998 14.7297 16.3398 14.5098L12.5 12.2002V7.75C12.5 7.34 12.16 7 11.75 7Z" fill="#2F455C"/>
</g>
</svg>
