<svg width="24" height="24" viewBox="0 0 24 24" fill="none" xmlns="http://www.w3.org/2000/svg">
<g id="Actions/assignment-turned_in">
<path id="Icon Shape" d="M12 2C13.3 2 14.4003 2.84 14.8203 4H19C20.1 4 21 4.9 21 6V20C21 21.1 20.1 22 19 22H5C3.9 22 3 21.1 3 20V6C3 4.9 3.9 4 5 4H9.17969C9.59969 2.84 10.7 2 12 2ZM17.29 9.29004C16.9 8.90004 16.2699 8.90004 15.8799 9.29004L10 15.1699L8.11035 13.29C7.72038 12.9001 7.0902 12.9001 6.7002 13.29C6.51294 13.4769 6.40723 13.7306 6.40723 13.9951C6.40726 14.2596 6.51297 14.5134 6.7002 14.7002L9.29004 17.29C9.68004 17.68 10.3202 17.68 10.7002 17.29L17.29 10.7002C17.68 10.3102 17.68 9.68004 17.29 9.29004ZM12 4C11.45 4 11 4.45 11 5C11 5.55 11.45 6 12 6C12.55 6 13 5.55 13 5C13 4.45 12.55 4 12 4Z" fill="#2F455C"/>
</g>
</svg>
