<svg width="24" height="24" viewBox="0 0 24 24" fill="none" xmlns="http://www.w3.org/2000/svg">
<g id="Actions/important-devices">
<path id="Icon Shape" d="M20 2C21.1 2 22 2.9 22 4V8C22 8.55 21.55 9 21 9C20.45 9 20 8.55 20 8V5C20 4.45 19.55 4 19 4H3C2.45 4 2 4.45 2 5V15C2 15.55 2.45 16 3 16H14C14.55 16 15 16.45 15 17C15 17.55 14.55 18 14 18H13V20H14C14.55 20 15 20.45 15 21C15 21.55 14.55 22 14 22H8C7.45 22 7 21.55 7 21C7 20.45 7.45 20 8 20H9V18H2C0.9 18 0 17.1 0 16V4C0 2.9 0.9 2 2 2H20ZM23 11.0098C23.55 11.0098 24 11.45 24 12V21C24 21.55 23.55 22 23 22H18C17.45 22 17 21.55 17 21V12C17 11.45 17.45 11 18 11L23 11.0098ZM18 20H23V13H18V20ZM11.9697 9H15L12.5303 10.7598L13.4697 13.6699L11 11.8701L8.53027 13.6699L9.46973 10.7598L7 9H10.0303L11 6L11.9697 9Z" fill="#2F455C"/>
</g>
</svg>
