<svg width="24" height="24" viewBox="0 0 24 24" fill="none" xmlns="http://www.w3.org/2000/svg">
<g id="Actions/accessibility-new">
<path id="Icon Shape" d="M19.5105 6.24023C20.0604 6.12048 20.6098 6.44037 20.7498 6.99023C20.8897 7.55018 20.5499 8.12001 19.99 8.25C18.39 8.61 16.6497 8.86 14.9998 9V21C14.9998 21.55 14.5498 22 13.9998 22C13.4499 21.9999 12.9998 21.5499 12.9998 21V16H10.9998V21C10.9998 21.55 10.5498 22 9.99976 22C9.44988 21.9999 8.99976 21.5499 8.99976 21V9C7.34983 8.86 5.60967 8.60998 3.99976 8.25C3.45 8.11991 3.10996 7.55006 3.24976 6.99023C3.38976 6.44023 3.93999 6.12023 4.48999 6.24023C6.8699 6.77021 9.51984 6.99998 11.9998 7C14.4798 7 17.1305 6.77023 19.5105 6.24023ZM11.9998 2C13.0998 2 13.9998 2.9 13.9998 4C13.9998 5.1 13.0998 6 11.9998 6C10.8999 5.99985 9.99976 5.09991 9.99976 4C9.99976 2.90009 10.8999 2.00015 11.9998 2Z" fill="#2F455C"/>
</g>
</svg>
