<svg width="24" height="24" viewBox="0 0 24 24" fill="none" xmlns="http://www.w3.org/2000/svg">
<g id="Actions/settings-overscan">
<path id="Icon Shape" d="M21 3C22.1 3 23 3.9 23 5V19C23 20.1 22.1 21 21 21H3C1.9 21 1 20.1 1 19V5C1 3.9 1.9 3 3 3H21ZM4 4.99023C3.45 4.99023 3 5.44023 3 5.99023V18.0098C3 18.5598 3.45 19.0098 4 19.0098H20C20.55 19.0098 21 18.5598 21 18.0098V5.99023C21 5.44023 20.55 4.99023 20 4.99023H4ZM14 16L12.4004 18.0098C12.2004 18.2598 11.8201 18.2598 11.6201 18.0098L10 16H14ZM6 14L3.99023 12.4004C3.74023 12.2004 3.74023 11.8201 3.99023 11.6201L6 10V14ZM20.0098 11.6201C20.2598 11.8201 20.2598 12.2004 20.0098 12.4004L18 14V10L20.0098 11.6201ZM11.6201 5.99023C11.8201 5.74023 12.2004 5.74023 12.4004 5.99023L14 8H10L11.6201 5.99023Z" fill="#2F455C"/>
</g>
</svg>
