<svg width="24" height="24" viewBox="0 0 24 24" fill="none" xmlns="http://www.w3.org/2000/svg">
<g id="Actions/power-settings_new">
<path id="Icon Shape" d="M17.1421 5.86304C17.542 5.4631 18.2015 5.47276 18.5815 5.88257C20.0815 7.48257 21.0014 9.62292 21.0014 11.9929C21.0013 17.0628 16.8113 21.1529 11.7114 20.9929C6.83166 20.8427 2.86159 16.6227 3.00145 11.7429C3.07145 9.47292 3.98211 7.42257 5.43211 5.88257C5.81214 5.47279 6.46187 5.46311 6.8618 5.86304C7.24162 6.24305 7.24151 6.85298 6.87157 7.24292C5.7117 8.49289 5.00145 10.1628 5.00145 12.0027C5.00145 15.9027 8.18227 19.0529 12.0923 18.9929C15.922 18.9527 19.0913 15.6527 19.0014 11.823C18.9614 10.053 18.2613 8.45269 17.1313 7.25269C16.7616 6.86269 16.7522 6.25296 17.1421 5.86304ZM12.0014 3.00269C12.5514 3.00269 13.0014 3.45269 13.0014 4.00269V12.0027C13.0014 12.5527 12.5514 13.0027 12.0014 13.0027C11.4516 13.0025 11.0014 12.5526 11.0014 12.0027V4.00269C11.0014 3.4528 11.4516 3.00287 12.0014 3.00269Z" fill="#2F455C"/>
</g>
</svg>
