<svg width="24" height="24" viewBox="0 0 24 24" fill="none" xmlns="http://www.w3.org/2000/svg">
<g id="Actions/settings-input_component">
<path id="Icon Shape" d="M7 16C7 17.3 6.16 18.4003 5 18.8203V22C5 22.55 4.55 23 4 23C3.45 23 3 22.55 3 22V18.8203C1.84 18.4003 1 17.3 1 16V14H7V16ZM15 16C15 17.31 14.16 18.4103 13 18.8203V22C13 22.55 12.55 23 12 23C11.45 23 11 22.55 11 22V18.8203C9.84 18.4003 9 17.3 9 16V14H15V16ZM23 14V16C23 17.31 22.16 18.4103 21 18.8203V22C21 22.55 20.55 23 20 23C19.45 23 19 22.55 19 22V18.8203C17.84 18.4003 17 17.3 17 16V14H23ZM4 1C4.55 1 5 1.45 5 2V6H6C6.55 6 7 6.45 7 7V12H1V7C1 6.45 1.45 6 2 6H3V2C3 1.45 3.45 1 4 1ZM12 1C12.55 1 13 1.45 13 2V6H14C14.55 6 15 6.45 15 7V12H9V7C9 6.45 9.45 6 10 6H11V2C11 1.45 11.45 1 12 1ZM20 1C20.55 1 21 1.45 21 2V6H22C22.55 6 23 6.45 23 7V12H17V7C17 6.45 17.45 6 18 6H19V2C19 1.45 19.45 1 20 1Z" fill="#2F455C"/>
</g>
</svg>
