<svg width="24" height="24" viewBox="0 0 24 24" fill="none" xmlns="http://www.w3.org/2000/svg">
<g id="Actions/invert-colors">
<path id="Icon Shape" d="M12.0049 2.55371C12.2694 2.55371 12.5231 2.65943 12.71 2.84668L17.6602 7.7959C20.7802 10.9159 20.7802 15.9864 17.6602 19.1064C16.1002 20.6664 14.05 21.4463 12 21.4463C9.95002 21.4463 7.89984 20.6664 6.33984 19.1064C3.21984 15.9864 3.21984 10.9159 6.33984 7.7959L11.2998 2.84668C11.4866 2.65945 11.7404 2.55374 12.0049 2.55371ZM7.75977 9.21582C6.6198 10.3458 6.00004 11.8561 6 13.4561C6 15.056 6.61981 16.5563 7.75977 17.6963C8.88977 18.8363 10.4 19.4561 12 19.4561V4.96582L7.75977 9.21582Z" fill="#2F455C"/>
</g>
</svg>
