<svg width="24" height="24" viewBox="0 0 24 24" fill="none" xmlns="http://www.w3.org/2000/svg">
<path d="M18.5 13C21.536 13 24 15.464 24 18.5C24 21.536 21.536 24 18.5 24C15.464 24 13 21.536 13 18.5C13 15.464 15.464 13 18.5 13ZM14.2158 17.5156C14.1443 17.8346 14.0996 18.159 14.0996 18.5C14.0996 20.744 15.7777 22.5918 17.9502 22.8613V21.7998C17.3453 21.7998 16.8497 21.3051 16.8496 20.7002V20.1504L14.2158 17.5156ZM20.1504 14.6504C20.1501 15.2552 19.6546 15.75 19.0498 15.75H17.9502V16.8496C17.9502 17.152 17.7027 17.4002 17.4004 17.4004H16.2998V18.5H19.5996C19.9021 18.5 20.1503 18.7474 20.1504 19.0498V19.6338C20.6113 19.3087 20.9293 18.7952 20.9893 18.2041V18.2051C20.9295 18.7996 20.6124 19.3137 20.1504 19.6377V20.7002H20.7002C21.1951 20.7003 21.6021 21.0194 21.7451 21.4648C22.4601 20.6839 22.9004 19.644 22.9004 18.5C22.9004 16.6577 21.7616 15.0794 20.1504 14.4248V14.6504ZM19 4C20.11 4 21 4.89 21 6V12H3V17C3 17.55 3.50625 18 4.125 18H12V20H3C1.89 20 1 19.11 1 18L1.00977 6C1.00977 4.89 1.89 4 3 4H19ZM3 8H19V6H3V8Z" fill="#2F455C"/>
</svg>
