<svg width="24" height="24" viewBox="0 0 24 24" fill="none" xmlns="http://www.w3.org/2000/svg">
<g id="Actions/shop">
<path id="Icon Shape" d="M14 2.5C15.1 2.5 16 3.4 16 4.5V6.5H20C21.1 6.5 22 7.4 22 8.5V19.5C22 20.6 21.1 21.5 20 21.5H4C2.9 21.5 2 20.6 2 19.5V8.5C2 7.4 2.9 6.5 4 6.5H8V4.5C8 3.4 8.9 2.5 10 2.5H14ZM9.74023 9.88965C9.40023 9.70965 9 9.95008 9 10.3301V17.5703C9.00023 17.9701 9.45036 18.2004 9.78027 17.9805L15.8096 13.96C16.1296 13.75 16.0995 13.2796 15.7695 13.0996L9.74023 9.88965ZM10 6.5H14V4.5H10V6.5Z" fill="#2F455C"/>
</g>
</svg>
