<svg width="24" height="24" viewBox="0 0 24 24" fill="none" xmlns="http://www.w3.org/2000/svg">
<g id="Actions/rowing">
<path id="Icon Shape" d="M14.2279 5.70874C15.4676 5.70893 16.4875 6.72873 16.4876 7.96851V13.7185C16.4876 14.5584 16.1376 15.3287 15.5677 15.8787L11.9876 12.2986V10.0291C11.3576 10.549 10.4875 11.0887 9.69758 11.4187L15.9876 17.7087H17.0677C17.3376 17.7088 17.5977 17.8188 17.7777 17.9988L19.7777 20.0085C20.1676 20.3985 20.1676 21.0387 19.7777 21.4187L18.1976 22.9988C17.7976 23.3887 17.1677 23.3887 16.7777 22.9988L14.7874 20.989C14.5974 20.809 14.4974 20.5488 14.4974 20.2888V19.2087L7.38703 12.1189C7.09722 12.1589 6.7974 12.1892 6.48762 12.1892C5.88775 12.1892 5.40775 11.7089 5.40754 11.1091C5.40754 10.5091 5.88762 10.0291 6.48762 10.0291C8.14753 10.059 10.0975 9.15892 11.1575 7.98901L12.5579 6.43921C12.7479 6.22928 12.9875 6.0592 13.2474 5.93921C13.5373 5.79923 13.8674 5.70877 14.2073 5.70874H14.2279ZM10.4876 16.7087H8.48762L5.73762 19.4587C5.32764 19.8687 4.64762 19.8687 4.23762 19.4587C3.82762 19.0487 3.82762 18.3687 4.23762 17.9587L7.98762 14.2087L10.4876 16.7087ZM14.4876 0.70874C15.5876 0.708804 16.4876 1.60878 16.4876 2.70874C16.4876 3.8087 15.5876 4.70868 14.4876 4.70874C13.3876 4.70874 12.4876 3.80874 12.4876 2.70874C12.4876 1.60874 13.3876 0.70874 14.4876 0.70874Z" fill="#2F455C"/>
</g>
</svg>
