<svg width="24" height="24" viewBox="0 0 24 24" fill="none" xmlns="http://www.w3.org/2000/svg">
<g id="Actions/favorite-border">
<path id="Icon Shape" d="M4.3399 4.16675C6.9799 2.35675 10.2401 3.20734 12.0001 5.26733C13.76 3.2074 17.0203 2.36696 19.6602 4.16675C21.0602 5.12672 21.94 6.74708 22.0001 8.44702C22.1301 12.327 18.7002 15.4371 13.4503 20.197L13.3399 20.2976C12.58 20.9972 11.4103 20.9971 10.6505 20.3074L10.5499 20.2175C5.29989 15.4476 1.86006 12.3368 2.00006 8.45679C2.06017 6.74695 2.94004 5.12668 4.3399 4.16675ZM16.5001 5.17749C14.9603 5.17758 13.4606 6.1671 12.9405 7.53687H11.0704C10.5403 6.16698 9.03997 5.17749 7.50006 5.17749C5.50017 5.1776 4.00006 6.67756 4.00006 8.67749C4.00029 11.5674 7.14063 14.4175 11.9005 18.7273L12.0001 18.8269L12.1006 18.7273C16.8604 14.4175 19.9998 11.5674 20.0001 8.67749C20.0001 6.67749 18.5001 5.17749 16.5001 5.17749Z" fill="#2F455C"/>
</g>
</svg>
