<svg width="24" height="24" viewBox="0 0 24 24" fill="none" xmlns="http://www.w3.org/2000/svg">
<g id="Actions/shop-two">
<path id="Icon Shape" d="M2 9.5C2.55 9.5 3 9.95 3 10.5V19.5C3 20.05 3.45 20.5 4 20.5H19C19 21.61 18.11 22.5 17 22.5H3C1.9 22.5 1 21.6 1 20.5V10.5C1 9.95 1.45 9.5 2 9.5ZM16 1.5C17.1 1.5 18 2.4 18 3.5V5.5H21C22.1 5.5 23 6.4 23 7.5V16.5C23 17.6 22.1 18.5 21 18.5H7C5.9 18.5 5 17.6 5 16.5V7.5C5 6.4 5.9 5.5 7 5.5H10V3.5C10 2.4 10.9 1.5 12 1.5H16ZM12.7402 8.90039C12.4103 8.72042 12.0001 8.95993 12 9.33984V14.5195C12 14.9295 12.46 15.1599 12.79 14.9199L16.8604 11.96C17.1601 11.7499 17.1295 11.3001 16.8096 11.1201L12.7402 8.90039ZM12 5.5H16V3.5H12V5.5Z" fill="#2F455C"/>
</g>
</svg>
