<svg width="24" height="24" viewBox="0 0 24 24" fill="none" xmlns="http://www.w3.org/2000/svg">
<g id="Actions/perm-camera_mic">
<path id="Icon Shape" d="M14.1251 3C14.685 3.00003 15.2248 3.24042 15.5948 3.65039L16.835 5H20.005C21.105 5 22.0052 5.9 21.9952 7V19C21.9952 20.0999 21.0951 20.9999 19.9952 21H12.9952V18.9102C15.445 18.5001 17.4048 16.59 17.8848 14.1602C18.0048 13.5502 17.5046 13 16.8946 13C16.4148 13.0002 16.0151 13.3502 15.9151 13.8301C15.5351 15.6401 13.9349 17 12.005 17C10.075 17 8.47507 15.64 8.08504 13.8301C7.98504 13.3501 7.59457 13 7.10457 13C6.49475 13.0002 5.99534 13.5503 6.11531 14.1602C6.59538 16.5901 8.55503 18.4902 11.005 18.9102V21H4.00496C2.90496 21 2.00496 20.1 2.00496 19V7C2.00496 5.9 2.90496 5 4.00496 5H7.17488L8.40535 3.65039C8.78532 3.24042 9.32488 3.00003 9.88484 3H14.1251ZM12.005 7C10.905 7 10.005 7.9 10.005 9V13C10.005 14.1 10.905 15 12.005 15C13.105 15 14.005 14.1 14.005 13V9C14.005 7.9 13.105 7 12.005 7Z" fill="#2F455C"/>
</g>
</svg>
