<svg width="24" height="24" viewBox="0 0 24 24" fill="none" xmlns="http://www.w3.org/2000/svg">
<g id="Actions/offline-bolt">
<path id="Icon Shape" d="M12.0005 2.02002C17.5103 2.02027 21.98 6.49064 21.98 12.0005C21.9797 17.5101 17.5101 21.9797 12.0005 21.98C6.49063 21.98 2.02025 17.5103 2.02 12.0005C2.02 6.49049 6.49047 2.02002 12.0005 2.02002ZM13.0005 6.06982C13.0003 5.53998 12.29 5.37039 12.06 5.84033L8.38035 13.0103C8.20042 13.3402 8.44992 13.7396 8.81981 13.7397H11.48V17.8804C11.4803 18.4101 12.1902 18.58 12.4302 18.1001L15.9897 10.98C16.1497 10.65 15.9095 10.2603 15.5395 10.2603H13.0005V6.06982Z" fill="#2F455C"/>
</g>
</svg>
