<svg width="24" height="24" viewBox="0 0 24 24" fill="none" xmlns="http://www.w3.org/2000/svg">
<g id="Actions/all-inbox">
<path id="Icon Shape" d="M8.12988 16C8.59985 16 8.98033 16.3398 9.11035 16.7998C9.46035 18.0698 10.62 19 12 19C13.38 19 14.5396 18.0698 14.8896 16.7998C15.0197 16.3398 15.4001 16 15.8701 16H20C20.55 16 21 16.45 21 17V19C21 20.1 20.1 21 19 21H5C3.9 21 3 20.1 3 19V17C3 16.45 3.45 16 4 16H8.12988ZM19 3C20.1 3 21 3.9 21 5V12C21 13.1 20.1 14 19 14H5C3.9 14 3 13.1 3 12V5C3 3.9 3.9 3 5 3H19ZM6 5C5.45 5 5 5.45 5 6V9H8.13965C8.60965 9 8.98035 9.33027 9.11035 9.78027C9.47047 11.0401 10.6501 12 12 12C13.3499 12 14.5295 11.0401 14.8896 9.78027C15.0196 9.33027 15.3904 9 15.8604 9H19V6C19 5.45 18.55 5 18 5H6Z" fill="#2F455C"/>
</g>
</svg>
