<svg width="24" height="24" viewBox="0 0 24 24" fill="none" xmlns="http://www.w3.org/2000/svg">
<g id="Actions/aspect-ratio">
<path id="Icon Shape" d="M21 3C22.1 3 23 3.9 23 5V19C23 20.1 22.1 21 21 21H3C1.9 21 1 20.1 1 19V5C1 3.9 1.9 3 3 3H21ZM4 4.99023C3.45 4.99023 3 5.44023 3 5.99023V18.0098C3 18.5598 3.45 19.0098 4 19.0098H20C20.55 19.0098 21 18.5598 21 18.0098V5.99023C21 5.44023 20.55 4.99023 20 4.99023H4ZM18 12C18.55 12 19 12.45 19 13V16C19 16.55 18.55 17 18 17H15C14.45 17 14 16.55 14 16C14 15.45 14.45 15 15 15H17V13C17 12.45 17.45 12 18 12ZM9 7C9.55 7 10 7.45 10 8C10 8.55 9.55 9 9 9H7V11C7 11.55 6.55 12 6 12C5.45 12 5 11.55 5 11V8C5 7.45 5.45 7 6 7H9Z" fill="#2F455C"/>
</g>
</svg>
