<svg width="24" height="24" viewBox="0 0 24 24" fill="none" xmlns="http://www.w3.org/2000/svg">
<g id="Actions/restore">
<path id="Icon Shape" d="M13.4043 3.00171C18.0942 3.13184 22.0135 7.05203 22.1435 11.7419C22.2835 16.8319 18.1935 21.0017 13.1435 21.0017C11.0638 21.0016 9.14386 20.2921 7.62401 19.1023C7.1541 18.7324 7.1242 18.0323 7.54393 17.6023C7.90393 17.2423 8.46424 17.2122 8.86424 17.5222C10.0441 18.452 11.5339 19.0016 13.1435 19.0017C17.0435 19.0017 20.1934 15.812 20.1435 11.9021C20.0935 8.18213 16.9641 5.05176 13.2441 5.00171C9.32418 4.95171 6.14363 8.10178 6.14354 12.0017H7.94432C8.38413 12.002 8.61386 12.5424 8.29393 12.8523L5.50389 15.6521C5.30391 15.8519 4.99387 15.852 4.79393 15.6521L2.00389 12.8523C1.68389 12.5423 1.90448 12.0017 2.35448 12.0017H4.14354C4.14363 6.94178 8.31434 2.86171 13.4043 3.00171ZM12.8935 8.00171C13.3135 8.00171 13.6435 8.34194 13.6435 8.74194V12.1423L16.5244 13.8523C16.874 14.0624 16.9939 14.5218 16.7842 14.8816C16.5742 15.2316 16.1139 15.3522 15.7539 15.1423L12.6338 13.2917C12.3339 13.1117 12.1435 12.7813 12.1435 12.4314V8.75171C12.1436 8.34194 12.4838 8.00197 12.8935 8.00171Z" fill="#2F455C"/>
</g>
</svg>
