<svg width="24" height="24" viewBox="0 0 24 24" fill="none" xmlns="http://www.w3.org/2000/svg">
<g id="Actions/flight-takeoff">
<path id="Icon Shape" d="M20.3859 18.6549C20.9358 18.655 21.3859 19.105 21.3859 19.6549C21.3859 20.2048 20.9359 20.6548 20.3859 20.6549H3.38594C2.83594 20.6549 2.38594 20.2049 2.38594 19.6549C2.38596 19.1049 2.83595 18.6549 3.38594 18.6549H20.3859ZM7.32539 3.38538C7.68539 3.28538 8.0759 3.37538 8.3459 3.63538L14.8059 9.65491L20.1154 8.23499C20.9153 8.02503 21.7351 8.49485 21.9553 9.29456C22.1653 10.0945 21.6859 10.9154 20.8859 11.1354L5.06563 15.3746C4.63564 15.4846 4.1755 15.2949 3.94551 14.9049L2.06563 11.6549C1.89579 11.375 2.04575 11.0056 2.36543 10.9254L2.69551 10.8346C3.00548 10.7546 3.32541 10.8253 3.57539 11.0153L5.14571 12.2545L10.1154 10.9254L6.67598 4.96448C6.3263 4.35465 6.6458 3.57557 7.32539 3.38538Z" fill="#2F455C"/>
</g>
</svg>
