<svg width="24" height="24" viewBox="0 0 24 24" fill="none" xmlns="http://www.w3.org/2000/svg">
<g id="Actions/open-with">
<path id="Icon Shape" d="M13.4998 15.0005C13.7796 15.0007 13.9998 15.2206 13.9998 15.5005V18.0005H15.7996C16.2394 18.0007 16.4592 18.5402 16.1492 18.8501L12.3592 22.6401C12.1592 22.84 11.8492 22.8401 11.6492 22.6401L7.85918 18.8501C7.53929 18.5401 7.7598 18.0005 8.20976 18.0005H9.9998V15.5005C9.9998 15.2205 10.2198 15.0005 10.4998 15.0005H13.4998ZM5.14922 7.85986C5.45922 7.5399 5.9998 7.76046 5.9998 8.21045V10.0005H8.4998C8.77959 10.0007 8.9998 10.2206 8.9998 10.5005V13.5005C8.99958 13.7801 8.77945 14.0003 8.4998 14.0005H5.9998V15.7905C5.99943 16.2402 5.45911 16.4598 5.14922 16.1499L1.35918 12.3599C1.15937 12.1599 1.15925 11.8498 1.35918 11.6499L5.14922 7.85986ZM17.9998 8.21045C17.9998 7.76054 18.5392 7.54014 18.8592 7.85986L22.6492 11.6499C22.8392 11.8399 22.8394 12.1601 22.6395 12.3501L18.8494 16.1401C18.5395 16.46 18.0002 16.2402 17.9998 15.7905V14.0005H15.4998C15.2199 14.0005 15 13.7803 14.9998 13.5005V10.5005C14.9998 10.2205 15.2198 10.0005 15.4998 10.0005H17.9998V8.21045ZM11.6395 1.35986C11.8394 1.16003 12.1495 1.15998 12.3494 1.35986L16.1395 5.1499C16.4593 5.45979 16.2395 6.00011 15.7898 6.00049H13.9998V8.50049C13.9996 8.78014 13.7794 9.00026 13.4998 9.00049H10.4998C10.2199 9.00049 10 8.78028 9.9998 8.50049V6.00049H8.20976C7.75976 6.00049 7.53941 5.4599 7.84941 5.1499L11.6395 1.35986Z" fill="#2F455C"/>
</g>
</svg>
