<svg width="24" height="24" viewBox="0 0 24 24" fill="none" xmlns="http://www.w3.org/2000/svg">
<g id="Actions/pets">
<path id="Icon Shape" d="M12 9.9978C12.26 9.9978 12.5303 9.99784 12.7803 10.0378C12.8902 10.0578 13.0004 10.0877 13.1104 10.1277C13.8102 10.3677 14.4004 10.9081 14.8604 11.448C15.7402 12.4679 16.4699 13.3382 17.3398 14.3582C18.6498 15.6681 20.2602 17.118 19.9502 19.158C19.6602 20.1679 18.9301 21.1883 17.6201 21.4783C16.8901 21.6183 14.5601 21.0379 12.0801 21.0378H11.9004C9.42088 21.0378 7.09084 21.628 6.36035 21.4783C5.05044 21.1883 4.32032 20.1779 4.03027 19.158C3.73027 17.128 5.34039 15.6779 6.65039 14.3679C7.53033 13.348 8.25993 12.4777 9.12988 11.4578C9.59988 10.9178 10.1799 10.3775 10.8799 10.1375C10.9899 10.0975 11.1 10.0676 11.21 10.0476C11.47 9.99761 11.74 9.9978 12 9.9978ZM4.5 6.4978C5.88071 6.4978 7 7.61709 7 8.9978C7 10.3785 5.88071 11.4978 4.5 11.4978C3.11929 11.4978 2 10.3785 2 8.9978C2 7.61709 3.11929 6.4978 4.5 6.4978ZM19.5 6.4978C20.8807 6.4978 22 7.61709 22 8.9978C22 10.3785 20.8807 11.4978 19.5 11.4978C18.1193 11.4978 17 10.3785 17 8.9978C17 7.61709 18.1193 6.4978 19.5 6.4978ZM9 2.4978C10.3807 2.4978 11.5 3.61709 11.5 4.9978C11.5 6.37851 10.3807 7.4978 9 7.4978C7.61929 7.4978 6.5 6.37851 6.5 4.9978C6.5 3.61709 7.61929 2.4978 9 2.4978ZM15 2.4978C16.3807 2.4978 17.5 3.61709 17.5 4.9978C17.5 6.37851 16.3807 7.4978 15 7.4978C13.6193 7.4978 12.5 6.37851 12.5 4.9978C12.5 3.61709 13.6193 2.4978 15 2.4978Z" fill="#2F455C"/>
</g>
</svg>
