<svg width="24" height="24" viewBox="0 0 24 24" fill="none" xmlns="http://www.w3.org/2000/svg">
<g id="Actions/account-balance">
<path id="Icon Shape" d="M20 19.371C20.8299 19.371 21.4998 20.0411 21.5 20.871C21.5 21.701 20.83 22.371 20 22.371H4C3.17 22.371 2.5 21.701 2.5 20.871C2.50017 20.0411 3.1701 19.371 4 19.371H20ZM6 10.371C6.8299 10.371 7.49983 11.0411 7.5 11.871V15.871C7.5 16.701 6.83 17.371 6 17.371C5.17 17.371 4.5 16.701 4.5 15.871V11.871C4.50017 11.0411 5.1701 10.371 6 10.371ZM12 10.371C12.8299 10.371 13.4998 11.0411 13.5 11.871V15.871C13.5 16.701 12.83 17.371 12 17.371C11.17 17.371 10.5 16.701 10.5 15.871V11.871C10.5002 11.0411 11.1701 10.371 12 10.371ZM18 10.371C18.8299 10.371 19.4998 11.0411 19.5 11.871V15.871C19.5 16.701 18.83 17.371 18 17.371C17.17 17.371 16.5 16.701 16.5 15.871V11.871C16.5002 11.0411 17.1701 10.371 18 10.371ZM11.0703 1.86121C11.6502 1.5514 12.3498 1.5514 12.9297 1.86121L20.8301 6.02136C21.2399 6.23133 21.4999 6.66112 21.5 7.12097C21.5 7.81097 20.9398 8.37097 20.2598 8.37097H3.75C3.06 8.37097 2.5 7.81097 2.5 7.12097C2.50012 6.66112 2.76007 6.23133 3.16992 6.02136L11.0703 1.86121Z" fill="#2F455C"/>
</g>
</svg>
