<svg width="24" height="24" viewBox="0 0 24 24" fill="none" xmlns="http://www.w3.org/2000/svg">
<g id="Actions/alarm">
<path id="Icon Shape" d="M11.9998 3.8905C16.9697 3.8905 20.9997 7.92057 20.9998 12.8905C20.9998 17.8605 16.9698 21.8905 11.9998 21.8905C7.02987 21.8904 2.99976 17.8604 2.99976 12.8905C2.99983 7.92065 7.02992 3.89064 11.9998 3.8905ZM11.9998 5.8905C8.13992 5.89064 4.99983 9.03065 4.99976 12.8905C4.99976 16.7504 8.13987 19.8904 11.9998 19.8905C15.8598 19.8905 18.9998 16.7505 18.9998 12.8905C18.9997 9.03057 15.8597 5.8905 11.9998 5.8905ZM11.78 7.8905C12.1799 7.89052 12.4995 8.21043 12.4998 8.61023V13.1405L15.8699 15.1405C16.2199 15.3405 16.3298 15.7905 16.1199 16.1405C15.9199 16.4804 15.4803 16.5805 15.1404 16.3807L11.49 14.1903C11.1802 14.0103 10.9999 13.6808 10.9998 13.3309V8.61023C11 8.21042 11.3206 7.8905 11.7205 7.8905H11.78ZM5.90015 2.3407C6.32006 1.99082 6.94953 2.04084 7.29956 2.47058C7.65956 2.89058 7.59968 3.52074 7.16968 3.88074L4.10034 6.44031C3.68034 6.79031 3.04995 6.74042 2.69995 6.31042C2.3401 5.89042 2.40012 5.26023 2.82007 4.90027L5.90015 2.3407ZM16.6902 2.47058C17.0502 2.0407 17.6804 1.99073 18.1003 2.3407L21.1804 4.90027C21.6004 5.26028 21.6595 5.89044 21.2996 6.31042C20.9396 6.74032 20.3104 6.79023 19.8904 6.44031L16.8201 3.88074C16.4001 3.52074 16.3402 2.89058 16.6902 2.47058Z" fill="#2F455C"/>
</g>
</svg>
