<svg width="24" height="24" viewBox="0 0 24 24" fill="none" xmlns="http://www.w3.org/2000/svg">
<g id="Actions/pageview">
<path id="Icon Shape" d="M20 4C21.1 4 22 4.9 22 6V18C22 19.1 21.1 20 20 20H4C2.9 20 2 19.1 2 18V6C2 4.9 2.9 4 4 4H20ZM12.25 7.0498C9.22006 6.56983 6.66014 9.07992 7.04004 12.0898C7.28004 13.9898 8.78016 15.5699 10.6602 15.9199C11.8501 16.1399 12.9799 15.8798 13.8799 15.2998L16.0801 17.5C16.47 17.8899 17.1098 17.89 17.5098 17.4902C17.8998 17.1002 17.8997 16.4603 17.5098 16.0703L15.3096 13.8799C15.8696 12.9899 16.1402 11.9198 15.9502 10.7598C15.6401 8.88985 14.1299 7.34979 12.25 7.0498ZM11.5 9C12.88 9 14 10.12 14 11.5C14 12.88 12.88 14 11.5 14C10.12 14 9 12.88 9 11.5C9 10.12 10.12 9 11.5 9Z" fill="#2F455C"/>
</g>
</svg>
