<svg width="24" height="24" viewBox="0 0 24 24" fill="none" xmlns="http://www.w3.org/2000/svg">
<g id="Actions/perm-media">
<path id="Icon Shape" d="M1 6C1.55 6 2 6.45 2 7V19C2 19.55 2.45 20 3 20H19C19.55 20 20 20.45 20 21C20 21.55 19.55 22 19 22H2C0.9 22 0 21.1 0 20L0.00976562 11H0V7C0 6.45 0.45 6 1 6ZM11.1699 2C11.6998 2 12.2099 2.20994 12.5898 2.58984L14 4H22C23.1 4 24 4.9 24 6V16C24 17.1 23.1 18 22 18H6C4.9 18 4 17.1 4 16L4.00977 4C4.00977 2.9 4.9 2 6 2H11.1699ZM11.9102 9.50977C11.7003 9.24999 11.3104 9.26001 11.1104 9.51953L7.59961 14.2002C7.35 14.5302 7.59013 15.0002 8 14.9902H19.9902C20.4001 14.9901 20.6398 14.5096 20.3799 14.1797L17.8896 10.9805C17.6897 10.7306 17.3104 10.7201 17.1104 10.9697L15.0098 13.5L11.9102 9.50977Z" fill="#2F455C"/>
</g>
</svg>
