<svg width="24" height="24" viewBox="0 0 24 24" fill="none" xmlns="http://www.w3.org/2000/svg">
<g id="Actions/done-outline">
<path id="Icon Shape" d="M18.3602 3.51501C19.1402 2.73511 20.4003 2.73505 21.1902 3.51501L22.5896 4.91541C23.3696 5.69541 23.3696 6.96548 22.5896 7.74548L9.83965 20.4847C9.05964 21.2647 7.78956 21.2647 7.00957 20.4847L1.40996 14.8851C0.629964 14.1051 0.629977 12.8351 1.40996 12.0551L2.81035 10.6547C3.59038 9.87503 4.86055 9.87479 5.64043 10.6547L8.43047 13.4447L18.3602 3.51501ZM20.4695 5.63513C20.0795 5.24533 19.4601 5.24522 19.0701 5.63513L8.43047 16.2748L4.93047 12.7748C4.54052 12.3848 3.92009 12.385 3.53008 12.7748C3.34295 12.9596 3.23713 13.212 3.23711 13.475C3.23711 13.738 3.34293 13.9903 3.53008 14.1752L7.73027 18.3754C8.12018 18.765 8.73976 18.765 9.12968 18.3754L20.4695 7.03552C20.8595 6.64552 20.8595 6.02513 20.4695 5.63513Z" fill="#2F455C"/>
</g>
</svg>
