<svg width="24" height="24" viewBox="0 0 24 24" fill="none" xmlns="http://www.w3.org/2000/svg">
<g id="Actions/assignment-late">
<path id="Icon Shape" d="M12 2C13.3 2 14.4003 2.84 14.8203 4H19C20.1 4 21 4.9 21 6V20C21 21.1 20.1 22 19 22H5C3.9 22 3 21.1 3 20V6C3 4.9 3.9 4 5 4H9.17969C9.59969 2.84 10.7 2 12 2ZM11 19H13V17H11V19ZM12 9C11.45 9 11 9.45 11 10V14C11 14.55 11.45 15 12 15C12.55 15 13 14.55 13 14V10C13 9.45 12.55 9 12 9ZM12 4C11.45 4 11 4.45 11 5C11 5.55 11.45 6 12 6C12.55 6 13 5.55 13 5C13 4.45 12.55 4 12 4Z" fill="#2F455C"/>
</g>
</svg>
