<svg width="24" height="24" viewBox="0 0 24 24" fill="none" xmlns="http://www.w3.org/2000/svg">
<g id="Actions/get-app">
<path id="Icon Shape" d="M18 18.5C18.55 18.5 19 18.95 19 19.5C19 20.05 18.55 20.5 18 20.5H6C5.45 20.5 5 20.05 5 19.5C5 18.95 5.45 18.5 6 18.5H18ZM14 3.5C14.55 3.5 15 3.95 15 4.5V9.5H16.5898C17.4798 9.5 17.92 10.58 17.29 11.21L12.7002 15.7998C12.3102 16.1898 11.68 16.1898 11.29 15.7998L6.7002 11.21C6.0702 10.58 6.52016 9.5 7.41016 9.5H9V4.5C9 3.95 9.45 3.5 10 3.5H14Z" fill="#2F455C"/>
</g>
</svg>
