<svg width="24" height="24" viewBox="0 0 24 24" fill="none" xmlns="http://www.w3.org/2000/svg">
<g id="Actions/reorder">
<path id="Icon Shape" d="M20 17C20.55 17 21 17.45 21 18C21 18.55 20.55 19 20 19H4C3.45 19 3 18.55 3 18C3 17.45 3.45 17 4 17H20ZM20 13C20.55 13 21 13.45 21 14C21 14.55 20.55 15 20 15H4C3.45 15 3 14.55 3 14C3 13.45 3.45 13 4 13H20ZM20 9C20.55 9 21 9.45 21 10C21 10.55 20.55 11 20 11H4C3.45 11 3 10.55 3 10C3 9.45 3.45 9 4 9H20ZM20 5C20.55 5 21 5.45 21 6C21 6.55 20.55 7 20 7H4C3.45 7 3 6.55 3 6C3 5.45 3.45 5 4 5H20Z" fill="#2F455C"/>
</g>
</svg>
