<svg width="24" height="24" viewBox="0 0 24 24" fill="none" xmlns="http://www.w3.org/2000/svg">
<g id="Actions/hourglass-empty">
<path id="Icon Shape" d="M16 2C17.1 2 18 2.9 18 4V7.17969C18 7.70956 17.79 8.21964 17.4102 8.59961L14 12L17.4199 15.4297C17.7899 15.7997 18 16.3099 18 16.8398V20C18 21.1 17.1 22 16 22H8C6.9 22 6 21.1 6 20V16.8398C6.00004 16.3099 6.21011 15.7999 6.58008 15.4199L10 12L6.58984 8.58984C6.20994 8.20986 6 7.69985 6 7.16992V4C6 2.9 6.9 2 8 2H16ZM8 16.5V19C8 19.55 8.45 20 9 20H15C15.55 20 16 19.55 16 19V16.5L12 12.5L8 16.5ZM9 4C8.45 4 8 4.45 8 5V7.5L12 11.5L16 7.5V5C16 4.45 15.55 4 15 4H9Z" fill="#2F455C"/>
</g>
</svg>
