<svg width="24" height="24" viewBox="0 0 24 24" fill="none" xmlns="http://www.w3.org/2000/svg">
<g id="Actions/dns">
<path id="Icon Shape" d="M19 13C20.1 13 21 13.9 21 15V19C21 20.1 20.1 21 19 21H5C3.9 21 3 20.1 3 19V15C3 13.9 3.9 13 5 13H19ZM7 15C5.9 15 5 15.9 5 17C5 18.1 5.9 19 7 19C8.1 19 9 18.1 9 17C9 15.9 8.1 15 7 15ZM19 3C20.1 3 21 3.9 21 5V9C21 10.1 20.1 11 19 11H5C3.9 11 3 10.1 3 9V5C3 3.9 3.9 3 5 3H19ZM7 5C5.9 5 5 5.9 5 7C5 8.1 5.9 9 7 9C8.1 9 9 8.1 9 7C9 5.9 8.1 5 7 5Z" fill="#2F455C"/>
</g>
</svg>
