<svg width="24" height="24" viewBox="0 0 24 24" fill="none" xmlns="http://www.w3.org/2000/svg">
<g id="Actions/supervised-user_circle">
<path id="Icon Shape" d="M12 2C17.52 2 22 6.48 22 12C22 17.52 17.52 22 12 22C6.48 22 2 17.52 2 12C2 6.48 6.48 2 12 2ZM15.6104 13.7598C14.1505 13.7598 11.2104 14.4699 11.21 15.8896V19.96C11.47 19.99 11.73 20 12 20C15.39 20 18.2802 17.8801 19.4502 14.9102C18.5303 14.1502 16.6804 13.7599 15.6104 13.7598ZM9.61035 12.9902C8.14036 12.9902 5.51975 13.5597 4.46973 14.6797C5.30973 17.0397 7.21035 18.8896 9.61035 19.6396V15.8896C9.61044 15.2296 9.87021 14.0798 11.5098 13.21C10.81 13.07 10.1402 12.9903 9.61035 12.9902ZM15.6104 8.33984C14.5405 8.33984 13.6699 9.19975 13.6797 10.2695C13.6797 11.3395 14.5404 12.2002 15.6104 12.2002C16.6802 12.2 17.54 11.3394 17.54 10.2695C17.5398 9.19987 16.68 8.34003 15.6104 8.33984ZM9.61035 6.75977C8.30035 6.75977 7.25 7.81012 7.25 9.12012C7.25006 10.4201 8.31039 11.4805 9.61035 11.4805C10.9102 11.4803 11.9697 10.4199 11.9697 9.12012C11.9697 7.82023 10.9102 6.75996 9.61035 6.75977Z" fill="#2F455C"/>
</g>
</svg>
