<svg width="24" height="24" viewBox="0 0 24 24" fill="none" xmlns="http://www.w3.org/2000/svg">
<g id="Actions/receipt">
<path id="Icon Shape" d="M8.63965 2.34985C8.83955 2.14995 9.1496 2.15015 9.34961 2.34985L10.1504 3.14966C10.3504 3.34966 10.6604 3.34966 10.8604 3.14966L11.6504 2.35962C11.8504 2.16004 12.1605 2.15979 12.3604 2.35962L13.1504 3.14966C13.3504 3.34966 13.6604 3.34966 13.8604 3.14966L14.6504 2.35962C14.8504 2.16004 15.1605 2.15979 15.3604 2.35962L16.1504 3.14966C16.3504 3.34966 16.6604 3.34966 16.8604 3.14966L17.6504 2.35962C17.8504 2.16004 18.1605 2.15979 18.3604 2.35962L19.1504 3.14966C19.3504 3.34966 19.6604 3.34966 19.8604 3.14966L20.6504 2.35962C20.7381 2.26241 20.8637 2.21264 20.9902 2.21021V21.8C20.8702 21.8 20.7396 21.7497 20.6396 21.6497L19.8496 20.8596C19.6496 20.66 19.3395 20.6598 19.1396 20.8596L18.3496 21.6497C18.1496 21.8497 17.8396 21.8497 17.6396 21.6497L16.8496 20.8596C16.6496 20.66 16.3395 20.6598 16.1396 20.8596L15.3496 21.6497C15.1496 21.8497 14.8396 21.8497 14.6396 21.6497L13.8496 20.8596C13.6496 20.66 13.3395 20.6598 13.1396 20.8596L12.3496 21.6497C12.1496 21.8497 11.8396 21.8497 11.6396 21.6497L10.8496 20.8596C10.6496 20.66 10.3395 20.6598 10.1396 20.8596L9.34961 21.6497C9.14961 21.8497 8.83965 21.8497 8.63965 21.6497L7.84961 20.8596C7.64961 20.66 7.33951 20.6598 7.13965 20.8596L6.34961 21.6497C6.14961 21.8497 5.83965 21.8497 5.63965 21.6497L4.84961 20.8596C4.64961 20.66 4.33951 20.6598 4.13965 20.8596L3.34961 21.6497C3.25961 21.7497 3.13 21.8 3 21.8V2.21021C3.12986 2.21021 3.25962 2.26004 3.34961 2.34985L4.13965 3.14966C4.33965 3.34966 4.64961 3.34966 4.84961 3.14966L5.63965 2.34985C5.83955 2.14995 6.1496 2.15015 6.34961 2.34985L7.13965 3.14966C7.33965 3.34966 7.64961 3.34966 7.84961 3.14966L8.63965 2.34985ZM7 15.0002C6.45 15.0002 6 15.4502 6 16.0002C6.00011 16.5502 6.45007 17.0002 7 17.0002H17C17.5499 17.0002 17.9999 16.5502 18 16.0002C18 15.4502 17.55 15.0002 17 15.0002H7ZM7 11.0002C6.45 11.0002 6 11.4502 6 12.0002C6.00011 12.5502 6.45007 13.0002 7 13.0002H17C17.5499 13.0002 17.9999 12.5502 18 12.0002C18 11.4502 17.55 11.0002 17 11.0002H7ZM7 7.00024C6.45 7.00024 6 7.45024 6 8.00024C6.00011 8.55016 6.45006 9.00024 7 9.00024H17C17.5499 9.00024 17.9999 8.55016 18 8.00024C18 7.45024 17.55 7.00024 17 7.00024H7Z" fill="#2F455C"/>
</g>
</svg>
