<svg width="24" height="24" viewBox="0 0 24 24" fill="none" xmlns="http://www.w3.org/2000/svg">
<g id="Actions/assignment-ind">
<path id="Icon Shape" d="M12 2C13.3 2 14.4003 2.84 14.8203 4H19C20.1 4 21 4.9 21 6V20C21 21.1 20.1 22 19 22H5C3.9 22 3 21.1 3 20V6C3 4.9 3.9 4 5 4H9.17969C9.59969 2.84 10.7 2 12 2ZM12 15.5C10.0001 15.5 6.00052 16.5999 6 18.5996V20H18V18.5996C17.9995 16.5999 13.9999 15.5 12 15.5ZM12 8C10.34 8 9 9.34 9 11C9 12.66 10.34 14 12 14C13.66 14 15 12.66 15 11C15 9.34 13.66 8 12 8ZM12 4C11.45 4 11 4.45 11 5C11 5.55 11.45 6 12 6C12.55 6 13 5.55 13 5C13 4.45 12.55 4 12 4Z" fill="#2F455C"/>
</g>
</svg>
