<svg width="24" height="24" viewBox="0 0 24 24" fill="none" xmlns="http://www.w3.org/2000/svg">
<g id="Actions/note-add">
<path id="Icon Shape" d="M13.1699 2C13.6998 2 14.2099 2.20994 14.5898 2.58984L19.4102 7.41992C19.7901 7.78992 20 8.3001 20 8.83008V20C20 21.1 19.1 22 18 22H5.99023C4.89023 22 4 21.1 4 20V4C4 2.9 4.9 2 6 2H13.1699ZM12 11C11.45 11 11 11.45 11 12V14H9C8.45 14 8 14.45 8 15C8 15.55 8.45 16 9 16H11V18C11 18.55 11.45 19 12 19C12.55 19 13 18.55 13 18V16H15C15.55 16 16 15.55 16 15C16 14.45 15.55 14 15 14H13V12C13 11.45 12.55 11 12 11ZM13 8C13 8.55 13.45 9 14 9H18.5L13 3.5V8Z" fill="#2F455C"/>
</g>
</svg>
