<svg width="24" height="24" viewBox="0 0 24 24" fill="none" xmlns="http://www.w3.org/2000/svg">
<g id="Actions/donut-small">
<path id="Icon Shape" d="M9.87302 2.19995C10.493 2.05998 11.083 2.54043 11.083 3.18042V20.8201C11.0829 21.46 10.493 21.9396 9.87302 21.7996C5.40304 20.7995 2.08298 16.7897 2.08298 11.9998C2.08307 7.20984 5.40308 3.19994 9.87302 2.19995ZM20.9131 12.9998C21.5429 12.9998 22.0323 13.5996 21.8925 14.2195C21.0426 17.9795 18.0929 20.9495 14.333 21.7996C13.703 21.9396 13.1133 21.46 13.1133 20.8201V14.0095C13.1135 13.4597 13.5632 13.0098 14.123 12.9998H20.9131ZM13.1133 3.18042C13.1133 2.54042 13.703 2.05995 14.333 2.19995C18.083 3.04995 21.0328 6.01026 21.8828 9.77026C22.0226 10.4001 21.543 10.9898 20.9033 10.99H14.1133C13.5633 10.99 13.1133 10.54 13.1133 9.98999V3.18042Z" fill="#2F455C"/>
</g>
</svg>
