<svg width="24" height="24" viewBox="0 0 24 24" fill="none" xmlns="http://www.w3.org/2000/svg">
<g id="Actions/thumb-down">
<path id="Icon Shape" d="M15.1581 2.30811C16.2581 2.30811 17.1581 3.20811 17.1581 4.30811V14.2983C17.158 14.8283 16.948 15.3386 16.578 15.7085L11.0487 21.2485C10.4687 21.8384 9.52835 21.8382 8.93836 21.2583C8.57839 20.8983 8.42825 20.3881 8.52821 19.8882L9.4784 15.3081H3.82801C1.67838 15.3078 0.228437 13.1082 1.07801 11.1284L4.33875 3.51807C4.64879 2.78815 5.36889 2.30811 6.16883 2.30811H15.1581ZM21.1688 2.30811C22.2686 2.30834 23.1688 3.20825 23.1688 4.30811V12.3081C23.1688 13.408 22.2686 14.3079 21.1688 14.3081C20.0688 14.3081 19.1688 13.4081 19.1688 12.3081V4.30811C19.1688 3.20811 20.0688 2.30811 21.1688 2.30811Z" fill="#2F455C"/>
</g>
</svg>
