<svg width="24" height="24" viewBox="0 0 24 24" fill="none" xmlns="http://www.w3.org/2000/svg">
<g id="Actions/perm-phone_msg">
<path id="Icon Shape" d="M6.74657 3.02295C7.76657 3.02295 8.6168 3.78346 8.7368 4.79346L9.02684 7.31299C9.09684 7.92299 8.88653 8.52361 8.45653 8.95361L6.60692 10.8032C8.0469 13.6432 10.3668 15.9531 13.1968 17.3931L15.0366 15.5532C15.4666 15.1232 16.0672 14.9129 16.6772 14.9829L19.2173 15.2729C20.2271 15.3931 20.987 16.2435 20.977 17.2534V18.9829C20.977 20.1129 20.0367 21.0529 18.9067 20.9829C10.3768 20.4528 3.54712 13.6332 3.01707 5.09326C2.94707 3.96326 3.88707 3.02295 5.01707 3.02295H6.74657ZM19.9868 3.01318C20.5368 3.01318 20.9868 3.46318 20.9868 4.01318V9.01318C20.9868 9.56318 20.5368 10.0132 19.9868 10.0132H14.9868L11.9868 13.0132V4.01318C11.9868 3.4632 12.4368 3.01321 12.9868 3.01318H19.9868Z" fill="#2F455C"/>
</g>
</svg>
