<svg width="24" height="24" viewBox="0 0 24 24" fill="none" xmlns="http://www.w3.org/2000/svg">
<g id="Actions/text-rotation_none">
<path id="Icon Shape" d="M17.1044 16.5642C17.1044 16.1142 17.6447 15.8946 17.9647 16.2146L19.7548 18.0046C19.9444 18.1947 19.9439 18.514 19.744 18.7039L17.954 20.4939C17.644 20.8139 17.1044 20.5943 17.1044 20.1443V19.3542H5.10437C4.55437 19.3542 4.10437 18.9042 4.10437 18.3542C4.10437 17.8042 4.55437 17.3542 5.10437 17.3542H17.1044V16.5642ZM11.1044 3.35425C11.5644 3.35425 11.9742 3.62468 12.1542 4.04468L16.0341 13.0144C16.304 13.6444 15.8442 14.3542 15.1542 14.3542C14.7644 14.3542 14.4146 14.1144 14.2645 13.7546L13.6044 12.1541H8.60437L7.95398 13.7546C7.80387 14.1144 7.45416 14.3542 7.06433 14.3542C6.37436 14.3542 5.90471 13.6444 6.17468 13.0144L10.0546 4.04468C10.2346 3.62468 10.6444 3.35425 11.1044 3.35425ZM9.23425 10.3542H12.9745L11.1044 5.33472L9.23425 10.3542Z" fill="#2F455C"/>
</g>
</svg>
