<svg width="24" height="24" viewBox="0 0 24 24" fill="none" xmlns="http://www.w3.org/2000/svg">
<g id="Actions/supervisor-account">
<path id="Icon Shape" d="M9 13C9.66 13 10.5001 13.1003 11.3701 13.2803C9.33014 14.4103 9 15.9 9 16.75V19H3C2.45 19 2 18.55 2 18V16.5C2 14.17 6.67 13 9 13ZM16.5 14C18.33 14 22 14.92 22 16.75V18C22 18.55 21.55 19 21 19H12C11.45 19 11 18.55 11 18V16.75C11 14.92 14.67 14 16.5 14ZM16.5 7C17.88 7 18.9902 8.12 18.9902 9.5C18.9902 10.88 17.88 12 16.5 12C15.12 12 14 10.88 14 9.5C14 8.12 15.12 7 16.5 7ZM9 5C10.66 5 11.9902 6.34 11.9902 8C11.9902 9.66 10.66 11 9 11C7.34 11 6 9.66 6 8C6 6.34 7.34 5 9 5Z" fill="#2F455C"/>
</g>
</svg>
