<svg width="24" height="24" viewBox="0 0 24 24" fill="none" xmlns="http://www.w3.org/2000/svg">
<g id="Actions/picture-in_picture">
<path id="Icon Shape" d="M21 3.01001C22.1 3.01001 23 3.91001 23 5.01001V19.01C23 20.11 22.1 20.9905 21 20.9905H3C1.9 20.9905 1 20.11 1 19.01V5.01001C1 3.91001 1.9 3.01001 3 3.01001H21ZM4 4.99048C3.45 4.99048 3 5.44048 3 5.99048V18.0198C3 18.5698 3.45 19.0198 4 19.0198H20C20.55 19.0198 21 18.5698 21 18.0198V5.99048C21 5.44048 20.55 4.99048 20 4.99048H4ZM18 7.01001C18.55 7.01001 19 7.46001 19 8.01001V12.01C19 12.56 18.55 13.01 18 13.01H12C11.45 13.01 11 12.56 11 12.01V8.01001C11 7.46001 11.45 7.01001 12 7.01001H18Z" fill="#2F455C"/>
</g>
</svg>
