<svg width="24" height="24" viewBox="0 0 24 24" fill="none" xmlns="http://www.w3.org/2000/svg">
<g id="Actions/perm-data_setting">
<path id="Icon Shape" d="M19.3526 13.2922C19.4726 13.2922 19.5829 13.3822 19.5929 13.5022L19.7823 14.8225C20.0923 14.9425 20.3729 15.1118 20.6329 15.3118L21.8722 14.8118C21.9922 14.7718 22.1227 14.8121 22.1827 14.9221L23.1827 16.6526C23.2424 16.7625 23.212 16.892 23.1222 16.9719L22.0626 17.802C22.0926 17.962 22.1026 18.1222 22.1026 18.2922C22.1026 18.4622 22.0826 18.6225 22.0626 18.7825L23.1329 19.6125C23.2226 19.6926 23.2523 19.8221 23.1925 19.9319L22.1925 21.6624C22.1225 21.7721 21.9928 21.8116 21.8829 21.7717L20.6329 21.2717C20.383 21.4716 20.0929 21.632 19.7931 21.762L19.6026 23.0823C19.5826 23.2022 19.4726 23.2922 19.3526 23.2922H17.3526C17.2227 23.2922 17.1227 23.2022 17.1026 23.0823L16.9122 21.762C16.6024 21.642 16.3225 21.4716 16.0626 21.2717L14.8223 21.7717C14.7025 21.8116 14.5728 21.7721 14.5128 21.6624L13.5128 19.9319C13.4529 19.8221 13.4827 19.6925 13.5723 19.6125L14.6329 18.7825C14.6129 18.6225 14.6026 18.4622 14.6026 18.2922C14.6026 18.1222 14.6129 17.962 14.6329 17.802L13.5723 16.9719C13.4727 16.892 13.453 16.7624 13.5128 16.6526L14.5128 14.9221C14.5827 14.8123 14.7124 14.772 14.8223 14.8118L16.0626 15.3118C16.3224 15.1119 16.6124 14.9524 16.9122 14.8225L17.1026 13.5022C17.1226 13.3822 17.2326 13.2922 17.3526 13.2922H19.3526ZM18.3526 16.7922C17.5226 16.7922 16.8526 17.4622 16.8526 18.2922C16.8527 19.1222 17.5227 19.7922 18.3526 19.7922C19.1826 19.7922 19.8526 19.1222 19.8526 18.2922C19.8526 17.4622 19.1826 16.7922 18.3526 16.7922ZM17.6524 1.0022C18.2824 0.372197 19.3624 0.822158 19.3624 1.71216V10.8625C19.0324 10.8226 18.6926 10.7922 18.3526 10.7922C14.2126 10.7922 10.8526 14.1522 10.8526 18.2922C10.8526 18.6322 10.8829 18.9623 10.9229 19.2922H1.77254C0.882707 19.2922 0.442696 18.2123 1.07235 17.5823L17.6524 1.0022Z" fill="#2F455C"/>
</g>
</svg>
