<svg width="24" height="24" viewBox="0 0 24 24" fill="none" xmlns="http://www.w3.org/2000/svg">
<g id="Actions/trending-up">
<path id="Icon Shape" d="M16.6461 7.05386L18.0861 8.49386L13.2061 13.3739L9.91609 10.0839C9.72925 9.8966 9.4756 9.79137 9.21109 9.79137C8.94657 9.79137 8.69292 9.8966 8.50609 10.0839L2.50609 16.0939C2.11609 16.4839 2.11609 17.1139 2.50609 17.5039C2.89609 17.8939 3.52609 17.8939 3.91609 17.5039L9.20609 12.2039L12.4961 15.4939C12.8861 15.8839 13.5161 15.8839 13.9061 15.4939L19.4961 9.91386L20.9361 11.3539C21.2461 11.6639 21.7861 11.4439 21.7861 11.0039V6.70386C21.7961 6.42386 21.5761 6.20386 21.2961 6.20386H17.0061C16.5561 6.20386 16.3361 6.74386 16.6461 7.05386Z" fill="#2F455C"/>
</g>
</svg>
