<svg width="24" height="24" viewBox="0 0 24 24" fill="none" xmlns="http://www.w3.org/2000/svg">
<g id="Actions/zoom-in">
<path id="Icon Shape" d="M3.52061 10.7913C3.01083 6.5614 6.56123 3.00174 10.7911 3.52173C13.5909 3.8619 15.911 6.08171 16.381 8.86157C16.721 10.8916 16.1005 12.8014 14.9005 14.2014L15.1808 14.4719H15.9708L20.2208 18.7317C20.6306 19.1416 20.6305 19.8012 20.2208 20.2112L20.211 20.2219C19.8011 20.6319 19.1406 20.6318 18.7306 20.2219L14.4708 15.9719V15.1819L14.2003 14.9016C12.8003 16.1015 10.8903 16.7211 8.86046 16.3811C6.08061 15.911 3.8606 13.5912 3.52061 10.7913ZM9.97081 5.47192C7.48081 5.47192 5.47081 7.48192 5.47081 9.97192C5.471 12.4618 7.48093 14.4719 9.97081 14.4719C12.4606 14.4719 14.4706 12.4617 14.4708 9.97192C14.4708 7.48196 12.4608 5.47198 9.97081 5.47192ZM9.97081 7.47192C10.2508 7.47198 10.4708 7.69196 10.4708 7.97192V9.47192H11.9708C12.2508 9.47198 12.4708 9.69196 12.4708 9.97192C12.4706 10.2517 12.2506 10.4719 11.9708 10.4719H10.4708V11.9719C10.4706 12.2517 10.2506 12.4719 9.97081 12.4719C9.69093 12.4719 9.47099 12.2518 9.47081 11.9719V10.4719H7.97081C7.69093 10.4719 7.47099 10.2518 7.47081 9.97192C7.47081 9.69192 7.69081 9.47192 7.97081 9.47192H9.47081V7.97192C9.47081 7.69192 9.69081 7.47192 9.97081 7.47192Z" fill="#2F455C"/>
</g>
</svg>
