<svg width="24" height="24" viewBox="0 0 24 24" fill="none" xmlns="http://www.w3.org/2000/svg">
<g id="Actions/cached">
<path id="Icon Shape" d="M18.6499 8.34961C18.8399 8.15974 19.1601 8.1604 19.3501 8.36035L22.1401 11.1504C22.4597 11.4604 22.2394 12 21.7895 12H20.0005C20.0005 16.4198 16.4202 19.9998 12.0005 20C10.9605 20 9.96023 19.7997 9.05026 19.4297C8.38026 19.1597 8.20042 18.3 8.71042 17.79C8.98042 17.5202 9.39054 17.4096 9.75046 17.5596C10.4404 17.8495 11.2105 18 12.0005 18C15.3102 17.9998 18.0005 15.3098 18.0005 12H16.2104C15.7604 12 15.5398 11.4596 15.8598 11.1396L18.6499 8.34961ZM12.0005 4C13.0402 4.00006 14.0399 4.20041 14.9497 4.57031C15.6197 4.84031 15.7995 5.69996 15.2895 6.20996C15.0197 6.47966 14.6102 6.59005 14.2505 6.44043C13.5606 6.15049 12.7903 6.00006 12.0005 6C8.69046 6 6.00046 8.69 6.00046 12H7.78952C8.23946 12 8.45968 12.5396 8.14987 12.8496L5.35983 15.6396C5.15983 15.8396 4.84987 15.8396 4.64987 15.6396L1.85983 12.8496C1.54024 12.5396 1.76055 12 2.21042 12H4.00046C4.00046 7.58 7.58046 4 12.0005 4Z" fill="#2F455C"/>
</g>
</svg>
