<svg width="24" height="24" viewBox="0 0 24 24" fill="none" xmlns="http://www.w3.org/2000/svg">
<g id="Actions/visibility-off">
<path id="Icon Shape" d="M2.70996 3.12988C3.09993 2.73991 3.73988 2.73996 4.12988 3.12988L20.4404 19.46C20.8302 19.8499 20.8302 20.4802 20.4404 20.8701C20.0505 21.26 19.4203 21.2599 19.0303 20.8701L16.3096 18.1504C14.9697 18.6703 13.5198 18.9697 12 18.9697C7 18.9697 2.73 15.8597 1 11.4697C1.76999 9.49985 3.05979 7.79972 4.67969 6.50977L2.70996 4.54004C2.31996 4.15004 2.31996 3.51988 2.70996 3.12988ZM7.49023 9.33008C7.18027 9.97002 7.00003 10.6998 7 11.4697C7 14.2297 9.24 16.4697 12 16.4697C12.7699 16.4697 13.4897 16.2897 14.1396 15.9697L12.5703 14.4004C12.3803 14.4404 12.2 14.4697 12 14.4697C10.34 14.4697 9 13.1297 9 11.4697C9.00002 11.27 9.02961 11.0802 9.05957 10.9004L7.49023 9.33008ZM12 3.96973C17 3.96973 21.27 7.07996 23 11.46C22.31 13.2199 21.2103 14.7602 19.8203 15.9902L16.7598 12.9297C16.8997 12.4697 17 11.9797 17 11.4697C16.9999 8.70982 14.7599 6.46973 12 6.46973C11.4901 6.46973 11.0002 6.57 10.5303 6.70996L8.36035 4.54004C9.51027 4.1701 10.7301 3.96973 12 3.96973Z" fill="#2F455C"/>
</g>
</svg>
