<svg width="24" height="24" viewBox="0 0 24 24" fill="none" xmlns="http://www.w3.org/2000/svg">
<g id="Actions/remove-shopping_cart">
<path id="Icon Shape" d="M1.98004 0.977539C2.24454 0.97755 2.4983 1.08327 2.68512 1.27051L22.7252 21.3203C23.1149 21.7103 23.1151 22.3405 22.7252 22.7305C22.3352 23.1203 21.705 23.1202 21.315 22.7305L19.1851 20.5996C18.8251 21.1096 18.235 21.4404 17.565 21.4404C16.4651 21.4404 15.575 20.5402 15.5748 19.4404C15.5748 18.7705 15.905 18.1803 16.4048 17.8203L15.025 16.4404H7.69489C6.63495 16.4404 5.6748 15.68 5.57477 14.6201C5.53477 14.2001 5.625 13.7997 5.815 13.4697L7.16461 11.0205L4.95465 6.36035L1.27496 2.67969C0.885236 2.28976 0.885285 1.66047 1.27496 1.27051C1.46179 1.08326 1.71552 0.977539 1.98004 0.977539ZM7.565 17.4404C8.665 17.4404 9.565 18.3404 9.565 19.4404C9.56478 20.5402 8.66487 21.4404 7.565 21.4404C6.46514 21.4404 5.57499 20.5402 5.57477 19.4404C5.57477 18.3404 6.465 17.4404 7.565 17.4404ZM7.565 14.4404H13.025L11.025 12.4404H8.66461L7.565 14.4404ZM20.565 3.44043C21.325 3.44043 21.8149 4.25993 21.4449 4.91992L17.8648 11.4102C17.6048 11.8901 17.1547 12.2399 16.6148 12.3799L7.68512 3.44043H20.565Z" fill="#2F455C"/>
</g>
</svg>
