<svg width="24" height="24" viewBox="0 0 24 24" fill="none" xmlns="http://www.w3.org/2000/svg">
<g id="Actions/speaker-notes">
<path id="Icon Shape" d="M20 2C21.1 2 22 2.9 22 4V16C22 17.1 21.1 18 20 18H6L2 22L2.00977 4C2.00977 2.9 2.9 2 4 2H20ZM6 14H8V12H6V14ZM11 12C10.45 12 10 12.45 10 13C10 13.55 10.45 14 11 14H14C14.55 14 15 13.55 15 13C15 12.45 14.55 12 14 12H11ZM6 11H8V9H6V11ZM11 9C10.45 9 10 9.45 10 10C10 10.55 10.45 11 11 11H17C17.55 11 18 10.55 18 10C18 9.45 17.55 9 17 9H11ZM6 8H8V6H6V8ZM11 6C10.45 6 10 6.45 10 7C10 7.55 10.45 8 11 8H17C17.55 8 18 7.55 18 7C18 6.45 17.55 6 17 6H11Z" fill="#2F455C"/>
</g>
</svg>
