<svg width="24" height="24" viewBox="0 0 24 24" fill="none" xmlns="http://www.w3.org/2000/svg">
<g id="Actions/flip-to_front">
<path id="Icon Shape" d="M5 21C3.89 21 3 20.1 3 19H5V21ZM9 19V21H7V19H9ZM13 21H11V19H13V21ZM17 21H15V19H17V21ZM5 17H3V15H5V17ZM19 3C20.1 3 21 3.9 21 5V15C21 16.1 20.1 17 19 17H9C7.89 17 7 16.1 7 15V5C7 3.9 7.89 3 9 3H19ZM10 5C9.45 5 9 5.45 9 6V14C9 14.55 9.45 15 10 15H18C18.55 15 19 14.55 19 14V6C19 5.45 18.55 5 18 5H10ZM5 13H3V11H5V13ZM5 9H3V7H5V9Z" fill="#2F455C"/>
</g>
</svg>
