<svg width="24" height="24" viewBox="0 0 24 24" fill="none" xmlns="http://www.w3.org/2000/svg">
<g id="Actions/label-outline">
<path id="Icon Shape" d="M15.6113 5C16.2812 5 16.8811 5.32993 17.2411 5.83984L21.2011 11.4199C21.4511 11.7699 21.4511 12.2301 21.2011 12.5801L17.2411 18.1602C16.8811 18.6701 16.2812 19 15.6113 19L4.61125 18.9902C3.51125 18.9902 2.61125 18.1 2.61125 17V7C2.61125 5.9 3.51125 5.00977 4.61125 5.00977L15.6113 5ZM5.61125 7C5.06125 7 4.61125 7.45 4.61125 8V16C4.61125 16.55 5.06125 17 5.61125 17H15.6113L19.1611 12L15.6113 7H5.61125Z" fill="#2F455C"/>
</g>
</svg>
