<svg width="24" height="24" viewBox="0 0 24 24" fill="none" xmlns="http://www.w3.org/2000/svg">
<g id="Actions/tab-unselected">
<path id="Icon Shape" d="M3 21C1.9 21 1 20.1 1 19H3V21ZM7 21H5V19H7V21ZM11 21H9V19H11V21ZM15 21H13V19H15V21ZM19 19V21H17V19H19ZM23 19C23 20.1 22.1 21 21 21V19H23ZM3 17H1V15H3V17ZM23 17H21V15H23V17ZM3 13H1V11H3V13ZM23 13H21V11H23V13ZM3 9H1V7H3V9ZM21 3C22.1 3 23 3.9 23 5V9H14C13.45 9 13 8.55 13 8V3H21ZM3 5H1C1 3.9 1.9 3 3 3V5ZM7 5H5V3H7V5ZM11 5H9V3H11V5Z" fill="#2F455C"/>
</g>
</svg>
