<svg width="24" height="24" viewBox="0 0 24 24" fill="none" xmlns="http://www.w3.org/2000/svg">
<g id="Actions/vertical-split">
<path id="Icon Shape" d="M10 17C10.55 17 11 17.45 11 18C11 18.55 10.55 19 10 19H4C3.45 19 3 18.55 3 18C3 17.45 3.45 17 4 17H10ZM20 5C20.55 5 21 5.45 21 6V18C21 18.55 20.55 19 20 19H14C13.45 19 13 18.55 13 18V6C13 5.45 13.45 5 14 5H20ZM10 13C10.55 13 11 13.45 11 14C11 14.55 10.55 15 10 15H4C3.45 15 3 14.55 3 14C3 13.45 3.45 13 4 13H10ZM10 9C10.55 9 11 9.45 11 10C11 10.55 10.55 11 10 11H4C3.45 11 3 10.55 3 10C3 9.45 3.45 9 4 9H10ZM10 5C10.55 5 11 5.45 11 6C11 6.55 10.55 7 10 7H4C3.45 7 3 6.55 3 6C3 5.45 3.45 5 4 5H10Z" fill="#2F455C"/>
</g>
</svg>
