<svg width="24" height="24" viewBox="0 0 24 24" fill="none" xmlns="http://www.w3.org/2000/svg">
<g id="Actions/settings-bluetooth">
<path id="Icon Shape" d="M9.62172 23.8218H7.62172V21.8218H9.62172V23.8218ZM13.6217 23.8218H11.6217V21.8218H13.6217V23.8218ZM17.6217 23.8218H15.6217V21.8218H17.6217V23.8218ZM12.2311 0.252441C12.601 0.102467 13.0309 0.18229 13.3209 0.472168L17.651 4.78174C17.8309 4.97163 17.9409 5.22187 17.9411 5.4917C17.9411 5.7617 17.841 6.01264 17.651 6.20264L14.0309 9.82178L17.651 13.4321C17.831 13.6221 17.941 13.8721 17.9411 14.1421C17.9411 14.4121 17.841 14.6621 17.651 14.8521L13.3317 19.1724C13.1418 19.3622 12.8816 19.4623 12.6217 19.4624C12.4917 19.4624 12.3609 19.4323 12.2409 19.3823C11.8611 19.2323 11.6218 18.8622 11.6217 18.4624V12.2319L7.76137 16.0825C7.37141 16.4723 6.74118 16.4723 6.35121 16.0825C5.96125 15.6926 5.96134 15.0624 6.35121 14.6724L11.2008 9.82178L6.35121 4.9624C5.96123 4.57242 5.96128 3.94225 6.35121 3.55225C6.74121 3.16225 7.37137 3.16225 7.76137 3.55225L11.6217 7.40186V1.17236C11.6217 0.772448 11.8612 0.402503 12.2311 0.252441ZM13.6217 16.0522L15.5309 14.1421L13.6217 12.2319V16.0522ZM13.6217 7.40186L15.5309 5.50244L13.6217 3.59229V7.40186Z" fill="#2F455C"/>
</g>
</svg>
