<svg width="24" height="24" viewBox="0 0 24 24" fill="none" xmlns="http://www.w3.org/2000/svg">
<g id="Actions/verified-user">
<path id="Icon Shape" d="M11.1904 1.26611C11.7002 1.03637 12.2998 1.03637 12.8096 1.26611L19.8096 4.37646C20.5296 4.69646 21 5.41654 21 6.20654V10.9067C20.9998 16.4566 17.1599 21.6468 12 22.9067C6.84014 21.6468 3.00021 16.4566 3 10.9067V6.20654C3 5.41654 3.47043 4.69646 4.19043 4.37646L11.1904 1.26611ZM17.29 8.1958C16.9001 7.80608 16.2698 7.80606 15.8799 8.1958L10 14.0767L8.11035 12.1958C7.72046 11.806 7.0902 11.8062 6.7002 12.1958C6.51304 12.3825 6.40733 12.6365 6.40723 12.9009C6.40723 13.1654 6.51298 13.4191 6.7002 13.606L9.29004 16.1958C9.68004 16.5858 10.3202 16.5858 10.7002 16.1958L17.29 9.60596C17.6799 9.21594 17.68 8.58574 17.29 8.1958Z" fill="#2F455C"/>
</g>
</svg>
