<svg width="24" height="24" viewBox="0 0 24 24" fill="none" xmlns="http://www.w3.org/2000/svg">
<g id="Actions/alarm-on">
<path id="Icon Shape" d="M11.9997 3.8905C16.9697 3.8905 20.9997 7.92057 20.9997 12.8905C20.9997 17.8605 16.9697 21.8905 11.9997 21.8905C7.02986 21.8904 2.99975 17.8604 2.99975 12.8905C2.99982 7.92065 7.02991 3.89064 11.9997 3.8905ZM11.9997 5.8905C8.13991 5.89064 4.99982 9.03065 4.99975 12.8905C4.99975 16.7504 8.13986 19.8904 11.9997 19.8905C15.8597 19.8905 18.9997 16.7505 18.9997 12.8905C18.9997 9.03057 15.8597 5.8905 11.9997 5.8905ZM14.9402 10.0009C15.2302 9.71086 15.7097 9.71087 15.9997 10.0009C16.2897 10.2909 16.2897 10.7704 15.9997 11.0604L11.0603 16.0009C10.7703 16.2909 10.2897 16.2909 9.99975 16.0009L7.87963 13.8807C7.58977 13.5907 7.58968 13.1101 7.87963 12.8202C8.16959 12.5303 8.65018 12.5303 8.94018 12.8202L10.5398 14.4208L14.9402 10.0009ZM5.90014 2.3407C6.32006 1.99082 6.94953 2.04084 7.29955 2.47058C7.65955 2.89058 7.59967 3.52074 7.16967 3.88074L4.10033 6.44031C3.68033 6.79031 3.04994 6.74042 2.69994 6.31042C2.34009 5.89042 2.40011 5.26023 2.82006 4.90027L5.90014 2.3407ZM16.6902 2.47058C17.0502 2.0407 17.6804 1.99073 18.1003 2.3407L21.1804 4.90027C21.6004 5.26028 21.6595 5.89044 21.2996 6.31042C20.9396 6.74032 20.3103 6.79023 19.8904 6.44031L16.8201 3.88074C16.4001 3.52074 16.3402 2.89058 16.6902 2.47058Z" fill="#2F455C"/>
</g>
</svg>
