<svg width="24" height="24" viewBox="0 0 24 24" fill="none" xmlns="http://www.w3.org/2000/svg">
<g id="Actions/assignment">
<path id="Icon Shape" d="M12 2C13.3 2 14.4003 2.84 14.8203 4H19C20.1 4 21 4.9 21 6V20C21 21.1 20.1 22 19 22H5C3.9 22 3 21.1 3 20V6C3 4.9 3.9 4 5 4H9.17969C9.59969 2.84 10.7 2 12 2ZM8 16C7.45 16 7 16.45 7 17C7 17.55 7.45 18 8 18H13C13.55 18 14 17.55 14 17C14 16.45 13.55 16 13 16H8ZM8 12C7.45 12 7 12.45 7 13C7 13.55 7.45 14 8 14H16C16.55 14 17 13.55 17 13C17 12.45 16.55 12 16 12H8ZM8 8C7.45 8 7 8.45 7 9C7 9.55 7.45 10 8 10H16C16.55 10 17 9.55 17 9C17 8.45 16.55 8 16 8H8ZM12 4C11.45 4 11 4.45 11 5C11 5.55 11.45 6 12 6C12.55 6 13 5.55 13 5C13 4.45 12.55 4 12 4Z" fill="#2F455C"/>
</g>
</svg>
