<svg width="24" height="24" viewBox="0 0 24 24" fill="none" xmlns="http://www.w3.org/2000/svg">
<g id="Actions/lock-open_filled">
<path id="Icon Shape" d="M12 1.5C14.76 1.5 17 3.74 17 6.5V8.5H18C19.1 8.5 20 9.4 20 10.5V20.5C20 21.6 19.1 22.5 18 22.5H6C4.9 22.5 4 21.6 4 20.5V10.5C4 9.4 4.9 8.5 6 8.5H15V6.5C15 4.85 13.65 3.5 12 3.5C10.63 3.5 9.43961 4.43 9.09961 5.75C8.95957 6.28994 8.40985 6.60972 7.87988 6.46973C7.33999 6.32965 7.02017 5.78994 7.16016 5.25C7.73017 3.04002 9.72001 1.5 12 1.5ZM12 13.5C10.9 13.5 10 14.4 10 15.5C10 16.6 10.9 17.5 12 17.5C13.1 17.5 14 16.6 14 15.5C14 14.4 13.1 13.5 12 13.5Z" fill="#2F455C"/>
</g>
</svg>
