<svg width="24" height="24" viewBox="0 0 24 24" fill="none" xmlns="http://www.w3.org/2000/svg">
<g id="Actions/work-outline">
<path id="Icon Shape" d="M14 2.5C15.11 2.5 16 3.39 16 4.5V6.5H20C21.11 6.5 22 7.39 22 8.5V19.5C22 20.61 21.11 21.5 20 21.5H4C2.89 21.5 2 20.61 2 19.5L2.00977 8.5C2.00977 7.39 2.89 6.5 4 6.5H8V4.5C8 3.39 8.89 2.5 10 2.5H14ZM5 8.5C4.45 8.5 4 8.95 4 9.5V18.5C4 19.05 4.45 19.5 5 19.5H19C19.55 19.5 20 19.05 20 18.5V9.5C20 8.95 19.55 8.5 19 8.5H5ZM10 4.5V6.5H14V4.5H10Z" fill="#2F455C"/>
</g>
</svg>
