<svg width="24" height="24" viewBox="0 0 24 24" fill="none" xmlns="http://www.w3.org/2000/svg">
<g id="Actions/loyalty">
<path id="Icon Shape" d="M11 2C11.55 2 12.0502 2.22008 12.4102 2.58008L21.4102 11.5801C21.7701 11.9401 22 12.4501 22 13C22 13.55 21.7802 14.0502 21.4102 14.4102L14.4102 21.4102C14.0502 21.7802 13.55 22 13 22C12.45 22 11.9498 21.7799 11.5898 21.4199L2.58984 12.4199C2.21991 12.0499 2 11.5499 2 11V4C2 2.9 2.9 2 4 2H11ZM15.5 11C14.81 11 14.1805 11.2805 13.7305 11.7305L13 12.46L12.25 11.7402C11.66 11.1302 10.7496 10.8398 9.80957 11.0898C8.93982 11.3199 8.23986 12.0499 8.0498 12.9297C7.84985 13.8395 8.14997 14.6895 8.71973 15.2695L12.6396 19.1904C12.8395 19.3903 13.1496 19.39 13.3496 19.1904L17.2695 15.2695C17.7195 14.8195 18 14.19 18 13.5C18 12.12 16.88 11 15.5 11ZM5.5 4C4.67 4 4 4.67 4 5.5C4 6.33 4.67 7 5.5 7C6.33 7 7 6.33 7 5.5C7 4.67 6.33 4 5.5 4Z" fill="#2F455C"/>
</g>
</svg>
