<svg width="24" height="24" viewBox="0 0 24 24" fill="none" xmlns="http://www.w3.org/2000/svg">
<path d="M8.63965 2.34937C8.83953 2.14949 9.1496 2.14973 9.34961 2.34937L10.1504 3.15015C10.3504 3.34971 10.6605 3.34996 10.8604 3.15015L11.6504 2.36011C11.8504 2.16011 12.1604 2.16011 12.3604 2.36011L13.1504 3.15015C13.3504 3.34971 13.6605 3.34996 13.8604 3.15015L14.6504 2.36011C14.8504 2.16011 15.1604 2.16011 15.3604 2.36011L16.1504 3.15015C16.3504 3.34971 16.6605 3.34996 16.8604 3.15015L17.6504 2.36011C17.8504 2.16011 18.1604 2.16011 18.3604 2.36011L19.1504 3.15015C19.3504 3.34971 19.6605 3.34996 19.8604 3.15015L20.6504 2.36011C20.7381 2.26262 20.8635 2.21314 20.9902 2.21069V21.7996C20.8703 21.7996 20.7396 21.7501 20.6396 21.6501L19.8496 20.8601C19.6496 20.6601 19.3396 20.6601 19.1396 20.8601L18.3496 21.6501C18.1496 21.8497 17.8395 21.85 17.6396 21.6501L16.8496 20.8601C16.6496 20.6601 16.3396 20.6601 16.1396 20.8601L15.3496 21.6501C15.1496 21.8497 14.8395 21.85 14.6396 21.6501L13.8496 20.8601C13.6496 20.6601 13.3396 20.6601 13.1396 20.8601L12.3496 21.6501C12.1496 21.8497 11.8395 21.85 11.6396 21.6501L10.8496 20.8601C10.6496 20.6601 10.3396 20.6601 10.1396 20.8601L9.34961 21.6501C9.14961 21.8497 8.83951 21.85 8.63965 21.6501L7.84961 20.8601C7.64961 20.6601 7.33965 20.6601 7.13965 20.8601L6.34961 21.6501C6.14961 21.8497 5.83951 21.85 5.63965 21.6501L4.84961 20.8601C4.64961 20.6601 4.33965 20.6601 4.13965 20.8601L3.34961 21.6501C3.25962 21.7499 3.12981 21.7996 3 21.7996V2.20972C3.12982 2.20972 3.25962 2.25959 3.34961 2.34937L4.13965 3.15015C4.33951 3.34996 4.64961 3.34971 4.84961 3.15015L5.63965 2.34937C5.83953 2.14949 6.1496 2.14973 6.34961 2.34937L7.13965 3.15015C7.33951 3.34996 7.64961 3.34971 7.84961 3.15015L8.63965 2.34937ZM12.0664 7.99976C9.69299 7.99976 8.00004 9.7829 8 11.9919C8 14.4061 9.77598 15.9998 12.1992 15.9998C13.4606 15.9997 14.6389 15.6054 15.4521 14.8796L14.6553 13.7908C14.0744 14.3429 13.1618 14.6433 12.3652 14.6433C10.8551 14.6433 9.95913 13.6806 9.82617 12.5447H16V12.1335C15.9998 9.73538 14.4729 7.99976 12.0664 7.99976ZM12.0498 9.35718C13.6266 9.35718 14.2734 10.4617 14.3232 11.3611H9.80957C9.87596 10.4459 10.5726 9.35718 12.0498 9.35718Z" fill="#2F455C"/>
</svg>
