<svg width="24" height="24" viewBox="0 0 24 24" fill="none" xmlns="http://www.w3.org/2000/svg">
<path d="M22.5996 15.0625C22.9294 15.0627 23.2115 15.2962 23.2734 15.6123L23.9609 19.0498C24.0434 19.4759 23.72 19.8748 23.2871 19.875H23.1631V23.3125C23.1631 23.6906 22.8537 23.9999 22.4756 24C22.0975 23.9999 21.7881 23.6906 21.7881 23.3125V19.875H19.6943C19.4894 19.9503 19.2691 19.9928 19.0381 19.9971V23.3125C19.0381 23.6906 18.7287 23.9999 18.3506 24H12.8506C12.4725 23.9999 12.1631 23.6906 12.1631 23.3125V19.875H12.0391C11.6061 19.8748 11.2828 19.476 11.3652 19.0498L12.0527 15.6123C12.1147 15.2962 12.3967 15.0626 12.7266 15.0625H22.5996ZM13.5381 22.625H17.6631V19.875H13.5381V22.625ZM19 4C20.11 4 21 4.89 21 6V12H3V17C3 17.55 3.50625 18 4.125 18H10V20H3C1.89 20 1 19.11 1 18L1.00977 6C1.00977 4.89 1.89 4 3 4H19ZM19.0381 19.9971C19.2673 19.9928 19.4863 19.9502 19.6904 19.875H19.0381V19.9971ZM22.4756 13C22.8537 13.0001 23.1631 13.3094 23.1631 13.6875C23.1631 14.0656 22.8537 14.3749 22.4756 14.375H12.8506C12.4725 14.3749 12.1631 14.0656 12.1631 13.6875C12.1631 13.3094 12.4725 13.0001 12.8506 13H22.4756ZM3 8H19V6H3V8Z" fill="#2F455C"/>
</svg>
