<svg width="24" height="24" viewBox="0 0 24 24" fill="none" xmlns="http://www.w3.org/2000/svg">
<g id="Actions/view-array">
<path id="Icon Shape" d="M5.5 5.5C6.05 5.5 6.5 5.95 6.5 6.5V17.5C6.5 18.05 6.05 18.5 5.5 18.5H4.5C3.95 18.5 3.5 18.05 3.5 17.5V6.5C3.5 5.95 3.95 5.5 4.5 5.5H5.5ZM15.5 5.5C16.05 5.5 16.5 5.95 16.5 6.5V17.5C16.5 18.05 16.05 18.5 15.5 18.5H8.5C7.95 18.5 7.5 18.05 7.5 17.5V6.5C7.5 5.95 7.95 5.5 8.5 5.5H15.5ZM19.5 5.5C20.05 5.5 20.5 5.95 20.5 6.5V17.5C20.5 18.05 20.05 18.5 19.5 18.5H18.5C17.95 18.5 17.5 18.05 17.5 17.5V6.5C17.5 5.95 17.95 5.5 18.5 5.5H19.5Z" fill="#2F455C"/>
</g>
</svg>
