<svg width="24" height="24" viewBox="0 0 24 24" fill="none" xmlns="http://www.w3.org/2000/svg">
<g id="Alert / warning-filled">
<path id="Icon Shape" d="M10.2704 3.49341C11.0405 2.16395 12.9604 2.16374 13.7303 3.49341L21.2596 16.5042C22.0295 17.8341 21.07 19.504 19.5302 19.5042H4.4696C2.92991 19.5039 1.97037 17.834 2.74011 16.5042L10.2704 3.49341ZM11.9999 14.5042C11.4476 14.5042 10.9999 14.9519 10.9999 15.5042C11 16.0563 11.4478 16.5041 11.9999 16.5042C12.5521 16.5042 12.9997 16.0563 12.9999 15.5042C12.9999 14.9519 12.5522 14.5042 11.9999 14.5042ZM11.9999 8.50415C11.4499 8.50422 10.9999 8.95419 10.9999 9.50415V11.5042C11 12.054 11.45 12.5041 11.9999 12.5042C12.5498 12.5042 12.9997 12.054 12.9999 11.5042V9.50415C12.9999 8.95415 12.5499 8.50415 11.9999 8.50415Z" fill="#2F455C"/>
</g>
</svg>
