<svg width="24" height="24" viewBox="0 0 24 24" fill="none" xmlns="http://www.w3.org/2000/svg">
<g id="Alert / notification-add">
<path id="Icon Shape" d="M13.9912 20.7598C13.9912 21.8598 13.101 22.75 12.001 22.75C10.9011 22.7499 10.0108 21.8597 10.0108 20.7598H13.9912ZM12.001 1.25C12.831 1.25 13.501 1.92 13.501 2.75V3.91992C16.641 4.59992 19.001 7.4 19.001 10.75V16.75L20.291 18.04C20.921 18.67 20.4711 19.75 19.5811 19.75H4.41115C3.52128 19.7499 3.08121 18.67 3.71095 18.04L5.00099 16.75V10.75C5.00099 7.40008 7.3611 4.6 10.501 3.91992V2.75C10.501 1.92008 11.1711 1.25013 12.001 1.25ZM12.001 7.75C11.4511 7.75013 11.001 8.20008 11.001 8.75V10.75H9.00099C8.4511 10.7501 8.00099 11.2001 8.00099 11.75V11.7598C8.00099 12.3097 8.4511 12.7596 9.00099 12.7598H11.001V14.7598C11.001 15.3097 11.4511 15.7596 12.001 15.7598C12.551 15.7598 13.001 15.3098 13.001 14.7598V12.7598H15.001C15.551 12.7598 16.001 12.3098 16.001 11.7598V11.75C16.001 11.2 15.551 10.75 15.001 10.75H13.001V8.75C13.001 8.2 12.551 7.75 12.001 7.75Z" fill="#2F455C"/>
</g>
</svg>
