<svg width="24" height="24" viewBox="0 0 24 24" fill="none" xmlns="http://www.w3.org/2000/svg">
<g id="Alerts/check-circle_outline">
<path id="Icon Shape" d="M12 2C17.52 2 22 6.48 22 12C22 17.52 17.52 22 12 22C6.48 22 2 17.52 2 12C2 6.48 6.48 2 12 2ZM12 4C7.59 4 4 7.59 4 12C4 16.41 7.59 20 12 20C16.41 20 20 16.41 20 12C20 7.59 16.41 4 12 4ZM15.8799 8.29004C16.2699 7.90006 16.9098 7.90012 17.2998 8.29004C17.6898 8.68004 17.6898 9.3102 17.2998 9.7002L10.71 16.29C10.32 16.68 9.68979 16.68 9.2998 16.29L6.70996 13.7002C6.31997 13.3102 6.32 12.68 6.70996 12.29C6.89679 12.1028 7.15052 11.9971 7.41504 11.9971C7.67954 11.9971 7.93329 12.1028 8.12012 12.29L10 14.1699L15.8799 8.29004Z" fill="#2F455C"/>
</g>
</svg>
