<svg width="24" height="24" viewBox="0 0 24 24" fill="none" xmlns="http://www.w3.org/2000/svg">
<g id="Alerts/check-circle">
<path id="Icon Shape" d="M12 2C17.52 2 22 6.48 22 12C22 17.52 17.52 22 12 22C6.48 22 2 17.52 2 12C2 6.48 6.48 2 12 2ZM17.7021 8.29297C17.3122 7.90297 16.683 7.90298 16.293 8.29297L10.7021 13.8828L8.20215 11.3926C7.8122 11.0027 7.18295 11.0028 6.79297 11.3926C6.60572 11.5794 6.5 11.8331 6.5 12.0977C6.50006 12.3621 6.60577 12.616 6.79297 12.8027L9.99219 16.0029C10.3821 16.3927 11.0223 16.3926 11.4023 16.0029L17.7021 9.70215C18.0921 9.31217 18.0921 8.68297 17.7021 8.29297Z" fill="#2F455C"/>
</g>
</svg>
