<svg width="24" height="24" viewBox="0 0 24 24" fill="none" xmlns="http://www.w3.org/2000/svg">
<g id="Alert / warning-amber">
<path id="Icon Shape" d="M10.2704 3.49341C11.0405 2.16395 12.9604 2.16374 13.7303 3.49341L21.2596 16.5042C22.0295 17.8341 21.07 19.504 19.5302 19.5042H4.46961C2.92991 19.5039 1.97038 17.834 2.74011 16.5042L10.2704 3.49341ZM4.46961 17.5042H19.5302L11.9999 4.49341L4.46961 17.5042ZM11.9999 14.5042C12.5522 14.5042 12.9999 14.9519 12.9999 15.5042C12.9997 16.0563 12.5521 16.5042 11.9999 16.5042C11.4478 16.5041 11 16.0563 10.9999 15.5042C10.9999 14.9519 11.4476 14.5042 11.9999 14.5042ZM11.9999 8.50415C12.5499 8.50415 12.9999 8.95415 12.9999 9.50415V11.5042C12.9997 12.054 12.5498 12.5042 11.9999 12.5042C11.45 12.5041 11 12.054 10.9999 11.5042V9.50415C10.9999 8.95419 11.4499 8.50422 11.9999 8.50415Z" fill="#2F455C"/>
</g>
</svg>
