<svg width="24" height="24" viewBox="0 0 24 24" fill="none" xmlns="http://www.w3.org/2000/svg">
<g id="Alert / notification-important">
<path id="Icon Shape" d="M13.9902 20.7598C13.9902 21.8598 13.0999 22.75 11.9999 22.75C10.9 22.7499 10.0097 21.8597 10.0097 20.7598H13.9902ZM11.9999 1.25C12.8299 1.25 13.4999 1.92 13.4999 2.75V3.91992C16.6399 4.59992 18.9999 7.4 18.9999 10.75V16.75L20.29 18.04C20.92 18.67 20.48 19.75 19.58 19.75H4.41008C3.52021 19.7499 3.08014 18.67 3.70988 18.04L4.99992 16.75V10.75C4.99992 7.40008 7.36003 4.6 10.4999 3.91992V2.75C10.4999 1.92008 11.17 1.25013 11.9999 1.25ZM11.9999 13.75C11.4478 13.7501 10.9999 14.1978 10.9999 14.75C10.9999 15.3022 11.4478 15.7499 11.9999 15.75C12.5522 15.75 12.9999 15.3023 12.9999 14.75C12.9999 14.1977 12.5522 13.75 11.9999 13.75ZM11.9999 7.75C11.45 7.75013 10.9999 8.20008 10.9999 8.75V10.75C10.9999 11.2999 11.45 11.7499 11.9999 11.75C12.5499 11.75 12.9999 11.3 12.9999 10.75V8.75C12.9999 8.2 12.5499 7.75 11.9999 7.75Z" fill="#2F455C"/>
</g>
</svg>
