<svg width="24" height="24" viewBox="0 0 24 24" fill="none" xmlns="http://www.w3.org/2000/svg">
<g id="Alert / error-slashed">
<path id="Icon Shape" d="M22.7099 21.2998L21.2998 22.71L17.6601 19.0703L16.3095 20.4199C16.1195 20.5998 15.8695 20.71 15.5996 20.71H8.96968C8.70978 20.7099 8.44964 20.6001 8.25972 20.4102L3.58003 15.7305C3.40014 15.5406 3.29012 15.2903 3.28999 15.0205V8.38965C3.2901 8.12986 3.40023 7.87033 3.58003 7.69043L4.92964 6.33984L1.28999 2.7002L2.70015 1.29004L22.7099 21.2998ZM12.29 14.4102C11.57 14.4102 10.9902 14.99 10.9902 15.71C10.9902 16.43 11.57 17.0098 12.29 17.0098C13.01 17.0098 13.5898 16.43 13.5898 15.71C13.5898 14.99 13.01 14.4102 12.29 14.4102ZM15.6103 2.70996C15.8702 2.71005 16.1303 2.82007 16.3203 3L21 7.67969C21.1799 7.8696 21.2899 8.1198 21.29 8.38965V15.0205C21.2899 15.2903 21.1898 15.5406 21 15.7305L20.4902 16.2402L13.29 9.04004V7.70996C13.29 7.16 12.84 6.70996 12.29 6.70996C11.93 6.70996 11.6201 6.9102 11.4501 7.2002L7.75972 3.50977L8.27046 3C8.45038 2.82022 8.70991 2.71005 8.96968 2.70996H15.6103Z" fill="#2F455C"/>
</g>
</svg>
