<svg width="24" height="24" viewBox="0 0 24 24" fill="none" xmlns="http://www.w3.org/2000/svg">
<g id="Alert / error-!">
<path id="Icon Shape" d="M15.325 3C15.5849 3.00009 15.845 3.10988 16.035 3.2998L20.7146 7.98047C20.8944 8.16039 21.0048 8.4199 20.9949 8.67969V15.3203C20.9948 15.5902 20.8948 15.8403 20.7049 16.0303L16.0242 20.71C15.8342 20.8898 15.5841 21 15.3143 21H8.68437C8.42448 20.9999 8.16433 20.8901 7.97441 20.7002L3.29472 16.0195C3.11485 15.8296 3.00468 15.5795 3.00468 15.3096V8.67969C3.00477 8.4199 3.11492 8.16039 3.29472 7.98047L7.98515 3.29004C8.16507 3.11024 8.42458 3.00009 8.68437 3H15.325ZM5.00468 9.09961V14.9004L9.10429 19H14.9051L19.0047 14.9004V9.09961L14.9051 5H9.10429L5.00468 9.09961ZM12.0047 15C12.557 15 13.0047 15.4477 13.0047 16C13.0047 16.5523 12.557 17 12.0047 17C11.4524 17 11.0047 16.5523 11.0047 16C11.0047 15.4477 11.4524 15 12.0047 15ZM12.0047 7C12.5547 7 13.0047 7.45 13.0047 8V13C13.0047 13.55 12.5547 14 12.0047 14C11.4547 14 11.0047 13.55 11.0047 13V8C11.0047 7.45 11.4547 7 12.0047 7Z" fill="#2F455C"/>
</g>
</svg>
