<svg width="24" height="24" viewBox="0 0 24 24" fill="none" xmlns="http://www.w3.org/2000/svg">
<g id="Alert / error-filled">
<path id="Icon Shape" d="M15.3253 3C15.5851 3.00009 15.8446 3.11024 16.0245 3.29004L20.7052 7.96973C20.8851 8.15965 20.9952 8.40981 20.9952 8.67969V15.3203C20.9952 15.5902 20.8951 15.8403 20.7052 16.0303L16.0245 20.71C15.8346 20.8898 15.5845 21 15.3146 21H8.68469C8.42479 20.9999 8.16465 20.8901 7.97473 20.7002L3.29504 16.0195C3.11517 15.8296 3.005 15.5795 3.005 15.3096V8.67969C3.00509 8.4199 3.11524 8.16039 3.29504 7.98047L7.98547 3.29004C8.16539 3.11024 8.4249 3.00009 8.68469 3H15.3253ZM12.005 14.7002C11.285 14.7002 10.7052 15.28 10.7052 16C10.7052 16.72 11.285 17.2998 12.005 17.2998C12.725 17.2998 13.3048 16.72 13.3048 16C13.3048 15.28 12.725 14.7002 12.005 14.7002ZM12.005 7C11.455 7 11.005 7.45 11.005 8V12C11.005 12.55 11.455 13 12.005 13C12.555 13 13.005 12.55 13.005 12V8C13.005 7.45 12.555 7 12.005 7Z" fill="#2F455C"/>
</g>
</svg>
