<svg width="24" height="24" viewBox="0 0 24 24" fill="none" xmlns="http://www.w3.org/2000/svg">
<g id="AV/music-video">
<path id="Icon Shape" d="M21 3C22.1 3 23 3.9 23 5V19C23 20.1 22.1 21 21 21H3C1.9 21 1 20.1 1 19V5C1 3.9 1.9 3 3 3H21ZM4 5C3.45 5 3 5.45 3 6V18C3 18.55 3.45 19 4 19H20C20.55 19 21 18.55 21 18V6C21 5.45 20.55 5 20 5H4ZM16 6C16.55 6 17 6.45 17 7C17 7.55 16.55 8 16 8H14V15.0303C13.9798 16.8501 12.34 18.29 10.4502 17.9502C9.2402 17.7402 8.24981 16.75 8.0498 15.54C7.7198 13.64 9.16 12 11 12C11.35 12 11.69 12.0697 12 12.1797V8C12 6.9 12.9 6 14 6H16Z" fill="#2F455C"/>
</g>
</svg>
