<svg width="24" height="24" viewBox="0 0 24 24" fill="none" xmlns="http://www.w3.org/2000/svg">
<g id="AV/snooze">
<path id="Icon Shape" d="M11.9997 3.89056C16.9697 3.89056 20.9997 7.92063 20.9997 12.8906C20.9997 17.8606 16.9697 21.8906 11.9997 21.8906C7.02986 21.8904 2.99975 17.8605 2.99975 12.8906C2.99982 7.92071 7.02991 3.8907 11.9997 3.89056ZM11.9997 5.89056C8.13991 5.8907 4.99982 9.03071 4.99975 12.8906C4.99975 16.7505 8.13986 19.8904 11.9997 19.8906C15.8597 19.8906 18.9997 16.7506 18.9997 12.8906C18.9997 9.03063 15.8597 5.89056 11.9997 5.89056ZM14.3298 8.89056C15.1798 8.89056 15.6396 9.89095 15.0896 10.541L11.3699 14.8906H13.9997C14.5497 14.8906 14.9997 15.3406 14.9997 15.8906C14.9997 16.4406 14.5497 16.8906 13.9997 16.8906H9.66967C8.82001 16.8903 8.36038 15.8911 8.9099 15.2411L12.6296 10.8906H9.99975C9.44986 10.8904 8.99975 10.4405 8.99975 9.89056C8.99982 9.34071 9.44991 8.8907 9.99975 8.89056H14.3298ZM5.90014 2.34076C6.32006 1.99088 6.94953 2.0409 7.29955 2.47064C7.65955 2.89064 7.59967 3.5208 7.16967 3.8808L4.10033 6.44037C3.68033 6.79037 3.04994 6.74049 2.69994 6.31049C2.34009 5.89049 2.40011 5.26029 2.82006 4.90033L5.90014 2.34076ZM16.6999 2.47064C17.0499 2.05065 17.6801 1.99076 18.1101 2.34076L21.1804 4.90033C21.6004 5.26034 21.6595 5.8905 21.2996 6.31049C20.9496 6.73038 20.3203 6.79029 19.8904 6.44037L16.8201 3.8808C16.4001 3.5208 16.3399 2.89064 16.6999 2.47064Z" fill="#2F455C"/>
</g>
</svg>
