<svg width="24" height="24" viewBox="0 0 24 24" fill="none" xmlns="http://www.w3.org/2000/svg">
<g id="AV/replay-30">
<path id="Icon Shape" d="M11.1124 2.50232C11.4225 2.18271 11.9621 2.40303 11.9621 2.85291V5.64294C16.902 5.64294 20.8016 10.1224 19.8117 15.2523C19.2017 18.3722 16.6923 20.8825 13.5724 21.4926C8.84253 22.4125 4.6623 19.1627 4.04213 14.7728C3.96213 14.1728 4.44213 13.6429 5.04213 13.6429C5.53211 13.643 5.95162 14.0126 6.02162 14.4926C6.50162 17.8026 9.68209 20.2523 13.2521 19.5023C15.5121 19.0323 17.3524 17.202 17.8224 14.932C18.642 11.0622 15.6919 7.64294 11.9621 7.64294V10.432C11.9621 10.882 11.4217 11.1024 11.1017 10.7924L7.31166 7.00232C7.112 6.80236 7.1119 6.49227 7.31166 6.29236L11.1124 2.50232ZM13.8019 12.3226C14.0217 12.3226 14.2119 12.3523 14.3917 12.4222C14.5716 12.4922 14.7218 12.6025 14.8517 12.7523C14.9817 12.9023 15.0825 13.0926 15.1525 13.3226C15.2224 13.5526 15.2619 13.8231 15.2619 14.1429V14.8822C15.2619 15.2022 15.2322 15.4825 15.1622 15.7025C15.0922 15.9225 14.9922 16.1228 14.8722 16.2728C14.7522 16.4228 14.592 16.5329 14.422 16.6029C14.2521 16.6728 14.052 16.7025 13.8322 16.7025C13.6123 16.7025 13.4222 16.6728 13.2423 16.6029C13.0625 16.533 12.9123 16.4227 12.7824 16.2728C12.6524 16.1229 12.5526 15.9324 12.4826 15.7025C12.4126 15.4725 12.3722 15.2022 12.3722 14.8822V14.1429C12.3722 13.823 12.4019 13.5426 12.4718 13.3226C12.5418 13.1026 12.6419 12.9023 12.7619 12.7523C12.8819 12.6023 13.0421 12.4922 13.2121 12.4222C13.382 12.3523 13.582 12.3226 13.8019 12.3226ZM10.0021 12.3226C10.2121 12.3226 10.412 12.3527 10.5919 12.4027C10.7718 12.4527 10.922 12.5323 11.0519 12.6322C11.1818 12.7321 11.2817 12.8623 11.3517 13.0121C11.4217 13.1621 11.462 13.3424 11.4621 13.5424C11.4621 13.6324 11.452 13.7229 11.422 13.8129C11.392 13.9027 11.352 13.983 11.2921 14.0629C11.2322 14.1428 11.1719 14.2127 11.0919 14.2826C11.012 14.3525 10.9216 14.4025 10.8117 14.4525C11.0515 14.5424 11.2317 14.6624 11.3517 14.8422C11.4717 15.0222 11.5324 15.2225 11.5324 15.4525C11.5324 15.6525 11.4922 15.8328 11.4122 15.9828C11.3323 16.1327 11.2319 16.2725 11.0919 16.3724C10.952 16.4724 10.8023 16.5627 10.6124 16.6127C10.4224 16.6627 10.2319 16.6927 10.0119 16.6927C9.83208 16.6927 9.65236 16.6723 9.48256 16.6224C9.31256 16.5724 9.15162 16.5029 9.02162 16.3929C8.89164 16.283 8.77251 16.1621 8.69252 16.0121C8.61257 15.8621 8.5724 15.6722 8.5724 15.4623H9.42201C9.42201 15.5421 9.44194 15.6122 9.47182 15.682C9.50181 15.752 9.54171 15.8029 9.6017 15.8529C9.66164 15.9029 9.72201 15.9423 9.8019 15.9623C9.88184 15.9823 9.96197 16.0023 10.0519 16.0023C10.1519 16.0023 10.2424 15.9923 10.3224 15.9623C10.4022 15.9323 10.4717 15.8921 10.5216 15.8422C10.5716 15.7922 10.6225 15.7325 10.6525 15.6625C10.6824 15.5925 10.6925 15.5122 10.6925 15.4222C10.6925 15.3123 10.6717 15.2121 10.6417 15.1322C10.6117 15.0524 10.562 14.9819 10.5021 14.932C10.4422 14.8822 10.3721 14.8426 10.2824 14.8226C10.1924 14.8026 10.1022 14.7826 9.99232 14.7826H9.52162V14.1322H9.97182C10.1818 14.1322 10.3423 14.082 10.4523 13.972C10.5621 13.8621 10.6124 13.7222 10.6124 13.5424C10.6124 13.4625 10.6023 13.3925 10.5724 13.3226C10.5424 13.2527 10.512 13.2027 10.4621 13.1527C10.4121 13.1028 10.3523 13.0624 10.2824 13.0424C10.2124 13.0224 10.1223 13.0024 10.0324 13.0023C9.95236 13.0023 9.88166 13.0126 9.81166 13.0326C9.74188 13.0526 9.68186 13.0824 9.63197 13.1322C9.58197 13.1822 9.54186 13.2226 9.51186 13.2826C9.4819 13.3426 9.46205 13.4129 9.46205 13.4828H8.61244C8.61244 13.3028 8.65182 13.1423 8.72182 13.0023C8.79179 12.8624 8.8917 12.7322 9.02162 12.6322C9.1516 12.5322 9.29209 12.4527 9.46205 12.4027C9.63205 12.3527 9.81209 12.3226 10.0021 12.3226ZM13.8117 13.0121C13.7218 13.0121 13.6316 13.0329 13.5617 13.0629C13.4918 13.0929 13.4221 13.153 13.3722 13.2328C13.3223 13.3127 13.2821 13.4125 13.2521 13.5424C13.2221 13.6724 13.2121 13.8328 13.2121 14.0228V14.9926C13.2121 15.1823 13.2222 15.3421 13.2521 15.472C13.2821 15.602 13.3222 15.7124 13.3722 15.7924C13.4221 15.8722 13.4819 15.9322 13.5617 15.9623C13.6415 15.9922 13.7218 16.012 13.8117 16.0121C13.9015 16.0121 13.9917 15.9922 14.0617 15.9623C14.1317 15.9323 14.2021 15.8724 14.2521 15.7924C14.3021 15.7124 14.3425 15.602 14.3624 15.472C14.3923 15.3422 14.4025 15.1823 14.4025 14.9926V14.0228H14.4122C14.4122 13.8328 14.4022 13.6724 14.3722 13.5424C14.3422 13.4125 14.302 13.3127 14.2521 13.2328C14.2021 13.1528 14.1417 13.0929 14.0617 13.0629C13.9817 13.0329 13.9016 13.0121 13.8117 13.0121Z" fill="#2F455C"/>
</g>
</svg>
