<svg width="24" height="24" viewBox="0 0 24 24" fill="none" xmlns="http://www.w3.org/2000/svg">
<g id="AV/slow-motion_video">
<path id="Icon Shape" d="M6.41205 18.9254C6.73205 18.5954 7.23202 18.5253 7.62201 18.7653C8.38198 19.2452 9.24234 19.6151 10.1523 19.8151C10.5921 19.9052 10.8915 20.3251 10.8915 20.775C10.8915 21.405 10.3016 21.8945 9.68159 21.7545C8.56185 21.4945 7.51225 21.0546 6.56244 20.4547C6.02252 20.1148 5.95228 19.3654 6.41205 18.9254ZM12.9423 3.24475C12.9425 2.60486 13.5421 2.11528 14.1621 2.26526C18.5919 3.29526 21.8913 7.27475 21.8915 12.0045C21.8915 16.7345 18.592 20.7147 14.1621 21.7448C13.5421 21.8947 12.9425 21.4051 12.9423 20.7653C12.9423 20.3053 13.2523 19.9046 13.6923 19.7946C17.2421 18.9744 19.8915 15.7944 19.8915 12.0045C19.8913 8.21486 17.242 5.03557 13.6923 4.21545C13.2523 4.11545 12.9423 3.70475 12.9423 3.24475ZM3.12201 13.0045C3.58186 13.0045 3.9918 13.3048 4.08198 13.7545C4.28196 14.6744 4.64186 15.5248 5.13178 16.2848C5.38171 16.6647 5.30213 17.1747 4.98237 17.4948C4.53237 17.9448 3.77159 17.8746 3.43159 17.3346C2.83181 16.3848 2.39175 15.3351 2.13178 14.2155C1.99178 13.5955 2.48202 13.0045 3.12201 13.0045ZM9.89155 8.50452C9.89189 8.09479 10.3624 7.85519 10.6923 8.1051L15.3622 11.6051C15.632 11.8051 15.632 12.2049 15.3622 12.4049L10.6923 15.9049C10.3623 16.1549 9.89155 15.9145 9.89155 15.5045V8.50452ZM3.44233 6.67542C3.78233 6.13542 4.53213 6.06526 4.99213 6.51526C5.31196 6.83527 5.39173 7.34507 5.13178 7.73499C4.65182 8.49496 4.28197 9.35531 4.08198 10.2653C3.99185 10.7051 3.57192 11.0045 3.12201 11.0045C2.48202 11.0045 2.00155 10.4146 2.14155 9.79456C2.40154 8.67473 2.84244 7.61529 3.44233 6.67542ZM9.68159 2.24475C10.3016 2.10475 10.8915 2.59499 10.8915 3.23499C10.8915 3.69487 10.5921 4.10459 10.1523 4.20471C9.23244 4.40468 8.38215 4.76464 7.61225 5.25452C7.23238 5.49444 6.72231 5.41507 6.40229 5.09534C5.95229 4.64534 6.03244 3.88456 6.56244 3.54456C7.50222 2.94478 8.56191 2.50472 9.68159 2.24475Z" fill="#2F455C"/>
</g>
</svg>
