<svg width="24" height="24" viewBox="0 0 24 24" fill="none" xmlns="http://www.w3.org/2000/svg">
<g id="AV/subtitles">
<path id="Icon Shape" d="M20 4C21.1 4 22 4.9 22 6V18C22 19.1 21.1 20 20 20H4C2.9 20 2 19.1 2 18V6C2 4.9 2.9 4 4 4H20ZM5 16C4.45 16 4 16.45 4 17C4 17.55 4.45 18 5 18H13C13.55 18 14 17.55 14 17C14 16.45 13.55 16 13 16H5ZM17 16C16.45 16 16 16.45 16 17C16 17.55 16.45 18 17 18H19C19.55 18 20 17.55 20 17C20 16.45 19.55 16 19 16H17ZM5 12C4.45 12 4 12.45 4 13C4 13.55 4.45 14 5 14H7C7.55 14 8 13.55 8 13C8 12.45 7.55 12 7 12H5ZM11 12C10.45 12 10 12.45 10 13C10 13.55 10.45 14 11 14H19C19.55 14 20 13.55 20 13C20 12.45 19.55 12 19 12H11Z" fill="#2F455C"/>
</g>
</svg>
