<svg width="24" height="24" viewBox="0 0 24 24" fill="none" xmlns="http://www.w3.org/2000/svg">
<g id="AV/high-quality">
<path id="Icon Shape" d="M19 4C20.1 4 21 4.9 21 6V18C21 19.1 20.1 20 19 20H5C3.89 20 3 19.1 3 18V6C3 4.9 3.89 4 5 4H19ZM14 9C13.45 9 13 9.45 13 10V14C13 14.55 13.45 15 14 15H14.75V15.75C14.75 16.16 15.09 16.5 15.5 16.5C15.91 16.5 16.25 16.16 16.25 15.75V15H17C17.55 15 18 14.55 18 14V10C18 9.45 17.55 9 17 9H14ZM10.25 9C9.84 9 9.5 9.34 9.5 9.75V11.5H7.5V9.75C7.5 9.34 7.16 9 6.75 9C6.34 9 6 9.34 6 9.75V14.25C6 14.66 6.34 15 6.75 15C7.16 15 7.5 14.66 7.5 14.25V13H9.5V14.25C9.5 14.66 9.84 15 10.25 15C10.66 15 11 14.66 11 14.25V9.75C11 9.34 10.66 9 10.25 9ZM16.5 10.5V13.5H14.5V10.5H16.5Z" fill="#2F455C"/>
</g>
</svg>
