<svg width="24" height="24" viewBox="0 0 24 24" fill="none" xmlns="http://www.w3.org/2000/svg">
<g id="AV/fiber-pin">
<path id="Icon Shape" d="M20 4C21.11 4 22 4.89 22 6V18C22 19.11 21.11 20 20 20H4C2.89 20 2 19.11 2 18L2.00977 6C2.00977 4.89 2.89 4 4 4H20ZM5 9C4.45 9 4 9.45 4 10V14.25C4 14.66 4.34 15 4.75 15C5.16 15 5.5 14.66 5.5 14.25V13H7.5C8.33 13 9 12.33 9 11.5V10.5C9 9.67 8.33 9 7.5 9H5ZM11.75 9C11.34 9 11 9.34 11 9.75V14.25C11 14.66 11.34 15 11.75 15C12.16 15 12.5 14.66 12.5 14.25V9.75C12.5 9.34 12.16 9 11.75 9ZM19.3701 9C19.0301 9 18.75 9.28012 18.75 9.62012V12.5L16.5 9.34961C16.35 9.12979 16.0999 9.00003 15.8301 9C15.3701 9 15 9.37008 15 9.83008V14.3799C15 14.7198 15.2799 14.9999 15.6299 15H15.6396C15.9796 15 16.2598 14.7199 16.2598 14.3799V11.5L18.5703 14.6699C18.7203 14.8799 18.96 15 19.21 15C19.65 15 20 14.65 20 14.21V9.62012C20 9.28012 19.7199 9 19.3799 9H19.3701ZM7.5 11.5H5.5V10.5H7.5V11.5Z" fill="#2F455C"/>
</g>
</svg>
