<svg width="24" height="24" viewBox="0 0 24 24" fill="none" xmlns="http://www.w3.org/2000/svg">
<g id="AV/video-call">
<path id="Icon Shape" d="M16 6C16.55 6 17 6.45 17 7V10.5L19.29 8.2002C19.92 7.5702 21 8.02016 21 8.91016V15.0801C20.9999 15.97 19.92 16.42 19.29 15.79L17 13.5V17C17 17.55 16.55 18 16 18H4C3.45 18 3 17.55 3 17V7C3 6.45 3.45 6 4 6H16ZM10 8C9.45 8 9 8.45 9 9V11H7C6.45 11 6 11.45 6 12C6 12.55 6.45 13 7 13H9V15C9 15.55 9.45 16 10 16C10.55 16 11 15.55 11 15V13H13C13.55 13 14 12.55 14 12C14 11.45 13.55 11 13 11H11V9C11 8.45 10.55 8 10 8Z" fill="#2F455C"/>
</g>
</svg>
