<svg width="24" height="24" viewBox="0 0 24 24" fill="none" xmlns="http://www.w3.org/2000/svg">
<g id="AV/play-circle_outline">
<path id="Icon Shape" d="M12 2C17.52 2 22 6.48 22 12C22 17.52 17.52 22 12 22C6.48 22 2 17.52 2 12C2 6.48 6.48 2 12 2ZM12 4C7.59 4 4 7.59 4 12C4 16.41 7.59 20 12 20C16.41 20 20 16.41 20 12C20 7.59 16.41 4 12 4ZM10 8.5C10 8.09013 10.4698 7.85 10.7998 8.09961L15.4697 11.5996C15.7397 11.7996 15.7397 12.2004 15.4697 12.4004L10.7998 15.9004C10.4698 16.15 10 15.9099 10 15.5V8.5Z" fill="#2F455C"/>
</g>
</svg>
