<svg width="24" height="24" viewBox="0 0 24 24" fill="none" xmlns="http://www.w3.org/2000/svg">
<g id="AV/library-music24px">
<path id="Icon Shape" d="M3 6C3.55 6 4 6.45 4 7V19C4 19.55 4.45 20 5 20H17C17.55 20 18 20.45 18 21C18 21.55 17.55 22 17 22H4C2.9 22 2 21.1 2 20V7C2 6.45 2.45 6 3 6ZM20 2C21.1 2 22 2.9 22 4V16C22 17.1 21.1 18 20 18H8C6.9 18 6 17.1 6 16V4C6 2.9 6.9 2 8 2H20ZM15 5C14.45 5 14 5.45 14 6V10.5098C13.54 10.1598 12.9698 9.96 12.3398 10C11.2201 10.0701 10.2402 10.9198 10.04 12.0195C9.73005 13.7195 11.1499 15.1996 12.8398 14.9697C14.0998 14.8097 14.9999 13.6401 15 12.3701V7H17C17.55 7 18 6.55 18 6C18 5.45 17.55 5 17 5H15Z" fill="#2F455C"/>
</g>
</svg>
