<svg width="24" height="24" viewBox="0 0 24 24" fill="none" xmlns="http://www.w3.org/2000/svg">
<g id="AV/videocam-off">
<path id="Icon Shape" d="M3.70629 2.83752C3.97079 2.83754 4.22455 2.94325 4.41137 3.13049L20.7317 19.4596C21.1216 19.8495 21.1213 20.4797 20.7317 20.8698C20.3417 21.2597 19.7115 21.2597 19.3215 20.8698L16.8411 18.3903C16.6811 18.4902 16.5011 18.5699 16.2913 18.5699H4.29125C3.74125 18.5699 3.29125 18.1199 3.29125 17.5699V7.56995C3.29129 7.01998 3.74127 6.56995 4.29125 6.56995H5.02172L3.00121 4.53967C2.61149 4.14974 2.61153 3.52045 3.00121 3.13049C3.18804 2.94324 3.44177 2.83752 3.70629 2.83752ZM16.2913 6.56995C16.8412 6.56995 17.2912 7.01998 17.2913 7.56995V11.0699L19.5813 8.77014C20.2113 8.14014 21.2913 8.5901 21.2913 9.4801V14.7701C21.2911 15.6601 20.211 16.1101 19.5911 15.4801L10.6809 6.56995H16.2913Z" fill="#2F455C"/>
</g>
</svg>
