<svg width="24" height="24" viewBox="0 0 24 24" fill="none" xmlns="http://www.w3.org/2000/svg">
<g id="AV/queue-play_next">
<path id="Icon Shape" d="M18.4588 13.7213C18.8688 13.3113 19.5488 13.3113 19.9588 13.7213L22.9988 16.7613C23.3887 17.1513 23.3887 17.7912 22.9988 18.1812L19.9588 21.2213C19.5488 21.6313 18.8688 21.6313 18.4588 21.2213C18.0488 20.8113 18.0488 20.1313 18.4588 19.7213L20.7088 17.4713L18.4588 15.2213C18.0488 14.8113 18.0488 14.1313 18.4588 13.7213ZM20.7088 2.47125C21.8088 2.47125 22.7088 3.37125 22.7088 4.47125V11.4713C22.7088 12.0213 22.2588 12.4713 21.7088 12.4713C21.1588 12.4713 20.7088 12.0213 20.7088 11.4713V5.47125C20.7088 4.92125 20.2588 4.47125 19.7088 4.47125H3.70876C3.15876 4.47125 2.70876 4.92125 2.70876 5.47125V15.4713C2.70876 16.0213 3.15876 16.4713 3.70876 16.4713H16.7088C17.2588 16.4713 17.7088 16.9213 17.7088 17.4713C17.7088 18.0213 17.2588 18.4713 16.7088 18.4713H15.7088V19.4713C15.7088 20.0213 15.2588 20.4713 14.7088 20.4713H8.70876C8.15876 20.4713 7.70876 20.0213 7.70876 19.4713V18.4713H2.70876C1.60876 18.4713 0.708755 17.5713 0.708755 16.4713V4.47125C0.708755 3.37125 1.60876 2.47125 2.70876 2.47125H20.7088ZM11.7088 6.47125C12.2588 6.47125 12.7088 6.92125 12.7088 7.47125V9.47125H14.7088C15.2588 9.47125 15.7088 9.92125 15.7088 10.4713C15.7088 11.0213 15.2588 11.4713 14.7088 11.4713H12.7088V13.4713C12.7088 14.0213 12.2588 14.4713 11.7088 14.4713C11.1588 14.4713 10.7088 14.0213 10.7088 13.4713V11.4713H8.70876C8.15876 11.4713 7.70876 11.0213 7.70876 10.4713C7.70876 9.92125 8.15876 9.47125 8.70876 9.47125H10.7088V7.47125C10.7088 6.92125 11.1588 6.47125 11.7088 6.47125Z" fill="#2F455C"/>
</g>
</svg>
