<svg width="24" height="24" viewBox="0 0 24 24" fill="none" xmlns="http://www.w3.org/2000/svg">
<g id="AV/forward-5">
<path id="Icon Shape" d="M12.033 2.84912C12.033 2.40917 12.5736 2.18868 12.8836 2.49854L16.6736 6.28857C16.8735 6.48846 16.8733 6.79852 16.6736 6.99854L12.8836 10.7886C12.5736 11.1086 12.033 10.889 12.033 10.439V7.64893C8.3032 7.64915 5.35298 11.0691 6.16289 14.939C6.64289 17.199 8.30351 18.9292 10.5535 19.4692C14.2033 20.3491 17.4933 17.8791 17.9734 14.5093C18.0434 14.0194 18.4531 13.6491 18.9529 13.6489C19.5529 13.6489 20.0429 14.179 19.9529 14.769C19.3329 19.239 15.0133 22.5189 10.1834 21.439C7.0934 20.749 4.79316 18.3585 4.19316 15.2485C3.1935 10.1288 7.09332 5.64914 12.033 5.64893V2.84912ZM13.3738 12.3892V13.0991H11.6736L11.5633 14.019C11.5933 14.009 11.6236 13.9892 11.6736 13.9692C11.7234 13.9493 11.7732 13.9393 11.823 13.9194C11.873 13.8994 11.9437 13.8894 12.0037 13.8794C12.0635 13.8694 12.1332 13.8589 12.2029 13.8589C12.4129 13.8589 12.5937 13.8985 12.7537 13.9585C12.9135 14.0184 13.053 14.119 13.1629 14.2388C13.2729 14.3587 13.3529 14.519 13.4129 14.689C13.4729 14.8589 13.5037 15.0687 13.5037 15.2886C13.5037 15.4785 13.4729 15.6587 13.4129 15.8286C13.3529 15.9986 13.2633 16.1488 13.1434 16.2788C13.0234 16.4088 12.8732 16.5094 12.6932 16.5894C12.5133 16.6692 12.2933 16.7085 12.0535 16.7085C11.8735 16.7085 11.6932 16.6794 11.5232 16.6294C11.3533 16.5794 11.1933 16.4991 11.0633 16.3892C10.9333 16.2792 10.823 16.1585 10.743 15.9985C10.6632 15.8388 10.6231 15.6689 10.6131 15.4692H11.4529C11.473 15.6391 11.5334 15.7794 11.6434 15.8794C11.7533 15.9792 11.8934 16.0288 12.0633 16.0288C12.1633 16.0288 12.2638 16.0092 12.3338 15.9692C12.4036 15.9293 12.4635 15.8692 12.5135 15.7993C12.5635 15.7293 12.6038 15.6491 12.6238 15.5591C12.6438 15.4691 12.6531 15.3685 12.6531 15.2485C12.6531 15.1287 12.643 15.0388 12.6131 14.939C12.5831 14.839 12.5332 14.7587 12.4832 14.6987C12.4332 14.6388 12.3531 14.5793 12.2732 14.5493C12.1933 14.5193 12.0934 14.4985 11.9734 14.4985C11.9034 14.4985 11.8232 14.509 11.7732 14.519C11.7234 14.529 11.6736 14.5489 11.6238 14.5688C11.5739 14.5888 11.5436 14.6092 11.5037 14.6392C11.4637 14.6692 11.4331 14.699 11.4031 14.729L10.7332 14.5591L10.9832 12.3892H13.3738Z" fill="#2F455C"/>
</g>
</svg>
