<svg width="24" height="24" viewBox="0 0 24 24" fill="none" xmlns="http://www.w3.org/2000/svg">
<g id="AV/mic-off">
<path id="Icon Shape" d="M4.33504 3.76758C4.59947 3.76759 4.85331 3.87242 5.04012 4.05957L20.3702 19.4004C20.7598 19.7903 20.7598 20.4196 20.3702 20.8096C19.9802 21.1996 19.35 21.1996 18.96 20.8096L15.4698 17.3203C14.6899 17.7702 13.8299 18.0897 12.92 18.2197V20.5C12.92 21.05 12.47 21.5 11.92 21.5C11.37 21.5 10.92 21.05 10.92 20.5V18.2197C7.95002 17.7697 5.45031 15.4297 4.99031 12.4697C4.92046 11.9598 5.32004 11.5 5.83992 11.5C6.24991 11.5 6.60998 11.8 6.67 12.21C7.04 14.83 9.38 16.5996 11.92 16.5996C12.7299 16.5996 13.5197 16.41 14.2296 16.0801L12.5704 14.4199C11.9604 14.5499 11.2999 14.5403 10.5499 14.1104C9.51994 13.5204 8.92006 12.3901 8.92 11.2002V10.7695L3.62996 5.46973C3.24012 5.07971 3.24001 4.44952 3.62996 4.05957C3.81677 3.87244 4.07061 3.76758 4.33504 3.76758ZM18.0001 11.5C18.52 11.5 18.9195 11.9598 18.8497 12.4697C18.7397 13.1597 18.5198 13.8102 18.2198 14.4102L16.9503 13.1396C17.0502 12.8498 17.12 12.5298 17.17 12.21C17.23 11.8 17.5901 11.5 18.0001 11.5ZM11.92 2.5C13.58 2.5 14.92 3.84 14.92 5.5V11.0996L8.96004 5.15039C9.13004 3.66039 10.38 2.5 11.92 2.5Z" fill="#2F455C"/>
</g>
</svg>
