<svg width="24" height="24" viewBox="0 0 24 24" fill="none" xmlns="http://www.w3.org/2000/svg">
<g id="AV/missed-video_call">
<path id="Icon Shape" d="M16 6C16.55 6 17 6.45 17 7V10.5L19.29 8.2002C19.92 7.5702 21 8.02016 21 8.91016V15.0801C20.9999 15.97 19.92 16.42 19.29 15.79L17 13.5V17C17 17.55 16.55 18 16 18H4C3.45 18 3 17.55 3 17V7C3 6.45 3.45 6 4 6H16ZM10 13.4297L6.88965 10.3301H9.44043V9.21973H5.5C5.22009 9.21973 5.00014 9.43986 5 9.71973V13.6602H6.12012V11.1104L9.2998 14.29C9.68979 14.68 10.32 14.68 10.71 14.29L15 10L14.2197 9.20996L10 13.4297Z" fill="#2F455C"/>
</g>
</svg>
