<svg width="24" height="24" viewBox="0 0 24 24" fill="none" xmlns="http://www.w3.org/2000/svg">
<g id="AV/queue-music">
<path id="Icon Shape" d="M20.5 5.00134C21.05 5.00134 21.5 5.45134 21.5 6.00134C21.5 6.55134 21.05 7.00134 20.5 7.00134H18.5V16.0013C18.5 17.8413 16.86 19.2815 14.96 18.9515C13.75 18.7415 12.7598 17.7514 12.5498 16.5414C12.2198 14.6414 13.66 13.0013 15.5 13.0013C15.85 13.0013 16.19 13.0711 16.5 13.181V7.00134C16.5 5.90134 17.4 5.00134 18.5 5.00134H20.5ZM9 13.0013C9.55 13.0013 10 13.4513 10 14.0013C10 14.5513 9.55 15.0013 9 15.0013H3C2.45 15.0013 2 14.5513 2 14.0013C2 13.4513 2.45 13.0013 3 13.0013H9ZM13 9.00134C13.55 9.00134 14 9.45134 14 10.0013C14 10.5513 13.55 11.0013 13 11.0013H3C2.45 11.0013 2 10.5513 2 10.0013C2 9.45134 2.45 9.00134 3 9.00134H13ZM13 5.00134C13.55 5.00134 14 5.45134 14 6.00134C14 6.55134 13.55 7.00134 13 7.00134H3C2.45 7.00134 2 6.55134 2 6.00134C2 5.45134 2.45 5.00134 3 5.00134H13Z" fill="#2F455C"/>
</g>
</svg>
