<svg width="24" height="24" viewBox="0 0 24 24" fill="none" xmlns="http://www.w3.org/2000/svg">
<g id="AV/sort-by_alpha">
<path id="Icon Shape" d="M13.0243 21.35C12.8243 21.5498 12.5143 21.5499 12.3143 21.35L10.3446 19.3695H15.0048L13.0243 21.35ZM20.705 6.27966C21.5048 6.27986 21.9843 7.19005 21.5243 7.84998L15.8046 16.14H21.1347C21.5745 16.14 21.9347 16.4998 21.9149 16.9496C21.9149 17.3795 21.5648 17.7395 21.1249 17.7396H14.4052C13.6052 17.7396 13.125 16.8303 13.5848 16.1703L19.3143 7.89001H14.2245C13.7947 7.8899 13.4346 7.53003 13.4345 7.09021V7.08044C13.4345 6.64052 13.7846 6.27978 14.2245 6.27966H20.705ZM7.00477 6.2699C7.49467 6.26992 7.94484 6.5698 8.12489 7.02966L11.8544 16.5697C12.0744 17.1297 11.6643 17.7299 11.0643 17.7299C10.7146 17.7297 10.3945 17.51 10.2645 17.1703L9.55457 15.2699H4.44422L3.73426 17.1703C3.60415 17.5001 3.28431 17.7201 2.93446 17.7201C2.33462 17.7199 1.9245 17.1198 2.14442 16.5599L5.88465 7.02966C6.06472 6.56981 6.51486 6.2699 7.00477 6.2699ZM5.05457 13.64H8.93446L6.995 8.46033L5.05457 13.64ZM12.3046 2.64978C12.5045 2.44987 12.8145 2.44998 13.0145 2.64978L15.0145 4.65955H10.2948L12.3046 2.64978Z" fill="#2F455C"/>
</g>
</svg>
