<svg width="24" height="24" viewBox="0 0 24 24" fill="none" xmlns="http://www.w3.org/2000/svg">
<g id="AV/pause-circle_outline">
<path id="Icon Shape" d="M12 2C17.52 2 22 6.48 22 12C22 17.52 17.52 22 12 22C6.48 22 2 17.52 2 12C2 6.48 6.48 2 12 2ZM12 4C7.59 4 4 7.59 4 12C4 16.41 7.59 20 12 20C16.41 20 20 16.41 20 12C20 7.59 16.41 4 12 4ZM10 8C10.55 8 11 8.45 11 9V15C11 15.55 10.55 16 10 16C9.45 16 9 15.55 9 15V9C9 8.45 9.45 8 10 8ZM14 8C14.55 8 15 8.45 15 9V15C15 15.55 14.55 16 14 16C13.45 16 13 15.55 13 15V9C13 8.45 13.45 8 14 8Z" fill="#2F455C"/>
</g>
</svg>
