<svg width="24" height="24" viewBox="0 0 24 24" fill="none" xmlns="http://www.w3.org/2000/svg">
<g id="AV/volume-off">
<path id="Icon Shape" d="M3.62988 3.63495C4.02984 3.24499 4.6598 3.24507 5.0498 3.63495L20.3604 18.9553C20.75 19.3453 20.7502 19.9755 20.3604 20.3654C19.9705 20.7553 19.3402 20.7551 18.9502 20.3654L17.6104 19.0246C16.9404 19.5646 16.1896 20.0051 15.3896 20.3351C14.7297 20.6048 14 20.1449 14 19.425C14 19.035 14.2201 18.6551 14.5801 18.5051C15.16 18.2751 15.6897 17.9648 16.1797 17.5949L12 13.4152V17.5851C11.9999 18.475 10.92 18.925 10.29 18.2951L7 15.0051H4C3.45003 15.0051 3.00004 14.555 3 14.0051V10.0051C3 9.45507 3.45 9.00507 4 9.00507H7L7.29004 8.70526L3.62988 5.0451C3.2399 4.65512 3.23992 4.02495 3.62988 3.63495ZM14 4.46503C14 3.83515 14.6298 3.37499 15.2197 3.60468C18.5997 4.89468 21 8.17507 21 12.0051C21 13.395 20.6801 14.7052 20.1201 15.8752L18.5898 14.3449C18.8498 13.6149 19 12.825 19 12.0051C19 9.06519 17.1802 6.54515 14.6104 5.50507C14.2505 5.36512 14.0002 5.03526 14 4.65546V4.46503ZM14 7.97479C15.48 8.71479 16.5 10.2351 16.5 12.0051C16.5 12.085 16.4905 12.1653 16.4805 12.2453L14 9.76483V7.97479ZM10.29 5.71503C10.92 5.08503 12 5.52522 12 6.41522V7.76483L10.1201 5.88495L10.29 5.71503Z" fill="#2F455C"/>
</g>
</svg>
