<svg width="24" height="24" viewBox="0 0 24 24" fill="none" xmlns="http://www.w3.org/2000/svg">
<g id="AV/shuffle">
<path id="Icon Shape" d="M17.756 16.5498L18.9464 15.3604C19.2564 15.0404 19.796 15.26 19.796 15.71V19.5C19.796 19.78 19.576 20 19.296 20H15.506C15.0562 19.9998 14.8367 19.4603 15.1466 19.1504L16.3458 17.9502L13.2159 14.8203L14.6261 13.4102L17.756 16.5498ZM19.296 4C19.576 4 19.796 4.22 19.796 4.5V8.29004C19.796 8.73988 19.2564 8.95998 18.9464 8.65039L17.756 7.45996L5.90636 19.29C5.51636 19.68 4.88621 19.68 4.49621 19.29C4.10621 18.9 4.10621 18.2699 4.49621 17.8799L16.3361 6.04004L15.1466 4.84961C14.8367 4.53967 15.0562 4.00022 15.506 4H19.296ZM5.21105 4.40723C5.47557 4.40723 5.7293 4.51294 5.91613 4.7002L10.3859 9.16992L8.96593 10.5703L4.50597 6.11035C4.11605 5.72043 4.11621 5.09021 4.50597 4.7002C4.69276 4.51299 4.9466 4.40728 5.21105 4.40723Z" fill="#2F455C"/>
</g>
</svg>
