<svg width="24" height="24" viewBox="0 0 24 24" fill="none" xmlns="http://www.w3.org/2000/svg">
<g id="AV/fiber-smart_record">
<path id="Icon Shape" d="M9 4C13.4183 4 17 7.58172 17 12C17 16.4183 13.4183 20 9 20C4.58172 20 1 16.4183 1 12C1 7.58172 4.58172 4 9 4ZM17 5.5498C17.0001 4.86992 17.7104 4.4505 18.3203 4.73047C21.0801 5.99056 23 8.77017 23 12C23 15.2299 21.0801 18.0097 18.3203 19.2598C17.7104 19.5497 17.0003 19.1202 17 18.4404V18.2598C17.0001 17.8899 17.2304 17.5799 17.5703 17.4199C19.6002 16.4599 21 14.3899 21 12C21 9.61011 19.6002 7.54014 17.5703 6.58008C17.2305 6.42015 17.0002 6.10027 17 5.73047V5.5498Z" fill="#2F455C"/>
</g>
</svg>
