<svg width="24" height="24" viewBox="0 0 24 24" fill="none" xmlns="http://www.w3.org/2000/svg">
<g id="AV/new-releases">
<path id="Icon Shape" d="M14.6006 1.87024C15.0606 1.67024 15.5906 1.8504 15.8506 2.2804L17.291 4.71008L20.0508 5.33997C20.5307 5.45004 20.8703 5.91034 20.8203 6.41028L20.5606 9.21985L22.4209 11.34C22.7508 11.72 22.7501 12.2798 22.4102 12.6398L20.5508 14.7599L20.8106 17.5704C20.8603 18.0701 20.5307 18.5296 20.041 18.6398L17.2803 19.2697L15.8409 21.7003C15.5909 22.1301 15.0507 22.3102 14.5909 22.1105L12.001 21.0001L9.41019 22.13C8.94028 22.3298 8.41035 22.1497 8.15042 21.7198L6.71097 19.2999L3.95023 18.67C3.47042 18.5599 3.13071 18.0996 3.18069 17.5997L3.44046 14.7804L1.58109 12.6603C1.25109 12.2803 1.25109 11.72 1.58109 11.34L3.44046 9.21008L3.18069 6.41028C3.13069 5.90028 3.47097 5.44997 3.96097 5.33997L6.71097 4.71985L8.16019 2.29993C8.41011 1.87007 8.95028 1.69008 9.41019 1.88977L12.001 3.00012L14.6006 1.87024ZM11.001 17.0001H13.001V15.0001H11.001V17.0001ZM12.001 7.00012C11.451 7.00012 11.001 7.45012 11.001 8.00012V12.0001C11.0011 12.5501 11.451 13.0001 12.001 13.0001C12.5508 12.9999 13.0009 12.5499 13.001 12.0001V8.00012C13.001 7.45025 12.5508 7.00033 12.001 7.00012Z" fill="#2F455C"/>
</g>
</svg>
