<svg width="24" height="24" viewBox="0 0 24 24" fill="none" xmlns="http://www.w3.org/2000/svg">
<g id="AV/not-interested">
<path id="Icon Shape" d="M12 2C17.52 2 22 6.48 22 12C22 17.52 17.52 22 12 22C6.48 22 2 17.52 2 12C2 6.48 6.48 2 12 2ZM5.69043 7.09961C4.63043 8.44961 4 10.15 4 12C4 16.42 7.58 20 12 20C13.85 20 15.5504 19.3696 16.9004 18.3096L5.69043 7.09961ZM12 4C10.15 4 8.44961 4.63043 7.09961 5.69043L18.3096 16.9004C19.3696 15.5504 20 13.85 20 12C20 7.58 16.42 4 12 4Z" fill="#2F455C"/>
</g>
</svg>
