<svg width="24" height="24" viewBox="0 0 24 24" fill="none" xmlns="http://www.w3.org/2000/svg">
<g id="AV/control-camera">
<path id="Icon Shape" d="M12.9002 17.5803C13.3902 17.1003 14.1699 17.1003 14.6599 17.5803C15.1498 18.0703 15.1499 18.8599 14.6599 19.3499L12.7097 21.3C12.3197 21.6899 11.6895 21.69 11.2996 21.3L9.35036 19.3499C8.86036 18.8599 8.86036 18.0703 9.35036 17.5803C9.84036 17.1003 10.6201 17.1003 11.1101 17.5803L11.9998 18.4602L12.9002 17.5803ZM4.65016 9.34985C5.1401 8.86005 5.93971 8.86011 6.41969 9.34985C6.89969 9.83985 6.89968 10.6196 6.41969 11.1096L5.53981 12.0002L6.41969 12.8997C6.89969 13.3897 6.89969 14.1704 6.41969 14.6604C5.92976 15.1499 5.14006 15.15 4.65016 14.6604L2.69997 12.7102C2.30999 12.3202 2.31003 11.6901 2.69997 11.3L4.65016 9.34985ZM17.5798 9.34985C18.0598 8.85985 18.8604 8.86009 19.3504 9.34009L21.2996 11.2903C21.6896 11.6803 21.6896 12.3104 21.2996 12.7004L19.3504 14.6497C18.8604 15.1397 18.0698 15.1397 17.5798 14.6497C17.1001 14.1597 17.1 13.3798 17.5798 12.8899L18.4597 12.0002L17.5798 11.1096C17.1001 10.6196 17.1 9.83977 17.5798 9.34985ZM11.9998 9.00024C13.6566 9.00024 14.9998 10.3434 14.9998 12.0002C14.9996 13.657 13.6565 15.0002 11.9998 15.0002C10.3431 15.0001 8.99993 13.6569 8.99977 12.0002C8.99977 10.3435 10.343 9.00037 11.9998 9.00024ZM11.9949 2.40747C12.2594 2.40747 12.5131 2.51319 12.7 2.70044L14.6502 4.64966C15.1402 5.13966 15.1402 5.93017 14.6502 6.42017C14.1603 6.90004 13.3804 6.89986 12.8904 6.42017L11.9998 5.54028L11.1101 6.42017C10.6202 6.90003 9.84036 6.89987 9.35036 6.42017C8.86036 5.94017 8.86036 5.13966 9.35036 4.64966L11.2898 2.70044C11.4766 2.51321 11.7304 2.4075 11.9949 2.40747Z" fill="#2F455C"/>
</g>
</svg>
