<svg width="24" height="24" viewBox="0 0 24 24" fill="none" xmlns="http://www.w3.org/2000/svg">
<g id="AV/art-track">
<path id="Icon Shape" d="M10 7C11.1 7 12 7.9 12 9V15C12 16.1 11.1 17 10 17H4C2.9 17 2 16.1 2 15V9C2 7.9 2.9 7 4 7H10ZM21 15C21.55 15 22 15.45 22 16C22 16.55 21.55 17 21 17H15C14.45 17 14 16.55 14 16C14 15.45 14.45 15 15 15H21ZM8.63965 12.5195C8.43956 12.26 8.04973 12.25 7.83984 12.5098L6.5 14.2598L5.65039 13.2305C5.45039 12.9805 5.07012 12.9902 4.87012 13.2402L4.12988 14.1904C3.87039 14.5203 4.10995 14.9996 4.51953 15H9.5C9.90987 15 10.15 14.5302 9.90039 14.2002L8.63965 12.5195ZM21 11C21.55 11 22 11.45 22 12C22 12.55 21.55 13 21 13H15C14.45 13 14 12.55 14 12C14 11.45 14.45 11 15 11H21ZM21 7C21.55 7 22 7.45 22 8C22 8.55 21.55 9 21 9H15C14.45 9 14 8.55 14 8C14 7.45 14.45 7 15 7H21Z" fill="#2F455C"/>
</g>
</svg>
