<svg width="24" height="24" viewBox="0 0 24 24" fill="none" xmlns="http://www.w3.org/2000/svg">
<g id="AV/library-books">
<path id="Icon Shape" d="M3 6C3.55 6 4 6.45 4 7V19C4 19.55 4.45 20 5 20H17C17.55 20 18 20.45 18 21C18 21.55 17.55 22 17 22H4C2.9 22 2 21.1 2 20V7C2 6.45 2.45 6 3 6ZM20 2C21.1 2 22 2.9 22 4V16C22 17.1 21.1 18 20 18H8C6.9 18 6 17.1 6 16V4C6 2.9 6.9 2 8 2H20ZM10 13C9.45 13 9 13.45 9 14C9 14.55 9.45 15 10 15H14C14.55 15 15 14.55 15 14C15 13.45 14.55 13 14 13H10ZM10 9C9.45 9 9 9.45 9 10C9 10.55 9.45 11 10 11H18C18.55 11 19 10.55 19 10C19 9.45 18.55 9 18 9H10ZM10 5C9.45 5 9 5.45 9 6C9 6.55 9.45 7 10 7H18C18.55 7 19 6.55 19 6C19 5.45 18.55 5 18 5H10Z" fill="#2F455C"/>
</g>
</svg>
