<svg width="24" height="24" viewBox="0 0 24 24" fill="none" xmlns="http://www.w3.org/2000/svg">
<g id="AV/fiber-new">
<path id="Icon Shape" d="M20 4C21.11 4 22 4.89 22 6V18C22 19.11 21.11 20 20 20H4C2.89 20 2 19.11 2 18L2.00977 6C2.00977 4.89 2.89 4 4 4H20ZM4.29004 9C3.86004 9 3.5 9.36004 3.5 9.79004V14.3799C3.5 14.7198 3.78993 14.9999 4.12988 15C4.46988 15 4.75 14.7299 4.75 14.3799V11.5L7.07031 14.6699C7.22031 14.8799 7.46001 15 7.70996 15C8.13996 15 8.5 14.64 8.5 14.21V9.62012C8.5 9.28012 8.22988 9 7.87988 9C7.52994 9.00006 7.25 9.28016 7.25 9.62012V12.5L4.99023 9.33008C4.84023 9.12008 4.59984 9 4.33984 9H4.29004ZM19.8496 9C19.5098 9.00021 19.2305 9.27025 19.2305 9.62012V13.5H18.1104V10.6104C18.1104 10.2704 17.8301 9.99036 17.4902 9.99023C17.1502 9.99023 16.8701 10.2604 16.8701 10.6104V13.5098H15.7402V9.62012C15.7402 9.28016 15.4601 9.00006 15.1201 9C14.7801 9 14.5 9.28012 14.5 9.62012V14C14.5 14.55 14.95 15 15.5 15H19.5C20.05 15 20.5 14.55 20.5 14H20.4697V9.62012C20.4697 9.28012 20.1896 9 19.8496 9ZM10.3496 9C9.87979 9.00021 9.5 9.3802 9.5 9.83008V14.1299C9.5 14.5998 9.87979 14.9803 10.3496 14.9805H12.8799C13.2198 14.9805 13.4998 14.7102 13.5 14.3604C13.5 14.0204 13.2299 13.7402 12.8799 13.7402H11V12.6299H12.8799C13.2199 12.6299 13.5 12.3598 13.5 12.0098V12C13.5 11.66 13.2299 11.3799 12.8799 11.3799H11V10.2598H12.8799C13.2199 10.2598 13.5 9.98965 13.5 9.63965V9.62012C13.5 9.28012 13.2299 9 12.8799 9H10.3496Z" fill="#2F455C"/>
</g>
</svg>
