<svg width="24" height="24" viewBox="0 0 24 24" fill="none" xmlns="http://www.w3.org/2000/svg">
<g id="AV/surround-sound">
<path id="Icon Shape" d="M20 4C21.1 4 22 4.9 22 6V18C22 19.1 21.1 20 20 20H4C2.9 20 2 19.1 2 18V6C2 4.9 2.9 4 4 4H20ZM18.4004 7.19043C18.0304 6.71044 17.3197 6.66963 16.8896 7.09961C16.5396 7.44961 16.4998 8.01039 16.7998 8.40039C17.5997 9.47036 18 10.7301 18 12C18 13.27 17.5996 14.5404 16.8096 15.6104C16.5099 16.0003 16.5505 16.5505 16.9004 16.9004C17.3304 17.33 18.0403 17.2799 18.4102 16.79C19.4701 15.3701 20 13.6801 20 11.9902C20 10.2904 19.4702 8.60034 18.4004 7.19043ZM7.09961 7.09961C6.66957 6.67003 5.95973 6.72034 5.58984 7.2002C4.52994 8.62015 4 10.3101 4 12C4 13.6899 4.52977 15.3899 5.59961 16.7998C5.96961 17.2798 6.68035 17.3196 7.11035 16.8896C7.46003 16.5396 7.50009 15.9895 7.2002 15.5996C6.40027 14.5296 6 13.2699 6 12C6 10.73 6.4002 9.45965 7.2002 8.38965C7.48994 7.99967 7.44951 7.44951 7.09961 7.09961ZM12 8C9.79 8 8 9.79 8 12C8 14.21 9.79 16 12 16C14.21 16 16 14.21 16 12C16 9.79 14.21 8 12 8ZM12 10C13.1 10 14 10.9 14 12C14 13.1 13.1 14 12 14C10.9 14 10 13.1 10 12C10 10.9 10.9 10 12 10Z" fill="#2F455C"/>
</g>
</svg>
