<svg width="24" height="24" viewBox="0 0 24 24" fill="none" xmlns="http://www.w3.org/2000/svg">
<g id="AV/mic-none">
<path id="Icon Shape" d="M17.9091 11.5C18.5189 11.5001 19.0088 12.0399 18.9091 12.6396C18.4191 15.6396 16.0189 17.9899 12.9989 18.4199V20.5C12.9989 21.05 12.5489 21.5 11.9989 21.5C11.4489 21.5 10.9989 21.05 10.9989 20.5V18.4199C7.97895 17.9899 5.57879 15.6396 5.08879 12.6396C4.99905 12.0398 5.47898 11.5001 6.08879 11.5C6.57868 11.5 6.98913 11.8598 7.06926 12.3496C7.47926 14.6996 9.52895 16.5 11.9989 16.5C14.4689 16.5 16.5186 14.6996 16.9286 12.3496C17.0088 11.8598 17.4192 11.5 17.9091 11.5ZM11.9989 2.5C13.6589 2.50001 14.9989 3.84 14.9989 5.5V11.5C14.9989 13.16 13.6589 14.5 11.9989 14.5C10.3389 14.5 8.99895 13.16 8.99895 11.5V5.5C8.99895 3.84 10.3389 2.5 11.9989 2.5ZM11.9989 4.5C11.4489 4.5 10.9989 4.95 10.9989 5.5V11.5C10.9989 12.05 11.4489 12.5 11.9989 12.5C12.5489 12.5 12.9989 12.05 12.9989 11.5V5.5C12.9989 4.95 12.5489 4.50001 11.9989 4.5Z" fill="#2F455C"/>
</g>
</svg>
