<svg width="24" height="24" viewBox="0 0 24 24" fill="none" xmlns="http://www.w3.org/2000/svg">
<g id="AV/playlist-add">
<path id="Icon Shape" d="M17 9C17.55 9 18 9.45 18 10V13H21C21.55 13 22 13.45 22 14C22 14.55 21.55 15 21 15H18V18C18 18.55 17.55 19 17 19C16.45 19 16 18.55 16 18V15H13C12.45 15 12 14.55 12 14C12 13.45 12.45 13 13 13H16V10C16 9.45 16.45 9 17 9ZM9 13C9.55 13 10 13.45 10 14C10 14.55 9.55 15 9 15H3C2.45 15 2 14.55 2 14C2 13.45 2.45 13 3 13H9ZM13 9C13.55 9 14 9.45 14 10C14 10.55 13.55 11 13 11H3C2.45 11 2 10.55 2 10C2 9.45 2.45 9 3 9H13ZM13 5C13.55 5 14 5.45 14 6C14 6.55 13.55 7 13 7H3C2.45 7 2 6.55 2 6C2 5.45 2.45 5 3 5H13Z" fill="#2F455C"/>
</g>
</svg>
