<svg width="24" height="24" viewBox="0 0 24 24" fill="none" xmlns="http://www.w3.org/2000/svg">
<g id="AV/4k">
<path id="Icon Shape" d="M19 3C20.11 3 21 3.9 21 5V19C21 20.1 20.1 21 19 21H5C3.89 21 3 20.1 3 19V5C3 3.9 3.9 3 5 3H19ZM10.25 9C9.84 9 9.5 9.34 9.5 9.75V12H8V9.75C8 9.34 7.66 9 7.25 9C6.84 9 6.5 9.34 6.5 9.75V12.5C6.5 13.05 6.95 13.5 7.5 13.5H9.5V14.25C9.5 14.66 9.84 15 10.25 15C10.66 15 11 14.66 11 14.25V13.5098H11.25C11.66 13.5098 12 13.1698 12 12.7598V12.75C12 12.34 11.66 12 11.25 12H11V9.75C11 9.34 10.66 9 10.25 9ZM17.2695 9.11035C16.9496 8.90056 16.5101 8.97989 16.29 9.30957L14.5 11.9902V9.75C14.5 9.34 14.16 9 13.75 9C13.34 9 13 9.34 13 9.75V14.25C13 14.66 13.34 15.0002 13.75 14.9902C14.1599 14.9902 14.4999 14.6501 14.5 14.2402V12L16.29 14.6797C16.43 14.8897 16.6499 15 16.8799 15C17.0098 15 17.1496 14.9598 17.2695 14.8799C17.5995 14.6699 17.6896 14.2304 17.4697 13.9004L16.2002 12L17.4697 10.0898C17.6797 9.76984 17.5995 9.33035 17.2695 9.11035Z" fill="#2F455C"/>
</g>
</svg>
