<svg width="24" height="24" viewBox="0 0 24 24" fill="none" xmlns="http://www.w3.org/2000/svg">
<g id="AV/replay-10">
<path id="Icon Shape" d="M11.1123 2.50232C11.4223 2.18271 11.9619 2.40303 11.9619 2.85291V5.64294C16.9119 5.64294 20.8015 10.1224 19.8115 15.2523C19.2015 18.3722 16.6921 20.8825 13.5723 21.4926C8.84237 22.4125 4.66215 19.1627 4.04198 14.7728C3.96198 14.1728 4.44198 13.6429 5.04198 13.6429C5.54195 13.643 5.96147 14.0126 6.02147 14.4926C6.50147 17.8026 9.68194 20.2523 13.2519 19.5023C15.5119 19.0323 17.3523 17.202 17.8223 14.932C18.6419 11.0622 15.6917 7.64294 11.9619 7.64294V10.4427C11.9617 10.8825 11.4222 11.1021 11.1123 10.7924L7.32225 7.00232C7.12225 6.80232 7.12225 6.49236 7.32225 6.29236L11.1123 2.50232ZM13.6816 12.3226C13.9014 12.3226 14.0916 12.3524 14.2715 12.4222C14.4515 12.4922 14.6024 12.6023 14.7324 12.7523C14.8623 12.9023 14.9622 13.0927 15.0322 13.3226C15.1022 13.5526 15.1416 13.823 15.1416 14.1429V14.8822C15.1416 15.2022 15.112 15.4825 15.042 15.7025C14.972 15.9225 14.8719 16.1228 14.7519 16.2728C14.632 16.4227 14.4717 16.5329 14.3017 16.6029C14.1318 16.6728 13.9318 16.7025 13.7119 16.7025C13.492 16.7025 13.302 16.6728 13.1221 16.6029C12.9422 16.5329 12.792 16.4227 12.6621 16.2728C12.5321 16.1229 12.4323 15.9325 12.3623 15.7025C12.2923 15.4725 12.2519 15.2022 12.2519 14.8822V14.1429C12.2519 13.8231 12.2816 13.5426 12.3515 13.3226C12.4215 13.1027 12.5216 12.9023 12.6416 12.7523C12.7616 12.6023 12.9218 12.4922 13.0918 12.4222C13.2617 12.3523 13.4617 12.3227 13.6816 12.3226ZM10.8623 16.6429H10.0117V13.3822L9.00194 13.6927V13.0023L10.7715 12.3724H10.8623V16.6429ZM13.6924 13.0121C13.6025 13.0121 13.5123 13.0329 13.4424 13.0629C13.3724 13.0929 13.3019 13.1528 13.2519 13.2328C13.202 13.3127 13.1618 13.4125 13.1318 13.5424C13.1018 13.6724 13.0918 13.8328 13.0918 14.0228V14.9926C13.0918 15.1823 13.1019 15.3421 13.1318 15.472C13.1618 15.602 13.202 15.7124 13.2519 15.7924C13.3019 15.8724 13.3624 15.9323 13.4424 15.9623C13.5223 15.9922 13.6025 16.0121 13.6924 16.0121C13.7822 16.012 13.8725 15.9922 13.9424 15.9623C14.0122 15.9322 14.0819 15.8722 14.1318 15.7924C14.1818 15.7124 14.2222 15.602 14.2422 15.472C14.2621 15.3421 14.2822 15.1823 14.2822 14.9926V14.0228H14.292C14.292 13.8328 14.2819 13.6724 14.2519 13.5424C14.222 13.4125 14.1818 13.3127 14.1318 13.2328C14.0819 13.153 14.0221 13.0929 13.9424 13.0629C13.8625 13.0329 13.7822 13.0121 13.6924 13.0121Z" fill="#2F455C"/>
</g>
</svg>
