<svg width="24" height="24" viewBox="0 0 24 24" fill="none" xmlns="http://www.w3.org/2000/svg">
<g id="AV/forward-30">
<path id="Icon Shape" d="M12.033 2.85901C12.033 2.40901 12.5736 2.18866 12.8836 2.49866L16.6736 6.2887C16.8735 6.48864 16.8734 6.79869 16.6736 6.99866L12.8836 10.7887C12.5737 11.1086 12.0333 10.8889 12.033 10.4391V7.64905C8.30318 7.64927 5.35291 11.0692 6.16289 14.9391C6.64295 17.199 8.30359 18.9284 10.5535 19.4684C14.2035 20.3483 17.4934 17.8784 17.9734 14.5084C18.0435 14.0187 18.4532 13.6493 18.9529 13.649C19.5529 13.649 20.0429 14.1792 19.9529 14.7692C19.3327 19.2389 15.0132 22.519 10.1834 21.4391C7.0934 20.7491 4.79316 18.3587 4.19316 15.2487C3.19327 10.1288 7.09322 5.64927 12.033 5.64905V2.85901ZM10.0535 12.3483C10.2734 12.3483 10.4634 12.3784 10.6434 12.4283C10.8234 12.4783 10.9733 12.5588 11.1033 12.6588C11.2333 12.7588 11.3331 12.8788 11.4031 13.0387C11.4731 13.1987 11.5135 13.369 11.5135 13.569C11.5135 13.6588 11.5033 13.7487 11.4734 13.8385C11.4435 13.9284 11.3935 14.0086 11.3436 14.0885C11.2936 14.1685 11.2234 14.2392 11.1434 14.3092C11.0634 14.3791 10.963 14.4292 10.8631 14.4791C11.103 14.5691 11.2831 14.6988 11.4031 14.8688C11.5231 15.0388 11.5838 15.2491 11.5838 15.4791C11.5837 15.6788 11.5435 15.8586 11.4637 16.0084C11.3837 16.1584 11.2834 16.299 11.1434 16.399C11.0034 16.499 10.8528 16.5883 10.6629 16.6383C10.473 16.6883 10.2732 16.7184 10.0633 16.7184C9.88331 16.7184 9.70298 16.699 9.533 16.649C9.36311 16.599 9.21298 16.5185 9.07304 16.4186C8.93318 16.3186 8.82291 16.1986 8.74297 16.0387C8.66305 15.8788 8.62384 15.6987 8.62383 15.4889H9.47343C9.47346 15.5688 9.49329 15.6387 9.52324 15.7086C9.5532 15.7785 9.59326 15.8286 9.65312 15.8785C9.71312 15.9285 9.77332 15.9589 9.85332 15.9889C9.9333 16.0189 10.0133 16.0289 10.1033 16.0289C10.2033 16.0289 10.2938 16.0189 10.3738 15.9889C10.4536 15.9589 10.5132 15.9186 10.573 15.8688C10.623 15.8088 10.6729 15.7687 10.7029 15.6989C10.7329 15.6289 10.743 15.5486 10.743 15.4586C10.743 15.3487 10.7231 15.2485 10.6932 15.1686C10.6632 15.0887 10.6135 15.0183 10.5535 14.9684C10.4936 14.9185 10.4235 14.8889 10.3338 14.859C10.2439 14.829 10.1536 14.819 10.0437 14.819H9.59355V14.1588H10.0232C10.2432 14.1588 10.3937 14.1087 10.5037 13.9987C10.6135 13.8887 10.6628 13.7487 10.6629 13.569C10.6629 13.489 10.6538 13.4083 10.6238 13.3483C10.5939 13.2883 10.5634 13.2283 10.5135 13.1783C10.4636 13.1285 10.4035 13.0989 10.3338 13.069C10.2639 13.039 10.1836 13.029 10.0838 13.0289C10.0038 13.0289 9.93308 13.0292 9.86308 13.0592C9.79326 13.0891 9.7333 13.1189 9.6834 13.1588C9.6334 13.1988 9.59328 13.2492 9.56328 13.3092C9.53344 13.369 9.51353 13.4387 9.51347 13.5084H8.66289C8.66294 13.3286 8.70334 13.1788 8.77324 13.0289C8.8432 12.879 8.95313 12.7588 9.07304 12.6588C9.19304 12.5588 9.35347 12.4783 9.51347 12.4283C9.67343 12.3784 9.8636 12.3483 10.0535 12.3483ZM13.8836 12.3287C14.1035 12.3288 14.2935 12.3584 14.4734 12.4283C14.6534 12.4983 14.8034 12.6085 14.9334 12.7584C15.0634 12.9084 15.1632 13.1088 15.2332 13.3287C15.3032 13.5487 15.3436 13.829 15.3436 14.149V14.8883C15.3436 15.2083 15.313 15.4786 15.243 15.7086C15.173 15.9386 15.0729 16.1289 14.9529 16.2789C14.833 16.4287 14.6835 16.5391 14.5037 16.609C14.3237 16.679 14.1329 16.7086 13.9129 16.7086C13.6931 16.7086 13.5029 16.679 13.323 16.609C13.1431 16.539 12.993 16.4289 12.8631 16.2789C12.7331 16.1289 12.6333 15.9286 12.5633 15.7086C12.4933 15.4886 12.4529 15.2082 12.4529 14.8883V14.149C12.4529 13.829 12.4935 13.5587 12.5535 13.3287C12.6135 13.0988 12.7236 12.9084 12.8436 12.7584C12.9635 12.6086 13.1139 12.4983 13.2937 12.4283C13.4736 12.3585 13.6638 12.3287 13.8836 12.3287ZM13.8934 13.0192C13.8034 13.0192 13.7234 13.039 13.6434 13.069C13.5634 13.099 13.5129 13.1589 13.4529 13.2389C13.3931 13.3188 13.3637 13.4188 13.3338 13.5485C13.3038 13.6785 13.2937 13.8389 13.2937 14.0289V14.9987C13.2937 15.1887 13.3038 15.3491 13.3338 15.4791C13.3637 15.6087 13.4031 15.7186 13.4529 15.7985C13.5029 15.8784 13.5734 15.9384 13.6434 15.9684C13.7134 15.9984 13.8034 16.0192 13.8934 16.0192C13.9834 16.0192 14.0634 15.9984 14.1434 15.9684C14.2233 15.9384 14.2838 15.8784 14.3338 15.7985C14.3836 15.7186 14.4132 15.6087 14.4432 15.4791C14.4732 15.3491 14.4832 15.1887 14.4832 14.9987H14.493V14.0289C14.493 13.8389 14.4829 13.6785 14.4529 13.5485C14.423 13.4188 14.3837 13.3188 14.3338 13.2389C14.2838 13.1589 14.2133 13.099 14.1434 13.069C14.0734 13.039 13.9834 13.0192 13.8934 13.0192Z" fill="#2F455C"/>
</g>
</svg>
