<svg width="24" height="24" viewBox="0 0 24 24" fill="none" xmlns="http://www.w3.org/2000/svg">
<g id="AV/repeat-one">
<path id="Icon Shape" d="M18.0004 13.0005C18.5502 13.0007 19.0004 13.4506 19.0004 14.0005V18.0005C19.0002 18.5501 18.5501 19.0003 18.0004 19.0005H7.00043V20.7896C7.00043 21.2396 6.45984 21.4599 6.14984 21.1499L3.3598 18.3599C3.15999 18.1599 3.1599 17.8498 3.3598 17.6499L6.14984 14.8599C6.45984 14.5399 7.00043 14.7605 7.00043 15.2104V17.0005H17.0004V14.0005C17.0004 13.4505 17.4504 13.0005 18.0004 13.0005ZM12.1899 9.00049C12.6399 9.00049 13.0004 9.36006 13.0004 9.81006V14.2505C13.0002 14.6601 12.6601 15.0003 12.2504 15.0005C11.8406 15.0005 11.5007 14.6603 11.5004 14.2505V11.0005H10.6196C10.2799 11.0003 10.0006 10.7201 10.0004 10.3804C10.0004 10.1504 10.1303 9.92959 10.3403 9.82959L11.8295 9.09033C11.9395 9.03035 12.0599 9.00051 12.1899 9.00049ZM17.0004 3.21045C17.0004 2.76045 17.54 2.5401 17.85 2.8501L20.6401 5.64014C20.84 5.84014 20.84 6.15013 20.6401 6.3501L17.85 9.14014C17.54 9.46008 17.0004 9.23953 17.0004 8.78955V7.00049H7.00043V10.0005C7.00017 10.5501 6.55008 11.0003 6.00043 11.0005C5.45058 11.0005 5.00068 10.5503 5.00043 10.0005V6.00049C5.00043 5.45049 5.45043 5.00049 6.00043 5.00049H17.0004V3.21045Z" fill="#2F455C"/>
</g>
</svg>
