<svg width="24" height="24" viewBox="0 0 24 24" fill="none" xmlns="http://www.w3.org/2000/svg">
<g id="AV/playlist-add_check">
<path id="Icon Shape" d="M20.8721 11.4238C21.2521 11.0238 21.8922 11.0241 22.2822 11.4141L22.3721 11.5039C22.7621 11.8939 22.7621 12.5241 22.3721 12.9141L16.793 18.5039C16.4031 18.8938 15.7728 18.8936 15.3828 18.5039L12.293 15.4141C12.1058 15.2273 12.0001 14.9734 12 14.709C12 14.4445 12.1057 14.1907 12.293 14.0039L12.3828 13.9141C12.7728 13.5241 13.403 13.5241 13.793 13.9141L16.0928 16.2139L20.8721 11.4238ZM9 13C9.55 13 10 13.45 10 14C10 14.55 9.55 15 9 15H3C2.45 15 2 14.55 2 14C2 13.45 2.45 13 3 13H9ZM13 9C13.55 9 14 9.45 14 10C14 10.55 13.55 11 13 11H3C2.45 11 2 10.55 2 10C2 9.45 2.45 9 3 9H13ZM13 5C13.55 5 14 5.45 14 6C14 6.55 13.55 7 13 7H3C2.45 7 2 6.55 2 6C2 5.45 2.45 5 3 5H13Z" fill="#2F455C"/>
</g>
</svg>
