<svg width="24" height="24" viewBox="0 0 24 24" fill="none" xmlns="http://www.w3.org/2000/svg">
<g id="AV/hearing">
<path id="Icon Shape" d="M14.0269 2.16504C17.6368 2.16504 20.5172 4.75477 20.9674 8.22461C21.0274 8.72449 20.6371 9.16483 20.1373 9.16504H19.7965C19.3867 9.16482 19.0371 8.87446 18.9771 8.47461C18.657 6.01478 16.5868 4.16504 14.0269 4.16504C11.2269 4.16504 9.02695 6.36504 9.02695 9.16504C9.02696 10.095 9.31727 11.1455 9.84726 12.1055C10.5571 13.395 11.3768 14.0249 12.1666 14.6348C13.0866 15.3447 14.0472 16.0748 14.5572 17.6348C15.0572 19.1348 15.5572 19.6446 16.2672 20.0146C16.4672 20.1046 16.737 20.165 17.0269 20.165C17.9069 20.165 18.6566 19.5849 18.9166 18.7949C19.0466 18.4349 19.3471 18.165 19.7271 18.165H20.0768C20.6368 18.165 21.0273 18.6954 20.8873 19.2354C20.4172 20.9252 18.8669 22.165 17.0269 22.165C16.4571 22.165 15.8972 22.0453 15.3873 21.8154C14.0273 21.1054 13.2568 20.0846 12.6568 18.2646C12.3368 17.2849 11.7568 16.8348 10.9469 16.2148C10.077 15.5449 9.00716 14.715 8.09726 13.0654C7.40727 11.8154 7.02696 10.425 7.02695 9.16504C7.02695 5.23504 10.0969 2.16504 14.0269 2.16504ZM5.49667 2.20508C5.8766 1.74517 6.56666 1.70503 6.99667 2.13477C7.35664 2.49473 7.3969 3.06485 7.06699 3.46484C5.79699 5.00484 5.02695 6.99504 5.02695 9.16504C5.02696 11.335 5.79723 13.325 7.05722 14.875C7.3771 15.265 7.34686 15.8354 6.98691 16.1953C6.5669 16.6151 5.87662 16.5752 5.49667 16.1152C3.95669 14.2252 3.02696 11.805 3.02695 9.16504C3.02695 6.52513 3.95677 4.10505 5.49667 2.20508ZM14.0269 6.66504C15.4069 6.66504 16.5269 7.78504 16.5269 9.16504C16.5269 10.545 15.4069 11.665 14.0269 11.665C12.647 11.665 11.527 10.545 11.5269 9.16504C11.5269 7.78504 12.6469 6.66504 14.0269 6.66504Z" fill="#2F455C"/>
</g>
</svg>
