<svg width="24" height="24" viewBox="0 0 24 24" fill="none" xmlns="http://www.w3.org/2000/svg">
<g id="AV/playlist-play">
<path id="Icon Shape" d="M14 13.6768C14 13.1556 14.5565 12.835 15.0068 13.0889L19.6816 15.9219C20.1055 16.1891 20.1055 16.8174 19.6816 17.0713L15.0068 19.9033C14.5565 20.1706 14 19.8503 14 19.3291V13.6768ZM11 13C11.55 13 12 13.45 12 14C12 14.55 11.55 15 11 15H5C4.45 15 4 14.55 4 14C4 13.45 4.45 13 5 13H11ZM15 9C15.55 9 16 9.45 16 10C16 10.55 15.55 11 15 11H5C4.45 11 4 10.55 4 10C4 9.45 4.45 9 5 9H15ZM15 5C15.55 5 16 5.45 16 6C16 6.55 15.55 7 15 7H5C4.45 7 4 6.55 4 6C4 5.45 4.45 5 5 5H15Z" fill="#2F455C"/>
</g>
</svg>
