<svg width="24" height="24" viewBox="0 0 24 24" fill="none" xmlns="http://www.w3.org/2000/svg">
<g id="AV/closed-caption">
<path id="Icon Shape" d="M19 4C20.1 4 21 4.9 21 6V18C21 19.1 20.1 20 19 20H5C3.89 20 3 19.1 3 18V6C3 4.9 3.89 4 5 4H19ZM7 9C6.45 9 6 9.45 6 10V14C6 14.55 6.45 15 7 15H10C10.55 15 11 14.55 11 14V13.5C11 13.22 10.78 13 10.5 13H10C9.72 13 9.5 13.22 9.5 13.5H7.5V10.5H9.5C9.5 10.78 9.72 11 10 11H10.5C10.78 11 11 10.78 11 10.5V10C11 9.45 10.55 9 10 9H7ZM14 9C13.45 9 13 9.45 13 10V14C13 14.55 13.45 15 14 15H17C17.55 15 18 14.55 18 14V13.5C18 13.22 17.78 13 17.5 13H17C16.72 13 16.5 13.22 16.5 13.5H14.5V10.5H16.5C16.5 10.78 16.72 11 17 11H17.5C17.78 11 18 10.78 18 10.5V10C18 9.45 17.55 9 17 9H14Z" fill="#2F455C"/>
</g>
</svg>
