<svg width="24" height="24" viewBox="0 0 24 24" fill="none" xmlns="http://www.w3.org/2000/svg">
<g id="AV/add-to_queue">
<path id="Icon Shape" d="M21 3C22.1 3 23 3.89 23 5V17C23 18.1 22.1 19 21 19H16V20C16 20.55 15.55 21 15 21H9C8.45 21 8 20.55 8 20V19H3C1.9 19 1 18.1 1 17V5C1 3.9 1.9 3 3 3H21ZM4 5C3.45 5 3 5.45 3 6V16C3 16.55 3.45 17 4 17H20C20.55 17 21 16.55 21 16V6C21 5.45 20.55 5 20 5H4ZM12 7C12.55 7 13 7.45 13 8V10H15C15.55 10 16 10.45 16 11C16 11.55 15.55 12 15 12H13V14C13 14.55 12.55 15 12 15C11.45 15 11 14.55 11 14V12H9C8.45 12 8 11.55 8 11C8 10.45 8.45 10 9 10H11V8C11 7.45 11.45 7 12 7Z" fill="#2F455C"/>
</g>
</svg>
