<svg width="24" height="24" viewBox="0 0 24 24" fill="none" xmlns="http://www.w3.org/2000/svg">
<g id="AV/fiber-dvr">
<path id="Icon Shape" d="M21 3C22.11 3 23 3.89 23 5V19C23 20.1 22.11 21 21 21H3C1.89 21 1 20.1 1 19V5C1 3.89 1.89 3 3 3H21ZM16.6396 9C16.2899 9.00019 16.0002 9.28992 16 9.63965V14.3096C16 14.6896 16.3104 15 16.6904 15H16.8096C17.1896 15 17.5 14.6896 17.5 14.3096V13H18.6504L19.4697 14.9199C19.5697 15.1798 19.8198 15.3397 20.0996 15.3398C20.5896 15.3398 20.9204 14.8299 20.7305 14.3799L20.0996 12.9004C20.5996 12.6504 21 12.1 21 11.5V10.5C21 9.67 20.33 9 19.5 9H16.6396ZM3.5 9C3.22 9 3 9.22 3 9.5V14.5C3 14.78 3.22 15 3.5 15H6.5C7.33 15 8 14.33 8 13.5V10.5C8 9.67 7.33 9 6.5 9H3.5ZM13.4102 9C13.0903 9 12.8098 9.20973 12.7197 9.51953L11.8701 12.4297L11.0195 9.51953C10.9294 9.20986 10.6499 9.00003 10.3301 9C9.85014 9 9.49979 9.45998 9.63965 9.91992L10.9102 14.2803C11.0303 14.7101 11.4302 15 11.8701 15C12.31 14.9999 12.71 14.7101 12.8301 14.2803L14.0996 9.91992C14.2396 9.45997 13.8901 9.0001 13.4102 9ZM6.5 13.5H4.5V10.5H6.5V13.5ZM19.5 10.5V11.5H17.5V10.5H19.5Z" fill="#2F455C"/>
</g>
</svg>
