<svg width="24" height="24" viewBox="0 0 24 24" fill="none" xmlns="http://www.w3.org/2000/svg">
<g id="AV/recent-actors">
<path id="Icon Shape" d="M14 5C14.55 5 15 5.45 15 6V18C15 18.55 14.55 19 14 19H2C1.45 19 1 18.55 1 18V6C1 5.45 1.45 5 2 5H14ZM18 5C18.55 5 19 5.45 19 6V18C19 18.55 18.55 19 18 19C17.45 19 17 18.55 17 18V6C17 5.45 17.45 5 18 5ZM22 5C22.55 5 23 5.45 23 6V18C23 18.55 22.55 19 22 19C21.45 19 21 18.55 21 18V6C21 5.45 21.45 5 22 5ZM8 14C6.5 14 3.5 14.75 3.5 16.25V17H12.5V16.25C12.5 14.75 9.5 14 8 14ZM8 7.75C6.76 7.75 5.75 8.76 5.75 10C5.75 11.24 6.76 12.25 8 12.25C9.24 12.25 10.25 11.24 10.25 10C10.25 8.76 9.24 7.75 8 7.75Z" fill="#2F455C"/>
</g>
</svg>
