<svg width="24" height="24" viewBox="0 0 24 24" fill="none" xmlns="http://www.w3.org/2000/svg">
<g id="AV/loop">
<path id="Icon Shape" d="M4.57031 9.05029C4.84031 8.38029 5.69996 8.20045 6.20996 8.71045C6.47982 8.98045 6.59039 9.39057 6.44043 9.75049C6.15049 10.4404 6 11.2106 6 12.0005C6.00025 15.3103 8.69015 18.0005 12 18.0005V16.2104C12 15.7605 12.5396 15.5403 12.8496 15.8501L15.6396 18.6401C15.8396 18.8401 15.8396 19.1501 15.6396 19.3501L12.8496 22.1401C12.5396 22.4598 12 22.2394 12 21.7896V20.0005C7.58015 20.0005 4.00025 16.4203 4 12.0005C4 10.9605 4.20034 9.96026 4.57031 9.05029ZM11.1504 1.85986C11.4604 1.54027 12 1.76058 12 2.21045V4.00049C16.42 4.00049 20 7.58049 20 12.0005C19.9999 13.0403 19.7996 14.0399 19.4297 14.9497C19.1597 15.6197 18.3 15.7996 17.79 15.2896C17.5203 15.0197 17.4099 14.6103 17.5596 14.2505C17.8495 13.5606 17.9999 12.7903 18 12.0005C18 8.69049 15.31 6.00049 12 6.00049V7.78955C12 8.23955 11.4596 8.4599 11.1396 8.1499L8.34961 5.35986C8.14993 5.1599 8.14983 4.84981 8.34961 4.6499L11.1504 1.85986Z" fill="#2F455C"/>
</g>
</svg>
