<svg width="24" height="24" viewBox="0 0 24 24" fill="none" xmlns="http://www.w3.org/2000/svg">
<g id="AV/replay-5">
<path id="Icon Shape" d="M11.116 2.50201C11.4261 2.1824 11.9656 2.40273 11.9656 2.8526V5.64264C16.9056 5.64264 20.8054 10.1221 19.8055 15.252C19.2055 18.362 16.9052 20.7524 13.8152 21.4424C8.98554 22.5221 4.67585 19.2422 4.0457 14.7725C3.9657 14.1725 4.4457 13.6426 5.0457 13.6426C5.53561 13.6427 5.95534 14.0121 6.01543 14.502C6.50542 17.8619 9.79544 20.3418 13.4353 19.462C15.6853 18.922 17.356 17.1917 17.826 14.9317C18.6456 11.0619 15.6955 7.64264 11.9656 7.64264V10.4317C11.9656 10.8817 11.4253 11.1021 11.1053 10.7921L7.31523 7.00201C7.11557 6.80205 7.11547 6.49196 7.31523 6.29205L11.116 2.50201ZM13.2957 13.0821H11.5955L11.4861 14.002C11.5161 13.9822 11.5557 13.9721 11.5955 13.9522C11.6355 13.9322 11.6859 13.9124 11.7459 13.9024C11.8058 13.8924 11.8657 13.8724 11.9256 13.8624C11.9856 13.8524 12.0558 13.8419 12.1258 13.8419C12.3357 13.8419 12.5156 13.8725 12.6756 13.9424C12.8355 14.0124 12.9758 14.1018 13.0857 14.2217C13.1957 14.3417 13.2857 14.492 13.3357 14.6719C13.3857 14.8519 13.4256 15.0525 13.4256 15.2725C13.4255 15.4624 13.3957 15.6427 13.3357 15.8126C13.2757 15.9824 13.1852 16.1319 13.0652 16.2618C12.9453 16.3917 12.7959 16.5023 12.616 16.5723C12.436 16.6423 12.2254 16.6924 11.9754 16.6924C11.7956 16.6924 11.6159 16.6623 11.4461 16.6124C11.2762 16.5624 11.126 16.472 10.9861 16.3721C10.8462 16.2722 10.7458 16.1324 10.6658 15.9825C10.5858 15.8325 10.5359 15.6522 10.5359 15.4522H11.3758C11.3958 15.6321 11.4553 15.7724 11.5652 15.8624C11.6752 15.9524 11.8161 16.0118 11.9861 16.0118C12.0959 16.0117 12.1858 15.9921 12.2557 15.9522C12.3256 15.9122 12.3953 15.8522 12.4353 15.7823C12.4753 15.7123 12.5157 15.6322 12.5457 15.5323C12.5757 15.4323 12.576 15.3317 12.576 15.2217C12.5759 15.1119 12.5659 15.012 12.5359 14.9122C12.5059 14.8122 12.466 14.7419 12.4061 14.6719C12.3462 14.6021 12.2759 14.5525 12.1961 14.5225C12.1161 14.4925 12.0053 14.4717 11.8953 14.4717C11.8157 14.4718 11.746 14.4823 11.6961 14.4922C11.6461 14.5022 11.5857 14.5221 11.5457 14.5421C11.5057 14.5621 11.4656 14.5924 11.4256 14.6124C11.3857 14.6324 11.3559 14.6723 11.326 14.7022L10.6561 14.5421L10.9061 12.3721H13.2957V13.0821Z" fill="#2F455C"/>
</g>
</svg>
