<svg width="24" height="24" viewBox="0 0 24 24" fill="none" xmlns="http://www.w3.org/2000/svg">
<g id="AV/subscriptions">
<path id="Icon Shape" d="M20 10C21.1 10 22 10.9 22 12V20C22 21.1 21.1 22 20 22H4C2.9 22 2 21.1 2 20V12C2 10.9 2.9 10 4 10H20ZM10 19.2598L15.1904 16.4404C15.5402 16.2504 15.5402 15.7496 15.1904 15.5596L10 12.7305V19.2598ZM19 6C19.55 6 20 6.45 20 7C20 7.55 19.55 8 19 8H5C4.45 8 4 7.55 4 7C4 6.45 4.45 6 5 6H19ZM17 2C17.55 2 18 2.45 18 3C18 3.55 17.55 4 17 4H7C6.45 4 6 3.55 6 3C6 2.45 6.45 2 7 2H17Z" fill="#2F455C"/>
</g>
</svg>
