<svg width="24" height="24" viewBox="0 0 24 24" fill="none" xmlns="http://www.w3.org/2000/svg">
<g id="AV/forward-10">
<path id="Icon Shape" d="M12.033 2.85901C12.033 2.40901 12.5736 2.18866 12.8836 2.49866L16.6736 6.2887C16.8735 6.48864 16.8734 6.79869 16.6736 6.99866L12.8836 10.7887C12.5737 11.1086 12.0333 10.8889 12.033 10.4391V7.64905C8.30318 7.64927 5.35291 11.0692 6.16289 14.9391C6.64295 17.199 8.30359 18.9284 10.5535 19.4684C14.2035 20.3483 17.4934 17.8784 17.9734 14.5084C18.0435 14.0187 18.4532 13.6493 18.9529 13.649C19.5529 13.649 20.0429 14.1792 19.9529 14.7692C19.3327 19.2389 15.0132 22.519 10.1834 21.4391C7.0934 20.7491 4.79316 18.3587 4.19316 15.2487C3.19327 10.1288 7.09322 5.64927 12.033 5.64905V2.85901ZM13.7635 12.3287C13.9834 12.3287 14.1734 12.3584 14.3533 12.4283C14.5232 12.4983 14.6833 12.6085 14.8133 12.7584C14.9433 12.9084 15.0431 13.1088 15.1131 13.3287C15.1831 13.5487 15.2234 13.829 15.2234 14.149V14.8883C15.2234 15.2082 15.1938 15.4787 15.1238 15.7086C15.0538 15.9386 14.9538 16.1289 14.8338 16.2789C14.7138 16.4289 14.5635 16.539 14.3836 16.609C14.2037 16.679 14.0136 16.7086 13.7937 16.7086C13.5737 16.7086 13.3829 16.679 13.2029 16.609C13.0231 16.539 12.8729 16.4288 12.743 16.2789C12.613 16.1289 12.5131 15.9286 12.4432 15.7086C12.3732 15.4886 12.3338 15.2082 12.3338 14.8883V14.149C12.3338 13.829 12.3734 13.5587 12.4334 13.3287C12.4934 13.0987 12.6034 12.9084 12.7234 12.7584C12.8434 12.6085 12.9937 12.4983 13.1736 12.4283C13.3535 12.3584 13.5436 12.3287 13.7635 12.3287ZM10.9334 16.649H10.0838V13.3883L9.07304 13.6989V13.0084L10.8436 12.3785H10.9334V16.649ZM13.7732 13.0192C13.6833 13.0192 13.6032 13.039 13.5232 13.069C13.4434 13.099 13.3937 13.159 13.3338 13.2389C13.2738 13.3188 13.2436 13.4186 13.2137 13.5485C13.1837 13.6785 13.1736 13.8389 13.1736 14.0289V14.9987C13.1736 15.1887 13.1837 15.3491 13.2137 15.4791C13.2437 15.6089 13.2838 15.7186 13.3338 15.7985C13.3837 15.8784 13.4533 15.9383 13.5232 15.9684C13.5932 15.9984 13.6833 16.0191 13.7732 16.0192C13.8632 16.0192 13.9432 15.9984 14.0232 15.9684C14.1032 15.9384 14.1637 15.8785 14.2137 15.7985C14.2635 15.7186 14.2931 15.6088 14.323 15.4791C14.353 15.3491 14.3631 15.1887 14.3631 14.9987H14.3738V14.0289C14.3738 13.8389 14.3638 13.6785 14.3338 13.5485C14.3038 13.4187 14.2636 13.3188 14.2137 13.2389C14.1637 13.1589 14.0932 13.099 14.0232 13.069C13.9532 13.039 13.8632 13.0192 13.7732 13.0192Z" fill="#2F455C"/>
</g>
</svg>
