<svg width="24" height="24" viewBox="0 0 24 24" fill="none" xmlns="http://www.w3.org/2000/svg">
<g id="AV/volume-up">
<path id="Icon Shape" d="M14 4.4516C14.0002 3.82173 14.63 3.37202 15.21 3.60199C18.5998 4.89194 20.9998 8.1616 21 12.0014C21 15.8414 18.6 19.1118 15.21 20.4018C14.6301 20.6217 14.0002 20.182 14 19.5522V19.352C14 18.9721 14.2397 18.6414 14.5996 18.5014C17.1796 17.4714 19 14.9414 19 12.0014C18.9998 9.06159 17.1795 6.53135 14.5996 5.5014C14.2499 5.36129 14 5.03162 14 4.65179V4.4516ZM10.29 5.7016C10.92 5.07187 11.9998 5.52181 12 6.41156V17.5815C12 18.4715 10.92 18.9214 10.29 18.2914L7 15.0014H4C3.45 15.0014 3 14.5514 3 14.0014V10.0014C3.00024 9.4516 3.45015 9.0014 4 9.0014H7L10.29 5.7016ZM14 7.97211C15.4798 8.71207 16.4998 10.2316 16.5 12.0014C16.5 13.7714 15.48 15.2919 14 16.0219V7.97211Z" fill="#2F455C"/>
</g>
</svg>
