<svg width="24" height="24" viewBox="0 0 24 24" fill="none" xmlns="http://www.w3.org/2000/svg">
<g id="AV/timer">
<path id="Icon Shape" d="M12.0024 2.99872C17.0724 2.99872 21.1627 7.18876 20.9927 12.2888C20.8427 16.9887 16.9124 20.8887 12.2124 20.9987C7.14242 21.1187 3.00244 17.0387 3.00244 11.9987C3.00244 9.39873 4.10281 7.06915 5.86279 5.43915C6.26275 5.06919 6.88219 5.07881 7.26221 5.45868L12.7026 10.8884C13.0926 11.2783 13.0924 11.9085 12.7026 12.2985C12.3126 12.6885 11.6825 12.6885 11.2925 12.2985L6.58252 7.5788C5.59252 8.7788 5.00244 10.3187 5.00244 11.9987C5.00244 15.9087 8.19256 19.0587 12.1226 18.9987C15.9724 18.9387 19.1423 15.5888 19.0024 11.739C18.8724 8.32896 16.3124 5.5588 13.0024 5.0788V5.99872C13.0024 6.54872 12.5524 6.99872 12.0024 6.99872C11.4524 6.99872 11.0024 6.54872 11.0024 5.99872V3.99872C11.0024 3.44872 11.4524 2.99872 12.0024 2.99872ZM12.0024 15.9987C12.5547 15.9987 13.0024 16.4464 13.0024 16.9987C13.0024 17.551 12.5547 17.9987 12.0024 17.9987C11.4502 17.9987 11.0024 17.551 11.0024 16.9987C11.0024 16.4464 11.4502 15.9987 12.0024 15.9987ZM7.00244 10.9987C7.55473 10.9987 8.00244 11.4464 8.00244 11.9987C8.00244 12.551 7.55473 12.9987 7.00244 12.9987C6.45016 12.9987 6.00244 12.551 6.00244 11.9987C6.00244 11.4464 6.45016 10.9987 7.00244 10.9987ZM17.0024 10.9987C17.5547 10.9987 18.0024 11.4464 18.0024 11.9987C18.0024 12.551 17.5547 12.9987 17.0024 12.9987C16.4502 12.9987 16.0024 12.551 16.0024 11.9987C16.0024 11.4464 16.4502 10.9987 17.0024 10.9987Z" fill="#2F455C"/>
</g>
</svg>
