<svg width="24" height="24" viewBox="0 0 24 24" fill="none" xmlns="http://www.w3.org/2000/svg">
<g id="AV/games">
<path id="Icon Shape" d="M11.6396 13.8604C11.8396 13.6604 12.1496 13.6604 12.3496 13.8604L14.8496 16.3604C14.9496 16.4503 15 16.58 15 16.71V21C15 21.55 14.55 22 14 22H10C9.45 22 9 21.55 9 21V16.71C9.00001 16.5702 9.04988 16.4503 9.13965 16.3604L11.6396 13.8604ZM21 9.00977C21.5499 9.00977 21.9999 9.45987 22 10.0098V14.0098C22 14.5598 21.55 15.0098 21 15.0098H16.7002C16.5702 15.0098 16.4396 14.9504 16.3496 14.8604L13.8496 12.3604C13.6498 12.1605 13.65 11.8504 13.8496 11.6504L16.3496 9.15039C16.4496 9.0504 16.57 8.99978 16.71 9.00977H21ZM7.29004 9C7.42984 9.00001 7.5497 9.04988 7.63965 9.13965L10.1396 11.6396C10.3396 11.8396 10.3396 12.1496 10.1396 12.3496L7.63965 14.8496C7.54966 14.9496 7.42003 15 7.29004 15H3C2.45 15 2 14.55 2 14V10C2 9.45 2.45 9 3 9H7.29004ZM14 2C14.55 2 15 2.45 15 3V7.29004C15 7.42984 14.9501 7.5497 14.8604 7.63965L12.3604 10.1396C12.1604 10.3396 11.8504 10.3396 11.6504 10.1396L9.15039 7.63965C9.0504 7.54966 9.00001 7.42003 9 7.29004V3C9 2.45 9.45 2 10 2H14Z" fill="#2F455C"/>
</g>
</svg>
