<svg width="24" height="24" viewBox="0 0 24 24" fill="none" xmlns="http://www.w3.org/2000/svg">
<g id="AV/radio">
<path id="Icon Shape" d="M15.0498 1.70422C15.5098 1.51422 16.0297 1.73446 16.2197 2.19446C16.4096 2.65431 16.1902 3.17429 15.7305 3.36438L8.2998 6.36438H20C21.1 6.36438 22 7.26438 22 8.36438V20.3644C21.9999 21.4643 21.1099 22.3644 20 22.3644H4C2.90006 22.3644 2.00011 21.4643 2 20.3644V8.36438C2 7.53438 2.51023 6.79379 3.24023 6.51379L15.0498 1.70422ZM7 14.3644C5.34 14.3644 4 15.7044 4 17.3644C4.00011 19.0243 5.34007 20.3644 7 20.3644C8.65993 20.3644 9.99989 19.0243 10 17.3644C10 15.7044 8.66 14.3644 7 14.3644ZM5 8.36438C4.45 8.36438 4 8.81438 4 9.36438V12.3644H16V11.3644C16 10.8144 16.45 10.3644 17 10.3644C17.55 10.3644 18 10.8144 18 11.3644V12.3644H20V9.36438C20 8.81438 19.55 8.36438 19 8.36438H5Z" fill="#2F455C"/>
</g>
</svg>
