<svg width="24" height="24" viewBox="0 0 24 24" fill="none" xmlns="http://www.w3.org/2000/svg">
<g id="Communication/dialer-sip">
<path id="Icon Shape" d="M6.74156 3.02295C7.75156 3.02295 8.61203 3.79322 8.72203 4.80322L9.01207 7.32275C9.08207 7.92275 8.87176 8.53338 8.44176 8.96338L6.59215 10.813C8.03214 13.653 10.352 15.9628 13.182 17.4028L15.0218 15.563C15.4518 15.1331 16.0516 14.9238 16.6615 14.9937L19.2015 15.2827C20.2115 15.3927 20.982 16.2534 20.972 17.2534V18.9829C20.972 20.1129 20.0317 21.0529 18.9017 20.9829C10.3718 20.4528 3.54211 13.6332 3.01207 5.09326C2.94207 3.96326 3.88207 3.02295 5.01207 3.02295H6.74156ZM14.4916 3.01318C14.7716 3.01318 14.9916 3.23318 14.9916 3.51318C14.9916 3.79318 14.7716 4.01318 14.4916 4.01318H12.9916V5.01318H14.4418C14.7417 5.01318 14.9915 5.26308 14.9916 5.56299V7.46338C14.9915 7.76329 14.7417 8.01318 14.4418 8.01318H12.4916C12.2117 8.01304 11.9916 7.79309 11.9916 7.51318C11.9916 7.23327 12.2117 7.01333 12.4916 7.01318H13.9916V6.01318H12.5414C12.2417 6.01292 11.9918 5.76325 11.9916 5.45361V3.56299C11.9917 3.26323 12.2416 3.01344 12.5414 3.01318H14.4916ZM16.4916 3.01318C16.7716 3.01318 16.9916 3.23318 16.9916 3.51318V7.51318C16.9916 7.79318 16.7716 8.01318 16.4916 8.01318C16.2117 8.01304 15.9916 7.79309 15.9916 7.51318V3.51318C15.9916 3.23328 16.2117 3.01333 16.4916 3.01318ZM20.4418 3.01318C20.7417 3.01318 20.9915 3.26308 20.9916 3.56299V5.46338C20.9915 5.76329 20.7417 6.01318 20.4418 6.01318H18.9916V7.51318C18.9916 7.79318 18.7716 8.01318 18.4916 8.01318C18.2117 8.01304 17.9916 7.79309 17.9916 7.51318V3.56299C17.9917 3.26308 18.2422 3.01318 18.5521 3.01318H20.4418ZM18.9916 5.01318H19.9916V4.01318H18.9916V5.01318Z" fill="#2F455C"/>
</g>
</svg>
