<svg width="24" height="24" viewBox="0 0 24 24" fill="none" xmlns="http://www.w3.org/2000/svg">
<g id="Communication/call-end">
<path id="Icon Shape" d="M4.58 16.0304L6.58 14.4404C7.06 14.0604 7.34 13.4804 7.34 12.8704V10.2704C10.36 9.2904 13.63 9.2804 16.66 10.2704V12.8804C16.66 13.4904 16.94 14.0704 17.42 14.4504L19.41 16.0304C20.21 16.6604 21.35 16.6004 22.07 15.8804L23.29 14.6604C24.09 13.8604 24.09 12.5304 23.24 11.7804C16.83 6.1204 7.17 6.1204 0.76 11.7804C-0.09 12.5304 -0.09 13.8604 0.71 14.6604L1.93 15.8804C2.64 16.6004 3.78 16.6604 4.58 16.0304Z" fill="#2F455C"/>
</g>
</svg>
