<svg width="24" height="24" viewBox="0 0 24 24" fill="none" xmlns="http://www.w3.org/2000/svg">
<g id="Communication/ring-volume">
<path id="Icon Shape" d="M0.759003 16.7732C7.169 11.1132 16.8295 11.1132 23.2395 16.7732C24.0892 17.5232 24.0889 18.8532 23.299 19.6531L22.0793 20.8728C21.3593 21.5927 20.2191 21.6531 19.4192 21.0232L17.4289 19.4431C16.949 19.0631 16.6692 18.4827 16.6692 17.8728V15.2625C13.6394 14.2726 10.3696 14.2826 7.34982 15.2625V17.863C7.34973 18.4729 7.06899 19.0524 6.58908 19.4324L4.58908 21.0232C3.7891 21.6529 2.64881 21.5927 1.92892 20.8728L0.709198 19.6531C-0.0906695 18.8532 -0.0905749 17.5233 0.759003 16.7732ZM19.009 6.09253C19.389 5.71253 20.0196 5.71253 20.3996 6.09253C20.7896 6.47253 20.7896 7.10317 20.3996 7.48315C19.7696 8.11315 18.8692 9.0231 18.2492 9.65308C17.8594 10.0427 17.2398 10.0426 16.8498 9.65308L16.8391 9.63257C16.4494 9.25262 16.4494 8.62288 16.8391 8.24292L19.009 6.09253ZM3.51974 6.08276C3.89976 5.69295 4.52945 5.69282 4.90939 6.08276L7.05978 8.25269C7.43944 8.63257 7.4393 9.26236 7.05978 9.64233C6.66978 10.0323 6.03939 10.0323 5.65939 9.64233C5.03945 9.01239 4.12917 8.10309 3.49924 7.48315C3.10924 7.10315 3.10924 6.48253 3.49924 6.09253L3.51974 6.08276ZM11.969 2.54272C12.509 2.54272 12.9494 2.98319 12.9494 3.52319V6.56226C12.9494 7.10226 12.5092 7.54272 11.9592 7.54272H11.9289C11.3891 7.5425 10.9494 7.10235 10.9494 6.55249V3.52319C10.9494 2.98319 11.3897 2.54272 11.9397 2.54272H11.969Z" fill="#2F455C"/>
</g>
</svg>
