<svg width="24" height="24" viewBox="0 0 24 24" fill="none" xmlns="http://www.w3.org/2000/svg">
<g id="Communication/speaker-phone">
<path id="Icon Shape" d="M14.8572 10.5146C15.487 10.5147 15.9968 11.0147 15.987 11.6445V21.3545C15.987 21.9844 15.4772 22.4949 14.8474 22.4951H9.13742C8.50742 22.4951 7.9968 21.9845 7.9968 21.3545V11.6445C7.99699 11.0147 8.50754 10.5049 9.13742 10.5049L14.8572 10.5146ZM8.9968 12.5049V20.5049H14.9968V12.5049H8.9968ZM11.9968 5.50488C13.5468 5.50488 14.9772 6.00452 16.1472 6.85449C16.6272 7.20447 16.6569 7.92471 16.237 8.34473L16.2165 8.36523C15.8665 8.71485 15.3166 8.74496 14.9167 8.45508C14.0867 7.87512 13.0768 7.52441 11.9968 7.52441C10.9169 7.52446 9.90683 7.87535 9.07688 8.44531C8.66691 8.7351 8.12699 8.70441 7.77707 8.35449L7.75657 8.33496C7.33675 7.91494 7.36722 7.19468 7.85715 6.84473C9.01707 6.00484 10.447 5.50493 11.9968 5.50488ZM11.9968 1.50488C14.6168 1.50488 17.0275 2.43461 18.9275 3.97461C19.3873 4.35463 19.4265 5.04489 19.0066 5.46484C18.6466 5.82457 18.0772 5.85486 17.6872 5.53516C16.1372 4.26516 14.1468 3.50488 11.9968 3.50488C9.84688 3.50493 7.85706 4.2652 6.31711 5.53516C5.92711 5.8551 5.35678 5.82482 4.9968 5.46484C4.56693 5.03484 4.61692 4.34458 5.07688 3.97461C6.96682 2.43468 9.3769 1.50493 11.9968 1.50488Z" fill="#2F455C"/>
</g>
</svg>
