<svg width="24" height="24" viewBox="0 0 24 24" fill="none" xmlns="http://www.w3.org/2000/svg">
<g id="Communication/phonelink-lock">
<path id="Icon Shape" d="M18.5 1C19.6 1 20.5 1.9 20.5 3V21C20.5 22.1 19.6 23 18.5 23H8.5C7.4 23 6.5 22.1 6.5 21V19C6.5 18.45 6.95 18 7.5 18C8.05 18 8.5 18.45 8.5 19V20H18.5V4H8.5V5C8.5 5.55 8.05 6 7.5 6C6.95 6 6.5 5.55 6.5 5V3C6.5 1.9 7.4 1 8.5 1H18.5ZM7.5 7C8.9 7 10.2998 8.1 10.2998 9.5V11C10.8997 11 11.4999 11.5999 11.5 12.2998V15.7998C11.5 16.3997 10.9001 16.9999 10.2002 17H4.7002C4.10025 17 3.50011 16.4001 3.5 15.7002V12.2002C3.5 11.6002 4.1002 11 4.7002 11V9.5C4.7002 8.1 6.1 7 7.5 7ZM7.5 8.2002C6.7 8.2002 6 8.7 6 9.5V11H9V9.5C9 8.7 8.3 8.2002 7.5 8.2002Z" fill="#2F455C"/>
</g>
</svg>
