<svg width="24" height="24" viewBox="0 0 24 24" fill="none" xmlns="http://www.w3.org/2000/svg">
<g id="Communication/invert-colors_off">
<path id="Icon Shape" d="M3.62996 4.68042C4.01996 4.29042 4.65988 4.29042 5.04988 4.68042L20.3702 19.9998C20.7601 20.3897 20.76 21.0199 20.3702 21.4099C19.9802 21.7999 19.35 21.7999 18.96 21.4099L16.96 19.4099C15.5 20.5899 13.7195 21.1804 11.9395 21.1804C9.88982 21.1803 7.84019 20.4 6.28035 18.8503C3.36035 15.9203 3.17004 11.3097 5.71004 8.16968L3.62996 6.09058C3.24002 5.70064 3.24014 5.07043 3.62996 4.68042ZM7.15047 9.60034C6.37047 10.6303 5.93953 11.8702 5.93953 13.1902C5.93955 14.7902 6.56029 16.2904 7.70027 17.4304C8.83013 18.5701 10.3398 19.1901 11.9395 19.1902V14.3904L7.15047 9.60034ZM11.9454 2.29761C12.2098 2.29771 12.4637 2.40342 12.6505 2.59058L17.5899 7.53979C19.9299 9.86979 20.4899 13.2701 19.3399 16.1501L11.9395 8.74976V4.69995L9.91023 6.72046L8.50008 5.3103L11.2403 2.59058C11.4271 2.40332 11.6809 2.29761 11.9454 2.29761Z" fill="#2F455C"/>
</g>
</svg>
