<svg width="24" height="24" viewBox="0 0 24 24" fill="none" xmlns="http://www.w3.org/2000/svg">
<g id="Communication/contact-mail">
<path id="Icon Shape" d="M22 3C23.1 3 24 3.9 24 5L23.9902 19C23.9902 20.1 23.1 21 22 21H2C0.9 21 0 20.1 0 19V5C0 3.9 0.9 3 2 3H22ZM8 13.9004C6 13.9004 2 15 2 17V18H14V17C14 15 10 13.9004 8 13.9004ZM8 6C6.34 6 5 7.34 5 9C5 10.66 6.34 12 8 12C9.66 12 11 10.66 11 9C11 7.34 9.66 6 8 6ZM14.5 6C14.22 6 14 6.22 14 6.5V11.5C14 11.78 14.22 12 14.5 12H21.5C21.78 12 22 11.78 22 11.5V6.5C22 6.22 21.78 6 21.5 6H14.5ZM21 8L18.2695 9.82031C18.1096 9.92999 17.8896 9.93021 17.7197 9.82031L15 8V7L18 9L21 7V8Z" fill="#2F455C"/>
</g>
</svg>
