<svg width="24" height="24" viewBox="0 0 24 24" fill="none" xmlns="http://www.w3.org/2000/svg">
<g id="Communication/phonelink-setup">
<path id="Icon Shape" d="M18.907 1C20.007 1 20.907 1.9 20.907 3V21C20.907 22.1 20.007 23 18.907 23H8.907C7.80721 22.9997 6.907 22.0998 6.907 21V19C6.907 18.4502 7.35721 18.0003 7.907 18C8.457 18 8.907 18.45 8.907 19V20H18.907V4H8.907V5C8.907 5.55 8.457 6 7.907 6C7.35721 5.99975 6.907 5.54985 6.907 5V3C6.907 1.90015 7.80721 1.00025 8.907 1H18.907ZM8.74782 7C8.99762 7.00017 9.20703 7.1801 9.23708 7.41992L9.407 8.5C9.697 8.62 9.95778 8.78996 10.2078 8.95996L10.1873 8.92969L11.197 8.54004C11.427 8.45007 11.6873 8.54991 11.8074 8.75977L12.6472 10.2197C12.7672 10.4297 12.7171 10.7104 12.5271 10.8604L11.6775 11.54L11.657 11.5098C11.677 11.6698 11.7078 11.8302 11.7078 11.9902C11.7077 12.1501 11.677 12.3099 11.657 12.4697L11.6775 12.4404L12.5271 13.1201C12.7171 13.2701 12.7672 13.5498 12.6472 13.7598L11.8074 15.2197C11.6874 15.4397 11.427 15.5304 11.197 15.4404L10.1873 15.0498L10.2078 15.0195C9.95778 15.2095 9.697 15.38 9.407 15.5L9.23708 16.5801C9.20703 16.8199 8.99762 16.9998 8.74782 17H7.06715C6.81741 16.9999 6.60804 16.82 6.5779 16.5703L6.407 15.5C6.11716 15.38 5.85708 15.2094 5.60719 15.0195L5.61794 15.0596L4.60719 15.4502C4.37745 15.5399 4.1179 15.44 3.99782 15.2305L3.157 13.7695C3.03743 13.5596 3.08741 13.2798 3.27711 13.1299L4.1277 12.4502L4.14723 12.4805C4.12723 12.3205 4.09743 12.16 4.09743 12C4.09743 11.8401 4.12723 11.6802 4.14723 11.5303L4.1277 11.5596L3.27711 10.8799C3.08745 10.7299 3.03733 10.4501 3.157 10.2402L3.99782 8.78027C4.11775 8.56039 4.37729 8.46982 4.60719 8.55957L5.6277 8.9502L5.60719 8.98047C5.85708 8.79055 6.11716 8.61999 6.407 8.5L6.5779 7.41992C6.60794 7.18008 6.81733 7.00015 7.06715 7H8.74782ZM7.907 10C6.80721 10.0003 5.907 10.9002 5.907 12C5.907 13.0998 6.80721 13.9997 7.907 14C9.007 14 9.907 13.1 9.907 12C9.907 10.9 9.007 10 7.907 10Z" fill="#2F455C"/>
</g>
</svg>
