<svg width="24" height="24" viewBox="0 0 24 24" fill="none" xmlns="http://www.w3.org/2000/svg">
<g id="Communication/call-split">
<path id="Icon Shape" d="M8.79004 4C9.23988 4.00003 9.45997 4.5398 9.15039 4.83984L7.70996 6.28027L12.71 11.29C12.89 11.48 13 11.74 13 12V19C13 19.55 12.55 20 12 20C11.45 20 11 19.55 11 19V12.4004L6.29004 7.7002L4.84961 9.13965C4.53962 9.45962 4.00003 9.24001 4 8.79004V4.5C4 4.22 4.22 4 4.5 4H8.79004ZM19.5 4C19.78 4 20 4.22 20 4.5V8.79004C20 9.23982 19.4604 9.45981 19.1504 9.15039L17.71 7.70996L14.8301 10.5898L13.4102 9.16992L16.29 6.29004L14.8496 4.84961C14.5402 4.53956 14.7602 4.00003 15.21 4H19.5Z" fill="#2F455C"/>
</g>
</svg>
