<svg width="24" height="24" viewBox="0 0 24 24" fill="none" xmlns="http://www.w3.org/2000/svg">
<g id="Communication/print-disabled">
<path id="Icon Shape" d="M2.2063 1.24243C2.4708 1.24244 2.72456 1.34816 2.91138 1.5354L22.4309 21.0549C22.8209 21.4449 22.8209 22.0751 22.4309 22.4651C22.041 22.8547 21.4117 22.8547 21.0217 22.4651L18.1917 19.635C17.8316 19.995 17.3413 20.2151 16.7913 20.2151H8.79126C7.69132 20.2151 6.79135 19.315 6.79126 18.2151V16.2151H4.79126C3.69132 16.2151 2.79135 15.315 2.79126 14.2151V10.2151C2.79126 8.56509 4.12173 7.22509 5.77173 7.21509L1.50122 2.94458C1.11149 2.55465 1.11154 1.92536 1.50122 1.5354C1.68805 1.34815 1.94178 1.24243 2.2063 1.24243ZM8.79126 17.2151C8.79135 17.765 9.24132 18.2151 9.79126 18.2151H15.7913C16.0613 18.2151 16.3015 18.1048 16.4915 17.9348L11.7717 13.2151H8.79126V17.2151ZM19.7913 7.21509C21.4513 7.21509 22.7913 8.55509 22.7913 10.2151V14.2151C22.7912 15.315 21.8912 16.2151 20.7913 16.2151H20.4211L11.4211 7.21509H19.7913ZM19.7913 9.21509C19.2413 9.21509 18.7913 9.66509 18.7913 10.2151C18.7914 10.765 19.2413 11.2151 19.7913 11.2151C20.3412 11.2151 20.7912 10.765 20.7913 10.2151C20.7913 9.66509 20.3413 9.21509 19.7913 9.21509ZM17.7913 2.21509C18.3413 2.21509 18.7913 2.66509 18.7913 3.21509V5.21509C18.7912 5.76501 18.3412 6.21509 17.7913 6.21509H10.4211L6.94165 2.72485C7.11168 2.42497 7.42135 2.21509 7.79126 2.21509H17.7913Z" fill="#2F455C"/>
</g>
</svg>
