<svg width="24" height="24" viewBox="0 0 24 24" fill="none" xmlns="http://www.w3.org/2000/svg">
<g id="Communication/sentiment-satisfied_alt">
<path id="Icon Shape" d="M11.9902 2C17.5201 2.00013 22 6.48008 22 12C22 17.5199 17.5201 21.9999 11.9902 22C6.47023 22 2 17.52 2 12C2 6.48 6.47023 2 11.9902 2ZM12 4C7.58 4 4 7.58 4 12C4 16.42 7.58 20 12 20C16.42 20 20 16.42 20 12C20 7.58 16.42 4 12 4ZM7.58984 13.8799C7.93984 13.6599 8.40012 13.7701 8.62012 14.1201C9.36013 15.3 10.6201 16 12 16C13.38 16 14.6399 15.2999 15.3799 14.1299C15.5899 13.7799 16.0602 13.6697 16.4102 13.8896C16.7601 14.1096 16.8702 14.57 16.6504 14.9199C15.6304 16.5299 13.9 17.5 12 17.5C10.1 17.5 8.36961 16.5402 7.34961 14.9102C7.12968 14.5602 7.23991 14.0999 7.58984 13.8799ZM8.5 8C9.32843 8 10 8.67157 10 9.5C10 10.3284 9.32843 11 8.5 11C7.67157 11 7 10.3284 7 9.5C7 8.67157 7.67157 8 8.5 8ZM15.5 8C16.3284 8 17 8.67157 17 9.5C17 10.3284 16.3284 11 15.5 11C14.6716 11 14 10.3284 14 9.5C14 8.67157 14.6716 8 15.5 8Z" fill="#2F455C"/>
</g>
</svg>
