<svg width="24" height="24" viewBox="0 0 24 24" fill="none" xmlns="http://www.w3.org/2000/svg">
<g id="Communication/location-off">
<path id="Icon Shape" d="M4.34504 3.53247C4.60947 3.53248 4.86331 3.63732 5.05012 3.82446L20.3597 19.1545C20.7497 19.5445 20.7497 20.1747 20.3597 20.5647C19.9697 20.9546 19.3395 20.9547 18.9495 20.5647L16.3001 17.9153C15.3102 19.3652 14.3397 20.5953 13.6898 21.3752C13.2898 21.8548 12.5605 21.8547 12.1605 21.3752C10.3505 19.1852 5.93 13.4349 5.93 9.26489C5.93 8.73506 5.99975 8.21517 6.10969 7.70532L3.63996 5.23462C3.25012 4.84461 3.25001 4.21441 3.63996 3.82446C3.82677 3.63733 4.08061 3.53247 4.34504 3.53247ZM12.93 2.26489C16.8 2.26489 19.93 5.39489 19.93 9.26489C19.93 10.8349 19.3002 12.6252 18.4202 14.3752L14.8704 10.8245C15.2202 10.3945 15.43 9.85468 15.43 9.26489C15.43 7.88489 14.31 6.76489 12.93 6.76489C12.3402 6.76489 11.8004 6.97486 11.3704 7.3147L8.18 4.12524C9.43 2.97524 11.09 2.26489 12.93 2.26489Z" fill="#2F455C"/>
</g>
</svg>
