<svg width="24" height="24" viewBox="0 0 24 24" fill="none" xmlns="http://www.w3.org/2000/svg">
<g id="Communication/business">
<path id="Icon Shape" d="M10 3C11.1 3 12 3.9 12 5V7H20C21.1 7 22 7.9 22 9V19C22 20.1 21.1 21 20 21H4C2.9 21 2 20.1 2 19V5C2 3.9 2.9 3 4 3H10ZM4 19H6V17H4V19ZM8 19H10V17H8V19ZM12 11H14V13H12V15H14V17H12V19H19C19.55 19 20 18.55 20 18V10C20 9.45 19.55 9 19 9H12V11ZM18 15V17H16V15H18ZM4 15H6V13H4V15ZM8 15H10V13H8V15ZM18 13H16V11H18V13ZM4 11H6V9H4V11ZM8 11H10V9H8V11ZM4 7H6V5H4V7ZM8 7H10V5H8V7Z" fill="#2F455C"/>
</g>
</svg>
