<svg width="24" height="24" viewBox="0 0 24 24" fill="none" xmlns="http://www.w3.org/2000/svg">
<g id="Communication/comment">
<path id="Icon Shape" d="M20 2C21.1 2 21.9902 2.9 21.9902 4L22 22L18 18H4C2.9 18 2 17.1 2 16V4C2 2.9 2.9 2 4 2H20ZM7 12C6.45 12 6 12.45 6 13C6 13.55 6.45 14 7 14H17C17.55 14 18 13.55 18 13C18 12.45 17.55 12 17 12H7ZM7 9C6.45 9 6 9.45 6 10C6 10.55 6.45 11 7 11H17C17.55 11 18 10.55 18 10C18 9.45 17.55 9 17 9H7ZM7 6C6.45 6 6 6.45 6 7C6 7.55 6.45 8 7 8H17C17.55 8 18 7.55 18 7C18 6.45 17.55 6 17 6H7Z" fill="#2F455C"/>
</g>
</svg>
