<svg width="24" height="24" viewBox="0 0 24 24" fill="none" xmlns="http://www.w3.org/2000/svg">
<g id="Communication/screen-share">
<path id="Icon Shape" d="M20 4C21.1 4 22 4.9 22 6V16C22 17.1 21.1 18 20 18H23C23.55 18 24 18.45 24 19C24 19.55 23.55 20 23 20H1C0.45 20 0 19.55 0 19C0 18.45 0.45 18 1 18H4C2.89 18 2 17.1 2 16V6C2 4.9 2.9 4 4 4H20ZM13 9.12988C9.11 9.66988 7.56 12.33 7 15C8.39 13.13 10.22 12.2803 13 12.2803V14.4697L16.6104 11.0898C16.82 10.8899 16.8199 10.5603 16.6104 10.3604L13 7V9.12988Z" fill="#2F455C"/>
</g>
</svg>
