<svg width="24" height="24" viewBox="0 0 24 24" fill="none" xmlns="http://www.w3.org/2000/svg">
<g id="Communication/person-add_disabled">
<path id="Icon Shape" d="M1.7063 1.27246C1.9708 1.27247 2.22456 1.37819 2.41138 1.56543L21.8713 21.0254C22.261 21.4153 22.261 22.0446 21.8713 22.4346C21.4813 22.8246 20.8512 22.8246 20.4612 22.4346L17.1711 19.1445H8.29126C7.74126 19.1445 7.29126 18.6945 7.29126 18.1445V17.1445C7.29162 15.4449 9.48122 14.2553 11.6809 13.6553L9.17114 11.1445H6.29126V13.1445C6.29126 13.6945 5.84126 14.1445 5.29126 14.1445C4.74126 14.1445 4.29126 13.6945 4.29126 13.1445V11.1445H2.29126C1.74126 11.1445 1.29126 10.6945 1.29126 10.1445C1.29149 9.59472 1.7414 9.14453 2.29126 9.14453H4.29126V6.26465L1.00122 2.97461C0.611493 2.58468 0.611542 1.95539 1.00122 1.56543C1.18805 1.37818 1.44178 1.27246 1.7063 1.27246ZM16.9817 13.3047C19.7315 13.6447 23.2908 15.0049 23.2913 17.1445V18.1445C23.2913 18.5445 23.0509 18.8749 22.7209 19.0449L16.9817 13.3047ZM15.2913 3.14453C17.5011 3.14453 19.291 4.93472 19.2913 7.14453C19.2913 9.35453 17.5013 11.1445 15.2913 11.1445C15.1114 11.1445 14.9416 11.1147 14.7717 11.0947L11.3411 7.66504C11.3211 7.49504 11.2913 7.32453 11.2913 7.14453C11.2915 4.93472 13.0814 3.14453 15.2913 3.14453ZM6.29126 9.14453H7.17114L6.29126 8.26465V9.14453Z" fill="#2F455C"/>
</g>
</svg>
