<svg width="24" height="24" viewBox="0 0 24 24" fill="none" xmlns="http://www.w3.org/2000/svg">
<g id="Communication/call-missed">
<path id="Icon Shape" d="M19.0987 7.70366L12.2087 14.5937L6.61875 9.00366H10.2087C10.7587 9.00366 11.2087 8.55366 11.2087 8.00366C11.2087 7.45366 10.7587 7.00366 10.2087 7.00366H4.20875C3.65875 7.00366 3.20875 7.45366 3.20875 8.00366V14.0037C3.20875 14.5537 3.65875 15.0037 4.20875 15.0037C4.75875 15.0037 5.20875 14.5537 5.20875 14.0037V10.4137L11.4987 16.7037C11.8887 17.0937 12.5187 17.0937 12.9087 16.7037L20.4987 9.11366C20.8887 8.72366 20.8887 8.09366 20.4987 7.70366C20.1187 7.32366 19.4787 7.32366 19.0987 7.70366Z" fill="#2F455C"/>
</g>
</svg>
