<svg width="24" height="24" viewBox="0 0 24 24" fill="none" xmlns="http://www.w3.org/2000/svg">
<g id="Communication/stop-screen_share">
<path id="Icon Shape" d="M1.80957 2.13989C2.19957 1.74989 2.84047 1.74989 3.23047 2.13989L21.54 20.4495C21.93 20.8394 21.9299 21.4696 21.54 21.8596C21.15 22.2496 20.5199 22.2496 20.1299 21.8596L18.1299 19.8596H1C0.45 19.8596 0 19.4096 0 18.8596C0.000170826 18.3098 0.450104 17.8596 1 17.8596H3.98047C2.89061 17.8496 2.01 16.9602 2.00977 15.8704L2 15.8596C2 15.7985 2.0002 6.77821 1.99023 5.88013C1.99023 4.982 2.64765 4.41277 2.65039 4.4104L1.80957 3.55005C1.41979 3.1601 1.41982 2.52986 1.80957 2.13989ZM23 17.8596C23.5499 17.8596 23.9998 18.3098 24 18.8596C24 19.1896 23.8298 19.4697 23.5898 19.6497L21.7998 17.8596H23ZM20.0195 3.88013C21.1094 3.88013 21.9998 4.76976 22 5.85962V15.8596C22 16.4696 21.7298 17.0004 21.2998 17.3704L15.7197 11.7903L16.6104 10.9602C16.8203 10.7602 16.8202 10.4297 16.6104 10.2297L15 8.72974L13.8398 7.63989C13.5198 7.35004 13 7.57006 13 8.01001V8.9895C12.9801 8.9895 12.9603 9.00006 12.9404 9.01001L7.7998 3.88013H20.0195ZM9.08008 10.8098C7.94016 11.9297 7.31002 13.3797 7 14.8596C7.95997 13.5697 9.13001 12.7796 10.6699 12.3997L9.08008 10.8098Z" fill="#2F455C"/>
</g>
</svg>
