<svg width="24" height="24" viewBox="0 0 24 24" fill="none" xmlns="http://www.w3.org/2000/svg">
<g id="Communication/phonelink-erase">
<path id="Icon Shape" d="M18.855 1C19.955 1 20.855 1.9 20.855 3V21C20.855 22.1 19.955 23 18.855 23H8.85497C7.75498 23 6.85497 22.1 6.85497 21V19C6.85497 18.45 7.30498 18 7.85497 18C8.40497 18 8.85497 18.45 8.85497 19V20H18.855V4H8.85497V5C8.85497 5.55 8.40497 6 7.85497 6C7.30498 5.99998 6.85497 5.54999 6.85497 5V3C6.85497 1.90001 7.75498 1.00002 8.85497 1H18.855ZM11.355 7.7002C11.635 7.4202 12.075 7.4202 12.355 7.7002C12.6349 7.9802 12.6349 8.42022 12.355 8.7002L8.85497 12.2002L12.355 15.7002C12.6349 15.9802 12.6349 16.4202 12.355 16.7002C12.075 16.9801 11.6349 16.9801 11.355 16.7002L7.85497 13.2002L4.35497 16.7002C4.07499 16.9801 3.63493 16.9801 3.35497 16.7002C3.075 16.4202 3.07508 15.9802 3.35497 15.7002L6.85497 12.2002L3.35497 8.7002C3.075 8.42023 3.07508 7.9802 3.35497 7.7002C3.63497 7.4202 4.07497 7.4202 4.35497 7.7002L7.85497 11.2002L11.355 7.7002Z" fill="#2F455C"/>
</g>
</svg>
