<svg width="24" height="24" viewBox="0 0 24 24" fill="none" xmlns="http://www.w3.org/2000/svg">
<g id="Communication/contact-phone">
<path id="Icon Shape" d="M22 3C23.1 3 24 3.9 24 5L23.9902 19C23.9902 20.1 23.1 21 22 21H2C0.9 21 0 20.1 0 19V5C0 3.9 0.9 3 2 3H22ZM8 13.9004C6 13.9004 2 15 2 17V18H14V17C14 15 10 13.9004 8 13.9004ZM19.3301 6.33008C19.1501 6.1501 18.8602 6.12011 18.6602 6.29004C17.5302 7.25002 16.6903 8.53003 16.2803 10C16.1003 10.64 16 11.31 16 12C16 12.69 16.1003 13.3602 16.2803 13.9902C16.6873 15.4358 17.5159 16.7276 18.6602 17.7002C18.8502 17.86 19.1501 17.8401 19.3301 17.6602L20.6904 16.2998C20.87 16.1299 20.8898 15.8502 20.7402 15.6504L19.6396 14.2002C19.5397 14.0703 19.4001 14.0001 19.2402 14H17.8496C17.6297 13.3701 17.5 12.6901 17.5 11.9902C17.5 11.2904 17.6297 10.6201 17.8496 9.99023H19.2402C19.4001 9.99017 19.5497 9.91985 19.6396 9.79004L20.7402 8.33984C20.8899 8.15 20.87 7.87038 20.6904 7.69043L19.3301 6.33008ZM8 6C6.34 6 5 7.34 5 9C5 10.66 6.34 12 8 12C9.66 12 11 10.66 11 9C11 7.34 9.66 6 8 6Z" fill="#2F455C"/>
</g>
</svg>
