<svg width="24" height="24" viewBox="0 0 24 24" fill="none" xmlns="http://www.w3.org/2000/svg">
<g id="Communication/cancel-presentation">
<path id="Icon Shape" d="M21 3C22.1 3 23 3.9 23 5V19C23 20.1 22.1 21 21 21H3C1.9 21 1 20.1 1 19V5C1 3.9 1.9 3 3 3H21ZM4 5C3.45 5 3 5.45 3 6V18C3 18.55 3.45 19 4 19H20C20.55 19 21 18.55 21 18V6C21 5.45 20.55 5 20 5H4ZM14.585 8.40723C14.8495 8.40723 15.1032 8.51294 15.29 8.7002C15.6799 9.09021 15.6798 9.73039 15.2998 10.1104L13.4102 12L15.2998 13.8896C15.6898 14.2796 15.6898 14.9098 15.2998 15.2998C14.9098 15.6898 14.2796 15.6898 13.8896 15.2998L12 13.4102L10.1104 15.2998C9.72035 15.6898 9.0902 15.6898 8.7002 15.2998C8.3102 14.9098 8.3102 14.2796 8.7002 13.8896L10.5898 12L8.7002 10.1104C8.3102 9.72035 8.3102 9.0902 8.7002 8.7002C8.88703 8.51294 9.14076 8.40723 9.40527 8.40723C9.66969 8.4073 9.92358 8.51301 10.1104 8.7002L12 10.5898L13.8799 8.7002C14.0667 8.51295 14.3205 8.40724 14.585 8.40723Z" fill="#2F455C"/>
</g>
</svg>
