<svg width="24" height="24" viewBox="0 0 24 24" fill="none" xmlns="http://www.w3.org/2000/svg">
<g id="Communication/mobile-screen_share">
<path id="Icon Shape" d="M16.9952 1C18.0951 1.00013 18.9952 1.90008 18.9952 3V21C18.9952 22.0999 18.0951 22.9999 16.9952 23H6.99523C5.89523 23 5.005 22.1 5.005 21V3C5.005 1.9 5.89523 1 6.99523 1H16.9952ZM6.99523 19H16.9952V5H6.99523V19ZM15.6046 11.6201C15.8146 11.8201 15.8146 12.1496 15.6046 12.3496L12.795 14.9697V13.2197C10.575 13.2197 9.10523 13.9004 7.99523 15.4004C8.44523 13.2604 9.68504 11.1302 12.795 10.7002V9L15.6046 11.6201Z" fill="#2F455C"/>
</g>
</svg>
