<svg width="24" height="24" viewBox="0 0 24 24" fill="none" xmlns="http://www.w3.org/2000/svg">
<g id="Communication/call-received">
<path id="Icon Shape" d="M19.0075 5.00123C18.8207 4.81397 18.567 4.70874 18.3025 4.70874C18.038 4.70874 17.7843 4.81397 17.5975 5.00123L6.7075 15.8812V10.2912C6.7075 9.74123 6.2575 9.29123 5.7075 9.29123C5.1575 9.29123 4.7075 9.74123 4.7075 10.2912V18.2912C4.7075 18.8412 5.1575 19.2912 5.7075 19.2912H13.7075C14.2575 19.2912 14.7075 18.8412 14.7075 18.2912C14.7075 17.7412 14.2575 17.2912 13.7075 17.2912H8.1175L19.0075 6.40123C19.3875 6.02123 19.3875 5.38123 19.0075 5.00123Z" fill="#2F455C"/>
</g>
</svg>
