<svg width="24" height="24" viewBox="0 0 24 24" fill="none" xmlns="http://www.w3.org/2000/svg">
<g id="Communication/unsubscribe">
<path id="Icon Shape" d="M18 13.5C19.93 13.5 21.5 15.07 21.5 17C21.5 18.93 19.93 20.5 18 20.5C16.07 20.5 14.5 18.93 14.5 17C14.5 15.07 16.07 13.5 18 13.5ZM18.5 3.5C19.6 3.5 20.4902 4.4 20.4902 5.5V12.6904C19.7502 12.2604 18.92 12 18 12C15.24 12 13 14.24 13 17C13 17.17 13.0298 17.33 13.0498 17.5H4.5C3.4 17.5 2.5 16.6 2.5 15.5V5.5C2.5 4.4 3.4 3.5 4.5 3.5H18.5ZM16.5 16.5C16.22 16.5 16 16.72 16 17C16 17.28 16.22 17.5 16.5 17.5H19.5C19.78 17.5 20 17.28 20 17C20 16.72 19.78 16.5 19.5 16.5H16.5ZM18.5 6.9502C18.5 6.2802 17.8 5.85039 17.21 6.15039L11.5 9L5.79004 6.15039C5.20004 5.85039 4.5 6.2902 4.5 6.9502C4.50007 7.29012 4.69029 7.60003 4.99023 7.75L10.5996 10.5498C11.1595 10.8298 11.8297 10.8297 12.3896 10.5498L18.0098 7.75C18.3097 7.60003 18.4999 7.29012 18.5 6.9502Z" fill="#2F455C"/>
</g>
</svg>
