<svg width="24" height="24" viewBox="0 0 24 24" fill="none" xmlns="http://www.w3.org/2000/svg">
<g id="Communication/live-help">
<path id="Icon Shape" d="M19 1.70874C20.1 1.70874 21 2.60874 21 3.70874V17.7087C21 18.8087 20.1 19.7087 19 19.7087H15L12.7002 21.9988C12.3102 22.3888 11.68 22.3887 11.29 21.9988L9 19.7087H5C3.9 19.7087 3 18.8087 3 17.7087V3.70874C3 2.60874 3.89 1.70874 5 1.70874H19ZM11 17.7087H13V15.7087H11V17.7087ZM12 3.70874C10.18 3.70874 8.65016 4.91886 8.16016 6.57886C8.00021 7.13883 8.40049 7.69897 8.98047 7.69897H9.28027C9.67015 7.69885 9.98038 7.42826 10.1104 7.05835C10.3805 6.27858 11.1302 5.70874 12 5.70874C13.1 5.70874 14 6.60874 14 7.70874C14 8.25874 13.7799 8.7589 13.4199 9.1189L12.1797 10.3787C11.5698 10.9986 11.1501 11.8087 11.04 12.7185C10.9701 13.2384 11.3698 13.6988 11.8896 13.699H12.2002C12.6399 13.6989 12.9896 13.3689 13.0498 12.9392C13.1798 11.9792 13.5899 11.4687 14.1699 10.8787L15.0703 9.95874C15.6402 9.38875 16 8.58866 16 7.70874C16 5.49874 14.21 3.70874 12 3.70874Z" fill="#2F455C"/>
</g>
</svg>
