<svg width="24" height="24" viewBox="0 0 24 24" fill="none" xmlns="http://www.w3.org/2000/svg">
<g id="Communication/rss-feed">
<path id="Icon Shape" d="M6.4364 15.3835C7.64038 15.3835 8.61707 16.3602 8.61707 17.5642C8.61695 18.7681 7.64031 19.7439 6.4364 19.7439C5.23264 19.7437 4.25683 18.768 4.25671 17.5642C4.25671 16.3603 5.23256 15.3837 6.4364 15.3835ZM5.84656 9.97437C10.0466 10.6444 13.357 13.9541 14.037 18.1541C14.1669 18.994 13.4767 19.7438 12.6268 19.7439C11.9169 19.7439 11.3466 19.2142 11.2264 18.5144C10.7065 15.5946 8.40695 13.2843 5.48718 12.7742C4.78718 12.6542 4.25671 12.0838 4.25671 11.3738C4.25684 10.5239 5.00667 9.83444 5.84656 9.97437ZM5.81628 4.2644C13.1663 4.9944 19.0072 10.8443 19.7372 18.1843C19.8169 19.0142 19.1562 19.7439 18.3163 19.7439C17.5865 19.7437 16.9869 19.1935 16.9169 18.4636C16.3167 12.4538 11.5361 7.67396 5.52625 7.07397C4.80647 7.00376 4.25671 6.40343 4.25671 5.67358C4.25696 4.8439 4.98658 4.17467 5.81628 4.2644Z" fill="#2F455C"/>
</g>
</svg>
