<svg width="24" height="24" viewBox="0 0 24 24" fill="none" xmlns="http://www.w3.org/2000/svg">
<g id="Communication/voicemail">
<path id="Icon Shape" d="M18.5 6.5C21.54 6.5 24 8.96 24 12C24 15.04 21.54 17.5 18.5 17.5H5.5C2.46 17.5 0 15.04 0 12C0 8.96 2.46 6.5 5.5 6.5C8.54 6.5 11 8.96 11 12C11 13.3299 10.5302 14.55 9.74023 15.5H14.2598C13.4698 14.55 13 13.3299 13 12C13 8.96 15.46 6.5 18.5 6.5ZM5.5 8.5C3.57 8.5 2 10.07 2 12C2 13.93 3.57 15.5 5.5 15.5C7.43 15.5 9 13.93 9 12C9 10.07 7.43 8.5 5.5 8.5ZM18.5 8.5C16.57 8.5 15 10.07 15 12C15 13.93 16.57 15.5 18.5 15.5C20.43 15.5 22 13.93 22 12C22 10.07 20.43 8.5 18.5 8.5Z" fill="#2F455C"/>
</g>
</svg>
