<svg width="24" height="24" viewBox="0 0 24 24" fill="none" xmlns="http://www.w3.org/2000/svg">
<g id="Communication/portable-wifi_off">
<path id="Icon Shape" d="M2.70996 3.52905C3.09996 3.13905 3.73988 3.13905 4.12988 3.52905L20.4297 19.8386C20.8197 20.2286 20.8197 20.8588 20.4297 21.2488C20.0397 21.6386 19.4095 21.6387 19.0195 21.2488L12.21 14.4392L12 14.4587C10.9 14.4587 10 13.5587 10 12.4587L10.0195 12.2488L8.44043 10.6687C8.17043 11.2087 8 11.8087 8 12.4587C8 13.6387 8.51991 14.6887 9.33984 15.4187C9.69975 15.7386 9.81006 16.2585 9.57031 16.6785L9.55957 16.6892C9.24939 17.2188 8.51942 17.3684 8.05957 16.9685C6.79978 15.8685 6 14.2586 6 12.4587C6 11.2587 6.35997 10.1387 6.95996 9.20874L5.53027 7.76831C4.57027 9.07831 4 10.6987 4 12.4587C4 15.1087 5.28977 17.4392 7.25977 18.8992C7.65972 19.1992 7.76952 19.7592 7.51953 20.1892C7.21937 20.7088 6.5394 20.8487 6.05957 20.4988C3.59972 18.6788 2 15.7586 2 12.4587C2 10.1489 2.78973 8.02881 4.09961 6.32886L2.70996 4.93921C2.32002 4.54927 2.32014 3.91907 2.70996 3.52905ZM12 2.45874C17.52 2.45874 22 6.93874 22 12.4587C22 14.2187 21.5297 15.8586 20.7197 17.2986L19.2305 15.8083C19.7103 14.7785 20 13.6585 20 12.4587C20 8.03874 16.42 4.45874 12 4.45874C10.8 4.45874 9.65965 4.73851 8.63965 5.21851L7.16016 3.73901C8.60016 2.93901 10.24 2.45874 12 2.45874ZM12 6.45874C15.31 6.45874 18 9.14874 18 12.4587C18 13.0887 17.89 13.7091 17.71 14.2791L15.9902 12.5691C15.9902 12.5291 16 12.4987 16 12.4587C16 10.2487 14.21 8.45874 12 8.45874C11.9602 8.45874 11.9303 8.46842 11.9004 8.46851L10.1797 6.74878C10.7497 6.56878 11.37 6.45874 12 6.45874Z" fill="#2F455C"/>
</g>
</svg>
