<svg width="24" height="24" viewBox="0 0 24 24" fill="none" xmlns="http://www.w3.org/2000/svg">
<g id="Communication/list-alt">
<path id="Icon Shape" d="M20 3C20.55 3 21 3.45 21 4V20C21 20.55 20.55 21 20 21H4C3.45 21 3 20.55 3 20V4C3 3.45 3.45 3 4 3H20ZM5 5V19H19V5H5ZM9 15V17H7V15H9ZM16 15C16.55 15 17 15.45 17 16C17 16.55 16.55 17 16 17H12C11.45 17 11 16.55 11 16C11 15.45 11.45 15 12 15H16ZM9 11V13H7V11H9ZM16 11C16.55 11 17 11.45 17 12C17 12.55 16.55 13 16 13H12C11.45 13 11 12.55 11 12C11 11.45 11.45 11 12 11H16ZM9 7V9H7V7H9ZM16 7C16.55 7 17 7.45 17 8C17 8.55 16.55 9 16 9H12C11.45 9 11 8.55 11 8C11 7.45 11.45 7 12 7H16Z" fill="#2F455C"/>
</g>
</svg>
