<svg width="24" height="24" viewBox="0 0 24 24" fill="none" xmlns="http://www.w3.org/2000/svg">
<g id="Communication/vpn-key">
<path id="Icon Shape" d="M5.76889 6.12109C8.89882 5.50111 11.6987 7.31107 12.6488 10.001H20.9994C22.0992 10.0011 22.9993 10.9011 22.9994 12.001C22.9994 13.1009 22.0992 14.0008 20.9994 14.001V16.001C20.9994 17.1009 20.0992 18.0008 18.9994 18.001C17.8994 18.001 16.9994 17.101 16.9994 16.001V14.001H12.6488C11.8288 16.3309 9.60923 18.0009 6.99936 18.001C3.2594 18.001 0.319107 14.5711 1.139 10.7012C1.61899 8.41125 3.47899 6.58117 5.76889 6.12109ZM6.99936 10.001C5.89938 10.001 4.99939 10.901 4.99936 12.001C4.99936 13.101 5.89936 14.001 6.99936 14.001C8.09925 14.0008 8.99936 13.1009 8.99936 12.001C8.99932 10.9011 8.09922 10.0011 6.99936 10.001Z" fill="#2F455C"/>
</g>
</svg>
