<svg width="24" height="24" viewBox="0 0 24 24" fill="none" xmlns="http://www.w3.org/2000/svg">
<g id="Communication/email">
<path id="Icon Shape" d="M20 4C21.1 4 22 4.9 22 6V18C22 19.1 21.1 20 20 20H4C2.9 20 2 19.1 2 18L2.00977 6C2.00977 4.9 2.9 4 4 4H20ZM20 7.53027C20 6.8604 19.2701 6.45993 18.7002 6.80957L12 11L5.2998 6.80957C4.72985 6.45993 4 6.8604 4 7.53027C4.00009 7.82017 4.15047 8.09005 4.40039 8.25L11.4697 12.6699C11.7897 12.8699 12.2103 12.8699 12.5303 12.6699L19.5996 8.25C19.8495 8.09005 19.9999 7.82017 20 7.53027Z" fill="#2F455C"/>
</g>
</svg>
