<svg width="24" height="24" viewBox="0 0 24 24" fill="none" xmlns="http://www.w3.org/2000/svg">
<g id="Communication/present-to_all">
<path id="Icon Shape" d="M21 3C22.11 3 23 3.89 23 5V19C23 20.11 22.11 21 21 21H3C1.89 21 1 20.11 1 19V5C1 3.89 1.89 3 3 3H21ZM4 4.98047C3.45 4.98047 3 5.43047 3 5.98047V18.0195C3 18.5695 3.45 19.0195 4 19.0195H20C20.55 19.0195 21 18.5695 21 18.0195V5.98047C21 5.43047 20.55 4.98047 20 4.98047H4ZM11.6504 8.34961C11.8504 8.15001 12.1605 8.14976 12.3604 8.34961L16 12H14V16H10V12H8L11.6504 8.34961Z" fill="#2F455C"/>
</g>
</svg>
