<svg width="24" height="24" viewBox="0 0 24 24" fill="none" xmlns="http://www.w3.org/2000/svg">
<g id="Communication/add-call">
<path id="Icon Shape" d="M6.74156 3.02295C7.75156 3.02295 8.61203 3.79322 8.72203 4.80322L9.01207 7.32275C9.08207 7.92275 8.87176 8.53338 8.44176 8.96338L6.59215 10.813C8.03214 13.653 10.352 15.9628 13.182 17.4028L15.0218 15.563C15.4518 15.1331 16.0516 14.9238 16.6615 14.9937L19.2015 15.2827C20.2115 15.3927 20.982 16.2534 20.972 17.2534V18.9829C20.972 20.1129 20.0317 21.0529 18.9017 20.9829C10.3718 20.4528 3.54211 13.6332 3.01207 5.09326C2.94207 3.96326 3.88207 3.02295 5.01207 3.02295H6.74156ZM16.9916 3.01318C17.5416 3.01318 17.9916 3.46318 17.9916 4.01318V6.01318H19.9916C20.5416 6.01318 20.9916 6.46318 20.9916 7.01318C20.9916 7.56318 20.5416 8.01318 19.9916 8.01318H17.9916V10.0132C17.9916 10.5632 17.5416 11.0132 16.9916 11.0132C16.4417 11.013 15.9916 10.5631 15.9916 10.0132V8.01318H13.9916C13.4417 8.01303 12.9916 7.56309 12.9916 7.01318C12.9916 6.46328 13.4417 6.01333 13.9916 6.01318H15.9916V4.01318C15.9916 3.46328 16.4417 3.01333 16.9916 3.01318Z" fill="#2F455C"/>
</g>
</svg>
