<svg width="24" height="24" viewBox="0 0 24 24" fill="none" xmlns="http://www.w3.org/2000/svg">
<g id="Communication/phonelink-ring">
<path id="Icon Shape" d="M14.0144 1C15.1144 1 16.0144 1.9 16.0144 3V21C16.0144 22.1 15.1144 23 14.0144 23H4.01437C2.91437 23 2.01437 22.1 2.01437 21V3C2.01437 1.9 2.91437 1 4.01437 1H14.0144ZM4.01437 20H14.0144V4H4.01437V20ZM19.6042 8.2002C19.9042 7.90026 20.3842 7.93995 20.6443 8.25977C22.4343 10.4598 22.4345 13.5204 20.6345 15.6504C20.3645 15.9602 19.8942 15.9901 19.6042 15.7002L19.5544 15.6504C19.3145 15.4004 19.2948 15.0105 19.5046 14.7305C20.7746 13.0305 20.7841 10.8002 19.5241 9.16016C19.3143 8.88032 19.3244 8.48049 19.5739 8.23047L19.6042 8.2002ZM18.028 10.1738C18.2457 10.2075 18.4335 10.344 18.5339 10.54C19.0339 11.46 19.0346 12.5104 18.5446 13.4004C18.3246 13.8002 17.7748 13.8696 17.4548 13.5498L17.3747 13.4697C17.1747 13.2697 17.1143 12.97 17.2243 12.71C17.4343 12.2201 17.4342 11.6803 17.2243 11.1904C17.1143 10.9304 17.1747 10.6297 17.3747 10.4297L17.4343 10.3701C17.5892 10.2134 17.8103 10.1402 18.028 10.1738Z" fill="#2F455C"/>
</g>
</svg>
