<svg width="24" height="24" viewBox="0 0 24 24" fill="none" xmlns="http://www.w3.org/2000/svg">
<g id="Communication/alternate-email">
<path id="Icon Shape" d="M2.02824 12.7178C1.59831 6.62784 6.62777 1.59837 12.7177 2.02832C18.0077 2.38832 21.998 7.00836 21.998 12.3184V13.4082C21.9979 14.8481 21.1777 16.2181 19.8378 16.748C18.2079 17.398 16.4281 16.7579 15.538 15.5381C14.388 16.7081 12.6378 17.2982 10.7978 16.8682C8.90778 16.4182 7.41805 14.8377 7.07805 12.9277C6.46814 9.50779 9.33824 6.56762 12.7382 7.05762C15.218 7.40777 16.9979 9.66792 16.998 12.1777V13.4277C16.998 14.2177 17.708 14.998 18.498 14.998C19.2879 14.9979 19.998 14.2177 19.998 13.4277V12.3281C19.998 8.59816 17.5779 5.17785 13.9579 4.25781C8.15796 2.75782 2.75804 8.1678 4.24797 13.9678C5.17797 17.5778 8.59805 19.998 12.328 19.998H15.998C16.5479 19.9981 16.998 20.4481 16.998 20.998C16.9979 21.5479 16.5478 21.998 15.998 21.998H12.3075C7.00765 21.9979 2.38824 18.0077 2.02824 12.7178ZM11.998 8.99805C10.338 8.99805 8.99797 10.338 8.99797 11.998C8.99805 13.658 10.338 14.998 11.998 14.998C13.6578 14.998 14.9979 13.6579 14.998 11.998C14.998 10.3381 13.6579 8.99814 11.998 8.99805Z" fill="#2F455C"/>
</g>
</svg>
