<svg width="24" height="24" viewBox="0 0 24 24" fill="none" xmlns="http://www.w3.org/2000/svg">
<g id="Communication/no-sim">
<path id="Icon Shape" d="M3.97504 3.54614C4.23954 3.54615 4.49329 3.65187 4.68011 3.83911L20.7299 19.8987C21.1199 20.2887 21.1199 20.9188 20.7299 21.3088C20.3399 21.6987 19.7097 21.6988 19.3198 21.3088L18.1498 20.1389C17.8599 20.2988 17.53 20.3987 17.1801 20.3987H7.18011C6.08011 20.3987 5.18011 19.4987 5.18011 18.3987V7.40845L5.30023 7.27856L3.26996 5.24829C2.88025 4.85835 2.88026 4.22906 3.26996 3.83911C3.45679 3.65186 3.71052 3.54614 3.97504 3.54614ZM17.1801 2.39868C18.2801 2.39875 19.1801 3.29872 19.1801 4.39868V15.509L8.13031 4.45825L10.1899 2.39868H17.1801Z" fill="#2F455C"/>
</g>
</svg>
