<svg width="24" height="24" viewBox="0 0 24 24" fill="none" xmlns="http://www.w3.org/2000/svg">
<g id="Communication/cell-wifi">
<path id="Icon Shape" d="M7.23955 21.5012H18.8295C19.9295 21.5012 20.8295 20.6012 20.8295 19.5012V7.89122C20.8295 7.00122 19.7495 6.55122 19.1195 7.18122L6.52955 19.7912C5.89955 20.4212 6.34955 21.5012 7.23955 21.5012Z" fill="#2F455C"/>
<path id="Icon Shape_2" d="M7.89954 10.5714L9.82954 12.5014L11.7595 10.5714C10.6895 9.51137 8.96954 9.51137 7.89954 10.5714Z" fill="#2F455C"/>
<path id="Icon Shape_3" d="M7.19953 8.8013C8.76953 7.6813 10.8995 7.6813 12.4695 8.8013C12.8295 9.0613 13.3195 9.0213 13.6295 8.7013C14.0195 8.3113 13.9795 7.6413 13.5295 7.3213C11.3295 5.7513 8.33953 5.7513 6.12953 7.3213C5.67953 7.6413 5.62953 8.3113 6.02953 8.7013C6.34953 9.0213 6.83953 9.0613 7.19953 8.8013Z" fill="#2F455C"/>
<path id="Icon Shape_4" d="M15.0396 6.19138C15.3796 6.47138 15.8696 6.47138 16.1796 6.16138L16.2996 6.04138C16.6496 5.69138 16.6096 5.12138 16.2196 4.80138C12.5496 1.75138 7.19955 1.73138 3.51955 4.74138C3.08955 5.09138 3.04955 5.73138 3.43955 6.11138C3.75955 6.44138 4.27955 6.48138 4.62955 6.19138C7.63955 3.71138 12.0296 3.71138 15.0396 6.19138Z" fill="#2F455C"/>
</g>
</svg>
