<svg width="24" height="24" viewBox="0 0 24 24" fill="none" xmlns="http://www.w3.org/2000/svg">
<g id="Communication/import-contacts">
<path id="Icon Shape" d="M17.505 3.67749C18.9549 3.67749 20.4946 3.89765 21.7745 4.46753C22.5044 4.79748 22.9951 5.50728 22.9952 6.31714V17.5974C22.9952 18.9074 21.7748 19.8678 20.5148 19.5378C19.5349 19.2879 18.4951 19.1775 17.4952 19.1775C15.9352 19.1775 14.2747 19.4274 12.9347 20.0974C12.3447 20.3973 11.6645 20.3974 11.0646 20.0974C9.72464 19.4375 8.06486 19.1775 6.505 19.1775C5.50513 19.1775 4.46537 19.2879 3.48547 19.5378C2.22547 19.8578 1.005 18.8974 1.005 17.5974V6.31714C1.00515 5.50737 1.49497 4.79753 2.22473 4.46753C3.51473 3.89753 5.05501 3.67749 6.505 3.67749C8.455 3.67749 10.555 4.07749 12.005 5.17749C13.455 4.07749 15.555 3.67749 17.505 3.67749ZM17.505 5.67749C15.805 5.67749 13.355 6.32749 12.005 7.17749V18.6873C13.355 17.8373 15.805 17.1873 17.505 17.1873C18.2749 17.1873 19.0549 17.2475 19.8048 17.3875C20.4247 17.4974 21.0047 17.0377 21.005 16.408V6.93726C21.0049 6.46744 20.665 6.05784 20.2052 5.95776C19.3352 5.76776 18.425 5.67749 17.505 5.67749Z" fill="#2F455C"/>
</g>
</svg>
