<svg width="24" height="24" viewBox="0 0 24 24" fill="none" xmlns="http://www.w3.org/2000/svg">
<g id="Communication/desktop-access_disabled">
<path id="Icon Shape" d="M1.51129 1.0625C1.77579 1.06251 2.02955 1.16823 2.21637 1.35547L22.0963 21.2354C22.486 21.6253 22.486 22.2546 22.0963 22.6445C21.7063 23.0345 21.0761 23.0345 20.6861 22.6445L15.3961 17.3555H14.4966V19.3555H15.4966C16.0465 19.3557 16.4966 19.8056 16.4966 20.3555C16.4964 20.9051 16.0463 21.3553 15.4966 21.3555H9.49664C8.9468 21.3555 8.49691 20.9052 8.49664 20.3555C8.49664 19.8055 8.94664 19.3555 9.49664 19.3555H10.4966V17.3555H3.49664C2.3968 17.3555 1.49691 16.4552 1.49664 15.3555V3.44531L0.806213 2.76465C0.416486 2.37472 0.416535 1.74543 0.806213 1.35547C0.993045 1.16822 1.24677 1.0625 1.51129 1.0625ZM21.4859 1.35547C22.5859 1.35547 23.4859 2.25547 23.4859 3.35547V15.3555C23.4856 16.4552 22.5857 17.3555 21.4859 17.3555H21.0464L19.0464 15.3555H20.4966C21.0463 15.3553 21.4964 14.9051 21.4966 14.3555V4.35547C21.4966 3.8056 21.0465 3.35568 20.4966 3.35547H7.04645L5.04645 1.35547H21.4859ZM3.4859 14.3555C3.48616 14.9051 3.93622 15.3553 4.4859 15.3555H13.3961L3.4859 5.44531V14.3555Z" fill="#2F455C"/>
</g>
</svg>
