<svg width="24" height="24" viewBox="0 0 24 24" fill="none" xmlns="http://www.w3.org/2000/svg">
<g id="Communication/call-merge">
<path id="Icon Shape" d="M11.6446 4.00854C11.8445 3.80866 12.1545 3.80888 12.3545 4.00854L15.6446 7.29858C15.9646 7.60858 15.745 8.14917 15.295 8.14917H13.0049V14.5486L7.70512 19.8484C7.31512 20.2384 6.68496 20.2384 6.29496 19.8484C5.90524 19.4585 5.90528 18.8292 6.29496 18.4392L11.0049 13.739V8.14917H8.71488C8.26504 8.14908 8.04479 7.60858 8.35453 7.29858L11.6446 4.00854ZM17.7051 18.4392C18.0947 18.8292 18.0948 19.4585 17.7051 19.8484C17.3251 20.2384 16.685 20.2384 16.295 19.8484L13.5948 17.1492L15.0049 15.739L17.7051 18.4392Z" fill="#2F455C"/>
</g>
</svg>
