<svg width="24" height="24" viewBox="0 0 24 24" fill="none" xmlns="http://www.w3.org/2000/svg">
<g id="Communication/domain-disabled">
<path id="Icon Shape" d="M2.20629 1.25757C2.47079 1.25758 2.72455 1.36329 2.91137 1.55054L22.3909 21.0398C22.7809 21.4298 22.7809 22.06 22.3909 22.45C22.0009 22.8398 21.3716 22.8397 20.9817 22.45L18.6916 20.1599H4.79125C3.69125 20.1599 2.79125 19.2599 2.79125 18.1599V4.2605L1.50121 2.95972C1.11149 2.56979 1.11153 1.94049 1.50121 1.55054C1.68804 1.36328 1.94177 1.25757 2.20629 1.25757ZM10.7913 2.15991C11.8912 2.15991 12.7912 3.05998 12.7913 4.15991V6.15991H20.7913C21.8912 6.15991 22.7912 7.05998 22.7913 8.15991V18.6101L20.7913 16.6101V9.15991C20.7912 8.60998 20.3412 8.15991 19.7913 8.15991H12.7913V8.61011L10.3411 6.15991H10.7913V4.15991H8.79125V4.61011L6.34106 2.15991H10.7913ZM4.79125 18.1599H6.79125V16.1599H4.79125V18.1599ZM8.79125 18.1599H10.7913V16.1599H8.79125V18.1599ZM12.7913 18.1599H16.6916L14.6916 16.1599H12.7913V18.1599ZM4.79125 14.1599H6.79125V12.1599H4.79125V14.1599ZM8.79125 14.1599H10.7913V12.1599H8.79125V14.1599ZM18.7913 12.1599H16.7913V10.1599H18.7913V12.1599ZM4.79125 10.1599H6.79125V8.15991H4.79125V10.1599Z" fill="#2F455C"/>
</g>
</svg>
