<svg width="24" height="24" viewBox="0 0 24 24" fill="none" xmlns="http://www.w3.org/2000/svg">
<g id="Communication/swap-calls">
<path id="Icon Shape" d="M17.65 4.8499L14.86 7.6399C14.54 7.9599 14.76 8.4999 15.21 8.4999H17V15.3799C17 16.3799 16.33 17.3099 15.34 17.4699C14.09 17.6799 13 16.7099 13 15.4999V8.6699C13 6.5799 11.47 4.7199 9.39 4.5199C7.01 4.2899 5 6.1599 5 8.4999V15.4999H3.21C2.76 15.4999 2.54 16.0399 2.86 16.3499L5.65 19.1399C5.85 19.3399 6.16 19.3399 6.36 19.1399L9.15 16.3499C9.46 16.0399 9.24 15.4999 8.79 15.4999H7V8.6199C7 7.6199 7.67 6.6899 8.66 6.5299C9.91 6.3199 11 7.2899 11 8.4999V15.3299C11 17.4199 12.53 19.2799 14.61 19.4799C16.99 19.7099 19 17.8399 19 15.4999V8.4999H20.79C21.24 8.4999 21.46 7.9599 21.14 7.6499L18.35 4.8599C18.16 4.6599 17.84 4.6599 17.65 4.8499Z" fill="#2F455C"/>
</g>
</svg>
