<svg width="24" height="24" viewBox="0 0 24 24" fill="none" xmlns="http://www.w3.org/2000/svg">
<g id="Communication/call-missed_outgoing">
<path id="Icon Shape" d="M3.4925 9.11366L11.0825 16.7037C11.4725 17.0937 12.1025 17.0937 12.4925 16.7037L18.7925 10.4037V14.0037C18.7925 14.5537 19.2425 15.0037 19.7925 15.0037C20.3425 15.0037 20.7925 14.5537 20.7925 14.0037V8.00366C20.7925 7.45366 20.3425 7.00366 19.7925 7.00366H13.7925C13.2425 7.00366 12.7925 7.45366 12.7925 8.00366C12.7925 8.55366 13.2425 9.00366 13.7925 9.00366H17.3825L11.7925 14.5937L4.9025 7.70366C4.71567 7.51641 4.46202 7.41118 4.1975 7.41118C3.93299 7.41118 3.67934 7.51641 3.4925 7.70366C3.1125 8.09366 3.1125 8.73366 3.4925 9.11366Z" fill="#2F455C"/>
</g>
</svg>
