<svg width="24" height="24" viewBox="0 0 24 24" fill="none" xmlns="http://www.w3.org/2000/svg">
<g id="Content / move-to_inbox">
<path id="Icon Shape" d="M19 3C20.1 3 21 3.9 21 5V19C21 20.1 20.1 21 19 21H4.99023C3.88023 21 3 20.1 3 19V5C3 3.9 3.88023 3 4.99023 3H19ZM5.99023 5C5.44023 5 4.99023 5.45 4.99023 6V15H8.12988C8.59985 15 8.98033 15.3398 9.11035 15.7998C9.46035 17.0698 10.63 18 12 18C13.37 18 14.5396 17.0698 14.8896 15.7998C15.0197 15.3398 15.4001 15 15.8701 15H19V6C19 5.45 18.55 5 18 5H5.99023ZM14 7V10H16L12.3604 13.6504C12.1605 13.8502 11.8504 13.85 11.6504 13.6504L8 10H10V7H14Z" fill="#2F455C"/>
</g>
</svg>
