<svg width="24" height="24" viewBox="0 0 24 24" fill="none" xmlns="http://www.w3.org/2000/svg">
<g id="Content / archive">
<path id="Icon Shape" d="M18 3C18.47 3 18.8804 3.2098 19.1504 3.5498L20.54 5.23047C20.8299 5.57043 21 6.02014 21 6.5V19C21 20.1 20.1 21 19 21H5C3.9 21 3 20.1 3 19V6.5C3 6.02014 3.17011 5.57043 3.45996 5.23047L4.83984 3.5498C5.11984 3.20983 5.53002 3 6 3H18ZM10 12H6.5L11.6504 17.1504C11.8403 17.3399 12.1597 17.3399 12.3496 17.1504L17.5 12H14V10H10V12ZM5.92969 4L5.12012 5H18.8701L17.9297 4H5.92969Z" fill="#2F455C"/>
</g>
</svg>
