<svg width="24" height="24" viewBox="0 0 24 24" fill="none" xmlns="http://www.w3.org/2000/svg">
<g id="Content / low-priority">
<path id="Icon Shape" d="M10.999 4.85254C11.5488 4.85277 11.999 5.30268 11.999 5.85254C11.999 6.4024 11.5488 6.85231 10.999 6.85254H8.49899C5.86899 6.85254 3.75852 9.12273 4.01852 11.8027C4.2486 14.1425 6.34841 15.8524 8.6982 15.8525H8.99899V15.0625C8.99902 14.6125 9.5386 14.3929 9.84859 14.7129L11.6386 16.5029C11.8384 16.7029 11.8386 17.013 11.6386 17.2129L9.84859 19.0029C9.53857 19.3127 8.99899 19.0923 8.99899 18.6523V17.8525H8.72848C5.42863 17.8525 2.47871 15.4927 2.05856 12.2129C1.53856 8.25289 4.63899 4.85254 8.49899 4.85254H10.999ZM20.999 15.8525C21.5488 15.8528 21.999 16.3027 21.999 16.8525C21.999 17.4024 21.5488 17.8523 20.999 17.8525H14.999C14.449 17.8525 13.999 17.4025 13.999 16.8525C13.999 16.3025 14.449 15.8525 14.999 15.8525H20.999ZM20.999 10.3525C21.5488 10.3528 21.999 10.8027 21.999 11.3525C21.999 11.9024 21.5488 12.3523 20.999 12.3525H14.999C14.449 12.3525 13.999 11.9025 13.999 11.3525C13.999 10.8025 14.449 10.3525 14.999 10.3525H20.999ZM20.999 4.85254C21.5488 4.85277 21.999 5.30268 21.999 5.85254C21.999 6.4024 21.5488 6.85231 20.999 6.85254H14.999C14.449 6.85254 13.999 6.40254 13.999 5.85254C13.999 5.30254 14.449 4.85254 14.999 4.85254H20.999Z" fill="#2F455C"/>
</g>
</svg>
