<svg width="24" height="24" viewBox="0 0 24 24" fill="none" xmlns="http://www.w3.org/2000/svg">
<g id="Content / how-to_vote">
<path id="Icon Shape" d="M6.83008 13.001L8.83008 15.001H6.78027L5 17.001H19L17.2305 15.001H15.3203L17.3203 13.001H17.5898C17.8498 13.001 18.11 13.111 18.29 13.291L20.4102 15.4102C20.79 15.79 20.9999 16.3003 21 16.8301V20.001C20.9998 21.1108 20.0999 22.001 19 22.001H5C3.90014 22.001 3.00023 21.1008 3 20.001V16.8301C3.00013 16.3003 3.21019 15.79 3.58008 15.4102L5.7002 13.291C5.8902 13.111 6.14016 13.001 6.41016 13.001H6.83008ZM12.7598 2.29102C13.1498 1.90102 13.7802 1.90078 14.1602 2.30078L19.1104 7.25098C19.4998 7.64088 19.4998 8.27026 19.1104 8.66016L12.75 15.0205C12.36 15.4105 11.7298 15.4105 11.3398 15.0205L6.38965 10.0703C5.99995 9.68029 5.99975 9.05006 6.38965 8.66016L12.7598 2.29102ZM8.50977 9.36035L12.0498 12.9004L17 7.9502L13.46 4.41016L8.50977 9.36035Z" fill="#2F455C"/>
</g>
</svg>
