<svg width="24" height="24" viewBox="0 0 24 24" fill="none" xmlns="http://www.w3.org/2000/svg">
<g id="Content / text-format">
<path id="Icon Shape" d="M18 17.5C18.55 17.5 19 17.95 19 18.5C19 19.05 18.55 19.5 18 19.5H6C5.45 19.5 5 19.05 5 18.5C5 17.95 5.45 17.5 6 17.5H18ZM12 4.5C12.46 4.5 12.8698 4.77043 13.0498 5.19043L16.9297 14.1602C17.1997 14.7902 16.7398 15.5 16.0498 15.5C15.66 15.4999 15.3102 15.2601 15.1602 14.9004L14.5 13.2998H9.5L8.84961 14.9004C8.6995 15.2601 8.34979 15.5 7.95996 15.5C7.26999 15.5 6.80034 14.7901 7.07031 14.1602L10.9502 5.19043C11.1302 4.77043 11.54 4.5 12 4.5ZM10.1299 11.5H13.8701L12 6.48047L10.1299 11.5Z" fill="#2F455C"/>
</g>
</svg>
