<svg width="24" height="24" viewBox="0 0 24 24" fill="none" xmlns="http://www.w3.org/2000/svg">
<g id="Content / where-to_vote">
<path id="Icon Shape" d="M12 2.26501C15.86 2.26501 19 5.40501 19 9.26501C19 13.435 14.5798 19.1854 12.7598 21.3754C12.3598 21.8549 11.6305 21.8548 11.2305 21.3754C9.42047 19.1854 5 13.435 5 9.26501C5 5.40501 8.14 2.26501 12 2.26501ZM16.3203 7.00525C15.9303 6.61528 15.2904 6.61533 14.9004 7.00525L10.4805 11.4252L9.12012 10.0648C8.73018 9.67492 8.0902 9.67503 7.7002 10.0648C7.31021 10.4548 7.31023 11.0947 7.7002 11.4847L9.76953 13.5551C10.1595 13.945 10.7897 13.9449 11.1797 13.5551L16.3096 8.42517C16.6995 8.03526 16.7 7.40526 16.3203 7.00525Z" fill="#2F455C"/>
</g>
</svg>
