<svg width="24" height="24" viewBox="0 0 24 24" fill="none" xmlns="http://www.w3.org/2000/svg">
<g id="Content / how-to_reg">
<path id="Icon Shape" d="M19.5979 13.1641C19.9636 12.7984 20.5399 12.7755 20.9319 13.0957L21.0178 13.1738C21.3976 13.5637 21.3974 14.1835 21.0178 14.5635L15.8772 19.7441C15.4872 20.1338 14.8472 20.134 14.4573 19.7441L12.3879 17.6543C12.0079 17.2643 12.0079 16.6437 12.3879 16.2637L12.3977 16.2539C12.7876 15.864 13.4171 15.8641 13.7971 16.2539L15.1672 17.624L19.5979 13.1641ZM10.6975 13.9639C11.0175 13.9639 11.3075 13.9834 11.6975 14.0234L10.8577 14.8438C9.66777 16.0036 9.6575 17.9235 10.8371 19.1035L11.6975 19.9639H2.69749V17.9639C2.69749 15.3039 8.02749 13.9639 10.6975 13.9639ZM10.6975 3.96387C12.9075 3.96387 14.6975 5.75387 14.6975 7.96387C14.6975 10.1739 12.9075 11.9639 10.6975 11.9639C8.48749 11.9639 6.69749 10.1739 6.69749 7.96387C6.69749 5.75387 8.48749 3.96387 10.6975 3.96387Z" fill="#2F455C"/>
</g>
</svg>
