<svg width="24" height="24" viewBox="0 0 24 24" fill="none" xmlns="http://www.w3.org/2000/svg">
<g id="Content / link-off">
<path id="Icon Shape" d="M2.7087 3.62988C3.0987 3.23994 3.72888 3.2399 4.11886 3.62988L19.4382 18.96C19.8282 19.35 19.8282 19.9801 19.4382 20.3701C19.0483 20.7597 18.4189 20.7597 18.029 20.3701L14.7282 17.0703H12.9987V15.3398L10.7282 13.0703H8.94893C8.429 13.0703 7.99885 12.64 7.99874 12.1201V12.0195C7.99893 11.5597 8.32865 11.1896 8.7585 11.0996L6.6589 9C5.01899 9.17999 3.75906 10.6297 3.9089 12.3496C4.0589 13.9796 5.52889 15.1699 7.1589 15.1699H10.0485C10.5685 15.1699 10.9987 15.6001 10.9987 16.1201C10.9986 16.64 10.5685 17.0703 10.0485 17.0703H7.22823C4.58839 17.0701 2.22826 15.1194 2.01827 12.4795C1.83848 10.2097 3.16922 8.2394 5.10909 7.43945L2.7087 5.04004C2.3187 4.65004 2.3187 4.01988 2.7087 3.62988ZM16.8191 7.07031C19.3188 7.07051 21.5681 8.83004 21.9382 11.2998C22.2582 13.4098 21.2489 15.3003 19.6189 16.3203L18.2185 14.9199C19.4284 14.39 20.2389 13.1301 20.0691 11.7002C19.8891 10.1102 18.4483 8.96973 16.8483 8.96973H13.9489C13.4289 8.96973 12.9987 8.53953 12.9987 8.01953C12.999 7.49971 13.4291 7.07031 13.9489 7.07031H16.8191ZM15.0485 11.0703C15.5684 11.0703 15.9985 11.4997 15.9987 12.0195V12.1201C15.9987 12.2799 15.9485 12.4297 15.8786 12.5596L14.3884 11.0703H15.0485Z" fill="#2F455C"/>
</g>
</svg>
