<svg width="24" height="24" viewBox="0 0 24 24" fill="none" xmlns="http://www.w3.org/2000/svg">
<g id="Content / redo">
<path id="Icon Shape" d="M18.4288 10.6C16.5788 8.99 14.1788 8 11.5288 8C7.36883 8 3.78883 10.42 2.08883 13.93C1.76883 14.6 2.12883 15.4 2.83883 15.64C3.42883 15.84 4.06883 15.56 4.33883 15C5.63883 12.34 8.36883 10.5 11.5288 10.5C13.4788 10.5 15.2588 11.22 16.6488 12.38L14.7388 14.29C14.1088 14.92 14.5488 16 15.4388 16H21.0288C21.5788 16 22.0288 15.55 22.0288 15V9.41C22.0288 8.52 20.9488 8.07 20.3188 8.7L18.4288 10.6Z" fill="#2F455C"/>
</g>
</svg>
