<svg width="24" height="24" viewBox="0 0 24 24" fill="none" xmlns="http://www.w3.org/2000/svg">
<g id="Content / unarchive">
<path id="Icon Shape" d="M18 3C18.47 3 18.8802 3.21004 19.1602 3.54004L20.5498 5.21973C20.8298 5.56973 21 6.01 21 6.5V19C21 20.1 20.1 21 19 21H5C3.89 21 3 20.1 3 19V6.5C3 6.01 3.16996 5.56973 3.45996 5.21973L4.84961 3.5498C5.11961 3.2098 5.53 3 6 3H18ZM12.3496 9.84961C12.1597 9.66013 11.8403 9.66013 11.6504 9.84961L6.5 15H10V17H14V15H17.5L12.3496 9.84961ZM5.94043 4L5.12012 5H18.8701L17.9404 4H5.94043Z" fill="#2F455C"/>
</g>
</svg>
