<svg width="24" height="24" viewBox="0 0 24 24" fill="none" xmlns="http://www.w3.org/2000/svg">
<g id="Content / drafts">
<path id="Icon Shape" d="M10.9902 2.93359C11.6101 2.56379 12.3899 2.56379 13.0098 2.93359L21.0498 7.64355C21.6198 7.99355 21.9902 8.62375 21.9902 9.34375L22 19.3438C22 20.4438 21.1 21.3438 20 21.3438H4C2.9 21.3438 2 20.4438 2 19.3438V9.34375C2 8.62375 2.3802 7.99355 2.9502 7.64355L10.9902 2.93359ZM13.0098 4.93359C12.3899 4.56379 11.6101 4.56379 10.9902 4.93359L3.74023 9.18359L10.9404 13.6836C11.5903 14.0834 12.4097 14.0834 13.0596 13.6836L20.2598 9.18359L13.0098 4.93359Z" fill="#2F455C"/>
</g>
</svg>
