<svg width="24" height="24" viewBox="0 0 24 24" fill="none" xmlns="http://www.w3.org/2000/svg">
<g id="Content / gesture">
<path id="Icon Shape" d="M6.36981 3.01001C7.23981 3.01001 8.87958 3.70036 8.87958 5.87036C8.87949 7.23009 8.35966 8.00983 7.57977 9.14966C7.12977 9.80966 6.08016 11.5802 5.73016 12.6702C5.37034 13.7597 5.63983 14.5895 6.08954 14.5901C6.51944 14.5901 6.94987 14.0503 7.19989 13.7502C7.42989 13.5102 8.90993 11.7595 9.48993 11.0295C10.2501 10.0995 12.1806 8.1897 14.4304 8.1897C17.37 8.1899 18.3096 10.74 18.4597 12.3899H19.6804C20.3702 12.3901 20.9303 12.9501 20.9304 13.6399C20.9304 14.3298 20.3702 14.8897 19.6804 14.8899H18.4704C18.0704 19.6599 15.41 20.9905 13.78 20.9905C12.01 20.9905 10.57 19.5996 10.57 17.8997C10.5702 16.1996 12.1702 13.1695 15.9499 12.5295C15.84 11.7496 15.8197 10.7405 14.1901 10.7405C12.9401 10.7405 11.32 12.6899 10.11 14.1799C9.00016 15.5498 8.12033 16.6403 7.05048 16.9504C6.15053 17.2204 5.15984 17.0504 4.40985 16.4905C3.54985 15.8505 3.07001 14.79 3.07001 13.51C3.07001 11.0903 5.67978 7.62117 5.93036 7.20044C6.23034 6.71047 6.72998 5.88001 6.23016 5.67993C6.0502 5.59995 5.72995 5.78973 5.36005 6.10962C4.86007 6.5296 4.12009 6.50999 3.65009 6.05005C3.14011 5.55007 3.1397 4.70975 3.66962 4.22974C4.32958 3.63977 5.27989 3.01008 6.36981 3.01001ZM15.9401 15.0803C13.8001 15.6403 13.07 17.2401 13.07 17.8401C13.0701 18.3 13.5003 18.5598 13.8102 18.5598C14.5102 18.5596 15.6401 17.7698 15.9401 15.0803Z" fill="#2F455C"/>
</g>
</svg>
