<svg width="24" height="24" viewBox="0 0 24 24" fill="none" xmlns="http://www.w3.org/2000/svg">
<g id="Content / delete-sweep">
<path id="Icon Shape" d="M13 18C13 19.1 12.1 20 11 20H5C3.9 20 3 19.1 3 18V8H13V18ZM18 16C18.55 16 19 16.45 19 17C19 17.55 18.55 18 18 18H16C15.45 18 15 17.55 15 17C15 16.45 15.45 16 16 16H18ZM20 12C20.55 12 21 12.45 21 13C21 13.55 20.55 14 20 14H16C15.45 14 15 13.55 15 13C15 12.45 15.45 12 16 12H20ZM21 8C21.55 8 22 8.45 22 9C22 9.55 21.55 10 21 10H16C15.45 10 15 9.55 15 9C15 8.45 15.45 8 16 8H21ZM9.58984 4C9.84984 4 10.11 4.11004 10.29 4.29004L11 5H13C13.55 5 14 5.45 14 6C14 6.55 13.55 7 13 7H3C2.45 7 2 6.55 2 6C2 5.45 2.45 5 3 5H5L5.70996 4.29004C5.88996 4.11004 6.15016 4 6.41016 4H9.58984Z" fill="#2F455C"/>
</g>
</svg>
