<svg width="24" height="24" viewBox="0 0 24 24" fill="none" xmlns="http://www.w3.org/2000/svg">
<g id="Content / font-download">
<path id="Icon Shape" d="M20 2C21.1 2 22 2.9 22 4V20C22 21.1 21.1 22 20 22H4C2.9 22 2 21.1 2 20V4C2 2.9 2.9 2 4 2H20ZM12 5.5C11.44 5.5 10.9397 5.84012 10.7197 6.37012L6.46973 17.1797C6.21973 17.8097 6.69012 18.5 7.37012 18.5C7.78006 18.5 8.14028 18.2501 8.28027 17.8701L9.16992 15.5H14.8096L15.71 17.8799C15.86 18.2499 16.2201 18.5 16.6201 18.5C17.3001 18.4999 17.7695 17.8097 17.5195 17.1797L13.2695 6.37012C13.0595 5.84015 12.56 5.5 12 5.5ZM14.0703 13.5H9.92969L12 7.98047L14.0703 13.5Z" fill="#2F455C"/>
</g>
</svg>
