<svg width="24" height="24" viewBox="0 0 24 24" fill="none" xmlns="http://www.w3.org/2000/svg">
<g id="Content / outlined-flag">
<path id="Icon Shape" d="M11.8799 3.5C12.2599 3.5 12.6103 3.70983 12.7803 4.0498L13.5 5.5H18.5C19.05 5.5 19.5 5.95 19.5 6.5V14.5C19.5 15.05 19.05 15.5 18.5 15.5H13.1104C12.7404 15.5 12.3897 15.2902 12.2197 14.9502L11.5 13.5H6.5V19.5C6.5 20.05 6.05 20.5 5.5 20.5C4.95 20.5 4.5 20.05 4.5 19.5V4.5C4.5 3.95 4.95 3.5 5.5 3.5H11.8799ZM6.5 5.5V11.5H12.5L13.5 13.5H17.5V7.5H12.5L11.5 5.5H6.5Z" fill="#2F455C"/>
</g>
</svg>
