<svg width="24" height="24" viewBox="0 0 24 24" fill="none" xmlns="http://www.w3.org/2000/svg">
<g id="Content / file-copy">
<path id="Icon Shape" d="M14.6699 5C15.1998 5 15.7099 5.20994 16.0898 5.58984L20.9199 10.4199C21.2899 10.7899 21.5 11.3001 21.5 11.8301V21C21.5 22.1 20.6 23 19.5 23H8.49023C7.39023 23 6.5 22.1 6.5 21L6.50977 7C6.50977 5.9 7.4 5 8.5 5H14.6699ZM15.5 1C16.05 1 16.5 1.45 16.5 2C16.5 2.55 16.05 3 15.5 3H5.5C4.95 3 4.5 3.45 4.5 4V16C4.5 16.55 4.05 17 3.5 17C2.95 17 2.5 16.55 2.5 16V3C2.5 1.9 3.4 1 4.5 1H15.5ZM14.5 11C14.5 11.55 14.95 12 15.5 12H20L14.5 6.5V11Z" fill="#2F455C"/>
</g>
</svg>
