<svg width="24" height="24" viewBox="0 0 24 24" fill="none" xmlns="http://www.w3.org/2000/svg">
<g id="Content / block">
<path id="Icon Shape" d="M12 2C17.52 2 22 6.48 22 12C22 17.52 17.52 22 12 22C6.48 22 2 17.52 2 12C2 6.48 6.48 2 12 2ZM7.09961 18.3096C8.44961 19.3696 10.15 20 12 20C16.42 20 20 16.42 20 12C20 10.15 19.3696 8.44961 18.3096 7.09961L7.09961 18.3096ZM12 4C7.58 4 4 7.58 4 12C4 13.85 4.63043 15.5504 5.69043 16.9004L16.9004 5.69043C15.5504 4.63043 13.85 4 12 4Z" fill="#2F455C"/>
</g>
</svg>
