<svg width="24" height="24" viewBox="0 0 24 24" fill="none" xmlns="http://www.w3.org/2000/svg">
<g id="Content / backspace">
<path id="Icon Shape" d="M21.8974 3C22.9974 3 23.8974 3.9 23.8974 5V19C23.8974 20.1 22.9974 21 21.8974 21H6.89742C6.20751 21 5.66757 20.64 5.30758 20.1201L0.26754 12.5596C0.0477505 12.2197 0.0476792 11.7901 0.26754 11.4502L5.30758 3.87988C5.66757 3.34997 6.20751 3.00003 6.89742 3H21.8974ZM18.1972 7.7002C17.8072 7.31023 17.1771 7.31021 16.7871 7.7002L13.8974 10.5898L11.0078 7.7002C10.6178 7.3102 9.98762 7.3102 9.59762 7.7002C9.41039 7.88702 9.30465 8.14077 9.30465 8.40527C9.30472 8.66969 9.41043 8.92358 9.59762 9.11035L12.4873 12L9.59762 14.8896C9.41043 15.0764 9.30472 15.3303 9.30465 15.5947C9.30465 15.8592 9.41039 16.113 9.59762 16.2998C9.98762 16.6898 10.6178 16.6898 11.0078 16.2998L13.8974 13.4102L16.7871 16.2998C17.1771 16.6898 17.8072 16.6898 18.1972 16.2998C18.5772 15.9098 18.5772 15.2696 18.1972 14.8896L15.3076 12L18.1972 9.11035C18.5872 8.72035 18.5872 8.0902 18.1972 7.7002Z" fill="#2F455C"/>
</g>
</svg>
