<svg width="24" height="24" viewBox="0 0 24 24" fill="none" xmlns="http://www.w3.org/2000/svg">
<g id="Content / link">
<path id="Icon Shape" d="M10 7C10.55 7 11 7.45 11 8C11 8.55 10.55 9 10 9H7C5.35 9 4 10.35 4 12C4 13.65 5.35 15 7 15H10C10.55 15 11 15.45 11 16C11 16.55 10.55 17 10 17H7C4.24 17 2 14.76 2 12C2 9.24 4.24 7 7 7H10ZM17 7C19.76 7 22 9.24 22 12C22 14.76 19.76 17 17 17H14C13.45 17 13 16.55 13 16C13 15.45 13.45 15 14 15H17C18.65 15 20 13.65 20 12C20 10.35 18.65 9 17 9H14C13.45 9 13 8.55 13 8C13 7.45 13.45 7 14 7H17ZM15 11C15.55 11 16 11.45 16 12C16 12.55 15.55 13 15 13H9C8.45 13 8 12.55 8 12C8 11.45 8.45 11 9 11H15Z" fill="#2F455C"/>
</g>
</svg>
