<svg width="24" height="24" viewBox="0 0 24 24" fill="none" xmlns="http://www.w3.org/2000/svg">
<g id="Content / waves">
<path id="Icon Shape" d="M17 16.99C18.35 16.99 19.2002 17.4096 19.9502 17.7996C20.3802 18.0296 20.75 18.2201 21.21 18.3201C21.66 18.4201 22 18.78 22 19.24V19.3298C22 19.9098 21.4599 20.35 20.8799 20.24C20.1299 20.09 19.5698 19.7998 19.0498 19.5398C18.3999 19.1899 17.8999 18.9402 17 18.9402C16.1301 18.9402 15.6001 19.2098 14.9502 19.5398C14.2002 19.9198 13.38 20.3396 12 20.3396C10.62 20.3396 9.7998 19.9198 9.0498 19.5398C8.3999 19.1899 7.87991 18.9402 7 18.9402C6.12009 18.9402 5.6001 19.2098 4.9502 19.5398C4.4402 19.7998 3.87965 20.0802 3.13965 20.2302C2.55984 20.3499 2.0001 19.9198 2 19.3201V19.2195C2.00021 18.7697 2.33042 18.4103 2.78027 18.3103C3.24016 18.2003 3.6199 18.0097 4.0498 17.7898C4.7998 17.4098 5.62 16.99 7 16.99C8.38 16.99 9.2002 17.4098 9.9502 17.7898C10.6001 18.1398 11.1 18.3904 12 18.3904C12.87 18.3904 13.3999 18.1198 14.0498 17.7898C14.7998 17.4098 15.65 16.99 17 16.99ZM17 12.5398C18.35 12.5398 19.2002 12.9596 19.9502 13.3396C20.3802 13.5696 20.75 13.7601 21.21 13.8601C21.66 13.9601 22 14.32 22 14.78V14.8699C22 15.4599 21.4599 15.8998 20.8799 15.7898C20.1299 15.6398 19.5698 15.3496 19.0498 15.0896C18.3999 14.7397 17.8999 14.49 17 14.49C16.1001 14.49 15.6001 14.7397 14.9502 15.0896C14.2002 15.4596 13.38 15.8904 12 15.8904C10.62 15.8904 9.7998 15.4696 9.0498 15.0896C8.39994 14.7397 7.89987 14.49 7 14.49C6.10013 14.49 5.60006 14.7397 4.9502 15.0896C4.43022 15.3396 3.87007 15.63 3.12012 15.78C2.54012 15.9 2 15.4599 2 14.8699V14.7703C2 14.3204 2.32978 13.9603 2.76953 13.8601C3.23952 13.7501 3.61982 13.5496 4.0498 13.3396C4.7998 12.9696 5.62 12.5398 7 12.5398C8.38 12.5398 9.2002 12.9596 9.9502 13.3396C10.6002 13.6896 11.1 13.9402 12 13.9402C12.87 13.9402 13.3998 13.6596 14.0498 13.3396C14.7998 12.9696 15.65 12.5398 17 12.5398ZM17 8.0896C18.35 8.0896 19.2002 8.51015 19.9502 8.90015C20.3801 9.13007 20.7501 9.31969 21.21 9.41968C21.6599 9.51966 21.9998 9.87975 22 10.3396V10.4294C22 11.0094 21.4599 11.4496 20.8799 11.3396C20.13 11.1896 19.5698 10.9004 19.0498 10.6404C18.3998 10.2904 17.9 10.0398 17 10.0398C16.13 10.0398 15.6002 10.3204 14.9502 10.6404C14.2002 11.0104 13.38 11.4402 12 11.4402C10.62 11.4402 9.7998 11.0204 9.0498 10.6404C8.3998 10.2904 7.87 10.0398 7 10.0398C6.13 10.0398 5.6002 10.3204 4.9502 10.6404C4.43023 10.8904 3.87004 11.1798 3.12012 11.3298C2.54012 11.4498 2 11.0097 2 10.4197V10.3298C2.00004 9.86987 2.34006 9.50991 2.79004 9.40991C3.2499 9.30994 3.61996 9.12029 4.0498 8.89038C4.7998 8.52038 5.62 8.0896 7 8.0896C8.38 8.0896 9.2002 8.51038 9.9502 8.89038C10.6 9.24028 11.1002 9.48999 12 9.48999C12.8998 9.48999 13.4 9.24028 14.0498 8.89038C14.7998 8.52038 15.65 8.0896 17 8.0896ZM17 3.65991C18.37 3.65991 19.2002 4.07972 19.9502 4.45972C20.3801 4.67969 20.75 4.85972 21.21 4.95972C21.6599 5.0597 21.9999 5.41977 22 5.87964V5.96948C22 6.55948 21.4599 7.00038 20.8799 6.89038C20.1299 6.74038 19.5698 6.45018 19.0498 6.19019C18.3998 5.8402 17.9 5.5896 17 5.5896C16.13 5.5896 15.6002 5.8702 14.9502 6.19019C14.2002 6.56019 13.38 6.98999 12 6.98999C10.62 6.98999 9.7998 6.57019 9.0498 6.19019C8.39982 5.8402 7.87998 5.5896 7 5.5896C6.12002 5.5896 5.60017 5.8602 4.9502 6.19019C4.43023 6.44017 3.87003 6.72963 3.12012 6.87964C2.54012 6.99964 2 6.55972 2 5.95972V5.89038C2 5.44038 2.33027 5.08022 2.78027 4.98022C3.24016 4.87022 3.61989 4.67967 4.0498 4.45972C4.7998 4.07972 5.62 3.65991 7 3.65991C8.38 3.65991 9.2002 4.08972 9.9502 4.45972C10.6002 4.8097 11.1 5.0603 12 5.0603C12.87 5.0603 13.3998 4.7797 14.0498 4.45972C14.7998 4.07972 15.63 3.65991 17 3.65991Z" fill="#2F455C"/>
</g>
</svg>
