<svg width="24" height="24" viewBox="0 0 24 24" fill="none" xmlns="http://www.w3.org/2000/svg">
<g id="Content / save">
<path id="Icon Shape" d="M16.1699 3C16.6998 3 17.2099 3.20994 17.5898 3.58984L20.4102 6.41992C20.7901 6.78992 21 7.3001 21 7.83008V19C21 20.1 20.1 21 19 21H5C3.9 21 3 20.1 3 19V5C3 3.9 3.89 3 5 3H16.1699ZM12 13C10.34 13 9 14.34 9 16C9 17.66 10.34 19 12 19C13.66 19 15 17.66 15 16C15 14.34 13.66 13 12 13ZM7 5C5.9 5 5 5.9 5 7C5 8.1 5.9 9 7 9H13C14.1 9 15 8.1 15 7C15 5.9 14.1 5 13 5H7Z" fill="#2F455C"/>
</g>
</svg>
