<svg width="24" height="24" viewBox="0 0 24 24" fill="none" xmlns="http://www.w3.org/2000/svg">
<g id="Content / select-all">
<path id="Icon Shape" d="M5 21C3.9 21 3 20.1 3 19H5V21ZM9 21H7V19H9V21ZM13 21H11V19H13V21ZM17 21H15V19H17V21ZM21 19C21 20.1 20.1 21 19 21V19H21ZM5 17H3V15H5V17ZM16 7C16.55 7 17 7.45 17 8V16C17 16.55 16.55 17 16 17H8C7.45 17 7 16.55 7 16V8C7 7.45 7.45 7 8 7H16ZM21 17H19V15H21V17ZM9 9V15H15V9H9ZM5 13H3V11H5V13ZM21 13H19V11H21V13ZM5 9H3V7H5V9ZM21 9H19V7H21V9ZM5 5H3C3 3.9 3.9 3 5 3V5ZM9 5H7V3H9V5ZM13 5H11V3H13V5ZM17 5H15V3H17V5ZM19 3C20.1 3 21 3.9 21 5H19V3Z" fill="#2F455C"/>
</g>
</svg>
