<svg width="24" height="24" viewBox="0 0 24 24" fill="none" xmlns="http://www.w3.org/2000/svg">
<g id="Content / reply-all">
<path id="Icon Shape" d="M11.0813 5.49683C11.7113 4.86698 12.7911 5.31693 12.7912 6.20679V7.79663C19.7911 8.79661 22.7912 13.7967 23.7912 18.7966C21.2913 15.2968 17.7911 13.697 12.7912 13.697V15.3767C12.7912 16.2667 11.7113 16.7167 11.0813 16.0867L6.49144 11.4968C6.10144 11.1068 6.10144 10.4767 6.49144 10.0867L11.0813 5.49683ZM4.98167 5.60718C5.65169 4.93732 6.79124 5.41722 6.79124 6.35718C6.79118 6.63705 6.68156 6.90724 6.48167 7.10718L2.79124 10.7966L6.48167 14.4871C6.6815 14.687 6.79124 14.9572 6.79124 15.2371C6.79115 16.1768 5.6517 16.6567 4.98167 15.9773L0.501205 11.4968C0.111283 11.1068 0.111231 10.4766 0.501205 10.0867L4.98167 5.60718Z" fill="#2F455C"/>
</g>
</svg>
