<svg width="24" height="24" viewBox="0 0 24 24" fill="none" xmlns="http://www.w3.org/2000/svg">
<g id="Content / next-week">
<path id="Icon Shape" d="M14 2.5C14.55 2.5 15.0502 2.71984 15.4102 3.08984C15.7802 3.44984 16 3.95 16 4.5V6.5H20C21.1 6.5 22 7.4 22 8.5V19.5C22 20.6 21.1 21.5 20 21.5H4C2.9 21.5 2 20.6 2 19.5V8.5C2 7.4 2.9 6.5 4 6.5H8V4.5C8 3.4 8.9 2.5 10 2.5H14ZM11.5 10.5C11.22 10.22 10.78 10.22 10.5 10.5C10.22 10.78 10.22 11.22 10.5 11.5L13 14L10.5 16.5C10.22 16.78 10.22 17.22 10.5 17.5C10.78 17.78 11.22 17.78 11.5 17.5L14.6504 14.3604C14.8502 14.1605 14.85 13.8504 14.6504 13.6504L11.5 10.5ZM10 6.5H14V4.5H10V6.5Z" fill="#2F455C"/>
</g>
</svg>
