<svg width="24" height="24" viewBox="0 0 24 24" fill="none" xmlns="http://www.w3.org/2000/svg">
<g id="Content / cut">
<path id="Icon Shape" d="M2.06075 6.70996C1.58091 3.95009 3.95102 1.58065 6.7209 2.06055C8.44078 2.35053 9.79052 3.81996 9.98067 5.5498C10.0607 6.30969 9.93073 7.01971 9.64082 7.63965L21.591 19.5801C21.851 19.8501 22.0012 20.2101 22.0012 20.5801V20.5898C22.0012 21.8498 20.481 22.4798 19.591 21.5898L12.0012 14L9.63106 16.3506C9.92094 16.9805 10.0509 17.6806 9.9709 18.4404C9.78077 20.1702 8.43097 21.6297 6.71114 21.9297C3.95121 22.4097 1.5809 20.0502 2.06075 17.2803C2.35074 15.5603 3.82105 14.2106 5.55098 14.0205C6.31093 13.9405 7.02085 14.0704 7.64082 14.3604L10.0012 12L7.64082 9.62988C7.01086 9.91984 6.31093 10.0497 5.55098 9.96973C3.82105 9.77966 2.36074 8.42991 2.06075 6.70996ZM6.00117 16C4.90121 16 4.00124 16.8901 4.00117 18C4.00117 19.11 4.90118 20 6.00117 20C7.10114 20 8.00117 19.11 8.00117 18C8.00111 16.8901 7.1011 16 6.00117 16ZM12.0012 11.5C11.7212 11.5 11.5012 11.7201 11.5012 12C11.5012 12.28 11.7212 12.5 12.0012 12.5C12.2811 12.5 12.5012 12.28 12.5012 12C12.5011 11.7201 12.2811 11.5 12.0012 11.5ZM19.591 2.41016C20.481 1.52016 22.0012 2.15039 22.0012 3.40039V3.41016C22.0012 3.79014 21.851 4.15017 21.591 4.41016L15.0012 11L13.0012 9L19.591 2.41016ZM6.00117 4C4.90121 4 4.00124 4.89005 4.00117 6C4.00117 7.11 4.90118 8 6.00117 8C7.10114 7.99996 8.00117 7.10997 8.00117 6C8.00111 4.89008 7.1011 4.00004 6.00117 4Z" fill="#2F455C"/>
</g>
</svg>
