<svg width="24" height="24" viewBox="0 0 24 24" fill="none" xmlns="http://www.w3.org/2000/svg">
<g id="Content / save-alt">
<path id="Icon Shape" d="M20 12C20.55 12 21 12.45 21 13V19C21 20.1 20.1 21 19 21H5C3.9 21 3 20.1 3 19V13C3 12.45 3.45 12 4 12C4.55 12 5 12.45 5 13V18C5 18.55 5.45 19 6 19H18C18.55 19 19 18.55 19 18V13C19 12.45 19.45 12 20 12ZM12 3C12.55 3 13 3.45 13 4V12.6699L14.8799 10.79C15.2699 10.4 15.9 10.4 16.29 10.79C16.68 11.18 16.68 11.8102 16.29 12.2002L12.7002 15.79C12.3102 16.18 11.68 16.18 11.29 15.79L7.7002 12.2002C7.51297 12.0134 7.40726 11.7596 7.40723 11.4951C7.40723 11.2306 7.51294 10.9769 7.7002 10.79C8.0902 10.4001 8.72038 10.4001 9.11035 10.79L11 12.6699V4C11 3.45 11.45 3 12 3Z" fill="#2F455C"/>
</g>
</svg>
