<svg width="24" height="24" viewBox="0 0 24 24" fill="none" xmlns="http://www.w3.org/2000/svg">
<g id="Device/Device / add-alarm">
<path id="Icon Shape" d="M11.9997 3.89056C16.9697 3.89056 20.9997 7.92063 20.9997 12.8906C20.9997 17.8606 16.9697 21.8906 11.9997 21.8906C7.02986 21.8904 2.99975 17.8605 2.99975 12.8906C2.99982 7.92071 7.02991 3.8907 11.9997 3.89056ZM11.9997 5.89056C8.13991 5.8907 4.99982 9.03071 4.99975 12.8906C4.99975 16.7505 8.13986 19.8904 11.9997 19.8906C15.8597 19.8906 18.9997 16.7506 18.9997 12.8906C18.9997 9.03063 15.8597 5.89056 11.9997 5.89056ZM11.9997 8.89056C12.5497 8.89056 12.9997 9.34063 12.9997 9.89056V11.8906H14.9997C15.5497 11.8906 15.9997 12.3406 15.9997 12.8906C15.9997 13.4406 15.5497 13.8906 14.9997 13.8906H12.9997V15.8906C12.9997 16.4406 12.5497 16.8906 11.9997 16.8906C11.4499 16.8904 10.9997 16.4405 10.9997 15.8906V13.8906H8.99975C8.44986 13.8904 7.99975 13.4405 7.99975 12.8906C7.99982 12.3407 8.44991 11.8907 8.99975 11.8906H10.9997V9.89056C10.9998 9.34071 11.4499 8.8907 11.9997 8.89056ZM5.90014 2.34076C6.32006 1.99088 6.94953 2.0409 7.29955 2.47064C7.65955 2.89064 7.59967 3.5208 7.16967 3.8808L4.10033 6.44037C3.68033 6.79037 3.04994 6.74049 2.69994 6.31049C2.34009 5.89049 2.40011 5.26029 2.82006 4.90033L5.90014 2.34076ZM16.6902 2.47064C17.0502 2.04076 17.6804 1.99079 18.1003 2.34076L21.1804 4.90033C21.6004 5.26034 21.6595 5.8905 21.2996 6.31049C20.9396 6.74038 20.3103 6.79029 19.8904 6.44037L16.8201 3.8808C16.4001 3.5208 16.3402 2.89064 16.6902 2.47064Z" fill="#2F455C"/>
</g>
</svg>
