<svg width="24" height="24" viewBox="0 0 24 24" fill="none" xmlns="http://www.w3.org/2000/svg">
<g id="Device/Device / wifi-tethering">
<path id="Icon Shape" d="M10.8281 2.95239C16.868 2.26241 21.9979 6.97217 21.998 12.8821C21.998 16.1821 20.3977 19.1021 17.9277 20.9221C17.4477 21.272 16.7677 21.1324 16.4677 20.6125C16.2177 20.1725 16.3285 19.6225 16.7285 19.3225C18.7084 17.8625 19.998 15.532 19.998 12.8821C19.9979 8.16217 15.9078 4.39263 11.0879 4.94263C7.56798 5.33273 4.64836 8.1224 4.10837 11.6223C3.61837 14.7723 4.98853 17.6325 7.26853 19.3225C7.6682 19.6226 7.77821 20.1827 7.52829 20.6125C7.22828 21.1224 6.54829 21.272 6.06833 20.9221C3.36836 18.9321 1.69787 15.6123 2.04782 11.9124C2.47782 7.28235 6.2081 3.47239 10.8281 2.95239ZM11.248 6.93188C14.888 6.48189 17.9979 9.32217 17.998 12.8821C17.998 14.6819 17.198 16.2919 15.9482 17.3918C15.4783 17.8018 14.7583 17.6423 14.4482 17.1125L14.4384 17.1018C14.1986 16.6818 14.308 16.162 14.6679 15.842C15.4779 15.112 15.998 14.0621 15.998 12.8821C15.9979 10.3522 13.6481 8.37238 11.0283 9.0022C9.60829 9.3422 8.4579 10.4924 8.1279 11.9124C7.75801 13.4821 8.31796 14.9218 9.34763 15.8518C9.70763 16.1818 9.80833 16.6925 9.56833 17.1125L9.55759 17.1223C9.22752 17.6821 8.47795 17.7817 7.99802 17.3518C6.5582 16.0618 5.73838 14.1022 6.06833 11.9524C6.46833 9.34239 8.62802 7.25189 11.248 6.93188ZM11.998 10.8821C13.098 10.8821 13.9979 11.7822 13.998 12.8821C13.998 13.9821 13.098 14.8821 11.998 14.8821C10.898 14.8821 9.99802 13.9821 9.99802 12.8821C9.99813 11.7822 10.8981 10.8821 11.998 10.8821Z" fill="#2F455C"/>
</g>
</svg>
