<svg width="24" height="24" viewBox="0 0 24 24" fill="none" xmlns="http://www.w3.org/2000/svg">
<g id="Device/Device / brightness-low">
<path id="Icon Shape" d="M10.5804 2.09998C11.3604 1.32029 12.6296 1.32031 13.4095 2.09998L15.3099 4.00037H18.0004C19.1002 4.00056 20.0004 4.90048 20.0004 6.00037V8.68982L21.8998 10.5804C22.6796 11.3604 22.6796 12.6296 21.8998 13.4095L20.0004 15.3099V18.0004C20.0002 19.1001 19.1001 20.0002 18.0004 20.0004H15.3197L13.4203 21.8998C12.6403 22.6798 11.3702 22.6798 10.5902 21.8998L8.6898 20.0004H6.00035C4.90047 20.0004 4.00054 19.1002 4.00035 18.0004V15.3197L2.09996 13.4203C1.32 12.6403 1.32008 11.3702 2.09996 10.5902L4.00035 8.68982V6.00037C4.00035 4.90037 4.90035 4.00037 6.00035 4.00037H8.6898L10.5804 2.09998ZM12.0004 6.00037C8.69035 6.00037 6.00035 8.69037 6.00035 12.0004C6.00054 15.3102 8.69047 18.0004 12.0004 18.0004C15.3101 18.0002 18.0002 15.3101 18.0004 12.0004C18.0004 8.69048 15.3102 6.00056 12.0004 6.00037Z" fill="#2F455C"/>
</g>
</svg>
