<svg width="24" height="24" viewBox="0 0 24 24" fill="none" xmlns="http://www.w3.org/2000/svg">
<g id="Device/Device / wifi-lock">
<path id="Icon Shape" d="M20.5 12C21.88 12 23 13.12 23 14.5V16C23.55 16 24 16.45 24 17V21C24 21.55 23.55 22 23 22H18C17.45 22 17 21.55 17 21V17C17 16.45 17.45 16 18 16V14.5C18 13.12 19.12 12 20.5 12ZM12 2C16.5 2 20.66 3.49 24 6L21.3096 9.58008C21.0497 9.5401 20.7799 9.5 20.5 9.5C17.74 9.5 15.5 11.74 15.5 14.5V17.3398L13.5996 19.8701C12.7996 20.9398 11.2004 20.9398 10.4004 19.8701L0 6C3.34 3.49 7.5 2 12 2ZM20.5 13C19.67 13 19 13.67 19 14.5V16H22V14.5C22 13.67 21.33 13 20.5 13Z" fill="#2F455C"/>
</g>
</svg>
