<svg width="24" height="24" viewBox="0 0 24 24" fill="none" xmlns="http://www.w3.org/2000/svg">
<g id="Device/Device / signal-cellular_no_sim">
<path id="Icon Shape" d="M3.97504 3.54626C4.23954 3.54628 4.49329 3.65199 4.68011 3.83923L20.7299 19.8988C21.1199 20.2888 21.1199 20.919 20.7299 21.309C20.3399 21.6988 19.7097 21.6989 19.3198 21.309L18.4096 20.3988H7.18011C6.08011 20.3988 5.18011 19.5088 5.18011 18.3988V7.17908L3.26996 5.24841C2.88025 4.85847 2.88026 4.22918 3.26996 3.83923C3.45679 3.65198 3.71052 3.54626 3.97504 3.54626ZM17.1801 2.3988C18.2801 2.39887 19.1801 3.29884 19.1801 4.3988V15.5092L8.13031 4.45837L9.59027 2.98865C9.97025 2.60878 10.4803 2.3988 11.0102 2.3988H17.1801Z" fill="#2F455C"/>
</g>
</svg>
