<svg width="24" height="24" viewBox="0 0 24 24" fill="none" xmlns="http://www.w3.org/2000/svg">
<g id="Device/Device / bluetooth">
<path id="Icon Shape" d="M11.6498 3.40613C11.6498 2.51631 12.7297 2.07636 13.3597 2.70593L17.6498 6.99597C18.0398 7.38596 18.0397 8.02589 17.6498 8.41589L14.0599 11.996L17.6498 15.5858C18.0398 15.9758 18.0398 16.606 17.6498 16.996L13.3597 21.2958C12.7297 21.9258 11.6498 21.4758 11.6498 20.5858V14.4061L7.76012 18.2958C7.37012 18.6858 6.73996 18.6858 6.34996 18.2958C5.96027 17.9058 5.96025 17.2765 6.34996 16.8866L11.2396 11.996L6.34996 7.10632C5.95996 6.71632 5.95996 6.08617 6.34996 5.69617C6.53679 5.50892 6.79052 5.40417 7.05504 5.40417C7.31954 5.40419 7.57329 5.50892 7.76012 5.69617L11.6498 9.58582V3.40613ZM13.6498 18.1659L15.5296 16.286L13.6498 14.4061V18.1659ZM13.6498 9.58582L15.5296 7.70593L13.6498 5.82605V9.58582Z" fill="#2F455C"/>
</g>
</svg>
