<svg width="24" height="24" viewBox="0 0 24 24" fill="none" xmlns="http://www.w3.org/2000/svg">
<g id="Device/Device / battery-charging_full">
<path id="Icon Shape" d="M13 2C13.55 2 14 2.45 14 3V4H15.6699C16.3999 4 17 4.60008 17 5.33008V20.6699C17 21.3999 16.4001 21.9999 15.6602 22H8.33984C7.59997 21.9999 7.00008 21.4 7 20.6602V5.33008C7 4.60008 7.60008 4 8.33008 4H10V3C10 2.45 10.45 2 11 2H13ZM13 9C13 8.48 12.2996 8.30977 12.0596 8.75977L9.38965 13.7598C9.20965 14.0998 9.45008 14.5 9.83008 14.5H11V18C11 18.52 11.7004 18.6902 11.9404 18.2402L14.6104 13.2402C14.7904 12.9002 14.5399 12.5 14.1699 12.5H13V9Z" fill="#2F455C"/>
</g>
</svg>
