<svg width="24" height="24" viewBox="0 0 24 24" fill="none" xmlns="http://www.w3.org/2000/svg">
<g id="Device/Device / dvr">
<path id="Icon Shape" d="M21 3C22.1 3 23 3.9 23 5V17C23 18.1 22.1 19 21 19H16V20C16 20.55 15.55 21 15 21H9C8.45 21 8 20.55 8 20V19H3C1.9 19 1 18.1 1 17V5C1 3.9 1.9 3 3 3H21ZM4 5C3.45 5 3 5.45 3 6V16C3 16.55 3.45 17 4 17H20C20.55 17 21 16.55 21 16V6C21 5.45 20.55 5 20 5H4ZM7 12V14H5V12H7ZM18 12C18.55 12 19 12.45 19 13C19 13.55 18.55 14 18 14H9C8.45 14 8 13.55 8 13C8 12.45 8.45 12 9 12H18ZM7 10H5V8H7V10ZM18 8C18.55 8 19 8.45 19 9C19 9.55 18.55 10 18 10H9C8.45 10 8 9.55 8 9C8 8.45 8.45 8 9 8H18Z" fill="#2F455C"/>
</g>
</svg>
