<svg width="24" height="24" viewBox="0 0 24 24" fill="none" xmlns="http://www.w3.org/2000/svg">
<g id="Device/Device / signal-wifi_statusbar_connected_no_internet_26x24px">
<path id="Icon Shape" d="M18.4615 11.0416C18.4615 9.45079 19.6985 8.16663 21.2308 8.16663H22.3662L23.6123 6.55663C23.1692 6.21163 18.7015 2.41663 12 2.41663C5.29846 2.41663 0.830772 6.21163 0.387695 6.55663L10.56 19.7241C11.2985 20.6825 12.7015 20.6825 13.44 19.7241L18.4615 13.2266V11.0416Z" fill="#2F455C"/>
<path id="Icon Shape_2" d="M20.3077 11.0417V16.7917C20.3077 17.3188 20.7231 17.75 21.2308 17.75C21.7385 17.75 22.1538 17.3188 22.1538 16.7917V11.0417C22.1538 10.5146 21.7385 10.0834 21.2308 10.0834C20.7231 10.0834 20.3077 10.5146 20.3077 11.0417Z" fill="#2F455C"/>
<path id="Icon Shape_3" d="M20.3077 19.6666H22.1538V21.5833H20.3077V19.6666Z" fill="#2F455C"/>
</g>
</svg>
