<svg width="24" height="24" viewBox="0 0 24 24" fill="none" xmlns="http://www.w3.org/2000/svg">
<g id="Device/Device / bluetooth-connected">
<path id="Icon Shape" d="M11.0004 3.40619C11.0005 2.51624 12.0804 2.07601 12.7104 2.70599L17.0004 6.99603C17.3902 7.38592 17.39 8.02595 17.0004 8.41595L13.4096 11.996L17.0004 15.5761C17.3902 15.976 17.39 16.606 17.0004 16.996L12.7104 21.2958C12.0804 21.9258 11.0004 21.4759 11.0004 20.5859V14.4062L7.10978 18.2958C6.71978 18.6858 6.08962 18.6858 5.69962 18.2958C5.31015 17.9059 5.31014 17.2766 5.69962 16.8867L10.5902 11.996L5.69962 7.10638C5.30981 6.71643 5.30984 6.0862 5.69962 5.69623C5.88638 5.50905 6.14029 5.40432 6.4047 5.40424C6.66916 5.40424 6.92296 5.50906 7.10978 5.69623L11.0004 9.58588V3.40619ZM13.0004 18.166L14.8803 16.2861L13.0004 14.4062V18.166ZM4.0004 10.996C4.55043 10.4463 5.45051 10.4461 6.0004 10.996V11.0058C6.5503 11.5557 6.55009 12.446 6.0004 12.996C5.45043 13.546 4.55041 13.5459 4.0004 12.996C3.4504 12.446 3.4504 11.546 4.0004 10.996ZM18.0004 10.9863C18.5504 10.4365 19.4405 10.4361 20.0004 10.996C20.5502 11.5459 20.5501 12.446 20.0004 12.996H19.9897C19.4397 13.5459 18.5504 13.5459 18.0004 12.996V12.9863C17.4504 12.4363 17.4504 11.546 18.0004 10.996V10.9863ZM13.0004 9.58588L14.8803 7.70599L13.0004 5.82611V9.58588Z" fill="#2F455C"/>
</g>
</svg>
