<svg width="24" height="24" viewBox="0 0 24 24" fill="none" xmlns="http://www.w3.org/2000/svg">
<g id="Device/Device / data-usage">
<path id="Icon Shape" d="M9.0715 2.25012C10.0314 1.96046 11.0012 2.69071 11.0012 3.69055V3.71106C11.001 4.38081 10.5511 4.95076 9.91135 5.14075C6.74136 6.13074 4.54129 9.30053 5.08127 12.9005C5.52127 15.8805 7.95162 18.3104 10.9416 18.7404C13.1614 19.0702 15.2012 18.3605 16.6711 17.0206C17.1711 16.5706 17.8909 16.4609 18.4709 16.8009C19.3408 17.3008 19.4714 18.5105 18.7317 19.1906C16.6417 21.1106 13.7408 22.1408 10.6008 21.7208C6.22111 21.1307 2.6812 17.5907 2.09103 13.2111C1.41103 8.11106 4.5615 3.63012 9.0715 2.25012ZM13.0012 3.69055C13.0012 2.69063 13.9712 1.96028 14.9211 2.25012C19.0211 3.50011 22.0011 7.32049 22.0012 11.8204C22.0012 12.5804 21.9114 13.3309 21.7414 14.0509C21.5113 15.0106 20.3913 15.4606 19.5315 14.9611L19.5207 14.9503C18.9511 14.6103 18.6913 13.9505 18.8313 13.3107C18.9413 12.8307 19.0012 12.3404 19.0012 11.8204C19.0011 8.68054 16.9312 6.03077 14.0813 5.14075C13.4514 4.9408 13.0014 4.38084 13.0012 3.71106V3.69055Z" fill="#2F455C"/>
</g>
</svg>
