<svg width="24" height="24" viewBox="0 0 24 24" fill="none" xmlns="http://www.w3.org/2000/svg">
<g id="Device/Device / battery-alert">
<path id="Icon Shape" d="M13 2C13.55 2 14 2.45 14 3V4H15.6699C16.3999 4 17 4.60008 17 5.33008V20.6699C17 21.3999 16.4001 21.9999 15.6602 22H8.33984C7.59997 21.9999 7.00008 21.4 7 20.6602V5.33008C7 4.60008 7.60008 4 8.33008 4H10V3C10 2.45 10.45 2 11 2H13ZM11 18H13V16H11V18ZM12 9C11.45 9 11 9.45 11 10V13C11 13.55 11.45 14 12 14C12.55 14 13 13.55 13 13V10C13 9.45 12.55 9 12 9Z" fill="#2F455C"/>
</g>
</svg>
