<svg width="24" height="24" viewBox="0 0 24 24" fill="none" xmlns="http://www.w3.org/2000/svg">
<g id="Device/Device / signal-cellular_off">
<path id="Icon Shape" d="M4.84241 4.27319C5.10692 4.27319 5.36065 4.37891 5.54748 4.56616L21.3678 20.3855C21.7577 20.7754 21.7578 21.4056 21.358 21.7957C20.9681 22.1856 20.3379 22.1856 19.9479 21.7957L18.6578 20.5056H3.33752C2.44763 20.5055 2.0075 19.4256 2.63733 18.7957L9.79748 11.6355L4.13733 5.97534C3.74778 5.58544 3.7478 4.95608 4.13733 4.56616C4.32411 4.37896 4.57796 4.27325 4.84241 4.27319ZM19.2174 2.20581C19.8474 1.57581 20.9274 2.02577 20.9274 2.91577V17.116L12.6178 8.80542L19.2174 2.20581Z" fill="#2F455C"/>
</g>
</svg>
