<svg width="24" height="24" viewBox="0 0 24 24" fill="none" xmlns="http://www.w3.org/2000/svg">
<g id="Device/Device / bluetooth-searching">
<path id="Icon Shape" d="M8.79102 3.40613C8.79108 2.51631 9.87096 2.07636 10.501 2.70593L14.791 6.99597C15.181 7.39596 15.181 8.02589 14.791 8.41589L11.2012 11.996L14.791 15.576C15.181 15.976 15.181 16.606 14.791 16.996L10.501 21.2958C9.87098 21.9258 8.79102 21.4758 8.79102 20.5858V14.4061L4.90137 18.2958C4.51137 18.6858 3.88121 18.6858 3.49121 18.2958C3.10152 17.9058 3.1015 17.2765 3.49121 16.8866L8.38086 11.996L3.49121 7.10632C3.10121 6.71632 3.10121 6.08617 3.49121 5.69617C3.67804 5.50892 3.93177 5.40417 4.19629 5.40417C4.46079 5.40419 4.71454 5.50892 4.90137 5.69617L8.79102 9.58582V3.40613ZM10.791 18.1659L12.6709 16.286L10.791 14.4061V18.1659ZM18.4912 7.53601C18.9112 7.10611 19.6416 7.22628 19.8916 7.77625C20.4716 9.0362 20.7908 10.4367 20.8008 11.8866C20.8007 13.4265 20.4512 14.8865 19.8213 16.1864C19.5712 16.7063 18.8816 16.8258 18.4717 16.4159C18.2217 16.1659 18.1716 15.7964 18.3115 15.4764C18.7815 14.4064 19.041 13.2262 19.041 11.9862C19.041 10.7563 18.7812 9.58641 18.3213 8.51648C18.1813 8.17648 18.2312 7.79601 18.4912 7.53601ZM15.7715 10.2762C16.0515 9.99638 16.5213 10.1365 16.6113 10.5165C16.7313 10.9863 16.791 11.4862 16.791 11.996C16.791 12.516 16.7311 13.0165 16.6211 13.5165C16.5209 13.8963 16.0514 14.0259 15.7715 13.746L14.3916 12.3661C14.1916 12.1661 14.1916 11.8561 14.3916 11.6561L15.7715 10.2762ZM10.791 9.58582L12.6709 7.70593L10.791 5.82605V9.58582Z" fill="#2F455C"/>
</g>
</svg>
