<svg width="24" height="24" viewBox="0 0 24 24" fill="none" xmlns="http://www.w3.org/2000/svg">
<g id="Device/Device / screen-lock_rotation">
<path id="Icon Shape" d="M1.32925 12.5035C1.7492 12.4336 2.1296 12.7137 2.1896 13.1237C2.73965 16.6136 4.9893 19.524 8.07925 20.984L9.40932 19.6539L12.8888 23.1432C13.0088 23.2732 12.9291 23.4937 12.7492 23.4938C10.4993 23.5438 8.51931 22.9438 6.94936 22.1139C3.66946 20.3739 1.30922 17.1737 0.709129 13.3639C0.639129 12.9539 0.919247 12.5635 1.32925 12.5035ZM8.71889 1.25354C9.29888 0.663558 10.249 0.663593 10.839 1.25354L12.589 3.00354C12.979 3.39354 12.979 4.0237 12.589 4.4137C12.199 4.80357 11.5688 4.80365 11.1789 4.4137L9.77944 3.01331L4.11929 8.67346L15.4396 19.9938L21.0988 14.3336L19.589 12.8131C19.1994 12.4232 19.1994 11.7939 19.589 11.4039C19.7758 11.2167 20.0296 11.111 20.2941 11.111C20.5586 11.111 20.8123 11.2167 20.9992 11.4039L22.8595 13.2731C23.4494 13.8529 23.4491 14.8032 22.8595 15.3932L16.4992 21.7535C15.9192 22.3435 14.9691 22.3435 14.3791 21.7535L2.35952 9.73401C1.76952 9.15401 1.76952 8.20389 2.35952 7.61389L8.71889 1.25354ZM18.1095 0.50354C19.4893 0.503757 20.6095 1.62367 20.6095 3.00354V3.50354C21.1593 3.50376 21.6095 3.95367 21.6095 4.50354V8.50354C21.6095 9.05341 21.1593 9.50332 20.6095 9.50354H15.6095C15.0595 9.50354 14.6095 9.05354 14.6095 8.50354V4.50354C14.6095 3.95354 15.0595 3.50354 15.6095 3.50354V3.00354C15.6095 1.62354 16.7295 0.50354 18.1095 0.50354ZM18.1095 1.30334C17.1695 1.30334 16.4093 2.06354 16.4093 3.00354V3.50354H19.8087V3.00354C19.8087 2.06367 19.0493 1.30356 18.1095 1.30334Z" fill="#2F455C"/>
</g>
</svg>
