<svg width="24" height="24" viewBox="0 0 24 24" fill="none" xmlns="http://www.w3.org/2000/svg">
<g id="Device/Device / signal-cellular_connected_no_internet_4_bar">
<path id="Icon Shape" d="M19.583 2.99707C20.213 2.36707 21.293 2.81703 21.293 3.70703V7.29688H20.293C18.6331 7.297 17.2931 8.637 17.293 10.2969V21.2969H3.70316C2.81326 21.2968 2.37314 20.2169 3.00296 19.5869L19.583 2.99707ZM21.293 21.2969H19.293V19.2969H21.293V21.2969ZM20.293 9.29688C20.843 9.29688 21.2929 9.74692 21.293 10.2969V16.2969C21.293 16.8469 20.843 17.2969 20.293 17.2969C19.7431 17.2967 19.293 16.8468 19.293 16.2969V10.2969C19.2931 9.747 19.7431 9.29701 20.293 9.29688Z" fill="#2F455C"/>
</g>
</svg>
