<svg width="24" height="24" viewBox="0 0 24 24" fill="none" xmlns="http://www.w3.org/2000/svg">
<g id="Device/Device / access-alarms">
<path id="Icon Shape" d="M11.9998 3.89056C16.9697 3.89056 20.9997 7.92063 20.9998 12.8906C20.9998 17.8606 16.9698 21.8906 11.9998 21.8906C7.02987 21.8904 2.99976 17.8605 2.99976 12.8906C2.99983 7.92071 7.02992 3.8907 11.9998 3.89056ZM11.9998 5.89056C8.13992 5.8907 4.99983 9.03071 4.99976 12.8906C4.99976 16.7505 8.13987 19.8904 11.9998 19.8906C15.8598 19.8906 18.9998 16.7506 18.9998 12.8906C18.9997 9.03063 15.8597 5.89056 11.9998 5.89056ZM11.78 7.89056C12.1799 7.89058 12.4995 8.21049 12.4998 8.61029V13.1406L15.8699 15.1406C16.2199 15.3406 16.3298 15.7906 16.1199 16.1406C15.9199 16.4805 15.4803 16.5805 15.1404 16.3808L11.49 14.1904C11.1802 14.0104 10.9999 13.6808 10.9998 13.331V8.61029C11 8.21048 11.3206 7.89056 11.7205 7.89056H11.78ZM5.90015 2.34076C6.32006 1.99088 6.94953 2.0409 7.29956 2.47064C7.65956 2.89064 7.59968 3.5208 7.16968 3.8808L4.10034 6.44037C3.68034 6.79037 3.04995 6.74049 2.69995 6.31049C2.3401 5.89049 2.40012 5.26029 2.82007 4.90033L5.90015 2.34076ZM16.6902 2.47064C17.0502 2.04076 17.6804 1.99079 18.1003 2.34076L21.1804 4.90033C21.6004 5.26034 21.6595 5.8905 21.2996 6.31049C20.9396 6.74038 20.3104 6.79029 19.8904 6.44037L16.8201 3.8808C16.4001 3.5208 16.3402 2.89064 16.6902 2.47064Z" fill="#2F455C"/>
</g>
</svg>
