<svg width="24" height="24" viewBox="0 0 24 24" fill="none" xmlns="http://www.w3.org/2000/svg">
<g id="Device/Device / signal-wifi_off">
<path id="Icon Shape" d="M3.41469 2.70374C3.67921 2.70374 3.93293 2.80945 4.11977 2.9967L19.9303 18.816C20.3202 19.206 20.3201 19.8362 19.9303 20.2262C19.5403 20.6162 18.9102 20.6161 18.5202 20.2262L15.9098 17.6158L13.5602 20.5465C12.7602 21.5464 11.2401 21.5463 10.4401 20.5465L0.360001 7.98596C0.590355 7.80567 1.91059 6.74629 4.0602 5.75647L2.70961 4.40588C2.32012 4.016 2.32017 3.38662 2.70961 2.9967C2.89637 2.80953 3.15028 2.70382 3.41469 2.70374ZM11.9996 3.98596C18.7096 3.98596 23.1903 7.64596 23.6403 7.98596L18.4303 14.486L8.3102 4.36584C9.45002 4.1259 10.6799 3.98599 11.9996 3.98596Z" fill="#2F455C"/>
</g>
</svg>
