<svg width="24" height="24" viewBox="0 0 24 24" fill="none" xmlns="http://www.w3.org/2000/svg">
<g id="Device/Device / location-disabled">
<path id="Icon Shape" d="M4.41504 3.26758C4.67947 3.26759 4.93331 3.37242 5.12012 3.55957L20.4404 18.8799C20.8303 19.2699 20.8296 19.9001 20.4297 20.29C20.0397 20.6799 19.4095 20.68 19.0195 20.29L17.6904 18.96C16.3804 20.03 14.77 20.7404 13 20.9404V22C13 22.55 12.55 23 12 23C11.45 23 11 22.55 11 22V20.9404C6.83 20.4804 3.51957 17.17 3.05957 13H2C1.45 13 1 12.55 1 12C1 11.45 1.45 11 2 11H3.05957C3.25957 9.23 3.97004 7.6198 5.04004 6.2998L3.70996 4.96973C3.32012 4.57971 3.32001 3.94952 3.70996 3.55957C3.89677 3.37244 4.15061 3.26758 4.41504 3.26758ZM6.45996 7.73047C5.55011 8.91042 5 10.3901 5 12C5 15.87 8.13 19 12 19C13.6099 19 15.0896 18.4499 16.2695 17.54L6.45996 7.73047ZM12 1C12.55 1 13 1.45 13 2V3.05957C17.17 3.51957 20.4804 6.83 20.9404 11H22C22.55 11 23 11.45 23 12C23 12.55 22.55 13 22 13H20.9404C20.8304 13.9798 20.56 14.9097 20.1602 15.7695L18.6299 14.2402C18.8699 13.5402 19 12.79 19 12C19 8.13 15.87 5 12 5C11.22 5 10.4598 5.13012 9.75977 5.37012L8.23047 3.83984C9.09034 3.43996 10.0202 3.16955 11 3.05957V2C11 1.45 11.45 1 12 1Z" fill="#2F455C"/>
</g>
</svg>
