<svg width="24" height="24" viewBox="0 0 24 24" fill="none" xmlns="http://www.w3.org/2000/svg">
<g id="Device/Device / add-to_home_screen">
<path id="Icon Shape" d="M18.296 1.00977C19.396 1.00977 20.296 1.9 20.296 3V21C20.296 22.1 19.396 23 18.296 23H8.29602C7.19612 22.9999 6.29602 22.0999 6.29602 21V18C6.29602 17.4501 6.74612 17.0001 7.29602 17C7.84602 17 8.29602 17.45 8.29602 18V19H18.296V5H8.29602V6C8.29602 6.55 7.84602 7 7.29602 7C6.74612 6.99987 6.29602 6.54992 6.29602 6V3C6.29602 1.90008 7.19612 1.00013 8.29602 1L18.296 1.00977ZM11.296 8C11.846 8 12.296 8.45 12.296 9V14C12.296 14.55 11.846 15 11.296 15C10.7461 14.9999 10.296 14.5499 10.296 14V11.4102L5.40637 16.2998C5.01637 16.6898 4.38621 16.6898 3.99621 16.2998C3.60633 15.9098 3.60625 15.2796 3.99621 14.8896L8.88586 10H6.29602C5.74612 9.99987 5.29602 9.54992 5.29602 9C5.29602 8.45008 5.74612 8.00013 6.29602 8H11.296Z" fill="#2F455C"/>
</g>
</svg>
