<svg width="24" height="24" viewBox="0 0 24 24" fill="none" xmlns="http://www.w3.org/2000/svg">
<g id="Device/Device / screen-lock_landscape">
<path id="Icon Shape" d="M21 5C22.1 5 23 5.9 23 7V17C23 18.1 22.1 19 21 19H3C1.9 19 1 18.1 1 17V7C1 5.9 1.9 5 3 5H21ZM5 17H19V7H5V17ZM12 8C13.1 8 14 8.89 14 10V11C14.55 11 15 11.45 15 12V15C15 15.55 14.55 16 14 16H10C9.45 16 9 15.55 9 15V12C9 11.45 9.45 11 10 11V10C10 8.9 10.89 8 12 8ZM12 8.7998C11.34 8.7998 10.7998 9.34 10.7998 10V11H13.2002V10C13.2002 9.34 12.66 8.7998 12 8.7998Z" fill="#2F455C"/>
</g>
</svg>
