<svg width="24" height="24" viewBox="0 0 24 24" fill="none" xmlns="http://www.w3.org/2000/svg">
<g id="Device/Device / mobile-off">
<path id="Icon Shape" d="M3.10004 2.75781C3.36452 2.75782 3.6183 2.86259 3.80511 3.0498L17.1948 16.4404L19.1948 18.4404L21.6049 20.8604C21.9947 21.2503 21.9947 21.8796 21.6049 22.2695C21.2149 22.6595 20.5848 22.6595 20.1948 22.2695L19.1752 21.25C19.0452 22.23 18.2148 23 17.1948 23H7.19476C6.09487 22.9999 5.19476 22.0999 5.19476 21V7.26953L2.39496 4.45996C2.005 4.06996 2.00497 3.43979 2.39496 3.0498C2.58178 2.8626 2.83556 2.75781 3.10004 2.75781ZM7.19476 19H16.9252L7.19476 9.26953V19ZM17.1948 1C18.2948 1 19.1948 1.9 19.1948 3V15.6104L17.1948 13.6104V5H8.58539L5.51508 1.92969C5.86507 1.36989 6.48497 1.00008 7.19476 1H17.1948Z" fill="#2F455C"/>
</g>
</svg>
