<svg width="24" height="24" viewBox="0 0 24 24" fill="none" xmlns="http://www.w3.org/2000/svg">
<g id="Device/Device / usb">
<path id="Icon Shape" d="M18.095 7.23634H16.095C15.545 7.23634 15.095 7.68634 15.095 8.23634V10.2363C15.095 10.7863 15.545 11.2363 16.095 11.2363V13.2363H13.095V5.23634H14.095C14.505 5.23634 14.745 4.76634 14.495 4.43634L12.495 1.76634C12.295 1.49634 11.895 1.49634 11.695 1.76634L9.695 4.43634C9.445 4.76634 9.685 5.23634 10.095 5.23634H11.095V13.2363H8.095V11.1663C8.925 10.7263 9.475 9.80634 9.235 8.73634C9.065 7.96634 8.465 7.33634 7.715 7.12634C6.245 6.71634 4.895 7.82634 4.895 9.23634C4.895 10.0863 5.395 10.7963 6.095 11.1663V13.2363C6.095 14.3363 6.995 15.2363 8.095 15.2363H11.095V18.2863C10.235 18.7363 9.705 19.7063 9.965 20.7763C10.145 21.5263 10.755 22.1563 11.505 22.3563C12.965 22.7463 14.305 21.6563 14.305 20.2363C14.305 19.3863 13.815 18.6563 13.105 18.2863V15.2363H16.105C17.205 15.2363 18.105 14.3363 18.105 13.2363V11.2363C18.655 11.2363 19.105 10.7863 19.105 10.2363V8.23634C19.095 7.68634 18.645 7.23634 18.095 7.23634Z" fill="#2F455C"/>
</g>
</svg>
