<svg width="24" height="24" viewBox="0 0 24 24" fill="none" xmlns="http://www.w3.org/2000/svg">
<g id="Device/Device / screen-rotation">
<path id="Icon Shape" d="M0.770126 12.9998C1.19007 12.9299 1.57048 13.21 1.63048 13.6199C2.18052 17.1094 4.43017 20.0194 7.52013 21.4792L8.8502 20.1492L12.3297 23.6384C12.4497 23.7684 12.37 23.989 12.19 23.989C9.94022 24.039 7.96019 23.4389 6.39024 22.6091C3.11034 20.8694 0.750093 17.6695 0.150009 13.8601C0.0800092 13.4502 0.360126 13.0597 0.770126 12.9998ZM8.10997 1.74097C8.68995 1.1512 9.64012 1.15117 10.2301 1.74097L22.2496 13.7595C22.8396 14.3395 22.8396 15.2897 22.2496 15.8796L15.8902 22.239C15.3103 22.8289 14.3601 22.8287 13.7701 22.239L1.74962 10.2205C1.15973 9.64056 1.15977 8.69026 1.74962 8.10034L8.10997 1.74097ZM9.88048 3.51147C9.49048 3.12152 8.86032 3.12152 8.47032 3.51147L3.52013 8.46069C3.33292 8.6475 3.22716 8.90132 3.22716 9.16577C3.22727 9.43004 3.33305 9.68318 3.52013 9.86987L14.1197 20.4685C14.5096 20.8584 15.1496 20.8589 15.5397 20.4792L20.4899 15.53C20.8799 15.1401 20.8799 14.5098 20.4899 14.1199L9.88048 3.51147ZM11.8102 0.0114746C14.0601 -0.038486 16.04 0.561478 17.61 1.39136C20.89 3.13115 23.2502 6.33108 23.8502 10.1306C23.9199 10.5404 23.6399 10.93 23.2301 10.99C22.8101 11.06 22.4297 10.7798 22.3697 10.3699C21.8197 6.88053 19.5699 3.97128 16.4801 2.51147L15.15 3.84058L11.6695 0.361084C11.5501 0.231048 11.6304 0.0114746 11.8102 0.0114746Z" fill="#2F455C"/>
</g>
</svg>
