<svg width="24" height="24" viewBox="0 0 24 24" fill="none" xmlns="http://www.w3.org/2000/svg">
<g id="Device/Device / settings-system_daydream">
<path id="Icon Shape" d="M21 3C22.1 3 23 3.9 23 5V19C23 20.1 22.1 21 21 21H3C1.9 21 1 20.1 1 19V5C1 3.9 1.9 3 3 3H21ZM4 4.99023C3.45 4.99023 3 5.44023 3 5.99023V18.0098C3 18.5598 3.45 19.0098 4 19.0098H20C20.55 19.0098 21 18.5598 21 18.0098V5.99023C21 5.44023 20.55 4.99023 20 4.99023H4ZM12 8C13.76 8 15.2102 9.31 15.4502 11H15.5C16.88 11 18 12.12 18 13.5C18 14.88 16.88 16 15.5 16H9C7.34 16 6 14.66 6 13C6 11.4501 7.16981 10.1796 8.67969 10.0195H8.83984C9.39991 8.8297 10.6001 8 12 8Z" fill="#2F455C"/>
</g>
</svg>
