<svg width="24" height="24" viewBox="0 0 24 24" fill="none" xmlns="http://www.w3.org/2000/svg">
<g id="Device/Device / wallpaper">
<path id="Icon Shape" d="M3 13C3.55 13 4 13.45 4 14V19C4 19.55 4.45 20 5 20H10C10.55 20 11 20.45 11 21C11 21.55 10.55 22 10 22H4C2.9 22 2 21.1 2 20V14C2 13.45 2.45 13 3 13ZM21 13C21.55 13 22 13.45 22 14V20C22 21.1 21.1 22 20 22H14C13.45 22 13 21.55 13 21C13 20.45 13.45 20 14 20H19C19.55 20 20 19.55 20 19V14C20 13.45 20.45 13 21 13ZM9.61035 13.4902C9.81035 13.2403 10.1896 13.2403 10.3896 13.4902L12.9697 16.71L14.5996 14.5303C14.7996 14.2603 15.2004 14.2603 15.4004 14.5303L17.4004 17.2002C17.65 17.5302 17.4099 18 17 18H7.04004C6.62007 18 6.39048 17.5204 6.65039 17.1904L9.61035 13.4902ZM10 2C10.55 2 11 2.45 11 3C11 3.55 10.55 4 10 4H5C4.45 4 4 4.45 4 5V10C4 10.55 3.55 11 3 11C2.45 11 2 10.55 2 10V4C2 2.9 2.9 2 4 2H10ZM20 2C21.1 2 22 2.9 22 4V10C22 10.55 21.55 11 21 11C20.45 11 20 10.55 20 10V5C20 4.45 19.55 4 19 4H14C13.45 4 13 3.55 13 3C13 2.45 13.45 2 14 2H20ZM15.5 7C16.33 7 17 7.67 17 8.5C17 9.33 16.33 10 15.5 10C14.67 10 14 9.33 14 8.5C14 7.67 14.67 7 15.5 7Z" fill="#2F455C"/>
</g>
</svg>
