<svg width="24" height="24" viewBox="0 0 24 24" fill="none" xmlns="http://www.w3.org/2000/svg">
<g id="Device/Device / battery-unknown">
<path id="Icon Shape" d="M13 2C13.55 2 14 2.45 14 3V4H15.6699C16.3999 4 17 4.60008 17 5.33008V20.6699C17 21.3999 16.4001 21.9999 15.6602 22H8.33984C7.59997 21.9999 7.00008 21.4 7 20.6602V5.33008C7 4.60008 7.60008 4 8.33008 4H10V3C10 2.45 10.45 2 11 2H13ZM11 18H13V16H11V18ZM12 8C10.69 8 9.58992 8.83023 9.16992 9.99023C9.00013 10.4801 9.36003 10.9999 9.87988 11C10.1998 11 10.4798 10.8001 10.5898 10.4902C10.7898 9.91023 11.35 9.5 12 9.5C12.83 9.5 13.5 10.17 13.5 11C13.5 11.41 13.3296 11.7896 13.0596 12.0596L12.1299 13C12.0199 13.12 11.9 13.2604 11.79 13.4004C11.7503 13.4502 11.7203 13.5097 11.6904 13.5596C11.6204 13.6596 11.5502 13.7601 11.4902 13.8701C11.3202 14.2001 11.2002 14.58 11.2002 15H12.7998C12.7998 14.82 12.87 14.6096 12.96 14.3896C13.0099 14.2697 13.0705 14.1394 13.1504 14.0195L13.2402 13.8701C13.3602 13.7102 13.49 13.5403 13.6299 13.4004C13.9151 13.1151 14.2877 12.7038 14.2998 12.6904C14.7298 12.2604 15 11.66 15 11C15 9.34 13.66 8 12 8Z" fill="#2F455C"/>
</g>
</svg>
