<svg width="24" height="24" viewBox="0 0 24 24" fill="none" xmlns="http://www.w3.org/2000/svg">
<g id="Device/Device / gps-fixed">
<path id="Icon Shape" d="M12 1C12.55 1 13 1.45 13 2V3.05957C17.17 3.51957 20.4804 6.83 20.9404 11H22C22.55 11 23 11.45 23 12C23 12.55 22.55 13 22 13H20.9404C20.4804 17.17 17.17 20.4804 13 20.9404V22C13 22.55 12.55 23 12 23C11.45 23 11 22.55 11 22V20.9404C6.83 20.4804 3.51957 17.17 3.05957 13H2C1.45 13 1 12.55 1 12C1 11.45 1.45 11 2 11H3.05957C3.51957 6.83 6.83 3.51957 11 3.05957V2C11 1.45 11.45 1 12 1ZM12 5C8.13 5 5 8.13 5 12C5 15.87 8.13 19 12 19C15.87 19 19 15.87 19 12C19 8.13 15.87 5 12 5ZM12 8C14.21 8 16 9.79 16 12C16 14.21 14.21 16 12 16C9.79 16 8 14.21 8 12C8 9.79 9.79 8 12 8Z" fill="#2F455C"/>
</g>
</svg>
