<svg width="24" height="24" viewBox="0 0 24 24" fill="none" xmlns="http://www.w3.org/2000/svg">
<g id="Device/Device / developer-mode">
<path id="Icon Shape" d="M18.0048 17C18.5548 17 19.0048 17.45 19.0048 18V21C19.0048 22.1 18.1048 23 17.0048 23H7.00476C5.90487 22.9999 5.00476 22.0999 5.00476 21V18C5.00476 17.4501 5.45487 17.0001 6.00476 17C6.55476 17 7.00476 17.45 7.00476 18V19H17.0048V18C17.0048 17.4501 17.4549 17.0001 18.0048 17ZM7.87488 8.12988C8.26483 7.73993 8.90479 7.74004 9.2948 8.12988C9.6848 8.51988 9.6848 9.15004 9.2948 9.54004L6.83484 12L9.2948 14.46C9.6848 14.85 9.6948 15.4899 9.2948 15.8799C8.9048 16.2698 8.26486 16.2699 7.87488 15.8799L4.70496 12.71C4.315 12.32 4.31497 11.6898 4.70496 11.2998L7.87488 8.12988ZM14.705 8.12988C15.0949 7.73996 15.7349 7.74001 16.1249 8.12988L19.2948 11.2998C19.6848 11.6898 19.6848 12.32 19.2948 12.71L16.1249 15.8799C15.7349 16.2699 15.095 16.2699 14.705 15.8799C14.315 15.4899 14.315 14.8597 14.705 14.4697L17.1747 12L14.705 9.54004C14.315 9.15004 14.315 8.51988 14.705 8.12988ZM17.0048 1.00977C18.1048 1.00977 19.0048 1.9 19.0048 3V6C19.0048 6.55 18.5548 7 18.0048 7C17.4549 6.99987 17.0048 6.54992 17.0048 6V5H7.00476V6C7.00476 6.55 6.55476 7 6.00476 7C5.45487 6.99987 5.00476 6.54992 5.00476 6V3C5.00476 1.90008 5.90487 1.00013 7.00476 1L17.0048 1.00977Z" fill="#2F455C"/>
</g>
</svg>
