<svg width="24" height="24" viewBox="0 0 24 24" fill="none" xmlns="http://www.w3.org/2000/svg">
<g id="Device/Device / brightness-auto">
<path id="Icon Shape" d="M10.5804 2.09998C11.3604 1.32029 12.6296 1.32031 13.4095 2.09998L15.3099 4.00037H18.0004C19.1002 4.00056 20.0004 4.90048 20.0004 6.00037V8.68982L21.8998 10.5804C22.6796 11.3604 22.6796 12.6296 21.8998 13.4095L20.0004 15.3099V18.0004C20.0002 19.1001 19.1001 20.0002 18.0004 20.0004H15.3197L13.4203 21.8998C12.6403 22.6798 11.3702 22.6798 10.5902 21.8998L8.6898 20.0004H6.00035C4.90047 20.0004 4.00054 19.1002 4.00035 18.0004V15.3197L2.09996 13.4203C1.32 12.6403 1.32008 11.3702 2.09996 10.5902L4.00035 8.68982V6.00037C4.00035 4.90037 4.90035 4.00037 6.00035 4.00037H8.6898L10.5804 2.09998ZM12.0004 7.00037C11.4005 7.00037 10.8704 7.37985 10.6703 7.94958L8.22984 14.8099C8.01988 15.3898 8.44985 16.0002 9.06969 16.0004C9.44969 16.0004 9.77953 15.7598 9.90953 15.3998L10.3998 14.0004H13.6L14.0902 15.3998C14.2202 15.7597 14.5499 15.9995 14.9398 15.9896C15.5598 15.9896 15.9896 15.3802 15.7796 14.8002L13.3402 7.93982C13.1302 7.37999 12.6002 7.00051 12.0004 7.00037ZM13.1498 12.6498H10.85L12.0004 9.00037L13.1498 12.6498Z" fill="#2F455C"/>
</g>
</svg>
