<svg width="24" height="24" viewBox="0 0 24 24" fill="none" xmlns="http://www.w3.org/2000/svg">
<g id="Device/Device / sd-storage">
<path id="Icon Shape" d="M18 2C19.1 2 20 2.9 20 4V20C20 21.1 19.1 22 18 22H6C4.9 22 4 21.1 4 20V8.82031C4 8.30039 4.2297 7.78991 4.59961 7.41992L9.41016 2.58984C9.79014 2.20994 10.3002 2 10.8301 2H18ZM11 4C10.45 4 10 4.45 10 5V7C10 7.55 10.45 8 11 8C11.55 8 12 7.55 12 7V5C12 4.45 11.55 4 11 4ZM14 4C13.45 4 13 4.45 13 5V7C13 7.55 13.45 8 14 8C14.55 8 15 7.55 15 7V5C15 4.45 14.55 4 14 4ZM17 4C16.45 4 16 4.45 16 5V7C16 7.55 16.45 8 17 8C17.55 8 18 7.55 18 7V5C18 4.45 17.55 4 17 4Z" fill="#2F455C"/>
</g>
</svg>
