<svg width="24" height="24" viewBox="0 0 24 24" fill="none" xmlns="http://www.w3.org/2000/svg">
<g id="Device/Device / bluetooth-disabled">
<path id="Icon Shape" d="M5.40941 4.40417C5.67391 4.40419 5.92766 4.50892 6.11449 4.69617L19.2942 17.8866C19.6841 18.2666 19.6839 18.9058 19.3039 19.2958C18.9139 19.6858 18.2848 19.6858 17.8948 19.2958L16.3039 17.7059L12.7141 21.2958C12.0841 21.9258 11.0041 21.4758 11.0041 20.5858V14.4061L7.11449 18.2958C6.72449 18.6858 6.09433 18.6858 5.70433 18.2958C5.31464 17.9058 5.31462 17.2765 5.70433 16.8866L10.594 11.996L4.70433 6.10632C4.31433 5.71632 4.31433 5.08617 4.70433 4.69617C4.89116 4.50892 5.14489 4.40417 5.40941 4.40417ZM13.0041 18.1659L14.884 16.286L13.0041 14.4061V18.1659ZM11.0041 3.40613C11.0042 2.51631 12.0841 2.07636 12.7141 2.70593L17.0041 6.99597C17.3941 7.39596 17.3941 8.02589 17.0041 8.41589L14.8244 10.5858L13.4143 9.17664L14.884 7.70593L13.0041 5.82605V8.76648L11.0041 6.76648V3.40613Z" fill="#2F455C"/>
</g>
</svg>
