<svg width="24" height="24" viewBox="0 0 24 24" fill="none" xmlns="http://www.w3.org/2000/svg">
<g id="Device/Device / mobile-friendly">
<path id="Icon Shape" d="M18.7211 1C19.8211 1 20.7211 1.9 20.7211 3V21C20.7211 22.1 19.8211 23 18.7211 23H8.72113C7.62118 22.9999 6.72113 22.1 6.72113 21V19C6.72113 18.45 7.17118 18.0001 7.72113 18C8.27113 18 8.72113 18.45 8.72113 19V20H18.7211V4H8.72113V5C8.72113 5.55 8.27113 6 7.72113 6C7.17118 5.99994 6.72113 5.54996 6.72113 5V3C6.72113 1.90004 7.62118 1.00006 8.72113 1H18.7211ZM12.0014 8.16992C12.3513 7.8201 12.921 7.82016 13.2709 8.16992C13.6209 8.51992 13.6209 9.09043 13.2709 9.44043L7.42133 15.29C7.03133 15.68 6.40117 15.68 6.01117 15.29L3.54144 12.8203C3.19144 12.4703 3.19144 11.8998 3.54144 11.5498C3.89138 11.2001 4.46102 11.2001 4.81097 11.5498L6.7309 13.4697L12.0014 8.16992Z" fill="#2F455C"/>
</g>
</svg>
