<svg width="24" height="24" viewBox="0 0 24 24" fill="none" xmlns="http://www.w3.org/2000/svg">
<g id="Device/Device / eq">
<path id="Icon Shape" d="M12 2C12.55 2 13 2.45 13 3V21C13 21.55 12.55 22 12 22C11.45 22 11 21.55 11 21V3C11 2.45 11.45 2 12 2ZM8 6C8.55 6 9 6.45 9 7V17C9 17.55 8.55 18 8 18C7.45 18 7 17.55 7 17V7C7 6.45 7.45 6 8 6ZM16 6C16.55 6 17 6.45 17 7V17C17 17.55 16.55 18 16 18C15.45 18 15 17.55 15 17V7C15 6.45 15.45 6 16 6ZM4 10C4.55 10 5 10.45 5 11V13C5 13.55 4.55 14 4 14C3.45 14 3 13.55 3 13V11C3 10.45 3.45 10 4 10ZM20 10C20.55 10 21 10.45 21 11V13C21 13.55 20.55 14 20 14C19.45 14 19 13.55 19 13V11C19 10.45 19.45 10 20 10Z" fill="#2F455C"/>
</g>
</svg>
