<svg width="24" height="24" viewBox="0 0 24 24" fill="none" xmlns="http://www.w3.org/2000/svg">
<g id="Device/Device / airplanemode-inactive">
<path id="Icon Shape" d="M20.6396 19.6703L19.2305 21.0804L13.5 15.35V19.0804L15.2998 20.4301C15.4298 20.5201 15.5 20.6704 15.5 20.8304V21.4203C15.5 21.7501 15.1802 21.9904 14.8604 21.9008L12 21.0804L9.13965 21.9008C8.81978 21.9904 8.5 21.7501 8.5 21.4203V20.8304C8.5 20.6704 8.5702 20.5201 8.7002 20.4301L10.5 19.0804V13.5804L3.86035 15.6605C3.18038 15.8705 2.50005 15.3605 2.5 14.6605C2.5 14.3005 2.69023 13.9606 2.99023 13.7806L8.49023 10.3402L3.5 5.34998L4.91016 3.9408L20.6396 19.6703ZM12 2.08044C12.83 2.08044 13.5 2.75044 13.5 3.58044V9.08044L21.0098 13.7709C21.3097 13.9709 21.5 14.3005 21.5 14.6605C21.4999 15.3705 20.8096 15.8705 20.1396 15.6605L19.1504 15.3402L10.5 6.6908V3.58044C10.5 2.75044 11.17 2.08044 12 2.08044Z" fill="#2F455C"/>
</g>
</svg>
