<svg width="24" height="24" viewBox="0 0 24 24" fill="none" xmlns="http://www.w3.org/2000/svg">
<g id="Device/Device / widgets">
<path id="Icon Shape" d="M9.54875 13.4458C10.0986 13.4458 10.5485 13.896 10.5488 14.4458V20.4458C10.5488 20.9958 10.0988 21.4458 9.54875 21.4458H3.54875C2.99875 21.4458 2.54875 20.9958 2.54875 20.4458V14.4458C2.54899 13.896 2.99889 13.4458 3.54875 13.4458H9.54875ZM19.5488 13.4458C20.0986 13.4458 20.5485 13.896 20.5488 14.4458V20.4458C20.5488 20.9958 20.0988 21.4458 19.5488 21.4458H13.5488C12.9988 21.4458 12.5488 20.9958 12.5488 20.4458V14.4458C12.549 13.896 12.9989 13.4458 13.5488 13.4458H19.5488ZM15.4989 2.84619C15.889 2.45631 16.5289 2.45623 16.9189 2.84619L21.1591 7.08643C21.5488 7.47645 21.549 8.10667 21.1591 8.49658L16.9091 12.7466C16.5192 13.1365 15.889 13.1363 15.4989 12.7466L11.2489 8.49658C10.8589 8.10658 10.8589 7.47643 11.2489 7.08643L15.4989 2.84619ZM9.54875 3.4458C10.0986 3.4458 10.5485 3.896 10.5488 4.4458V10.4458C10.5488 10.9958 10.0988 11.4458 9.54875 11.4458H3.54875C2.99875 11.4458 2.54875 10.9958 2.54875 10.4458V4.4458C2.54899 3.896 2.9989 3.4458 3.54875 3.4458H9.54875Z" fill="#2F455C"/>
</g>
</svg>
