<svg width="24" height="24" viewBox="0 0 24 24" fill="none" xmlns="http://www.w3.org/2000/svg">
<g id="Editor / vertical-align_bottom">
<path id="Icon Shape" d="M19 19C19.55 19 20 19.45 20 20C20 20.55 19.55 21 19 21H5C4.45 21 4 20.55 4 20C4 19.45 4.45 19 5 19H19ZM12 3C12.55 3 13 3.45 13 4V13H14.79C15.2398 13 15.4598 13.5396 15.1504 13.8496L12.3604 16.6396C12.1604 16.8396 11.8504 16.8396 11.6504 16.6396L8.86035 13.8496C8.54038 13.5396 8.75999 13 9.20996 13H11V4C11 3.45 11.45 3 12 3Z" fill="#2F455C"/>
</g>
</svg>
