<svg width="24" height="24" viewBox="0 0 24 24" fill="none" xmlns="http://www.w3.org/2000/svg">
<g id="Editor / format-color_reset">
<path id="Icon Shape" d="M5.41566 5.31006C5.68009 5.31007 5.93393 5.4149 6.12074 5.60205L19.2907 18.7729C19.6803 19.1629 19.6805 19.8022 19.2809 20.1821C18.8909 20.5721 18.2607 20.5721 17.8707 20.1821L15.9508 18.2622C14.9008 19.1922 13.5206 19.7622 12.0006 19.7622C8.69062 19.7622 6.00062 17.0722 6.00062 13.7622C6.0007 12.5523 6.55099 11.0924 7.32093 9.62256L4.71058 7.01221C4.32073 6.6222 4.32063 5.992 4.71058 5.60205C4.89739 5.41492 5.15123 5.31006 5.41566 5.31006ZM11.2203 3.89209C11.6202 3.40234 12.3701 3.40259 12.7701 3.89209C14.4001 5.88203 18.0004 10.6722 18.0006 13.7622C18.0006 14.0421 17.9703 14.3222 17.9303 14.6021L9.49085 6.1626C10.1408 5.25261 10.7604 4.46208 11.2203 3.89209Z" fill="#2F455C"/>
</g>
</svg>
