<svg width="24" height="24" viewBox="0 0 24 24" fill="none" xmlns="http://www.w3.org/2000/svg">
<g id="Editor / format-quote">
<path id="Icon Shape" d="M9 7C9.55 7 10 7.45 10 8V12.5303C9.99996 12.8401 9.92997 13.14 9.79004 13.4199L8.37012 16.2598C8.15012 16.7098 7.67992 17 7.16992 17C6.16997 16.9999 5.51974 15.9495 5.96973 15.0596L7 13H5C4.45 13 4 12.55 4 12V8C4 7.45 4.45 7 5 7H9ZM19 7C19.55 7 20 7.45 20 8V12.5303C20 12.8401 19.93 13.14 19.79 13.4199L18.3701 16.2598C18.1501 16.7098 17.6799 17 17.1699 17C16.17 16.9999 15.5197 15.9495 15.9697 15.0596L17 13H15C14.45 13 14 12.55 14 12V8C14 7.45 14.45 7 15 7H19Z" fill="#2F455C"/>
</g>
</svg>
