<svg width="24" height="24" viewBox="0 0 24 24" fill="none" xmlns="http://www.w3.org/2000/svg">
<g id="Editor / format-shapes">
<path id="Icon Shape" d="M6 1C6.55 1 7 1.45 7 2V3H17V2C17 1.45 17.45 1 18 1H22C22.55 1 23 1.45 23 2V6C23 6.55 22.55 7 22 7H21V17H22C22.55 17 23 17.45 23 18V22C23 22.55 22.55 23 22 23H18C17.45 23 17 22.55 17 22V21H7V22C7 22.55 6.55 23 6 23H2C1.45 23 1 22.55 1 22V18C1 17.45 1.45 17 2 17H3V7H2C1.45 7 1 6.55 1 6V2C1 1.45 1.45 1 2 1H6ZM3 21H5V19H3V21ZM19 21H21V19H19V21ZM7 6C7 6.55 6.55 7 6 7H5V17H6C6.55 17 7 17.45 7 18V19H17V18C17 17.45 17.45 17 18 17H19V7H18C17.45 7 17 6.55 17 6V5H7V6ZM11.9902 7C12.4101 7.0001 12.7905 7.26046 12.9404 7.65039L15.7197 14.9805C15.8994 15.4704 15.5396 16 15.0098 16H15C14.68 16 14.4 15.7998 14.29 15.5098L13.7305 14H10.2402L9.69043 15.5C9.58048 15.7999 9.30027 15.9998 8.98047 16C8.45058 16 8.09055 15.4704 8.28027 14.9805L11.0498 7.65039C11.1898 7.26039 11.5702 7 11.9902 7ZM10.6904 12.7402H13.2998L12 8.91016L10.6904 12.7402ZM3 5H5V3H3V5ZM19 5H21V3H19V5Z" fill="#2F455C"/>
</g>
</svg>
