<svg width="24" height="24" viewBox="0 0 24 24" fill="none" xmlns="http://www.w3.org/2000/svg">
<g id="Editor / border-bottom">
<path id="Icon Shape" d="M20 19C20.55 19 21 19.45 21 20C21 20.55 20.55 21 20 21H4C3.45 21 3 20.55 3 20C3 19.45 3.45 19 4 19H20ZM5 15V17H3V15H5ZM13 17H11V15H13V17ZM21 17H19V15H21V17ZM5 13H3V11H5V13ZM9 13H7V11H9V13ZM13 13H11V11H13V13ZM17 13H15V11H17V13ZM21 13H19V11H21V13ZM5 9H3V7H5V9ZM13 9H11V7H13V9ZM21 9H19V7H21V9ZM5 5H3V3H5V5ZM9 5H7V3H9V5ZM13 5H11V3H13V5ZM17 5H15V3H17V5ZM21 5H19V3H21V5Z" fill="#2F455C"/>
</g>
</svg>
