<svg width="24" height="24" viewBox="0 0 24 24" fill="none" xmlns="http://www.w3.org/2000/svg">
<g id="Editor / format-underlined">
<path id="Icon Shape" d="M18 19C18.55 19 19 19.45 19 20C19 20.55 18.55 21 18 21H6C5.45 21 5 20.55 5 20C5 19.45 5.45 19 6 19H18ZM16.75 3C17.44 3 18 3.56 18 4.25V10.79C18 13.84 15.82 16.5602 12.79 16.9502C9.13004 17.4202 6 14.57 6 11V4.25C6 3.56 6.56 3 7.25 3C7.94 3 8.5 3.56 8.5 4.25V11C8.5 13.17 10.4805 14.8899 12.7305 14.4199C14.3701 14.0898 15.4998 12.5701 15.5 10.9004V4.25C15.5 3.56 16.06 3 16.75 3Z" fill="#2F455C"/>
</g>
</svg>
