<svg width="24" height="24" viewBox="0 0 24 24" fill="none" xmlns="http://www.w3.org/2000/svg">
<g id="Editor / show-chart">
<path id="Icon Shape" d="M4.18601 17.7645L9.48601 12.4645L12.736 15.7145C13.146 16.1245 13.806 16.1045 14.186 15.6745L21.356 7.60453C21.706 7.21453 21.686 6.61453 21.316 6.23453C20.916 5.83453 20.246 5.84453 19.866 6.27453L13.476 13.4545L10.186 10.1645C9.99918 9.97727 9.74553 9.87204 9.48101 9.87204C9.21649 9.87204 8.96284 9.97727 8.77601 10.1645L2.68601 16.2645C2.29601 16.6545 2.29601 17.2845 2.68601 17.6745L2.77601 17.7645C3.16601 18.1545 3.80601 18.1545 4.18601 17.7645Z" fill="#2F455C"/>
</g>
</svg>
