<svg width="24" height="24" viewBox="0 0 24 24" fill="none" xmlns="http://www.w3.org/2000/svg">
<g id="Editor / border-color">
<path id="Icon Shape" d="M22 20C23.0999 20 23.9999 20.9002 24 22C24 23.0999 23.1 24 22 24H2C0.9 24 0 23.0999 0 22C0.000112818 20.9002 0.900069 20 2 20H22ZM17.75 7.00195L7.88965 16.8506C7.79966 16.9505 7.66999 17.001 7.54004 17.001H4.5C4.22007 17.001 4.0001 16.7809 4 16.501V13.4609C4.00004 13.321 4.05044 13.2015 4.15039 13.1016L14 3.25195L17.75 7.00195ZM17.665 0C17.9295 1.03655e-05 18.1833 0.104877 18.3701 0.291992L20.71 2.63184C21.1 3.02179 21.0999 3.65203 20.71 4.04199L18.75 6.00195L15 2.25195L16.96 0.291992C17.1468 0.104892 17.4006 0 17.665 0Z" fill="#2F455C"/>
</g>
</svg>
