<svg width="24" height="24" viewBox="0 0 24 24" fill="none" xmlns="http://www.w3.org/2000/svg">
<g id="Editor / scatter-plot">
<path id="Icon Shape" d="M16.8 14.7996C18.4567 14.7996 19.7998 16.1429 19.8 17.7996C19.8 19.4564 18.4569 20.7995 16.8 20.7996C15.1432 20.7996 13.8 19.4564 13.8 17.7996C13.8002 16.1429 15.1433 14.7996 16.8 14.7996ZM7.20042 11.2C8.27205 11.2001 9.26224 11.7719 9.79807 12.7C10.334 13.6282 10.334 14.7717 9.79807 15.7C9.26224 16.628 8.27205 17.1998 7.20042 17.2C6.12862 17.2 5.13768 16.6282 4.60178 15.7C4.06593 14.7718 4.06593 13.6281 4.60178 12.7C5.13768 11.7717 6.12862 11.2 7.20042 11.2ZM11.2004 3.19995C12.8571 3.20018 14.2004 4.54324 14.2004 6.19995C14.2004 7.85667 12.8571 9.19972 11.2004 9.19995C9.54356 9.19995 8.20042 7.85681 8.20042 6.19995C8.20042 4.5431 9.54356 3.19995 11.2004 3.19995Z" fill="#2F455C"/>
</g>
</svg>
