<svg width="24" height="24" viewBox="0 0 24 24" fill="none" xmlns="http://www.w3.org/2000/svg">
<g id="Editor / highlight">
<path id="Icon Shape" d="M16.9995 9C17.5495 9 17.9995 9.45 17.9995 10V13.5801C17.9995 13.8499 17.9003 14.1001 17.7105 14.29L14.9995 17V21C14.9995 21.55 14.5495 22 13.9995 22H9.99954C9.44975 21.9998 8.99954 21.5498 8.99954 21V17L6.28958 14.29C6.10969 14.11 5.99954 13.8498 5.99954 13.5898V10C5.99954 9.45015 6.44975 9.00025 6.99954 9H16.9995ZM4.21048 5.16992C4.6005 4.7802 5.2305 4.78002 5.6304 5.16992L6.34036 5.87988C6.73018 6.26984 6.73016 6.90007 6.34036 7.29004C5.9504 7.68 5.32022 7.67991 4.93021 7.29004L4.21048 6.58008C4.02323 6.39325 3.91751 6.13952 3.91751 5.875C3.91751 5.61048 4.02323 5.35675 4.21048 5.16992ZM18.3804 5.16992C18.7703 4.78025 19.3996 4.78025 19.7896 5.16992C20.1796 5.55992 20.1796 6.19008 19.7896 6.58008L19.0796 7.29004C18.6897 7.67975 18.0604 7.67973 17.6704 7.29004C17.4832 7.10321 17.3775 6.84948 17.3775 6.58496C17.3775 6.32046 17.4832 6.06671 17.6704 5.87988L18.3804 5.16992ZM11.9995 2C12.5495 2 12.9995 2.45 12.9995 3V4C12.9995 4.55 12.5495 5 11.9995 5C11.4497 4.99975 10.9995 4.54985 10.9995 4V3C10.9995 2.45015 11.4497 2.00025 11.9995 2Z" fill="#2F455C"/>
</g>
</svg>
