<svg width="24" height="24" viewBox="0 0 24 24" fill="none" xmlns="http://www.w3.org/2000/svg">
<g id="Editor / format-indent_decrease">
<path id="Icon Shape" d="M20 19C20.55 19 21 19.45 21 20C21 20.55 20.55 21 20 21H4C3.45 21 3 20.55 3 20C3 19.45 3.45 19 4 19H20ZM20 15C20.55 15 21 15.45 21 16C21 16.55 20.55 17 20 17H12C11.45 17 11 16.55 11 16C11 15.45 11.45 15 12 15H20ZM6.15039 8.86035C6.46038 8.54038 6.99997 8.75999 7 9.20996V14.79C6.99997 15.24 6.45964 15.4596 6.13965 15.1396L3.34961 12.3496C3.16 12.1596 3.1605 11.8403 3.36035 11.6504L6.15039 8.86035ZM20 11C20.55 11 21 11.45 21 12C21 12.55 20.55 13 20 13H12C11.45 13 11 12.55 11 12C11 11.45 11.45 11 12 11H20ZM20 7C20.55 7 21 7.45 21 8C21 8.55 20.55 9 20 9H12C11.45 9 11 8.55 11 8C11 7.45 11.45 7 12 7H20ZM20 3C20.55 3 21 3.45 21 4C21 4.55 20.55 5 20 5H4C3.45 5 3 4.55 3 4C3 3.45 3.45 3 4 3H20Z" fill="#2F455C"/>
</g>
</svg>
