<svg width="24" height="24" viewBox="0 0 24 24" fill="none" xmlns="http://www.w3.org/2000/svg">
<g id="Editor / score">
<path id="Icon Shape" d="M19 3C20.1 3 21 3.9 21 5V19C21 20.1 20.1 21 19 21H5C3.9 21 3 20.1 3 19V5C3 3.9 3.9 3 5 3H19ZM19 12.6299C18.9999 11.8501 18.0502 11.4501 17.4902 12.0098L13 16.5L9.7002 13.2197C9.31024 12.8298 8.68004 12.8299 8.29004 13.2197L5.25977 16.25C5.08985 16.41 5 16.6402 5 16.8701C5.0001 17.6499 5.94976 18.0499 6.50977 17.4902L9 15L12.2998 18.29C12.6898 18.68 13.32 18.68 13.71 18.29L18.7402 13.2598C18.9101 13.0898 19 12.8698 19 12.6299ZM7.75 5C7.34 5 7 5.34 7 5.75C7 6.16 7.34 6.5 7.75 6.5H9.5V7.25H8C7.45 7.25 7 7.7 7 8.25V10C7 10.55 7.45 11 8 11H10.25C10.66 11 11 10.66 11 10.25C11 9.84 10.66 9.5 10.25 9.5H8.5V8.75H10C10.55 8.75 11 8.3 11 7.75V6C11 5.45 10.55 5 10 5H7.75ZM15.8799 5C15.6401 5.00004 15.42 5.11978 15.29 5.30957L13.5 8V5.75C13.5 5.34 13.16 5 12.75 5C12.34 5 12 5.34 12 5.75V10.25C12 10.66 12.34 11 12.75 11C13.16 11 13.5 10.66 13.5 10.25V8L15.29 10.6904C15.42 10.8802 15.6401 11 15.8799 11C16.4498 11 16.7796 10.3704 16.4697 9.90039L15.2002 8L16.4697 6.09961C16.7796 5.62963 16.4398 5 15.8799 5Z" fill="#2F455C"/>
</g>
</svg>
