<svg width="24" height="24" viewBox="0 0 24 24" fill="none" xmlns="http://www.w3.org/2000/svg">
<g id="Editor / wrap-text">
<path id="Icon Shape" d="M16.3305 10.3503C18.4205 10.3504 20.2809 11.8807 20.4809 13.9607C20.7106 16.3405 18.8403 18.3503 16.5004 18.3503H14.5004V19.1501C14.5004 19.59 13.9708 19.8202 13.6508 19.5007L11.8608 17.7107C11.6608 17.5107 11.6608 17.2007 11.8608 17.0007L13.6508 15.2107C13.9608 14.8907 14.5004 15.1103 14.5004 15.5603V16.3503H16.7504C17.9604 16.3503 18.9301 15.2605 18.7201 14.0105C18.5601 13.0205 17.6303 12.3503 16.6303 12.3503H4.50041C3.95041 12.3503 3.50041 11.9003 3.50041 11.3503C3.50041 10.8003 3.95041 10.3503 4.50041 10.3503H16.3305ZM8.50041 16.3503C9.05041 16.3503 9.50041 16.8003 9.50041 17.3503C9.50041 17.9003 9.05041 18.3503 8.50041 18.3503H4.50041C3.95041 18.3503 3.50041 17.9003 3.50041 17.3503C3.50041 16.8003 3.95041 16.3503 4.50041 16.3503H8.50041ZM18.5004 4.35034C19.0504 4.35034 19.5004 4.80034 19.5004 5.35034C19.5004 5.90034 19.0504 6.35034 18.5004 6.35034H4.50041C3.95041 6.35034 3.50041 5.90034 3.50041 5.35034C3.50041 4.80034 3.95041 4.35034 4.50041 4.35034H18.5004Z" fill="#2F455C"/>
</g>
</svg>
