<svg width="24" height="24" viewBox="0 0 24 24" fill="none" xmlns="http://www.w3.org/2000/svg">
<g id="Editor / format-strikethrough">
<path id="Icon Shape" d="M14 17.5C14 18.6 13.1 19.5 12 19.5C10.9 19.5 10 18.6 10 17.5V16.5H14V17.5ZM20 12.5C20.55 12.5 21 12.95 21 13.5C21 14.05 20.55 14.5 20 14.5H4C3.45 14.5 3 14.05 3 13.5C3 12.95 3.45 12.5 4 12.5H20ZM17.5 4.5C18.33 4.5 19 5.17 19 6C19 6.83 18.33 7.5 17.5 7.5H14V10.5H10V7.5H6.5C5.67 7.5 5 6.83 5 6C5 5.17 5.67 4.5 6.5 4.5H17.5Z" fill="#2F455C"/>
</g>
</svg>
