<svg width="24" height="24" viewBox="0 0 24 24" fill="none" xmlns="http://www.w3.org/2000/svg">
<g id="Editor / format-align_center">
<path id="Icon Shape" d="M20 19C20.55 19 21 19.45 21 20C21 20.55 20.55 21 20 21H4C3.45 21 3 20.55 3 20C3 19.45 3.45 19 4 19H20ZM16 15C16.55 15 17 15.45 17 16C17 16.55 16.55 17 16 17H8C7.45 17 7 16.55 7 16C7 15.45 7.45 15 8 15H16ZM20 11C20.55 11 21 11.45 21 12C21 12.55 20.55 13 20 13H4C3.45 13 3 12.55 3 12C3 11.45 3.45 11 4 11H20ZM16 7C16.55 7 17 7.45 17 8C17 8.55 16.55 9 16 9H8C7.45 9 7 8.55 7 8C7 7.45 7.45 7 8 7H16ZM20 3C20.55 3 21 3.45 21 4C21 4.55 20.55 5 20 5H4C3.45 5 3 4.55 3 4C3 3.45 3.45 3 4 3H20Z" fill="#2F455C"/>
</g>
</svg>
