<svg width="24" height="24" viewBox="0 0 24 24" fill="none" xmlns="http://www.w3.org/2000/svg">
<g id="Editor / format-indent_increase">
<path id="Icon Shape" d="M20 19C20.55 19 21 19.45 21 20C21 20.55 20.55 21 20 21H4C3.45 21 3 20.55 3 20C3 19.45 3.45 19 4 19H20ZM20 15C20.55 15 21 15.45 21 16C21 16.55 20.55 17 20 17H12C11.45 17 11 16.55 11 16C11 15.45 11.45 15 12 15H20ZM3 9.20996C3.00003 8.76018 3.53956 8.54019 3.84961 8.84961L6.63965 11.6504C6.83963 11.8504 6.83964 12.1604 6.63965 12.3604L3.84961 15.1504C3.53955 15.4698 3 15.2496 3 14.7998V9.20996ZM20 11C20.55 11 21 11.45 21 12C21 12.55 20.55 13 20 13H12C11.45 13 11 12.55 11 12C11 11.45 11.45 11 12 11H20ZM20 7C20.55 7 21 7.45 21 8C21 8.55 20.55 9 20 9H12C11.45 9 11 8.55 11 8C11 7.45 11.45 7 12 7H20ZM20 3C20.55 3 21 3.45 21 4C21 4.55 20.55 5 20 5H4C3.45 5 3 4.55 3 4C3 3.45 3.45 3 4 3H20Z" fill="#2F455C"/>
</g>
</svg>
