<svg width="24" height="24" viewBox="0 0 24 24" fill="none" xmlns="http://www.w3.org/2000/svg">
<g id="Editor / border-left">
<path id="Icon Shape" d="M4 3C4.55 3 5 3.45 5 4V20C5 20.55 4.55 21 4 21C3.45 21 3 20.55 3 20V4C3 3.45 3.45 3 4 3ZM9 21H7V19H9V21ZM13 21H11V19H13V21ZM17 21H15V19H17V21ZM21 21H19V19H21V21ZM13 17H11V15H13V17ZM21 17H19V15H21V17ZM9 13H7V11H9V13ZM13 13H11V11H13V13ZM17 13H15V11H17V13ZM21 13H19V11H21V13ZM13 9H11V7H13V9ZM21 9H19V7H21V9ZM9 5H7V3H9V5ZM13 5H11V3H13V5ZM17 3V5H15V3H17ZM21 5H19V3H21V5Z" fill="#2F455C"/>
</g>
</svg>
