<svg width="24" height="24" viewBox="0 0 24 24" fill="none" xmlns="http://www.w3.org/2000/svg">
<g id="Editor / pie-chart_outline">
<path id="Icon Shape" d="M12 2C17.5 2 22 6.5 22 12C22 17.5 17.5 22 12 22C6.5 22 2 17.5 2 12C2 6.5 6.5 2 12 2ZM11 4.07031C7.07002 4.56033 4 7.94001 4 12C4 16.06 7.07 19.4404 11 19.9404V4.07031ZM14 13C13.45 13 13 13.45 13 14V19.9297C16.61 19.4797 19.4797 16.61 19.9297 13H14ZM13 10C13 10.55 13.45 11 14 11H19.9297C19.4797 7.40003 16.61 4.52033 13 4.07031V10Z" fill="#2F455C"/>
</g>
</svg>
