<svg width="24" height="24" viewBox="0 0 24 24" fill="none" xmlns="http://www.w3.org/2000/svg">
<g id="Editor / bubble-chart">
<path id="Icon Shape" d="M14.7998 16C15.9044 16 16.7998 16.8954 16.7998 18C16.7998 19.1046 15.9044 20 14.7998 20C13.6953 19.9999 12.7998 19.1045 12.7998 18C12.7998 16.8955 13.6953 16.0001 14.7998 16ZM7.2002 11.2002C8.34337 11.2003 9.40009 11.8098 9.97168 12.7998C10.5433 13.7898 10.5432 15.01 9.97168 16C9.40009 16.99 8.34337 17.5995 7.2002 17.5996C6.05695 17.5996 5.00034 16.9901 4.42871 16C3.85709 15.0099 3.85709 13.7899 4.42871 12.7998C5.00036 11.8098 6.057 11.2002 7.2002 11.2002ZM15.2002 4C17.851 4.00011 19.9999 6.14899 20 8.7998C20 11.4507 17.8511 13.5995 15.2002 13.5996C12.5492 13.5996 10.4004 11.4508 10.4004 8.7998C10.4005 6.14893 12.5493 4 15.2002 4Z" fill="#2F455C"/>
</g>
</svg>
