<svg width="24" height="24" viewBox="0 0 24 24" fill="none" xmlns="http://www.w3.org/2000/svg">
<g id="Editor / format-list_numbered_rtl">
<path id="Icon Shape" d="M21 16C21.28 16 21.5 16.22 21.5 16.5V19.5C21.5 19.78 21.28 20 21 20H19C18.72 20 18.5 19.78 18.5 19.5C18.5 19.22 18.72 19 19 19H20.5V18.5H20C19.72 18.5 19.5 18.28 19.5 18C19.5 17.72 19.72 17.5 20 17.5H20.5V17H19C18.72 17 18.5 16.78 18.5 16.5C18.5 16.22 18.72 16 19 16H21ZM15.5 17C16.05 17 16.5 17.45 16.5 18C16.5 18.55 16.05 19 15.5 19H3.5C2.95 19 2.5 18.55 2.5 18C2.5 17.45 2.95 17 3.5 17H15.5ZM21 10C21.28 10 21.5 10.22 21.5 10.5V10.7197C21.5 10.8297 21.4599 10.95 21.3799 11.04L19.7002 13H21C21.28 13 21.5 13.22 21.5 13.5C21.5 13.78 21.28 14 21 14H19C18.72 14 18.5 13.78 18.5 13.5V13.2803C18.5 13.1703 18.5401 13.05 18.6201 12.96L20.2998 11H19C18.72 11 18.5 10.78 18.5 10.5C18.5 10.22 18.72 10 19 10H21ZM15.5 11C16.05 11 16.5 11.45 16.5 12C16.5 12.55 16.05 13 15.5 13H3.5C2.95 13 2.5 12.55 2.5 12C2.5 11.45 2.95 11 3.5 11H15.5ZM20 4C20.28 4 20.5 4.22 20.5 4.5V7.5C20.5 7.78 20.28 8 20 8C19.72 8 19.5 7.78 19.5 7.5V5H19C18.72 5 18.5 4.78 18.5 4.5C18.5 4.22 18.72 4 19 4H20ZM15.5 5C16.05 5 16.5 5.45 16.5 6C16.5 6.55 16.05 7 15.5 7H3.5C2.95 7 2.5 6.55 2.5 6C2.5 5.45 2.95 5 3.5 5H15.5Z" fill="#2F455C"/>
</g>
</svg>
