<svg width="24" height="24" viewBox="0 0 24 24" fill="none" xmlns="http://www.w3.org/2000/svg">
<g id="Editor / money-off_csred">
<path id="Icon Shape" d="M5.39503 4.32715C5.65954 4.32716 5.91329 4.43287 6.10011 4.62012L19.3101 17.8301C19.7 18.2201 19.7 18.8503 19.3101 19.2402C18.9201 19.6301 18.2899 19.6301 17.8999 19.2402L16.3902 17.7305C15.7602 18.3003 14.89 18.6696 13.9302 18.8496V19.5C13.9302 20.3299 13.2601 20.9999 12.4302 21C11.6002 21 10.9302 20.33 10.9302 19.5V18.8301C9.46019 18.5101 8.15984 17.7196 7.56984 16.3896C7.28018 15.7397 7.80016 15 8.52003 15H8.68996C9.09996 15 9.44035 15.2799 9.59035 15.6699C9.92036 16.5099 10.7705 17.0996 12.4204 17.0996C13.79 17.0995 14.5003 16.6803 14.8403 16.1904L11.3296 12.6797C8.97985 11.9897 7.42043 10.8494 7.42043 8.76953L4.68996 6.03027C4.29998 5.6403 4.30003 5.01012 4.68996 4.62012C4.87679 4.43286 5.13052 4.32715 5.39503 4.32715ZM12.4204 3C13.2502 3.00023 13.9204 3.67014 13.9204 4.5V5.19043C15.44 5.56048 16.4101 6.4899 16.8501 7.63965C17.1001 8.28953 16.5802 8.99974 15.8804 9H15.8198C15.3699 8.99994 14.9401 8.72975 14.8101 8.2998C14.5501 7.43998 13.8401 6.9005 12.4204 6.90039C12.0204 6.90039 11.6496 6.95027 11.3296 7.03027L9.81984 5.51953C10.1698 5.36954 10.5304 5.24015 10.9204 5.16016V4.5C10.9204 3.67 11.5904 3 12.4204 3Z" fill="#2F455C"/>
</g>
</svg>
