<svg width="24" height="24" viewBox="0 0 24 24" fill="none" xmlns="http://www.w3.org/2000/svg">
<g id="Editor / border-horizontal">
<path id="Icon Shape" d="M5 21H3V19H5V21ZM9 21H7V19H9V21ZM13 21H11V19H13V21ZM17 21H15V19H17V21ZM21 19V21H19V19H21ZM5 17H3V15H5V17ZM13 17H11V15H13V17ZM21 17H19V15H21V17ZM20 11C20.55 11 21 11.45 21 12C21 12.55 20.55 13 20 13H4C3.45 13 3 12.55 3 12C3 11.45 3.45 11 4 11H20ZM5 9H3V7H5V9ZM13 9H11V7H13V9ZM21 9H19V7H21V9ZM5 5H3V3H5V5ZM9 5H7V3H9V5ZM13 5H11V3H13V5ZM17 5H15V3H17V5ZM21 5H19V3H21V5Z" fill="#2F455C"/>
</g>
</svg>
