<svg width="24" height="24" viewBox="0 0 24 24" fill="none" xmlns="http://www.w3.org/2000/svg">
<g id="Editor / format-color_text">
<path id="Icon Shape" d="M2 18.5H22C23.1 18.5 24 19.4 24 20.5C24 21.6 23.1 22.5 22 22.5H2C0.9 22.5 0 21.6 0 20.5C0 19.4 0.9 18.5 2 18.5Z" fill="#2F455C"/>
<path id="Icon Shape_2" d="M12.0005 1.5C12.6001 1.5002 13.1396 1.87006 13.3696 2.42969L17.9399 14.0801C18.2099 14.76 17.7001 15.4999 16.9702 15.5C16.5303 15.5 16.1398 15.2302 15.9897 14.8203L15.1196 12.5H8.86962L8.01025 14.8203C7.8502 15.2302 7.45971 15.5 7.02978 15.5C6.28992 15.4999 5.79012 14.76 6.06005 14.0801L10.6304 2.42969C10.8505 1.86991 11.4006 1.5 12.0005 1.5ZM9.61962 10.5H14.3804L12.0005 4.16992L9.61962 10.5Z" fill="#2F455C"/>
</g>
</svg>
