<svg width="24" height="24" viewBox="0 0 24 24" fill="none" xmlns="http://www.w3.org/2000/svg">
<g id="Editor / format-textdirection_r_to_l">
<path id="Icon Shape" d="M7.04485 15.213C7.35484 14.893 7.8954 15.1126 7.89543 15.5626V17.3527H18.8954C19.4452 17.3529 19.8954 17.8028 19.8954 18.3527C19.8954 18.9025 19.4452 19.3524 18.8954 19.3527H7.89543V21.1427C7.8954 21.5926 7.35486 21.8129 7.04485 21.5031L4.25481 18.713C4.0549 18.5131 4.0551 18.2031 4.25481 18.0031L7.04485 15.213ZM16.8954 2.35266C17.4452 2.3529 17.8954 2.8028 17.8954 3.35266C17.8954 3.90252 17.4452 4.35243 16.8954 4.35266H15.8954V14.3527C15.8954 14.9025 15.4452 15.3524 14.8954 15.3527C14.3454 15.3527 13.8954 14.9027 13.8954 14.3527V4.35266H11.8954V14.3527C11.8954 14.9025 11.4452 15.3524 10.8954 15.3527C10.3454 15.3527 9.89543 14.9027 9.89543 14.3527V10.3527C7.55555 10.3527 5.68518 8.34286 5.91496 5.96301C6.11496 3.88301 7.97535 2.35266 10.0654 2.35266H16.8954Z" fill="#2F455C"/>
</g>
</svg>
