<svg width="24" height="24" viewBox="0 0 24 24" fill="none" xmlns="http://www.w3.org/2000/svg">
<g id="Editor / publish">
<path id="Icon Shape" d="M12.0049 7.40723C12.2694 7.40723 12.5231 7.51294 12.71 7.7002L17.2998 12.29C17.9298 12.92 17.4798 14 16.5898 14H15V19C15 19.55 14.55 20 14 20H10C9.45 20 9 19.55 9 19V14H7.41016C6.52017 14 6.08002 12.92 6.70996 12.29L11.2998 7.7002C11.4866 7.51297 11.7404 7.40726 12.0049 7.40723ZM18 4C18.55 4 19 4.45 19 5C19 5.55 18.55 6 18 6H6C5.45 6 5 5.55 5 5C5 4.45 5.45 4 6 4H18Z" fill="#2F455C"/>
</g>
</svg>
