<svg width="24" height="24" viewBox="0 0 24 24" fill="none" xmlns="http://www.w3.org/2000/svg">
<g id="Editor / multiline-chart">
<path id="Icon Shape" d="M21.3373 6.73129L21.2773 6.67129C20.8873 6.28129 20.2473 6.30129 19.8873 6.71129L17.7073 9.16129C15.6573 6.85129 12.8073 5.45129 9.58726 5.45129C7.08726 5.45129 4.75726 6.32129 2.83726 7.75129C2.36726 8.10129 2.31726 8.79129 2.72726 9.20129L2.78726 9.26129C3.11726 9.59129 3.64726 9.65129 4.01726 9.37129C5.60726 8.17129 7.51726 7.45129 9.58726 7.45129C12.3273 7.45129 14.6773 8.71129 16.3573 10.6913L13.4773 13.9313L10.1873 10.6413C10.0004 10.454 9.74678 10.3488 9.48226 10.3488C9.21774 10.3488 8.96409 10.454 8.77726 10.6413L2.65726 16.7713C2.28726 17.1413 2.28726 17.7513 2.65726 18.1213L2.80726 18.2713C3.17726 18.6413 3.78726 18.6413 4.15726 18.2713L9.47726 12.9413L12.7273 16.1913C13.1373 16.6013 13.7973 16.5813 14.1773 16.1513L17.5273 12.3913C18.1473 13.5113 18.6073 14.7813 18.8473 16.1213C18.9273 16.5913 19.3173 16.9413 19.7973 16.9413H19.8873C20.4873 16.9413 20.9373 16.3913 20.8273 15.8013C20.5073 13.9513 19.8473 12.2613 18.9373 10.8013L21.3773 8.05129C21.7173 7.67129 21.6973 7.09129 21.3373 6.73129Z" fill="#2F455C"/>
</g>
</svg>
