<svg width="24" height="24" viewBox="0 0 24 24" fill="none" xmlns="http://www.w3.org/2000/svg">
<g id="Editor / vertical-align_top">
<path id="Icon Shape" d="M11.6396 7.36035C11.8396 7.16036 12.1496 7.16037 12.3496 7.36035L15.1396 10.1504C15.4596 10.4604 15.24 11 14.79 11H13V20C13 20.55 12.55 21 12 21C11.45 21 11 20.55 11 20V11H9.20996C8.76018 11 8.54019 10.4604 8.84961 10.1504L11.6396 7.36035ZM19 3C19.55 3 20 3.45 20 4C20 4.55 19.55 5 19 5H5C4.45 5 4 4.55 4 4C4 3.45 4.45 3 5 3H19Z" fill="#2F455C"/>
</g>
</svg>
