<svg width="24" height="24" viewBox="0 0 24 24" fill="none" xmlns="http://www.w3.org/2000/svg">
<g id="Editor / notes">
<path id="Icon Shape" d="M14 16C14.55 16 15 16.45 15 17C15 17.55 14.55 18 14 18H4C3.45 18 3 17.55 3 17C3 16.45 3.45 16 4 16H14ZM20 11C20.55 11 21 11.45 21 12C21 12.55 20.55 13 20 13H4C3.45 13 3 12.55 3 12C3 11.45 3.45 11 4 11H20ZM20 6C20.55 6 21 6.45 21 7V7.00977C21 7.55977 20.55 8.00977 20 8.00977H4C3.45 8.00977 3 7.55977 3 7.00977V7C3 6.45 3.45 6 4 6H20Z" fill="#2F455C"/>
</g>
</svg>
