<svg width="24" height="24" viewBox="0 0 24 24" fill="none" xmlns="http://www.w3.org/2000/svg">
<g id="Editor / insert-chart_outlined">
<path id="Icon Shape" d="M19 3C20.1 3 21 3.9 21 5V19C21 20.1 20.1 21 19 21H5C3.9 21 3 20.1 3 19V5C3 3.9 3.9 3 5 3H19ZM6 5C5.45 5 5 5.45 5 6V18C5 18.55 5.45 19 6 19H18C18.55 19 19 18.55 19 18V6C19 5.45 18.55 5 18 5H6ZM8 10C8.55 10 9 10.45 9 11V16C9 16.55 8.55 17 8 17C7.45 17 7 16.55 7 16V11C7 10.45 7.45 10 8 10ZM12 7C12.55 7 13 7.45 13 8V16C13 16.55 12.55 17 12 17C11.45 17 11 16.55 11 16V8C11 7.45 11.45 7 12 7ZM16 13C16.55 13 17 13.45 17 14V16C17 16.55 16.55 17 16 17C15.45 17 15 16.55 15 16V14C15 13.45 15.45 13 16 13Z" fill="#2F455C"/>
</g>
</svg>
