<svg width="24" height="24" viewBox="0 0 24 24" fill="none" xmlns="http://www.w3.org/2000/svg">
<g id="Editor / border-all">
<path id="Icon Shape" d="M19 3C20.1 3 21 3.9 21 5V19C21 20.1 20.1 21 19 21H5C3.9 21 3 20.1 3 19V5C3 3.9 3.9 3 5 3H19ZM5 18C5 18.55 5.45 19 6 19H11V14C11 13.45 10.55 13 10 13H5V18ZM14 13C13.45 13 13 13.45 13 14V19H18C18.55 19 19 18.55 19 18V13H14ZM6 5C5.45 5 5 5.45 5 6V11H10C10.55 11 11 10.55 11 10V5H6ZM13 5V10C13 10.55 13.45 11 14 11H19V6C19 5.45 18.55 5 18 5H13Z" fill="#2F455C"/>
</g>
</svg>
