<svg width="24" height="24" viewBox="0 0 24 24" fill="none" xmlns="http://www.w3.org/2000/svg">
<g id="Editor / format-clear">
<path id="Icon Shape" d="M4.20629 4.48132C4.47072 4.48133 4.72456 4.58617 4.91137 4.77332L18.2317 18.0936C18.6215 18.4836 18.6209 19.1141 18.2209 19.494C17.8309 19.8837 17.2007 19.8839 16.8108 19.494L11.8616 14.5438L10.6516 17.3739C10.4316 17.8839 9.93109 18.2137 9.3811 18.2137C8.39124 18.2136 7.72172 17.204 8.11156 16.2841L9.76098 12.4442L3.50121 6.18347C3.11137 5.79346 3.11127 5.16326 3.50121 4.77332C3.68803 4.58619 3.94187 4.48132 4.20629 4.48132ZM19.2913 4.21375C20.1213 4.21375 20.7913 4.88375 20.7913 5.71375C20.7913 6.54375 20.1213 7.21374 19.2913 7.21375H15.0012L13.551 10.5839L11.4612 8.49402L12.011 7.21375H10.1809L7.1809 4.21375H19.2913Z" fill="#2F455C"/>
</g>
</svg>
