<svg width="24" height="24" viewBox="0 0 24 24" fill="none" xmlns="http://www.w3.org/2000/svg">
<g id="Editor / format-list_numbered">
<path id="Icon Shape" d="M5 16C5.28 16 5.5 16.22 5.5 16.5V19.5C5.5 19.78 5.28 20 5 20H3C2.72 20 2.5 19.78 2.5 19.5C2.5 19.22 2.72 19 3 19H4.5V18.5H4C3.72 18.5 3.5 18.28 3.5 18C3.5 17.72 3.72 17.5 4 17.5H4.5V17H3C2.72 17 2.5 16.78 2.5 16.5C2.5 16.22 2.72 16 3 16H5ZM20.5 17C21.05 17 21.5 17.45 21.5 18C21.5 18.55 21.05 19 20.5 19H8.5C7.95 19 7.5 18.55 7.5 18C7.5 17.45 7.95 17 8.5 17H20.5ZM5 10C5.28 10 5.5 10.22 5.5 10.5V10.7197C5.5 10.8297 5.45988 10.95 5.37988 11.04L3.7002 13H5C5.28 13 5.5 13.22 5.5 13.5C5.5 13.78 5.28 14 5 14H3C2.72 14 2.5 13.78 2.5 13.5V13.2803C2.5 13.1703 2.54012 13.05 2.62012 12.96L4.2998 11H3C2.72 11 2.5 10.78 2.5 10.5C2.5 10.22 2.72 10 3 10H5ZM20.5 11C21.05 11 21.5 11.45 21.5 12C21.5 12.55 21.05 13 20.5 13H8.5C7.95 13 7.5 12.55 7.5 12C7.5 11.45 7.95 11 8.5 11H20.5ZM4 4C4.28 4 4.5 4.22 4.5 4.5V7.5C4.5 7.78 4.28 8 4 8C3.72 8 3.5 7.78 3.5 7.5V5H3C2.72 5 2.5 4.78 2.5 4.5C2.5 4.22 2.72 4 3 4H4ZM20.5 5C21.05 5 21.5 5.45 21.5 6C21.5 6.55 21.05 7 20.5 7H8.5C7.95 7 7.5 6.55 7.5 6C7.5 5.45 7.95 5 8.5 5H20.5Z" fill="#2F455C"/>
</g>
</svg>
