<svg width="24" height="24" viewBox="0 0 24 24" fill="none" xmlns="http://www.w3.org/2000/svg">
<g id="Editor / strikethrough-s">
<path id="Icon Shape" d="M20 11.495C20.55 11.495 21 11.945 21 12.495V12.5145C21 13.0645 20.55 13.5145 20 13.5145H17.1299C17.1898 13.6144 17.2498 13.7347 17.2998 13.8446C17.5098 14.3146 17.6103 14.855 17.6104 15.455C17.6104 16.0948 17.4804 16.665 17.2305 17.1649C16.9805 17.6649 16.6202 18.0954 16.1602 18.4354C15.7002 18.7754 15.1401 19.0355 14.4902 19.2255C13.8402 19.4155 13.1096 19.5048 12.3096 19.5048C11.8297 19.5047 11.3499 19.4548 10.8701 19.3749C10.3902 19.2849 9.93015 19.1552 9.49023 18.9852C9.05023 18.8152 8.63953 18.5948 8.26953 18.3348C7.8897 18.0749 7.56994 17.7648 7.29004 17.4149C7.01005 17.0549 6.79964 16.6549 6.63965 16.205C6.47968 15.755 6.40039 15.1748 6.40039 14.6249H9.37012C9.37012 15.0748 9.48014 15.5248 9.62012 15.8348C9.7601 16.1448 9.96001 16.3948 10.21 16.5848C10.46 16.7748 10.7701 16.9148 11.1201 17.0048C11.4701 17.0947 11.8699 17.1346 12.2998 17.1346C12.6797 17.1346 13.0196 17.0847 13.3096 17.0048C13.5994 16.9148 13.8296 16.805 14.0195 16.6552C14.2095 16.5052 14.3504 16.3249 14.4404 16.1249C14.5304 15.915 14.5801 15.6946 14.5801 15.4647C14.5801 15.2049 14.5397 14.9752 14.4697 14.7753C14.3897 14.5653 14.25 14.375 14.04 14.205C13.83 14.035 13.5399 13.8652 13.1699 13.6952C13.02 13.6352 12.8001 13.565 12.6201 13.495H4C3.45 13.495 3 13.045 3 12.495C3 11.945 3.45 11.495 4 11.495H20ZM12.2402 4.495C13.0501 4.49502 13.7803 4.60486 14.4502 4.83484C15.1101 5.05483 15.6797 5.37532 16.1396 5.77527C16.6096 6.17524 16.9697 6.65501 17.2197 7.20496C17.4697 7.75483 17.5995 8.35471 17.5996 9.01453H14.5898C14.5898 8.70474 14.5404 8.42476 14.4404 8.16492C14.3504 7.89497 14.1999 7.6752 14 7.48523C13.8 7.29523 13.55 7.1548 13.25 7.0448C12.9501 6.94485 12.5902 6.88469 12.1904 6.88464C11.8006 6.88464 11.4501 6.92459 11.1602 7.01453C10.8703 7.10448 10.6304 7.225 10.4404 7.37488C10.2505 7.53481 10.1 7.71479 10 7.92468C9.90002 8.13463 9.84963 8.3549 9.84961 8.58484C9.84961 9.06477 10.1 9.46483 10.5898 9.7948C10.9698 10.0448 11.36 10.275 12 10.495H7.38965C7.33969 10.4151 7.28021 10.3249 7.24023 10.245C6.98024 9.76501 6.84962 9.21504 6.84961 8.57507C6.84961 7.96512 6.98004 7.41512 7.25 6.90515C7.51 6.40515 7.88035 5.97511 8.36035 5.61511C8.84022 5.26524 9.40982 4.985 10.0596 4.78503C10.7196 4.59503 11.4502 4.495 12.2402 4.495Z" fill="#2F455C"/>
</g>
</svg>
