<svg width="24" height="24" viewBox="0 0 24 24" fill="none" xmlns="http://www.w3.org/2000/svg">
<g id="Editor / insert-link">
<path id="Icon Shape" d="M10.0454 7C10.5654 7 10.9956 7.4302 10.9956 7.9502C10.9955 8.47011 10.5653 8.90039 10.0454 8.90039H7.11571C5.61576 8.90043 4.23558 9.90995 3.95555 11.3799C3.57556 13.3598 5.08568 15.0995 6.99559 15.0996H10.0454C10.5653 15.0996 10.9955 15.5299 10.9956 16.0498C10.9956 16.5698 10.5654 17 10.0454 17H6.99559C4.07568 16.9999 1.73587 14.4897 2.02586 11.5098C2.27597 8.91004 4.60559 7.00023 7.21532 7H10.0454ZM16.7759 7C19.3858 7.00004 21.726 8.9099 21.9761 11.5098C22.2561 14.4898 19.9156 17 16.9956 17H13.9458C13.4258 17 12.9956 16.5698 12.9956 16.0498C12.9957 15.5299 13.4259 15.0996 13.9458 15.0996H16.9956C18.9056 15.0996 20.4156 13.3599 20.0356 11.3799C19.7556 9.90996 18.3754 8.90039 16.8755 8.90039H13.9458C13.4259 8.90039 12.9957 8.47011 12.9956 7.9502C12.9956 7.4302 13.4258 7 13.9458 7H16.7759ZM14.9956 11C15.5456 11 15.9956 11.45 15.9956 12C15.9956 12.55 15.5456 13 14.9956 13H8.99559C8.44568 12.9999 7.99559 12.5499 7.99559 12C7.99559 11.4501 8.44568 11.0001 8.99559 11H14.9956Z" fill="#2F455C"/>
</g>
</svg>
