<svg width="24" height="24" viewBox="0 0 24 24" fill="none" xmlns="http://www.w3.org/2000/svg">
<g id="Editor / vertical-align_center">
<path id="Icon Shape" d="M11.6396 15.3604C11.8396 15.1604 12.1496 15.1604 12.3496 15.3604L15.1396 18.1504C15.4596 18.4604 15.24 19 14.79 19H13V22C13 22.55 12.55 23 12 23C11.45 23 11 22.55 11 22V19H9.20996C8.76018 19 8.54019 18.4604 8.84961 18.1504L11.6396 15.3604ZM19 11C19.55 11 20 11.45 20 12C20 12.55 19.55 13 19 13H5C4.45 13 4 12.55 4 12C4 11.45 4.45 11 5 11H19ZM12 1C12.55 1 13 1.45 13 2V5H14.79C15.24 5.00003 15.4596 5.53962 15.1396 5.84961L12.3496 8.63965C12.1496 8.83963 11.8396 8.83964 11.6396 8.63965L8.84961 5.84961C8.54019 5.53956 8.76018 5.00003 9.20996 5H11V2C11 1.45 11.45 1 12 1Z" fill="#2F455C"/>
</g>
</svg>
