<svg width="24" height="24" viewBox="0 0 24 24" fill="none" xmlns="http://www.w3.org/2000/svg">
<g id="Editor / format-color_fill">
<path id="Icon Shape" d="M22 19.7965C23.1 19.7965 24 20.6965 24 21.7965C23.9998 22.8964 23.0999 23.7965 22 23.7965H2C0.900096 23.7965 0.00015708 22.8964 0 21.7965C0 20.6965 0.9 19.7965 2 19.7965H22ZM7.61523 0.203735C7.87967 0.203798 8.13354 0.309507 8.32031 0.496704L16.5596 8.73596C17.1496 9.32596 17.1496 10.2761 16.5596 10.8561L11.0596 16.3561C10.7696 16.646 10.3799 16.7965 10 16.7965C9.62006 16.7965 9.23041 16.646 8.94043 16.3561L3.44043 10.8561C2.85043 10.2761 2.85043 9.32596 3.44043 8.73596L8.58984 3.58655L6.91016 1.90588C6.5203 1.51593 6.52035 0.886687 6.91016 0.496704C7.09699 0.309451 7.35072 0.203735 7.61523 0.203735ZM19 11.2965C19.0194 11.3176 21 13.473 21 14.7965C20.9998 15.8964 20.0999 16.7965 19 16.7965C17.9001 16.7965 17.0002 15.8964 17 14.7965C17 13.473 18.9806 11.3176 19 11.2965ZM5.20996 9.79651H14.79L10 5.00647L5.20996 9.79651Z" fill="#2F455C"/>
</g>
</svg>
