<svg width="24" height="24" viewBox="0 0 24 24" fill="none" xmlns="http://www.w3.org/2000/svg">
<g id="Editor / format-line_spacing">
<path id="Icon Shape" d="M4.53737 3.85486C4.73734 3.65501 5.04737 3.65499 5.24733 3.85486L7.53737 6.15466C7.85726 6.46456 7.63746 7.00489 7.18776 7.00525H5.89772V17.0052H7.18776C7.63745 17.0056 7.85702 17.545 7.54713 17.8549L5.2571 20.1449C5.05709 20.3449 4.74712 20.3449 4.54713 20.1449L2.2571 17.8549C1.9374 17.5448 2.15778 17.0052 2.60768 17.0052H3.89772V7.00525H2.60768C2.15768 7.00525 1.93733 6.46466 2.24733 6.15466L4.53737 3.85486ZM20.8977 17.0052C21.4475 17.0055 21.8977 17.4554 21.8977 18.0052C21.8976 18.555 21.4475 19.005 20.8977 19.0052H10.8977C10.3478 19.0052 9.89783 18.5552 9.89772 18.0052C9.89772 17.4552 10.3477 17.0052 10.8977 17.0052H20.8977ZM20.8977 11.0052C21.4475 11.0055 21.8977 11.4554 21.8977 12.0052C21.8976 12.555 21.4475 13.005 20.8977 13.0052H10.8977C10.3478 13.0052 9.89783 12.5552 9.89772 12.0052C9.89772 11.4552 10.3477 11.0052 10.8977 11.0052H20.8977ZM20.8977 5.00525C21.4475 5.00547 21.8977 5.45539 21.8977 6.00525C21.8976 6.55502 21.4475 7.00503 20.8977 7.00525H10.8977C10.3478 7.00525 9.89783 6.55516 9.89772 6.00525C9.89772 5.45525 10.3477 5.00525 10.8977 5.00525H20.8977Z" fill="#2F455C"/>
</g>
</svg>
