<svg width="24" height="24" viewBox="0 0 24 24" fill="none" xmlns="http://www.w3.org/2000/svg">
<g id="Editor / format-bold">
<path id="Icon Shape" d="M12.875 5C15.125 5 16.875 6.74 16.875 9C16.875 10.02 16.1946 11.12 15.2246 11.79C16.5246 12.39 17.385 13.7005 17.375 15.2305C17.3647 17.3102 15.475 18.9999 13.4052 19H7.62495C7.07495 19 6.62495 18.55 6.62495 18V6C6.62495 5.45 7.07495 5 7.62495 5H12.875ZM9.62495 13.5V16.5H13.125C13.955 16.5 14.625 15.83 14.625 15C14.625 14.17 13.955 13.5 13.125 13.5H9.62495ZM9.62495 10.5H12.625C13.455 10.5 14.125 9.83 14.125 9C14.125 8.17 13.455 7.5 12.625 7.5H9.62495V10.5Z" fill="#2F455C"/>
</g>
</svg>
