<svg width="24" height="24" viewBox="0 0 24 24" fill="none" xmlns="http://www.w3.org/2000/svg">
<g id="Editor / bar-chart">
<path id="Icon Shape" d="M6.59961 9.2002C7.36948 9.2002 7.99979 9.82979 8 10.5996V17.5996C8 18.3696 7.36961 19 6.59961 19H6.40039C5.63039 19 5 18.3696 5 17.5996V10.5996C5.00021 9.82979 5.63052 9.2002 6.40039 9.2002H6.59961ZM12 5C12.77 5 13.4004 5.63039 13.4004 6.40039V17.5996C13.4004 18.3696 12.77 19 12 19C11.23 19 10.5996 18.3696 10.5996 17.5996V6.40039C10.5996 5.63039 11.23 5 12 5ZM17.5996 13C18.3696 13 19 13.6304 19 14.4004V17.5996C19 18.3696 18.3696 19 17.5996 19C16.8298 18.9998 16.2002 18.3695 16.2002 17.5996V14.4004C16.2002 13.6305 16.8298 13.0002 17.5996 13Z" fill="#2F455C"/>
</g>
</svg>
