<svg width="24" height="24" viewBox="0 0 24 24" fill="none" xmlns="http://www.w3.org/2000/svg">
<g id="Editor / format-textdirection_l_to_r">
<path id="Icon Shape" d="M16.1044 15.5642C16.1044 15.1142 16.6447 14.8946 16.9647 15.2146L19.7548 18.0046C19.9444 18.1947 19.9439 18.514 19.744 18.7039L16.954 21.4939C16.644 21.8139 16.1044 21.5943 16.1044 21.1443V19.3542H5.10437C4.55437 19.3542 4.10437 18.9042 4.10437 18.3542C4.10437 17.8042 4.55437 17.3542 5.10437 17.3542H16.1044V15.5642ZM15.1044 2.35425C15.6544 2.35425 16.1044 2.80425 16.1044 3.35425C16.1044 3.90425 15.6544 4.35425 15.1044 4.35425H14.1044V14.3542C14.1044 14.9042 13.6544 15.3542 13.1044 15.3542C12.5544 15.3542 12.1044 14.9042 12.1044 14.3542V4.35425H10.1044V14.3542C10.1044 14.9042 9.65437 15.3542 9.10437 15.3542C8.55437 15.3542 8.10437 14.9042 8.10437 14.3542V10.3542C5.7645 10.3542 3.89415 8.34443 4.1239 5.9646C4.3239 3.88463 6.18432 2.35429 8.27429 2.35425H15.1044Z" fill="#2F455C"/>
</g>
</svg>
