<svg width="24" height="24" viewBox="0 0 24 24" fill="none" xmlns="http://www.w3.org/2000/svg">
<g id="Editor / border-inner">
<path id="Icon Shape" d="M5 21H3V19H5V21ZM9 21H7V19H9V21ZM12 3C12.55 3 13 3.45 13 4V11H20C20.55 11 21 11.45 21 12C21 12.55 20.55 13 20 13H13V20C13 20.55 12.55 21 12 21C11.45 21 11 20.55 11 20V13H4C3.45 13 3 12.55 3 12C3 11.45 3.45 11 4 11H11V4C11 3.45 11.45 3 12 3ZM17 21H15V19H17V21ZM21 21H19V19H21V21ZM5 17H3V15H5V17ZM21 15V17H19V15H21ZM5 9H3V7H5V9ZM21 9H19V7H21V9ZM5 5H3V3H5V5ZM9 5H7V3H9V5ZM17 5H15V3H17V5ZM21 5H19V3H21V5Z" fill="#2F455C"/>
</g>
</svg>
