<svg width="24" height="24" viewBox="0 0 24 24" fill="none" xmlns="http://www.w3.org/2000/svg">
<g id="Files/folder-shared">
<path id="Icon Shape" d="M9.16992 4C9.69985 4 10.2099 4.20994 10.5898 4.58984L12 6H20C21.1 6 22 6.9 22 8V18C22 19.1 21.1 20 20 20H4C2.9 20 2 19.1 2 18L2.00977 6C2.00977 4.9 2.9 4 4 4H9.16992ZM15 14C13.67 14 11 14.67 11 16V17H19V16C19 14.67 16.33 14 15 14ZM15 9C13.9 9 13 9.9 13 11C13 12.1 13.9 13 15 13C16.1 13 17 12.1 17 11C17 9.9 16.1 9 15 9Z" fill="#2F455C"/>
</g>
</svg>
