<svg width="24" height="24" viewBox="0 0 24 24" fill="none" xmlns="http://www.w3.org/2000/svg">
<g id="Files/download-done">
<path id="Icon Shape" d="M18 17.7173C18.5499 17.7173 18.9999 18.1674 19 18.7173C19 19.2673 18.55 19.7173 18 19.7173H6C5.45 19.7173 5 19.2673 5 18.7173C5.00009 18.1674 5.45005 17.7173 6 17.7173H18ZM16.0303 4.68701C16.5703 4.14736 17.4406 4.14713 17.9805 4.68701L18.0195 4.72705C18.5595 5.26702 18.5597 6.147 18.0098 6.68701L11.0098 13.6177C10.2299 14.3873 8.97039 14.3874 8.19043 13.6079L6 11.4175C5.45 10.8675 5.46028 9.97775 6.03027 9.44775C6.57027 8.92775 7.4302 8.94729 7.9502 9.46729L9.59961 11.1177L16.0303 4.68701Z" fill="#2F455C"/>
</g>
</svg>
