<svg width="24" height="24" viewBox="0 0 24 24" fill="none" xmlns="http://www.w3.org/2000/svg">
<g id="Files/upload">
<path id="Icon Shape" d="M18 18.2965C18.55 18.2965 19 18.7465 19 19.2965C18.9998 19.8464 18.5499 20.2965 18 20.2965H6C5.4501 20.2965 5.00016 19.8464 5 19.2965C5 18.7465 5.45 18.2965 6 18.2965H18ZM12.0049 3.70374C12.2694 3.70374 12.5231 3.80945 12.71 3.9967L17.2998 8.58655C17.9297 9.21656 17.4798 10.2965 16.5898 10.2965H15V15.2965C14.9998 15.8464 14.5499 16.2965 14 16.2965H10C9.4501 16.2965 9.00016 15.8464 9 15.2965V10.2965H7.41016C6.52024 10.2965 6.08023 9.21657 6.70996 8.58655L11.2998 3.9967C11.4866 3.80948 11.7404 3.70377 12.0049 3.70374Z" fill="#2F455C"/>
</g>
</svg>
