<svg width="24" height="24" viewBox="0 0 24 24" fill="none" xmlns="http://www.w3.org/2000/svg">
<g id="Files/cloud-off">
<path id="Icon Shape" d="M4.41378 3.47632C4.6782 3.47635 4.93207 3.58116 5.11886 3.76831L20.4284 19.0886C20.8184 19.4786 20.8184 20.1088 20.4284 20.4988C20.0384 20.8886 19.4082 20.8887 19.0183 20.4988L17.7282 19.2087H6.21847C3.18863 19.2087 0.458427 17.0489 0.0583115 14.0291C-0.411673 10.5792 2.06851 7.58918 5.34835 7.23901H5.76827L3.7087 5.17847C3.31881 4.78846 3.31874 4.15827 3.7087 3.76831C3.89551 3.58121 4.14938 3.47632 4.41378 3.47632ZM11.9987 3.20874C15.6387 3.20878 18.6683 5.79882 19.3484 9.24878C21.9484 9.42878 23.9987 11.5687 23.9987 14.2087C23.9987 15.7486 23.2887 17.0983 22.1989 18.0183L20.7888 16.6091C21.5188 16.0591 21.9987 15.1987 21.9987 14.2087C21.9987 12.5488 20.6587 11.2088 18.9987 11.2087H17.4987V10.7087C17.4987 7.66877 15.0387 5.20879 11.9987 5.20874C11.2287 5.20874 10.5086 5.3787 9.83858 5.6687L8.34835 4.17847C9.42835 3.56847 10.6687 3.20874 11.9987 3.20874ZM5.99874 9.20874C3.78874 9.20874 1.99874 10.9987 1.99874 13.2087C1.99874 15.4187 3.78874 17.2087 5.99874 17.2087H15.7282L7.72823 9.20874H5.99874Z" fill="#2F455C"/>
</g>
</svg>
