<svg width="24" height="24" viewBox="0 0 24 24" fill="none" xmlns="http://www.w3.org/2000/svg">
<g id="Files/cloud-done">
<path id="Icon Shape" d="M12 4C15.64 4 18.6696 6.59006 19.3496 10.04C21.9496 10.22 24 12.36 24 15C24 17.76 21.76 20 19 20H6C2.69 20 0 17.31 0 14C0 10.9101 2.3398 8.36022 5.34961 8.04004C6.59961 5.64004 9.11 4 12 4ZM15.8896 9.7002C15.4997 9.31032 14.8705 9.31036 14.4805 9.7002L10 14.1797L8.61035 12.79C8.22038 12.4001 7.5902 12.4001 7.2002 12.79C7.01294 12.9769 6.90723 13.2306 6.90723 13.4951C6.90726 13.7596 7.01297 14.0134 7.2002 14.2002L9.2998 16.29C9.68979 16.68 10.32 16.68 10.71 16.29L15.8896 11.1104C16.2796 10.7204 16.2796 10.0902 15.8896 9.7002Z" fill="#2F455C"/>
</g>
</svg>
