<svg width="24" height="24" viewBox="0 0 24 24" fill="none" xmlns="http://www.w3.org/2000/svg">
<g id="Files/create-new_folder">
<path id="Icon Shape" d="M9.16992 4C9.69985 4 10.2099 4.20994 10.5898 4.58984L12 6H20C21.1 6 22 6.9 22 8V18C22 19.1 21.1 20 20 20H4C2.89 20 2 19.11 2 18L2.00977 6C2.00977 4.89 2.89 4 4 4H9.16992ZM15 9C14.45 9 14 9.45 14 10V12H12C11.45 12 11 12.45 11 13C11 13.55 11.45 14 12 14H14V16C14 16.55 14.45 17 15 17C15.55 17 16 16.55 16 16V14H18C18.55 14 19 13.55 19 13C19 12.45 18.55 12 18 12H16V10C16 9.45 15.55 9 15 9Z" fill="#2F455C"/>
</g>
</svg>
