<svg width="24" height="24" viewBox="0 0 24 24" fill="none" xmlns="http://www.w3.org/2000/svg">
<path fill-rule="evenodd" clip-rule="evenodd" d="M3.57139 3.35709C3.57139 1.91326 4.74185 0.742798 6.18568 0.742798H19.2571C20.2197 0.742798 21 1.5231 21 2.48566V18.1714C21 18.6527 20.6098 19.0428 20.1286 19.0428C19.6473 19.0428 19.2571 19.433 19.2571 19.9143V21.6571H20.1286C20.6098 21.6571 21 22.0473 21 22.5286C21 23.0098 20.6098 23.4 20.1286 23.4H6.18568C4.74185 23.4 3.57139 22.2295 3.57139 20.7857V3.35709ZM6.81505 19.0428H17.5143V21.6571H6.81505C6.09313 21.6571 5.5079 21.0719 5.5079 20.35C5.5079 19.6281 6.09313 19.0428 6.81505 19.0428ZM12.4348 11.7051V11.5763C12.4381 10.9789 12.4942 10.5036 12.6031 10.1504C12.7154 9.79717 12.8738 9.5133 13.0785 9.29874C13.2831 9.08088 13.5323 8.88118 13.8261 8.69963C14.0275 8.5742 14.2074 8.43721 14.3658 8.28867C14.5275 8.13683 14.6546 7.96849 14.747 7.78364C14.8395 7.59549 14.8857 7.38588 14.8857 7.15482C14.8857 6.89405 14.8246 6.66794 14.7025 6.47649C14.5804 6.28504 14.4153 6.1365 14.2074 6.03088C14.0027 5.92525 13.7733 5.87243 13.5191 5.87243C13.2848 5.87243 13.062 5.9236 12.8507 6.02592C12.6427 6.12495 12.4694 6.27679 12.3308 6.48145C12.1955 6.6828 12.1196 6.93862 12.103 7.2489H10.3404C10.3569 6.62173 10.5087 6.09689 10.7959 5.67438C11.0864 5.25187 11.4693 4.93499 11.9446 4.72373C12.4232 4.51247 12.9514 4.40685 13.529 4.40685C14.1595 4.40685 14.714 4.51743 15.1927 4.73858C15.6746 4.95974 16.0492 5.27498 16.3166 5.68428C16.5873 6.09029 16.7226 6.57222 16.7226 7.13007C16.7226 7.50637 16.6616 7.84306 16.5394 8.14013C16.4206 8.43721 16.2506 8.70128 16.0294 8.93234C15.8083 9.1634 15.5459 9.36971 15.2422 9.55126C14.9748 9.7163 14.7553 9.88795 14.5837 10.0662C14.4153 10.2444 14.2899 10.454 14.2074 10.695C14.1281 10.9327 14.0869 11.2265 14.0836 11.5763V11.7051H12.4348ZM13.2963 14.7947C12.9992 14.7947 12.7434 14.6891 12.5289 14.4778C12.3143 14.2666 12.207 14.0091 12.207 13.7054C12.207 13.4083 12.3143 13.1542 12.5289 12.9429C12.7434 12.7316 12.9992 12.626 13.2963 12.626C13.5901 12.626 13.8443 12.7316 14.0588 12.9429C14.2767 13.1542 14.3856 13.4083 14.3856 13.7054C14.3856 13.9068 14.3344 14.09 14.2321 14.255C14.1331 14.42 14.0011 14.5521 13.836 14.6511C13.6743 14.7468 13.4944 14.7947 13.2963 14.7947ZM6.31423 2.4857C5.76195 2.4857 5.31423 2.93341 5.31423 3.48569V18.1714C5.31423 17.6902 5.70438 17.3 6.18566 17.3H7.05709V2.4857H6.31423Z" fill="#2F455C"/>
</svg>
