<svg width="24" height="24" viewBox="0 0 24 24" fill="none" xmlns="http://www.w3.org/2000/svg">
<g id="Files/cloud-queue">
<path id="Icon Shape" d="M12 4C15.64 4 18.6696 6.59006 19.3496 10.04C21.9496 10.22 24 12.36 24 15C24 17.76 21.76 20 19 20H6C2.69 20 0 17.31 0 14C0 10.9101 2.3398 8.36022 5.34961 8.04004C6.59961 5.64004 9.11 4 12 4ZM12 6C9.48 6 7.36996 7.69 6.70996 10H6C3.79 10 2 11.79 2 14C2 16.21 3.79 18 6 18H19C20.66 18 22 16.66 22 15C22 13.34 20.66 12 19 12H17.5V11.5C17.5 8.46 15.04 6 12 6Z" fill="#2F455C"/>
</g>
</svg>
