<svg width="24" height="24" viewBox="0 0 24 24" fill="none" xmlns="http://www.w3.org/2000/svg">
<g id="Hardware/cast-for_education">
<path id="Icon Shape" d="M1 18C2.66 18 4 19.34 4 21H1V18ZM2.13965 14.0898C5.08965 14.5698 7.43016 16.9004 7.91016 19.8604C7.9999 20.4602 7.51996 20.9999 6.91016 21C6.42027 21 6.00982 20.6402 5.92969 20.1504C5.56969 18.0704 3.92961 16.4303 1.84961 16.0703C1.35978 15.9902 1 15.5797 1 15.0898C1.00009 14.48 1.53985 13.9901 2.13965 14.0898ZM21 3C22.1 3 23 3.9 23 5V19C23 20.1 22.1 21 21 21H15C14.45 21 14 20.55 14 20C14 19.45 14.45 19 15 19H20C20.55 19 21 18.55 21 18V6C21 5.45 20.55 5 20 5H4C3.45 5 3 5.45 3 6V7C3 7.55 2.55 8 2 8C1.45 8 1 7.55 1 7V5C1 3.9 1.9 3 3 3H21ZM2.09961 10.0498C7.28958 10.5698 11.4202 14.6899 11.9502 19.8799C12.0102 20.4698 11.5501 20.9901 10.9502 20.9902C10.4402 20.9902 10.01 20.6201 9.95996 20.1201C9.54996 15.8501 6.14988 12.45 1.87988 12.04C1.37994 11.99 1 11.5598 1 11.0498C1.00011 10.46 1.50985 10.0001 2.09961 10.0498ZM18 12.5C18 12.8598 17.8002 13.1998 17.4805 13.3799L14.9805 14.7402C14.6805 14.9002 14.3195 14.9002 14.0195 14.7402L11.5195 13.3799C11.1998 13.1998 11 12.8698 11 12.5V11.0898L14.0195 12.7402C14.3195 12.9002 14.6805 12.9002 14.9805 12.7402L18 11.0898V12.5ZM14.0195 6.25977C14.3195 6.09977 14.6805 6.09977 14.9805 6.25977L19.2002 8.55957C19.5402 8.74957 19.5402 9.25043 19.2002 9.44043L14.9805 11.7402C14.6805 11.9002 14.3195 11.9002 14.0195 11.7402L9.7998 9.44043C9.4498 9.25043 9.4498 8.74957 9.7998 8.55957L14.0195 6.25977Z" fill="#2F455C"/>
</g>
</svg>
