<svg width="24" height="24" viewBox="0 0 24 24" fill="none" xmlns="http://www.w3.org/2000/svg">
<g id="Hardware/scanner">
<path id="Icon Shape" d="M3.84961 5.30566C4.04961 4.78566 4.63039 4.51508 5.15039 4.70508L19.7998 10.0557C20.4998 10.2557 21 11.0555 21 11.8555V17.3555C21 18.4554 20.1 19.3555 19 19.3555H5C3.90003 19.3555 3.00005 18.4554 3 17.3555V13.3555C3 12.2555 3.9 11.3555 5 11.3555H17.5996L4.4502 6.60547C3.93032 6.41551 3.65987 5.83556 3.84961 5.30566ZM5 16.3555H7V14.3555H5V16.3555ZM10 14.3555C9.45 14.3555 9 14.8055 9 15.3555C9.00005 15.9054 9.45003 16.3555 10 16.3555H18C18.55 16.3555 19 15.9054 19 15.3555C19 14.8055 18.55 14.3555 18 14.3555H10Z" fill="#2F455C"/>
</g>
</svg>
