<svg width="24" height="24" viewBox="0 0 24 24" fill="none" xmlns="http://www.w3.org/2000/svg">
<g id="Hardware/memory">
<path id="Icon Shape" d="M14 3C14.55 3 15 3.45 15 4V5H17C18.1 5 19 5.9 19 7V9H20C20.55 9 21 9.45 21 10C21 10.55 20.55 11 20 11H19V13H20C20.55 13 21 13.45 21 14C21 14.55 20.55 15 20 15H19V17C19 18.1 18.1 19 17 19H15V20C15 20.55 14.55 21 14 21C13.45 21 13 20.55 13 20V19H11V20C11 20.55 10.55 21 10 21C9.45 21 9 20.55 9 20V19H7C5.9 19 5 18.1 5 17V15H4C3.45 15 3 14.55 3 14C3 13.45 3.45 13 4 13H5V11H4C3.45 11 3 10.55 3 10C3 9.45 3.45 9 4 9H5V7C5 5.9 5.9 5 7 5H9V4C9 3.45 9.45 3 10 3C10.55 3 11 3.45 11 4V5H13V4C13 3.45 13.45 3 14 3ZM8 7C7.45 7 7 7.45 7 8V16C7 16.55 7.45 17 8 17H16C16.55 17 17 16.55 17 16V8C17 7.45 16.55 7 16 7H8ZM14 9C14.55 9 15 9.45 15 10V14C15 14.55 14.55 15 14 15H10C9.45 15 9 14.55 9 14V10C9 9.45 9.45 9 10 9H14ZM11 11V13H13V11H11Z" fill="#2F455C"/>
</g>
</svg>
