<svg width="24" height="24" viewBox="0 0 24 24" fill="none" xmlns="http://www.w3.org/2000/svg">
<g id="Hardware/keyboard-capslock">
<path id="Icon Shape" d="M17 15.9958C17.5499 15.9958 17.9998 16.446 18 16.9958C18 17.5458 17.55 17.9958 17 17.9958H7C6.45 17.9958 6 17.5458 6 16.9958C6.00016 16.446 6.4501 15.9958 7 15.9958H17ZM12.0049 6.00366C12.2694 6.00366 12.5231 6.10938 12.71 6.29663L17.2998 10.8865C17.6897 11.2765 17.6898 11.9067 17.2998 12.2966C16.9098 12.6863 16.2795 12.6865 15.8896 12.2966L12 8.40601L8.11035 12.2966C7.72046 12.6865 7.0902 12.6863 6.7002 12.2966C6.31022 11.9067 6.31026 11.2765 6.7002 10.8865L11.2998 6.29663C11.4866 6.10941 11.7404 6.00369 12.0049 6.00366Z" fill="#2F455C"/>
</g>
</svg>
