<svg width="24" height="24" viewBox="0 0 24 24" fill="none" xmlns="http://www.w3.org/2000/svg">
<g id="Hardware/laptop-chromebook">
<path id="Icon Shape" d="M20 3.5C21.1 3.5 22 4.4 22 5.5V18.5H23C23.55 18.5 24 18.95 24 19.5C24 20.05 23.55 20.5 23 20.5H1C0.45 20.5 0 20.05 0 19.5C0 18.95 0.45 18.5 1 18.5H2V5.5C2 4.4 2.9 3.5 4 3.5H20ZM10.5 17.5C10.22 17.5 10 17.72 10 18C10 18.28 10.22 18.5 10.5 18.5H13.5C13.78 18.5 14 18.28 14 18C14 17.72 13.78 17.5 13.5 17.5H10.5ZM5 5.5C4.45 5.5 4 5.95 4 6.5V15.5H20V6.5C20 5.95 19.55 5.5 19 5.5H5Z" fill="#2F455C"/>
</g>
</svg>
