<svg width="24" height="24" viewBox="0 0 24 24" fill="none" xmlns="http://www.w3.org/2000/svg">
<g id="Hardware/device-unknown">
<path id="Icon Shape" d="M17 1C18.1 1 19 1.9 19 3V21C19 22.1 18.1 23 17 23H7C5.9 23 5 22.1 5 21V3C5 1.9 5.9 1 7 1H17ZM7 19H17V5H7V19ZM13 18H11V16H13V18ZM8.7002 9.0498C9.22025 7.53 10.74 6.52013 12.5098 6.75C14.0598 6.95 15.3002 8.24004 15.4902 9.79004C15.7802 12.1099 13.5499 12.4999 13.0098 13.9697C12.9298 14.1696 12.8897 14.3898 12.8896 14.6396H11.1299C11.1299 14.2198 11.1901 13.8695 11.29 13.5596C11.29 13.5494 11.2899 13.5295 11.2998 13.5098C11.2999 13.4899 11.3104 13.4799 11.3203 13.46C11.3803 13.3 11.4396 13.1497 11.5195 13.0098H11.5303C12.2703 11.7402 13.7594 11.5099 13.7598 10.1904C13.7598 9.26043 12.9398 8.44043 12.0098 8.44043C11.2599 8.44054 10.5896 8.96046 10.3496 9.65039C10.2396 9.96003 9.98004 10.1902 9.65039 10.1904H9.51953C8.92977 10.1901 8.50025 9.60966 8.7002 9.0498Z" fill="#2F455C"/>
</g>
</svg>
