<svg width="24" height="24" viewBox="0 0 24 24" fill="none" xmlns="http://www.w3.org/2000/svg">
<g id="Hardware/power-input">
<path id="Icon Shape" d="M6.5 13C7.05 13 7.5 13.45 7.5 14C7.5 14.55 7.05 15 6.5 15H3.5C2.95 15 2.5 14.55 2.5 14C2.5 13.45 2.95 13 3.5 13H6.5ZM13.5 13C14.05 13 14.5 13.45 14.5 14C14.5 14.55 14.05 15 13.5 15H10.5C9.95 15 9.5 14.55 9.5 14C9.5 13.45 9.95 13 10.5 13H13.5ZM20.5 13C21.05 13 21.5 13.45 21.5 14C21.5 14.55 21.05 15 20.5 15H17.5C16.95 15 16.5 14.55 16.5 14C16.5 13.45 16.95 13 17.5 13H20.5ZM20.5 9C21.05 9 21.5 9.45 21.5 10C21.5 10.55 21.05 11 20.5 11H3.5C2.95 11 2.5 10.55 2.5 10C2.5 9.45 2.95 9 3.5 9H20.5Z" fill="#2F455C"/>
</g>
</svg>
