<svg width="24" height="24" viewBox="0 0 24 24" fill="none" xmlns="http://www.w3.org/2000/svg">
<g id="Hardware/toys">
<path id="Icon Shape" d="M12.0002 12.0002C15.0001 12.0004 17.5002 14.5003 17.5002 17.5002C17.5001 20.0702 15.6699 22.2699 13.26 22.8499C12.62 22.9999 12.0002 22.5301 12.0002 21.8801V12.0002ZM12.0002 12.0002C12.0001 15.0001 9.50006 17.5001 6.5002 17.5002C3.9302 17.5002 1.72961 15.67 1.14961 13.26C0.999736 12.6201 1.47037 12.0002 2.12032 12.0002H12.0002ZM17.5002 6.50024C20.0701 6.50034 22.2698 8.33054 22.8498 10.7405C22.9996 11.3803 22.5299 12.0002 21.8801 12.0002H12.0002C12.0002 9.00024 14.5002 6.50024 17.5002 6.50024ZM10.7404 1.14966C11.3803 1.00003 12.0002 1.47053 12.0002 2.12036V12.0002C9.00025 12.0002 6.50028 9.50018 6.5002 6.50024C6.5002 3.93024 8.33043 1.72966 10.7404 1.14966Z" fill="#2F455C"/>
</g>
</svg>
