<svg width="24" height="24" viewBox="0 0 24 24" fill="none" xmlns="http://www.w3.org/2000/svg">
<g id="Hardware/speaker-group">
<path id="Icon Shape" d="M5 5C5.55 5 6 5.45 6 6V20C6 20.55 6.45 21 7 21H15C15.55 21 16 21.45 16 22C16 22.55 15.55 23 15 23H6C4.89 23 4 22.1 4 21V6C4 5.45 4.45 5 5 5ZM18.2002 1C19.19 1.00011 19.9999 1.80996 20 2.7998V17.2002C19.9999 18.19 19.19 18.9999 18.2002 19L9.7998 18.9902C8.80996 18.9901 8.00011 18.19 8 17.2002V2.7998C8.00011 1.80996 8.80996 1.00011 9.7998 1H18.2002ZM14 8.5C11.79 8.5 10 10.29 10 12.5C10 14.71 11.79 16.5 14 16.5C16.21 16.5 18 14.71 18 12.5C18 10.29 16.21 8.5 14 8.5ZM14 10C15.3807 10 16.5 11.1193 16.5 12.5C16.5 13.8807 15.3807 15 14 15C12.6193 15 11.5 13.8807 11.5 12.5C11.5 11.1193 12.6193 10 14 10ZM14 3C12.9 3 12 3.89 12 5C12 6.11 12.9 7 14 7C15.1 7 16 6.11 16 5C16 3.89 15.1 3 14 3Z" fill="#2F455C"/>
</g>
</svg>
