<svg width="24" height="24" viewBox="0 0 24 24" fill="none" xmlns="http://www.w3.org/2000/svg">
<g id="Hardware/keyboard-voice">
<path id="Icon Shape" d="M18.0796 11.5C18.5995 11.5 19 11.9598 18.9302 12.4697C18.4702 15.4397 15.9595 17.7897 12.9995 18.2197V20.5C12.9995 21.05 12.5495 21.5 11.9995 21.5C11.4497 21.4997 10.9995 21.0498 10.9995 20.5V18.2197C8.02975 17.7695 5.52982 15.4396 5.06984 12.4697C5.00003 11.9598 5.40053 11.5 5.92043 11.5C6.33022 11.5002 6.68951 11.8002 6.74953 12.21C7.11951 14.8298 9.46971 16.5994 11.9995 16.5996C14.5295 16.5996 16.8795 14.8199 17.2495 12.21C17.3095 11.8001 17.6598 11.5002 18.0796 11.5ZM11.9995 2.5C13.6595 2.5 14.9995 3.84 14.9995 5.5L14.9898 11.5C14.9898 13.16 13.6595 14.5 11.9995 14.5C10.3397 14.4997 8.99953 13.1598 8.99953 11.5V5.5C8.99953 3.84016 10.3397 2.50025 11.9995 2.5Z" fill="#2F455C"/>
</g>
</svg>
