<svg width="24" height="24" viewBox="0 0 24 24" fill="none" xmlns="http://www.w3.org/2000/svg">
<g id="Hardware/devices-other">
<path id="Icon Shape" d="M20 4C20.55 4 21 4.45 21 5C21 5.55 20.55 6 20 6H4C3.45 6 3 6.45 3 7V17C3 17.55 3.45 18 4 18H6C6.55 18 7 18.45 7 19C7 19.55 6.55 20 6 20H3C1.9 20 1 19.1 1 18V6C1 4.9 1.9 4 3 4H20ZM12 12C12.55 12 13 12.45 13 13V13.7803C13.6099 14.3303 14 15.1201 14 16C14 16.8799 13.6099 17.6697 13 18.2197V19C13 19.55 12.55 20 12 20H10C9.45 20 9 19.55 9 19V18.2197C8.39008 17.6697 8 16.8899 8 16C8 15.1101 8.39008 14.3303 9 13.7803V13C9 12.45 9.45 12 10 12H12ZM22 8C22.5 8 23 8.5 23 9V19C23 19.5 22.5 20 22 20H16C15.5 20 15 19.5 15 19V9C15 8.5 15.5 8 16 8H22ZM17 10V18H21V10H17ZM11 14.5C10.17 14.5 9.5 15.17 9.5 16C9.5 16.83 10.17 17.5 11 17.5C11.83 17.5 12.5 16.83 12.5 16C12.5 15.17 11.83 14.5 11 14.5Z" fill="#2F455C"/>
</g>
</svg>
