<svg width="24" height="24" viewBox="0 0 24 24" fill="none" xmlns="http://www.w3.org/2000/svg">
<g id="Hardware/watch">
<path id="Icon Shape" d="M14.3096 0C15.2796 0 16.1203 0.709938 16.2803 1.66992L16.96 5.73047C18.8098 7.19047 20 9.46009 20 12C20 14.5399 18.8098 16.8095 16.96 18.2695L16.2803 22.3301C16.1203 23.2901 15.2896 24 14.3096 24H9.7002C8.72021 24 7.87974 23.2901 7.71973 22.3301L7.0498 18.2695C5.19 16.8095 4 14.5498 4 12C4 9.45016 5.19 7.19048 7.0498 5.73047L7.71973 1.66992C7.87974 0.709938 8.72021 0 9.7002 0H14.3096ZM12 6C8.69 6 6 8.69 6 12C6 15.31 8.69 18 12 18C15.31 18 18 15.31 18 12C18 8.69 15.31 6 12 6Z" fill="#2F455C"/>
</g>
</svg>
