<svg width="24" height="24" viewBox="0 0 24 24" fill="none" xmlns="http://www.w3.org/2000/svg">
<g id="Hardware/sim-card">
<path id="Icon Shape" d="M18 2C19.1 2 19.9902 2.9 19.9902 4L20 20C20 21.1 19.1098 22 18.0098 22H6C4.9 22 4 21.1 4 20V8.83008C4 8.30015 4.20994 7.79014 4.58984 7.41016L9.41016 2.58984C9.79014 2.20994 10.3002 2 10.8301 2H18ZM8 17C7.45 17 7 17.45 7 18C7 18.55 7.45 19 8 19C8.55 19 9 18.55 9 18C9 17.45 8.55 17 8 17ZM12 15C11.45 15 11 15.45 11 16V18C11 18.55 11.45 19 12 19C12.55 19 13 18.55 13 18V16C13 15.45 12.55 15 12 15ZM16 17C15.45 17 15 17.45 15 18C15 18.55 15.45 19 16 19C16.55 19 17 18.55 17 18C17 17.45 16.55 17 16 17ZM8 11C7.45 11 7 11.45 7 12V14C7 14.55 7.45 15 8 15C8.55 15 9 14.55 9 14V12C9 11.45 8.55 11 8 11ZM16 11C15.45 11 15 11.45 15 12V14C15 14.55 15.45 15 16 15C16.55 15 17 14.55 17 14V12C17 11.45 16.55 11 16 11ZM12 11C11.45 11 11 11.45 11 12C11 12.55 11.45 13 12 13C12.55 13 13 12.55 13 12C13 11.45 12.55 11 12 11Z" fill="#2F455C"/>
</g>
</svg>
