<svg width="24" height="24" viewBox="0 0 24 24" fill="none" xmlns="http://www.w3.org/2000/svg">
<g id="Hardware/keyboard-hide">
<path id="Icon Shape" d="M14.79 18.1135C15.23 18.1136 15.4496 18.6541 15.1396 18.9641L12.3496 21.7542C12.1597 21.9436 11.8403 21.9436 11.6504 21.7542L8.86035 18.9641C8.54036 18.6541 8.75999 18.1136 9.20996 18.1135H14.79ZM20 2.10376C21.1 2.10376 22 3.00376 22 4.10376V14.1038C22 15.2038 21.1 16.1038 20 16.1038H4C2.9 16.1038 2 15.2038 2 14.1038L2.00977 4.10376C2.00977 3.00376 2.9 2.10376 4 2.10376H20ZM9 12.1038C8.45 12.1038 8 12.5538 8 13.1038C8 13.6538 8.45 14.1038 9 14.1038H15C15.55 14.1038 16 13.6538 16 13.1038C16 12.5538 15.55 12.1038 15 12.1038H9ZM5 10.1038H7V8.10376H5V10.1038ZM8 10.1038H10V8.10376H8V10.1038ZM11 10.1038H13V8.10376H11V10.1038ZM14 10.1038H16V8.10376H14V10.1038ZM17 10.1038H19V8.10376H17V10.1038ZM5 7.10376H7V5.10376H5V7.10376ZM8 7.10376H10V5.10376H8V7.10376ZM11 7.10376H13V5.10376H11V7.10376ZM14 7.10376H16V5.10376H14V7.10376ZM17 7.10376H19V5.10376H17V7.10376Z" fill="#2F455C"/>
</g>
</svg>
