<svg width="24" height="24" viewBox="0 0 24 24" fill="none" xmlns="http://www.w3.org/2000/svg">
<g id="Hardware/laptop-mac">
<path id="Icon Shape" d="M20 3.5C21.1 3.5 22 4.4 22 5.5L21.9902 16.5C21.9902 17.6 21.1 18.5 20 18.5H24C24 19.6 23.1 20.5 22 20.5H2C0.9 20.5 0 19.6 0 18.5H4C2.9 18.5 2 17.6 2 16.5V5.5C2 4.4 2.9 3.5 4 3.5H20ZM12 17.5C11.45 17.5 11 17.95 11 18.5C11 19.05 11.45 19.5 12 19.5C12.55 19.5 13 19.05 13 18.5C13 17.95 12.55 17.5 12 17.5ZM5 5.5C4.45 5.5 4 5.95 4 6.5V15.5C4 16.05 4.45 16.5 5 16.5H19C19.55 16.5 20 16.05 20 15.5V6.5C20 5.95 19.55 5.5 19 5.5H5Z" fill="#2F455C"/>
</g>
</svg>
