<svg width="24" height="24" viewBox="0 0 24 24" fill="none" xmlns="http://www.w3.org/2000/svg">
<g id="Hardware/router">
<path id="Icon Shape" d="M16 9C16.55 9 17 9.45 17 10V13H19C20.1 13 21 13.9 21 15V19C21 20.1 20.1 21 19 21H5C3.9 21 3 20.1 3 19V15C3 13.9 3.9 13 5 13H15V10C15 9.45 15.45 9 16 9ZM6 18H8V16H6V18ZM9.5 18H11.5V16H9.5V18ZM13 16V18H15V16H13ZM16 5.2998C17.0099 5.2998 18.0197 5.65997 18.8496 6.2998C19.0996 6.4998 19.1196 6.86961 18.8896 7.09961L18.8496 7.13965C18.6596 7.33964 18.3499 7.34968 18.1299 7.17969C17.4999 6.70981 16.7499 6.5 16 6.5C15.25 6.5 14.5001 6.71043 13.8701 7.19043C13.6503 7.35023 13.3504 7.34996 13.1504 7.15039L13.1104 7.11035C12.8904 6.89035 12.9004 6.50957 13.1504 6.30957C13.9803 5.65979 14.9902 5.2998 16 5.2998ZM16 3C17.62 3 19.2403 3.5702 20.5703 4.7002C20.81 4.91024 20.8195 5.28008 20.5996 5.5L20.5596 5.5498C20.3596 5.73969 20.0498 5.75981 19.8398 5.58984C18.6999 4.68993 17.3499 4.2002 16 4.2002C14.65 4.2002 13.2999 4.68986 12.1699 5.58984C11.9499 5.75984 11.6402 5.7398 11.4502 5.5498L11.4004 5.5C11.1705 5.27009 11.1899 4.91023 11.4297 4.7002C12.7597 3.5702 14.38 3 16 3Z" fill="#2F455C"/>
</g>
</svg>
