<svg width="24" height="24" viewBox="0 0 24 24" fill="none" xmlns="http://www.w3.org/2000/svg">
<g id="Hardware/phonelink-off">
<path id="Icon Shape" d="M2.06543 1.99243C2.32979 1.99255 2.5828 2.09825 2.76953 2.2854L20.7803 20.3049C21.1701 20.6949 21.1702 21.3251 20.7803 21.7151C20.3903 22.105 19.7601 22.1049 19.3701 21.7151L17.7305 20.0745H1.5C0.67 20.0745 0 19.4045 0 18.5745C0.000244241 17.7447 0.670151 17.0745 1.5 17.0745H2V6.07446C2.00011 5.5947 2.17989 5.1548 2.46973 4.80493L1.36035 3.69458C0.970374 3.3046 0.970417 2.67541 1.36035 2.2854C1.54718 2.09815 1.80091 1.99243 2.06543 1.99243ZM23 8.07446C23.5498 8.07446 23.9998 8.52467 24 9.07446V19.0745C24 19.5144 23.7102 19.8751 23.3203 20.0051L20.3896 17.0745H22V10.0745H18V14.6848L16 12.6848V9.07446C16.0002 8.52467 16.4502 8.07446 17 8.07446H23ZM4 17.0745H14.7305L4 6.34497V17.0745ZM21 4.07446C21.5498 4.07446 21.9998 4.52467 22 5.07446C22 5.62446 21.55 6.07446 21 6.07446H9.38965L7.38965 4.07446H21Z" fill="#2F455C"/>
</g>
</svg>
