<svg width="24" height="24" viewBox="0 0 24 24" fill="none" xmlns="http://www.w3.org/2000/svg">
<g id="Hardware/keyboard-backspace">
<path id="Icon Shape" d="M19.7913 10.9951H6.62126L9.50126 8.11508C9.89126 7.72508 9.89126 7.09508 9.50126 6.70508C9.31442 6.51783 9.06077 6.4126 8.79626 6.4126C8.53174 6.4126 8.27809 6.51783 8.09126 6.70508L3.50126 11.2951C3.11126 11.6851 3.11126 12.3151 3.50126 12.7051L8.09126 17.2951C8.48126 17.6851 9.11126 17.6851 9.50126 17.2951C9.89126 16.9051 9.89126 16.2751 9.50126 15.8851L6.62126 12.9951H19.7913C20.3413 12.9951 20.7913 12.5451 20.7913 11.9951C20.7913 11.4451 20.3413 10.9951 19.7913 10.9951Z" fill="#2F455C"/>
</g>
</svg>
