<svg width="24" height="24" viewBox="0 0 24 24" fill="none" xmlns="http://www.w3.org/2000/svg">
<g id="Hardware/keyboard-return">
<path id="Icon Shape" d="M19.2913 7.99508V10.9951H6.12126L9.00126 8.11508C9.39126 7.72508 9.39126 7.09508 9.00126 6.70508C8.81442 6.51783 8.56077 6.4126 8.29626 6.4126C8.03174 6.4126 7.77809 6.51783 7.59126 6.70508L3.00126 11.2951C2.61126 11.6851 2.61126 12.3151 3.00126 12.7051L7.59126 17.2951C7.98126 17.6851 8.61126 17.6851 9.00126 17.2951C9.39126 16.9051 9.39126 16.2751 9.00126 15.8851L6.12126 12.9951H20.2913C20.8413 12.9951 21.2913 12.5451 21.2913 11.9951V7.99508C21.2913 7.44508 20.8413 6.99508 20.2913 6.99508C19.7413 6.99508 19.2913 7.44508 19.2913 7.99508Z" fill="#2F455C"/>
</g>
</svg>
