<svg width="24" height="24" viewBox="0 0 24 24" fill="none" xmlns="http://www.w3.org/2000/svg">
<g id="Image/flash-off">
<path id="Icon Shape" d="M4.84066 3.94302C5.10509 3.94303 5.35893 4.04787 5.54574 4.23502L19.8661 18.5553C20.2559 18.9453 20.2553 19.5755 19.8553 19.9655C19.4653 20.3553 18.8351 20.3554 18.4452 19.9655L15.0057 16.5251L12.3553 21.0758C12.0952 21.5152 11.426 21.3354 11.4256 20.8258V13.6754H9.42562C8.87562 13.6754 8.42562 13.2254 8.42562 12.6754V9.94498L4.13558 5.64517C3.74574 5.25516 3.74563 4.62496 4.13558 4.23502C4.32239 4.04789 4.57623 3.94302 4.84066 3.94302ZM16.6854 10.6754C17.4554 10.6754 17.9357 11.5055 17.5457 12.1754L17.0955 12.9557L14.8153 10.6754H16.6854ZM16.8055 2.67545C17.5555 2.67545 18.0359 3.45564 17.7059 4.12564L14.5555 10.4157L8.42562 4.2858V3.67545C8.42562 3.12545 8.87562 2.67545 9.42562 2.67545H16.8055Z" fill="#2F455C"/>
</g>
</svg>
