<svg width="24" height="24" viewBox="0 0 24 24" fill="none" xmlns="http://www.w3.org/2000/svg">
<g id="Image/panorama">
<path id="Icon Shape" d="M21 4C22.1 4 23 4.9 23 6V18C23 19.1 22.1 20 21 20H3C1.9 20 1 19.1 1 18V6C1 4.9 1.9 4 3 4H21ZM14.9004 11.5303C14.7004 11.2603 14.2996 11.2596 14.0996 11.5195L11 15.5098L8.90039 12.9805C8.69041 12.7305 8.31013 12.7401 8.12012 13L5.62988 16.2002C5.3702 16.5301 5.5999 17.0094 6.01953 17.0098H18.0098C18.4197 17.0098 18.6601 16.54 18.4102 16.21L14.9004 11.5303Z" fill="#2F455C"/>
</g>
</svg>
