<svg width="24" height="24" viewBox="0 0 24 24" fill="none" xmlns="http://www.w3.org/2000/svg">
<g id="Image/timer-off">
<path id="Icon Shape" d="M3.58129 4.47633C3.84572 4.47634 4.09956 4.58117 4.28637 4.76832L20.6067 21.0886C20.9965 21.4786 20.9959 22.1088 20.5959 22.4988C20.2059 22.8886 19.5757 22.8887 19.1858 22.4988L17.3967 20.7087C15.9667 21.6587 14.2563 22.2087 12.4163 22.2087C7.35625 22.2087 3.28625 18.0485 3.41625 12.9685C3.4663 11.2386 4.02657 9.62872 4.94653 8.24879L2.87621 6.17847C2.48637 5.78846 2.48627 5.15827 2.87621 4.76832C3.06303 4.58119 3.31687 4.47633 3.58129 4.47633ZM6.37621 9.68922C5.76635 10.7191 5.41625 11.9189 5.41625 13.2087C5.41625 17.0787 8.54625 20.2087 12.4163 20.2087C13.7063 20.2087 14.9065 19.8586 15.9465 19.2586L6.37621 9.68922ZM12.4163 4.20875C14.5363 4.20875 16.4864 4.94922 18.0364 6.18922L18.7864 5.43922C19.1764 5.05922 19.7958 5.04922 20.1858 5.43922L20.1965 5.44898C20.5862 5.83889 20.5761 6.46845 20.1965 6.8484L19.4465 7.5984C20.6765 9.1384 21.4163 11.0887 21.4163 13.2087C21.4163 14.8886 20.9466 16.4587 20.1467 17.7986L18.676 16.3289C19.146 15.3889 19.4163 14.3287 19.4163 13.2087C19.4163 9.33875 16.2863 6.20875 12.4163 6.20875C11.2963 6.20875 10.2361 6.47898 9.29613 6.94898L7.84594 5.49879C9.19594 4.68879 10.7563 4.20875 12.4163 4.20875ZM12.4163 8.20875C12.9663 8.20875 13.4163 8.65875 13.4163 9.20875V11.0691L11.4358 9.0984C11.4959 8.59854 11.9064 8.20875 12.4163 8.20875ZM14.4163 1.20875C14.9663 1.20875 15.4163 1.65875 15.4163 2.20875C15.4163 2.75875 14.9663 3.20875 14.4163 3.20875H10.4163C9.86625 3.20875 9.41625 2.75875 9.41625 2.20875C9.41625 1.65875 9.86625 1.20875 10.4163 1.20875H14.4163Z" fill="#2F455C"/>
</g>
</svg>
