<svg width="24" height="24" viewBox="0 0 24 24" fill="none" xmlns="http://www.w3.org/2000/svg">
<g id="Image/photo-library">
<path id="Icon Shape" d="M3 6C3.55 6 4 6.45 4 7V19C4 19.55 4.45 20 5 20H17C17.55 20 18 20.45 18 21C18 21.55 17.55 22 17 22H4C2.9 22 2 21.1 2 20V7C2 6.45 2.45 6 3 6ZM20 2C21.1 2 22 2.9 22 4V16C22 17.1 21.1 18 20 18H8C6.9 18 6 17.1 6 16V4C6 2.9 6.9 2 8 2H20ZM16.3896 11.4902C16.1897 11.2403 15.8103 11.2403 15.6104 11.4902L13.0303 14.71L11.4004 12.5303C11.2004 12.2703 10.7996 12.2703 10.5996 12.5303L8.59961 15.2002C8.35 15.5302 8.59013 16 9 16H18.96C19.3799 16 19.6095 15.5204 19.3496 15.1904L16.3896 11.4902Z" fill="#2F455C"/>
</g>
</svg>
