<svg width="24" height="24" viewBox="0 0 24 24" fill="none" xmlns="http://www.w3.org/2000/svg">
<g id="Image/leak-remove">
<path id="Icon Shape" d="M4.39977 3.24707C4.66426 3.24707 4.91802 3.35282 5.10484 3.54004L20.4252 18.8604C20.8149 19.2504 20.8148 19.8801 20.4349 20.29C20.0449 20.68 19.4147 20.68 19.0248 20.29L16.8949 18.1602C16.4949 18.7501 16.1946 19.4205 16.0746 20.1504C15.9944 20.6401 15.5849 21 15.0951 21C14.4852 21 13.9953 20.4602 14.0951 19.8604C14.2851 18.6904 14.7753 17.6304 15.4652 16.7305L14.0345 15.2998C12.9446 16.6398 12.2253 18.3002 12.0453 20.1201C11.9952 20.6201 11.555 20.9902 11.055 20.9902C10.455 20.9902 9.99504 20.4699 10.055 19.8799C10.2851 17.6 11.2147 15.5298 12.6146 13.8799L10.1351 11.4004C8.48522 12.8103 6.40516 13.7299 4.12535 13.96C3.53535 14.02 3.02477 13.55 3.02477 12.96C3.02479 12.4501 3.40482 12.0199 3.90465 11.9697C5.7146 11.7997 7.37522 11.0804 8.7152 9.98047L7.28453 8.5498C6.38457 9.23972 5.32456 9.72994 4.15465 9.91992C3.55478 10.0097 3.015 9.52981 3.015 8.91992C3.01504 8.42 3.37494 8.01996 3.85484 7.91992C4.58484 7.79992 5.25508 7.50961 5.84508 7.09961L3.69469 4.9502C3.3048 4.56025 3.30488 3.93003 3.69469 3.54004C3.88146 3.35284 4.13533 3.24713 4.39977 3.24707ZM19.8451 14.0703C20.4451 13.9803 20.9847 14.4603 20.9847 15.0703C20.9846 15.4802 20.7247 15.8198 20.3548 15.9697L18.7347 14.3496C19.0947 14.2296 19.4651 14.1303 19.8451 14.0703ZM19.8851 10.0303C20.4751 9.97033 20.9847 10.4403 20.9847 11.0303C20.9846 11.5402 20.6048 11.9695 20.1048 12.0195C19.0751 12.1195 18.1053 12.3997 17.2054 12.8096L15.725 11.3301C16.985 10.6401 18.3851 10.1803 19.8851 10.0303ZM12.9554 3.00977C13.5552 3.01001 14.0154 3.53026 13.9554 4.12012C13.8054 5.61001 13.3446 7.00961 12.6546 8.26953L11.1752 6.79004C11.5851 5.89005 11.8652 4.90987 11.9652 3.87988C12.0153 3.37995 12.4555 3.00977 12.9554 3.00977ZM8.91539 3C9.52507 3.00023 10.0151 3.53994 9.91539 4.13965C9.85539 4.51965 9.76512 4.89023 9.63512 5.24023L8.015 3.62012C8.165 3.26012 8.50539 3 8.91539 3Z" fill="#2F455C"/>
</g>
</svg>
