<svg width="24" height="24" viewBox="0 0 24 24" fill="none" xmlns="http://www.w3.org/2000/svg">
<g id="Image/tonality">
<path id="Icon Shape" d="M12 2C17.52 2 22 6.48 22 12C22 17.52 17.52 22 12 22C6.48 22 2 17.52 2 12C2 6.48 6.48 2 12 2ZM11 4.07031C7.05002 4.56033 4 7.92001 4 12C4 16.08 7.06002 19.4397 11 19.9297V4.07031ZM13 19.9297C14.03 19.7997 15.0001 19.48 15.8701 19H13V19.9297ZM13 17H18.2402C18.4902 16.69 18.72 16.3499 18.9199 16H13V17ZM13 13V14H19.7402C19.8202 13.67 19.8897 13.34 19.9297 13H13ZM13 11H19.9297C19.8897 10.66 19.8202 10.33 19.7402 10H13V11ZM13 8H18.9199C18.72 7.65005 18.4902 7.30996 18.2402 7H13V8ZM13 5H15.8701C15.0001 4.52001 14.03 4.20032 13 4.07031V5Z" fill="#2F455C"/>
</g>
</svg>
