<svg width="24" height="24" viewBox="0 0 24 24" fill="none" xmlns="http://www.w3.org/2000/svg">
<g id="Image/filter-tilt_shift">
<path id="Icon Shape" d="M16.2798 18.7603C16.6597 18.5104 17.1697 18.5899 17.4898 18.9097C17.9398 19.3597 17.8696 20.1205 17.3296 20.4605C16.3798 21.0603 15.3301 21.5003 14.2105 21.7603C13.5905 21.9003 12.9996 21.41 12.9995 20.7701C12.9995 20.3102 13.2998 19.9003 13.7495 19.8101C14.6694 19.6101 15.5199 19.2502 16.2798 18.7603ZM6.52003 18.9204C6.84003 18.5904 7.34 18.5203 7.73 18.7603C8.48996 19.2402 9.35032 19.6101 10.2603 19.8101C10.7001 19.9002 10.9995 20.3201 10.9995 20.7701C10.9995 21.4 10.4095 21.8895 9.78957 21.7495C8.66983 21.4895 7.62023 21.0496 6.67043 20.4497C6.13051 20.1098 6.06026 19.3605 6.52003 18.9204ZM3.23 12.9995C3.68984 12.9995 4.09978 13.2998 4.18996 13.7495C4.38994 14.6694 4.74984 15.5199 5.23976 16.2798C5.48969 16.6597 5.41011 17.1698 5.09035 17.4898C4.64035 17.9398 3.87957 17.8696 3.53957 17.3296C2.93979 16.3799 2.49973 15.3301 2.23976 14.2105C2.09976 13.5905 2.59 12.9995 3.23 12.9995ZM20.77 13.0201C21.4 13.0201 21.8895 13.61 21.7495 14.23C21.4895 15.34 21.0497 16.4004 20.4497 17.3404C20.1096 17.87 19.3498 17.9397 18.8999 17.4898C18.58 17.1698 18.5003 16.6595 18.7603 16.2896C19.2401 15.5198 19.6101 14.67 19.8101 13.7603C19.9001 13.3203 20.32 13.0201 20.77 13.0201ZM11.9995 8.99954C13.6594 8.99954 14.9993 10.3398 14.9995 11.9995C14.9995 13.6595 13.6595 14.9995 11.9995 14.9995C10.3397 14.9993 8.99953 13.6594 8.99953 11.9995C8.99977 10.3399 10.3399 8.9998 11.9995 8.99954ZM3.55031 6.67044C3.89031 6.13044 4.64011 6.06028 5.10011 6.51028C5.41994 6.8303 5.49971 7.34009 5.23976 7.73001C4.7598 8.48998 4.38995 9.35033 4.18996 10.2603C4.09983 10.7001 3.6799 10.9995 3.23 10.9995C2.59 10.9995 2.10953 10.4096 2.24953 9.78958C2.50952 8.66976 2.95042 7.61032 3.55031 6.67044ZM18.9097 6.51028C19.3597 6.06028 20.1205 6.14044 20.4605 6.67044C21.0602 7.61022 21.5003 8.66991 21.7603 9.78958C21.9003 10.4096 21.41 10.9995 20.77 10.9995C20.31 10.9995 19.9003 10.6995 19.8003 10.2495C19.6003 9.33968 19.2395 8.49014 18.7495 7.72025C18.5096 7.34037 18.5899 6.83029 18.9097 6.51028ZM9.78957 2.23978C10.4096 2.09978 10.9995 2.59001 10.9995 3.23001C10.9995 3.6899 10.7001 4.09962 10.2603 4.19974C9.34042 4.39971 8.49013 4.75966 7.72023 5.24954C7.34036 5.48946 6.83029 5.4101 6.51027 5.09036C6.06027 4.64036 6.14043 3.87958 6.67043 3.53958C7.6102 2.93981 8.66989 2.49974 9.78957 2.23978ZM12.9995 3.23001C12.9995 2.59001 13.5905 2.10954 14.2105 2.24954C15.3303 2.50954 16.3897 2.95043 17.3296 3.55032C17.8695 3.89028 17.9398 4.6396 17.48 5.07962C17.16 5.40962 16.66 5.47978 16.27 5.23978C15.5101 4.7598 14.6497 4.38997 13.7398 4.18997C13.2999 4.09987 12.9995 3.67993 12.9995 3.23001Z" fill="#2F455C"/>
</g>
</svg>
