<svg width="24" height="24" viewBox="0 0 24 24" fill="none" xmlns="http://www.w3.org/2000/svg">
<g id="Image/linked-camera">
<path id="Icon Shape" d="M14 3.97722C14.5499 3.97722 14.9998 4.42738 15 4.97722V6.97722C16.0999 6.97722 16.9998 7.87738 17 8.97722H20C21.0999 8.97722 21.9998 9.87738 22 10.9772V19.9772C22 21.0772 21.1 21.9772 20 21.9772H4C2.9 21.9772 2 21.0772 2 19.9772V7.97722C2.0002 6.87738 2.90012 5.97722 4 5.97722H7.16992L8.40039 4.62761C8.78036 4.21775 9.32001 3.97725 9.87988 3.97722H14ZM12 8.97722C9.24012 8.97722 7.0002 11.2174 7 13.9772C7 16.7372 9.24 18.9772 12 18.9772C14.76 18.9772 17 16.7372 17 13.9772C16.9998 11.2174 14.7599 8.97722 12 8.97722ZM12 10.9772C13.0716 10.9772 14.0617 11.5493 14.5977 12.4772C15.1335 13.4054 15.1335 14.549 14.5977 15.4772C14.0618 16.4054 13.0718 16.9772 12 16.9772C10.9282 16.9772 9.93824 16.4054 9.40234 15.4772C8.8665 14.549 8.86646 13.4054 9.40234 12.4772C9.9383 11.5493 10.9284 10.9772 12 10.9772ZM16 5.39714C16.0003 4.96749 16.3998 4.64805 16.8096 4.74773C17.9999 5.04803 18.9302 5.97736 19.2305 7.16765C19.3303 7.57756 19.01 7.97717 18.5801 7.97722C18.2802 7.97722 18.0105 7.78759 17.9404 7.49773C17.7705 6.77789 17.2002 6.2179 16.4805 6.03777C16.1905 5.96777 16 5.68714 16 5.39714ZM16.7305 2.028C19.4502 2.35821 21.6202 4.5279 21.9502 7.24773C22.0001 7.63764 21.68 7.9772 21.29 7.97722C20.95 7.97722 20.6699 7.7176 20.6299 7.37761C20.3699 5.27761 18.6996 3.61734 16.5996 3.34734C16.2598 3.30716 16 3.02704 16 2.68718C16.0002 2.29736 16.3406 1.97802 16.7305 2.028Z" fill="#2F455C"/>
</g>
</svg>
