<svg width="24" height="24" viewBox="0 0 24 24" fill="none" xmlns="http://www.w3.org/2000/svg">
<g id="Image/add-a_photo">
<path id="Icon Shape" d="M15.6201 4.5C16.1801 4.50003 16.7199 4.74042 17.0898 5.15039L18.3301 6.5H21.5C22.6 6.5 23.5 7.4 23.5 8.5V20.5C23.5 21.6 22.6 22.5 21.5 22.5H5.5C4.4 22.5 3.5 21.6 3.5 20.5V10.2197C3.8 10.3897 4.13 10.5 4.5 10.5C5.6 10.5 6.5 9.6 6.5 8.5V7.5H7.5C8.6 7.5 9.5 6.6 9.5 5.5C9.5 5.13 9.38973 4.8 9.21973 4.5H15.6201ZM13.5 9.5C10.74 9.5 8.5 11.74 8.5 14.5C8.5 17.26 10.74 19.5 13.5 19.5C16.26 19.5 18.5 17.26 18.5 14.5C18.5 11.74 16.26 9.5 13.5 9.5ZM13.5 11.5C14.5717 11.5 15.5617 12.0719 16.0977 13C16.6336 13.9282 16.6336 15.0718 16.0977 16C15.5617 16.9281 14.5717 17.5 13.5 17.5C12.4283 17.5 11.4383 16.9281 10.9023 16C10.3664 15.0718 10.3664 13.9282 10.9023 13C11.4383 12.0719 12.4283 11.5 13.5 11.5ZM4.5 1.5C5.05 1.5 5.5 1.95 5.5 2.5V4.5H7.5C8.05 4.5 8.5 4.95 8.5 5.5C8.5 6.05 8.05 6.5 7.5 6.5H5.5V8.5C5.5 9.05 5.05 9.5 4.5 9.5C3.95 9.5 3.5 9.05 3.5 8.5V6.5H1.5C0.95 6.5 0.5 6.05 0.5 5.5C0.5 4.95 0.95 4.5 1.5 4.5H3.5V2.5C3.5 1.95 3.95 1.5 4.5 1.5Z" fill="#2F455C"/>
</g>
</svg>
