<svg width="24" height="24" viewBox="0 0 24 24" fill="none" xmlns="http://www.w3.org/2000/svg">
<g id="Image/timer-10">
<path id="Icon Shape" d="M10.9912 5.895C11.5704 5.89503 12.1097 5.9847 12.5791 6.16453C13.0587 6.34453 13.4689 6.64539 13.8086 7.04539C14.1482 7.44535 14.4081 7.97538 14.5879 8.63523C14.7777 9.28516 14.8672 10.085 14.8672 11.0249V12.9448C14.8672 13.8848 14.7677 14.6854 14.5879 15.3354C14.408 15.9952 14.1482 16.5251 13.8086 16.935C13.469 17.3449 13.0693 17.6447 12.5898 17.8247C12.1203 18.0147 11.5904 18.1049 11.001 18.105C10.4215 18.105 9.89171 18.0047 9.41211 17.8247C8.93266 17.6447 8.52324 17.3449 8.18359 16.935C7.83395 16.5251 7.57362 15.9952 7.38379 15.3354C7.19395 14.6854 7.10449 13.8848 7.10449 12.9448V11.0249C7.1045 10.085 7.20399 9.28516 7.38379 8.63523C7.57357 7.97544 7.8333 7.45533 8.17285 7.04539C8.51257 6.63539 8.92274 6.34453 9.40234 6.16453C9.88186 5.98461 10.4118 5.895 10.9912 5.895ZM20.4434 8.99461C20.9827 8.99464 21.4719 9.0654 21.9014 9.21531C22.331 9.36531 22.6915 9.55515 22.9912 9.80515C23.2908 10.0551 23.5208 10.3451 23.6807 10.685C23.8405 11.0249 23.9199 11.385 23.9199 11.7749H21.9717C21.9717 11.6049 21.932 11.4446 21.8721 11.2846C21.8021 11.1247 21.7119 10.9847 21.582 10.8647C21.4522 10.7448 21.2923 10.6447 21.1025 10.5747C20.9128 10.5047 20.693 10.4654 20.4434 10.4653C20.2036 10.4653 19.9835 10.4952 19.8037 10.5552C19.6239 10.6152 19.4734 10.6954 19.3535 10.7954C19.2338 10.8854 19.1439 11.0054 19.084 11.1352C19.0241 11.2652 18.9941 11.4055 18.9941 11.5454C18.9942 11.6952 19.0243 11.8251 19.0742 11.935C19.1241 12.0449 19.2138 12.1449 19.3535 12.2348C19.4934 12.3248 19.6736 12.4049 19.9033 12.4848C20.1331 12.5648 20.4228 12.6453 20.7725 12.7153C21.2719 12.8253 21.7215 12.9552 22.1211 13.0952C22.5208 13.2352 22.8511 13.4155 23.1309 13.6255C23.4103 13.8353 23.6199 14.085 23.7598 14.3647C23.9096 14.6447 23.98 14.9852 24 15.3852C24 15.7751 23.9198 16.1249 23.75 16.4448C23.5802 16.7647 23.3507 17.0449 23.041 17.2749C22.7313 17.5049 22.3613 17.6849 21.9316 17.8149C21.5021 17.9449 21.0226 18.0053 20.4932 18.0053C19.8937 18.0053 19.3737 17.9253 18.9141 17.7553C18.4546 17.5854 18.0753 17.365 17.7656 17.0952C17.4559 16.8152 17.2253 16.5045 17.0654 16.1645C16.9057 15.8247 16.8262 15.4745 16.8262 15.1147H18.7148C18.7248 15.3747 18.7847 15.6047 18.8945 15.7846C19.0044 15.9646 19.1339 16.1151 19.3037 16.2251C19.4636 16.3351 19.6535 16.4153 19.8633 16.4653C20.0731 16.5253 20.2831 16.5454 20.5029 16.5454C21.0124 16.5454 21.4021 16.4552 21.6719 16.2553C21.9417 16.0553 22.0713 15.8048 22.0713 15.4848C22.0713 15.345 22.0518 15.2151 22.002 15.0952C21.952 14.9752 21.8613 14.8553 21.7314 14.7553C21.5916 14.6554 21.4018 14.5553 21.1621 14.4653C20.9223 14.3753 20.6025 14.2846 20.2129 14.2046C19.7535 14.1046 19.3239 13.9851 18.9443 13.8452C18.5647 13.6952 18.2346 13.5249 17.9648 13.3149C17.6852 13.105 17.475 12.8653 17.3252 12.5854C17.1754 12.3155 17.0958 11.9853 17.0957 11.6255C17.0957 11.2655 17.1653 10.9347 17.3252 10.6147C17.4851 10.2948 17.7054 10.0149 17.9951 9.77488C18.2848 9.53497 18.6442 9.34454 19.0537 9.20457C19.4634 9.06457 19.9338 8.99461 20.4434 8.99461ZM4.99609 17.9946H2.99707V8.395L0 9.395V7.71531L4.74609 5.99461H4.99609V17.9946ZM10.9912 7.47507C10.6915 7.47507 10.4214 7.53503 10.1816 7.645C9.94189 7.76497 9.74188 7.94488 9.58203 8.1948C9.41219 8.45477 9.29207 8.78487 9.20215 9.1948C9.11222 9.6048 9.07227 10.1153 9.07227 10.7153V13.2153C9.07228 13.815 9.1123 14.3248 9.20215 14.7446C9.29207 15.1646 9.42216 15.5051 9.58203 15.7651C9.74189 16.0251 9.94187 16.2154 10.1816 16.3354C10.4214 16.4553 10.7013 16.5151 11.001 16.5151C11.3106 16.5151 11.5905 16.4554 11.8203 16.3354C12.05 16.2155 12.2493 16.025 12.4092 15.7651C12.569 15.5051 12.6896 15.1646 12.7695 14.7446C12.8494 14.3248 12.8896 13.815 12.8896 13.2153H12.8994V10.7046C12.8994 10.1048 12.8494 9.59493 12.7695 9.18504C12.6896 8.77504 12.5593 8.4448 12.3994 8.1948C12.2396 7.93494 12.0395 7.75496 11.7998 7.645C11.5702 7.53513 11.3007 7.47512 10.9912 7.47507Z" fill="#2F455C"/>
</g>
</svg>
