<svg width="24" height="24" viewBox="0 0 24 24" fill="none" xmlns="http://www.w3.org/2000/svg">
<g id="Image/slideshow">
<path id="Icon Shape" d="M19 3C20.1 3 21 3.9 21 5V19C21 20.1 20.1 21 19 21H5C3.9 21 3 20.1 3 19V5C3 3.9 3.9 3 5 3H19ZM6 5C5.45 5 5 5.45 5 6V18C5 18.55 5.45 19 6 19H18C18.55 19 19 18.55 19 18V6C19 5.45 18.55 5 18 5H6ZM10 9.04004C10 8.62007 10.4796 8.39048 10.8096 8.65039L14.5098 11.6104C14.7597 11.8104 14.7597 12.1896 14.5098 12.3896L10.8096 15.3496C10.4796 15.6095 10 15.3799 10 14.96V9.04004Z" fill="#2F455C"/>
</g>
</svg>
