<svg width="24" height="24" viewBox="0 0 24 24" fill="none" xmlns="http://www.w3.org/2000/svg">
<g id="Image/wb-auto">
<path id="Icon Shape" d="M8.21289 4C10.7428 4 12.9929 5.17985 14.4629 7.00977C14.4729 7.00977 14.4929 7 14.5029 7C14.9129 7.00002 15.2725 7.30021 15.3525 7.7002L16.4229 13.29L17.7324 7.78027C17.8324 7.32027 18.2429 7 18.7129 7C19.1829 7 19.5931 7.32027 19.7031 7.78027L21.0127 13.29L22.083 7.7002C22.163 7.30028 22.5127 7.00013 22.9326 7C23.4825 7 23.8924 7.5197 23.7627 8.05957L22.1533 15.1396C22.0333 15.6395 21.5931 15.9998 21.0732 16C20.5733 16 20.123 15.6501 20.0029 15.1602L18.7129 9.90039L17.4229 15.1602C17.3028 15.6501 16.8625 16 16.3525 16C15.9629 15.9999 15.6131 15.8001 15.4131 15.4805C14.113 18.1503 11.3828 20 8.21289 20C3.79289 20 0.212891 16.42 0.212891 12C0.212891 7.58 3.79289 4 8.21289 4ZM8.21289 7C7.61289 7 7.08281 7.3802 6.88281 7.9502L4.44336 14.8096C4.23336 15.3896 4.6632 16 5.2832 16C5.66297 15.9999 5.99301 15.7601 6.12305 15.4004L6.61328 14H9.8125L10.3027 15.4004C10.4228 15.7601 10.7628 15.9999 11.1426 16C11.7626 16 12.1932 15.3898 11.9932 14.7998L9.55273 7.94043C9.34273 7.38043 8.81289 7 8.21289 7ZM9.36328 12.6504H7.0625L8.21289 9L9.36328 12.6504Z" fill="#2F455C"/>
</g>
</svg>
