<svg width="24" height="24" viewBox="0 0 24 24" fill="none" xmlns="http://www.w3.org/2000/svg">
<g id="Image/burst-mode">
<path id="Icon Shape" d="M2 5C2.55 5 3 5.45 3 6V18C3 18.55 2.55 19 2 19C1.45 19 1 18.55 1 18V6C1 5.45 1.45 5 2 5ZM6 5C6.55 5 7 5.45 7 6V18C7 18.55 6.55 19 6 19C5.45 19 5 18.55 5 18V6C5 5.45 5.45 5 6 5ZM22 5C22.55 5 23 5.45 23 6V18C23 18.55 22.55 19 22 19H10C9.45 19 9 18.55 9 18V6C9 5.45 9.45 5 10 5H22ZM18.1797 13.29C17.9797 13.0302 17.5896 13.0301 17.3896 13.29L15.29 16L13.8896 14.3203C13.6797 14.0804 13.3104 14.0802 13.1104 14.3301L11.6396 16.1904C11.3802 16.5204 11.6205 17.0002 12.0303 16.9902H19.9902C20.41 16.9901 20.6395 16.5204 20.3896 16.1904L18.1797 13.29Z" fill="#2F455C"/>
</g>
</svg>
