<svg width="24" height="24" viewBox="0 0 24 24" fill="none" xmlns="http://www.w3.org/2000/svg">
<g id="Image/brightness-7">
<path id="Icon Shape" d="M12.0054 1.10751C12.2698 1.10763 12.5228 1.21333 12.7095 1.40048L15.3101 4.00009H18.9996C19.5496 4.00009 19.9996 4.45009 19.9996 5.00009V8.68954L22.6002 11.2999C22.9901 11.6899 22.9901 12.3201 22.6002 12.7101L19.9996 15.3097V19.0001C19.9995 19.55 19.5495 20.0001 18.9996 20.0001H15.3004L12.6998 22.5997C12.3098 22.9897 11.6796 22.9897 11.2896 22.5997L8.69 20.0001H4.99957C4.4498 19.9999 3.99962 19.5499 3.99957 19.0001V15.2999L1.39996 12.7003C1.00999 12.3103 1.01005 11.6801 1.39996 11.2901L3.99957 8.68954V5.00009C3.99957 4.45023 4.44977 4.00033 4.99957 4.00009H8.69L11.3004 1.40048C11.4872 1.21323 11.7409 1.10751 12.0054 1.10751ZM11.9996 6.00009C8.68977 6.00032 5.99957 8.69023 5.99957 12.0001C5.99962 15.3099 8.6898 17.9999 11.9996 18.0001C15.3095 18.0001 17.9995 15.31 17.9996 12.0001C17.9996 8.69009 15.3096 6.00009 11.9996 6.00009ZM11.9996 8.00009C14.2096 8.00009 15.9996 9.79009 15.9996 12.0001C15.9995 14.21 14.2095 16.0001 11.9996 16.0001C9.7898 15.9999 7.99962 14.2099 7.99957 12.0001C7.99957 9.79023 9.78977 8.00032 11.9996 8.00009Z" fill="#2F455C"/>
</g>
</svg>
