<svg width="24" height="24" viewBox="0 0 24 24" fill="none" xmlns="http://www.w3.org/2000/svg">
<g id="Image/looks-3">
<path id="Icon Shape" d="M18.9952 3C20.0951 3.00013 20.9952 3.90008 20.9952 5V19C20.9952 20.0999 20.0951 20.9999 18.9952 21H5.005C3.905 21 3.005 20.1 3.005 19V5C3.005 3.9 3.905 3 5.005 3H18.9952ZM9.99524 7C9.44524 7 9.005 7.45 9.005 8C9.005 8.55 9.44524 9 9.99524 9H13.005L12.9952 11H11.9952C11.4452 11 10.9952 11.45 10.9952 12C10.9952 12.55 11.4452 13 11.9952 13H12.9952L13.005 15H9.99524C9.44524 15 8.99524 15.45 8.99524 16C8.99524 16.55 9.44524 17 9.99524 17H13.005C14.105 17 15.005 16.11 15.005 15V13.5C15.005 12.67 14.335 12 13.505 12C14.335 12 15.005 11.33 15.005 10.5V9C15.005 7.9 14.105 7 13.005 7H9.99524Z" fill="#2F455C"/>
</g>
</svg>
