<svg width="24" height="24" viewBox="0 0 24 24" fill="none" xmlns="http://www.w3.org/2000/svg">
<g id="Image/music-off">
<path id="Icon Shape" d="M4.34503 3.26696C4.60946 3.26697 4.8633 3.37181 5.05011 3.55895L20.3597 18.8793C20.7497 19.2693 20.7497 19.8994 20.3597 20.2894C19.9697 20.6792 19.3395 20.6794 18.9495 20.2894L13.93 15.2689V16.849C13.93 18.8389 12.5402 20.6394 10.5804 20.9496C7.85038 21.3796 5.52956 19.0392 5.98956 16.2992C6.22959 14.8993 7.26006 13.7099 8.59991 13.2299C9.82988 12.7999 10.99 13.0092 11.93 13.5492V13.2689L3.63995 4.96911C3.25011 4.5791 3.25001 3.9489 3.63995 3.55895C3.82677 3.37182 4.08061 3.26696 4.34503 3.26696ZM15.93 2.99938C17.03 2.99938 17.93 3.89938 17.93 4.99938C17.93 6.09938 17.03 6.99938 15.93 6.99938H13.93V9.60974L11.93 7.60974V3.99938C11.93 3.44938 12.38 2.99938 12.93 2.99938H15.93Z" fill="#2F455C"/>
</g>
</svg>
