<svg width="24" height="24" viewBox="0 0 24 24" fill="none" xmlns="http://www.w3.org/2000/svg">
<g id="Image/flash-auto">
<path id="Icon Shape" d="M11.048 2.17545C11.768 2.17545 12.258 2.9156 11.968 3.5856L8.58807 11.1754H10.8478C11.6178 11.1754 12.0981 12.0055 11.7082 12.6754L6.51776 21.5758C6.25764 22.0152 5.58841 21.8354 5.58807 21.3258V14.1754H3.58807C3.03807 14.1754 2.58807 13.7254 2.58807 13.1754V3.17545C2.58807 2.62545 3.03807 2.17545 3.58807 2.17545H11.048ZM17.5881 2.17545C18.1881 2.17545 18.7181 2.55564 18.9181 3.12564L21.3576 9.98502C21.5676 10.565 21.1378 11.1754 20.5178 11.1754C20.138 11.1753 19.808 10.9356 19.6779 10.5758L19.1877 9.17545H15.9885L15.4982 10.5758C15.3782 10.9356 15.0381 11.1753 14.6584 11.1754C14.0384 11.1754 13.6078 10.5653 13.8078 9.97525L16.2482 3.11588C16.4582 2.55588 16.9881 2.17545 17.5881 2.17545ZM16.4377 7.82584H18.7385L17.5881 4.17545L16.4377 7.82584Z" fill="#2F455C"/>
</g>
</svg>
