<svg width="24" height="24" viewBox="0 0 24 24" fill="none" xmlns="http://www.w3.org/2000/svg">
<g id="Image/broken-image">
<path id="Icon Shape" d="M13.29 14.7002C13.68 15.0901 14.3102 15.0902 14.7002 14.7002L18 11.4199L21 14.4297V19C21 20.1 20.1 21 19 21H5C3.9 21 3 20.1 3 19V12.4199L5.29004 14.71C5.68004 15.1 6.3102 15.1 6.7002 14.71L10 11.4102L13.29 14.7002ZM19 3C20.1 3 21 3.9 21 5V11.5898L18.71 9.29004C18.32 8.90004 17.68 8.90004 17.29 9.29004L14 12.5898L10.71 9.2998C10.5231 9.11263 10.2693 9.00781 10.0049 9.00781C9.74041 9.00784 9.48661 9.11258 9.2998 9.2998L6 12.5898L3 9.58008V5C3 3.9 3.9 3 5 3H19Z" fill="#2F455C"/>
</g>
</svg>
