<svg width="24" height="24" viewBox="0 0 24 24" fill="none" xmlns="http://www.w3.org/2000/svg">
<g id="Image/panorama-horizontal">
<path id="Icon Shape" d="M21.4297 4C21.7597 4 22 4.22996 22 4.62988V19.3701C22 19.77 21.7597 20 21.4297 20C21.3299 20 21.2299 19.9803 21.1201 19.9404C18.1801 18.8504 15.09 18.2998 12 18.2998C8.91 18.2998 5.81988 18.8404 2.87988 19.9404C2.77009 19.9803 2.67014 20 2.57031 20C2.23031 20 2 19.7699 2 19.3799V4.62988C2.00004 4.22996 2.23035 4 2.57031 4C2.66019 4.00005 2.77009 4.01968 2.87988 4.05957C5.81988 5.14957 8.91 5.7002 12 5.7002C15.09 5.7002 18.1801 5.15957 21.1201 4.05957C21.2299 4.01967 21.3299 4.00004 21.4297 4ZM20 6.54004C17.4 7.32004 14.72 7.7102 12 7.7002C9.28 7.7002 6.6 7.31004 4 6.54004V17.4502C6.6 16.6802 9.28 16.29 12 16.29C14.72 16.29 17.4 16.6802 20 17.4502V6.54004Z" fill="#2F455C"/>
</g>
</svg>
