<svg width="24" height="24" viewBox="0 0 24 24" fill="none" xmlns="http://www.w3.org/2000/svg">
<g id="Image/timer-3">
<path id="Icon Shape" d="M7.44039 5.91C8.00014 5.91004 8.51985 5.98027 8.96969 6.1102C9.43962 6.25018 9.83991 6.46991 10.1699 6.74985C10.5099 7.03985 10.7702 7.39039 10.9502 7.81039C11.14 8.23031 11.2304 8.72052 11.2304 9.27036C11.2304 9.51019 11.2 9.76001 11.1201 9.99985C11.0501 10.2498 10.9302 10.4799 10.7802 10.7098C10.6302 10.9398 10.4399 11.1504 10.2099 11.3504C9.97998 11.5503 9.71001 11.7105 9.41012 11.8504C9.77993 11.9804 10.0899 12.14 10.3398 12.3299C10.5998 12.5199 10.7999 12.7403 10.9599 12.9803C11.1198 13.2302 11.2296 13.4902 11.3095 13.7401C11.3795 14.0201 11.4199 14.3104 11.4199 14.6004C11.4198 15.1502 11.32 15.6501 11.1201 16.0799C10.9201 16.5198 10.6401 16.8796 10.2802 17.1795C9.93032 17.4795 9.51031 17.7102 9.02047 17.8602C8.53058 18.0102 8.01024 18.0897 7.44039 18.0897C6.92039 18.0897 6.42992 18.0197 5.95992 17.8797C5.48998 17.7397 5.07965 17.5298 4.71969 17.2498C4.35986 16.9699 4.07025 16.6199 3.86031 16.2C3.65031 15.78 3.54 15.2998 3.54 14.7498H5.53024C5.53024 15.0097 5.57999 15.2497 5.66988 15.4696C5.75985 15.6895 5.88963 15.8702 6.05953 16.0301C6.22953 16.1901 6.42988 16.3105 6.66988 16.3905C6.90978 16.4804 7.17983 16.5203 7.46969 16.5204C8.07962 16.5204 8.56989 16.36 8.91988 16.0301C9.26985 15.7002 9.45012 15.2301 9.45016 14.6102C9.45016 14.2802 9.38998 13.9801 9.29 13.7401C9.19 13.4901 9.03957 13.2897 8.84957 13.1297C8.65968 12.9699 8.42987 12.8601 8.16012 12.7801C7.89012 12.7101 7.58996 12.6698 7.24996 12.6698H6.07027V11.1004H7.2402C7.58011 11.1004 7.87989 11.0596 8.12984 10.9696C8.37967 10.8796 8.58979 10.7603 8.75973 10.6004C8.92967 10.4405 9.0596 10.25 9.13961 10.0301C9.21961 9.81012 9.25973 9.55989 9.25973 9.28989C9.25971 8.71994 9.12025 8.27955 8.82027 7.96957C8.52027 7.65963 8.06987 7.49985 7.45992 7.49985C7.19011 7.49986 6.9503 7.54007 6.73043 7.61996C6.51051 7.69993 6.3203 7.81012 6.15035 7.95004C5.99049 8.08992 5.86046 8.26979 5.77047 8.46957C5.68047 8.66957 5.62984 8.9 5.62984 9.16H3.65035C3.65035 8.7 3.74039 8.25996 3.94039 7.86996C4.12039 7.47005 4.38975 7.12964 4.71969 6.83969C5.04965 6.54973 5.44996 6.32023 5.91988 6.15024C6.37988 5.99024 6.89039 5.91 7.44039 5.91ZM16.9004 9.00961C17.4402 9.00964 17.9304 9.08035 18.3603 9.23032C18.7901 9.3803 19.1502 9.57023 19.4502 9.82016C19.75 10.0701 19.9796 10.3602 20.1396 10.7C20.2996 11.04 20.3798 11.3999 20.3798 11.7899H18.4296C18.4296 11.6199 18.39 11.4596 18.33 11.2997C18.2601 11.1398 18.1699 10.9997 18.04 10.8797C17.91 10.7598 17.7495 10.6597 17.5595 10.5897C17.3697 10.5198 17.15 10.4804 16.9004 10.4803C16.6604 10.4803 16.4397 10.5102 16.2597 10.5702C16.0799 10.6301 15.9295 10.7104 15.8095 10.8104C15.6898 10.9004 15.5999 11.0204 15.54 11.1502C15.4801 11.2802 15.4502 11.4105 15.4502 11.5604C15.4502 11.7102 15.4803 11.8401 15.5302 11.95C15.5802 12.0599 15.6698 12.1599 15.8095 12.2498C15.9495 12.3398 16.1303 12.4198 16.3603 12.4998C16.5903 12.5798 16.8805 12.6603 17.2304 12.7303C17.7302 12.8403 18.1802 12.9702 18.58 13.1102C18.98 13.2502 19.3098 13.4305 19.5898 13.6405C19.8696 13.8504 20.0797 14.0999 20.2197 14.3797C20.3697 14.6597 20.4399 15.0002 20.4599 15.4002C20.4599 15.7901 20.3798 16.1399 20.2099 16.4598C20.0399 16.7798 19.8099 17.0599 19.5 17.2899C19.19 17.5199 18.8196 17.6999 18.3896 17.8299C17.9597 17.9598 17.48 18.0203 16.9502 18.0204C16.3502 18.0204 15.83 17.9403 15.3701 17.7704C14.9101 17.6004 14.5297 17.3802 14.2197 17.1102C13.9097 16.8302 13.6805 16.5195 13.5205 16.1795C13.3605 15.8396 13.2802 15.4897 13.2802 15.1297H15.1699C15.1799 15.3895 15.2397 15.6197 15.3496 15.7997C15.4595 15.9796 15.5898 16.1301 15.7597 16.2401C15.9197 16.3501 16.1103 16.4303 16.3203 16.4803C16.5301 16.5402 16.7401 16.5604 16.9599 16.5604C17.4698 16.5604 17.8599 16.4702 18.1298 16.2704C18.3998 16.0704 18.5302 15.8198 18.5302 15.4998C18.5302 15.36 18.5099 15.2301 18.4599 15.1102C18.41 14.9903 18.3202 14.8703 18.1904 14.7704C18.0504 14.6704 17.86 14.5703 17.6201 14.4803C17.3801 14.3903 17.0599 14.2996 16.6699 14.2196C16.2101 14.1196 15.7802 14.0001 15.4004 13.8602C15.0204 13.7102 14.6899 13.5399 14.4199 13.3299C14.1501 13.1201 13.9302 12.8802 13.7802 12.6004C13.6303 12.3206 13.5498 12.0003 13.5498 11.6405C13.5498 11.2805 13.6202 10.9497 13.7802 10.6297C13.9402 10.3099 14.1603 10.0298 14.4502 9.78989C14.7401 9.54997 15.0998 9.35955 15.5097 9.21957C15.9197 9.07957 16.3904 9.00961 16.9004 9.00961Z" fill="#2F455C"/>
</g>
</svg>
