<svg width="24" height="24" viewBox="0 0 24 24" fill="none" xmlns="http://www.w3.org/2000/svg">
<g id="Image/add-photo_alternate">
<path id="Icon Shape" d="M12.7695 5.5C12.5996 5.78995 12.5 6.12055 12.5 6.48047C12.5001 7.04028 12.7102 7.54003 13.0801 7.91992C13.4601 8.28992 13.9602 8.5 14.4902 8.5H15.5V9.50977C15.5 10.5998 16.3905 11.49 17.4805 11.5C17.8603 11.4999 18.2001 11.3897 18.5 11.2197V19.5C18.5 20.6 17.6 21.5 16.5 21.5H4.5C3.4 21.5 2.5 20.6 2.5 19.5V7.5C2.5 6.4 3.4 5.5 4.5 5.5H12.7695ZM12.9004 15.0098C12.7005 14.7499 12.3105 14.76 12.1104 15.0195L9.5 18.5L7.90039 16.0898C7.70039 15.8098 7.29008 15.7903 7.08008 16.0703L5.09961 18.7002C4.85 19.0302 5.09013 19.5 5.5 19.5H15.46C15.8799 19.5 16.1095 19.0204 15.8496 18.6904L12.9004 15.0098ZM17.5195 2.5C18.0595 2.5 18.5 2.94047 18.5 3.48047V5.5H20.5195C21.0595 5.5 21.5 5.94047 21.5 6.48047V6.51953C21.5 7.05953 21.0595 7.5 20.5195 7.5H18.5V9.50977C18.5 10.0498 18.0595 10.4902 17.5195 10.4902H17.4902C16.9402 10.5002 16.5 10.0498 16.5 9.50977V7.5H14.4902C13.9402 7.5 13.5 7.05977 13.5 6.50977V6.48047C13.51 5.94047 13.9502 5.5 14.4902 5.5H16.5V3.48047C16.5 2.94047 16.9402 2.5 17.4902 2.5H17.5195Z" fill="#2F455C"/>
</g>
</svg>
