<svg width="24" height="24" viewBox="0 0 24 24" fill="none" xmlns="http://www.w3.org/2000/svg">
<g id="Image/rotate-right">
<path id="Icon Shape" d="M11.1446 4.34615C11.1447 3.45621 12.2248 3.01621 12.8448 3.63618L14.9747 5.76607C15.3746 6.16601 15.3745 6.80597 14.9747 7.18599L12.8448 9.26607C12.2148 9.88607 11.1446 9.44611 11.1446 8.55611V7.02583C8.30469 7.50582 6.14473 9.9661 6.14461 12.936C6.14461 15.666 7.96492 17.966 10.4649 18.686C10.8748 18.8061 11.1446 19.1965 11.1446 19.6264V19.6567C11.1443 20.2965 10.534 20.7966 9.91414 20.6167C6.57431 19.6466 4.14461 16.5759 4.14461 12.936C4.14473 8.8561 7.20469 5.4963 11.1446 5.0063V4.34615ZM14.9942 18.186C15.3741 17.9761 15.8444 18.0461 16.1544 18.3559L16.1749 18.3764C16.6346 18.8364 16.5444 19.626 15.9747 19.936C15.4648 20.2159 14.9348 20.4362 14.3848 20.5961C13.7648 20.7761 13.1446 20.2862 13.1446 19.6362V19.6167C13.1446 19.1867 13.425 18.7962 13.835 18.6762C14.2348 18.5563 14.6244 18.3959 14.9942 18.186ZM18.8546 13.936C19.5046 13.936 19.9945 14.5562 19.8145 15.1762C19.6445 15.7262 19.4246 16.2561 19.1446 16.7661C18.8347 17.336 18.0451 17.426 17.585 16.9663C17.2851 16.6663 17.2042 16.1861 17.4141 15.8061C17.6141 15.4261 17.7746 15.0362 17.8946 14.6362C18.0146 14.2162 18.3951 13.936 18.835 13.936H18.8546ZM17.5948 8.90669C18.0547 8.44679 18.8442 8.53622 19.1544 9.10591C19.4343 9.61577 19.6545 10.1459 19.8145 10.6958C20.0045 11.3158 19.5046 11.936 18.8546 11.936H18.835C18.405 11.936 18.0146 11.6558 17.8946 11.2358C17.7746 10.836 17.6141 10.4465 17.4141 10.0766C17.2041 9.69661 17.275 9.22646 17.585 8.91646L17.5948 8.90669Z" fill="#2F455C"/>
</g>
</svg>
