<svg width="24" height="24" viewBox="0 0 24 24" fill="none" xmlns="http://www.w3.org/2000/svg">
<g id="Image/transform">
<path id="Icon Shape" d="M6.63965 1.3548C6.83955 1.1549 7.1496 1.1551 7.34961 1.3548L9.13965 3.15461C9.45964 3.4646 9.24001 4.00516 8.79004 4.0052H8V15.0052C8.00011 15.5551 8.45006 16.0052 9 16.0052H21C21.55 16.0052 22 16.4552 22 17.0052C21.9999 17.5551 21.5499 18.0052 21 18.0052H18V20.0052H18.7998C19.2397 20.0052 19.4699 20.5448 19.1504 20.8548L17.3604 22.6448C17.1604 22.8448 16.8504 22.8447 16.6504 22.6448L14.8604 20.8548C14.5404 20.5448 14.76 20.0052 15.21 20.0052H16V18.0052H8C6.90006 18.0052 6.00011 17.1051 6 16.0052V8.0052H3C2.45007 8.0052 2.00011 7.55511 2 7.0052C2 6.4552 2.45 6.0052 3 6.0052H6V4.0052H5.20996C4.75999 4.00516 4.53962 3.4646 4.84961 3.15461L6.63965 1.3548ZM16 6.0052C17.1 6.0052 18 6.9052 18 8.0052V14.0052H16V9.0052C16 8.4552 15.55 8.0052 15 8.0052H10V6.0052H16Z" fill="#2F455C"/>
</g>
</svg>
