<svg width="24" height="24" viewBox="0 0 24 24" fill="none" xmlns="http://www.w3.org/2000/svg">
<g id="Image/photo-filter">
<path id="Icon Shape" d="M12.9905 3C13.5403 3.00026 13.9905 3.45016 13.9905 4C13.9905 4.54984 13.5403 4.99974 12.9905 5H5.99047C5.44047 5 4.99047 5.45 4.99047 6V18C4.99047 18.55 5.44047 19 5.99047 19H18.01C18.56 19 19.01 18.55 19.01 18V10.9902C19.01 10.4402 19.4502 10 20.0002 10C20.5501 10.0001 20.9905 10.4403 20.9905 10.9902V19C20.9905 20.1098 20.0903 20.9997 18.9905 21H5.01C3.91 21 3.01 20.1 3.01 19V5C3.01 3.9 3.91 3 5.01 3H12.9905ZM11.5403 9C11.7203 8.6101 12.2704 8.61003 12.4504 9L13.2405 10.75L14.9905 11.5498C15.38 11.7299 15.38 12.2798 14.9905 12.46L13.2297 13.25L12.4397 15C12.2596 15.3899 11.7095 15.39 11.5295 15L10.7405 13.2402L8.99047 12.4502C8.60047 12.2702 8.60047 11.72 8.99047 11.54L10.7502 10.75L11.5403 9ZM16.6399 4.74023C16.7799 4.45023 17.2003 4.45023 17.3303 4.74023L17.9299 6.05957L19.2502 6.66016C19.5399 6.80022 19.5398 7.21947 19.2502 7.34961L17.9299 7.9502L17.3303 9.26953C17.1903 9.55953 16.7699 9.55953 16.6399 9.26953L16.0403 7.9502L14.72 7.34961C14.4302 7.20953 14.4301 6.79018 14.72 6.66016L16.0403 6.05957L16.6399 4.74023Z" fill="#2F455C"/>
</g>
</svg>
