<svg width="24" height="24" viewBox="0 0 24 24" fill="none" xmlns="http://www.w3.org/2000/svg">
<g id="Image/brightness-4">
<path id="Icon Shape" d="M12.0054 1.10751C12.2698 1.10763 12.5228 1.21333 12.7095 1.40048L15.3101 4.00009H18.9996C19.5496 4.00009 19.9996 4.45009 19.9996 5.00009V8.68954L22.6002 11.2901C22.99 11.6801 22.9901 12.3201 22.6002 12.7101L19.9996 15.3097V19.0001C19.9995 19.55 19.5495 20.0001 18.9996 20.0001H15.3004L12.6998 22.5997C12.3098 22.9897 11.6796 22.9897 11.2896 22.5997L8.69 20.0001H4.99957C4.4498 19.9999 3.99962 19.5499 3.99957 19.0001V15.2999L1.39996 12.7003C1.00999 12.3103 1.01004 11.6801 1.39996 11.2901L3.99957 8.68954V5.00009C3.99957 4.45023 4.44976 4.00033 4.99957 4.00009H8.69L11.3004 1.40048C11.4872 1.21323 11.7409 1.10751 12.0054 1.10751ZM14.0504 6.36044C12.8405 5.93049 11.6402 5.90988 10.5504 6.17978C10.1304 6.28978 10.0705 6.84017 10.4205 7.08017C11.9802 8.1602 12.9996 9.96027 12.9996 12.0001C12.9995 14.0401 11.9797 15.84 10.4097 16.92C10.06 17.17 10.1299 17.7202 10.5396 17.8204C11.6295 18.0904 12.8297 18.0696 14.0396 17.6397C16.0696 16.9197 17.5805 15.0996 17.9205 12.9796C17.9704 12.6498 17.9896 12.3199 17.9996 12.0001C17.9996 11.6801 17.9802 11.3496 17.9302 11.0196C17.5902 8.89992 16.07 7.08052 14.0504 6.36044Z" fill="#2F455C"/>
</g>
</svg>
