<svg width="24" height="24" viewBox="0 0 24 24" fill="none" xmlns="http://www.w3.org/2000/svg">
<g id="Image/healing">
<path id="Icon Shape" d="M16.68 1.97751C16.9445 1.97751 17.1982 2.08322 17.3851 2.27048L21.7249 6.61032C22.1148 7.00033 22.1149 7.63052 21.7249 8.02048L17.7454 12L21.7347 15.9804C22.1246 16.3704 22.1246 16.9996 21.7347 17.3896L17.3948 21.7304C17.1949 21.9203 16.9447 22.0205 16.6849 22.0205C16.425 22.0205 16.1749 21.9303 15.9749 21.7304L11.9954 17.75L8.01495 21.7304C7.62498 22.1202 6.99473 22.1202 6.6048 21.7304L2.26495 17.3896C1.87524 16.9997 1.87526 16.3704 2.26495 15.9804L6.24542 12L2.26495 8.02048C1.87501 7.63054 1.87514 7.00033 2.26495 6.61032L6.6048 2.27048C6.7948 2.08048 7.05499 1.98044 7.30499 1.98044C7.56499 1.98044 7.81495 2.08048 8.01495 2.27048L11.9954 6.24997L15.9749 2.27048C16.1617 2.08322 16.4155 1.97751 16.68 1.97751ZM13.0452 16.7002L16.6751 20.3203L20.2952 16.6904L16.6751 13.0703L13.0452 16.7002ZM12.015 12.9804C11.465 12.9805 11.015 13.4305 11.015 13.9804C11.0152 14.5302 11.4651 14.9804 12.015 14.9804C12.5648 14.9804 13.0147 14.5302 13.015 13.9804C13.015 13.4304 12.565 12.9804 12.015 12.9804ZM10.015 10.9804C9.46497 10.9805 9.01495 11.4305 9.01495 11.9804C9.0152 12.5302 9.46512 12.9804 10.015 12.9804C10.5648 12.9804 11.0147 12.5302 11.015 11.9804C11.015 11.4304 10.565 10.9804 10.015 10.9804ZM14.015 10.9804C13.465 10.9805 13.015 11.4305 13.015 11.9804C13.0152 12.5302 13.4651 12.9804 14.015 12.9804C14.5648 12.9804 15.0147 12.5302 15.015 11.9804C15.015 11.4304 14.565 10.9804 14.015 10.9804ZM12.015 8.98044C11.465 8.98046 11.015 9.43045 11.015 9.98044C11.0152 10.5302 11.4651 10.9804 12.015 10.9804C12.5648 10.9804 13.0147 10.5302 13.015 9.98044C13.015 9.43044 12.565 8.98044 12.015 8.98044ZM3.67511 7.32028L7.30499 10.9404L10.9251 7.30954L7.30499 3.6904L3.67511 7.32028Z" fill="#2F455C"/>
</g>
</svg>
