<svg width="24" height="24" viewBox="0 0 24 24" fill="none" xmlns="http://www.w3.org/2000/svg">
<g id="Image/camera">
<path id="Icon Shape" d="M14.2192 14.145C14.4192 13.815 14.8993 13.8151 15.0893 14.145L18.1001 19.3647C18.2301 19.5847 18.1692 19.8748 17.9692 20.0248C15.8293 21.6047 13.1496 22.2551 10.5297 21.8852C10.1899 21.8352 10.0095 21.4352 10.1792 21.1352L14.2192 14.145ZM11.2592 14.9848C11.6391 14.9848 11.8796 15.4048 11.6899 15.7348L8.67915 20.9448C8.54915 21.1648 8.27927 21.2655 8.04927 21.1655C5.61945 20.1255 3.67971 18.1352 2.69966 15.6655C2.56968 15.3455 2.81948 14.9949 3.16939 14.9848H11.2592ZM21.3696 9.99457C21.6196 9.99457 21.8396 10.1752 21.8696 10.4252C22.2995 13.1852 21.5597 16.0353 19.8198 18.2153C19.5998 18.4852 19.1695 18.4351 18.9995 18.1352L14.7397 10.7446C14.54 10.4147 14.7896 9.99471 15.1694 9.99457H21.3696ZM4.17915 5.78461C4.3891 5.51473 4.81938 5.56494 4.99947 5.86469L9.25923 13.2446C9.45923 13.5746 9.20954 13.9946 8.82954 13.9946H2.62935C2.37944 13.9945 2.15934 13.8146 2.12935 13.5746C1.69947 10.8048 2.44923 7.97451 4.17915 5.78461ZM6.01997 3.97504C8.15988 2.3952 10.8396 1.74476 13.4594 2.11469C13.8093 2.15467 13.9798 2.55495 13.81 2.85492L9.77974 9.84515C9.57975 10.1751 9.09967 10.175 8.90962 9.84515L5.89986 4.62543C5.76986 4.40543 5.82997 4.12504 6.01997 3.97504ZM15.3198 3.04535C15.4498 2.82537 15.7197 2.72469 15.9497 2.82465C18.3795 3.86459 20.3192 5.85483 21.2993 8.32465C21.4293 8.64465 21.1795 8.99457 20.8295 8.99457H12.7495C12.3595 8.99449 12.1201 8.57527 12.31 8.25531L15.3198 3.04535Z" fill="#2F455C"/>
</g>
</svg>
