<svg width="24" height="24" viewBox="0 0 24 24" fill="none" xmlns="http://www.w3.org/2000/svg">
<g id="Image/brush">
<path id="Icon Shape" d="M7.49875 14.0017C9.15875 14.0017 10.4987 15.3417 10.4987 17.0017C10.4985 19.2115 8.7086 21.0017 6.49875 21.0017C4.98887 21.0017 3.41878 20.2215 2.49875 19.0017C3.33865 19.0017 4.49849 18.3114 4.49875 17.0017C4.49875 15.3417 5.83875 14.0017 7.49875 14.0017ZM19.1638 2.99875C19.4283 2.99876 19.682 3.10447 19.8689 3.29172L21.2087 4.63156C21.5986 5.02157 21.5987 5.65177 21.2087 6.04172L12.2487 15.0017L9.49875 12.2517L18.4587 3.29172C18.6455 3.10446 18.8993 2.99875 19.1638 2.99875Z" fill="#2F455C"/>
</g>
</svg>
