<svg width="24" height="24" viewBox="0 0 24 24" fill="none" xmlns="http://www.w3.org/2000/svg">
<g id="Image/filter-drama">
<path id="Icon Shape" d="M12 4C15.64 4 18.6696 6.59006 19.3496 10.04C21.9496 10.22 24 12.36 24 15C24 17.76 21.76 20 19 20H6C2.69 20 0 17.31 0 14C0 10.9 2.35035 8.36004 5.36035 8.04004C6.61037 5.6401 9.11005 4 12 4ZM12.4805 6.01953C10.4805 5.84954 8.68985 6.75978 7.58984 8.21973C9.76971 8.81969 11.4498 10.6098 11.8799 12.8496C11.9999 13.4496 11.4996 14 10.8896 14C10.4098 13.9998 10.0101 13.6498 9.91016 13.1699C9.53014 11.3599 7.91998 10 6 10C3.66013 10 1.78978 12.0098 2.01953 14.3896C2.21953 16.4696 4.07995 18 6.16992 18H19C20.8499 18 22.3195 16.3103 21.9297 14.4004C21.6497 12.9705 20.3102 12.0002 18.8604 12H17.4902V11.7305C17.4902 8.84061 15.3603 6.26975 12.4805 6.01953Z" fill="#2F455C"/>
</g>
</svg>
