<svg width="24" height="24" viewBox="0 0 24 24" fill="none" xmlns="http://www.w3.org/2000/svg">
<g id="Image/camera-rear">
<path id="Icon Shape" d="M10 19.5642C10 19.1144 10.5396 18.8944 10.8496 19.2039L12.6396 20.9939C12.8396 21.1939 12.8396 21.5039 12.6396 21.7039L10.8496 23.4939C10.5396 23.8139 10 23.5943 10 23.1443V22.3542H6C5.45 22.3542 5 21.9042 5 21.3542C5 20.8042 5.45 20.3542 6 20.3542H10V19.5642ZM18 20.3542C18.55 20.3542 19 20.8042 19 21.3542C19 21.9042 18.55 22.3542 18 22.3542H15C14.45 22.3542 14 21.9042 14 21.3542C14 20.8042 14.45 20.3542 15 20.3542H18ZM17 0.354248C18.1 0.354248 19 1.25425 19 2.35425V16.3542C19 17.4542 18.1 18.3542 17 18.3542H7C5.9 18.3542 5 17.4542 5 16.3542V2.35425C5 1.25425 5.9 0.354248 7 0.354248H17ZM11.9902 2.35425C10.8902 2.35425 10 3.25425 10 4.35425C10 5.45425 10.89 6.35425 12 6.35425C13.1 6.35425 14.0002 5.45425 13.9902 4.35425C13.9902 3.25433 13.0901 2.35438 11.9902 2.35425Z" fill="#2F455C"/>
</g>
</svg>
