<svg width="24" height="24" viewBox="0 0 24 24" fill="none" xmlns="http://www.w3.org/2000/svg">
<g id="Image/camera-roll">
<path id="Icon Shape" d="M10 1.5C10.55 1.5 11 1.95 11 2.5V3.5H12C13.1 3.5 14 4.4 14 5.5H20C21.1 5.5 22 6.4 22 7.5V18.5C22 19.6 21.1 20.5 20 20.5H14C14 21.6 13.1 22.5 12 22.5H4C2.9 22.5 2 21.6 2 20.5V5.5C2 4.4 2.9 3.5 4 3.5H5V2.5C5 1.95 5.45 1.5 6 1.5H10ZM10 18.5H12V16.5H10V18.5ZM14 18.5H16V16.5H14V18.5ZM18 18.5H20V16.5H18V18.5ZM10 9.5H12V7.5H10V9.5ZM14 9.5H16V7.5H14V9.5ZM18 7.5V9.5H20V7.5H18Z" fill="#2F455C"/>
</g>
</svg>
