<svg width="24" height="24" viewBox="0 0 24 24" fill="none" xmlns="http://www.w3.org/2000/svg">
<g id="Image/panorama-wide_angle">
<path id="Icon Shape" d="M12 4C14.73 4 17.2202 4.24047 19.9502 4.73047L20.8799 4.88965L21.1299 5.78027C21.7098 7.8502 22 9.93007 22 12C22 14.07 21.7099 16.1505 21.1299 18.2305L20.8799 19.1201L19.9502 19.2803C17.2202 19.7603 14.73 20 12 20C9.27 20 6.7798 19.7595 4.0498 19.2695L3.12012 19.1104L2.87012 18.2197C2.29016 16.1498 2 14.0699 2 12C2 9.93007 2.29016 7.8502 2.87012 5.78027L3.12012 4.87988L4.0498 4.71973C6.7798 4.23973 9.27 4 12 4ZM12 6C9.55001 6 7.28995 6.19965 4.70996 6.63965C4.23996 8.41965 4 10.22 4 12C4 13.78 4.23996 15.5804 4.70996 17.3604C7.28995 17.8003 9.55001 18 12 18C14.45 18 16.71 17.8003 19.29 17.3604C19.76 15.5804 20 13.78 20 12C20 10.22 19.76 8.41965 19.29 6.63965C16.71 6.19965 14.45 6 12 6Z" fill="#2F455C"/>
</g>
</svg>
