<svg width="24" height="24" viewBox="0 0 24 24" fill="none" xmlns="http://www.w3.org/2000/svg">
<g id="Image/filter">
<path id="Icon Shape" d="M2 5C2.55 5 3 5.45 3 6V20C3 20.55 3.45 21 4 21H18C18.55 21 19 21.45 19 22C19 22.55 18.55 23 18 23H3C1.9 23 1 22.1 1 21V6C1 5.45 1.45 5 2 5ZM21 1C22.1 1 23 1.9 23 3V17C23 18.1 22.1 19 21 19H7C5.9 19 5 18.1 5 17V3C5 1.9 5.9 1 7 1H21ZM8 3C7.45 3 7 3.45 7 4V16C7 16.55 7.45 17 8 17H20C20.55 17 21 16.55 21 16V4C21 3.45 20.55 3 20 3H8ZM15.5596 10.8096C15.7595 10.5498 16.1595 10.5501 16.3496 10.8096L18.9004 14.2002C19.15 14.5302 18.9099 15 18.5 15H9.51953C9.10995 14.9996 8.87039 14.5203 9.12988 14.1904L10.8701 11.96C11.0701 11.71 11.4504 11.7002 11.6504 11.9502L13.21 13.8301L15.5596 10.8096Z" fill="#2F455C"/>
</g>
</svg>
