<svg width="24" height="24" viewBox="0 0 24 24" fill="none" xmlns="http://www.w3.org/2000/svg">
<g id="Image/switch-camera">
<path id="Icon Shape" d="M14.1201 3C14.6801 3.00003 15.2199 3.24042 15.5898 3.65039L16.8301 5H20C21.1 5 22 5.9 22 7V19C22 20.1 21.1 21 20 21H4C2.9 21 2 20.1 2 19V7C2 5.9 2.9 5 4 5H7.16992L8.40039 3.65039C8.78036 3.24042 9.31992 3.00003 9.87988 3H14.1201ZM15 12H9V9.5L5.84961 12.6396C5.64976 12.8395 5.65001 13.1496 5.84961 13.3496L9 16.5V14H15V16.5L18.1504 13.3604C18.3502 13.1605 18.35 12.8504 18.1504 12.6504L15 9.5V12Z" fill="#2F455C"/>
</g>
</svg>
