<svg width="24" height="24" viewBox="0 0 24 24" fill="none" xmlns="http://www.w3.org/2000/svg">
<g id="Image/rotate-90_degrees_ccw">
<path id="Icon Shape" d="M11.4422 2.37694C12.0722 1.74696 13.1521 2.19697 13.1522 3.0869V3.91698C15.4521 3.91698 17.7626 4.79674 19.5125 6.55663C23.0325 10.0666 23.0325 15.7673 19.5125 19.2773C17.7626 21.0372 15.4521 21.917 13.1522 21.917C12.1423 21.9169 11.1424 21.7472 10.1825 21.4072C9.50246 21.1772 9.34262 20.2871 9.84262 19.7871C10.1126 19.5172 10.5022 19.4074 10.8622 19.5273C11.6021 19.7873 12.3723 19.9169 13.1522 19.917C15.1721 19.917 17.1824 19.0572 18.6024 17.3174C20.6523 14.7974 20.6523 11.0473 18.6024 8.52733C17.1824 6.77733 15.1722 5.91698 13.1522 5.91698V6.74706C13.1522 7.63685 12.073 8.07671 11.453 7.44725L9.62289 5.61717C9.23289 5.22717 9.23289 4.59702 9.62289 4.20702L11.4422 2.37694ZM6.08286 7.74706C6.86287 6.9572 8.12298 6.95734 8.91293 7.73729L12.5829 11.417C13.3626 12.1969 13.3626 13.4671 12.5829 14.2471L8.9227 17.8974C8.14278 18.6772 6.8726 18.6771 6.09262 17.8974L2.43246 14.2373C1.65251 13.4573 1.65259 12.1872 2.43246 11.4072L6.08286 7.74706ZM8.2225 9.85741C7.8225 9.46741 7.19258 9.46741 6.80258 9.85741L4.55258 12.1074C4.16274 12.4974 4.16264 13.1374 4.55258 13.5273L6.79282 15.7568C7.19282 16.1468 7.82276 16.1468 8.21274 15.7568L10.4627 13.5068C10.8525 13.1168 10.8527 12.4866 10.4627 12.0967L8.2225 9.85741Z" fill="#2F455C"/>
</g>
</svg>
