<svg width="24" height="24" viewBox="0 0 24 24" fill="none" xmlns="http://www.w3.org/2000/svg">
<g id="Image/shutter-speed">
<path id="Icon Shape" d="M12.0014 4.5C14.1214 4.5 16.0715 5.24047 17.6215 6.48047L18.3715 5.73047C18.7615 5.35047 19.3819 5.34047 19.7719 5.73047L19.7817 5.74023C20.1714 6.13016 20.1614 6.75969 19.7817 7.13965L19.0317 7.88965C20.2617 9.42965 21.0014 11.38 21.0014 13.5C21.0014 18.47 16.9814 22.5 12.0014 22.5C6.94146 22.4999 2.87142 18.3397 3.00142 13.2598C3.12154 8.4599 7.20154 4.50006 12.0014 4.5ZM12.0014 6.5C8.13146 6.50005 5.00142 9.63003 5.00142 13.5C5.00142 17.37 8.13146 20.4999 12.0014 20.5C15.8714 20.5 19.0014 17.37 19.0014 13.5C19.0014 9.63 15.8714 6.5 12.0014 6.5ZM13.0112 15.1904C13.2012 14.8504 13.6913 14.8602 13.8813 15.2002L15.352 17.9102C15.4718 18.1401 15.4117 18.4304 15.1918 18.5703C14.0519 19.2803 12.7017 19.5999 11.3618 19.46C10.9918 19.43 10.7913 19.0299 10.9711 18.71L13.0112 15.1904ZM10.812 15.5C11.2017 15.5003 11.4413 15.9201 11.2514 16.25L9.8813 18.5996C9.75132 18.8296 9.46186 18.9195 9.23188 18.8096C8.10195 18.2496 7.22158 17.3601 6.66157 16.2402C6.49157 15.9002 6.73177 15.5 7.11177 15.5H10.812ZM17.4711 12.5C17.7211 12.5 17.9511 12.6902 17.9711 12.9502C18.0911 14.4101 17.7119 15.8503 16.852 17.0303C16.6321 17.3301 16.1718 17.3101 15.9916 16.9805L13.9711 13.2402C13.7912 12.9003 14.0314 12.5001 14.4213 12.5H17.4711ZM7.09126 10.0703C7.29126 9.77031 7.7311 9.77031 7.9311 10.0703L10.312 13.7305C10.5214 14.0604 10.2809 14.5 9.89106 14.5H6.54145C6.28148 14.5 6.06145 14.3098 6.04145 14.0498C5.92152 12.64 6.28146 11.2302 7.09126 10.0703ZM8.6811 8.50977C9.8311 7.74977 11.202 7.42004 12.562 7.54004C12.9317 7.58031 13.1512 7.97995 12.9614 8.2998L11.0219 11.6504C10.8319 11.9703 10.3713 11.9799 10.1713 11.6699L8.55122 9.19043C8.41126 8.97049 8.46125 8.65981 8.6811 8.50977ZM14.0815 8.34961C14.2116 8.1298 14.502 8.03044 14.7319 8.15039C15.8515 8.73032 16.7613 9.6399 17.3413 10.7695C17.5113 11.0995 17.2711 11.5 16.8911 11.5H13.1313C12.7415 11.4998 12.5018 11.0801 12.7016 10.7402L14.0815 8.34961ZM14.0014 1.5C14.5514 1.5 15.0014 1.95 15.0014 2.5C15.0014 3.05 14.5514 3.5 14.0014 3.5H10.0014C9.45146 3.49995 9.00142 3.04997 9.00142 2.5C9.00142 1.95003 9.45146 1.50005 10.0014 1.5H14.0014Z" fill="#2F455C"/>
</g>
</svg>
