<svg width="24" height="24" viewBox="0 0 24 24" fill="none" xmlns="http://www.w3.org/2000/svg">
<g id="Image/exposure-plus_2">
<path id="Icon Shape" d="M17.4697 5.5C18.1097 5.5 18.6804 5.58023 19.1904 5.74023C19.6802 5.91022 20.1103 6.14029 20.4502 6.4502C20.79 6.75012 21.0505 7.11975 21.2305 7.55957C21.4104 7.99944 21.4999 8.48971 21.5 9.01953C21.5 9.40953 21.4396 9.8102 21.3096 10.2002C21.1796 10.5901 20.9995 10.9802 20.7695 11.3701C20.5396 11.76 20.2701 12.1502 19.9502 12.54C19.6303 12.93 19.2901 13.3298 18.9102 13.7197L16.0498 16.79H22V18.5H13.3701V17.0098L17.54 12.46C17.9 12.08 18.1899 11.7297 18.4199 11.4297C18.6599 11.1297 18.8405 10.8496 18.9805 10.5996C19.1202 10.35 19.2096 10.1201 19.2695 9.90039C19.3195 9.68039 19.3496 9.47 19.3496 9.25C19.3496 8.96012 19.2997 8.69034 19.2197 8.44043C19.1297 8.19043 19.0096 7.97004 18.8496 7.79004C18.6896 7.61012 18.4897 7.46032 18.2598 7.36035C18.0298 7.26039 17.7601 7.20998 17.4502 7.20996C17.0903 7.20996 16.7602 7.26974 16.4902 7.38965C16.2202 7.50965 15.9896 7.66988 15.8096 7.87988C15.6397 8.08982 15.5001 8.34001 15.4102 8.62988C15.3302 8.89988 15.2903 9.19 15.2803 9.5H13.1396C13.1496 8.97001 13.2399 8.46999 13.4199 8C13.6099 7.5001 13.8899 7.07015 14.2598 6.7002C14.6198 6.3302 15.0801 6.03031 15.6201 5.82031C16.16 5.61034 16.7798 5.50003 17.4697 5.5ZM7 7.5C7.55 7.5 8 7.95 8 8.5V11.5H11C11.55 11.5 12 11.95 12 12.5C12 13.05 11.55 13.5 11 13.5H8V16.5C8 17.05 7.55 17.5 7 17.5C6.45 17.5 6 17.05 6 16.5V13.5H3C2.45 13.5 2 13.05 2 12.5C2 11.95 2.45 11.5 3 11.5H6V8.5C6 7.95 6.45 7.5 7 7.5Z" fill="#2F455C"/>
</g>
</svg>
