<svg width="24" height="24" viewBox="0 0 24 24" fill="none" xmlns="http://www.w3.org/2000/svg">
<g id="Image/photo-size_select_actual">
<path id="Icon Shape" d="M21 3C22 3 23 4 23 5V19C23 20 22 21 21 21H3C1.9 21 1 20.1 1 19V5C1 4 2 3 3 3H21ZM14.9004 11.5303C14.7004 11.2603 14.2996 11.2596 14.0996 11.5195L11 15.5098L8.90039 12.9805C8.70039 12.7305 8.32012 12.7402 8.12012 12.9902L5.62988 16.1904C5.37039 16.5203 5.60995 16.9994 6.01953 17.0098H18.0098C18.4197 17.0098 18.6601 16.54 18.4102 16.21L14.9004 11.5303Z" fill="#2F455C"/>
</g>
</svg>
