<svg width="24" height="24" viewBox="0 0 24 24" fill="none" xmlns="http://www.w3.org/2000/svg">
<g id="Image/photo-size_select_large">
<path id="Icon Shape" d="M13 11C14.1 11 15 11.9 15 13V21H3C1.9 21 1 20.1 1 19V11H13ZM19 21H17V19H19V21ZM23 19C23 20 22 21 21 21V19H23ZM10.1797 15.25C9.98965 14.9801 9.58961 14.9803 9.38965 15.2402L7.29004 17.9404L5.90039 16.2695C5.69038 16.0196 5.3201 16.0303 5.12012 16.2803L3.62988 18.1904C3.37039 18.5203 3.60995 18.9994 4.01953 19.0098H12C12.4099 19.0098 12.6502 18.54 12.4004 18.21L10.1797 15.25ZM23 17H21V15H23V17ZM23 13H21V11H23V13ZM3 9H1V7H3V9ZM23 9H21V7H23V9ZM3 5H1C1 4 2 3 3 3V5ZM7 5H5V3H7V5ZM11 5H9V3H11V5ZM15 5H13V3H15V5ZM19 5H17V3H19V5ZM21 3C22 3 23 4 23 5H21V3Z" fill="#2F455C"/>
</g>
</svg>
