<svg width="24" height="24" viewBox="0 0 24 24" fill="none" xmlns="http://www.w3.org/2000/svg">
<g id="Image/view-comfy">
<path id="Icon Shape" d="M6.5 19H4.5C3.4 19 2.5 18.1 2.5 17V15H6.5V19ZM11.5 19H7.5V15H11.5V19ZM16.5 19H12.5V15H16.5V19ZM21.5 17C21.5 18.1 20.6 19 19.5 19H17.5V15H21.5V17ZM6.5 14H2.5V10H6.5V14ZM11.5 14H7.5V10H11.5V14ZM16.5 14H12.5V10H16.5V14ZM21.5 14H17.5V10H21.5V14ZM6.5 9H2.5V7C2.5 5.9 3.4 5 4.5 5H6.5V9ZM11.5 9H7.5V5H11.5V9ZM16.5 9H12.5V5H16.5V9ZM19.5 5C20.6 5 21.5 5.9 21.5 7V9H17.5V5H19.5Z" fill="#2F455C"/>
</g>
</svg>
