<svg width="24" height="24" viewBox="0 0 24 24" fill="none" xmlns="http://www.w3.org/2000/svg">
<g id="Image/assistant">
<path id="Icon Shape" d="M19 1.70874C20.1 1.70874 21 2.60874 21 3.70874V17.7087C21 18.8087 20.1 19.7087 19 19.7087H15L12.7002 21.9988C12.3102 22.3888 11.68 22.3887 11.29 21.9988L9 19.7087H5C3.9 19.7087 3 18.8087 3 17.7087V3.70874C3 2.60874 3.9 1.70874 5 1.70874H19ZM10.1201 8.82886L6 10.7087L10.1201 12.5886L12 16.7087L13.8799 12.5886L18 10.7087L13.8799 8.82886L12 4.70874L10.1201 8.82886Z" fill="#2F455C"/>
</g>
</svg>
