<svg width="24" height="24" viewBox="0 0 24 24" fill="none" xmlns="http://www.w3.org/2000/svg">
<g id="Image/loupe">
<path id="Icon Shape" d="M12 2C17.51 2 22 6.49 22 12V20C22 21.1 21.1 22 20 22H12C6.49 22 2 17.51 2 12C2 6.49 6.49 2 12 2ZM12 4C7.59 4 4 7.59 4 12C4 16.41 7.59 20 12 20C16.41 20 20 16.41 20 12C20 7.59 16.41 4 12 4ZM12 7C12.55 7 13 7.45 13 8V11H16C16.55 11 17 11.45 17 12C17 12.55 16.55 13 16 13H13V16C13 16.55 12.55 17 12 17C11.45 17 11 16.55 11 16V13H8C7.45 13 7 12.55 7 12C7 11.45 7.45 11 8 11H11V8C11 7.45 11.45 7 12 7Z" fill="#2F455C"/>
</g>
</svg>
