<svg width="24" height="24" viewBox="0 0 24 24" fill="none" xmlns="http://www.w3.org/2000/svg">
<g id="Image/tag-faces">
<path id="Icon Shape" d="M11.9902 2C17.5201 2.00013 22 6.48008 22 12C22 17.5199 17.5201 21.9999 11.9902 22C6.47023 22 2 17.52 2 12C2 6.48 6.47023 2 11.9902 2ZM12 4C7.58 4 4 7.58 4 12C4 16.42 7.58 20 12 20C16.42 20 20 16.42 20 12C20 7.58 16.42 4 12 4ZM16.3096 14C16.6996 14 16.94 14.42 16.75 14.75C15.8 16.39 14.03 17.5 12 17.5C9.97 17.5 8.2 16.39 7.25 14.75C7.06 14.42 7.31043 14 7.69043 14H16.3096ZM8.5 8C9.33 8 10 8.67 10 9.5C10 10.33 9.33 11 8.5 11C7.67 11 7 10.33 7 9.5C7 8.67 7.67 8 8.5 8ZM15.5 8C16.33 8 17 8.67 17 9.5C17 10.33 16.33 11 15.5 11C14.67 11 14 10.33 14 9.5C14 8.67 14.67 8 15.5 8Z" fill="#2F455C"/>
</g>
</svg>
