<svg width="24" height="24" viewBox="0 0 24 24" fill="none" xmlns="http://www.w3.org/2000/svg">
<g id="Image/photo-size_select_small">
<path id="Icon Shape" d="M9 15C10.1 15 11 15.9 11 17V21H3C1.9 21 1 20.1 1 19V15H9ZM15 21H13V19H15V21ZM19 21H17V19H19V21ZM23 19C23 20 22 21 21 21V19H23ZM23 17H21V15H23V17ZM3 13H1V11H3V13ZM23 13H21V11H23V13ZM3 9H1V7H3V9ZM23 9H21V7H23V9ZM3 5H1C1 4 2 3 3 3V5ZM7 3V5H5V3H7ZM11 5H9V3H11V5ZM15 5H13V3H15V5ZM19 5H17V3H19V5ZM21 3C22 3 23 4 23 5H21V3Z" fill="#2F455C"/>
</g>
</svg>
