<svg width="24" height="24" viewBox="0 0 24 24" fill="none" xmlns="http://www.w3.org/2000/svg">
<g id="Image/grid-on">
<path id="Icon Shape" d="M20 2C21.1 2 22 2.9 22 4V20C22 21.1 21.1 22 20 22H4C2.9 22 2 21.1 2 20V4C2 2.9 2.9 2 4 2H20ZM4 19C4 19.55 4.45 20 5 20H8V16H4V19ZM10 20H14V16H10V20ZM16 20H19C19.55 20 20 19.55 20 19V16H16V20ZM4 14H8V10H4V14ZM10 14H14V10H10V14ZM16 14H20V10H16V14ZM5 4C4.45 4 4 4.45 4 5V8H8V4H5ZM10 8H14V4H10V8ZM16 4V8H20V5C20 4.45 19.55 4 19 4H16Z" fill="#2F455C"/>
</g>
</svg>
