<svg width="24" height="24" viewBox="0 0 24 24" fill="none" xmlns="http://www.w3.org/2000/svg">
<g id="Image/monochrome-photos">
<path id="Icon Shape" d="M14.1104 3C14.6802 3.0001 15.2197 3.24031 15.5996 3.66016L16.7998 5H20C21.1 5 22 5.9 22 7V19C22 20.1 21.1 21 20 21H4C2.9 21 2 20.1 2 19V7C2 5.9 2.9 5 4 5H7.2002L8.40039 3.66016C8.78031 3.24031 9.31983 3.0001 9.88965 3H14.1104ZM12 8C9.2 8 7 10.2 7 13C7 15.8 9.2 18 12 18V19H19C19.55 19 20 18.55 20 18V8C20 7.45 19.55 7 19 7H12V8ZM12 8C14.8 8 17 10.2 17 13C17 15.8 14.8 18 12 18V16.2002C13.8 16.2002 15.2002 14.8 15.2002 13C15.2002 11.2 13.8 9.7998 12 9.7998V8ZM12 16.2002C10.2 16.2002 8.7998 14.8 8.7998 13C8.7998 11.2 10.2 9.7998 12 9.7998V16.2002Z" fill="#2F455C"/>
</g>
</svg>
