<svg width="24" height="24" viewBox="0 0 24 24" fill="none" xmlns="http://www.w3.org/2000/svg">
<g id="Image/center-focus_strong">
<path id="Icon Shape" d="M4 15C4.55 15 5 15.45 5 16V18C5 18.55 5.45 19 6 19H8C8.55 19 9 19.45 9 20C9 20.55 8.55 21 8 21H5C3.9 21 3 20.1 3 19V16C3 15.45 3.45 15 4 15ZM20 15C20.55 15 21 15.45 21 16V19C21 20.1 20.1 21 19 21H16C15.45 21 15 20.55 15 20C15 19.45 15.45 19 16 19H18C18.55 19 19 18.55 19 18V16C19 15.45 19.45 15 20 15ZM12 8C14.21 8 16 9.79 16 12C16 14.21 14.21 16 12 16C9.79 16 8 14.21 8 12C8 9.79 9.79 8 12 8ZM8 3C8.55 3 9 3.45 9 4C9 4.55 8.55 5 8 5H6C5.45 5 5 5.45 5 6V8C5 8.55 4.55 9 4 9C3.45 9 3 8.55 3 8V5C3 3.9 3.9 3 5 3H8ZM19 3C20.1 3 21 3.9 21 5V8C21 8.55 20.55 9 20 9C19.45 9 19 8.55 19 8V6C19 5.45 18.55 5 18 5H16C15.45 5 15 4.55 15 4C15 3.45 15.45 3 16 3H19Z" fill="#2F455C"/>
</g>
</svg>
