<svg width="24" height="24" viewBox="0 0 24 24" fill="none" xmlns="http://www.w3.org/2000/svg">
<g id="Image/grid-off">
<path id="Icon Shape" d="M1.98004 0.977509C2.24454 0.97752 2.4983 1.08323 2.68512 1.27048L22.7252 21.3095C23.1152 21.6995 23.1152 22.3404 22.7252 22.7304C22.3352 23.1202 21.705 23.1202 21.315 22.7304L20.0152 21.4297H4.565C3.465 21.4297 2.565 20.5297 2.565 19.4297V3.98044L1.27496 2.67966C0.885236 2.28973 0.885285 1.66044 1.27496 1.27048C1.46179 1.08322 1.71552 0.977509 1.98004 0.977509ZM4.565 18.4297C4.565 18.9797 5.015 19.4297 5.565 19.4297H8.565V15.4297H4.565V18.4297ZM10.565 19.4297H14.565V15.9804L14.0152 15.4297H10.565V19.4297ZM16.565 19.4297H18.0152L16.565 17.9804V19.4297ZM20.565 1.42966C21.6649 1.42966 22.5648 2.32981 22.565 3.42966V18.3203L20.565 16.3203V15.4297H19.6754L17.6754 13.4297H20.565V9.42966H16.565V12.3203L14.565 10.3203V9.42966H13.6754L11.6754 7.42966H14.565V3.42966H10.565V6.32028L8.565 4.32028V3.42966H7.67535L5.67535 1.42966H20.565ZM4.565 13.4297H8.565V9.98044L8.0152 9.42966H4.565V13.4297ZM10.565 13.4297H12.0152L10.565 11.9804V13.4297ZM4.565 7.42966H6.0152L4.565 5.98044V7.42966ZM16.565 7.42966H20.565V4.42966C20.5648 3.87981 20.1149 3.42966 19.565 3.42966H16.565V7.42966Z" fill="#2F455C"/>
</g>
</svg>
