<svg width="24" height="24" viewBox="0 0 24 24" fill="none" xmlns="http://www.w3.org/2000/svg">
<g id="Image/nature-people">
<path id="Icon Shape" d="M14.9746 2.08556C18.8946 2.02556 22.0849 5.17556 22.0849 9.08556C22.0848 12.6755 19.3849 15.6258 15.915 16.0358V19.9156H17.915C18.465 19.9156 18.915 20.3656 18.915 20.9156C18.9149 21.4655 18.4649 21.9156 17.915 21.9156H3.91499C3.36506 21.9156 2.91511 21.4655 2.91499 20.9156V16.9156H2.41499C2.13506 16.9156 1.9151 16.6955 1.91499 16.4156V12.9156C1.91499 12.3656 2.36499 11.9156 2.91499 11.9156H5.91499C6.46499 11.9156 6.91499 12.3656 6.91499 12.9156V16.4156C6.91488 16.6955 6.69492 16.9156 6.41499 16.9156H5.91499V19.9156H13.9248V15.9752C10.6749 15.4351 8.18468 12.6549 8.09468 9.27501C7.98493 5.45533 11.1449 2.1458 14.9746 2.08556ZM4.41499 7.91563C5.24342 7.91563 5.91499 8.58721 5.91499 9.41563C5.91488 10.244 5.24335 10.9156 4.41499 10.9156C3.58664 10.9156 2.91511 10.244 2.91499 9.41563C2.91499 8.58721 3.58657 7.91563 4.41499 7.91563Z" fill="#2F455C"/>
</g>
</svg>
