<svg width="24" height="24" viewBox="0 0 24 24" fill="none" xmlns="http://www.w3.org/2000/svg">
<g id="Image/style">
<path id="Icon Shape" d="M9.59247 21.5H8.14227C7.04227 21.5 6.14227 20.6 6.14227 19.5V13.1602L9.59247 21.5ZM15.5222 2.5C16.2922 2.52 17.0227 2.98047 17.3327 3.73047L22.2927 15.7002C22.7124 16.7101 22.2217 17.8798 21.2018 18.2998L13.8425 21.3496C13.5925 21.4496 13.332 21.5 13.072 21.5C12.2921 21.4899 11.5518 21.0294 11.2419 20.2695L6.28192 8.2998C6.172 8.03989 6.12251 7.7699 6.13251 7.5C6.15251 6.7301 6.61217 6.01026 7.362 5.7002L14.7321 2.65039C14.9921 2.5404 15.2622 2.50001 15.5222 2.5ZM4.13251 19.96L2.79266 19.4004C1.78272 18.9804 1.29197 17.81 1.70184 16.79L4.13251 10.9297V19.96ZM8.14227 6.5C7.59227 6.5 7.14227 6.95 7.14227 7.5C7.14227 8.05 7.59227 8.5 8.14227 8.5C8.69226 8.49998 9.14227 8.04999 9.14227 7.5C9.14227 6.95001 8.69226 6.50002 8.14227 6.5Z" fill="#2F455C"/>
</g>
</svg>
