<svg width="24" height="24" viewBox="0 0 24 24" fill="none" xmlns="http://www.w3.org/2000/svg">
<g id="Image/colorize">
<path id="Icon Shape" d="M17.665 2.99875C17.9295 2.99876 18.1833 3.10447 18.3701 3.29172L20.7099 5.63156C21.0998 6.02154 21.1003 6.65153 20.6904 7.05148L17.5703 10.1716L18.79 11.3913C19.1799 11.7813 19.18 12.4115 18.79 12.8015C18.4 13.1914 17.7698 13.1914 17.3799 12.8015L16.6601 12.0808L7.88962 20.8513C7.79963 20.9511 7.66991 21.0017 7.54001 21.0017H3.49997C3.22012 21.0017 3.0002 20.7815 2.99997 20.5017V16.4616C2.99997 16.3216 3.05036 16.2013 3.15036 16.1013L11.9199 7.33078L11.2002 6.61105C10.8102 6.22105 10.8102 5.5909 11.2002 5.2009C11.5902 4.82115 12.2204 4.81099 12.6103 5.2009L13.8398 6.41086L16.9599 3.29172C17.1468 3.10446 17.4005 2.99875 17.665 2.99875ZM4.99997 17.0808L6.91989 19.0017L14.9804 10.9411L13.0595 9.02121L4.99997 17.0808Z" fill="#2F455C"/>
</g>
</svg>
