<svg width="24" height="24" viewBox="0 0 24 24" fill="none" xmlns="http://www.w3.org/2000/svg">
<g id="Image/image">
<path id="Icon Shape" d="M19 3C20.1 3 21 3.9 21 5V19C21 20.1 20.1 21 19 21H5C3.9 21 3 20.1 3 19V5C3 3.9 3.9 3 5 3H19ZM14.9004 12.5303C14.7004 12.2603 14.2996 12.2596 14.0996 12.5195L11 16.5098L8.90039 13.9805C8.69041 13.7305 8.31013 13.7401 8.12012 14L5.62988 17.2002C5.3702 17.5301 5.5999 18.0094 6.01953 18.0098H18.0098C18.4197 18.0098 18.6601 17.54 18.4102 17.21L14.9004 12.5303Z" fill="#2F455C"/>
</g>
</svg>
