<svg width="24" height="24" viewBox="0 0 24 24" fill="none" xmlns="http://www.w3.org/2000/svg">
<g id="Image/looks">
<path id="Icon Shape" d="M11.9996 6.5C17.6995 6.50019 22.3889 10.8405 22.9489 16.4004C23.0086 16.9902 22.5388 17.5 21.9489 17.5C21.4391 17.4998 21.0097 17.1199 20.9596 16.6201C20.5096 12.0702 16.6595 8.50019 11.9996 8.5C7.33965 8.5 3.48945 12.0701 3.04945 16.6201C2.99941 17.1201 2.56919 17.5 2.05922 17.5C1.45937 17.5 0.99968 16.9902 1.04945 16.4004C1.60945 10.8404 6.29965 6.5 11.9996 6.5ZM11.9996 10.5C15.4695 10.5002 18.3591 13.0405 18.8991 16.3604C18.9988 16.9602 18.5187 17.5 17.9088 17.5C17.4192 17.4998 17.0095 17.14 16.9293 16.6504C16.5194 14.2905 14.4695 12.5002 11.9996 12.5C9.52965 12.5 7.47898 14.2904 7.06898 16.6504C6.98883 17.1401 6.57925 17.4999 6.08949 17.5C5.4796 17.5 4.98971 16.9602 5.08949 16.3604C5.63949 13.0404 8.52965 10.5 11.9996 10.5Z" fill="#2F455C"/>
</g>
</svg>
