<svg width="24" height="24" viewBox="0 0 24 24" fill="none" xmlns="http://www.w3.org/2000/svg">
<g id="Image/movie-filter">
<path id="Icon Shape" d="M6.7002 6.5498C6.8902 6.8298 7.20027 7 7.53027 7H9.53027C9.72997 6.9998 9.84979 6.78023 9.74023 6.61035L8 4H10L11.7002 6.5498C11.8802 6.8298 12.2003 7 12.5303 7H14.5303C14.73 6.9998 14.8498 6.78023 14.7402 6.61035L13 4H15L16.7002 6.5498C16.8802 6.8298 17.2003 7 17.5303 7H19.5303C19.73 6.9998 19.8498 6.78023 19.7402 6.61035L18 4H21.5C21.78 4 22 4.22 22 4.5V18C22 19.1 21.1 20 20 20H4C2.9 20 2 19.1 2 18L2.00977 6C2.00977 4.9 2.9 4 4 4H5L6.7002 6.5498ZM8.75 12.75L6 14L8.75 15.25L10 18L11.25 15.25L14 14L11.25 12.75L10 10L8.75 12.75ZM15.0596 10.0596L13 11L15.0596 11.9404L16 14L16.9404 11.9404L19 11L16.9404 10.0596L16 8L15.0596 10.0596Z" fill="#2F455C"/>
</g>
</svg>
