<svg width="24" height="24" viewBox="0 0 24 24" fill="none" xmlns="http://www.w3.org/2000/svg">
<g id="Image/crop-rotate">
<path id="Icon Shape" d="M0.720128 13C1.14009 12.9301 1.52048 13.2102 1.58048 13.6201C2.13058 17.1096 4.38023 20.0197 7.47013 21.4795L8.80021 20.1494L12.6098 23.9688C10.17 24.1187 8.01014 23.4992 6.34025 22.6094C3.06025 20.8695 0.700011 17.669 0.100011 13.8594C0.0302709 13.4496 0.310267 13.06 0.720128 13ZM7.0004 3.99121C7.55007 3.99143 8.00015 4.44063 8.0004 4.99023V14.9893C8.0004 15.5392 8.4504 15.9893 9.0004 15.9893H19.0004C19.5501 15.9895 20.0003 16.4396 20.0004 16.9893C20.0004 17.5391 19.5502 17.989 19.0004 17.9893H18.0004V18.9893C18.0004 19.5391 17.5502 19.989 17.0004 19.9893C16.4504 19.9893 16.0004 19.5392 16.0004 18.9893V17.9893H8.0004C6.9004 17.9893 6.0004 17.0891 6.0004 15.9893V7.99023H5.0004C4.4504 7.99023 4.0004 7.54018 4.0004 6.99023C4.00054 6.44041 4.45049 5.99023 5.0004 5.99023H6.0004V4.99023C6.00065 4.4405 6.45055 3.99121 7.0004 3.99121ZM16.0004 5.99023C17.1002 5.99045 18.0003 6.89055 18.0004 7.99023V13.9902H16.0004V8.99023C16.0004 8.44045 15.5502 7.99045 15.0004 7.99023H10.0004V5.99023H16.0004ZM11.39 0.03125C13.8298 -0.118709 15.9897 0.500863 17.6596 1.39062C20.9395 3.1304 23.2997 6.3304 23.8998 10.1299C23.9698 10.5398 23.6897 10.9302 23.2797 10.9902C22.8598 11.06 22.4803 10.78 22.4203 10.3701C21.8703 6.88047 19.6197 3.9706 16.5297 2.51074L15.1996 3.84082L11.39 0.03125Z" fill="#2F455C"/>
</g>
</svg>
