<svg width="24" height="24" viewBox="0 0 24 24" fill="none" xmlns="http://www.w3.org/2000/svg">
<g id="Image/photo-album">
<path id="Icon Shape" d="M18 2C19.1 2 20 2.9 20 4V20C20 21.1 19.1 22 18 22H6C4.9 22 4 21.1 4 20V4C4 2.9 4.9 2 6 2H18ZM14.5303 14.3896C14.3403 14.1198 13.9403 14.1201 13.7402 14.3799L11.1396 17.7197L9.40039 15.6201C9.20042 15.3702 8.82014 15.38 8.62012 15.6299L6.62988 18.1904C6.37039 18.5203 6.60995 18.9994 7.01953 19.0098H17C17.4099 19.0098 17.6502 18.54 17.4004 18.21L14.5303 14.3896ZM6 12L8.5 10.5L11 12V4H6V12Z" fill="#2F455C"/>
</g>
</svg>
