<svg width="24" height="24" viewBox="0 0 24 24" fill="none" xmlns="http://www.w3.org/2000/svg">
<g id="Image/filter-vintage">
<path id="Icon Shape" d="M12.0002 0.809998C13.7901 1.85002 15.0002 3.78049 15.0002 6.00043C15.0002 6.32016 14.9701 6.6399 14.9201 6.94965C15.16 6.75971 15.4205 6.56955 15.7004 6.40961C17.6303 5.29989 19.9105 5.37969 21.7004 6.40961C21.6904 8.47951 20.6202 10.49 18.7004 11.6C18.4204 11.76 18.13 11.8904 17.84 12.0004C18.13 12.1104 18.4204 12.2399 18.7004 12.3998C20.6202 13.5099 21.6904 15.5204 21.7004 17.5903C19.9005 18.6202 17.6203 18.7 15.7004 17.5903C15.4205 17.4303 15.1601 17.2502 14.9201 17.0502C14.9701 17.3602 15.0002 17.6805 15.0002 18.0004C15 20.2202 13.79 22.1499 12.0002 23.1899C10.2103 22.1499 9.00035 20.2202 9.00019 18.0004C9.00019 17.6806 9.03031 17.3603 9.08027 17.0405C8.84035 17.2304 8.5799 17.4196 8.3 17.5795C6.37 18.6895 4.09 18.6095 2.3 17.5795C2.31016 15.5097 3.38017 13.5 5.3 12.3901C5.58 12.2301 5.87035 12.0997 6.16035 11.9897C5.87039 11.8797 5.57996 11.7502 5.3 11.5903C3.37 10.4803 2.3 8.46984 2.3 6.39984C4.09997 5.36989 6.38004 5.2899 8.3 6.39984C8.58 6.55984 8.84028 6.74965 9.08027 6.94965C9.03032 6.63988 9.00022 6.32018 9.00019 6.00043C9.00019 3.78043 10.2102 1.85 12.0002 0.809998ZM12.0002 8.00043C9.79019 8.00043 8.00019 9.79043 8.00019 12.0004C8.00043 14.2102 9.79034 16.0004 12.0002 16.0004C14.21 16.0003 16 14.2102 16.0002 12.0004C16.0002 9.79049 14.2101 8.00053 12.0002 8.00043Z" fill="#2F455C"/>
</g>
</svg>
