<svg width="24" height="24" viewBox="0 0 24 24" fill="none" xmlns="http://www.w3.org/2000/svg">
<g id="Image/exposure-neg_2">
<path id="Icon Shape" d="M16.9697 5.5C17.6097 5.5 18.1804 5.58023 18.6904 5.74023C19.1802 5.91022 19.6103 6.14029 19.9502 6.4502C20.29 6.75012 20.5505 7.11975 20.7305 7.55957C20.9104 7.99944 20.9999 8.48971 21 9.01953C21 9.40953 20.9396 9.8102 20.8096 10.2002C20.6796 10.5901 20.4995 10.9802 20.2695 11.3701C20.0396 11.76 19.7701 12.1502 19.4502 12.54C19.1303 12.93 18.7901 13.3298 18.4102 13.7197L15.5498 16.79H21.5V18.5H12.8701V17.0098L17.04 12.46C17.4 12.08 17.6899 11.7297 17.9199 11.4297C18.1599 11.1297 18.3405 10.8496 18.4805 10.5996C18.6202 10.35 18.7096 10.1201 18.7695 9.90039C18.8195 9.68039 18.8496 9.47 18.8496 9.25C18.8496 8.96012 18.7997 8.69034 18.7197 8.44043C18.6297 8.19043 18.5096 7.97004 18.3496 7.79004C18.1896 7.61012 17.9897 7.46032 17.7598 7.36035C17.5298 7.26039 17.2601 7.20998 16.9502 7.20996C16.5903 7.20996 16.2602 7.26974 15.9902 7.38965C15.7202 7.50965 15.4896 7.66988 15.3096 7.87988C15.1397 8.08982 15.0001 8.34001 14.9102 8.62988C14.8302 8.89988 14.7903 9.19 14.7803 9.5H12.6396C12.6496 8.97001 12.7399 8.46999 12.9199 8C13.1099 7.5001 13.3899 7.07015 13.7598 6.7002C14.1198 6.3302 14.5801 6.03031 15.1201 5.82031C15.66 5.61034 16.2798 5.50003 16.9697 5.5ZM9.5 11.5C10.05 11.5 10.5 11.95 10.5 12.5C10.5 13.05 10.05 13.5 9.5 13.5H3.5C2.95 13.5 2.5 13.05 2.5 12.5C2.5 11.95 2.95 11.5 3.5 11.5H9.5Z" fill="#2F455C"/>
</g>
</svg>
