<svg width="24" height="24" viewBox="0 0 24 24" fill="none" xmlns="http://www.w3.org/2000/svg">
<g id="Image/wb-iridescent">
<path id="Icon Shape" d="M11.9964 20.04C12.5463 20.0401 12.9964 20.4901 12.9964 21.04V22C12.9964 22.5499 12.5463 22.9999 11.9964 23C11.4464 23 10.9964 22.55 10.9964 22V21.04C10.9964 20.49 11.4464 20.04 11.9964 20.04ZM18.6409 17.707C18.9054 17.707 19.1592 17.8128 19.346 18L19.7366 18.3896C20.1266 18.7696 20.1265 19.41 19.7366 19.79L19.6507 19.8682C19.2588 20.1884 18.6825 20.1654 18.3167 19.7998L17.9359 19.4102C17.546 19.0202 17.5461 18.39 17.9359 18C18.1226 17.8128 18.3765 17.7071 18.6409 17.707ZM5.34113 17.707C5.60564 17.707 5.85938 17.8128 6.04621 18C6.43621 18.39 6.43621 19.0202 6.04621 19.4102L5.66633 19.79C5.27633 20.18 4.63617 20.18 4.25617 19.79C3.86619 19.4 3.86618 18.7699 4.25617 18.3799L4.63605 18C4.82286 17.8128 5.07666 17.7071 5.34113 17.707ZM17.9964 9.0498C18.5463 9.04989 18.9963 9.49995 18.9964 10.0498V14C18.9964 14.5499 18.5463 14.9999 17.9964 15H5.99641C5.44641 15 4.99641 14.55 4.99641 14V10.0498C4.99651 9.49989 5.44647 9.0498 5.99641 9.0498H17.9964ZM4.95148 4.00781C5.21592 4.00787 5.46979 4.11261 5.65656 4.2998L6.04621 4.69043C6.43596 5.08039 6.43597 5.70966 6.04621 6.09961C5.65621 6.48961 5.02606 6.48961 4.63605 6.09961L4.24641 5.70996C3.86641 5.32996 3.86641 4.6898 4.24641 4.2998C4.43322 4.11266 4.68705 4.00781 4.95148 4.00781ZM19.0413 4.00781C19.3058 4.00783 19.5596 4.11258 19.7464 4.2998C20.1364 4.68977 20.1363 5.31995 19.7464 5.70996L19.3665 6.08984C18.9765 6.47984 18.3464 6.47984 17.9564 6.08984C17.5664 5.69984 17.5664 5.06968 17.9564 4.67969L18.3363 4.2998C18.5231 4.11261 18.7769 4.00781 19.0413 4.00781ZM11.9964 1C12.5463 1.00009 12.9964 1.45005 12.9964 2V3.0498C12.9964 3.59975 12.5463 3.99992 11.9964 4C11.4464 4 10.9964 3.5998 10.9964 3.0498V2C10.9964 1.45 11.4464 1 11.9964 1Z" fill="#2F455C"/>
</g>
</svg>
