<svg width="24" height="24" viewBox="0 0 24 24" fill="none" xmlns="http://www.w3.org/2000/svg">
<g id="Image/brightness-6">
<path id="Icon Shape" d="M12.0054 1.10751C12.2698 1.10763 12.5228 1.21333 12.7095 1.40048L15.3101 4.00009H18.9996C19.5496 4.00009 19.9996 4.45009 19.9996 5.00009V8.68954L22.6002 11.2999C22.9901 11.6899 22.9901 12.3201 22.6002 12.7101L19.9996 15.3097V19.0001C19.9995 19.55 19.5495 20.0001 18.9996 20.0001H15.3004L12.6998 22.5997C12.3098 22.9897 11.6796 22.9897 11.2896 22.5997L8.69 20.0001H4.99957C4.4498 19.9999 3.99962 19.5499 3.99957 19.0001V15.2999L1.39996 12.7003C1.00999 12.3103 1.01004 11.6801 1.39996 11.2901L3.99957 8.68954V5.00009C3.99957 4.45023 4.44976 4.00033 4.99957 4.00009H8.69L11.3004 1.40048C11.4872 1.21323 11.7409 1.10751 12.0054 1.10751ZM13.15 6.11044C12.5501 5.99046 11.9997 6.48984 11.9996 7.0997V16.9005C11.9999 17.5103 12.5501 18.0097 13.15 17.8897C15.9099 17.3497 17.9995 14.92 17.9996 12.0001C17.9996 9.08011 15.9099 6.65046 13.15 6.11044Z" fill="#2F455C"/>
</g>
</svg>
