<svg width="24" height="24" viewBox="0 0 24 24" fill="none" xmlns="http://www.w3.org/2000/svg">
<g id="Image/flare">
<path id="Icon Shape" d="M12 17C12.55 17 13 17.45 13 18V22C13 22.55 12.56 23 12 23C11.45 23 11 22.55 11 22V18C11 17.45 11.45 17 12 17ZM7.75488 15.2373C8.0194 15.2373 8.27313 15.343 8.45996 15.5303C8.84984 15.9203 8.84992 16.5505 8.45996 16.9404L7.75 17.6504C7.36002 18.0402 6.72979 18.0402 6.33984 17.6504C5.95991 17.2705 5.96004 16.6303 6.33984 16.2402L7.0498 15.5303C7.23661 15.343 7.49041 15.2373 7.75488 15.2373ZM16.2354 15.2373C16.4997 15.2374 16.7537 15.3431 16.9404 15.5303L17.6504 16.2402C18.0401 16.6303 18.0403 17.2605 17.6504 17.6504C17.2605 18.0403 16.6303 18.0401 16.2402 17.6504L15.5303 16.9404C15.1503 16.5604 15.1503 15.9203 15.5303 15.5303C15.7171 15.343 15.9708 15.2373 16.2354 15.2373ZM12 9C13.66 9 15 10.34 15 12C15 13.66 13.66 15 12 15C10.34 15 9 13.66 9 12C9 10.34 10.34 9 12 9ZM6 11C6.55 11 7 11.45 7 12C7 12.55 6.55 13 6 13H2C1.45 13 1 12.55 1 12C1 11.45 1.45 11 2 11H6ZM22 11C22.55 11 23 11.45 23 12C23 12.55 22.55 13 22 13H18C17.45 13 17 12.56 17 12C17 11.45 17.45 11 18 11H22ZM16.9551 6.05762C17.2195 6.05764 17.4734 6.16245 17.6602 6.34961C18.0401 6.72955 18.04 7.36975 17.6602 7.75977L16.9502 8.46973C16.5602 8.85973 15.93 8.85973 15.54 8.46973C15.1502 8.07972 15.1501 7.44953 15.54 7.05957L16.25 6.34961C16.4368 6.16248 16.6907 6.05762 16.9551 6.05762ZM7.04492 6.04785C7.3094 6.04785 7.56318 6.15264 7.75 6.33984L8.46973 7.05957C8.84973 7.43957 8.84996 8.07996 8.45996 8.45996C8.06996 8.84996 7.4398 8.84996 7.0498 8.45996L6.33984 7.75C5.94992 7.35999 5.94987 6.72982 6.33984 6.33984C6.52666 6.15261 6.78043 6.04787 7.04492 6.04785ZM12 1C12.55 1 13 1.45 13 2V6C13 6.55 12.55 7 12 7C11.45 7 11 6.55 11 6V2C11 1.45 11.44 1 12 1Z" fill="#2F455C"/>
</g>
</svg>
