<svg width="24" height="24" viewBox="0 0 24 24" fill="none" xmlns="http://www.w3.org/2000/svg">
<g id="Image/filter-frames">
<path id="Icon Shape" d="M12.0049 1.20876C12.2694 1.20876 12.5231 1.31447 12.71 1.50172L16 4.79079H20C21.0998 4.79079 21.9998 5.69099 22 6.79079V20.7908C22 21.8908 21.1 22.7908 20 22.7908H4C2.9 22.7908 2 21.8908 2 20.7908V6.79079C2.00025 5.69099 2.90015 4.79079 4 4.79079H8L11.2998 1.50172C11.4866 1.3145 11.7404 1.20879 12.0049 1.20876ZM8.51953 6.79079H5C4.45015 6.79079 4.00025 7.24099 4 7.79079V19.7908C4 20.3408 4.45 20.7908 5 20.7908H19C19.55 20.7908 20 20.3408 20 19.7908V7.79079C19.9998 7.24099 19.5498 6.79079 19 6.79079H15.5195L12.04 3.29079L8.51953 6.79079ZM17 8.79079C17.5498 8.79079 17.9998 9.24099 18 9.79079V17.7908C18 18.3408 17.55 18.7908 17 18.7908H7C6.45 18.7908 6 18.3408 6 17.7908V9.79079C6.00025 9.24099 6.45015 8.79079 7 8.79079H17Z" fill="#2F455C"/>
</g>
</svg>
