<svg width="24" height="24" viewBox="0 0 24 24" fill="none" xmlns="http://www.w3.org/2000/svg">
<g id="Image/filter-9_plus">
<path id="Icon Shape" d="M2 5C2.55 5 3 5.45 3 6V20C3 20.55 3.45 21 4 21H18C18.55 21 19 21.45 19 22C19 22.55 18.55 23 18 23H3C1.9 23 1 22.1 1 21V6C1 5.45 1.45 5 2 5ZM21 1C22.1 1 23 1.9 23 3V17C23 18.1 22.1 19 21 19H7C5.9 19 5 18.1 5 17V3C5 1.9 5.9 1 7 1H21ZM8 3C7.45 3 7 3.45 7 4V16C7 16.55 7.45 17 8 17H20C20.55 17 21 16.55 21 16V4C21 3.45 20.55 3 20 3H8ZM12 6C13.1 6 14 6.9 14 8V12C14 13.1 13.1 14 12 14H10C9.45 14 9 13.55 9 13C9 12.45 9.45 12 10 12H12V11H11C9.9 11 9 10.1 9 9V8C9 6.9 9.9 6 11 6H12ZM18 7C18.55 7 19 7.45 19 8V9H20C20.55 9 21 9.45 21 10C21 10.55 20.55 11 20 11H19V12C19 12.55 18.55 13 18 13C17.45 13 17 12.55 17 12V11H16C15.45 11 15 10.55 15 10C15 9.45 15.45 9 16 9H17V8C17 7.45 17.45 7 18 7ZM11 9H12V8H11V9Z" fill="#2F455C"/>
</g>
</svg>
