<svg width="24" height="24" viewBox="0 0 24 24" fill="none" xmlns="http://www.w3.org/2000/svg">
<g id="Image/grain">
<path id="Icon Shape" d="M6 16C7.1 16 8 16.9 8 18C8 19.1 7.1 20 6 20C4.9 20 4 19.1 4 18C4 16.9 4.9 16 6 16ZM14 16C15.1 16 16 16.9 16 18C16 19.1 15.1 20 14 20C12.9 20 12 19.1 12 18C12 16.9 12.9 16 14 16ZM10 12C11.1 12 12 12.9 12 14C12 15.1 11.1 16 10 16C8.9 16 8 15.1 8 14C8 12.9 8.9 12 10 12ZM18 12C19.1 12 20 12.9 20 14C20 15.1 19.1 16 18 16C16.9 16 16 15.1 16 14C16 12.9 16.9 12 18 12ZM6 8C7.1 8 8 8.9 8 10C8 11.1 7.1 12 6 12C4.9 12 4 11.1 4 10C4 8.9 4.9 8 6 8ZM14 8C15.1 8 16 8.9 16 10C16 11.1 15.1 12 14 12C12.9 12 12 11.1 12 10C12 8.9 12.9 8 14 8ZM10 4C11.1 4 12 4.9 12 6C12 7.1 11.1 8 10 8C8.9 8 8 7.1 8 6C8 4.9 8.9 4 10 4ZM18 4C19.1 4 20 4.9 20 6C20 7.1 19.1 8 18 8C16.9 8 16 7.1 16 6C16 4.9 16.9 4 18 4Z" fill="#2F455C"/>
</g>
</svg>
