<svg width="24" height="24" viewBox="0 0 24 24" fill="none" xmlns="http://www.w3.org/2000/svg">
<g id="Image/hdr-on">
<path id="Icon Shape" d="M7.25 9C7.66 9 8 9.34 8 9.75V14.25C8 14.66 7.66 15 7.25 15C6.84 15 6.5 14.66 6.5 14.25V12.5H4.5V14.25C4.5 14.66 4.16 15 3.75 15C3.34 15 3 14.66 3 14.25V9.75C3 9.34 3.34 9 3.75 9C4.16 9 4.5 9.34 4.5 9.75V11H6.5V9.75C6.5 9.34 6.84 9 7.25 9ZM13 9C13.82 9 14.5 9.68 14.5 10.5V13.5C14.5 14.32 13.82 15 13 15H10C9.72 15 9.5 14.78 9.5 14.5V9.5C9.5 9.22 9.72 9 10 9H13ZM19.5 9C20.33 9 21 9.67 21 10.5V11.5C21 12.1 20.5996 12.6004 20.0996 12.9004L20.5898 14.04C20.7798 14.49 20.4501 14.9999 19.9502 15C19.6802 15 19.4303 14.8398 19.3203 14.5898L18.5996 13H17.5V14.25C17.5 14.66 17.16 15 16.75 15C16.34 15 16 14.66 16 14.25V10C16 9.45 16.45 9 17 9H19.5ZM11 10.5V13.5H13V10.5H11ZM17.5 11.5H19.5V10.5H17.5V11.5Z" fill="#2F455C"/>
</g>
</svg>
