<svg width="24" height="24" viewBox="0 0 24 24" fill="none" xmlns="http://www.w3.org/2000/svg">
<g id="Image/wb-incandescent">
<path id="Icon Shape" d="M12.005 19.5348C12.555 19.5348 12.9952 19.975 12.9952 20.525V21.485C12.9952 22.035 12.555 22.4752 12.005 22.4752H11.9952C11.4452 22.4752 11.005 22.035 11.005 21.485V20.525C11.005 19.975 11.4452 19.5348 11.9952 19.5348H12.005ZM17.9552 17.4752C18.3352 17.0952 18.9646 17.0853 19.3546 17.4752L19.7452 17.8648C20.1352 18.2548 20.1351 18.885 19.7452 19.275C19.3552 19.665 18.7251 19.665 18.3351 19.275L17.9454 18.8853C17.5554 18.4953 17.5552 17.8752 17.9552 17.4752ZM5.33996 17.1725C5.60448 17.1725 5.85821 17.2782 6.04504 17.4654L6.05481 17.4752C6.43477 17.8552 6.44471 18.4846 6.05481 18.8746L5.66516 19.2652C5.27519 19.6551 4.645 19.6551 4.255 19.2652C3.865 18.8752 3.86524 18.2551 4.24524 17.8551L4.63488 17.4654C4.82171 17.2782 5.07546 17.1725 5.33996 17.1725ZM14.005 1.52499C14.555 1.52499 15.005 1.97499 15.005 2.52499V6.33456C16.7949 7.37453 18.0049 9.30486 18.005 11.5348C18.005 15.0848 14.895 17.925 11.255 17.485C8.63516 17.165 6.4755 15.0752 6.07531 12.4654C5.68531 9.85542 6.965 7.51456 9.005 6.33456V2.52499C9.005 1.97499 9.455 1.52499 10.005 1.52499H14.005ZM3.01477 10.525C3.56477 10.525 4.00524 10.9652 3.99524 11.5152V11.525C3.99524 12.075 3.555 12.5152 3.005 12.5152H1.99524C1.44524 12.5152 1.005 12.075 1.005 11.525V11.5152C1.005 10.9652 1.44524 10.525 1.99524 10.525H3.01477ZM22.005 10.525C22.555 10.525 22.9952 10.9652 22.9952 11.5152V11.525C22.9952 12.075 22.555 12.5152 22.005 12.5152H20.9952C20.4452 12.5152 20.005 12.075 20.005 11.525V11.5152C20.005 10.9652 20.4452 10.525 20.9952 10.525H22.005Z" fill="#2F455C"/>
</g>
</svg>
