<svg width="24" height="24" viewBox="0 0 24 24" fill="none" xmlns="http://www.w3.org/2000/svg">
<g id="Image/timer">
<path id="Icon Shape" d="M12.0014 4.5C14.1214 4.5 16.0715 5.24047 17.6215 6.48047L18.3715 5.73047C18.7615 5.35047 19.3819 5.34047 19.7719 5.73047L19.7817 5.74023C20.1714 6.13016 20.1614 6.75969 19.7817 7.13965L19.0317 7.88965C20.2617 9.42965 21.0014 11.38 21.0014 13.5C21.0014 18.47 16.9814 22.5 12.0014 22.5C6.94146 22.4999 2.87142 18.3397 3.00142 13.2598C3.12154 8.4599 7.20154 4.50006 12.0014 4.5ZM12.0014 6.5C8.13146 6.50005 5.00142 9.63003 5.00142 13.5C5.00142 17.37 8.13146 20.4999 12.0014 20.5C15.8714 20.5 19.0014 17.37 19.0014 13.5C19.0014 9.63 15.8714 6.5 12.0014 6.5ZM12.0014 8.5C12.5514 8.5 13.0014 8.95 13.0014 9.5V13.5C13.0014 14.05 12.5514 14.5 12.0014 14.5C11.4515 14.4999 11.0014 14.05 11.0014 13.5V9.5C11.0014 8.95003 11.4515 8.50005 12.0014 8.5ZM14.0014 1.5C14.5514 1.5 15.0014 1.95 15.0014 2.5C15.0014 3.05 14.5514 3.5 14.0014 3.5H10.0014C9.45146 3.49995 9.00142 3.04997 9.00142 2.5C9.00142 1.95003 9.45146 1.50005 10.0014 1.5H14.0014Z" fill="#2F455C"/>
</g>
</svg>
