<svg width="24" height="24" viewBox="0 0 24 24" fill="none" xmlns="http://www.w3.org/2000/svg">
<g id="Image/timelapse">
<path id="Icon Shape" d="M12 2C17.52 2 22 6.48 22 12C22 17.52 17.52 22 12 22C6.48 22 2 17.52 2 12C2 6.48 6.48 2 12 2ZM12 4C7.58 4 4 7.58 4 12C4 16.42 7.58 20 12 20C16.42 20 20 16.42 20 12C20 7.58 16.42 4 12 4ZM12 6C13.54 6 15.0702 6.58977 16.2402 7.75977C18.5902 10.0998 18.59 13.9002 16.25 16.2402C13.9 18.5801 10.0997 18.5802 7.75977 16.2402L12 12V6Z" fill="#2F455C"/>
</g>
</svg>
