<svg width="24" height="24" viewBox="0 0 24 24" fill="none" xmlns="http://www.w3.org/2000/svg">
<g id="Image/picture-as_pdf">
<path id="Icon Shape" d="M3 6C3.55 6 4 6.45 4 7V19C4 19.55 4.45 20 5 20H17C17.55 20 18 20.45 18 21C18 21.55 17.55 22 17 22H4C2.9 22 2 21.1 2 20V7C2 6.45 2.45 6 3 6ZM20 2C21.1 2 22 2.9 22 4V16C22 17.1 21.1 18 20 18H8C6.9 18 6 17.1 6 16V4C6 2.9 6.9 2 8 2H20ZM8.5 7C7.95 7 7.5 7.45 7.5 8V12.25C7.5 12.66 7.84 13 8.25 13C8.66 13 9 12.66 9 12.25V11H10C10.83 11 11.5 10.33 11.5 9.5V8.5C11.5 7.67 10.83 7 10 7H8.5ZM13 7C12.72 7 12.5 7.22 12.5 7.5V12.5C12.5 12.78 12.72 13 13 13H15C15.83 13 16.5 12.33 16.5 11.5V8.5C16.5 7.67 15.83 7 15 7H13ZM18.5 7C17.95 7 17.5 7.45 17.5 8V12.25C17.5 12.66 17.84 13 18.25 13C18.66 13 19 12.66 19 12.25V11H19.75C20.16 11 20.5 10.66 20.5 10.25C20.5 9.84 20.16 9.5 19.75 9.5H19V8.5H19.75C20.16 8.5 20.5 8.16 20.5 7.75C20.5 7.34 20.16 7 19.75 7H18.5ZM15 8.5V11.5H14V8.5H15ZM10 9.5H9V8.5H10V9.5Z" fill="#2F455C"/>
</g>
</svg>
