<svg width="24" height="24" viewBox="0 0 24 24" fill="none" xmlns="http://www.w3.org/2000/svg">
<g id="Image/control-point_duplicate">
<path id="Icon Shape" d="M15 3C19.96 3 24 7.04 24 12C24 16.96 19.96 21 15 21C10.04 21 6 16.96 6 12C6 7.04 10.04 3 15 3ZM4.5 4.21973C5.16998 3.82985 6.00977 4.31012 6.00977 5.08008C6.00974 5.4499 5.80024 5.76995 5.48047 5.95996C3.40047 7.16996 2 9.42 2 12C2 14.58 3.40047 16.83 5.48047 18.04C5.80024 18.2301 6.00974 18.5501 6.00977 18.9199C6.00977 19.6899 5.16998 20.1701 4.5 19.7803C1.82 18.2203 0 15.32 0 12C4.35675e-08 8.68 1.82 5.77973 4.5 4.21973ZM15 5C11.14 5 8 8.14 8 12C8 15.86 11.14 19 15 19C18.86 19 22 15.86 22 12C22 8.14 18.86 5 15 5ZM15 8C15.55 8 16 8.45 16 9V11H18C18.55 11 19 11.45 19 12C19 12.55 18.55 13 18 13H16V15C16 15.55 15.55 16 15 16C14.45 16 14 15.55 14 15V13H12C11.45 13 11 12.55 11 12C11 11.45 11.45 11 12 11H14V9C14 8.45 14.45 8 15 8Z" fill="#2F455C"/>
</g>
</svg>
