<svg width="24" height="24" viewBox="0 0 24 24" fill="none" xmlns="http://www.w3.org/2000/svg">
<g id="Image/leak-add">
<path id="Icon Shape" d="M19.8899 10.05C20.4799 9.99004 20.9905 10.46 20.9905 11.05C20.9904 11.56 20.6096 11.9903 20.1096 12.0403C15.8398 12.4505 12.4395 15.8505 12.0295 20.1204C11.9793 20.6201 11.54 20.9903 11.0403 20.9905C10.4503 20.9905 9.99011 20.4701 10.05 19.8801C10.57 14.7002 14.6999 10.5701 19.8899 10.05ZM19.8498 14.0803C20.4498 13.9903 20.9905 14.4703 20.9905 15.0803C20.9903 15.5702 20.6298 15.9798 20.1399 16.0598C18.0599 16.4198 16.4198 18.06 16.0598 20.1399C15.9798 20.6298 15.5702 20.9903 15.0803 20.9905C14.4703 20.9905 13.9803 20.4498 14.0803 19.8498C14.5604 16.89 16.89 14.5604 19.8498 14.0803ZM20.9905 20.9905H17.9905C17.9905 19.3305 19.3305 17.9905 20.9905 17.9905V20.9905ZM12.9602 3.01C13.5601 3.01012 14.0204 3.54042 13.9504 4.12035C13.4303 9.30021 9.29951 13.4304 4.10961 13.9504C3.51993 14.0101 3.01025 13.5401 3.01 12.9504C3.01 12.4405 3.38995 12.0103 3.88988 11.9602C8.15984 11.5502 11.5599 8.15006 11.97 3.88012C12.02 3.38012 12.4602 3.01 12.9602 3.01ZM8.92992 3.01C9.52992 3.01 10.0199 3.55039 9.92992 4.16039C9.4498 7.12008 7.12007 9.4498 4.16039 9.92992C3.56039 10.0199 3.01976 9.53992 3.01976 8.92992C3.0198 8.42996 3.38038 8.02969 3.87035 7.93969C5.95016 7.57955 7.59045 5.93948 7.95043 3.85961C8.0306 3.36987 8.4401 3.01004 8.92992 3.01ZM6.01976 3.01C6.01976 4.67 4.67976 6.01 3.01976 6.01V3.01H6.01976Z" fill="#2F455C"/>
</g>
</svg>
