<svg width="24" height="24" viewBox="0 0 24 24" fill="none" xmlns="http://www.w3.org/2000/svg">
<g id="Image/flip">
<path id="Icon Shape" d="M12 1C12.55 1 13 1.45 13 2V22C13 22.55 12.55 23 12 23C11.45 23 11 22.55 11 22V2C11 1.45 11.45 1 12 1ZM8 3C8.55 3 9 3.45 9 4C9 4.55 8.55 5 8 5H6C5.45 5 5 5.45 5 6V18C5 18.55 5.45 19 6 19H8C8.55 19 9 19.45 9 20C9 20.55 8.55 21 8 21H5C3.9 21 3 20.1 3 19V5C3 3.9 3.9 3 5 3H8ZM17 21H15V19H17V21ZM21 19C21 20.1 20.1 21 19 21V19H21ZM21 17H19V15H21V17ZM21 13H19V11H21V13ZM21 9H19V7H21V9ZM17 5H15V3H17V5ZM19 3C20.1 3 21 3.9 21 5H19V3Z" fill="#2F455C"/>
</g>
</svg>
