<svg width="24" height="24" viewBox="0 0 24 24" fill="none" xmlns="http://www.w3.org/2000/svg">
<g id="Image/wb-sunny">
<path id="Icon Shape" d="M12.005 20.01C12.555 20.01 12.9952 20.4502 12.9952 21.0002V21.9602C12.9952 22.5101 12.555 22.9504 12.005 22.9504H11.9952C11.4453 22.9504 11.0051 22.5101 11.005 21.9602V21.0002C11.005 20.4502 11.4452 20.01 11.9952 20.01H12.005ZM17.9552 17.9504C18.3352 17.5704 18.9646 17.5604 19.3546 17.9504L19.7452 18.34C20.1351 18.73 20.1352 19.3602 19.7452 19.7502C19.3553 20.1402 18.7251 20.1401 18.3351 19.7502L17.9454 19.3596C17.5555 18.9696 17.5553 18.3504 17.9552 17.9504ZM5.33997 17.6477C5.60441 17.6477 5.85823 17.7525 6.04504 17.9397L6.05481 17.9504C6.43471 18.3304 6.44478 18.9598 6.05481 19.3498L5.66516 19.7404C5.27522 20.1302 4.64498 20.1302 4.255 19.7404C3.86501 19.3504 3.86526 18.7303 4.24524 18.3303L4.63489 17.9397C4.8217 17.7525 5.07552 17.6477 5.33997 17.6477ZM12.005 6.0002C15.315 6.0002 18.005 8.6902 18.005 12.0002C18.0049 15.3101 15.3149 18.0002 12.005 18.0002C8.69507 18.0002 6.00511 15.3101 6.005 12.0002C6.005 8.6902 8.695 6.0002 12.005 6.0002ZM3.01477 11.0002C3.56477 11.0002 4.005 11.4402 4.005 12.0002V12.01C4.005 12.56 3.565 13.0004 3.005 12.9904H1.99524C1.4453 12.9904 1.00511 12.5501 1.005 12.0002V11.9904C1.005 11.4404 1.44524 11.0002 1.99524 11.0002H3.01477ZM22.005 11.0002C22.555 11.0002 22.9952 11.4404 22.9952 11.9904V12.0002C22.9951 12.5501 22.5549 12.9904 22.005 12.9904H20.9952C20.4453 12.9904 20.0051 12.5501 20.005 12.0002V11.9904C20.005 11.4404 20.4452 11.0002 20.9952 11.0002H22.005ZM4.26477 4.2502C4.64477 3.8702 5.27516 3.8602 5.66516 4.2502L6.05481 4.63985C6.44481 5.01985 6.44481 5.66024 6.05481 6.04024L6.04504 6.05C5.65504 6.44 5.03465 6.44 4.64465 6.05L4.255 5.66035C3.86501 5.28035 3.86501 4.64996 4.255 4.25996L4.26477 4.2502ZM18.3448 4.2502C18.7348 3.8702 19.365 3.86998 19.755 4.25996C20.145 4.64996 20.145 5.27035 19.755 5.66035L19.3654 6.05C18.9854 6.44 18.355 6.44 17.965 6.05L17.9552 6.04024C17.5652 5.66024 17.5652 5.02985 17.9552 4.63985L18.3448 4.2502ZM12.0148 1.05C12.5648 1.05 13.005 1.49024 13.005 2.04024V3.00996C13.005 3.55996 12.565 4.00043 12.005 3.99043H11.9952C11.4453 3.99043 11.0051 3.55011 11.005 3.0002V2.04024C11.005 1.49024 11.445 1.05 12.005 1.05H12.0148Z" fill="#2F455C"/>
</g>
</svg>
