<svg width="24" height="24" viewBox="0 0 24 24" fill="none" xmlns="http://www.w3.org/2000/svg">
<g id="Image/texture">
<path id="Icon Shape" d="M21 12.1201L12.1201 21H9.29004L21 9.29004V12.1201ZM21 19C21 19.55 20.7802 20.0502 20.4102 20.4102C20.0502 20.7802 19.55 21 19 21H17L21 17V19ZM19.5098 3.08008C20.1998 3.26008 20.7397 3.80023 20.9297 4.49023L4.49023 20.9199C4.15023 20.8299 3.83984 20.6502 3.58984 20.4102C3.34984 20.1602 3.17008 19.8498 3.08008 19.5098L19.5098 3.08008ZM3 14.71V11.8799L11.8799 3H14.71L3 14.71ZM3 7V5C3 3.9 3.9 3 5 3H7L3 7Z" fill="#2F455C"/>
</g>
</svg>
