<svg width="24" height="24" viewBox="0 0 24 24" fill="none" xmlns="http://www.w3.org/2000/svg">
<g id="Image/tune">
<path id="Icon Shape" d="M12 15C12.55 15 13 15.45 13 16V17H20C20.55 17 21 17.45 21 18C21 18.55 20.55 19 20 19H13V20C13 20.55 12.55 21 12 21C11.45 21 11 20.55 11 20V16C11 15.45 11.45 15 12 15ZM9 19H4C3.45 19 3 18.55 3 18C3 17.45 3.45 17 4 17H9V19ZM8 9C8.55 9 9 9.45 9 10V14C9 14.55 8.55 15 8 15C7.45 15 7 14.55 7 14V13H4C3.45 13 3 12.55 3 12C3 11.45 3.45 11 4 11H7V10C7 9.45 7.45 9 8 9ZM20 11C20.55 11 21 11.45 21 12C21 12.55 20.55 13 20 13H11V11H20ZM16 3C16.55 3 17 3.45 17 4V5H20C20.55 5 21 5.45 21 6C21 6.55 20.55 7 20 7H17V8C17 8.55 16.55 9 16 9C15.45 9 15 8.55 15 8V4C15 3.45 15.45 3 16 3ZM13 7H4C3.45 7 3 6.55 3 6C3 5.45 3.45 5 4 5H13V7Z" fill="#2F455C"/>
</g>
</svg>
