<svg width="24" height="24" viewBox="0 0 24 24" fill="none" xmlns="http://www.w3.org/2000/svg">
<g id="Image/exposure-zero">
<path id="Icon Shape" d="M11.9946 5.5C12.6246 5.5 13.1849 5.60007 13.6948 5.79004C14.2048 5.98004 14.6454 6.28973 15.0054 6.71973C15.3654 7.14972 15.6452 7.71017 15.8452 8.41016C16.0452 9.11011 16.145 9.95008 16.145 10.96V13H16.1353C16.1353 13.9999 16.0354 14.8499 15.8355 15.5498C15.6355 16.2497 15.3553 16.82 15.0054 17.25C14.6454 17.69 14.2146 18.0002 13.7046 18.2002C13.1948 18.4 12.6351 18.5 12.0054 18.5C11.3854 18.5 10.825 18.4002 10.315 18.2002C9.80503 18.0002 9.36536 17.6899 9.00539 17.25C8.64539 16.81 8.3548 16.2398 8.1548 15.5498C7.95485 14.8498 7.855 13.9999 7.855 13V10.96C7.855 9.96007 7.95484 9.11011 8.1548 8.41016C8.3548 7.71016 8.63465 7.14972 8.99465 6.71973C9.35465 6.28973 9.79519 5.98004 10.3052 5.79004C10.8051 5.60011 11.3748 5.50004 11.9946 5.5ZM11.9946 7.19043C11.6749 7.19047 11.3851 7.25022 11.1353 7.37012C10.8853 7.49012 10.6646 7.6802 10.4946 7.9502C10.3248 8.2201 10.1852 8.57006 10.0952 9.00977C10.0052 9.44974 9.96536 9.98993 9.96535 10.6299V13.2998C9.96535 13.9398 10.015 14.4799 10.105 14.9199C10.195 15.3699 10.3354 15.7298 10.5054 16.0098C10.6754 16.2898 10.895 16.4901 11.145 16.6201C11.395 16.7501 11.6852 16.8096 12.0152 16.8096C12.3451 16.8096 12.6353 16.7501 12.8853 16.6201C13.1352 16.4901 13.3452 16.2897 13.5152 16.0098C13.6851 15.7298 13.8148 15.3698 13.9048 14.9199C13.9948 14.4699 14.0347 13.9298 14.0347 13.2998V10.6396H14.0249C14.0249 9.9998 13.975 9.45945 13.895 9.01953C13.805 8.57974 13.6746 8.22987 13.4946 7.95996C13.3247 7.69006 13.1049 7.49986 12.855 7.37988C12.605 7.2499 12.3146 7.19043 11.9946 7.19043Z" fill="#2F455C"/>
</g>
</svg>
