<svg width="24" height="24" viewBox="0 0 24 24" fill="none" xmlns="http://www.w3.org/2000/svg">
<g id="Image/blur-on">
<path id="Icon Shape" d="M10 20.5C10.28 20.5 10.5 20.72 10.5 21C10.5 21.28 10.28 21.5 10 21.5C9.72 21.5 9.5 21.28 9.5 21C9.5 20.72 9.72 20.5 10 20.5ZM14 20.5C14.28 20.5 14.5 20.72 14.5 21C14.5 21.28 14.28 21.5 14 21.5C13.72 21.5 13.5 21.28 13.5 21C13.5 20.72 13.72 20.5 14 20.5ZM6 17C6.55 17 7 17.45 7 18C7 18.55 6.55 19 6 19C5.45 19 5 18.55 5 18C5 17.45 5.45 17 6 17ZM10 17C10.55 17 11 17.45 11 18C11 18.55 10.55 19 10 19C9.45 19 9 18.55 9 18C9 17.45 9.45 17 10 17ZM14 17C14.55 17 15 17.45 15 18C15 18.55 14.55 19 14 19C13.45 19 13 18.55 13 18C13 17.45 13.45 17 14 17ZM18 17C18.55 17 19 17.45 19 18C19 18.55 18.55 19 18 19C17.45 19 17 18.55 17 18C17 17.45 17.45 17 18 17ZM10 12.5C10.83 12.5 11.5 13.17 11.5 14C11.5 14.83 10.83 15.5 10 15.5C9.17 15.5 8.5 14.83 8.5 14C8.5 13.17 9.17 12.5 10 12.5ZM14 12.5C14.83 12.5 15.5 13.17 15.5 14C15.5 14.83 14.83 15.5 14 15.5C13.17 15.5 12.5 14.83 12.5 14C12.5 13.17 13.17 12.5 14 12.5ZM6 13C6.55 13 7 13.45 7 14C7 14.55 6.55 15 6 15C5.45 15 5 14.55 5 14C5 13.45 5.45 13 6 13ZM18 13C18.55 13 19 13.45 19 14C19 14.55 18.55 15 18 15C17.45 15 17 14.55 17 14C17 13.45 17.45 13 18 13ZM3 13.5C3.28 13.5 3.5 13.72 3.5 14C3.5 14.28 3.28 14.5 3 14.5C2.72 14.5 2.5 14.28 2.5 14C2.5 13.72 2.72 13.5 3 13.5ZM21 13.5C21.28 13.5 21.5 13.72 21.5 14C21.5 14.28 21.28 14.5 21 14.5C20.72 14.5 20.5 14.28 20.5 14C20.5 13.72 20.72 13.5 21 13.5ZM10 8.5C10.83 8.5 11.5 9.17 11.5 10C11.5 10.83 10.83 11.5 10 11.5C9.17 11.5 8.5 10.83 8.5 10C8.5 9.17 9.17 8.5 10 8.5ZM14 8.5C14.83 8.5 15.5 9.17 15.5 10C15.5 10.83 14.83 11.5 14 11.5C13.17 11.5 12.5 10.83 12.5 10C12.5 9.17 13.17 8.5 14 8.5ZM6 9C6.55 9 7 9.45 7 10C7 10.55 6.55 11 6 11C5.45 11 5 10.55 5 10C5 9.45 5.45 9 6 9ZM18 9C18.55 9 19 9.45 19 10C19 10.55 18.55 11 18 11C17.45 11 17 10.55 17 10C17 9.45 17.45 9 18 9ZM3 9.5C3.28 9.5 3.5 9.72 3.5 10C3.5 10.28 3.28 10.5 3 10.5C2.72 10.5 2.5 10.28 2.5 10C2.5 9.72 2.72 9.5 3 9.5ZM21 9.5C21.28 9.5 21.5 9.72 21.5 10C21.5 10.28 21.28 10.5 21 10.5C20.72 10.5 20.5 10.28 20.5 10C20.5 9.72 20.72 9.5 21 9.5ZM6 5C6.55 5 7 5.45 7 6C7 6.55 6.55 7 6 7C5.45 7 5 6.55 5 6C5 5.45 5.45 5 6 5ZM10 5C10.55 5 11 5.45 11 6C11 6.55 10.55 7 10 7C9.45 7 9 6.55 9 6C9 5.45 9.45 5 10 5ZM14 5C14.55 5 15 5.45 15 6C15 6.55 14.55 7 14 7C13.45 7 13 6.55 13 6C13 5.45 13.45 5 14 5ZM18 5C18.55 5 19 5.45 19 6C19 6.55 18.55 7 18 7C17.45 7 17 6.55 17 6C17 5.45 17.45 5 18 5ZM10 2.5C10.28 2.5 10.5 2.72 10.5 3C10.5 3.28 10.28 3.5 10 3.5C9.72 3.5 9.5 3.28 9.5 3C9.5 2.72 9.72 2.5 10 2.5ZM14 2.5C14.28 2.5 14.5 2.72 14.5 3C14.5 3.28 14.28 3.5 14 3.5C13.72 3.5 13.5 3.28 13.5 3C13.5 2.72 13.72 2.5 14 2.5Z" fill="#2F455C"/>
</g>
</svg>
