<svg width="24" height="24" viewBox="0 0 24 24" fill="none" xmlns="http://www.w3.org/2000/svg">
<g id="Image/image-search">
<path id="Icon Shape" d="M8.01828 3.99881C8.56814 3.99881 9.01805 4.449 9.01828 4.99881C9.01828 5.54881 8.56828 5.99881 8.01828 5.99881H4.99875C4.44889 5.99881 3.99898 6.449 3.99875 6.99881V18.9988C3.99875 19.5488 4.44875 19.9988 4.99875 19.9988H16.9987C17.5487 19.9988 17.9987 19.5488 17.9987 18.9988V14.9988C17.999 14.449 18.4489 13.9988 18.9987 13.9988C19.5486 13.9988 19.9985 14.449 19.9987 14.9988V19.9988C19.9987 21.0988 19.0987 21.9988 17.9987 21.9988H3.99875C2.89875 21.9988 1.99875 21.0988 1.99875 19.9988V5.99881C1.99898 4.899 2.89889 3.99881 3.99875 3.99881H8.01828ZM12.5583 13.8094C12.7583 13.5494 13.1583 13.5494 13.3484 13.8191L15.8991 17.2088C16.1491 17.5288 15.9087 17.9988 15.4987 17.9988H6.51828C6.0986 17.9985 5.8688 17.5191 6.12863 17.1892L7.86887 14.9588C8.06894 14.7091 8.44923 14.6991 8.64914 14.949L10.2087 16.8289L12.5583 13.8094ZM10.9987 6.49881C10.999 3.83917 13.2986 1.7294 16.0183 2.02908C18.1483 2.25908 19.859 4.07928 19.989 6.22928C20.049 7.21926 19.7785 8.11945 19.2986 8.88943L21.7087 11.2888C22.0986 11.6788 22.0985 12.3188 21.7087 12.7088C21.3187 13.0988 20.6788 13.0988 20.2888 12.7088L17.8786 10.2996C17.1887 10.7395 16.3688 10.9988 15.489 10.9988C13.009 10.9988 10.9987 8.98881 10.9987 6.49881ZM15.4987 3.99881C14.1189 3.99881 12.999 5.11901 12.9987 6.49881C12.9987 7.87881 14.1187 8.99881 15.4987 8.99881C16.8787 8.99881 17.9987 7.87881 17.9987 6.49881C17.9985 5.11901 16.8786 3.99881 15.4987 3.99881Z" fill="#2F455C"/>
</g>
</svg>
