<svg width="24" height="24" viewBox="0 0 24 24" fill="none" xmlns="http://www.w3.org/2000/svg">
<g id="Image/blur-linear">
<path id="Icon Shape" d="M20 19C20.55 19 21 19.45 21 20C21 20.55 20.55 21 20 21H4C3.45 21 3 20.55 3 20C3 19.45 3.45 19 4 19H20ZM5 14.5C5.83 14.5 6.5 15.17 6.5 16C6.5 16.83 5.83 17.5 5 17.5C4.17 17.5 3.5 16.83 3.5 16C3.5 15.17 4.17 14.5 5 14.5ZM9 15C9.55 15 10 15.45 10 16C10 16.55 9.55 17 9 17C8.45 17 8 16.55 8 16C8 15.45 8.45 15 9 15ZM13 15C13.55 15 14 15.45 14 16C14 16.55 13.55 17 13 17C12.45 17 12 16.55 12 16C12 15.45 12.45 15 13 15ZM17 15.5C17.28 15.5 17.5 15.72 17.5 16C17.5 16.28 17.28 16.5 17 16.5C16.72 16.5 16.5 16.28 16.5 16C16.5 15.72 16.72 15.5 17 15.5ZM5 10.5C5.83 10.5 6.5 11.17 6.5 12C6.5 12.83 5.83 13.5 5 13.5C4.17 13.5 3.5 12.83 3.5 12C3.5 11.17 4.17 10.5 5 10.5ZM9 11C9.55 11 10 11.45 10 12C10 12.55 9.55 13 9 13C8.45 13 8 12.55 8 12C8 11.45 8.45 11 9 11ZM13 11C13.55 11 14 11.45 14 12C14 12.55 13.55 13 13 13C12.45 13 12 12.55 12 12C12 11.45 12.45 11 13 11ZM17 11.5C17.28 11.5 17.5 11.72 17.5 12C17.5 12.28 17.28 12.5 17 12.5C16.72 12.5 16.5 12.28 16.5 12C16.5 11.72 16.72 11.5 17 11.5ZM5 6.5C5.83 6.5 6.5 7.17 6.5 8C6.5 8.83 5.83 9.5 5 9.5C4.17 9.5 3.5 8.83 3.5 8C3.5 7.17 4.17 6.5 5 6.5ZM9 7C9.55 7 10 7.45 10 8C10 8.55 9.55 9 9 9C8.45 9 8 8.55 8 8C8 7.45 8.45 7 9 7ZM13 7C13.55 7 14 7.45 14 8C14 8.55 13.55 9 13 9C12.45 9 12 8.55 12 8C12 7.45 12.45 7 13 7ZM17 7.5C17.28 7.5 17.5 7.72 17.5 8C17.5 8.28 17.28 8.5 17 8.5C16.72 8.5 16.5 8.28 16.5 8C16.5 7.72 16.72 7.5 17 7.5ZM20 3C20.55 3 21 3.45 21 4C21 4.55 20.55 5 20 5H4C3.45 5 3 4.55 3 4C3 3.45 3.45 3 4 3H20Z" fill="#2F455C"/>
</g>
</svg>
