<svg width="24" height="24" viewBox="0 0 24 24" fill="none" xmlns="http://www.w3.org/2000/svg">
<g id="Image/hdr-off">
<path id="Icon Shape" d="M2.47894 2.47957C2.76892 2.18958 3.23971 2.18961 3.52972 2.47957L21.5297 20.4796C21.8097 20.7696 21.809 21.2396 21.519 21.5196C21.229 21.8096 20.7592 21.8096 20.4692 21.5196L13.3598 14.4102C13.2398 14.4402 13.1194 14.4503 12.9994 14.4503H10.4994C10.2195 14.4503 9.99959 14.2301 9.99944 13.9503V11.0499L8.49944 9.54988V13.7003C8.49929 14.1101 8.15932 14.4502 7.74944 14.4503C7.33953 14.4503 6.99959 14.1101 6.99944 13.7003V11.9503H4.99944V13.7003C4.99929 14.1101 4.65932 14.4502 4.24944 14.4503C3.83953 14.4503 3.49959 14.1101 3.49944 13.7003V9.20027C3.49944 8.79027 3.83944 8.45027 4.24944 8.45027C4.65941 8.45031 4.99944 8.7903 4.99944 9.20027V10.4503H6.99944V9.20027C6.99944 8.89027 7.1894 8.61984 7.4594 8.50984L2.47894 3.53035C2.18897 3.24035 2.18895 2.76956 2.47894 2.47957ZM19.9994 8.45027C20.8294 8.45031 21.4994 9.1203 21.4994 9.95027V10.9503C21.4993 11.5501 21.099 12.0497 20.5991 12.3497L21.0893 13.4903C21.279 13.9402 20.9494 14.4501 20.4496 14.4503C20.1797 14.4503 19.9298 14.29 19.8198 14.0401L19.0991 12.4503H17.9994V13.7003C17.9993 14.0101 17.8093 14.2797 17.5395 14.3897L16.4994 13.3497V9.45027C16.4994 8.90027 16.9494 8.45027 17.4994 8.45027H19.9994ZM13.4994 8.45027C14.3194 8.45031 14.9994 9.1303 14.9994 9.95027V11.8497L13.4994 10.3497V9.95027H13.0991L11.5991 8.45027H13.4994ZM17.9994 10.9503H19.9994V9.95027H17.9994V10.9503Z" fill="#2F455C"/>
</g>
</svg>
