<svg width="24" height="24" viewBox="0 0 24 24" fill="none" xmlns="http://www.w3.org/2000/svg">
<g id="Image/rotate-left">
<path id="Icon Shape" d="M7.83504 18.3786C8.13503 18.0686 8.61521 17.9987 8.9952 18.2087C9.3652 18.4087 9.74559 18.5682 10.1456 18.6882C10.5655 18.8082 10.8458 19.1987 10.8458 19.6286V19.6589C10.8455 20.2986 10.2253 20.7986 9.60555 20.6189C9.05568 20.4589 8.5256 20.2386 8.01571 19.9587C7.44573 19.6487 7.3558 18.8589 7.80575 18.4089L7.83504 18.3786ZM11.1456 3.63839C11.7756 3.00861 12.8555 3.45848 12.8556 4.34835V5.00851C16.8054 5.49857 19.8554 8.85837 19.8556 12.9382C19.8556 16.5782 17.425 19.6481 14.085 20.6081C13.4651 20.7879 12.8556 20.2981 12.8556 19.6482V19.6286C12.8556 19.1986 13.1253 18.8082 13.5352 18.6882C16.0352 17.9582 17.8556 15.6682 17.8556 12.9382C17.8554 9.96834 15.6954 7.50806 12.8556 7.02804V8.55831C12.8556 9.44831 11.7854 9.89804 11.1554 9.27804L9.02547 7.19894C8.62547 6.80894 8.62547 6.16827 9.02547 5.76827L11.1456 3.63839ZM5.16512 13.9382C5.59512 13.9382 5.98555 14.2189 6.10555 14.6589C6.22549 15.0586 6.38523 15.4483 6.58504 15.8181C6.79504 16.1981 6.71512 16.6585 6.41512 16.9685C5.95511 17.4283 5.15577 17.3382 4.84579 16.7683C4.56579 16.2583 4.34563 15.7282 4.18563 15.1882C3.99577 14.5583 4.49565 13.9382 5.14559 13.9382H5.16512ZM4.85555 9.10812C5.16567 8.53843 5.95521 8.45879 6.41512 8.91866C6.72506 9.2286 6.79511 9.69811 6.57528 10.0681C6.37537 10.4479 6.21577 10.8382 6.09579 11.238C5.97579 11.658 5.58536 11.9382 5.15536 11.9382H5.14559C4.49559 11.9382 3.99563 11.3182 4.18563 10.6882C4.35562 10.1383 4.5756 9.61802 4.85555 9.10812Z" fill="#2F455C"/>
</g>
</svg>
