<svg width="24" height="24" viewBox="0 0 24 24" fill="none" xmlns="http://www.w3.org/2000/svg">
<g id="Image/switch-video">
<path id="Icon Shape" d="M17 5C17.55 5 18 5.45 18 6V9.5L20.29 7.2002C20.92 6.5702 22 7.02016 22 7.91016V16.0801C21.9999 16.97 20.92 17.42 20.29 16.79L18 14.5V18C18 18.55 17.55 19 17 19H3C2.45 19 2 18.55 2 18V6C2 5.45 2.45 5 3 5H17ZM13 11H7V8.5L3.84961 11.6396C3.64976 11.8395 3.65001 12.1496 3.84961 12.3496L7 15.5V13H13V15.5L16.1504 12.3604C16.3502 12.1605 16.35 11.8504 16.1504 11.6504L13 8.5V11Z" fill="#2F455C"/>
</g>
</svg>
