<svg width="24" height="24" viewBox="0 0 24 24" fill="none" xmlns="http://www.w3.org/2000/svg">
<g id="Image/crop-original">
<path id="Icon Shape" d="M19 3C20.1 3 21 3.9 21 5V19C21 20.1 20.1 21 19 21H5C3.9 21 3 20.1 3 19V5C3 3.9 3.9 3 5 3H19ZM6 5C5.45 5 5 5.45 5 6V18C5 18.55 5.45 19 6 19H18C18.55 19 19 18.55 19 18V6C19 5.45 18.55 5 18 5H6ZM13.5596 12.8096C13.7595 12.5498 14.1595 12.5501 14.3496 12.8096L16.9004 16.2002C17.15 16.5302 16.9099 17 16.5 17H7.51953C7.10995 16.9996 6.87039 16.5203 7.12988 16.1904L8.87012 13.96C9.07013 13.71 9.45041 13.7002 9.65039 13.9502L11.21 15.8301L13.5596 12.8096Z" fill="#2F455C"/>
</g>
</svg>
