<svg width="24" height="24" viewBox="0 0 24 24" fill="none" xmlns="http://www.w3.org/2000/svg">
<g id="Image/portrait">
<path id="Icon Shape" d="M19 3C20.1 3 21 3.9 21 5V19C21 20.1 20.1 21 19 21H5C3.9 21 3 20.1 3 19V5C3 3.9 3.9 3 5 3H19ZM6 5C5.45 5 5 5.45 5 6V18C5 18.55 5.45 19 6 19H18C18.55 19 19 18.55 19 18V6C19 5.45 18.55 5 18 5H6ZM12 14C13.5 14 16.5 14.75 16.5 16.25V17H7.5V16.25C7.5 14.75 10.5 14 12 14ZM12 7.75C13.24 7.75 14.25 8.76 14.25 10C14.25 11.24 13.24 12.25 12 12.25C10.76 12.25 9.75 11.24 9.75 10C9.75 8.76 10.76 7.75 12 7.75Z" fill="#2F455C"/>
</g>
</svg>
