<svg width="24" height="24" viewBox="0 0 24 24" fill="none" xmlns="http://www.w3.org/2000/svg">
<g id="Image/gradient">
<path id="Icon Shape" d="M19 3C20.1 3 21 3.9 21 5V19C21 20.1 20.1 21 19 21H5C3.9 21 3 20.1 3 19V5C3 3.9 3.9 3 5 3H19ZM7 18H9V16H7V18ZM11 18H13V16H11V18ZM15 18H17V16H15V18ZM6 5C5.45 5 5 5.45 5 6V11H7V13H5V15H7V13H9V15H11V13H13V15H15V13H17V11H19V6C19 5.45 18.55 5 18 5H6ZM17 15H19V13H17V15ZM11 11V13H9V11H11ZM15 11V13H13V11H15ZM9 9V11H7V9H9ZM13 9V11H11V9H13ZM17 9V11H15V9H17Z" fill="#2F455C"/>
</g>
</svg>
