<svg width="24" height="24" viewBox="0 0 24 24" fill="none" xmlns="http://www.w3.org/2000/svg">
<g id="Image/panorama-vertical">
<path id="Icon Shape" d="M19.3651 2C19.765 2.00004 19.995 2.23035 19.995 2.57031C19.9949 2.66019 19.9753 2.77009 19.9354 2.87988C18.8454 5.81988 18.2948 8.91 18.2948 12C18.2948 15.09 18.8354 18.1801 19.9354 21.1201C19.9753 21.2299 19.9948 21.3299 20.0048 21.4297C20.0048 21.7597 19.7649 22 19.3749 22H4.62488C4.22495 22 3.995 21.7597 3.995 21.4297C3.99504 21.3397 4.01537 21.23 4.06531 21.1201C5.15531 18.1801 5.70496 15.09 5.70496 12C5.70496 8.91 5.15457 5.81988 4.05457 2.87988C4.01467 2.77009 3.99504 2.67014 3.995 2.57031C3.995 2.23035 4.22495 2.00004 4.62488 2H19.3651ZM6.53503 4C7.30503 6.6 7.69519 9.28 7.69519 12C7.69519 14.72 7.30503 17.4 6.53503 20H17.4452C16.6752 17.4 16.285 14.72 16.285 12C16.285 9.28 16.6752 6.6 17.4452 4H6.53503Z" fill="#2F455C"/>
</g>
</svg>
