<svg width="24" height="24" viewBox="0 0 24 24" fill="none" xmlns="http://www.w3.org/2000/svg">
<g id="Maps/store-mall_directory">
<path id="Icon Shape" d="M19.1797 7C19.6596 7 20.0701 7.33989 20.1602 7.7998L21 12V13C21 13.55 20.55 14 20 14V19C20 19.55 19.55 20 19 20C18.45 20 18 19.55 18 19V14H14V19C14 19.55 13.55 20 13 20H5C4.45 20 4 19.55 4 19V14C3.45 14 3 13.55 3 13V12L3.83984 7.7998C3.92991 7.33989 4.34037 7 4.82031 7H19.1797ZM6 18H12V14H6V18ZM19 4C19.55 4 20 4.45 20 5C20 5.55 19.55 6 19 6H5C4.45 6 4 5.55 4 5C4 4.45 4.45 4 5 4H19Z" fill="#2F455C"/>
</g>
</svg>
