<svg width="24" height="24" viewBox="0 0 24 24" fill="none" xmlns="http://www.w3.org/2000/svg">
<g id="Maps/layers-clear">
<path id="Icon Shape" d="M3.34127 2.34229C3.60577 2.3423 3.85953 2.44801 4.04635 2.63525L21.3667 19.9546C21.7565 20.3446 21.7561 20.9748 21.3462 21.3647C20.9562 21.7547 20.326 21.7547 19.936 21.3647L16.8667 18.2944L13.146 21.1851C12.416 21.7448 11.4059 21.745 10.686 21.1851L3.92623 15.9243C3.41648 15.5243 3.4164 14.7549 3.92623 14.355C4.28469 14.075 4.78749 14.075 5.14596 14.355L11.2963 19.1353C11.6562 19.4149 12.166 19.4148 12.5258 19.1353L15.4458 16.8647L14.0258 15.4448L13.1567 16.1245C12.4267 16.6845 11.4158 16.6845 10.6958 16.1245L3.936 10.8647C3.42618 10.4647 3.42614 9.68465 3.936 9.28467L6.1567 7.56494L2.63619 4.04443C2.24647 3.65451 2.24651 3.02521 2.63619 2.63525C2.82302 2.448 3.07675 2.34229 3.34127 2.34229ZM18.686 14.3452C19.0445 14.0652 19.5482 14.0652 19.9067 14.3452L19.9165 14.355C20.3761 14.715 20.4063 15.3747 20.0366 15.7847L18.6362 14.3853L18.686 14.3452ZM10.6958 4.0249C11.4258 3.4649 12.4367 3.4649 13.1567 4.0249L19.9165 9.28467C20.4263 9.68465 20.4263 10.4647 19.9165 10.8647L17.2163 12.9751L9.33639 5.09521L10.6958 4.0249Z" fill="#2F455C"/>
</g>
</svg>
