<svg width="24" height="24" viewBox="0 0 24 24" fill="none" xmlns="http://www.w3.org/2000/svg">
<g id="Maps/tram">
<path id="Icon Shape" d="M17 3.5H13.75L13 5C16.13 5.09 19 5.73 19 8.5V17C19 18.4999 17.8901 19.7299 16.4502 19.96L17.6396 21.1504C17.9596 21.4604 17.74 22 17.29 22H16.2002C16.0702 22 15.9396 21.9396 15.8496 21.8496L14 20H10L8.15039 21.8496C8.06039 21.9496 7.9298 22 7.7998 22H6.70996C6.25999 22 6.04036 21.4596 6.36035 21.1396L7.5498 19.9502C6.10988 19.7301 5 18.4999 5 17V8.5C5 5.73 7.87 5.09 11 5L11.75 3.5H7V2H17V3.5ZM12 15.5C11.17 15.5 10.5 16.17 10.5 17C10.5 17.83 11.17 18.5 12 18.5C12.83 18.5 13.5 17.83 13.5 17C13.5 16.17 12.83 15.5 12 15.5ZM7 9V14H17V9H7Z" fill="#2F455C"/>
</g>
</svg>
