<svg width="24" height="24" viewBox="0 0 24 24" fill="none" xmlns="http://www.w3.org/2000/svg">
<g id="Maps/directions-railway">
<path id="Icon Shape" d="M12 2C16.42 2 20 2.5 20 6V16.5C20 18.43 18.43 20 16.5 20L17.6396 21.1504C17.9596 21.4604 17.74 22 17.29 22H6.70996C6.25999 22 6.04038 21.4604 6.36035 21.1504L7.5 20C5.57 20 4 18.43 4 16.5V6C4 2.5 7.58 2 12 2ZM12 14C10.9 14 10 14.9 10 16C10 17.1 10.9 18 12 18C13.1 18 14 17.1 14 16C14 14.9 13.1 14 12 14ZM6 6V11H18V6H6Z" fill="#2F455C"/>
</g>
</svg>
