<svg width="24" height="24" viewBox="0 0 24 24" fill="none" xmlns="http://www.w3.org/2000/svg">
<g id="Maps/local-convenience_store">
<path id="Icon Shape" d="M18 4C18.55 4 19 4.45 19 5V7H21C21.55 7 22 7.45 22 8V19C22 19.55 21.55 20 21 20H15C14.45 20 14 19.55 14 19V16H10V19C10 19.55 9.55 20 9 20H3C2.45 20 2 19.55 2 19V8C2 7.45 2.45 7 3 7H5V5C5 4.45 5.45 4 6 4H18ZM8.5 7C8.22 7 8 7.22 8 7.5C8 7.78 8.22 8 8.5 8H10V9H9C8.45 9 8 9.45 8 10V11C8 11.55 8.45 12 9 12H10.5C10.78 12 11 11.78 11 11.5C11 11.22 10.78 11 10.5 11H9V10H10C10.55 10 11 9.55 11 9V8C11 7.45 10.55 7 10 7H8.5ZM15.5 7C15.22 7 15 7.22 15 7.5V9H14V7.5C14 7.22 13.78 7 13.5 7C13.22 7 13 7.22 13 7.5V9C13 9.55 13.45 10 14 10H15V11.5C15 11.78 15.22 12 15.5 12C15.78 12 16 11.78 16 11.5V7.5C16 7.22 15.78 7 15.5 7Z" fill="#2F455C"/>
</g>
</svg>
