<svg width="24" height="24" viewBox="0 0 24 24" fill="none" xmlns="http://www.w3.org/2000/svg">
<g id="Maps/transfer-within_a_station">
<path id="Icon Shape" d="M8 5.75C8.7 5.75 9.3502 6.1002 9.7002 6.7002L10.6504 8.2998C11.4104 9.52979 12.6702 10.4297 14.1602 10.6797C14.6401 10.7597 15 11.1702 15 11.6602C14.9999 12.27 14.4602 12.7599 13.8604 12.6602C12.1304 12.3802 10.6198 11.4703 9.5498 10.1504L8.9502 13.1504L10.4102 14.6201C10.7901 14.9901 11 15.5003 11 16.0303V21.75C11 22.3 10.55 22.75 10 22.75C9.45 22.75 9 22.3 9 21.75V16.75L6.84961 14.75L5.28027 21.96C5.18027 22.42 4.7698 22.75 4.2998 22.75H4.20996C3.57998 22.75 3.11047 22.1796 3.23047 21.5596L5.75 8.65039L4 9.40039V11.75C4 12.3 3.55 12.75 3 12.75C2.45 12.75 2 12.3 2 11.75V9.38965C2.00014 8.57979 2.49034 7.84999 3.24023 7.54004L7.25 5.90039C7.5 5.80039 7.75 5.75 8 5.75ZM19.5195 18.7305C19.5195 18.3605 19.95 18.1804 20.21 18.4404L21.7197 19.96C21.8797 20.12 21.8797 20.38 21.7197 20.54L20.21 22.0596C19.96 22.3096 19.5195 22.1295 19.5195 21.7695V21H14V19.5H19.5195V18.7305ZM15.79 14.1904C16.04 13.9404 16.4805 14.1205 16.4805 14.4805V15.25H22V16.75H16.4805V17.5098C16.4805 17.8798 16.05 18.0598 15.79 17.7998L14.2803 16.2803C14.1203 16.1203 14.1203 15.87 14.2803 15.71L15.79 14.1904ZM9.5 1.25C10.6 1.25 11.5 2.15 11.5 3.25C11.5 4.35 10.6 5.25 9.5 5.25C8.4 5.25 7.5 4.35 7.5 3.25C7.5 2.15 8.4 1.25 9.5 1.25Z" fill="#2F455C"/>
</g>
</svg>
