<svg width="24" height="24" viewBox="0 0 24 24" fill="none" xmlns="http://www.w3.org/2000/svg">
<g id="Maps/edit-attributes">
<path id="Icon Shape" d="M17.6299 7C20.0399 7 22 9.24 22 12C22 14.76 20.0399 17 17.6299 17H6.37012C3.96012 17 2 14.76 2 12C2 9.24 3.96012 7 6.37012 7H17.6299ZM11.1299 9.88965C10.9299 9.68993 10.6198 9.68986 10.4199 9.88965L7.25977 13.0498L5.75 11.54C5.55 11.34 5.24004 11.34 5.04004 11.54C4.84004 11.74 4.84004 12.05 5.04004 12.25L6.90039 14.1104C6.9904 14.2101 7.13016 14.2598 7.25 14.2598C7.36985 14.2598 7.49966 14.2101 7.59961 14.1104L11.1104 10.5996C11.3 10.3996 11.3298 10.0895 11.1299 9.88965Z" fill="#2F455C"/>
</g>
</svg>
