<svg width="24" height="24" viewBox="0 0 24 24" fill="none" xmlns="http://www.w3.org/2000/svg">
<g id="Maps/map-add">
<path id="Icon Shape" d="M8.35461 3.21973C8.77461 3.07973 9.2354 3.08047 9.6554 3.23047L14.6554 4.98047C14.8852 5.06059 15.125 5.26158 15.3448 5.18164C15.3448 5.63335 15.7115 6 16.1632 6H18.0001V8C18.0001 8.55228 18.4478 9 19.0001 9H21.0001L20.9952 17.54C20.9952 18.4 20.4449 19.1704 19.6349 19.4404L15.6447 20.7803C15.2248 20.9201 14.7647 20.9195 14.3448 20.7695L9.34485 19.0195C9.125 18.9397 8.87524 18.9404 8.6554 19.0303L5.72473 20.1699C4.41479 20.6797 3.005 19.7195 3.005 18.3096V6.45996C3.00502 5.59997 3.55537 4.83957 4.36536 4.55957L8.35461 3.21973ZM9.005 16.7803L15.005 18.8896V7.21973L9.005 5.11035V16.7803ZM20.0001 0C20.5501 6.65778e-05 21.0001 0.450041 21.0001 1V3H23.0001C23.5501 3.00007 24.0001 3.45004 24.0001 4C24.0001 4.54996 23.5501 4.99993 23.0001 5H21.0001V7C21.0001 7.54996 20.5501 7.99993 20.0001 8C19.4501 8 19.0001 7.55 19.0001 7V5H17.0001C16.4501 5 16.0001 4.55 16.0001 4C16.0001 3.45 16.4501 3 17.0001 3H19.0001V1C19.0001 0.45 19.4501 0 20.0001 0Z" fill="#2F455C"/>
</g>
</svg>
