<svg width="24" height="24" viewBox="0 0 24 24" fill="none" xmlns="http://www.w3.org/2000/svg">
<g id="Maps/directions-bus">
<path id="Icon Shape" d="M12 2.5C16.42 2.5 20 3 20 6.5V16.5C20 17.3799 19.6099 18.1697 19 18.7197V20C19 20.83 18.32 21.5 17.5 21.5C16.67 21.5 16 20.82 16 20V19.5H8V20C8 20.83 7.33 21.5 6.5 21.5C5.67 21.5 5 20.83 5 20V18.7197C4.39008 18.1697 4 17.3799 4 16.5V6.5C4 3 7.58 2.5 12 2.5ZM7.5 14.5C6.67 14.5 6 15.17 6 16C6 16.83 6.67 17.5 7.5 17.5C8.33 17.5 9 16.83 9 16C9 15.17 8.33 14.5 7.5 14.5ZM16.5 14.5C15.67 14.5 15 15.17 15 16C15 16.83 15.67 17.5 16.5 17.5C17.33 17.5 18 16.83 18 16C18 15.17 17.33 14.5 16.5 14.5ZM6 6.5V11.5H18V6.5H6Z" fill="#2F455C"/>
</g>
</svg>
