<svg width="24" height="24" viewBox="0 0 24 24" fill="none" xmlns="http://www.w3.org/2000/svg">
<g id="Maps/directions-walk">
<path id="Icon Shape" d="M10.5498 5.91016C11.5198 5.50016 12.6402 5.86 13.2002 6.75L14.2002 8.34961C14.8702 9.52961 16.1304 10.4297 17.6504 10.6797C18.1402 10.7598 18.5 11.1703 18.5 11.6602C18.4999 12.27 17.9602 12.7499 17.3604 12.6602C15.6204 12.3802 14.07 11.49 13 10.25L12.4004 13.25L13.8799 14.6602C14.2799 15.0402 14.5 15.5604 14.5 16.1104V21.75C14.5 22.3 14.05 22.75 13.5 22.75C12.95 22.75 12.5 22.3 12.5 21.75V16.75L10.4004 14.75L8.78027 21.9697C8.67027 22.4297 8.2698 22.75 7.7998 22.75H7.71973C7.08986 22.7498 6.61025 22.1695 6.74023 21.5596L9.2998 8.65039L7.5 9.34961V11.75C7.5 12.3 7.05 12.75 6.5 12.75C5.95 12.75 5.5 12.3 5.5 11.75V9.37988C5.50005 8.57005 5.97995 7.85033 6.71973 7.53027L10.5498 5.91016ZM13 1.25C14.1 1.25 15 2.15 15 3.25C15 4.35 14.1 5.25 13 5.25C11.9 5.25 11 4.35 11 3.25C11 2.15 11.9 1.25 13 1.25Z" fill="#2F455C"/>
</g>
</svg>
