<svg width="24" height="24" viewBox="0 0 24 24" fill="none" xmlns="http://www.w3.org/2000/svg">
<g id="Maps/local-taxi">
<path id="Icon Shape" d="M14 3C14.55 3 15 3.45 15 4V5H17.5C18.1599 5 18.7199 5.41989 18.9199 6.00977L20.8896 11.6797C20.9596 11.8896 21 12.1199 21 12.3398V19.5C21 20.33 20.32 21 19.5 21C18.67 21 18 20.32 18 19.5V19H6V19.5C6 20.33 5.33 21 4.5 21C3.67 21 3 20.33 3 19.5V12.3398C3.00002 12.1099 3.04037 11.8896 3.11035 11.6797L5.08008 6.00977C5.29014 5.41989 5.84009 5 6.5 5H9V4C9 3.45 9.45 3 10 3H14ZM6.5 13C5.67 13 5 13.67 5 14.5C5 15.33 5.67 16 6.5 16C7.33 16 8 15.33 8 14.5C8 13.67 7.33 13 6.5 13ZM17.5 13C16.67 13 16 13.67 16 14.5C16 15.33 16.67 16 17.5 16C18.33 16 19 15.33 19 14.5C19 13.67 18.33 13 17.5 13ZM6.5 6.5L5 11H19L17.5 6.5H6.5Z" fill="#2F455C"/>
</g>
</svg>
