<svg width="24" height="24" viewBox="0 0 24 24" fill="none" xmlns="http://www.w3.org/2000/svg">
<g id="Maps/subway">
<path id="Icon Shape" d="M12 2C13.8599 2 15.9999 2.08989 17.7998 2.7998C20.4698 3.8398 22 6.05035 22 8.86035V22H2V8.86035C2 6.05035 3.5302 3.8398 6.2002 2.7998C8.00015 2.08989 10.1401 2 12 2ZM12 6C9 6 6 6.37 6 9V15.5C6 17.04 7.16039 18.29 8.65039 18.46L7.5 19.6201V20H9.16992L10.6699 18.5H13.3301L14.8301 20H16.5V19.6201L15.3496 18.46C16.8396 18.29 18 17.04 18 15.5V9C18 6.37 15 6 12 6ZM8.5 15C9.05228 15 9.5 15.4477 9.5 16C9.5 16.5523 9.05228 17 8.5 17C7.94772 17 7.5 16.5523 7.5 16C7.5 15.4477 7.94772 15 8.5 15ZM15.5 15C16.0523 15 16.5 15.4477 16.5 16C16.5 16.5523 16.0523 17 15.5 17C14.9477 17 14.5 16.5523 14.5 16C14.5 15.4477 14.9477 15 15.5 15ZM17.0098 9V14H7.00977V9H17.0098Z" fill="#2F455C"/>
</g>
</svg>
