<svg width="24" height="24" viewBox="0 0 24 24" fill="none" xmlns="http://www.w3.org/2000/svg">
<g id="Maps/add-location">
<path id="Icon Shape" d="M12 2.26514C15.86 2.26514 19 5.40514 19 9.26514C19 13.4351 14.5795 19.1855 12.7695 21.3755C12.3695 21.8549 11.6402 21.855 11.2402 21.3755C9.42023 19.1855 5 13.4351 5 9.26514C5 5.40514 8.14 2.26514 12 2.26514ZM12 5.26514C11.45 5.26514 11 5.71514 11 6.26514V8.26514H9C8.45 8.26514 8 8.71514 8 9.26514C8 9.81514 8.45 10.2651 9 10.2651H11V12.2651C11 12.8151 11.45 13.2651 12 13.2651C12.55 13.2651 13 12.8151 13 12.2651V10.2651H15C15.55 10.2651 16 9.81514 16 9.26514C16 8.71514 15.55 8.26514 15 8.26514H13V6.26514C13 5.71514 12.55 5.26514 12 5.26514Z" fill="#2F455C"/>
</g>
</svg>
