<svg width="24" height="24" viewBox="0 0 24 24" fill="none" xmlns="http://www.w3.org/2000/svg">
<g id="Maps/directions">
<path id="Icon Shape" d="M12 2.00244C12.2645 2.00245 12.5183 2.10817 12.7051 2.29541L21.7051 11.2954C22.0947 11.6953 22.0948 12.3247 21.7051 12.7046L12.7051 21.7046C12.3151 22.0946 11.685 22.0946 11.295 21.7046L2.29497 12.7046C1.90524 12.3147 1.90529 11.6854 2.29497 11.2954L11.295 2.29541C11.4818 2.10816 11.7355 2.00244 12 2.00244ZM13.9952 10.0054H8.99516C8.44516 10.0054 7.99516 10.4554 7.99516 11.0054V14.0054C7.99541 14.5552 8.44531 15.0054 8.99516 15.0054C9.54494 15.0053 9.99492 14.5551 9.99516 14.0054V12.0054H13.9952V14.5054L17.1446 11.3647C17.3446 11.1647 17.3446 10.8548 17.1446 10.6548L13.9952 7.50537V10.0054Z" fill="#2F455C"/>
</g>
</svg>
