<svg width="24" height="24" viewBox="0 0 24 24" fill="none" xmlns="http://www.w3.org/2000/svg">
<g id="Maps/directions-bike">
<path id="Icon Shape" d="M5 12.25C7.8 12.25 10 14.45 10 17.25C10 20.05 7.8 22.25 5 22.25C2.2 22.25 0 20.05 0 17.25C0 14.45 2.2 12.25 5 12.25ZM19 12.25C21.8 12.25 24 14.45 24 17.25C24 20.05 21.8 22.25 19 22.25C16.2 22.25 14 20.05 14 17.25C14 14.45 16.2 12.25 19 12.25ZM5 13.75C3.1 13.75 1.5 15.35 1.5 17.25C1.5 19.15 3.1 20.75 5 20.75C6.9 20.75 8.5 19.15 8.5 17.25C8.5 15.35 6.9 13.75 5 13.75ZM19 13.75C17.1 13.75 15.5 15.35 15.5 17.25C15.5 19.15 17.1 20.75 19 20.75C20.9 20.75 22.5 19.15 22.5 17.25C22.5 15.35 20.9 13.75 19 13.75ZM12 5.25C12.5998 5.25 13.0998 5.44984 13.5996 5.84961L15.5 7.75C16.23 8.46999 17.14 8.99968 18.25 9.17969C18.73 9.25968 19.0996 9.67996 19.0996 10.1699C19.0996 10.7799 18.56 11.2599 17.96 11.1699C16.3801 10.9299 15.06 10.2103 14 9.15039L13.2002 8.34961L10.7998 10.75L12.4502 12.4697C12.8001 12.8396 12.9999 13.3298 13 13.8496V18.25C13 18.8 12.55 19.25 12 19.25C11.45 19.25 11 18.8 11 18.25V14.25L7.7998 11.4502C7.39983 11.1502 7.2002 10.6498 7.2002 10.0498C7.20025 9.54999 7.40005 9.05029 7.7998 8.65039L10.5996 5.84961C10.8996 5.44965 11.4 5.25 12 5.25ZM15.5 1.75C16.6 1.75 17.5 2.65 17.5 3.75C17.5 4.85 16.6 5.75 15.5 5.75C14.4 5.75 13.5 4.85 13.5 3.75C13.5 2.65 14.4 1.75 15.5 1.75Z" fill="#2F455C"/>
</g>
</svg>
