<svg width="24" height="24" viewBox="0 0 24 24" fill="none" xmlns="http://www.w3.org/2000/svg">
<g id="Maps/zoom-out_map">
<path id="Icon Shape" d="M7.45996 15.1201C7.84996 14.7301 8.48988 14.7301 8.87988 15.1201C9.26988 15.5101 9.26988 16.15 8.87988 16.54L6.7002 18.7002L8.15039 20.1504C8.45981 20.4604 8.23982 21 7.79004 21H3.5C3.22 21 3 20.78 3 20.5V16.21C3.00003 15.7602 3.53956 15.5402 3.84961 15.8496L5.2998 17.2998L7.45996 15.1201ZM15.1201 15.1201C15.5101 14.7301 16.15 14.7301 16.54 15.1201L18.7002 17.2998L20.1504 15.8496C20.4604 15.5402 21 15.7602 21 16.21V20.5C21 20.78 20.78 21 20.5 21H16.21C15.7602 21 15.5402 20.4604 15.8496 20.1504L17.2998 18.7002L15.1201 16.54C14.7301 16.15 14.7301 15.5101 15.1201 15.1201ZM7.79004 3C8.23982 3.00003 8.45981 3.53956 8.15039 3.84961L6.7002 5.2998L8.87988 7.45996C9.26988 7.84996 9.26988 8.48988 8.87988 8.87988C8.48988 9.26988 7.84996 9.26988 7.45996 8.87988L5.2998 6.7002L3.84961 8.15039C3.53956 8.45981 3.00003 8.23982 3 7.79004V3.5C3 3.22 3.22 3 3.5 3H7.79004ZM20.5 3C20.78 3 21 3.22 21 3.5V7.79004C21 8.23982 20.4604 8.45981 20.1504 8.15039L18.7002 6.7002L16.54 8.87988C16.15 9.26988 15.5101 9.26988 15.1201 8.87988C14.7301 8.48988 14.7301 7.84996 15.1201 7.45996L17.2998 5.2998L15.8496 3.84961C15.5402 3.53956 15.7602 3.00003 16.21 3H20.5Z" fill="#2F455C"/>
</g>
</svg>
