<svg width="24" height="24" viewBox="0 0 24 24" fill="none" xmlns="http://www.w3.org/2000/svg">
<g id="Maps/local-pharmacy">
<path id="Icon Shape" d="M16.7195 3.00342C16.9595 2.35344 17.6799 2.01346 18.3299 2.25342C18.9798 2.48339 19.3197 3.20309 19.0799 3.85303L18.3699 5.82373H18.9002C20.2601 5.82387 21.2198 7.16368 20.7898 8.45361L19.0096 13.8237L20.7898 19.1929C21.2198 20.4827 20.2502 21.8234 18.8904 21.8237H5.11016C3.75016 21.8237 2.77953 20.4829 3.21953 19.1929L5.00957 13.8237L3.20977 8.45361C2.77977 7.16361 3.74016 5.82373 5.11016 5.82373H15.7L16.7195 3.00342ZM12.0096 9.82373C11.4598 9.82395 11.0096 10.2739 11.0096 10.8237V12.8237H9.00957C8.45976 12.824 8.00957 13.2739 8.00957 13.8237C8.00979 14.3734 8.45989 14.8235 9.00957 14.8237H11.0096V16.8237C11.0098 17.3734 11.4599 17.8235 12.0096 17.8237C12.5594 17.8237 13.0094 17.3736 13.0096 16.8237V14.8237H15.0096C15.5594 14.8237 16.0094 14.3736 16.0096 13.8237C16.0096 13.2737 15.5596 12.8237 15.0096 12.8237H13.0096V10.8237C13.0096 10.2737 12.5596 9.82373 12.0096 9.82373Z" fill="#2F455C"/>
</g>
</svg>
