<svg width="24" height="24" viewBox="0 0 24 24" fill="none" xmlns="http://www.w3.org/2000/svg">
<g id="Maps/local-bar">
<path id="Icon Shape" d="M19.5498 3C20.3498 3 21 3.6502 21 4.4502C21 4.80013 20.8698 5.1502 20.6299 5.41016L13 14V19H17C17.55 19 18 19.45 18 20C18 20.55 17.55 21 17 21H7C6.45 21 6 20.55 6 20C6 19.45 6.45 19 7 19H11V14L3.37012 5.41016C3.13016 5.1502 3.00005 4.80013 3 4.4502C3 3.6502 3.6502 3 4.4502 3H19.5498ZM5.66016 5L7.42969 7H16.5703L18.3496 5H5.66016Z" fill="#2F455C"/>
</g>
</svg>
