<svg width="24" height="24" viewBox="0 0 24 24" fill="none" xmlns="http://www.w3.org/2000/svg">
<g id="Maps/local-mall">
<path id="Icon Shape" d="M12 1.5C14.76 1.5 17 3.74 17 6.5H19C20.1 6.5 21 7.4 21 8.5V20.5C21 21.6 20.1 22.5 19 22.5H5C3.9 22.5 3 21.6 3 20.5V8.5C3 7.4 3.9 6.5 5 6.5H7C7 3.74 9.24 1.5 12 1.5ZM15.8701 8.5C15.4001 8.5 15.0197 8.83985 14.8896 9.2998C14.5396 10.5698 13.38 11.5 12 11.5C10.62 11.5 9.46035 10.5698 9.11035 9.2998C8.98033 8.83985 8.59985 8.5 8.12988 8.5C7.47994 8.50007 6.99017 9.12004 7.16016 9.75C7.71017 11.91 9.67001 13.5 12 13.5C14.33 13.5 16.2898 11.91 16.8398 9.75C16.9998 9.12004 16.5201 8.50007 15.8701 8.5ZM12 3.5C10.34 3.5 9 4.84 9 6.5H15C15 4.84 13.66 3.5 12 3.5Z" fill="#2F455C"/>
</g>
</svg>
