<svg width="24" height="24" viewBox="0 0 24 24" fill="none" xmlns="http://www.w3.org/2000/svg">
<g id="Maps/trafficon/maps/24px">
<path id="Icon Shape" d="M15.9997 3C16.5497 3 16.9997 3.45 16.9997 4V5H19.4597C19.7696 5 19.9996 5.27989 19.9597 5.58984C19.7197 7.17984 18.5397 8.46035 16.9997 8.86035V10H19.4597C19.7696 10 19.9996 10.2799 19.9597 10.5898C19.7197 12.1798 18.5397 13.4604 16.9997 13.8604V15H19.4597C19.7696 15 19.9996 15.2799 19.9597 15.5898C19.7197 17.1798 18.5397 18.4604 16.9997 18.8604V20C16.9997 20.55 16.5497 21 15.9997 21H7.99971C7.44984 20.9998 6.99971 20.5499 6.99971 20V18.8604C5.4598 18.4603 4.27974 17.1798 4.03975 15.5898C3.99988 15.28 4.22994 15.0001 4.53975 15H6.99971V13.8604C5.4598 13.4603 4.27974 12.1798 4.03975 10.5898C3.99988 10.28 4.22994 10.0001 4.53975 10H6.99971V8.86035C5.4598 8.4603 4.27974 7.17978 4.03975 5.58984C3.99988 5.28 4.22994 5.00015 4.53975 5H6.99971V4C6.99971 3.4501 7.44984 3.00016 7.99971 3H15.9997ZM11.9997 15C10.8898 15.0002 9.99971 15.9001 9.99971 17C9.99971 18.0999 10.8898 18.9998 11.9997 19C13.1097 19 13.9997 18.1 13.9997 17C13.9997 15.9 13.0997 15 11.9997 15ZM11.9997 10C10.8898 10.0002 9.99971 10.9001 9.99971 12C9.99971 13.0999 10.8898 13.9998 11.9997 14C13.1097 14 13.9997 13.1 13.9997 12C13.9997 10.9 13.0997 10 11.9997 10ZM11.9997 5C10.8898 5.00015 9.99971 5.8901 9.99971 7C9.99971 8.09991 10.8898 8.99985 11.9997 9C13.1097 9 13.9997 8.1 13.9997 7C13.9997 5.89 13.0997 5 11.9997 5Z" fill="#2F455C"/>
</g>
</svg>
