<svg width="24" height="24" viewBox="0 0 24 24" fill="none" xmlns="http://www.w3.org/2000/svg">
<g id="Maps/local-car_wash">
<path id="Icon Shape" d="M17.5 6.95801C18.16 6.95801 18.7199 7.37777 18.9199 7.96777L20.8896 13.6377C20.9596 13.8477 21 14.0779 21 14.2979V21.458C20.9998 22.2878 20.3199 22.958 19.5 22.958C18.6701 22.958 18.0002 22.2779 18 21.458V20.958H6V21.458C5.99981 22.2878 5.32988 22.958 4.5 22.958C3.67012 22.958 3.00019 22.2878 3 21.458V14.2979C3 14.0679 3.04035 13.8477 3.11035 13.6377L5.08008 7.96777C5.29008 7.37777 5.84 6.95801 6.5 6.95801H17.5ZM6.5 14.958C5.67 14.958 5 15.628 5 16.458C5.00019 17.2878 5.67012 17.958 6.5 17.958C7.32988 17.958 7.99981 17.2878 8 16.458C8 15.628 7.33 14.958 6.5 14.958ZM17.5 14.958C16.67 14.958 16 15.628 16 16.458C16.0002 17.2878 16.6701 17.958 17.5 17.958C18.3299 17.958 18.9998 17.2878 19 16.458C19 15.628 18.33 14.958 17.5 14.958ZM7.21973 8.45801C6.78984 8.45813 6.4095 8.73778 6.26953 9.1377L5 12.958H19L17.7305 9.1377C17.5905 8.73778 17.2102 8.45813 16.7803 8.45801H7.21973ZM6.59961 1.2373C6.79952 0.977467 7.18957 0.977706 7.38965 1.2373C7.83965 1.8173 8.5 2.79801 8.5 3.45801C8.49981 4.28785 7.82988 4.95801 7 4.95801C6.17012 4.95801 5.50019 4.28785 5.5 3.45801C5.5 2.79801 6.15961 1.8173 6.59961 1.2373ZM11.5996 1.2373C11.7995 0.977467 12.1896 0.977706 12.3896 1.2373C12.8396 1.8173 13.5 2.79801 13.5 3.45801C13.4998 4.28785 12.8299 4.95801 12 4.95801C11.1701 4.95801 10.5002 4.28785 10.5 3.45801C10.5 2.79801 11.1596 1.8173 11.5996 1.2373ZM16.5996 1.2373C16.7995 0.977467 17.1896 0.977706 17.3896 1.2373C17.8396 1.8173 18.5 2.79801 18.5 3.45801C18.4998 4.28785 17.8299 4.95801 17 4.95801C16.1701 4.95801 15.5002 4.28785 15.5 3.45801C15.5 2.79801 16.1596 1.8173 16.5996 1.2373Z" fill="#2F455C"/>
</g>
</svg>
