<svg width="24" height="24" viewBox="0 0 24 24" fill="none" xmlns="http://www.w3.org/2000/svg">
<g id="Maps/directions-boat">
<path id="Icon Shape" d="M15.7315 19.8604C15.8915 19.7604 16.1009 19.7604 16.2608 19.8604C17.4208 20.5903 18.7111 21 20.0011 21H21.0011C21.5511 21 22.0011 21.45 22.0011 22C22.0011 22.55 21.5511 23 21.0011 23H20.0011C18.6211 23 17.261 22.6597 16.0011 22.0098C13.4811 23.2998 10.5211 23.2998 8.00105 22.0098C6.74105 22.6498 5.38105 23 4.00105 23H3.00105C2.4511 22.9999 2.00105 22.55 2.00105 22C2.00105 21.45 2.4511 21.0001 3.00105 21H4.00105C5.29105 21 6.58152 20.5904 7.73152 19.8604C7.89148 19.7604 8.10086 19.7604 8.26082 19.8604C10.5708 21.3304 13.4215 21.3304 15.7315 19.8604ZM14.0011 1C14.5511 1 15.0011 1.45 15.0011 2V4H18.0011C19.1011 4 20.0011 4.9 20.0011 6V10.6201L21.2813 11.04C21.5412 11.1201 21.761 11.3001 21.8809 11.54C22.0009 11.78 22.0215 12.0603 21.9415 12.3203L20.0509 19H20.0011C18.5813 19 17.3016 18.3001 16.3516 17.3604C16.1516 17.1704 15.8512 17.1704 15.6612 17.3604C14.7012 18.3003 13.421 19 12.0011 19C10.5813 19 9.30157 18.3001 8.35164 17.3604C8.16164 17.1804 7.85121 17.1804 7.66121 17.3604C6.70123 18.3003 5.42098 19 4.00105 19H3.95125L2.05086 12.3203C1.96086 12.0603 1.9914 11.78 2.1114 11.54C2.23139 11.3001 2.4511 11.1201 2.71101 11.04L4.00105 10.6201V6C4.00105 4.90004 4.9011 4.00006 6.00105 4H9.00105V2C9.00105 1.45004 9.4511 1.00006 10.0011 1H14.0011ZM7.00105 6C6.4511 6.00006 6.00105 6.45004 6.00105 7V9.96973L11.3712 8.2002C11.7812 8.0702 12.2112 8.0702 12.6212 8.2002L18.0011 9.96973V7C18.0011 6.45 17.5511 6 17.0011 6H7.00105Z" fill="#2F455C"/>
</g>
</svg>
