<svg width="24" height="24" viewBox="0 0 24 24" fill="none" xmlns="http://www.w3.org/2000/svg">
<g id="Maps/layers">
<path id="Icon Shape" d="M18.7546 13.7451C19.1131 13.4651 19.6169 13.4651 19.9753 13.7451L19.9851 13.7549C20.4951 14.1549 20.4951 14.9252 19.9851 15.3252L13.2253 20.585C12.4954 21.1449 11.4854 21.1448 10.7654 20.585L4.00465 15.3252C3.49487 14.9252 3.4948 14.1549 4.00465 13.7549C4.36312 13.4749 4.86687 13.4749 5.22535 13.7549L11.3748 18.5352C11.7348 18.8152 12.2452 18.8152 12.6052 18.5352L18.7546 13.7451ZM10.7752 3.41504C11.5051 2.85515 12.5152 2.85508 13.2351 3.41504L19.9949 8.6748C20.5049 9.07479 20.5048 9.85487 19.9949 10.2549L13.2351 15.5146C12.5152 16.0846 11.4951 16.0852 10.7752 15.5254L4.01539 10.2646C3.50539 9.86465 3.50539 9.08555 4.01539 8.68555L10.7752 3.41504Z" fill="#2F455C"/>
</g>
</svg>
