<svg width="24" height="24" viewBox="0 0 24 24" fill="none" xmlns="http://www.w3.org/2000/svg">
<g id="Maps/not-listed_location">
<path id="Icon Shape" d="M12 2.26514C15.86 2.26514 19 5.40514 19 9.26514C19 13.4351 14.5798 19.1855 12.7598 21.3755C12.3598 21.855 11.6305 21.8549 11.2305 21.3755C9.42047 19.1855 5 13.4351 5 9.26514C5 5.40514 8.14 2.26514 12 2.26514ZM11.1299 16.0151H12.8799V14.2651H11.1299V16.0151ZM12.5498 5.31494C10.7499 5.03507 9.16014 6.1354 8.66016 7.71533C8.49027 8.23527 8.87001 8.76509 9.41992 8.76514H9.58008C9.94004 8.7651 10.2299 8.51503 10.3398 8.18506C10.6298 7.39507 11.4601 6.86494 12.3701 7.06494C13.2001 7.24497 13.8005 8.06555 13.7305 8.91553C13.6102 10.2951 11.7601 10.3952 11.25 12.1548V12.2153H11.2305C11.1605 12.4853 11.1201 12.7851 11.1201 13.145H12.8799C12.8799 12.9151 12.9205 12.7051 12.9805 12.5151C12.9905 12.4652 13.0103 12.4252 13.0303 12.3853C13.0503 12.3353 13.0696 12.2849 13.0996 12.2349C13.1196 12.1949 13.1499 12.1547 13.1699 12.1147C13.1999 12.0649 13.2298 12.015 13.2598 11.9751C14.0498 10.8751 15.7397 10.3547 15.4697 8.36475C15.2696 6.84493 14.0697 5.54492 12.5498 5.31494Z" fill="#2F455C"/>
</g>
</svg>
