<svg width="24" height="24" viewBox="0 0 24 24" fill="none" xmlns="http://www.w3.org/2000/svg">
<g id="Maps/satellite">
<path id="Icon Shape" d="M19 3C20.1 3 21 3.9 21 5V19C21 20.1 20.1 21 19 21H5C3.9 21 3 20.1 3 19V5C3 3.9 3.9 3 5 3H19ZM14.9004 12.5303C14.7004 12.2603 14.2996 12.2596 14.0996 12.5195L11 16.5098L8.90039 13.9805C8.70039 13.7305 8.32012 13.7402 8.12012 13.9902L5.62988 17.1904C5.37039 17.5203 5.60995 17.9994 6.01953 18.0098H18.0098C18.4197 18.0098 18.6601 17.54 18.4102 17.21L14.9004 12.5303ZM10.9102 5C10.4203 5 10.0098 5.35978 9.92969 5.84961C9.56969 7.92961 7.92961 9.56969 5.84961 9.92969C5.35978 10.0098 5 10.4203 5 10.9102C5.00009 11.52 5.53985 12.0099 6.13965 11.9102C9.09965 11.4302 11.4302 9.08988 11.9102 6.12988C12.0001 5.52999 11.52 5.00009 10.9102 5ZM5 8C6.66 8 8 6.66 8 5H5V8Z" fill="#2F455C"/>
</g>
</svg>
