<svg width="24" height="24" viewBox="0 0 24 24" fill="none" xmlns="http://www.w3.org/2000/svg">
<g id="Maps/person-pin_circle">
<path id="Icon Shape" d="M12 2.26514C15.86 2.26514 19 5.40514 19 9.26514C19 13.4351 14.5795 19.1855 12.7695 21.3755C12.3695 21.8549 11.6402 21.855 11.2402 21.3755C9.42023 19.1855 5 13.4351 5 9.26514C5 5.40514 8.14 2.26514 12 2.26514ZM12 10.0649C10.6701 10.0649 8.02052 10.795 8 12.1147C8.86 13.4147 10.33 14.2651 12 14.2651C13.67 14.2651 15.14 13.4147 16 12.1147C15.9795 10.795 13.3299 10.0649 12 10.0649ZM12 4.26514C10.9 4.26514 10 5.16514 10 6.26514C10 7.37514 10.9 8.26514 12 8.26514C13.1 8.26514 14 7.37514 14 6.26514C14 5.16514 13.1 4.26514 12 4.26514Z" fill="#2F455C"/>
</g>
</svg>
