<svg width="24" height="24" viewBox="0 0 24 24" fill="none" xmlns="http://www.w3.org/2000/svg">
<g id="Maps/map">
<path id="Icon Shape" d="M8.35461 3.21973C8.77461 3.07973 9.23539 3.08047 9.65539 3.23047L14.6554 4.98047C14.8852 5.06028 15.125 5.04965 15.3448 4.96973L18.2745 3.83008C19.5845 3.32008 20.9952 4.28043 20.9952 5.69043V17.54C20.9952 18.4 20.4449 19.1704 19.6349 19.4404L15.6446 20.7803C15.2248 20.9201 14.7647 20.9195 14.3448 20.7695L9.34484 19.0195C9.12499 18.9397 8.87524 18.9404 8.65539 19.0303L5.72473 20.1699C4.41479 20.6797 3.005 19.7195 3.005 18.3096V6.45996C3.00501 5.59997 3.55536 4.83957 4.36535 4.55957L8.35461 3.21973ZM9.005 16.7803L15.005 18.8896V7.21973L9.005 5.11035V16.7803Z" fill="#2F455C"/>
</g>
</svg>
