<svg width="24" height="24" viewBox="0 0 24 24" fill="none" xmlns="http://www.w3.org/2000/svg">
<g id="Maps/local-grocery_store">
<path id="Icon Shape" d="M7.99628 18C9.09628 18 9.99628 18.9 9.99628 20C9.99628 21.1 9.09628 22 7.99628 22C6.89628 22 6.00605 21.1 6.00605 20C6.00605 18.9 6.89628 18 7.99628 18ZM17.9963 18C19.0963 18 19.9963 18.9 19.9963 20C19.9963 21.1 19.0963 22 17.9963 22C16.8963 22 16.0061 21.1 16.0061 20C16.0061 18.9 16.8963 18 17.9963 18ZM4.63593 2C5.01593 2 5.37632 2.22031 5.53632 2.57031L6.20625 4H21.0061C21.7661 4 22.2462 4.82047 21.8762 5.48047L18.2961 11.9697C17.9561 12.5897 17.2961 13 16.5461 13H9.09589L7.99628 15H18.9963C19.5463 15 19.9963 15.45 19.9963 16C19.9963 16.55 19.5463 17 18.9963 17H7.99628C6.47636 17 5.5165 15.3702 6.24628 14.0303L7.59589 11.5898L3.99628 4H2.99628C2.44628 4 1.99628 3.55 1.99628 3C1.99628 2.45 2.44628 2 2.99628 2H4.63593Z" fill="#2F455C"/>
</g>
</svg>
