<svg width="24" height="24" viewBox="0 0 24 24" fill="none" xmlns="http://www.w3.org/2000/svg">
<g id="Maps/money">
<path id="Icon Shape" d="M20 4C21.1 4 22 4.9 22 6V18C22 19.1 21.1 20 20 20H4C2.9 20 2 19.1 2 18V6C2 4.9 2.9 4 4 4H20ZM5 6C4.45 6 4 6.45 4 7V17C4 17.55 4.45 18 5 18H19C19.55 18 20 17.55 20 17V7C20 6.45 19.55 6 19 6H5ZM6 8C6.55 8 7 8.45 7 9V15C7 15.55 6.55 16 6 16C5.45 16 5 15.55 5 15V9C5 8.45 5.45 8 6 8ZM12 8C12.55 8 13 8.45 13 9V15C13 15.55 12.55 16 12 16H9C8.45 16 8 15.55 8 15V9C8 8.45 8.45 8 9 8H12ZM18 8C18.55 8 19 8.45 19 9V15C19 15.55 18.55 16 18 16H15C14.45 16 14 15.55 14 15V9C14 8.45 14.45 8 15 8H18ZM10 10V14H11V10H10ZM16 10V14H17V10H16Z" fill="#2F455C"/>
</g>
</svg>
