<svg width="24" height="24" viewBox="0 0 24 24" fill="none" xmlns="http://www.w3.org/2000/svg">
<g id="Maps/compass-calibration">
<path id="Icon Shape" d="M12.0056 13C14.2147 13.0001 16.0056 14.7909 16.0056 17C16.0056 19.2091 14.2147 20.9999 12.0056 21C9.7965 21 8.00564 19.2091 8.00564 17C8.00564 14.7909 9.7965 13 12.0056 13ZM12.0056 3C15.5156 3.00003 18.7254 4.28042 21.1853 6.40039C21.6352 6.78037 21.6755 7.4599 21.2556 7.87988L17.6551 11.4805C17.305 11.84 16.7453 11.8694 16.3455 11.5596C15.1456 10.6297 13.6455 10.0703 12.0056 10.0703C10.3756 10.0703 8.86579 10.6303 7.6658 11.5703C7.26583 11.8803 6.70549 11.8501 6.34548 11.4902L2.74587 7.88965C2.32591 7.46969 2.36556 6.79018 2.80544 6.41016C5.28544 4.29016 8.49564 3 12.0056 3Z" fill="#2F455C"/>
</g>
</svg>
