<svg width="24" height="24" viewBox="0 0 24 24" fill="none" xmlns="http://www.w3.org/2000/svg">
<g id="Maps/category">
<path id="Icon Shape" d="M17 12.5396C18.6076 12.5396 20.0936 13.3973 20.8975 14.7896C21.7012 16.1817 21.701 17.8973 20.8975 19.2896C20.0936 20.6819 18.6077 21.5396 17 21.5396C15.3923 21.5396 13.9064 20.6819 13.1025 19.2896C12.299 17.8973 12.2988 16.1817 13.1025 14.7896C13.9064 13.3973 15.3924 12.5396 17 12.5396ZM9.5 13.0396C10.0499 13.0396 10.4998 13.4897 10.5 14.0396V20.0396C10.5 20.5896 10.05 21.0396 9.5 21.0396H3.5C2.95 21.0396 2.5 20.5896 2.5 20.0396V14.0396C2.50023 13.4897 2.95014 13.0396 3.5 13.0396H9.5ZM10.6504 2.93994C11.0404 2.30021 11.9596 2.30021 12.3496 2.93994L16.0596 9.02002C16.4696 9.68002 15.99 10.5396 15.21 10.5396H7.78027C7.00034 10.5396 6.51987 9.68 6.92969 9.02002L10.6504 2.93994Z" fill="#2F455C"/>
</g>
</svg>
