<svg width="24" height="24" viewBox="0 0 24 24" fill="none" xmlns="http://www.w3.org/2000/svg">
<g id="Maps/departure-board">
<path id="Icon Shape" d="M10.2214 4.04785C11.7113 1.87789 14.4015 0.57801 17.3415 1.12793C20.2215 1.65793 22.5016 4.04824 22.9216 6.94824C23.5014 10.9381 20.7216 14.378 17.0016 14.918V17.998C17.0016 18.878 16.6116 19.6678 16.0016 20.2178V21.498C16.0016 22.328 15.3216 22.998 14.5016 22.998C13.6717 22.998 13.0017 22.318 13.0016 21.498V20.998H5.00164V21.498C5.00162 22.328 4.33163 22.998 3.50164 22.998C2.67165 22.998 2.00166 22.328 2.00164 21.498V20.2178C1.39172 19.6678 1.00165 18.878 1.00164 17.998V7.99805C1.00164 4.49805 4.58164 3.99805 9.00164 3.99805C9.42164 3.99805 9.84188 3.99758 10.2419 4.01758C10.2319 4.02758 10.2314 4.03785 10.2214 4.04785ZM4.50164 15.998C3.67164 15.998 3.00164 16.668 3.00164 17.498C3.00166 18.328 3.67165 18.998 4.50164 18.998C5.33163 18.998 6.00162 18.328 6.00164 17.498C6.00164 16.668 5.33164 15.998 4.50164 15.998ZM13.5016 15.998C12.6716 15.998 12.0016 16.668 12.0016 17.498C12.0017 18.328 12.6717 18.998 13.5016 18.998C14.3316 18.998 15.0016 18.328 15.0016 17.498C15.0016 16.668 14.3316 15.998 13.5016 15.998ZM3.00164 12.998H11.112C9.812 11.7281 9.00165 9.95803 9.00164 7.99805H3.00164V12.998ZM16.0016 2.99805C13.2416 2.99805 11.0016 5.23805 11.0016 7.99805C11.0017 10.758 13.2417 12.998 16.0016 12.998C18.7616 12.998 21.0016 10.758 21.0016 7.99805C21.0016 5.23805 18.7616 2.99805 16.0016 2.99805ZM15.7516 3.99805C16.1616 3.99805 16.5016 4.33805 16.5016 4.74805V8.24805L18.7419 9.56836C19.0915 9.76838 19.2015 10.2178 18.9919 10.5576C18.7919 10.8876 18.3514 10.9979 18.0114 10.7979L15.4919 9.28809C15.1919 9.10809 15.0016 8.77773 15.0016 8.42773V4.74805C15.0016 4.33805 15.3416 3.99805 15.7516 3.99805Z" fill="#2F455C"/>
</g>
</svg>
