<svg width="24" height="24" viewBox="0 0 24 24" fill="none" xmlns="http://www.w3.org/2000/svg">
<g id="Maps/person-pin">
<path id="Icon Shape" d="M19 1.70898C20.1 1.70898 21 2.60898 21 3.70898V17.709C21 18.809 20.1 19.709 19 19.709H15L12.7002 21.999C12.3102 22.389 11.68 22.389 11.29 21.999L9 19.709H5C3.9 19.709 3 18.809 3 17.709V3.70898C3 2.60898 3.89 1.70898 5 1.70898H19ZM12 11.709C10.0001 11.709 6.00052 12.8088 6 14.8086V15.709H18V14.8086C17.9995 12.8088 13.9999 11.709 12 11.709ZM12 5.00879C10.51 5.00879 9.2998 6.21898 9.2998 7.70898C9.2998 9.19898 10.51 10.4092 12 10.4092C13.49 10.4092 14.7002 9.19898 14.7002 7.70898C14.7002 6.21898 13.49 5.00879 12 5.00879Z" fill="#2F455C"/>
</g>
</svg>
