<svg width="24" height="24" viewBox="0 0 24 24" fill="none" xmlns="http://www.w3.org/2000/svg">
<g id="Maps/beenhere">
<path id="Icon Shape" d="M19 1.10254C20.1 1.10254 21 2.00254 21 3.10254V16.0322C21 16.7222 20.65 17.3324 20.1201 17.6924L12.5596 22.7324C12.2196 22.9522 11.7901 22.9523 11.4502 22.7324L3.87988 17.6924C3.34997 17.3324 3 16.7222 3 16.0322L3.00977 3.10254C3.00977 2.00254 3.9 1.10254 5 1.10254H19ZM18.29 6.39258C17.9 6.00258 17.2699 6.00258 16.8799 6.39258L10 13.2725L7.12012 10.3926C6.73012 10.0026 6.09996 10.0026 5.70996 10.3926C5.32 10.7826 5.31997 11.4127 5.70996 11.8027L9.2998 15.3926C9.68979 15.7826 10.32 15.7825 10.71 15.3926L18.2998 7.80273C18.6898 7.41275 18.68 6.78258 18.29 6.39258Z" fill="#2F455C"/>
</g>
</svg>
