<svg width="24" height="24" viewBox="0 0 24 24" fill="none" xmlns="http://www.w3.org/2000/svg">
<g id="Maps/local-laundry_service">
<path id="Icon Shape" d="M18 2.00977C19.11 2.00977 20 2.89 20 4V20C20 21.11 19.11 22 18 22H6C4.89 22 4 21.11 4 20V4C4 2.89 4.89 2 6 2L18 2.00977ZM12 8C8.69 8 6 10.69 6 14C6 17.31 8.69 20 12 20C15.31 20 18 17.31 18 14C18 10.69 15.31 8 12 8ZM14.4502 11.5498C14.6502 11.34 14.9997 11.3404 15.1797 11.5703C16.3796 13.1403 16.2601 15.4001 14.8301 16.8301C13.4001 18.2601 11.1403 18.3797 9.57031 17.1797C9.34039 16.9997 9.34999 16.6502 9.5498 16.4502L14.4502 11.5498ZM7 4C6.45 4 6 4.45 6 5C6 5.55 6.45 6 7 6C7.55 6 8 5.55 8 5C8 4.45 7.55 4 7 4ZM10 4C9.45 4 9 4.45 9 5C9 5.55 9.45 6 10 6C10.55 6 11 5.55 11 5C11 4.45 10.55 4 10 4Z" fill="#2F455C"/>
</g>
</svg>
