<svg width="24" height="24" viewBox="0 0 24 24" fill="none" xmlns="http://www.w3.org/2000/svg">
<g id="Maps/fastfood">
<path id="Icon Shape" d="M15.0524 21C15.6024 21 16.0524 21.45 16.0524 22C16.0524 22.55 15.6024 23 15.0524 23H2.05237C1.50237 23 1.05237 22.55 1.05237 22C1.05237 21.45 1.50237 21 2.05237 21H15.0524ZM17.0524 1C17.6024 1 18.0524 1.45 18.0524 2V5H21.9528C22.5425 5.00023 23.0018 5.50989 22.942 6.09961L21.402 21.5303C21.3018 22.3501 20.612 23 19.7721 23H18.0719L18.0524 15C18.0524 10.77 14.9521 8.15957 11.2721 7.30957L11.152 6.09961C11.1022 5.50992 11.5623 5.00023 12.152 5H16.0524V2C16.0524 1.45 16.5024 1 17.0524 1ZM15.0524 17C15.6024 17 16.0524 17.45 16.0524 18C16.0524 18.55 15.6024 19 15.0524 19H2.05237C1.50237 19 1.05237 18.55 1.05237 18C1.05237 17.45 1.50237 17 2.05237 17H15.0524ZM8.55237 8.99023C11.9223 8.99023 15.2919 10.61 15.942 13.8398C16.062 14.4397 15.5726 14.9998 14.9528 15H2.15198C1.54215 14.9998 1.04275 14.4397 1.16272 13.8398C1.82283 10.61 5.18244 8.99023 8.55237 8.99023Z" fill="#2F455C"/>
</g>
</svg>
