<svg width="24" height="24" viewBox="0 0 24 24" fill="none" xmlns="http://www.w3.org/2000/svg">
<g id="Maps/local-dining">
<path id="Icon Shape" d="M14.5393 4.83252C16.4592 2.92257 19.1994 2.5621 20.6594 4.02197C22.1293 5.49192 21.7596 8.2321 19.8498 10.1421C18.2598 11.7321 16.1093 12.232 14.5793 11.522L13.1096 12.9917L19.2893 19.1724C19.6792 19.5624 19.6793 20.1925 19.2893 20.5825C18.8993 20.9722 18.269 20.9724 17.8791 20.5825L11.6994 14.4019L5.51973 20.562C5.12973 20.952 4.49957 20.952 4.10957 20.562C3.71957 20.172 3.71957 19.5419 4.10957 19.1519L13.1594 10.1021C12.4495 8.57214 12.9495 6.42246 14.5393 4.83252ZM2.8293 4.59229C3.12929 3.97231 3.95964 3.84186 4.43965 4.32178L10.6291 10.5024L7.79903 13.3325L3.60957 9.15186C2.37968 7.9119 2.11941 6.08223 2.8293 4.59229Z" fill="#2F455C"/>
</g>
</svg>
