<svg width="24" height="24" viewBox="0 0 24 24" fill="none" xmlns="http://www.w3.org/2000/svg">
<g id="Maps/360">
<path id="Icon Shape" d="M12 5.854C6.48 5.854 2 8.094 2 10.854C2 13.094 4.94 14.984 9 15.624V17.644C9 18.094 9.54 18.314 9.85 17.994L12.64 15.204C12.84 15.004 12.84 14.694 12.64 14.494L9.85 11.704C9.54 11.394 9 11.614 9 12.064V13.584C5.85 13.024 4 11.684 4 10.854C4 9.794 7.04 7.854 12 7.854C16.96 7.854 20 9.794 20 10.854C20 11.514 18.8 12.534 16.68 13.194C16.27 13.324 16 13.704 16 14.134C16 14.804 16.65 15.294 17.28 15.094C20.11 14.214 22 12.644 22 10.854C22 8.094 17.52 5.854 12 5.854Z" fill="#2F455C"/>
</g>
</svg>
