<svg width="24" height="24" viewBox="0 0 24 24" fill="none" xmlns="http://www.w3.org/2000/svg">
<g id="Maps/local-atm">
<path id="Icon Shape" d="M20 4C21.11 4 22 4.89 22 6V18C22 19.11 21.11 20 20 20H4C2.89 20 2 19.11 2 18L2.00977 6C2.00977 4.89 2.89 4 4 4H20ZM5 6C4.45 6 4 6.45 4 7V17C4 17.55 4.45 18 5 18H19C19.55 18 20 17.55 20 17V7C20 6.45 19.55 6 19 6H5ZM12 6.99023C12.55 6.99023 13 7.44023 13 7.99023V8H14C14.55 8 15 8.45 15 9C15 9.55 14.55 10 14 10H11V11H14C14.55 11 15 11.45 15 12V15C15 15.55 14.55 16 14 16H13C13 16.55 12.55 17 12 17C11.45 17 11 16.55 11 16H10C9.45 16 9 15.55 9 15C9 14.45 9.45 14 10 14H13V13H10C9.45 13 9 12.55 9 12V9C9 8.45 9.45 8 10 8H11V7.99023C11 7.44023 11.45 6.99023 12 6.99023Z" fill="#2F455C"/>
</g>
</svg>
