<svg width="24" height="24" viewBox="0 0 24 24" fill="none" xmlns="http://www.w3.org/2000/svg">
<g id="Maps/directions-transit">
<path id="Icon Shape" d="M12 2.5C16.42 2.5 20 3 20 6.5V16C20 17.93 18.43 19.5 16.5 19.5L17.6504 20.6504C17.9698 20.9605 17.7496 21.5 17.2998 21.5H6.70996C6.26018 21.5 6.04019 20.9604 6.34961 20.6504L7.5 19.5C5.57 19.5 4 17.93 4 16V6.5C4 3 7.58 2.5 12 2.5ZM7.5 14.5C6.67 14.5 6 15.17 6 16C6 16.83 6.67 17.5 7.5 17.5C8.33 17.5 9 16.83 9 16C9 15.17 8.33 14.5 7.5 14.5ZM16.5 14.5C15.67 14.5 15 15.17 15 16C15 16.83 15.67 17.5 16.5 17.5C17.33 17.5 18 16.83 18 16C18 15.17 17.33 14.5 16.5 14.5ZM6 11.5H11V6.5H6V11.5ZM13 6.5V11.5H18V6.5H13Z" fill="#2F455C"/>
</g>
</svg>
