<svg width="24" height="24" viewBox="0 0 24 24" fill="none" xmlns="http://www.w3.org/2000/svg">
<g id="Maps/directions-run">
<path id="Icon Shape" d="M12.9601 5.75C13.6601 5.75 14.2603 6.15 14.6603 6.75L15.6603 8.34961C16.3303 9.52961 17.5905 10.4297 19.1105 10.6797C19.6003 10.7598 19.9601 11.1703 19.9601 11.6602C19.96 12.27 19.4203 12.7499 18.8204 12.6602C17.0804 12.3802 15.5301 11.49 14.4601 10.25L13.8605 13.25L15.34 14.6602C15.74 15.0402 15.9601 15.5604 15.9601 16.1104V21.75C15.9601 22.3 15.5101 22.75 14.9601 22.75C14.4101 22.75 13.9601 22.3 13.9601 21.75V16.75L11.8605 14.75L11.2902 17.25C11.0502 18.31 10.0103 18.9795 8.95033 18.7695L4.83997 17.9502C4.30002 17.8402 3.94971 17.3095 4.0597 16.7695V16.7305C4.1697 16.1905 4.70036 15.8402 5.24036 15.9502L9.16029 16.75L10.7599 8.65039L8.96009 9.34961V11.75C8.96009 12.3 8.51009 12.75 7.96009 12.75C7.4101 12.75 6.96009 12.3 6.96009 11.75V9.37988C6.96014 8.57006 7.44005 7.85033 8.17982 7.53027L12.1603 5.84961C12.4602 5.84957 12.6602 5.75 12.9601 5.75ZM14.4601 1.25C15.5601 1.25 16.4601 2.15 16.4601 3.25C16.4601 4.35 15.5601 5.25 14.4601 5.25C13.3601 5.24999 12.4601 4.34999 12.4601 3.25C12.4601 2.15001 13.3601 1.25001 14.4601 1.25Z" fill="#2F455C"/>
</g>
</svg>
