<svg width="24" height="24" viewBox="0 0 24 24" fill="none" xmlns="http://www.w3.org/2000/svg">
<g id="Maps/local-drink">
<path id="Icon Shape" d="M18.7704 2C19.9601 2.00025 20.8895 3.03997 20.7597 4.21973L18.9902 20.2305C18.87 21.2303 18.0298 22 16.9999 22H6.99992C5.97011 22 5.12987 21.2302 5.00969 20.2305L3.24016 4.21973C3.11032 3.03983 4.04048 2 5.23039 2H18.7704ZM12.3896 11.0596C12.1896 10.8101 11.82 10.81 11.62 11.0596C10.81 12.0496 8.99992 14.45 8.99992 16C8.99992 17.66 10.34 19 11.9999 19C13.6599 19 14.9997 17.66 15.0097 16C15.0097 14.45 13.1996 12.0596 12.3896 11.0596ZM6.34953 4C5.74976 4.00027 5.28955 4.52051 5.34953 5.11035L5.66985 8H18.33L18.6396 5.11035C18.7096 4.52046 18.2402 4.00018 17.6503 4H6.34953Z" fill="#2F455C"/>
</g>
</svg>
