<svg width="24" height="24" viewBox="0 0 24 24" fill="none" xmlns="http://www.w3.org/2000/svg">
<g id="Maps/local-florist">
<path id="Icon Shape" d="M19.8005 13.5801C20.4403 13.4904 21.0096 14.0603 20.9196 14.7002C20.3295 19.1001 16.5596 22.5 11.9997 22.5C11.9997 17.94 15.4005 14.1701 19.8005 13.5801ZM4.19987 13.5801C8.59987 14.1701 11.9997 17.94 11.9997 22.5C7.43988 22.4998 3.66981 19.1 3.07975 14.7002C2.98976 14.0602 3.55992 13.4902 4.19987 13.5801ZM11.9997 1.5C13.3797 1.5 14.4997 2.62 14.4997 4L14.4801 4.19043C14.8901 3.91043 15.3701 3.75 15.9001 3.75C17.28 3.75004 18.4001 4.87002 18.4001 6.25C18.4001 7.24988 17.8102 8.09994 16.9704 8.5C17.8102 8.90006 18.4001 9.75012 18.4001 10.75C18.4001 12.13 17.28 13.25 15.9001 13.25C15.3701 13.25 14.8801 13.0896 14.4801 12.8096L14.4997 13C14.4997 14.38 13.3797 15.5 11.9997 15.5C10.6198 15.4998 9.49968 14.3799 9.49968 13L9.52018 12.8096C9.11025 13.0895 8.63016 13.2499 8.10026 13.25C6.72026 13.25 5.60026 12.13 5.60026 10.75C5.60026 9.75002 6.18997 8.90001 7.02995 8.5C6.18997 8.09999 5.60026 7.24998 5.60026 6.25C5.60026 4.87 6.72026 3.75 8.10026 3.75C8.63016 3.75005 9.12025 3.91048 9.52018 4.19043L9.49968 4C9.49968 2.62011 10.6198 1.50017 11.9997 1.5ZM11.9997 6C10.6198 6.00017 9.49968 7.12011 9.49968 8.5C9.49968 9.87989 10.6198 10.9998 11.9997 11C13.3797 11 14.4997 9.88 14.4997 8.5C14.4997 7.12 13.3797 6 11.9997 6Z" fill="#2F455C"/>
</g>
</svg>
