<svg width="24" height="24" viewBox="0 0 24 24" fill="none" xmlns="http://www.w3.org/2000/svg">
<g id="Maps/ev-station">
<path id="Icon Shape" d="M11.75 2.99854C12.85 2.99854 13.75 3.89854 13.75 4.99854V11.9985H14.75C15.85 11.9985 16.75 12.8985 16.75 13.9985V18.4985C16.75 19.0485 17.2 19.4985 17.75 19.4985C18.3 19.4985 18.75 19.0485 18.75 18.4985V11.2886C18.3601 11.4585 17.9503 11.5387 17.4805 11.4888C16.3805 11.3688 15.4403 10.4784 15.2803 9.37842C15.1003 8.13845 15.8104 7.06845 16.8604 6.66846L15.2803 5.08838C14.9903 4.79838 14.9903 4.31881 15.2803 4.02881C15.5703 3.73881 16.0498 3.73881 16.3398 4.02881L19.5303 7.21826L19.5195 7.229C19.9695 7.679 20.25 8.30854 20.25 8.99854V18.4985C20.25 19.9685 18.9901 21.1386 17.4902 20.9888C16.1904 20.8588 15.2502 19.6687 15.25 18.3589V13.4985H13.75V19.9985C13.75 20.5485 13.3 20.9985 12.75 20.9985H4.75C4.2 20.9985 3.75 20.5485 3.75 19.9985V4.99854C3.75 3.89854 4.65 2.99854 5.75 2.99854H11.75ZM9.75 7.99854C9.75 7.47854 9.04957 7.30831 8.80957 7.7583L6.13965 12.7583C5.95965 13.0983 6.20008 13.4985 6.58008 13.4985H7.75V16.1187C7.7501 16.6285 8.4296 16.8083 8.67969 16.3687L11.3203 11.7485C11.5102 11.4086 11.2696 10.9985 10.8896 10.9985H9.75V7.99854ZM17.75 7.99854C17.2 7.99854 16.75 8.44853 16.75 8.99854C16.75 9.54854 17.2 9.99854 17.75 9.99854C18.3 9.99854 18.75 9.54854 18.75 8.99854C18.75 8.44853 18.3 7.99854 17.75 7.99854Z" fill="#2F455C"/>
</g>
</svg>
