<svg width="24" height="24" viewBox="0 0 24 24" fill="none" xmlns="http://www.w3.org/2000/svg">
<g id="Maps/streetview">
<path id="Icon Shape" d="M17 13.5C18.0499 13.5 19.06 13.6896 20 14.0195V20C20 21.1 19.1 22 18 22H11V16.5C11 16.0301 11.2197 15.6001 11.5596 15.3301C13.0696 14.2001 14.97 13.5 17 13.5ZM11.2402 4C10.7702 4.9 10.5 5.92 10.5 7C10.5 8.8 11.2302 10.4198 12.4102 11.5898L2.58984 21.4102C2.22984 21.0502 2 20.55 2 20V6C2 4.9 2.9 4 4 4H11.2402ZM17 2C19.7614 2 22 4.23858 22 7C22 9.76142 19.7614 12 17 12C14.2386 12 12 9.76142 12 7C12 4.23858 14.2386 2 17 2Z" fill="#2F455C"/>
</g>
</svg>
