<svg width="24" height="24" viewBox="0 0 24 24" fill="none" xmlns="http://www.w3.org/2000/svg">
<g id="Maps/local-library">
<path id="Icon Shape" d="M18.6797 8.09277C19.8896 7.88279 20.9998 8.84242 21 10.0723V16.9922C21 17.9522 20.23 18.8827 19.29 19.0127C16.7702 19.3327 14.4803 20.3823 12.6104 21.9121C12.2604 22.1921 11.6899 22.1629 11.3398 21.873C9.47985 20.353 7.20996 19.3229 4.70996 19.0029C3.71996 18.8729 3 17.9925 3 16.3125V10.0723C3.00019 8.84242 4.11041 7.88279 5.32031 8.09277C7.88013 8.55281 10.1801 9.74251 12 11.4424C13.8199 9.74251 16.1199 8.55281 18.6797 8.09277ZM12 1.89258C13.66 1.89258 15 3.23258 15 4.89258C15 6.55258 13.66 7.89258 12 7.89258C10.34 7.89258 9 6.55258 9 4.89258C9 3.23258 10.34 1.89258 12 1.89258Z" fill="#2F455C"/>
</g>
</svg>
