<svg width="24" height="24" viewBox="0 0 24 24" fill="none" xmlns="http://www.w3.org/2000/svg">
<g id="Maps/edit-location">
<path id="Icon Shape" d="M12 2.26514C15.86 2.26514 19 5.40514 19 9.26514C19 13.4351 14.5795 19.1855 12.7695 21.3755C12.3695 21.8549 11.6402 21.855 11.2402 21.3755C9.42023 19.1855 5 13.4351 5 9.26514C5 5.40514 8.14 2.26514 12 2.26514ZM8.50977 11.3149V12.7554H9.9502L13.8701 8.82471L12.4404 7.39502L8.50977 11.3149ZM14.3896 5.9751C14.2396 5.82529 13.9995 5.82516 13.8496 5.9751L13.1504 6.67529L14.5898 8.11475L15.29 7.41553C15.44 7.26559 15.4398 7.0255 15.29 6.87549L14.3896 5.9751Z" fill="#2F455C"/>
</g>
</svg>
