<svg width="24" height="24" viewBox="0 0 24 24" fill="none" xmlns="http://www.w3.org/2000/svg">
<g id="Maps/pin-drop">
<path id="Icon Shape" d="M18 20C18.55 20 19 20.45 19 21C19 21.55 18.55 22 18 22H6C5.45 22 5 21.55 5 21C5 20.45 5.45 20 6 20H18ZM12 2C15.31 2 18 4.69 18 8C18 11.49 14.3798 16.1901 12.7598 18.1201C12.3598 18.5998 11.6305 18.5998 11.2305 18.1201C9.62047 16.1901 6 11.49 6 8C6 4.69 8.69 2 12 2ZM12 6C10.9 6 10 6.9 10 8C10 9.1 10.9 10 12 10C13.11 10 14 9.1 14 8C14 6.9 13.1 6 12 6Z" fill="#2F455C"/>
</g>
</svg>
