<svg width="24" height="24" viewBox="0 0 24 24" fill="none" xmlns="http://www.w3.org/2000/svg">
<g id="Maps/local-pizza">
<path id="Icon Shape" d="M12.0003 2.52002C14.9902 2.52008 17.7304 3.60995 19.8303 5.3999C20.5402 5.99992 20.6897 7.04992 20.2298 7.85986L12.8704 20.9702C12.4904 21.6501 11.5102 21.65 11.1301 20.9702L3.76979 7.85986C3.30994 7.04989 3.46024 6.00985 4.17018 5.3999C6.28016 3.59998 9.01034 2.52002 12.0003 2.52002ZM12.0003 11.52C10.9003 11.52 10.0003 12.42 10.0003 13.52C10.0003 14.62 10.9003 15.52 12.0003 15.52C13.1001 15.5199 14.0003 14.6199 14.0003 13.52C14.0003 12.4201 13.1001 11.5202 12.0003 11.52ZM9.00026 5.52002C7.90026 5.52002 7.00026 6.42002 7.00026 7.52002C7.00026 8.62002 7.90026 9.52002 9.00026 9.52002C10.1001 9.51988 11.0003 8.61993 11.0003 7.52002C11.0003 6.4201 10.1001 5.52016 9.00026 5.52002Z" fill="#2F455C"/>
</g>
</svg>
