<svg width="24" height="24" viewBox="0 0 24 24" fill="none" xmlns="http://www.w3.org/2000/svg">
<g id="Navigation / fullscreen">
<path id="Icon Shape" d="M6 14C6.55 14 7 14.45 7 15V17H9C9.55 17 10 17.45 10 18C10 18.55 9.55 19 9 19H6C5.45 19 5 18.55 5 18V15C5 14.45 5.45 14 6 14ZM18 14C18.55 14 19 14.45 19 15V18C19 18.55 18.55 19 18 19H15C14.45 19 14 18.55 14 18C14 17.45 14.45 17 15 17H17V15C17 14.45 17.45 14 18 14ZM9 5C9.55 5 10 5.45 10 6C10 6.55 9.55 7 9 7H7V9C7 9.55 6.55 10 6 10C5.45 10 5 9.55 5 9V6C5 5.45 5.45 5 6 5H9ZM18 5C18.55 5 19 5.45 19 6V9C19 9.55 18.55 10 18 10C17.45 10 17 9.55 17 9V7H15C14.45 7 14 6.55 14 6C14 5.45 14.45 5 15 5H18Z" fill="#2F455C"/>
</g>
</svg>
