<svg width="24" height="24" viewBox="0 0 24 24" fill="none" xmlns="http://www.w3.org/2000/svg">
<g id="Navigation / cancel">
<path id="Icon Shape" d="M12 2C17.53 2 22 6.47 22 12C22 17.53 17.53 22 12 22C6.47 22 2 17.53 2 12C2 6.47 6.47 2 12 2ZM16.2998 7.7002C15.9098 7.3102 15.2796 7.3102 14.8896 7.7002L12 10.5898L9.11035 7.7002C8.72035 7.3102 8.0902 7.3102 7.7002 7.7002C7.51294 7.88703 7.40723 8.14076 7.40723 8.40527C7.4073 8.66969 7.51301 8.92358 7.7002 9.11035L10.5898 12L7.7002 14.8896C7.51301 15.0764 7.4073 15.3303 7.40723 15.5947C7.40723 15.8592 7.51294 16.113 7.7002 16.2998C8.0902 16.6898 8.72035 16.6898 9.11035 16.2998L12 13.4102L14.8896 16.2998C15.2796 16.6898 15.9098 16.6898 16.2998 16.2998C16.6798 15.9098 16.6798 15.2696 16.2998 14.8896L13.4102 12L16.2998 9.11035C16.6898 8.72035 16.6898 8.0902 16.2998 7.7002Z" fill="#2F455C"/>
</g>
</svg>
