<svg width="24" height="24" viewBox="0 0 24 24" fill="none" xmlns="http://www.w3.org/2000/svg">
<g id="Navigation / unfold-more">
<path id="Icon Shape" d="M8.83481 15.4172C9.09933 15.4172 9.35306 15.523 9.53989 15.7102L11.9998 18.1702L14.4696 15.72C14.6563 15.5328 14.9103 15.4271 15.1747 15.427C15.4391 15.427 15.6929 15.5328 15.8797 15.72C16.2697 16.11 16.2697 16.7401 15.8797 17.1301L12.7098 20.3C12.3198 20.6899 11.6896 20.69 11.2997 20.3L8.12973 17.1204C7.73982 16.7304 7.73999 16.1002 8.12973 15.7102C8.31652 15.523 8.57036 15.4173 8.83481 15.4172ZM11.995 3.40747C12.2595 3.40747 12.5132 3.51319 12.7 3.70044L15.87 6.88013C16.2599 7.27013 16.2599 7.90031 15.87 8.29028C15.48 8.68008 14.8498 8.68016 14.4598 8.29028L11.9998 5.83032L9.53012 8.29028C9.14016 8.68013 8.50994 8.6801 8.11996 8.29028C7.73 7.90032 7.73007 7.27013 8.11996 6.88013L11.2899 3.70044C11.4767 3.5132 11.7305 3.40748 11.995 3.40747Z" fill="#2F455C"/>
</g>
</svg>
