<svg width="24" height="24" viewBox="0 0 24 24" fill="none" xmlns="http://www.w3.org/2000/svg">
<g id="Navigation / subdirectory-arrow_right">
<path id="Icon Shape" d="M18.9988 15.4187L14.4188 19.9987C14.0288 20.3887 13.3888 20.3887 12.9988 19.9987C12.6088 19.6087 12.6088 18.9687 12.9988 18.5787L15.8788 15.7087H5.70876C5.15876 15.7087 4.70876 15.2587 4.70876 14.7087V4.70874C4.70876 4.15874 5.15876 3.70874 5.70876 3.70874C6.25876 3.70874 6.70876 4.15874 6.70876 4.70874V13.7087H15.8788L12.9988 10.8387C12.6088 10.4487 12.6088 9.80874 12.9988 9.41874C13.3888 9.02874 14.0288 9.02874 14.4188 9.41874L18.9988 13.9987C19.3888 14.3887 19.3888 15.0287 18.9988 15.4187Z" fill="#2F455C"/>
</g>
</svg>
