<svg width="24" height="24" viewBox="0 0 24 24" fill="none" xmlns="http://www.w3.org/2000/svg">
<g id="Navigation / unfold-less">
<path id="Icon Shape" d="M12.0047 14.427C12.2692 14.427 12.523 14.5328 12.7098 14.72L15.8797 17.8899C16.2697 18.2799 16.2697 18.91 15.8797 19.3C15.4897 19.6899 14.8595 19.69 14.4696 19.3L11.9998 16.8303L9.53012 19.3C9.14013 19.69 8.50997 19.69 8.11996 19.3C7.73 18.9101 7.72984 18.2699 8.12973 17.8899L11.2997 14.72C11.4864 14.5328 11.7403 14.4271 12.0047 14.427ZM15.1747 4.40747C15.4392 4.40747 15.6929 4.51319 15.8797 4.70044C16.2696 5.09045 16.2699 5.7304 15.87 6.12036L12.7 9.29028C12.3101 9.68011 11.6798 9.68013 11.2899 9.29028L8.11996 6.12036C7.73005 5.73045 7.73022 5.09046 8.11996 4.70044C8.3068 4.51319 8.56053 4.40747 8.82504 4.40747C9.08954 4.40748 9.3433 4.5132 9.53012 4.70044L11.9998 7.17017L14.4696 4.70044C14.6563 4.51327 14.9103 4.40756 15.1747 4.40747Z" fill="#2F455C"/>
</g>
</svg>
