<svg width="24" height="24" viewBox="0 0 24 24" fill="none" xmlns="http://www.w3.org/2000/svg">
<g id="Navigation / last-page">
<path id="Icon Shape" d="M17.0012 6C17.5512 6 18.0012 6.45 18.0012 7V17C18.0012 17.55 17.5512 18 17.0012 18C16.4512 18 16.0012 17.55 16.0012 17V7C16.0012 6.45003 16.4512 6.00004 17.0012 6ZM6.99629 6.40723C7.26079 6.40724 7.51454 6.51295 7.70137 6.7002L12.2912 11.2998C12.6812 11.6898 12.6812 12.32 12.2912 12.71L7.70137 17.2998C7.31137 17.6898 6.68121 17.6898 6.29121 17.2998C5.90133 16.9098 5.90125 16.2796 6.29121 15.8896L10.1809 12L6.29121 8.11035C5.91125 7.73039 5.91133 7.09021 6.29121 6.7002C6.47804 6.51294 6.73177 6.40723 6.99629 6.40723Z" fill="#2F455C"/>
</g>
</svg>
