<svg width="24" height="24" viewBox="0 0 24 24" fill="none" xmlns="http://www.w3.org/2000/svg">
<g id="Navigation / subdirectory-arrow_left">
<path id="Icon Shape" d="M5.00126 15.4187L9.58126 19.9987C9.97126 20.3887 10.6113 20.3887 11.0013 19.9987C11.3913 19.6087 11.3913 18.9687 11.0013 18.5787L8.12126 15.7087H18.2913C18.8413 15.7087 19.2913 15.2587 19.2913 14.7087V4.70874C19.2913 4.15874 18.8413 3.70874 18.2913 3.70874C17.7413 3.70874 17.2913 4.15874 17.2913 4.70874V13.7087H8.12126L11.0013 10.8387C11.3913 10.4487 11.3913 9.80874 11.0013 9.41874C10.6113 9.02874 9.97126 9.02874 9.58126 9.41874L5.00126 13.9987C4.61126 14.3887 4.61126 15.0287 5.00126 15.4187Z" fill="#2F455C"/>
</g>
</svg>
