<svg width="24" height="24" viewBox="0 0 24 24" fill="none" xmlns="http://www.w3.org/2000/svg">
<g id="Navigation / first-page">
<path id="Icon Shape" d="M6.99875 6C7.54875 6 7.99875 6.45 7.99875 7V17C7.99875 17.55 7.54875 18 6.99875 18C6.44875 18 5.99875 17.55 5.99875 17V7C5.99875 6.45 6.44875 6 6.99875 6ZM17.0036 6.40723C17.2681 6.40723 17.5219 6.51294 17.7087 6.7002C18.0986 7.0902 18.0987 7.72038 17.7087 8.11035L13.8191 12L17.6989 15.8896C18.0889 16.2696 18.0887 16.91 17.7087 17.29C17.3187 17.68 16.6885 17.68 16.2986 17.29L11.7087 12.7002C11.3187 12.3102 11.3187 11.68 11.7087 11.29L16.2986 6.7002C16.4854 6.51297 16.7392 6.40726 17.0036 6.40723Z" fill="#2F455C"/>
</g>
</svg>
