<svg width="24" height="24" viewBox="0 0 24 24" fill="none" xmlns="http://www.w3.org/2000/svg">
<g id="Navigation / arrow-forward">
<path id="Icon Shape" d="M5.20876 13H16.3788L11.4988 17.88C11.1088 18.27 11.1088 18.91 11.4988 19.3C11.8888 19.69 12.5188 19.69 12.9088 19.3L19.4988 12.71C19.8888 12.32 19.8888 11.69 19.4988 11.3L12.9188 4.69996C12.7319 4.5127 12.4783 4.40747 12.2138 4.40747C11.9492 4.40747 11.6956 4.5127 11.5088 4.69996C11.1188 5.08996 11.1188 5.71996 11.5088 6.10996L16.3788 11H5.20876C4.65876 11 4.20876 11.45 4.20876 12C4.20876 12.55 4.65876 13 5.20876 13Z" fill="#2F455C"/>
</g>
</svg>
