<svg width="24" height="24" viewBox="0 0 24 24" fill="none" xmlns="http://www.w3.org/2000/svg">
<g id="Navigation / arrow-back">
<path id="Icon Shape" d="M18.7913 11.0051H7.62126L12.5013 6.12508C12.8913 5.73508 12.8913 5.09508 12.5013 4.70508C12.3144 4.51783 12.0608 4.4126 11.7963 4.4126C11.5317 4.4126 11.2781 4.51783 11.0913 4.70508L4.50126 11.2951C4.11126 11.6851 4.11126 12.3151 4.50126 12.7051L11.0913 19.2951C11.4813 19.6851 12.1113 19.6851 12.5013 19.2951C12.8913 18.9051 12.8913 18.2751 12.5013 17.8851L7.62126 13.0051H18.7913C19.3413 13.0051 19.7913 12.5551 19.7913 12.0051C19.7913 11.4551 19.3413 11.0051 18.7913 11.0051Z" fill="#2F455C"/>
</g>
</svg>
