<svg width="24" height="24" viewBox="0 0 24 24" fill="none" xmlns="http://www.w3.org/2000/svg">
<g id="Notifications/Notification / disc-full">
<path id="Icon Shape" d="M10 4C14.42 4 18 7.58 18 12C18 16.42 14.42 20 10 20C5.58 20 2 16.42 2 12C2 7.58 5.58 4 10 4ZM22 16H20V14H22V16ZM10 10C8.9 10 8 10.9 8 12C8 13.1 8.9 14 10 14C11.1 14 12 13.1 12 12C12 10.9 11.1 10 10 10ZM21 7C21.55 7 22 7.45 22 8V11C22 11.55 21.55 12 21 12C20.45 12 20 11.55 20 11V8C20 7.45 20.45 7 21 7Z" fill="#2F455C"/>
</g>
</svg>
