<svg width="24" height="24" viewBox="0 0 24 24" fill="none" xmlns="http://www.w3.org/2000/svg">
<g id="Notifications/Notification / sync-disabled">
<path id="Icon Shape" d="M4.63629 3.94098C4.90079 3.94099 5.15455 4.0467 5.34137 4.23395L19.8609 18.7642C20.2508 19.1542 20.2509 19.7834 19.8609 20.1734C19.4709 20.5634 18.8417 20.5633 18.4517 20.1734L16.5816 18.3033C16.2916 18.4833 15.9912 18.6535 15.6812 18.7935C15.0713 19.0835 14.3612 18.6539 14.3609 17.9742V17.7935C14.361 17.3637 14.6811 17.0034 15.1109 16.8834C15.1109 16.8638 15.1117 16.8632 15.1216 16.8433L7.05133 8.77399C6.62138 9.60395 6.3609 10.5338 6.3609 11.5338C6.3609 13.1938 7.04164 14.6838 8.12164 15.7838L9.51129 14.3941C9.82128 14.0741 10.3609 14.2937 10.3609 14.7437V19.0338C10.3609 19.3138 10.1409 19.5338 9.8609 19.5338H5.57086C5.12116 19.5334 4.90169 18.9941 5.21149 18.6841L6.72125 17.1734C5.27135 15.7334 4.3609 13.7437 4.3609 11.5338C4.3609 9.97375 4.8116 8.53352 5.5816 7.29352L3.93121 5.6441C3.54125 5.25414 3.54133 4.62396 3.93121 4.23395C4.11804 4.0467 4.37177 3.94098 4.63629 3.94098ZM19.1509 3.53375C19.6008 3.53375 19.821 4.07333 19.5113 4.38336L18.0015 5.8941C19.4513 7.33408 20.3609 9.32391 20.3609 11.5338C20.3609 12.9438 19.9814 14.2539 19.3414 15.4039L17.8609 13.9234C18.1809 13.1934 18.3609 12.3837 18.3609 11.5338C18.3609 9.87375 17.6811 8.38375 16.6011 7.28375L15.2115 8.6734C14.9015 8.99339 14.3609 8.77377 14.3609 8.32379V3.53375H19.1509ZM9.04156 4.26422C9.65149 3.97432 10.3608 4.4037 10.3609 5.08356V5.27399C10.3608 5.57388 10.2014 5.84403 9.96149 6.02399L8.50153 4.56403C8.68149 4.46404 8.8516 4.35421 9.04156 4.26422Z" fill="#2F455C"/>
</g>
</svg>
