<svg width="24" height="24" viewBox="0 0 24 24" fill="none" xmlns="http://www.w3.org/2000/svg">
<g id="Notifications/Notification / phone-callback">
<path id="Icon Shape" d="M6.75174 3.02985C7.77173 3.02985 8.62197 3.78939 8.74197 4.79938L9.03201 7.31989C9.10184 7.92972 8.89159 8.52965 8.4617 8.95953L6.61209 10.8091C8.05208 13.6491 10.372 15.959 13.2019 17.399L15.0418 15.5591C15.4717 15.1293 16.0716 14.9199 16.6814 14.9898L19.2215 15.2798C20.2314 15.3998 20.9922 16.2494 20.9822 17.2593V18.9898C20.982 20.1196 20.0417 21.0597 18.9119 20.9898C10.3819 20.4598 3.55225 13.6392 3.02225 5.09918C2.95237 3.96927 3.89232 3.02985 5.02225 3.02985H6.75174ZM18.3015 3.29938C18.6915 2.9094 19.3217 2.90944 19.7117 3.29938C20.1017 3.68938 20.1017 4.31953 19.7117 4.70953L15.4021 9.0191H16.992C17.5418 9.01921 17.9918 9.46931 17.992 10.0191C17.992 10.569 17.5419 11.019 16.992 11.0191H12.992C12.442 11.0191 11.992 10.5691 11.992 10.0191V6.0191C11.9921 5.46925 12.4421 5.0191 12.992 5.0191C13.5418 5.01921 13.9918 5.46931 13.992 6.0191V7.60895L18.3015 3.29938Z" fill="#2F455C"/>
</g>
</svg>
