<svg width="24" height="24" viewBox="0 0 24 24" fill="none" xmlns="http://www.w3.org/2000/svg">
<g id="Notifications/Notification / wifi-off">
<path id="Icon Shape" d="M10.035 17.4151C11.265 16.7851 12.7252 16.7851 13.9452 17.4151C14.545 17.7252 14.645 18.535 14.1551 19.0049L12.6854 20.4747C12.2954 20.8647 11.6652 20.8647 11.2752 20.4747L9.80453 19.0049C9.33483 18.5349 9.44515 17.7251 10.035 17.4151ZM3.41 3.23248C3.67452 3.23248 3.92825 3.3382 4.11508 3.52545L19.6747 19.085C20.0647 19.475 20.0647 20.1047 19.6747 20.4747C19.2847 20.8646 18.6555 20.8646 18.2655 20.4747L11.8954 14.1046C10.5054 14.1346 9.11465 14.5546 7.92465 15.3946C7.35466 15.8046 6.58456 15.7547 6.09457 15.2647L6.08481 15.2549C5.48493 14.6549 5.52476 13.6446 6.21469 13.1446C7.19469 12.4346 8.27512 11.9348 9.40512 11.6348L7.17465 9.40533C6.02481 9.87532 4.92453 10.5151 3.92465 11.335C3.37466 11.7948 2.56446 11.7453 2.05453 11.2354C1.46455 10.6454 1.50512 9.66482 2.15512 9.13483C3.055 8.39495 4.03492 7.78516 5.04477 7.28522L2.70493 4.93463C2.31522 4.54471 2.31527 3.9154 2.70493 3.52545C2.89176 3.3382 3.14549 3.23248 3.41 3.23248ZM15.2655 11.8546C16.1554 12.1545 17.0051 12.5854 17.785 13.1553C18.3148 13.5353 18.4546 14.2248 18.2147 14.8047L15.2655 11.8546ZM9.29477 5.87506C13.6446 5.10508 18.2546 6.19503 21.8446 9.13483C22.4946 9.66483 22.5352 10.6454 21.9452 11.2354C21.4352 11.7453 20.6145 11.7852 20.0545 11.3253C17.6846 9.38533 14.7746 8.43491 11.8846 8.4649L9.29477 5.87506Z" fill="#2F455C"/>
</g>
</svg>
