<svg width="24" height="24" viewBox="0 0 24 24" fill="none" xmlns="http://www.w3.org/2000/svg">
<g id="Notifications/Notification / vibration">
<path id="Icon Shape" d="M16.5 3C17.33 3 18 3.67 18 4.5V19.5C18 20.33 17.33 21 16.5 21H7.5C6.67 21 6 20.33 6 19.5V4.5C6 3.67 6.67 3 7.5 3H16.5ZM8 5V19H16V5H8ZM4 7C4.55 7 5 7.45 5 8V16C5 16.55 4.55 17 4 17C3.45 17 3 16.55 3 16V8C3 7.45 3.45 7 4 7ZM20 7C20.55 7 21 7.45 21 8V16C21 16.55 20.55 17 20 17C19.45 17 19 16.55 19 16V8C19 7.45 19.45 7 20 7ZM1 9C1.55 9 2 9.45 2 10V14C2 14.55 1.55 15 1 15C0.45 15 0 14.55 0 14V10C0 9.45 0.45 9 1 9ZM23 9C23.55 9 24 9.45 24 10V14C24 14.55 23.55 15 23 15C22.45 15 22 14.55 22 14V10C22 9.45 22.45 9 23 9Z" fill="#2F455C"/>
</g>
</svg>
