<svg width="24" height="24" viewBox="0 0 24 24" fill="none" xmlns="http://www.w3.org/2000/svg">
<g id="Notifications/Notification / airline-seat_flat">
<path id="Icon Shape" d="M21 13.5C21.55 13.5 22 13.95 22 14.5C22 15.05 21.55 15.5 21 15.5H16V16.5C16 17.05 15.55 17.5 15 17.5H9C8.45 17.5 8 17.05 8 16.5V15.5H3C2.45 15.5 2 15.05 2 14.5C2 13.95 2.45 13.5 3 13.5H21ZM18 6.5C20.21 6.5 22 8.29 22 10.5V12.5H9V8.5C9 7.4 9.9 6.5 11 6.5H18ZM2.86035 7.40039C4.02034 6.2204 5.90961 6.20038 7.09961 7.36035C8.2796 8.52034 8.29962 10.4096 7.13965 11.5996C5.97966 12.7796 4.09039 12.7996 2.90039 11.6396C1.7204 10.4797 1.70038 8.59039 2.86035 7.40039Z" fill="#2F455C"/>
</g>
</svg>
