<svg width="24" height="24" viewBox="0 0 24 24" fill="none" xmlns="http://www.w3.org/2000/svg">
<g id="Notifications/Notification / sync-problem">
<path id="Icon Shape" d="M7.67969 4.73047C8.28963 4.4405 8.99986 4.86992 9 5.5498V5.74023C8.9999 6.11013 8.76962 6.42011 8.42969 6.58008C6.39984 7.54014 5 9.61011 5 12C5 13.6599 5.67983 15.15 6.75977 16.25L8.15039 14.8604C8.46038 14.5404 8.99997 14.76 9 15.21V19.5C9 19.78 8.78 20 8.5 20H4.20996C3.76018 20 3.54019 19.4604 3.84961 19.1504L5.36035 17.6396C3.91035 16.1996 3 14.21 3 12C3 8.77017 4.91992 5.99056 7.67969 4.73047ZM19.79 4C20.2398 4.00003 20.4598 4.53956 20.1504 4.84961L18.6396 6.36035C20.0896 7.80035 21 9.79 21 12C21 15.2299 19.0801 18.0097 16.3203 19.2598C15.7104 19.5497 15.0003 19.1202 15 18.4404V18.2598C15.0001 17.8899 15.2304 17.5799 15.5703 17.4199C17.6002 16.4599 19 14.3899 19 12C19 10.3401 18.3202 8.84999 17.2402 7.75L15.8496 9.13965C15.5396 9.45962 15 9.24001 15 8.79004V4.5C15 4.22 15.22 4 15.5 4H19.79ZM13 17H11V15H13V17ZM12 7C12.55 7 13 7.45 13 8V12C13 12.55 12.55 13 12 13C11.45 13 11 12.55 11 12V8C11 7.45 11.45 7 12 7Z" fill="#2F455C"/>
</g>
</svg>
