<svg width="24" height="24" viewBox="0 0 24 24" fill="none" xmlns="http://www.w3.org/2000/svg">
<g id="Notifications/Notification / phone-bluetooth_speaker">
<path id="Icon Shape" d="M6.75151 3.95221C7.77135 3.95221 8.62153 4.71198 8.74174 5.72174L9.03178 8.24225C9.10178 8.85224 8.89146 9.4519 8.46147 9.8819L6.61186 11.7325C8.05187 14.5724 10.3718 16.8824 13.2017 18.3223L15.0415 16.4825C15.4715 16.0525 16.0722 15.8422 16.6822 15.9122L19.2222 16.2022C20.232 16.3224 20.992 17.1728 20.982 18.1827V19.9122C20.982 21.0422 20.0417 21.9822 18.9117 21.9122C10.3818 21.3821 3.55216 14.5623 3.02202 6.02252C2.95202 4.89252 3.89202 3.95221 5.02202 3.95221H6.75151ZM17.3013 2.12213C17.4913 2.04213 17.7121 2.09248 17.8521 2.23248L20.0318 4.41217C20.1318 4.51217 20.1822 4.63252 20.1822 4.77252C20.1821 4.91232 20.1216 5.04197 20.0318 5.1319L18.2017 6.96198L20.0318 8.79205C20.2317 8.98202 20.2317 9.30201 20.0318 9.50201L17.8521 11.6827C17.7521 11.7826 17.6217 11.8321 17.4917 11.8321C17.4318 11.8321 17.3613 11.822 17.3013 11.7921C17.1116 11.712 16.9918 11.5221 16.9917 11.3223V8.17194L15.0415 10.1124C14.8515 10.3122 14.5315 10.3123 14.3316 10.1124C14.1317 9.92242 14.1318 9.60241 14.3316 9.4024L16.7818 6.95221L14.3316 4.49225C14.1317 4.30228 14.1317 3.98227 14.3316 3.78229C14.5216 3.58232 14.8415 3.58237 15.0415 3.78229L16.9917 5.73248V2.58209C16.9918 2.38227 17.1116 2.20219 17.3013 2.12213ZM18.0015 10.0919L18.9615 9.1319L18.0015 8.17194V10.0919ZM18.0015 5.72174L18.9615 4.76178L18.0015 3.80182V5.72174Z" fill="#2F455C"/>
</g>
</svg>
