<svg width="24" height="24" viewBox="0 0 24 24" fill="none" xmlns="http://www.w3.org/2000/svg">
<g id="Notifications/Notification / system-update">
<path id="Icon Shape" d="M17 1.00977C18.1 1.00977 19 1.9 19 3V21C19 22.1 18.1 23 17 23H7C5.9 23 5 22.1 5 21V3C5 1.9 5.9 1 7 1L17 1.00977ZM7 19H17V5H7V19ZM12 8C12.55 8 13 8.45 13 9V13H14.79C15.2398 13 15.4598 13.5396 15.1504 13.8496L12.3604 16.6396C12.1604 16.8396 11.8504 16.8396 11.6504 16.6396L8.86035 13.8496C8.54038 13.5396 8.75999 13 9.20996 13H11V9C11 8.45 11.45 8 12 8Z" fill="#2F455C"/>
</g>
</svg>
