<svg width="24" height="24" viewBox="0 0 24 24" fill="none" xmlns="http://www.w3.org/2000/svg">
<g id="Notifications/Notification / airline-seat_recline_extra">
<path id="Icon Shape" d="M3.35514 7.49954C3.82514 7.49954 4.2251 7.82982 4.3151 8.27982L6.12565 16.9595C6.34565 18.4195 7.60561 19.4995 9.08561 19.4995H15.1549C15.7049 19.4995 16.1549 19.9496 16.1549 20.4995C16.1549 21.0495 15.7049 21.4995 15.1549 21.4995H9.09538C6.62538 21.4995 4.52518 19.6993 4.14518 17.2593L2.39518 8.67923C2.27552 8.06947 2.73539 7.49965 3.35514 7.49954ZM7.54557 7.52982C7.8755 7.46987 8.21588 7.49941 8.5358 7.58939C8.80566 7.66938 9.06569 7.78937 9.29557 7.96927L10.9352 9.23978C11.9152 10.0098 13.2356 10.5299 14.5456 10.5699C15.1354 10.59 15.6255 11.0396 15.6256 11.6294C15.6256 12.2094 15.1549 12.7097 14.5749 12.6997C13.1051 12.6796 11.7551 12.1198 10.4753 11.3999L11.5055 15.4995H15.695C16.145 15.4995 16.5755 15.6495 16.9255 15.9195L21.2155 19.2701C21.7152 19.6601 21.765 20.3895 21.3151 20.8394C20.9451 21.2094 20.3455 21.2495 19.9255 20.9195L16.8356 18.4995H9.98502C8.54531 18.4994 7.31596 17.4797 7.0358 16.0601L5.68522 10.1402C5.47523 8.92026 6.29521 7.74994 7.52506 7.52982H7.54557ZM5.0153 3.35013C5.6453 2.45013 6.89534 2.22989 7.80534 2.85989C8.70525 3.49992 8.92555 4.73997 8.29557 5.64993C7.65565 6.54978 6.41548 6.76985 5.50553 6.14017C4.60563 5.50024 4.38556 4.2601 5.0153 3.35013Z" fill="#2F455C"/>
</g>
</svg>
