<svg width="24" height="24" viewBox="0 0 24 24" fill="none" xmlns="http://www.w3.org/2000/svg">
<g id="Notifications/Notification / event-available">
<path id="Icon Shape" d="M17 2C17.55 2 18 2.45 18 3V4H19C20.1 4 21 4.9 21 6V20C21 21.1 20.1 22 19 22H5C3.89 22 3 21.1 3 20L3.00977 6C3.00977 4.9 3.89 4 5 4H6V3C6 2.45 6.45 2 7 2C7.55 2 8 2.45 8 3V4H16V3C16 2.45 16.45 2 17 2ZM5 9V19C5 19.55 5.45 20 6 20H18C18.55 20 19 19.55 19 19V9H5ZM14.9404 11.5303C15.2304 11.2404 15.71 11.2403 16 11.5303C16.2898 11.8202 16.29 12.2999 15.9902 12.5898L11.29 17.29C10.9 17.68 10.2699 17.68 9.87988 17.29L7.94043 15.3496C7.65043 15.0596 7.65043 14.58 7.94043 14.29C8.23045 14.0002 8.71007 14.0001 9 14.29L10.5898 15.8799L14.9404 11.5303Z" fill="#2F455C"/>
</g>
</svg>
