<svg width="24" height="24" viewBox="0 0 24 24" fill="none" xmlns="http://www.w3.org/2000/svg">
<g id="Notifications/Notification / airline-seat_flat_angled">
<path id="Icon Shape" d="M1.69859 11.4395C1.88859 10.9195 2.46865 10.6489 2.98863 10.8389L20.1283 17.0186C20.6481 17.2085 20.9186 17.7887 20.7289 18.3086C20.5389 18.8285 19.9588 19.099 19.4388 18.9092L15.8587 17.6191V18.249C15.8587 18.799 15.4087 19.249 14.8587 19.249H8.85875C8.30875 19.249 7.85875 18.799 7.85875 18.249V14.7295L2.30894 12.7295C1.78908 12.5395 1.51887 11.9593 1.69859 11.4395ZM10.4486 8.16895C10.8286 7.13907 11.9683 6.60969 13.0082 6.97949L19.6986 9.38867C21.7986 10.1487 22.8787 12.4491 22.1087 14.5391L21.4183 16.4287L9.05894 11.959L10.4486 8.16895ZM4.55894 5.04883C6.05888 4.32907 7.84876 4.95932 8.56871 6.44922C9.27857 7.93918 8.64849 9.72925 7.15855 10.4492C5.65859 11.1691 3.86853 10.5388 3.15855 9.04883C2.4387 7.54887 3.06901 5.7588 4.55894 5.04883Z" fill="#2F455C"/>
</g>
</svg>
