<svg width="24" height="24" viewBox="0 0 24 24" fill="none" xmlns="http://www.w3.org/2000/svg">
<g id="Notifications/Notification / airline-seat_legroom_reduced">
<path id="Icon Shape" d="M12.5013 9H17.5013C18.6013 9 19.5013 9.9 19.5013 11L17.5013 18H18.9417C19.6715 18.0002 20.331 18.4903 20.471 19.2002C20.6509 20.1601 19.9212 21 19.0013 21H16.3108C15.0111 20.9997 14.0514 19.7796 14.3714 18.5098L15.5013 14H9.50128C7.85128 14 6.50128 12.65 6.50128 11V3H12.5013V9ZM4.50128 3C5.05128 3 5.50128 3.45 5.50128 4V12C5.50128 13.66 6.84128 15 8.50128 15H11.5013C12.0513 15 12.5013 15.45 12.5013 16C12.5013 16.55 12.0513 17 11.5013 17H8.50128C5.74128 17 3.50128 14.76 3.50128 12V4C3.50128 3.45 3.95128 3 4.50128 3Z" fill="#2F455C"/>
</g>
</svg>
