<svg width="24" height="24" viewBox="0 0 24 24" fill="none" xmlns="http://www.w3.org/2000/svg">
<g id="Notifications/Notification / power-off">
<path id="Icon Shape" d="M4.34004 3.96082C4.60455 3.96083 4.8583 4.06654 5.04512 4.25378L20.3654 19.5741C20.755 19.9641 20.7552 20.6041 20.3654 20.994C19.9755 21.3839 19.3453 21.3837 18.9553 20.994L15.1945 17.2333L14.715 17.7137V19.7137C14.715 20.2637 14.265 20.7137 13.715 20.7137H10.715C10.165 20.7137 9.71504 20.2637 9.71504 19.7137V17.7137L6.79512 14.7733C6.42531 14.4034 6.21515 13.8939 6.21504 13.3641V8.70398C6.21504 8.56402 6.23486 8.42379 6.26485 8.29382L3.63496 5.66394C3.24498 5.27395 3.245 4.64379 3.63496 4.25378C3.8218 4.06653 4.07552 3.96082 4.34004 3.96082ZM15.215 2.71375C15.765 2.71377 16.215 3.16376 16.215 3.71375V6.71375C17.205 6.70377 18.215 7.70399 18.215 8.70398V13.3739C18.215 13.7138 18.115 14.0437 17.965 14.3436L10.3352 6.71375H14.215V3.71375C14.215 3.16375 14.665 2.71375 15.215 2.71375ZM9.21504 2.71375C9.76502 2.71377 10.215 3.16376 10.215 3.71375V6.59363L8.21504 4.59363V3.71375C8.21504 3.16375 8.66504 2.71375 9.21504 2.71375Z" fill="#2F455C"/>
</g>
</svg>
