<svg width="24" height="24" viewBox="0 0 24 24" fill="none" xmlns="http://www.w3.org/2000/svg">
<g id="Notifications/Notification / network-check">
<path id="Icon Shape" d="M15.9002 4.76752C16.1802 4.76752 16.4001 4.98757 16.4002 5.26752L13.9607 18.1474L13.951 18.1777C13.761 19.0875 12.9508 19.7673 11.991 19.7675C10.881 19.7675 9.98033 18.8677 9.98026 17.7578C9.98026 17.4078 10.081 17.0878 10.241 16.7978L15.4207 5.1474L15.491 4.99799C15.5809 4.85808 15.7303 4.76764 15.9002 4.76752ZM16.3308 10.8779C16.8306 11.1278 17.3105 11.4074 17.7703 11.7372C18.4702 12.2272 18.5106 13.2573 17.9109 13.8574C17.4309 14.3374 16.6704 14.4175 16.1004 14.0175C16.0004 13.9376 15.89 13.8678 15.7801 13.7978L16.3308 10.8779ZM12.3103 9.87787L11.0301 12.7578C9.94024 12.9178 8.87032 13.3176 7.93046 13.9775C7.35052 14.3874 6.58085 14.3475 6.08085 13.8476C5.48087 13.2476 5.53056 12.2277 6.2205 11.7177C8.03045 10.4177 10.1804 9.81791 12.3103 9.87787ZM2.15019 7.72748C5.76017 4.77749 10.3705 3.6975 14.7205 4.47748L13.5301 7.15717C10.1903 6.73733 6.71081 7.6581 3.95097 9.91791C3.39101 10.3779 2.57035 10.3379 2.06034 9.82806C1.47038 9.2381 1.51031 8.2575 2.15019 7.72748ZM17.4002 5.1972C18.9802 5.7772 20.4806 6.61749 21.8406 7.72748C22.4906 8.25748 22.5302 9.23806 21.9402 9.82806C21.4302 10.3377 20.6207 10.3671 20.0408 9.90717C19.0609 9.10725 18.0008 8.48749 16.8709 8.01752L17.4002 5.1972Z" fill="#2F455C"/>
</g>
</svg>
