<svg width="24" height="24" viewBox="0 0 24 24" fill="none" xmlns="http://www.w3.org/2000/svg">
<g id="Notifications/Notification / sd-card_alert">
<path id="Icon Shape" d="M18 2C19.1 2 20 2.9 20 4V20C20 21.1 19.1 22 18 22H6C4.9 22 4 21.1 4 20L4.01953 8.82031C4.01953 8.30039 4.22971 7.78991 4.59961 7.41992L9.41016 2.58984C9.79014 2.20994 10.3002 2 10.8301 2H18ZM11 17H13V15H11V17ZM12 8C11.45 8 11 8.45 11 9V12C11 12.55 11.45 13 12 13C12.55 13 13 12.55 13 12V9C13 8.45 12.55 8 12 8Z" fill="#2F455C"/>
</g>
</svg>
