<svg width="24" height="24" viewBox="0 0 24 24" fill="none" xmlns="http://www.w3.org/2000/svg">
<g id="Notifications/Notification / drive-eta">
<path id="Icon Shape" d="M17.5 4C18.1599 4 18.7199 4.41989 18.9199 5.00977L20.8896 10.6797C20.9596 10.8896 21 11.1199 21 11.3398V18.5C21 19.33 20.32 20 19.5 20C18.67 20 18 19.32 18 18.5V18H6V18.5C6 19.33 5.33 20 4.5 20C3.67 20 3 19.33 3 18.5V11.3398C3.00002 11.1099 3.04037 10.8896 3.11035 10.6797L5.08008 5.00977C5.29014 4.41989 5.84009 4 6.5 4H17.5ZM6.5 12C5.67 12 5 12.67 5 13.5C5 14.33 5.67 15 6.5 15C7.33 15 8 14.33 8 13.5C8 12.67 7.33 12 6.5 12ZM17.5 12C16.67 12 16 12.67 16 13.5C16 14.33 16.67 15 17.5 15C18.33 15 19 14.33 19 13.5C19 12.67 18.33 12 17.5 12ZM7.21973 5.5C6.78989 5.50012 6.40954 5.77984 6.26953 6.17969L5 10H19L17.7305 6.17969C17.5905 5.77984 17.2101 5.50012 16.7803 5.5H7.21973Z" fill="#2F455C"/>
</g>
</svg>
