<svg width="24" height="24" viewBox="0 0 24 24" fill="none" xmlns="http://www.w3.org/2000/svg">
<g id="Notifications/Notification / voice-chat">
<path id="Icon Shape" d="M20 2C21.1 2 22 2.9 22 4V16C22 17.1 21.1 18 20 18H6L2 22L2.00977 4C2.00977 2.9 2.9 2 4 2H20ZM7 6C6.45 6 6 6.45 6 7V13C6 13.55 6.45 14 7 14H13C13.55 14 14 13.55 14 13V10.7998L16.3799 12.7002C17.0299 13.2202 18 12.7599 18 11.9199V8.08008C18 7.24009 17.0299 6.77983 16.3799 7.2998L14 9.2002V7C14 6.45 13.55 6 13 6H7Z" fill="#2F455C"/>
</g>
</svg>
