<svg width="24" height="24" viewBox="0 0 24 24" fill="none" xmlns="http://www.w3.org/2000/svg">
<g id="Notifications/Notification / phone-in_talk">
<path id="Icon Shape" d="M6.75151 3.01819C7.77136 3.01819 8.62154 3.77795 8.74175 4.78772L9.03179 7.30823C9.10177 7.91821 8.89147 8.51789 8.46148 8.94788L6.61187 10.7985C8.05187 13.6383 10.3718 15.9483 13.2017 17.3883L15.0416 15.5485C15.4716 15.1185 16.0722 14.9081 16.6822 14.9781L19.2222 15.2682C20.232 15.3884 20.992 16.2388 20.982 17.2487V18.9781C20.982 20.1082 20.0417 21.0481 18.9117 20.9781C10.3818 20.4481 3.55217 13.6283 3.02202 5.0885C2.95202 3.9585 3.89202 3.01819 5.02202 3.01819H6.75151ZM12.0318 7.88831C12.1718 7.34836 12.7216 7.02869 13.2515 7.16858C15.0015 7.61858 16.3714 8.98842 16.8414 10.7584C16.9713 11.2884 16.6516 11.8382 16.1216 11.9781C16.0417 11.9981 15.9516 12.0084 15.8716 12.0084C15.4218 12.0084 15.022 11.7082 14.9019 11.2584C14.6219 10.1984 13.8015 9.37803 12.7515 9.10803C12.2117 8.96792 11.8919 8.42817 12.0318 7.88831ZM13.1119 3.06799C17.2018 3.57801 20.4114 6.78856 20.9214 10.8785C20.9913 11.4284 20.6012 11.9287 20.0513 11.9987C20.0116 12.0085 19.9719 12.0084 19.9322 12.0084C19.4323 12.0084 19.0021 11.6384 18.9419 11.1285C18.5419 7.94854 16.0516 5.45823 12.8716 5.05823C12.3217 4.99815 11.9315 4.49783 12.0015 3.94788C12.0617 3.39802 12.562 3.008 13.1119 3.06799Z" fill="#2F455C"/>
</g>
</svg>
