<svg width="24" height="24" viewBox="0 0 24 24" fill="none" xmlns="http://www.w3.org/2000/svg">
<g id="Notifications/Notification / tv-off">
<path id="Icon Shape" d="M2.41504 2.64606C2.67954 2.64607 2.93329 2.75178 3.12012 2.93903L21.2598 21.0884H21.2305C21.5304 21.4784 21.5201 22.039 21.1602 22.399C20.7702 22.7889 20.14 22.7889 19.75 22.399L18.46 21.1089H3C1.90006 21.1089 1.00011 20.2089 1 19.1089V7.10895C1 6.16895 1.65027 5.38852 2.53027 5.16852L1.70996 4.34918C1.32001 3.95923 1.32012 3.32904 1.70996 2.93903C1.89679 2.75177 2.15052 2.64606 2.41504 2.64606ZM15.6396 1.45856C15.8396 1.25865 16.1496 1.25885 16.3496 1.45856C16.5496 1.65856 16.5496 1.96852 16.3496 2.16852L13.4102 5.10895H21C22.1 5.10895 23 5.99895 23 7.10895V19.1089C23 19.3688 22.9496 19.6185 22.8496 19.8384L21 17.9888V8.10895C21 7.55895 20.55 7.10895 20 7.10895H10.1201L8.12012 5.10895H10.5898L7.65039 2.16852C7.45039 1.96852 7.45039 1.65856 7.65039 1.45856C7.8504 1.25885 8.16045 1.25865 8.36035 1.45856L12 5.09918L15.6396 1.45856ZM4 7.10895C3.45 7.10895 3 7.55895 3 8.10895V18.1089C3.00011 18.6589 3.45006 19.1089 4 19.1089H16.46L4.45996 7.10895H4Z" fill="#2F455C"/>
</g>
</svg>
