<svg width="24" height="24" viewBox="0 0 24 24" fill="none" xmlns="http://www.w3.org/2000/svg">
<g id="Notifications/Notification / no-encryption">
<path id="Icon Shape" d="M4.32004 5.42651C4.58451 5.42652 4.8383 5.5313 5.02512 5.71851L20.3855 21.0886C20.7752 21.4786 20.7752 22.1088 20.3855 22.4988C19.9955 22.8887 19.3653 22.8886 18.9753 22.4988L18.6853 22.2087H5.905C4.805 22.2087 3.905 21.3087 3.905 20.2087V10.2087C3.905 9.45874 4.32504 8.80874 4.94504 8.45874L3.61496 7.12866C3.22502 6.73866 3.22498 6.10849 3.61496 5.71851C3.80178 5.53131 4.05557 5.42651 4.32004 5.42651ZM11.905 1.20874C14.665 1.20874 16.905 3.44874 16.905 6.20874V8.20874H17.905C19.005 8.20874 19.905 9.10874 19.905 10.2087V17.7683L10.3454 8.20874H15.0046V6.20874C15.0046 4.49874 13.615 3.10913 11.905 3.10913C10.195 3.10913 8.80539 4.49874 8.80539 6.20874V6.6687L7.08469 4.94897C7.64469 2.79897 9.585 1.20874 11.905 1.20874Z" fill="#2F455C"/>
</g>
</svg>
