<svg width="24" height="24" viewBox="0 0 24 24" fill="none" xmlns="http://www.w3.org/2000/svg">
<g id="Notifications/Notification / more">
<path id="Icon Shape" d="M21.8974 3C22.9974 3 23.8974 3.9 23.8974 5V19C23.8974 20.1 22.9974 21 21.8974 21H6.96774C6.27779 21 5.66759 20.6401 5.30758 20.1201L0.26754 12.5596C0.0477505 12.2197 0.0476792 11.7901 0.26754 11.4502L5.30758 3.87988C5.66757 3.34997 6.20751 3.00003 6.89742 3H21.8974ZM8.89742 10.5C8.06746 10.5 7.39742 11.17 7.39742 12C7.39742 12.83 8.06746 13.5 8.89742 13.5C9.72742 13.5 10.3974 12.83 10.3974 12C10.3974 11.17 9.72742 10.5 8.89742 10.5ZM13.8974 10.5C13.0675 10.5 12.3974 11.17 12.3974 12C12.3974 12.83 13.0675 13.5 13.8974 13.5C14.7274 13.5 15.3974 12.83 15.3974 12C15.3974 11.17 14.7274 10.5 13.8974 10.5ZM18.8974 10.5C18.0675 10.5 17.3974 11.17 17.3974 12C17.3974 12.83 18.0675 13.5 18.8974 13.5C19.7274 13.5 20.3974 12.83 20.3974 12C20.3974 11.17 19.7274 10.5 18.8974 10.5Z" fill="#2F455C"/>
</g>
</svg>
