<svg width="24" height="24" viewBox="0 0 24 24" fill="none" xmlns="http://www.w3.org/2000/svg">
<g id="Notifications/Notification / event-busy">
<path id="Icon Shape" d="M17 2C17.55 2 18 2.45 18 3V4H19C20.1 4 21 4.9 21 6V20C21 21.1 20.1 22 19 22H5C3.89 22 3 21.1 3 20L3.00977 6C3.00977 4.9 3.89 4 5 4H6V3C6 2.45 6.45 2 7 2C7.55 2 8 2.45 8 3V4H16V3C16 2.45 16.45 2 17 2ZM5 9V19C5 19.55 5.45 20 6 20H18C18.55 20 19 19.55 19 19V9H5ZM13.6602 11.5303C13.9502 11.2403 14.4297 11.2403 14.7197 11.5303C15.0097 11.8203 15.0097 12.2998 14.7197 12.5898L12.8096 14.5L14.7197 16.4102C15.0097 16.7002 15.0097 17.1797 14.7197 17.4697C14.4297 17.7597 13.9502 17.7597 13.6602 17.4697L11.75 15.5596L9.83984 17.4697C9.54984 17.7597 9.07027 17.7597 8.78027 17.4697C8.49027 17.1797 8.49027 16.7002 8.78027 16.4102L10.6904 14.5L8.78027 12.5898C8.49027 12.2998 8.49027 11.8203 8.78027 11.5303C9.07027 11.2403 9.54984 11.2403 9.83984 11.5303L11.75 13.4404L13.6602 11.5303Z" fill="#2F455C"/>
</g>
</svg>
