<svg width="24" height="24" viewBox="0 0 24 24" fill="none" xmlns="http://www.w3.org/2000/svg">
<g id="Notifications/Notification / wc">
<path id="Icon Shape" d="M8.69509 7C9.79509 7 10.6951 7.9 10.6951 9V13.5C10.6951 14.05 10.2451 14.5 9.69509 14.5H9.19509V21C9.19509 21.55 8.74509 22 8.19509 22H6.19509C5.64509 22 5.19509 21.55 5.19509 21V14.5H4.69509C4.14509 14.5 3.69509 14.05 3.69509 13.5V9C3.69509 7.9 4.59509 7 5.69509 7H8.69509ZM16.2547 7C17.1147 7 17.8751 7.55012 18.1551 8.37012L20.2547 14.6797C20.4646 15.3296 19.9853 15.9998 19.3054 16H17.6951V21C17.6951 21.55 17.2451 22 16.6951 22H15.6951C15.1451 22 14.6951 21.55 14.6951 21V16H13.0847C12.3949 15.9998 11.9156 15.3296 12.1355 14.6797L14.2351 8.37012C14.5051 7.55012 15.2755 7 16.1355 7H16.2547ZM7.19509 2C8.30509 2 9.19509 2.89 9.19509 4C9.19509 5.11 8.30509 6 7.19509 6C6.08509 6 5.19509 5.11 5.19509 4C5.19509 2.89 6.08509 2 7.19509 2ZM16.1951 2C17.3051 2 18.1951 2.89 18.1951 4C18.1951 5.11 17.3051 6 16.1951 6C15.0851 6 14.1951 5.11 14.1951 4C14.1951 2.89 15.0851 2 16.1951 2Z" fill="#2F455C"/>
</g>
</svg>
