<svg width="24" height="24" viewBox="0 0 24 24" fill="none" xmlns="http://www.w3.org/2000/svg">
<g id="Notifications/Notification / confirmation-number">
<path id="Icon Shape" d="M20 4C21.1 4 22 4.9 22 6V8.54004C22 9.23003 21.6596 9.91024 21.0596 10.2402C20.4298 10.5803 20 11.2402 20 12C20 12.7598 20.4298 13.4197 21.0596 13.7598C21.6596 14.0898 22 14.77 22 15.46V18C22 19.1 21.1 20 20 20H4C2.9 20 2 19.1 2 18V15.46C2.00001 14.77 2.34044 14.0898 2.94043 13.7598C3.57019 13.4297 4 12.7598 4 12C4 11.2401 3.58 10.5805 2.9502 10.2305C2.34021 9.91047 2.00978 9.23003 2.00977 8.54004V6C2.00977 4.89 2.9 4 4 4H20ZM11 17.5H13V15.5H11V17.5ZM11 13H13V11H11V13ZM11 6.5V8.5H13V6.5H11Z" fill="#2F455C"/>
</g>
</svg>
