<svg width="24" height="24" viewBox="0 0 24 24" fill="none" xmlns="http://www.w3.org/2000/svg">
<g id="Notifications/Notification / enhanced-encryption">
<path id="Icon Shape" d="M12 1.5C14.76 1.5 17 3.74 17 6.5V8.5H18C19.1 8.5 20 9.4 20 10.5V20.5C20 21.6 19.1 22.5 18 22.5H6C4.9 22.5 4 21.6 4 20.5V10.5C4 9.4 4.9 8.5 6 8.5H7V6.5C7 3.74 9.24 1.5 12 1.5ZM12 11.5C11.45 11.5 11 11.95 11 12.5V14.5H9C8.45 14.5 8 14.95 8 15.5C8 16.05 8.45 16.5 9 16.5H11V18.5C11 19.05 11.45 19.5 12 19.5C12.55 19.5 13 19.05 13 18.5V16.5H15C15.55 16.5 16 16.05 16 15.5C16 14.95 15.55 14.5 15 14.5H13V12.5C13 11.95 12.55 11.5 12 11.5ZM12 3.40039C10.29 3.40039 8.90039 4.79 8.90039 6.5V8.5H15.0996V6.5C15.0996 4.79 13.71 3.40039 12 3.40039Z" fill="#2F455C"/>
</g>
</svg>
