<svg width="24" height="24" viewBox="0 0 24 24" fill="none" xmlns="http://www.w3.org/2000/svg">
<g id="Notifications/Notification / airline-seat_legroom_extra">
<path id="Icon Shape" d="M10.4994 3.3139V9.3139H14.0092C14.7691 9.3139 15.4592 9.76388 15.7992 10.4438L19.2094 17.4243L20.2992 16.9243C21.0392 16.5843 21.9495 16.8341 22.3295 17.5541C22.7293 18.3141 22.399 19.2537 21.6391 19.6137L19.6899 20.5043C18.6999 20.9543 17.539 20.5439 17.059 19.5639L14.4994 14.3139H7.49943C5.83943 14.3139 4.49943 12.9739 4.49943 11.3139V3.3139H10.4994ZM2.49943 3.3139C3.04943 3.3139 3.49943 3.7639 3.49943 4.3139V12.3139C3.49943 13.9739 4.83943 15.3139 6.49943 15.3139H11.4994C12.0494 15.3139 12.4994 15.7639 12.4994 16.3139C12.4994 16.8639 12.0494 17.3139 11.4994 17.3139H6.49943C3.73943 17.3139 1.49943 15.0739 1.49943 12.3139V4.3139C1.49943 3.7639 1.94943 3.3139 2.49943 3.3139Z" fill="#2F455C"/>
</g>
</svg>
