<svg width="24" height="24" viewBox="0 0 24 24" fill="none" xmlns="http://www.w3.org/2000/svg">
<g id="Notifications/Notification / phone-missed">
<path id="Icon Shape" d="M0.912827 16.2917C7.23283 10.7018 16.7625 10.7018 23.0925 16.2917C23.9224 17.0318 23.9325 18.3416 23.1326 19.1316L21.9324 20.3318C21.2223 21.0416 20.1022 21.1011 19.3122 20.4812L17.3523 18.9216C16.8824 18.5417 16.6024 17.9717 16.6023 17.3718V14.7917C13.6123 13.8118 10.382 13.8218 7.40208 14.7917V17.3611C7.40208 17.9711 7.12208 18.5419 6.65208 18.9119L4.68236 20.4812C3.90236 21.1012 2.77224 21.0418 2.06224 20.3318L0.862045 19.1316C0.0722536 18.3416 0.0729004 17.0317 0.912827 16.2917ZM10.0027 3.09155C10.5526 3.09164 11.0027 3.54161 11.0027 4.09155C11.0027 4.6415 10.5526 5.09146 10.0027 5.09155H8.40208L11.9529 8.64136L16.9021 3.69116C17.0888 3.50399 17.3428 3.39926 17.6072 3.39917C17.8715 3.39917 18.1254 3.50411 18.3122 3.69116C18.7022 4.08116 18.7022 4.71132 18.3122 5.10132L12.6521 10.7615C12.2621 11.1513 11.6329 11.1513 11.2429 10.7615L7.00267 6.52124V8.09155C7.00267 8.6415 6.55259 9.09146 6.00267 9.09155C5.45267 9.09155 5.00267 8.64155 5.00267 8.09155V4.09155C5.00267 3.54155 5.45267 3.09155 6.00267 3.09155H10.0027Z" fill="#2F455C"/>
</g>
</svg>
