<svg width="24" height="24" viewBox="0 0 24 24" fill="none" xmlns="http://www.w3.org/2000/svg">
<g id="Notifications/Notification / mms">
<path id="Icon Shape" d="M20 2C21.1 2 22 2.9 22 4V16C22 17.1 21.1 18 20 18H6L2 22V4C2 2.9 2.9 2 4 2H20ZM14.9004 8.53027C14.7004 8.26031 14.2996 8.25964 14.0996 8.51953L11 12.5098L8.90039 9.98047C8.70039 9.73047 8.32012 9.74023 8.12012 9.99023L5.62988 13.1904C5.37039 13.5203 5.60995 13.9994 6.01953 14.0098H18.0098C18.4197 14.0098 18.6601 13.54 18.4102 13.21L14.9004 8.53027Z" fill="#2F455C"/>
</g>
</svg>
