<svg width="24" height="24" viewBox="0 0 24 24" fill="none" xmlns="http://www.w3.org/2000/svg">
<g id="Notifications/Notification / do-disturb_alt">
<path id="Icon Shape" d="M12 2C17.5 2 22 6.5 22 12C22 17.5 17.5 22 12 22C6.5 22 2 17.5 2 12C2 6.5 6.5 2 12 2ZM7.09961 18.2998C8.49961 19.3998 10.2 20 12 20C16.4 20 20 16.4 20 12C20 10.2 19.3998 8.49961 18.2998 7.09961L7.09961 18.2998ZM12 4C7.6 4 4 7.6 4 12C4 13.8 4.6002 15.5004 5.7002 16.9004L16.9004 5.7002C15.5004 4.6002 13.8 4 12 4Z" fill="#2F455C"/>
</g>
</svg>
