<svg width="24" height="24" viewBox="0 0 24 24" fill="none" xmlns="http://www.w3.org/2000/svg">
<g id="Notifications/Notification / network-locked">
<path id="Icon Shape" d="M18.793 12.7969C20.173 12.7969 21.2929 13.917 21.293 15.2969V15.7969C21.843 15.7969 22.2929 16.247 22.293 16.7969V20.7969C22.293 21.3469 21.843 21.7969 21.293 21.7969H16.293C15.7431 21.7968 15.293 21.3468 15.293 20.7969V16.7969C15.2931 16.247 15.7431 15.797 16.293 15.7969V15.2969C16.2931 13.917 17.4131 12.797 18.793 12.7969ZM17.583 2.4971C18.213 1.8671 19.293 2.31706 19.293 3.20706V10.8467C19.1231 10.8267 18.9629 10.7969 18.793 10.7969C16.5831 10.797 14.7433 12.3972 14.3633 14.4971C13.7133 15.0571 13.293 15.8769 13.293 16.7969V19.7969H2.70316C1.81326 19.7968 1.37314 18.7169 2.00296 18.0869L17.583 2.4971ZM18.793 13.7969C17.9631 13.797 17.2931 14.467 17.293 15.2969V15.7969H20.293V15.2969C20.2929 14.467 19.623 13.7969 18.793 13.7969Z" fill="#2F455C"/>
</g>
</svg>
