<svg width="24" height="24" viewBox="0 0 24 24" fill="none" xmlns="http://www.w3.org/2000/svg">
<g id="Notifications/Notification / folder-special">
<path id="Icon Shape" d="M9.16992 4C9.69985 4 10.2099 4.20994 10.5898 4.58984L12 6H20C21.1 6 22 6.9 22 8V18C22 19.1 21.1 20 20 20H4C2.9 20 2 19.1 2 18V6C2 4.9 2.9 4 4 4H9.16992ZM15.4502 9.07031C15.2802 8.67031 14.7003 8.67031 14.5303 9.07031L13.6504 11.1299L11.4199 11.3203C10.98 11.3604 10.8098 11.9102 11.1396 12.2002L12.8301 13.6602L12.3203 15.8604C12.2206 16.2901 12.6797 16.6297 13.0596 16.4102L15 15.2803L16.9404 16.4102C17.3103 16.6296 17.7698 16.29 17.6602 15.8604L17.1504 13.6602L18.8398 12.2002C19.1798 11.9102 18.9996 11.3603 18.5596 11.3203L16.3301 11.1299L15.4502 9.07031Z" fill="#2F455C"/>
</g>
</svg>
