<svg width="24" height="24" viewBox="0 0 24 24" fill="none" xmlns="http://www.w3.org/2000/svg">
<g id="Notifications/Notification / phone-forwarded">
<path id="Icon Shape" d="M5.85118 3.66913C6.8711 3.66913 7.72131 4.42878 7.84142 5.43866L8.13145 7.95917C8.20136 8.56906 7.99106 9.16888 7.56114 9.59882L5.71153 11.4494C7.15155 14.2892 9.47155 16.5993 12.3014 18.0392L14.1412 16.1994C14.5711 15.7695 15.171 15.5592 15.7809 15.6291L18.3209 15.9191C19.3308 16.0391 20.0915 16.8888 20.0816 17.8986V19.6291C20.0816 20.759 19.1412 21.699 18.0113 21.6291C9.48134 21.0991 2.65071 14.2785 2.12071 5.73846C2.05102 4.60884 2.99109 3.6694 4.12071 3.66913H5.85118ZM17.0914 2.86932C17.0914 2.41946 17.6308 2.19917 17.9508 2.51874L21.7408 6.30878C21.9308 6.49878 21.9311 6.81897 21.7311 7.00897L17.941 10.799C17.6311 11.1187 17.0918 10.899 17.0914 10.4494V8.65936H13.5914C13.3116 8.65936 13.0916 8.43915 13.0914 8.15936V5.15936C13.0914 4.87936 13.3114 4.65936 13.5914 4.65936H17.0914V2.86932Z" fill="#2F455C"/>
</g>
</svg>
