<svg width="24" height="24" viewBox="0 0 24 24" fill="none" xmlns="http://www.w3.org/2000/svg">
<g id="Notifications/Notification / rv-hookup">
<path id="Icon Shape" d="M5.12988 7.50696C5.4399 7.18711 5.98047 7.40759 5.98047 7.85754V8.64758H17C18.1 8.64758 19 9.54758 19 10.6476V16.6476H20C20.55 16.6476 21 17.0976 21 17.6476C20.9998 18.1974 20.5499 18.6476 20 18.6476H13C12.9998 20.3074 11.6599 21.6476 10 21.6476C8.3401 21.6476 7.00016 20.3074 7 18.6476H5C3.9001 18.6476 3.00017 17.7474 3 16.6476V13.6476H10V10.6476H5.98047V11.4474C5.98038 11.8873 5.44986 12.117 5.12988 11.797L3.33984 10.007C3.14008 9.80695 3.13992 9.49692 3.33984 9.297L5.12988 7.50696ZM10 17.6476C9.45 17.6476 9 18.0976 9 18.6476C9.00017 19.1974 9.4501 19.6476 10 19.6476C10.5499 19.6476 10.9998 19.1974 11 18.6476C11 18.0976 10.55 17.6476 10 17.6476ZM13 13.6476H17V10.6476H13V13.6476ZM16 2.85754C16 2.40766 16.5396 2.18754 16.8496 2.49719L18.6396 4.28723C18.8396 4.48723 18.8396 4.79719 18.6396 4.99719L16.8496 6.78723C16.5397 7.1069 16.0003 6.88731 16 6.43762V5.64758H9C8.4501 5.64758 8.00017 5.19744 8 4.64758C8 4.09758 8.45 3.64758 9 3.64758H16V2.85754Z" fill="#2F455C"/>
</g>
</svg>
