<svg width="24" height="24" viewBox="0 0 24 24" fill="none" xmlns="http://www.w3.org/2000/svg">
<g id="Notifications/Notification / bluetooth-audio">
<path id="Icon Shape" d="M8.78102 3.41486C8.78115 2.52505 9.86099 2.07522 10.491 2.7049L14.781 6.99493C15.171 7.39493 15.171 8.02486 14.781 8.41486L11.1912 11.9949L14.7908 15.575C15.1808 15.975 15.1808 16.6049 14.7908 16.9949L10.491 21.2947C9.86098 21.9247 8.78102 21.4748 8.78102 20.5848V14.4051L4.89137 18.2947C4.50137 18.6847 3.87122 18.6847 3.48122 18.2947C3.09137 17.9047 3.09127 17.2745 3.48122 16.8846L8.37086 11.9949L3.48122 7.10529C3.09124 6.71531 3.09129 6.08514 3.48122 5.69513C3.66805 5.50788 3.92178 5.40216 4.18629 5.40216C4.4508 5.40217 4.70455 5.50789 4.89137 5.69513L8.78102 9.59454V3.41486ZM10.781 18.1649L12.6609 16.285L10.781 14.4051V18.1649ZM18.5017 7.53497C18.9218 7.10527 19.6512 7.22532 19.9011 7.77521C20.481 9.03505 20.8012 10.4348 20.8113 11.8846C20.8113 13.4246 20.4608 14.8854 19.8308 16.1854C19.5806 16.705 18.8911 16.8247 18.4812 16.4149C18.2314 16.165 18.1813 15.7953 18.3211 15.4754C18.791 14.4054 19.0515 13.2251 19.0515 11.9852C19.0515 10.7552 18.7908 9.58539 18.3308 8.51544C18.1908 8.17544 18.2417 7.79497 18.5017 7.53497ZM15.781 10.2752C16.061 9.99521 16.5309 10.1354 16.6209 10.5154C16.7408 10.9853 16.8015 11.4851 16.8015 11.9949C16.8015 12.5149 16.7416 13.0154 16.6316 13.5154C16.5314 13.8952 16.0609 14.0249 15.781 13.7449L14.4011 12.3651C14.2012 12.1651 14.2012 11.8551 14.4011 11.6551L15.781 10.2752ZM10.781 9.58478L12.6609 7.7049L10.781 5.82501V9.58478Z" fill="#2F455C"/>
</g>
</svg>
