<svg width="24" height="24" viewBox="0 0 24 24" fill="none" xmlns="http://www.w3.org/2000/svg">
<g id="Notifications/Notification / vpn-lock">
<path id="Icon Shape" d="M11 3C12.05 3 13.05 3.15996 14 3.45996V6C14 7.1 13.1 8 12 8H10V10C10 10.55 9.55 11 9 11H7V13H13C13.55 13 14 13.45 14 14V17H15C15.8999 17 16.6403 17.5798 16.9004 18.3896C18.2002 16.9697 19 15.0798 19 13C19 12.66 18.9599 12.33 18.9199 12H20.9502C20.9802 12.33 21 12.66 21 13C21 18.52 16.52 23 11 23C5.48 23 1 18.52 1 13C1 7.48 5.48 3 11 3ZM3.20996 11.21C3.07996 11.79 3 12.38 3 13C3 17.08 6.05002 20.4397 10 20.9297V19C8.9 19 8 18.1 8 17V16L3.20996 11.21ZM19.5 1C20.88 1 22 2.12 22 3.5V4C22.55 4 23 4.45 23 5V9C23 9.55 22.55 10 22 10H17C16.45 10 16 9.55 16 9V5C16 4.45 16.45 4 17 4V3.5C17 2.12 18.12 1 19.5 1ZM19.5 2C18.67 2 18 2.67 18 3.5V4H21V3.5C21 2.67 20.33 2 19.5 2Z" fill="#2F455C"/>
</g>
</svg>
