<svg width="24" height="24" viewBox="0 0 24 24" fill="none" xmlns="http://www.w3.org/2000/svg">
<g id="Notifications/Notification / adb">
<path id="Icon Shape" d="M19 15.7796C19 19.6496 15.87 22.7796 12 22.7796C8.13 22.7796 5 19.6496 5 15.7796V11.7796H19V15.7796ZM18.2197 2.05008L16.1201 4.14969C17.86 5.41961 18.9999 7.45975 19 9.77957V10.7796H5V9.77957C5.00014 7.45975 6.13999 5.41961 7.87988 4.14969L5.78027 2.05008L6.59961 1.22L8.91016 3.52957C9.84008 3.05966 10.8801 2.77957 12 2.77957C13.1198 2.77957 14.1597 3.05972 15.0996 3.52957L17.4004 1.22L18.2197 2.05008ZM9 6.77957C8.45014 6.77957 8.00023 7.22977 8 7.77957C8 8.32957 8.45 8.77957 9 8.77957C9.55 8.77957 10 8.32957 10 7.77957C9.99977 7.22977 9.54986 6.77957 9 6.77957ZM15 6.77957C14.4501 6.77957 14.0002 7.22977 14 7.77957C14 8.32957 14.45 8.77957 15 8.77957C15.55 8.77957 16 8.32957 16 7.77957C15.9998 7.22977 15.5499 6.77957 15 6.77957Z" fill="#2F455C"/>
</g>
</svg>
