<svg width="24" height="24" viewBox="0 0 24 24" fill="none" xmlns="http://www.w3.org/2000/svg">
<g id="Notifications/Notification / do-disturb_off">
<path id="Icon Shape" d="M2.70629 2.24585C2.97079 2.24586 3.22454 2.35157 3.41137 2.53882L21.4612 20.5886C21.8512 20.9786 21.8513 21.6088 21.4514 21.9988C21.0614 22.3888 20.4312 22.3888 20.0412 21.9988L17.9709 19.9285C16.361 21.0484 14.4012 21.7087 12.2912 21.7087C6.77125 21.7087 2.29125 17.2287 2.29125 11.7087C2.29125 9.59874 2.95152 7.63831 4.07152 6.01831L2.00121 3.94897C1.61123 3.55899 1.61127 2.92882 2.00121 2.53882C2.18804 2.35157 2.44177 2.24585 2.70629 2.24585ZM12.2912 1.70874C17.8112 1.70874 22.2912 6.18874 22.2912 11.7087C22.2912 13.6687 21.7214 15.4988 20.7414 17.0388L16.4114 12.7087H17.2912V10.7087H14.4114L6.96117 3.25854C8.50116 2.27856 10.3313 1.70874 12.2912 1.70874ZM7.29125 10.7087V12.7087H10.7512L8.75121 10.7087H7.29125Z" fill="#2F455C"/>
</g>
</svg>
