<svg width="24" height="24" viewBox="0 0 24 24" fill="none" xmlns="http://www.w3.org/2000/svg">
<g id="Notifications/Notification / live-tv">
<path id="Icon Shape" d="M15.6396 2.24982C15.8396 2.04991 16.1496 2.05011 16.3496 2.24982C16.5496 2.44982 16.5496 2.75978 16.3496 2.95978L13.4102 5.90021H21C22.1 5.90021 23 6.79021 23 7.90021V19.9002C22.9999 21.0001 22.0999 21.9002 21 21.9002H3C1.90007 21.9002 1.00011 21.0001 1 19.9002V7.90021C1 6.79021 1.9 5.90021 3 5.90021H10.5898L7.65039 2.95978C7.45039 2.75978 7.45039 2.44982 7.65039 2.24982C7.8504 2.05011 8.16045 2.04991 8.36035 2.24982L12 5.89044L15.6396 2.24982ZM4 7.90021C3.45 7.90021 3 8.35021 3 8.90021V18.9002C3.00011 19.4501 3.45006 19.9002 4 19.9002H20C20.5499 19.9002 20.9999 19.4501 21 18.9002V8.90021C21 8.35021 20.55 7.90021 20 7.90021H4ZM9 11.6199C9.00006 10.86 9.83004 10.3699 10.5 10.7498L14.4805 13.0301C15.15 13.4202 15.1501 14.3903 14.4805 14.7703L10.5 17.0496C9.83 17.4296 9 16.9397 9 16.1697V11.6199Z" fill="#2F455C"/>
</g>
</svg>
