<svg width="24" height="24" viewBox="0 0 24 24" fill="none" xmlns="http://www.w3.org/2000/svg">
<g id="Notifications/Notification / tap-and_play">
<path id="Icon Shape" d="M3.5 20C5.16 20 6.5 21.34 6.5 23H3.5V20ZM4.63965 16.0898C7.59965 16.5698 9.93016 18.9104 10.4102 21.8604C10.4999 22.4602 10.02 22.9999 9.41016 23C8.92027 23 8.50982 22.6402 8.42969 22.1504C8.06969 20.0704 6.42961 18.4303 4.34961 18.0703C3.85978 17.9902 3.5 17.5797 3.5 17.0898C3.50009 16.48 4.03985 15.9901 4.63965 16.0898ZM4.61035 12.0596C9.81021 12.5797 13.9304 16.7005 14.4404 21.9004C14.5001 22.4901 14.0301 22.9998 13.4404 23C12.9305 23 12.5003 22.6201 12.4502 22.1201C12.0402 17.8502 8.64006 14.4501 4.37012 14.04C3.87012 13.99 3.5 13.5498 3.5 13.0498C3.50011 12.4599 4.02042 11.9996 4.61035 12.0596ZM18.5 1.00977C19.6 1.00977 20.5 1.9 20.5 3V20C20.5 21.1 19.6 22 18.5 22H16.4199C16.3099 20.59 15.9897 19.25 15.4697 18H18.5V5H8.5V11.0098C7.86003 10.7398 7.18996 10.5301 6.5 10.3701V3C6.5 1.9 7.4 1 8.5 1L18.5 1.00977Z" fill="#2F455C"/>
</g>
</svg>
