<svg width="24" height="24" viewBox="0 0 24 24" fill="none" xmlns="http://www.w3.org/2000/svg">
<g id="Notifications/Notification / phone-locked">
<path id="Icon Shape" d="M6.74656 4.02295C7.76656 4.02295 8.6168 4.78346 8.7368 5.79346L9.02684 8.31299C9.09684 8.92299 8.88652 9.52361 8.45652 9.95361L6.60691 11.8032C8.0469 14.6432 10.3668 16.9531 13.1968 18.3931L15.0366 16.5532C15.4666 16.1232 16.0672 15.9129 16.6772 15.9829L19.2173 16.2729C20.2271 16.3931 20.987 17.2435 20.977 18.2534V19.9829C20.977 21.1129 20.0367 22.0529 18.9067 21.9829C10.3768 21.4528 3.54711 14.6332 3.01707 6.09326C2.94707 4.96326 3.88707 4.02295 5.01707 4.02295H6.74656ZM17.4868 2.01318C18.8668 2.01318 19.9868 3.13318 19.9868 4.51318V5.01318C20.5368 5.01318 20.9868 5.46318 20.9868 6.01318V10.0132C20.9868 10.5632 20.5368 11.0132 19.9868 11.0132H14.9868C14.4368 11.0132 13.9868 10.5632 13.9868 10.0132V6.01318C13.9868 5.4632 14.4368 5.01321 14.9868 5.01318V4.51318C14.9868 3.1332 16.1068 2.01321 17.4868 2.01318ZM17.4868 3.01318C16.6568 3.01321 15.9868 3.6832 15.9868 4.51318V5.01318H18.9868V4.51318C18.9868 3.68318 18.3168 3.01318 17.4868 3.01318Z" fill="#2F455C"/>
</g>
</svg>
