<svg width="24" height="24" viewBox="0 0 24 24" fill="none" xmlns="http://www.w3.org/2000/svg">
<g id="Notifications/Notification / ondemand-video">
<path id="Icon Shape" d="M21 3C22.1 3 23 3.89 23 5L22.9902 17C22.9902 18.1 22.1 19 21 19H16V20C16 20.55 15.55 21 15 21H9C8.45 21 8 20.55 8 20V19H3C1.9 19 1 18.1 1 17V5C1 3.9 1.9 3 3 3H21ZM4 5C3.45 5 3 5.45 3 6V16C3 16.55 3.45 17 4 17H20C20.55 17 21 16.55 21 16V6C21 5.45 20.55 5 20 5H4ZM9 8.71973C9.0002 7.94995 9.83011 7.46983 10.5 7.84961L14.4805 10.1299C15.1501 10.5199 15.1501 11.4801 14.4805 11.8701L10.5 14.1504C9.83011 14.5302 9.0002 14.0401 9 13.2803V8.71973Z" fill="#2F455C"/>
</g>
</svg>
