<svg width="24" height="24" viewBox="0 0 24 24" fill="none" xmlns="http://www.w3.org/2000/svg">
<g id="Notifications/Notification / wifi">
<path id="Icon Shape" d="M10.0266 16.2104C11.2565 15.5805 12.7167 15.5805 13.9367 16.2104C14.5367 16.5204 14.6372 17.3303 14.1672 17.8003L12.6974 19.27C12.3075 19.66 11.6773 19.6599 11.2873 19.27L9.81659 17.8003C9.3468 17.3304 9.45702 16.5206 10.0266 16.2104ZM6.20721 11.9497C9.65719 9.45993 14.3474 9.45978 17.7873 11.9497C18.4772 12.4397 18.5171 13.4601 17.9172 14.0601L17.9074 14.0698C17.4174 14.5598 16.6473 14.5996 16.0773 14.1997C13.6374 12.4698 10.3571 12.4699 7.91718 14.1997C7.34718 14.6097 6.5771 14.5598 6.0871 14.0698C5.47714 13.4598 5.51723 12.4497 6.20721 11.9497ZM2.15741 7.93994C7.87736 3.27022 16.137 3.27011 21.8469 7.93994C22.4967 8.4698 22.537 9.4495 21.9474 10.0396C21.4375 10.5495 20.6168 10.5903 20.0568 10.1304C15.3768 6.30037 8.59694 6.30014 3.92694 10.1401C3.37694 10.6001 2.5668 10.5495 2.05682 10.0396C1.45716 9.43952 1.50752 8.45985 2.15741 7.93994Z" fill="#2F455C"/>
</g>
</svg>
