<svg width="24" height="24" viewBox="0 0 24 24" fill="none" xmlns="http://www.w3.org/2000/svg">
<g id="Notifications/Notification / airline-seat_recline_normal">
<path id="Icon Shape" d="M9.49028 7.46613C9.83018 7.46617 10.1603 7.55663 10.4502 7.69659C10.7101 7.81659 10.9498 7.98668 11.1397 8.19659L12.5401 9.7464C13.4101 10.7063 14.8701 11.4761 16.2901 11.7161C16.82 11.8061 17.2099 12.2361 17.21 12.7659C17.21 13.4459 16.5802 13.9459 15.9102 13.806C14.3702 13.486 12.8 12.6764 11.71 11.7864V15.4661H14.3096C14.8396 15.4661 15.3498 15.6763 15.7198 16.0462L19.4903 19.8167C19.8899 20.2167 19.8901 20.8565 19.4903 21.2464C19.1003 21.6364 18.4496 21.6364 18.0596 21.2464L15.2803 18.4661H10.21C8.55001 18.4661 7.21001 17.1261 7.21001 15.4661V9.71613C7.21007 8.47618 8.22005 7.46613 9.46001 7.46613H9.49028ZM5.21001 7.46613C5.75997 7.46613 6.20994 7.91618 6.21001 8.46613V16.4661C6.21001 18.1261 7.55001 19.4661 9.21001 19.4661H14.21C14.76 19.4661 15.2099 19.9162 15.21 20.4661C15.21 21.0161 14.76 21.4661 14.21 21.4661H9.21001C6.45001 21.4661 4.21001 19.2261 4.21001 16.4661V8.46613C4.21007 7.91618 4.66005 7.46613 5.21001 7.46613ZM7.79985 3.0462C8.57983 2.26622 9.84992 2.26626 10.6299 3.0462C11.4099 3.8262 11.4099 5.09628 10.6299 5.87628C9.83992 6.66622 8.57983 6.66626 7.79985 5.87628C7.01993 5.0963 7.01993 3.82619 7.79985 3.0462Z" fill="#2F455C"/>
</g>
</svg>
