<svg width="24" height="24" viewBox="0 0 24 24" fill="none" xmlns="http://www.w3.org/2000/svg">
<path fill-rule="evenodd" clip-rule="evenodd" d="M4 1C2.34315 1 1 2.34315 1 4V11C1 12.6569 2.34315 14 4 14H4.5C5.05228 14 5.5 13.5523 5.5 13C5.5 12.4477 5.05228 12 4.5 12H4C3.44772 12 3 11.5523 3 11V4.21619L9.5 8.71619L16 4.21618V9C16 9.55228 16.4477 10 17 10C17.5523 10 18 9.55228 18 9V4C18 2.34315 16.6569 1 15 1H4ZM14.2431 3H4.75692L9.5 6.28367L14.2431 3ZM9 11C7.89543 11 7 11.8954 7 13V21C7 22.1046 7.89543 23 9 23H21C22.1046 23 23 22.1046 23 21V13C23 11.8954 22.1046 11 21 11H9ZM9 21V17H21V21H9ZM21 13V14H9V13H21Z" fill="#2F455C"/>
</svg>
