<svg width="24" height="24" viewBox="0 0 24 24" fill="none" xmlns="http://www.w3.org/2000/svg">
<path fill-rule="evenodd" clip-rule="evenodd" d="M1 4C1 2.34315 2.34315 1 4 1H15C16.6569 1 18 2.34315 18 4V9C18 9.55228 17.5523 10 17 10C16.4477 10 16 9.55228 16 9V4.21618L9.5 8.71619L3 4.21619V11C3 11.5523 3.44772 12 4 12H4.5C5.05229 12 5.5 12.4477 5.5 13C5.5 13.5523 5.05229 14 4.5 14H4C2.34315 14 1 12.6569 1 11V4ZM9.5 6.28367L4.75693 3H14.2431L9.5 6.28367ZM7 13C7 11.8954 7.89543 11 9 11H21C22.1046 11 23 11.8954 23 13V21C23 22.1046 22.1046 23 21 23H9C7.89544 23 7 22.1046 7 21V13ZM18.2616 16.6567H17.615V15.0094C17.615 14.839 17.4629 14.6875 17.2917 14.6875H14.363C14.0017 14.6875 13.7165 14.4035 13.7165 14.0437C13.7165 13.6839 14.0017 13.3999 14.363 13.3999H18.9272V15.994C18.9272 16.3537 18.6229 16.6567 18.2616 16.6567ZM16.9494 18.607H16.3028V19.8766C16.3028 20.2363 16.0175 20.5393 15.6562 20.5393H11.0731V17.9263C11.0731 17.5665 11.3583 17.2825 11.7197 17.2825H12.3853L15.9688 17.2816C16.1519 17.26 16.2977 17.1327 16.3027 16.9512C16.2978 16.7843 16.1478 16.6378 15.9795 16.6378H13.0318C12.6705 16.6378 12.3853 16.3538 12.3853 15.994C12.3853 15.6342 12.6705 15.3502 13.0318 15.3502H17.2917C17.4628 15.3502 17.615 15.1987 17.615 15.0283V17.9443C17.615 18.3041 17.3107 18.607 16.9494 18.607Z" fill="#2F455C"/>
</svg>
