<svg width="24" height="24" viewBox="0 0 24 24" fill="none" xmlns="http://www.w3.org/2000/svg">
<g id="Others/star-outline">
<path id="Icon Shape" d="M11.0783 4.42432C11.4183 3.61439 12.578 3.61452 12.9181 4.42432L14.8088 8.87451L19.6486 9.29443C20.5286 9.36449 20.8782 10.4645 20.2082 11.0444L16.5383 14.2241L17.6388 18.9546C17.8386 19.8144 16.9085 20.4944 16.1486 20.0347L11.9982 17.5239L7.8488 20.0239C7.08892 20.4839 6.15895 19.8046 6.35857 18.9448L7.45818 14.2241L3.78826 11.0444C3.11845 10.4644 3.47863 9.36443 4.35857 9.29443L9.18865 8.88428L11.0783 4.42432ZM10.299 10.3843L5.91814 10.7642L9.23845 13.644L8.23845 17.9243L11.9982 15.6548L15.7687 17.9341L14.7687 13.6548L18.0881 10.7739L13.7082 10.394L11.9982 6.354L10.299 10.3843Z" fill="#2F455C"/>
</g>
</svg>
