<svg width="24" height="24" viewBox="0 0 24 24" fill="none" xmlns="http://www.w3.org/2000/svg">
<g id="Others/star-border">
<path id="Icon Shape" fill-rule="evenodd" clip-rule="evenodd" d="M14.8085 8.87439L19.6485 9.29439C20.5285 9.36439 20.8785 10.4644 20.2085 11.0444L16.5385 14.2244L17.6385 18.9544C17.8385 19.8144 16.9085 20.4944 16.1485 20.0344L11.9985 17.5244L7.84854 20.0244C7.08854 20.4844 6.15854 19.8044 6.35854 18.9444L7.45854 14.2244L3.78854 11.0444C3.11854 10.4644 3.47854 9.36439 4.35854 9.29439L9.18854 8.88439L11.0785 4.42439C11.4185 3.61439 12.5785 3.61439 12.9185 4.42439L14.8085 8.87439ZM8.23854 17.9244L11.9985 15.6544L15.7685 17.9344L14.7685 13.6544L18.0885 10.7744L13.7085 10.3944L11.9985 6.35439L10.2985 10.3844L5.91854 10.7644L9.23854 13.6444L8.23854 17.9244Z" fill="#2F455C"/>
</g>
</svg>
