<svg width="24" height="24" viewBox="0 0 24 24" fill="none" xmlns="http://www.w3.org/2000/svg">
<g id="Places/hot-tub">
<path id="Icon Shape" d="M7.28027 8.5C7.62018 8.50005 7.95031 8.59051 8.24023 8.73047C8.50009 8.85046 8.73978 9.02057 8.92969 9.23047L10.3301 10.7803C10.56 11.0402 10.8405 11.2801 11.1504 11.5H21C21.55 11.5 22 11.95 22 12.5V19.5C22 20.6 21.1 21.5 20 21.5H4C2.9 21.5 2 20.6 2 19.5V12.5C2 11.95 2.45 11.5 3 11.5H5V10.75C5 9.51 6.01 8.5 7.25 8.5H7.28027ZM6 13.5C5.45 13.5 5 13.95 5 14.5V18.5C5 19.05 5.45 19.5 6 19.5C6.55 19.5 7 19.05 7 18.5V14.5C7 13.95 6.55 13.5 6 13.5ZM10 13.5C9.45 13.5 9 13.95 9 14.5V18.5C9 19.05 9.45 19.5 10 19.5C10.55 19.5 11 19.05 11 18.5V14.5C11 13.95 10.55 13.5 10 13.5ZM14 13.5C13.45 13.5 13 13.95 13 14.5V18.5C13 19.05 13.45 19.5 14 19.5C14.55 19.5 15 19.05 15 18.5V14.5C15 13.95 14.55 13.5 14 13.5ZM18 13.5C17.45 13.5 17 13.95 17 14.5V18.5C17 19.05 17.45 19.5 18 19.5C18.55 19.5 19 19.05 19 18.5V14.5C19 13.95 18.55 13.5 18 13.5ZM12.9404 2.5C13.4702 2.50023 13.8999 2.93034 13.8799 3.4502C13.8499 4.09011 14.0005 4.64043 14.6504 5.36035C15.4202 6.13033 16.04 7.21058 16 8.61035C15.9898 9.11018 15.5595 9.5 15.0596 9.5C14.5298 9.49976 14.1199 9.05988 14.1299 8.54004C14.1299 7.92004 13.9596 7.24039 13.3496 6.65039C12.4997 5.83047 11.9701 4.69023 12 3.40039C12.01 2.90039 12.4404 2.5 12.9404 2.5ZM16.9404 2.5C17.4702 2.50023 17.8999 2.93034 17.8799 3.4502C17.8499 4.09011 18.0005 4.64043 18.6504 5.36035C19.4202 6.13033 20.04 7.21058 20 8.61035C19.9898 9.11018 19.5595 9.5 19.0596 9.5C18.5298 9.49976 18.1199 9.05988 18.1299 8.54004C18.1299 7.92004 17.9596 7.24039 17.3496 6.65039C16.4997 5.83047 15.9701 4.69023 16 3.40039C16.01 2.90039 16.4404 2.5 16.9404 2.5ZM7 3.5C8.10457 3.5 9 4.39543 9 5.5C9 6.60457 8.10457 7.5 7 7.5C5.89543 7.5 5 6.60457 5 5.5C5 4.39543 5.89543 3.5 7 3.5Z" fill="#2F455C"/>
</g>
</svg>
