<svg width="24" height="24" viewBox="0 0 24 24" fill="none" xmlns="http://www.w3.org/2000/svg">
<g id="Places/spa">
<path id="Icon Shape" d="M20.8396 9.80786C21.4695 9.74787 22.0098 10.2773 21.95 10.9172C21.5 15.7271 18.3003 19.6972 13.9705 21.2473C13.3305 21.4673 12.6798 21.6371 11.9998 21.7571C11.3199 21.6471 10.6599 21.4773 10.03 21.2473C5.70005 19.6973 2.49956 15.7172 2.04956 10.9172C1.98972 10.2774 2.52003 9.74793 3.15991 9.80786C5.29541 10.0162 7.26351 10.7936 8.92065 11.9875C8.79567 11.9034 8.65939 11.8238 8.53003 11.7375C8.66392 11.8357 8.80486 11.9114 8.93335 11.9973C10.1341 12.8649 11.1715 13.9508 11.99 15.1975C13.9399 12.2276 17.1298 10.168 20.8396 9.80786ZM8.98022 12.0276C8.9652 12.0169 8.9488 12.0076 8.93335 11.9973C8.92902 11.9942 8.92498 11.9907 8.92065 11.9875C8.94058 12.001 8.96097 12.0138 8.98022 12.0276ZM11.2703 2.61743C11.6802 2.11761 12.4296 2.11768 12.8396 2.61743C14.4496 4.58737 15.3202 6.95727 15.4802 9.3772C14.2003 10.0672 13.02 10.9471 11.99 12.0071C10.96 10.9372 9.77967 10.0572 8.49976 9.3772C8.69979 6.96727 9.62031 4.59737 11.2703 2.61743Z" fill="#2F455C"/>
</g>
</svg>
