<svg width="24" height="24" viewBox="0 0 24 24" fill="none" xmlns="http://www.w3.org/2000/svg">
<g id="Places/smoking-rooms">
<path id="Icon Shape" d="M15.5 17.4453C16.33 17.4453 17 18.1153 17 18.9453C16.9999 19.7752 16.3299 20.4453 15.5 20.4453H3.5C2.67005 20.4453 2.00008 19.7752 2 18.9453C2 18.1153 2.67 17.4453 3.5 17.4453H15.5ZM19.5 20.4453H18V17.4453H19.5V20.4453ZM22 20.4453H20.5V17.4453H22V20.4453ZM13.5703 6.52539C14.0402 6.38558 14.5 6.75522 14.5 7.24512C14.5 7.5851 14.2799 7.87483 13.96 7.96484C13.12 8.19484 12.5402 8.94551 12.6602 9.89551C12.7903 10.9153 13.7106 11.6455 14.7305 11.6455H16.0303C17.9 11.6456 19.4995 12.995 19.5098 14.8047V15.6953C19.5097 16.1152 19.1697 16.4453 18.7598 16.4453H18.75C18.3301 16.4453 18.0001 16.1052 18 15.6953V15.1455C18 13.8356 17.0802 13.0949 16.0303 13.0947H14.6104C12.7704 13.0947 11.1804 11.6447 11.1504 9.80469C11.1206 8.25489 12.1505 6.93535 13.5703 6.52539ZM16.5 4.30469C16.5003 3.80504 16.99 3.44525 17.4697 3.58496C18.8497 4.00494 19.8495 5.28502 19.8496 6.79492C19.8496 7.72492 19.4696 8.5648 18.8496 9.1748C20.7196 10.0648 22 11.9851 22 14.2051V15.6953C21.9999 16.1052 21.6599 16.4453 21.25 16.4453C20.8401 16.4453 20.5001 16.1052 20.5 15.6953V14.2148C20.4999 12.195 19.0695 10.5053 17.1396 10.1953C16.7699 10.1352 16.5001 9.81514 16.5 9.44531V9.29492C16.5001 8.94503 16.7502 8.66466 17.0801 8.55469C17.82 8.30463 18.3496 7.61484 18.3496 6.79492C18.3495 5.95503 17.7895 5.2456 17.0195 5.01562C16.7097 4.92552 16.5 4.63458 16.5 4.30469Z" fill="#2F455C"/>
</g>
</svg>
