<svg width="24" height="24" viewBox="0 0 24 24" fill="none" xmlns="http://www.w3.org/2000/svg">
<g id="Places/child-friendly">
<path id="Icon Shape" d="M5.36035 8.96509C5.74022 8.96522 6.09981 9.18552 6.25977 9.5354L6.94043 10.9651H21.5C21.5 12.8051 20.8703 14.5057 19.8203 15.8557C20.7401 16.6757 21.2298 17.9659 20.8799 19.3557C20.5598 20.6155 19.5198 21.615 18.25 21.885C16.17 22.325 14.3003 20.9051 14.0303 18.9651H11.9502C11.6802 20.915 9.80013 22.3351 7.7002 21.8752C6.44021 21.5952 5.39962 20.5854 5.09961 19.3254C4.69961 17.6554 5.50984 16.095 6.83984 15.385C6.60902 15.0331 4.71973 10.9651 4.71973 10.9651H3.5C2.95 10.9651 2.5 10.5151 2.5 9.96509C2.50012 9.41519 2.95007 8.96509 3.5 8.96509H5.36035ZM8.5 16.9651C7.67007 16.9651 7.00012 17.6352 7 18.4651C7 19.2951 7.67 19.9651 8.5 19.9651C9.33 19.9651 10 19.2951 10 18.4651C9.99988 17.6352 9.32993 16.9651 8.5 16.9651ZM17.5 16.9651C16.6701 16.9651 16.0001 17.6352 16 18.4651C16 19.2951 16.67 19.9651 17.5 19.9651C18.33 19.9651 19 19.2951 19 18.4651C18.9999 17.6352 18.3299 16.9651 17.5 16.9651ZM14.6396 2.04517C18.5196 2.59516 21.4999 5.93519 21.5 9.96509H13.5V3.04517C13.5001 2.43536 14.0398 1.95542 14.6396 2.04517Z" fill="#2F455C"/>
</g>
</svg>
