<svg width="24" height="24" viewBox="0 0 24 24" fill="none" xmlns="http://www.w3.org/2000/svg">
<g id="Places/kitchen">
<path id="Icon Shape" d="M18 2.00977C19.1 2.00977 20 2.89 20 4V20C20 21.1 19.1 22 18 22H6C4.9 22 4 21.1 4 20V4C4 2.89 4.9 2 6 2L18 2.00977ZM7 10.9805C6.45 10.9805 6 11.4305 6 11.9805V19C6 19.55 6.45 20 7 20H17C17.55 20 18 19.55 18 19V11.9805C18 11.4305 17.55 10.9805 17 10.9805H7ZM9 12C9.55 12 10 12.45 10 13V16C10 16.55 9.55 17 9 17C8.45 17 8 16.55 8 16V13C8 12.45 8.45 12 9 12ZM7 4C6.45 4 6 4.45 6 5V8C6 8.55 6.45 9 7 9H17C17.55 9 18 8.55 18 8V5C18 4.45 17.55 4 17 4H7ZM9 5C9.55 5 10 5.45 10 6V7C10 7.55 9.55 8 9 8C8.45 8 8 7.55 8 7V6C8 5.45 8.45 5 9 5Z" fill="#2F455C"/>
</g>
</svg>
