<svg width="24" height="24" viewBox="0 0 24 24" fill="none" xmlns="http://www.w3.org/2000/svg">
<g id="Places/beach-access">
<path id="Icon Shape" d="M20.4999 19.0693C20.8897 19.4594 20.8899 20.0991 20.4999 20.499C20.11 20.889 19.4702 20.8888 19.0702 20.499L13.3398 14.7686L14.7695 13.3389L20.4999 19.0693ZM6.16008 6.18945C4.86026 10.1194 5.91029 14.499 9.0302 17.6289L7.75969 18.8994C6.86964 19.7991 5.33954 19.6687 4.67961 18.5889C2.30978 14.6989 2.80026 9.5594 6.16008 6.18945ZM6.17961 6.16895C9.18961 5.78895 13.0701 7.33875 16.2001 10.4688L10.4697 16.1992C7.33965 13.0592 5.78985 9.18871 6.16985 6.17871L6.17961 6.16895ZM6.19035 6.15918C9.56036 2.79931 14.6998 2.30949 18.5898 4.68945C19.6695 5.33939 19.7898 6.87852 18.9003 7.76855L17.6298 9.03906C14.4999 5.90916 10.1203 4.85937 6.19035 6.15918Z" fill="#2F455C"/>
</g>
</svg>
