<svg width="24" height="24" viewBox="0 0 24 24" fill="none" xmlns="http://www.w3.org/2000/svg">
<g id="Places/golf-course">
<path id="Icon Shape" d="M8.5 3.29834C8.5 2.55834 9.2802 2.07771 9.9502 2.40771L14.71 4.73779C15.45 5.09779 15.4497 6.15783 14.7197 6.52783L10.5 8.67822V17.728C13.3398 17.888 15.4997 18.7078 15.5 19.6978C15.5 20.7978 12.81 21.6978 9.5 21.6978C6.19 21.6978 3.5 20.7978 3.5 19.6978C3.50019 18.9578 4.71018 18.3182 6.5 17.9683V18.6978C6.5 19.2478 6.95 19.6978 7.5 19.6978C8.05 19.6978 8.5 19.2478 8.5 18.6978V3.29834ZM19 17.6978C19.8284 17.6978 20.4999 18.3694 20.5 19.1978C20.5 20.0262 19.8284 20.6978 19 20.6978C18.1716 20.6978 17.5 20.0262 17.5 19.1978C17.5001 18.3694 18.1716 17.6978 19 17.6978Z" fill="#2F455C"/>
</g>
</svg>
