<svg width="24" height="24" viewBox="0 0 24 24" fill="none" xmlns="http://www.w3.org/2000/svg">
<g id="Places/rv-hookup">
<path id="Icon Shape" d="M5.11035 7.52271C5.44038 7.19298 6 7.43291 6 7.89282V8.63306H17C18.1 8.63306 19 9.53306 19 10.6331V16.6331H20C20.55 16.6331 21 17.0831 21 17.6331C20.9998 18.1829 20.5499 18.6331 20 18.6331H13C12.9998 20.2929 11.6599 21.6331 10 21.6331C8.34011 21.6331 7.00018 20.2929 7 18.6331H5C3.90011 18.6331 3.00019 17.7329 3 16.6331V14.6331C3 14.0831 3.45 13.6331 4 13.6331H10V10.6331H6V11.3723C6 11.8423 5.44036 12.0724 5.11035 11.7424L3.37012 10.0032C3.17013 9.79319 3.17017 9.46294 3.37012 9.26294L5.11035 7.52271ZM10 17.6331C9.45 17.6331 9 18.0831 9 18.6331C9.00019 19.1829 9.45011 19.6331 10 19.6331C10.5499 19.6331 10.9998 19.1829 11 18.6331C11 18.0831 10.55 17.6331 10 17.6331ZM13 13.6331H17V11.6331C17 11.0831 16.55 10.6331 16 10.6331H13V13.6331ZM16 2.89282C16 2.42291 16.5596 2.19297 16.8896 2.52271L18.6299 4.26294C18.8298 4.47294 18.8299 4.80319 18.6299 5.00317L16.8896 6.74243C16.5596 7.07238 16 6.8323 16 6.37231V5.63306H9C8.45011 5.63306 8.00019 5.1829 8 4.63306C8 4.08306 8.45 3.63306 9 3.63306H16V2.89282Z" fill="#2F455C"/>
</g>
</svg>
