<svg width="24" height="24" viewBox="0 0 24 24" fill="none" xmlns="http://www.w3.org/2000/svg">
<g id="Places/no-meeting_room">
<path id="Icon Shape" d="M2.97566 1.97754C3.24016 1.97755 3.49392 2.08327 3.68074 2.27051L11.8507 10.4404H10.5606V12.4404H12.5606V11.1504L21.7305 20.3203C22.1204 20.7103 22.1207 21.3405 21.7208 21.7305C21.3308 22.1203 20.7006 22.1202 20.3106 21.7305L14.5606 15.9805V19.4404C14.5604 19.9902 14.1105 20.4404 13.5606 20.4404H4.56062C4.01076 20.4404 3.56084 19.9902 3.56062 19.4404C3.56062 18.8904 4.01062 18.4404 4.56062 18.4404H5.56062V6.98047L2.27058 3.67969C1.88086 3.28976 1.88091 2.66047 2.27058 2.27051C2.45742 2.08326 2.71114 1.97754 2.97566 1.97754ZM13.5606 2.44043C14.1106 2.44043 14.5606 2.89043 14.5606 3.44043H18.5606C19.1106 3.44043 19.5606 3.89043 19.5606 4.44043V15.3203L17.5606 13.3203V5.44043H14.5606V10.3203L6.68074 2.44043H13.5606Z" fill="#2F455C"/>
</g>
</svg>
