<svg width="24" height="24" viewBox="0 0 24 24" fill="none" xmlns="http://www.w3.org/2000/svg">
<g id="Places/pool">
<path id="Icon Shape" d="M18.6699 18C19.7796 18 20.3996 18.3697 20.8496 18.6396C21.0295 18.7596 21.1797 18.8502 21.3496 18.9102C21.7295 19.0401 21.9998 19.3598 22 19.7695V19.8896C22 20.5596 21.3302 21.0197 20.7002 20.7998C20.3304 20.6699 20.0502 20.5003 19.8203 20.3604C19.4503 20.1404 19.2199 20 18.6699 20C18.11 20 17.8895 20.1304 17.5195 20.3604C17.0596 20.6303 16.4494 21 15.3398 21C14.2302 21 13.6101 20.6303 13.1602 20.3604C12.7902 20.1404 12.5598 20 12.0098 20C11.45 20 11.2302 20.1304 10.8604 20.3604C10.4004 20.6304 9.77992 21 8.66992 21C7.56024 21 6.9402 20.6303 6.49023 20.3604C6.12023 20.1304 5.88984 20 5.33984 20C4.7902 20 4.56011 20.1298 4.19043 20.3496C3.95043 20.4896 3.6698 20.66 3.2998 20.79C2.65986 21.0099 2 20.5498 2 19.8799V19.7598C2.00011 19.3599 2.27046 19.0401 2.65039 18.9102C2.82028 18.8402 2.97049 18.7496 3.15039 18.6396C3.61032 18.3697 4.2303 18 5.33984 18C6.44943 18 7.06957 18.3697 7.51953 18.6396C7.88951 18.8696 8.10998 19 8.66992 19C9.22992 19 9.45031 18.8696 9.82031 18.6396C10.2802 18.3697 10.9002 18.0001 12.0098 18C13.1198 18 13.7404 18.3696 14.1904 18.6396C14.5603 18.8596 14.79 19 15.3398 19C15.8898 19 16.1202 18.8696 16.4902 18.6396C16.9402 18.3697 17.5602 18 18.6699 18ZM18.6504 13.5C19.7601 13.5001 20.3801 13.8697 20.8301 14.1396C21.0201 14.2496 21.1699 14.3404 21.3398 14.4004C21.7098 14.5404 21.9804 14.8599 21.9805 15.2598V15.3799C21.9805 16.0499 21.2999 16.52 20.6699 16.29C20.3201 16.1601 20.0502 16.0003 19.8203 15.8604C19.4503 15.6404 19.2199 15.5 18.6699 15.5C18.11 15.5 17.8895 15.6304 17.5195 15.8604C17.0696 16.1303 16.4494 16.5 15.3398 16.5C14.2302 16.5 13.6101 16.1303 13.1602 15.8604C12.7902 15.6404 12.5598 15.5 12.0098 15.5C11.45 15.5 11.2302 15.6304 10.8604 15.8604C10.4104 16.1304 9.78969 16.5 8.67969 16.5C7.57001 16.4999 6.94994 16.1303 6.5 15.8604C6.13 15.6404 5.89961 15.5 5.34961 15.5C4.79989 15.5001 4.57011 15.6304 4.2002 15.8604C3.92028 16.0203 3.58013 16.2196 3.11035 16.3496C2.55043 16.5096 2.00015 16.0701 2 15.4902V15.2598C2.00011 14.8599 2.27046 14.5401 2.65039 14.4102C2.82028 14.3402 2.97049 14.2496 3.15039 14.1396C3.60035 13.8697 4.22044 13.5 5.33008 13.5C6.43976 13.5 7.0598 13.8697 7.50977 14.1396C7.87977 14.3596 8.11016 14.5 8.66016 14.5C9.21996 14.5 9.4397 14.3696 9.80957 14.1396C10.2596 13.8696 10.8802 13.5 11.9902 13.5C13.0999 13.5001 13.72 13.8697 14.1699 14.1396C14.5399 14.3596 14.7703 14.5 15.3203 14.5C15.8701 14.5 16.0998 14.3696 16.4697 14.1396C16.9197 13.8696 17.5404 13.5 18.6504 13.5ZM6.2998 3.0498C8.0398 3.1998 9.22047 3.74 10.4805 5L16.9004 11.4102C16.7505 11.4901 16.6102 11.5697 16.4902 11.6396C16.1202 11.8696 15.8898 12 15.3398 12C14.79 12 14.5603 11.8596 14.1904 11.6396C13.7404 11.3696 13.1198 11 12.0098 11C10.9002 11.0001 10.2802 11.3697 9.82031 11.6396C9.45031 11.8696 9.22992 12 8.66992 12C8.10998 12 7.88951 11.8696 7.51953 11.6396C7.30964 11.5197 7.05975 11.3699 6.75 11.25L10 8L9 7C8.14007 6.14007 7.30019 5.69961 6.11035 5.55957C5.49035 5.47957 5 4.97961 5 4.34961V4.25977C5.00013 3.55994 5.59997 2.98994 6.2998 3.0498ZM16.5 3C17.8807 3 19 4.11929 19 5.5C19 6.88071 17.8807 8 16.5 8C15.1193 8 14 6.88071 14 5.5C14 4.11929 15.1193 3 16.5 3Z" fill="#2F455C"/>
</g>
</svg>
