<svg width="24" height="24" viewBox="0 0 24 24" fill="none" xmlns="http://www.w3.org/2000/svg">
<g id="Places/smoke-free">
<path id="Icon Shape" d="M3.41504 4.6814C3.67949 4.68141 3.9333 4.78621 4.12012 4.97339L19.7002 20.5632C20.0901 20.9531 20.0899 21.5834 19.7002 21.9734C19.3102 22.3634 18.68 22.3634 18.29 21.9734L12 15.6833H3.5C2.67 15.6833 2 15.0133 2 14.1833C2.0002 13.3535 2.67012 12.6833 3.5 12.6833H9L2.70996 6.38354C2.32007 5.99354 2.32 5.36335 2.70996 4.97339C2.89678 4.78623 3.15059 4.6814 3.41504 4.6814ZM19.5 15.6833H18V12.6833H19.5V15.6833ZM22 15.6833H20.5V12.6833H22V15.6833ZM15.5 12.6833C16.3299 12.6833 16.9998 13.3535 17 14.1833C17 14.4233 16.9398 14.654 16.8398 14.864L14.6602 12.6833H15.5ZM13.5801 1.76343C14.05 1.62355 14.5098 1.99418 14.5098 2.48413C14.5096 2.82395 14.2896 3.11389 13.9697 3.20386C13.1299 3.43394 12.55 4.18374 12.6699 5.13354C12.7999 6.15354 13.7202 6.88354 14.7402 6.88354H16.04C17.91 6.88356 19.5098 8.23372 19.5098 10.0437V10.9333C19.5098 11.3533 19.1698 11.6833 18.7598 11.6833H18.75C18.33 11.6833 18 11.3433 18 10.9333V10.3835C17.9999 9.07376 17.0801 8.33387 16.0303 8.33374H14.6104C12.7704 8.33374 11.1802 6.8937 11.1602 5.0437C11.1302 3.49371 12.1601 2.17343 13.5801 1.76343ZM18.9805 2.0437C19.5 2.05399 19.8499 2.56356 19.6904 3.06323C19.5204 3.57323 19.2296 4.03382 18.8496 4.41382C20.7196 5.30382 22 7.22409 22 9.44409V10.9333C22 11.3433 21.66 11.6833 21.25 11.6833C20.84 11.6833 20.5 11.3433 20.5 10.9333V9.45386C20.5 7.43386 19.0696 5.74335 17.1396 5.43335C16.7699 5.37318 16.5 5.05322 16.5 4.68335V4.53394C16.5 4.18398 16.7499 3.90373 17.0898 3.7937C17.6398 3.61372 18.0797 3.17372 18.2598 2.62378C18.3698 2.29378 18.6405 2.0537 18.9805 2.0437Z" fill="#2F455C"/>
</g>
</svg>
