<svg width="24" height="24" viewBox="0 0 24 24" fill="none" xmlns="http://www.w3.org/2000/svg">
<g id="Places/airport-shuttle">
<path id="Icon Shape" d="M16.1699 5C16.6999 5 17.2101 5.21008 17.5801 5.58008L22.4102 10.4102C22.7901 10.7901 23 11.3002 23 11.8301V14C23 15.1 22.1 16 21 16C21 17.66 19.66 19 18 19C16.34 19 15 17.66 15 16H9C9 17.66 7.66 19 6 19C4.34 19 3 17.66 3 16C1.9 16 1 15.1 1 14V7C1 5.89 1.9 5 3 5H16.1699ZM6 14.75C5.31 14.75 4.75 15.31 4.75 16C4.75 16.69 5.31 17.25 6 17.25C6.69 17.25 7.25 16.69 7.25 16C7.25 15.31 6.69 14.75 6 14.75ZM18 14.75C17.31 14.75 16.75 15.31 16.75 16C16.75 16.69 17.31 17.25 18 17.25C18.69 17.25 19.25 16.69 19.25 16C19.25 15.31 18.69 14.75 18 14.75ZM4 7C3.45 7 3 7.45 3 8V10C3 10.55 3.45 11 4 11H7V7H4ZM9 11H13V7H9V11ZM15 7V11H20L16 7H15Z" fill="#2F455C"/>
</g>
</svg>
