<svg width="24" height="24" viewBox="0 0 24 24" fill="none" xmlns="http://www.w3.org/2000/svg">
<g id="Places/all-inclusive">
<path id="Icon Shape" d="M20.2254 6.86012C18.2254 6.26012 16.1654 6.82012 14.8354 8.15012L12.0054 10.6601L10.4854 12.0001H10.4954L7.80545 14.3901C6.99545 15.2001 5.85545 15.5401 4.68545 15.3101C3.43545 15.0601 2.40545 14.0601 2.11545 12.8201C1.59545 10.5901 3.27545 8.62012 5.40545 8.62012C6.31545 8.62012 7.16545 8.97012 7.84545 9.65012L8.31545 10.0601C8.69545 10.4001 9.26545 10.4001 9.64545 10.0601C10.0954 9.66012 10.0954 8.96012 9.64545 8.56012L9.22545 8.20012C8.20545 7.18012 6.84545 6.62012 5.40545 6.62012C2.42545 6.62012 0.00544739 9.04012 0.00544739 12.0001C0.00544739 14.9601 2.42545 17.3801 5.40545 17.3801C6.84545 17.3801 8.20545 16.8201 9.17545 15.8501L12.0054 13.3501L12.0154 13.3601L13.5254 12.0001H13.5154L16.2054 9.61012C17.0154 8.80012 18.1554 8.46012 19.3254 8.69012C20.5754 8.94012 21.6054 9.94012 21.8954 11.1801C22.4154 13.4101 20.7354 15.3801 18.6054 15.3801C17.7054 15.3801 16.8454 15.0301 16.1654 14.3501L15.6854 13.9301C15.3054 13.5901 14.7354 13.5901 14.3554 13.9301C13.9054 14.3301 13.9054 15.0301 14.3554 15.4301L14.7754 15.8001C15.7954 16.8101 17.1454 17.3701 18.5954 17.3701C21.8654 17.3701 24.4554 14.4701 23.9254 11.1201C23.6254 9.13012 22.1554 7.43012 20.2254 6.86012Z" fill="#2F455C"/>
</g>
</svg>
