<svg width="24" height="24" viewBox="0 0 24 24" fill="none" xmlns="http://www.w3.org/2000/svg">
<g id="Places/business-center">
<path id="Icon Shape" d="M10 15C10 15.55 10.45 16 11 16H13C13.55 16 14 15.55 14 15H21V19C21 20.1 20.1 21 19 21H5.00977C3.90987 20.9999 3.00977 20.0999 3.00977 19V15H10ZM12 3C14.21 3 16 4.79 16 7H20C21.1 7 22 7.9 22 9V12C22 13.1 21.1 14 20 14H14V13C14 12.45 13.55 12 13 12H11C10.45 12 10 12.45 10 13V14H4C2.89 14 2 13.11 2 12V9C2 7.9 2.9 7 4 7H8C8 4.79 9.79 3 12 3ZM12 5C10.9 5 10 5.9 10 7H14C14 5.9 13.1 5 12 5Z" fill="#2F455C"/>
</g>
</svg>
