<svg width="24" height="24" viewBox="0 0 24 24" fill="none" xmlns="http://www.w3.org/2000/svg">
<g id="Places/child-care">
<path id="Icon Shape" d="M12 3C14.28 3 16.3604 3.84977 17.9404 5.25977C18.8503 6.06972 19.5999 7.05002 20.1299 8.16992C21.5799 8.59991 22.6904 9.82988 22.9404 11.3398C22.9804 11.5498 23 11.77 23 12C23 12.23 22.9804 12.4502 22.9404 12.6602C22.6904 14.1801 21.5796 15.4001 20.1396 15.8301C19.6197 16.93 18.8697 17.9198 17.9697 18.7197C16.3797 20.1397 14.29 21 12 21C9.71 21 7.62004 20.1397 6.04004 18.7197C5.14012 17.9198 4.39009 16.94 3.87012 15.8301C2.42014 15.4001 1.3096 14.1701 1.05957 12.6602C1.01957 12.4502 1 12.23 1 12C1 11.77 1.01957 11.5498 1.05957 11.3398C1.3096 9.81988 2.42014 8.59991 3.87012 8.16992C4.39009 7.06002 5.13966 6.06972 6.05957 5.25977C7.63957 3.84977 9.72 3 12 3ZM12 5C9.5501 5 7.40041 6.26005 6.15039 8.16992C5.78039 8.73992 5.49004 9.36027 5.29004 10.0303C5.19004 10.0203 5.1 10 5 10C3.9 10 3 10.9 3 12C3 13.1 3.9 14 5 14C5.1 14 5.19004 13.9797 5.29004 13.9697C5.49004 14.6397 5.78039 15.2601 6.15039 15.8301C7.40041 17.7399 9.5501 19 12 19C14.4499 19 16.5996 17.7399 17.8496 15.8301C18.2196 15.2601 18.51 14.6397 18.71 13.9697C18.81 13.9797 18.9 14 19 14C20.1 14 21 13.1 21 12C21 10.9 20.1 10 19 10C18.9 10 18.81 10.0203 18.71 10.0303C18.51 9.36027 18.2196 8.73992 17.8496 8.16992C16.5996 6.26005 14.4499 5 12 5ZM16.0996 14C16.2796 14 16.4101 14.2001 16.3301 14.3701C15.5001 15.9401 13.87 17 12 17C10.13 17 8.49993 15.9401 7.66992 14.3701C7.57992 14.2001 7.71039 14 7.90039 14H16.0996ZM9.5 9.25C10.1904 9.25 10.75 9.80964 10.75 10.5C10.75 11.1904 10.1904 11.75 9.5 11.75C8.80964 11.75 8.25 11.1904 8.25 10.5C8.25 9.80964 8.80964 9.25 9.5 9.25ZM14.5 9.25C15.1904 9.25 15.75 9.80964 15.75 10.5C15.75 11.1904 15.1904 11.75 14.5 11.75C13.8096 11.75 13.25 11.1904 13.25 10.5C13.25 9.80964 13.8096 9.25 14.5 9.25Z" fill="#2F455C"/>
</g>
</svg>
