<svg width="24" height="24" viewBox="0 0 24 24" fill="none" xmlns="http://www.w3.org/2000/svg">
<g id="Social/mood-bad">
<path id="Icon Shape" d="M11.9902 2C17.5201 2.00013 22 6.48008 22 12C22 17.5199 17.5201 21.9999 11.9902 22C6.47023 22 2 17.52 2 12C2 6.48 6.47023 2 11.9902 2ZM12 4C7.58 4 4 7.58 4 12C4 16.42 7.58 20 12 20C16.42 20 20 16.42 20 12C20 7.58 16.42 4 12 4ZM12 13.5C14.03 13.5 15.8 14.61 16.75 16.25C16.94 16.58 16.6896 17 16.3096 17H7.69043C7.31043 17 7.06 16.58 7.25 16.25C8.2 14.61 9.97 13.5 12 13.5ZM8.5 8C9.33 8 10 8.67 10 9.5C10 10.33 9.33 11 8.5 11C7.67 11 7 10.33 7 9.5C7 8.67 7.67 8 8.5 8ZM15.5 8C16.33 8 17 8.67 17 9.5C17 10.33 16.33 11 15.5 11C14.67 11 14 10.33 14 9.5C14 8.67 14.67 8 15.5 8Z" fill="#2F455C"/>
</g>
</svg>
