<svg width="24" height="24" viewBox="0 0 24 24" fill="none" xmlns="http://www.w3.org/2000/svg">
<g id="Social/sentiment-dissatisfied">
<path id="Icon Shape" d="M11.9902 2C17.5201 2.00013 22 6.48008 22 12C22 17.5199 17.5201 21.9999 11.9902 22C6.47023 22 2 17.52 2 12C2 6.48 6.47023 2 11.9902 2ZM12 4C7.58 4 4 7.58 4 12C4 16.42 7.58 20 12 20C16.42 20 20 16.42 20 12C20 7.58 16.42 4 12 4ZM12 14C13.9 14 15.6302 14.9601 16.6602 16.5801C16.8801 16.9301 16.7699 17.3904 16.4199 17.6104C16.29 17.6803 16.1595 17.7197 16.0195 17.7197C15.7697 17.7196 15.5198 17.6 15.3799 17.3701C14.6399 16.1901 13.38 15.4902 12 15.4902C10.62 15.4902 9.36012 16.1901 8.62012 17.3701C8.40012 17.7201 7.93983 17.8303 7.58984 17.6104C7.23992 17.3904 7.1298 16.93 7.34961 16.5801C8.36961 14.9701 10.1 14 12 14ZM8.5 8C9.32843 8 10 8.67157 10 9.5C10 10.3284 9.32843 11 8.5 11C7.67157 11 7 10.3284 7 9.5C7 8.67157 7.67157 8 8.5 8ZM15.5 8C16.3284 8 17 8.67157 17 9.5C17 10.3284 16.3284 11 15.5 11C14.6716 11 14 10.3284 14 9.5C14 8.67157 14.6716 8 15.5 8Z" fill="#2F455C"/>
</g>
</svg>
