<svg width="24" height="24" viewBox="0 0 24 24" fill="none" xmlns="http://www.w3.org/2000/svg">
<g id="Social/notifications-paused">
<path id="Icon Shape" d="M13.9999 19.75C13.9999 20.85 13.0999 21.75 11.9999 21.75C10.89 21.7499 9.99992 20.8499 9.99992 19.75H13.9999ZM11.9999 2.25C12.8299 2.25 13.4999 2.92 13.4999 3.75V4.42969C16.3599 5.10969 17.9999 7.68 17.9999 10.75V15.75L19.29 17.04C19.92 17.67 19.48 18.75 18.58 18.75H5.41008C4.52021 18.7499 4.08014 17.67 4.70988 17.04L5.99992 15.75V10.75C5.99992 7.67006 7.63002 5.10974 10.4999 4.42969V3.75C10.4999 2.92008 11.17 2.25013 11.9999 2.25ZM10.4003 7.75C9.90031 7.75 9.49992 8.15039 9.49992 8.65039C9.50013 9.15021 9.90044 9.5498 10.4003 9.5498H12.2997L9.79973 12.5801C9.60987 12.82 9.49994 13.1101 9.49992 13.4199V13.4297C9.49992 14.1597 10.0902 14.75 10.8202 14.75H13.6005C14.1003 14.7498 14.4999 14.3495 14.4999 13.8496C14.4997 13.3499 14.1002 12.9504 13.6005 12.9502H11.7001L14.2001 9.91992C14.3901 9.67995 14.4999 9.39004 14.4999 9.08008C14.4999 8.34022 13.9104 7.75023 13.1806 7.75H10.4003Z" fill="#2F455C"/>
</g>
</svg>
