<svg width="24" height="24" viewBox="0 0 24 24" fill="none" xmlns="http://www.w3.org/2000/svg">
<g id="Social/sentiment-very_satisfied">
<path id="Icon Shape" d="M11.9902 2C17.5201 2.00013 22 6.47008 22 12C22 17.5299 17.5101 21.9999 11.9902 22C6.47023 22 2 17.53 2 12C2 6.47 6.47023 2 11.9902 2ZM12 4C7.58 4 4 7.58 4 12C4 16.42 7.58 20 12 20C16.42 20 20 16.42 20 12C20 7.58 16.42 4 12 4ZM16.3096 14C16.6996 14 16.94 14.42 16.75 14.75C15.8 16.39 14.03 17.5 12 17.5C9.97 17.5 8.2 16.39 7.25 14.75C7.06 14.42 7.31043 14 7.69043 14H16.3096ZM8.88477 8.2373C9.14928 8.2373 9.40301 8.34302 9.58984 8.53027L10.4697 9.41016C10.7597 9.70016 10.7597 10.1797 10.4697 10.4697C10.1797 10.7597 9.70016 10.7597 9.41016 10.4697L8.87988 9.94043L8.34961 10.4697C8.0596 10.7597 7.58002 10.7597 7.29004 10.4697C7.00018 10.1797 7.00014 9.70012 7.29004 9.41016L8.17969 8.53027C8.36646 8.34308 8.62033 8.23737 8.88477 8.2373ZM15.125 8.2373C15.3895 8.2373 15.6432 8.34302 15.8301 8.53027L16.71 9.41016C16.9999 9.70012 16.9998 10.1797 16.71 10.4697C16.42 10.7597 15.9404 10.7597 15.6504 10.4697L15.1201 9.94043L14.5898 10.4697C14.2998 10.7597 13.8203 10.7597 13.5303 10.4697C13.2403 10.1797 13.2401 9.70016 13.54 9.41016L14.4199 8.53027C14.6068 8.34302 14.8605 8.2373 15.125 8.2373Z" fill="#2F455C"/>
</g>
</svg>
