<svg width="24" height="24" viewBox="0 0 24 24" fill="none" xmlns="http://www.w3.org/2000/svg">
<g id="Social/sentiment-neutral">
<path id="Icon Shape" d="M11.9902 2C17.5201 2.00013 22 6.48008 22 12C22 17.5199 17.5201 21.9999 11.9902 22C6.47023 22 2 17.52 2 12C2 6.48 6.47023 2 11.9902 2ZM12 4C7.58 4 4 7.58 4 12C4 16.42 7.58 20 12 20C16.42 20 20 16.42 20 12C20 7.58 16.42 4 12 4ZM14.25 14C14.66 14 15 14.34 15 14.75C15 15.16 14.66 15.5 14.25 15.5H9.75C9.34 15.5 9 15.16 9 14.75C9 14.34 9.34 14 9.75 14H14.25ZM8.5 8C9.32843 8 10 8.67157 10 9.5C10 10.3284 9.32843 11 8.5 11C7.67157 11 7 10.3284 7 9.5C7 8.67157 7.67157 8 8.5 8ZM15.5 8C16.3284 8 17 8.67157 17 9.5C17 10.3284 16.3284 11 15.5 11C14.6716 11 14 10.3284 14 9.5C14 8.67157 14.6716 8 15.5 8Z" fill="#2F455C"/>
</g>
</svg>
