<svg width="24" height="24" viewBox="0 0 24 24" fill="none" xmlns="http://www.w3.org/2000/svg">
<g id="Social/notifications">
<path id="Icon Shape" d="M14.001 19.75C14.001 20.85 13.101 21.75 12.001 21.75C10.8911 21.7499 10.001 20.8499 10.001 19.75H14.001ZM12.001 2.25C12.831 2.25 13.501 2.92 13.501 3.75V4.42969C16.361 5.10969 18.001 7.68 18.001 10.75V15.75L19.291 17.04C19.921 17.67 19.4711 18.75 18.5811 18.75H5.41115C4.52128 18.7499 4.08121 17.67 4.71095 17.04L6.00099 15.75V10.75C6.00099 7.67006 7.63109 5.10974 10.501 4.42969V3.75C10.501 2.92008 11.1711 2.25013 12.001 2.25Z" fill="#2F455C"/>
</g>
</svg>
