<svg width="24" height="24" viewBox="0 0 24 24" fill="none" xmlns="http://www.w3.org/2000/svg">
<g id="Social/pages">
<path id="Icon Shape" d="M7.41016 15.3896C7.22016 16.1196 7.89012 16.7796 8.62012 16.5996L11 16V21H5C3.9 21 3 20.1 3 19V13H8L7.41016 15.3896ZM21 19C21 20.1 20.1 21 19 21H13V16L15.3799 16.5996C16.1199 16.7796 16.7796 16.1199 16.5996 15.3799L16 13H21V19ZM11 8L8.62012 7.40039C7.88012 7.22039 7.22039 7.88012 7.40039 8.62012L8 11H3V5C3 3.9 3.9 3 5 3H11V8ZM19 3C20.1 3 21 3.9 21 5V11H16L16.5898 8.61035C16.7798 7.88035 16.1099 7.22039 15.3799 7.40039L13 8V3H19Z" fill="#2F455C"/>
</g>
</svg>
