<svg width="24" height="24" viewBox="0 0 24 24" fill="none" xmlns="http://www.w3.org/2000/svg">
<g id="Social/people-outline">
<path id="Icon Shape" d="M9 13.75C11.34 13.75 16 14.92 16 17.25V18C16 18.55 15.55 19 15 19H3C2.45 19 2 18.55 2 18V17.25C2 14.92 6.66 13.75 9 13.75ZM16.04 13.8096C18.5 14.0796 22 15.23 22 17.25V18C22 18.55 21.55 19 21 19H18V17.25C18 15.77 17.2 14.6496 16.04 13.8096ZM9 15.75C7.21 15.75 5.17984 16.42 4.33984 17H13.6602C12.8202 16.42 10.79 15.75 9 15.75ZM9 5C10.93 5 12.5 6.57 12.5 8.5C12.5 10.43 10.93 12 9 12C7.07 12 5.5 10.43 5.5 8.5C5.5 6.57 7.07 5 9 5ZM15 5C16.93 5 18.5 6.57 18.5 8.5C18.5 10.43 16.93 12 15 12C14.4601 12 13.96 11.8703 13.5 11.6504C14.13 10.7604 14.5 9.67 14.5 8.5C14.5 7.33 14.13 6.23961 13.5 5.34961C13.96 5.12965 14.4601 5 15 5ZM9 7C8.17 7 7.5 7.67 7.5 8.5C7.5 9.33 8.17 10 9 10C9.83 10 10.5 9.33 10.5 8.5C10.5 7.67 9.83 7 9 7Z" fill="#2F455C"/>
</g>
</svg>
