<svg width="24" height="24" viewBox="0 0 24 24" fill="none" xmlns="http://www.w3.org/2000/svg">
<g id="Social/sentiment-very_dissatisfied">
<path id="Icon Shape" d="M11.9902 2C17.5201 2.00013 22 6.47008 22 12C22 17.5299 17.5101 21.9999 11.9902 22C6.47023 22 2 17.53 2 12C2 6.47 6.47023 2 11.9902 2ZM12 4C7.58 4 4 7.58 4 12C4 16.42 7.58 20 12 20C16.42 20 20 16.42 20 12C20 7.58 16.42 4 12 4ZM12 13.5C14.03 13.5 15.8 14.61 16.75 16.25C16.94 16.58 16.6896 17 16.3096 17H7.69043C7.31043 17 7.06 16.58 7.25 16.25C8.2 14.61 9.97 13.5 12 13.5ZM9.41016 8.29004C9.70012 8.00014 10.1797 8.00018 10.4697 8.29004C10.7597 8.58002 10.7597 9.0596 10.4697 9.34961L9.94043 9.87988L10.4697 10.4102C10.7597 10.7002 10.7597 11.1797 10.4697 11.4697C10.1797 11.7597 9.70016 11.7597 9.41016 11.4697L8.87988 10.9404L8.34961 11.4697C8.0596 11.7597 7.58002 11.7597 7.29004 11.4697C7.00018 11.1797 7.00014 10.7001 7.29004 10.4102L7.82031 9.87988L7.29004 9.34961C7.00022 9.05959 7.0001 8.57998 7.29004 8.29004C7.57998 8.0001 8.05959 8.00022 8.34961 8.29004L8.87988 8.82031L9.41016 8.29004ZM15.6504 8.29004C15.9404 8.00022 16.42 8.0001 16.71 8.29004C16.9999 8.57998 16.9998 9.05959 16.71 9.34961L16.1797 9.87988L16.71 10.4102C16.9999 10.7001 16.9998 11.1797 16.71 11.4697C16.42 11.7597 15.9404 11.7597 15.6504 11.4697L15.1201 10.9404L14.5898 11.4697C14.2998 11.7597 13.8203 11.7597 13.5303 11.4697C13.2403 11.1797 13.2403 10.7002 13.5303 10.4102L14.0596 9.87988L13.5303 9.34961C13.2403 9.0596 13.2403 8.58002 13.5303 8.29004C13.8203 8.00018 14.2999 8.00014 14.5898 8.29004L15.1201 8.82031L15.6504 8.29004Z" fill="#2F455C"/>
</g>
</svg>
