<svg width="24" height="24" viewBox="0 0 24 24" fill="none" xmlns="http://www.w3.org/2000/svg">
<g id="Social/thumb-up_alt">
<path id="Icon Shape" d="M2.82901 9.69189C3.92901 9.69189 4.82901 10.5919 4.82901 11.6919V19.6919C4.82899 20.7919 3.929 21.6919 2.82901 21.6919C1.72902 21.6919 0.829027 20.7919 0.82901 19.6919V11.6919C0.82901 10.5919 1.72901 9.69189 2.82901 9.69189ZM12.9491 2.75146C13.5291 2.16173 14.4696 2.16178 15.0595 2.7417C15.4194 3.10169 15.5686 3.61189 15.4687 4.11182L14.5194 8.69189H20.1689C22.3188 8.69189 23.7685 10.8916 22.9286 12.8716L19.6689 20.4819C19.3488 21.2119 18.629 21.6919 17.829 21.6919H8.82901C7.72902 21.6919 6.82903 20.7919 6.82901 19.6919V9.70166C6.82906 9.17173 7.03914 8.66146 7.40909 8.2915L12.9491 2.75146Z" fill="#2F455C"/>
</g>
</svg>
