<svg width="24" height="24" viewBox="0 0 24 24" fill="none" xmlns="http://www.w3.org/2000/svg">
<g id="Social/whatshot">
<path id="Icon Shape" d="M13.8496 2.38574C13.7496 1.90574 14.3404 1.58578 14.6904 1.92578C15.5902 2.78564 16.39 3.7456 17.0898 4.77539C18.9198 7.48539 20 10.7258 20 14.2158C19.9999 18.6357 16.4199 22.2158 12 22.2158C7.58005 22.2158 4.00009 18.6357 4 14.2158C4 11.6759 4.68015 9.29584 5.87012 7.25586C6.03009 6.96591 6.19992 6.69573 6.37988 6.42578C6.61986 6.05581 7.17021 6.18556 7.28027 6.60547C7.34027 6.82547 7.38047 6.94551 7.48047 7.14551C8.03048 8.47549 9.29009 9.40527 10.8301 9.40527C12.89 9.40523 14.2402 7.7357 14.2402 5.67578C14.2402 4.56578 14.0396 3.32574 13.8496 2.38574ZM16.1504 11.2656C16.0704 10.8956 15.6101 10.7761 15.3301 11.0361C14.2801 12.026 12.7697 12.6561 11.2998 12.9561C9.54013 13.3161 8.49043 14.4555 8.49023 16.0752C8.49023 17.8152 9.92998 19.2158 11.71 19.2158C14.3598 19.2158 16.5098 17.0659 16.5 14.416C16.5 13.346 16.3804 12.2856 16.1504 11.2656Z" fill="#2F455C"/>
</g>
</svg>
