<svg width="24" height="24" viewBox="0 0 24 24" fill="none" xmlns="http://www.w3.org/2000/svg">
<g id="Social/school">
<path id="Icon Shape" d="M18.4536 15.9863C18.4535 16.7162 18.0535 17.3961 17.4136 17.7461L12.4136 20.4766C11.8137 20.8064 11.0935 20.8064 10.4937 20.4766L5.49365 17.7461C4.85377 17.3961 4.4537 16.7162 4.45361 15.9863V13.1758L10.4937 16.4766C11.0935 16.8064 11.8137 16.8064 12.4136 16.4766L18.4536 13.1758V15.9863ZM10.4937 3.51562C11.0935 3.19575 11.8137 3.19582 12.4136 3.51562L21.9341 8.70605C22.2539 8.88606 22.4536 9.21609 22.4536 9.58594V15.9961C22.4536 16.5461 22.0036 16.9961 21.4536 16.9961C20.9037 16.996 20.4536 16.546 20.4536 15.9961V10.0859L12.4136 14.4766C11.8137 14.8064 11.0935 14.8064 10.4937 14.4766L2.06396 9.87598C1.37396 9.49598 1.37396 8.49621 2.06396 8.11621L10.4937 3.51562Z" fill="#2F455C"/>
</g>
</svg>
