<svg width="24" height="24" viewBox="0 0 24 24" fill="none" xmlns="http://www.w3.org/2000/svg">
<g id="Social/notifications-off">
<path id="Icon Shape" d="M13.305 19.75C13.305 20.85 12.405 21.75 11.305 21.75C10.195 21.75 9.30499 20.85 9.30499 19.75H13.305ZM20.6946 19.0801L19.2855 20.4902L17.5452 18.75H4.71515C3.82517 18.75 3.38501 17.67 4.01495 17.04L5.30499 15.75V10.75C5.30499 9.48018 5.5947 8.32022 6.11456 7.32031L3.30499 4.50977L4.71515 3.09961L20.6946 19.0801ZM11.305 2.25C12.135 2.25 12.805 2.92 12.805 3.75V4.42969C15.665 5.10969 17.305 7.68 17.305 10.75V12.8496L9.11456 4.66016C9.33456 4.58016 9.56499 4.48969 9.80499 4.42969V3.75C9.80499 2.92 10.475 2.25 11.305 2.25Z" fill="#2F455C"/>
</g>
</svg>
