<svg width="24" height="24" viewBox="0 0 24 24" fill="none" xmlns="http://www.w3.org/2000/svg">
<g id="Social/person-outline">
<path id="Icon Shape" d="M12 13C14.67 13 20 14.34 20 17V19C20 19.55 19.55 20 19 20H5C4.45 20 4 19.55 4 19V17C4 14.34 9.33 13 12 13ZM12 14.9004C9.03 14.9004 5.90039 16.36 5.90039 17V18.0996H18.0996V17C18.0996 16.36 14.97 14.9004 12 14.9004ZM12 4C14.21 4 16 5.79 16 8C16 10.21 14.21 12 12 12C9.79 12 8 10.21 8 8C8 5.79 9.79 4 12 4ZM12 5.90039C10.84 5.90039 9.90039 6.84 9.90039 8C9.90039 9.16 10.84 10.0996 12 10.0996C13.16 10.0996 14.0996 9.16 14.0996 8C14.0996 6.84 13.16 5.90039 12 5.90039Z" fill="#2F455C"/>
</g>
</svg>
