<svg width="24" height="24" viewBox="0 0 24 24" fill="none" xmlns="http://www.w3.org/2000/svg">
<g id="Social/cake">
<path id="Icon Shape" d="M16.5303 16.6694C17.0101 17.1492 17.6 17.5187 18.2598 17.6587C19.2897 17.8887 20.25 17.6491 21 17.1392V20.7485C21 21.8485 20.1 22.7485 19 22.7485H5C3.9 22.7485 3 21.8485 3 20.7485V17.1392C3.55997 17.5191 4.23002 17.7485 4.95996 17.7485C5.87996 17.7485 6.75039 17.3888 7.40039 16.7388L8.49023 15.6694L9.55957 16.7388C10.8696 18.0488 13.1502 18.0388 14.4502 16.7388L15.5303 15.6694L16.5303 16.6694ZM12 7.74854C12.5499 7.74854 12.9998 8.19873 13 8.74854V9.74854H18C19.66 9.74854 21.0002 11.0893 20.9902 12.7593V14.1792C20.9901 15.1791 20.2897 16.1088 19.2998 16.2388C18.68 16.3187 18.0803 16.1188 17.6504 15.689L15.5195 13.5591L13.3799 15.689C12.6199 16.4488 11.3703 16.4488 10.6104 15.689L8.48047 13.5591L6.33984 15.689C5.82984 16.2089 5.03953 16.3889 4.30957 16.1489C3.4998 15.8788 3 15.0584 3 14.2085V12.7485C3.00023 11.0887 4.34014 9.74854 6 9.74854H11V8.74854C11.0002 8.19873 11.4501 7.74854 12 7.74854ZM11.5498 1.49854C11.7498 1.16888 12.2298 1.16897 12.4199 1.49854L13.7002 3.71924C13.93 4.07912 14.0304 4.51898 13.9805 4.98877C13.9005 5.72877 13.3797 6.38939 12.6797 6.62939C11.2998 7.09905 10 6.0684 10 4.74854C10.0001 4.36887 10.0997 4.01903 10.2695 3.71924L11.5498 1.49854Z" fill="#2F455C"/>
</g>
</svg>
