<svg width="24" height="24" viewBox="0 0 24 24" fill="none" xmlns="http://www.w3.org/2000/svg">
<g id="Social/party-mode">
<path id="Icon Shape" d="M14.1201 3C14.6801 3.00003 15.2199 3.24042 15.5898 3.65039L16.8301 5H20C21.1 5 22 5.9 22 7V19C22 20.1 21.1 21 20 21H4C2.9 21 2 20.1 2 19V7C2 5.9 2.9 5 4 5H7.16992L8.40039 3.65039C8.78036 3.24042 9.31992 3.00003 9.87988 3H14.1201ZM14.8203 12C14.9303 12.31 15 12.65 15 13C15 14.66 13.66 16 12 16H8.01953C8.93953 17.21 10.37 18 12 18C14.76 18 17 15.76 17 13C17 12.66 16.9704 12.32 16.9004 12H14.8203ZM12 8C9.24 8 7 10.24 7 13C7 13.34 7.03962 13.68 7.09961 14H9.17969C9.06971 13.69 9 13.35 9 13C9 11.34 10.34 10 12 10H15.9805C15.0605 8.79 13.63 8 12 8Z" fill="#2F455C"/>
</g>
</svg>
