<svg width="24" height="24" viewBox="0 0 24 24" fill="none" xmlns="http://www.w3.org/2000/svg">
<g id="Social/plus-one">
<path id="Icon Shape" d="M9.5 8.36377C10.0499 8.36377 10.4999 8.81389 10.5 9.36377V12.3638H13.5C14.0499 12.3638 14.4999 12.8139 14.5 13.3638C14.5 13.9138 14.05 14.3638 13.5 14.3638H10.5V17.3638C10.5 17.9138 10.05 18.3638 9.5 18.3638C8.95 18.3638 8.5 17.9138 8.5 17.3638V14.3638H5.5C4.95 14.3638 4.5 13.9138 4.5 13.3638C4.50014 12.8139 4.95009 12.3638 5.5 12.3638H8.5V9.36377C8.50014 8.81389 8.95009 8.36377 9.5 8.36377ZM18.2695 5.66357C18.8995 5.51357 19.5 5.98428 19.5 6.63428V17.3638C19.5 17.9138 19.05 18.3638 18.5 18.3638C17.95 18.3638 17.5 17.9138 17.5 17.3638V7.76416L16.0801 8.04443C15.5201 8.15443 15 7.72381 15 7.15381C15.0001 6.74389 15.2903 6.37368 15.7002 6.28369L18.2695 5.66357Z" fill="#2F455C"/>
</g>
</svg>
