<svg width="24" height="24" viewBox="0 0 24 24" fill="none" xmlns="http://www.w3.org/2000/svg">
<g id="Social/notifications-active">
<path id="Icon Shape" d="M13.9939 19.75C13.9939 20.85 13.0939 21.75 11.9939 21.75C10.8839 21.75 9.99385 20.85 9.99385 19.75H13.9939ZM11.9939 2.25C12.8239 2.25 13.5036 2.92 13.5036 3.75V4.42969C16.3636 5.10969 18.0036 7.68 18.0036 10.75V15.75L19.2839 17.04C19.9139 17.67 19.4639 18.75 18.5739 18.75H5.40401C4.51404 18.75 4.07392 17.67 4.70381 17.04L6.00362 15.75V10.75C6.00362 7.67008 7.63375 5.10976 10.5036 4.42969V3.75C10.5036 2.92002 11.1639 2.25004 11.9939 2.25ZM5.41377 3.03027C5.80377 2.66027 6.4244 2.6698 6.8044 3.0498C7.20425 3.44982 7.19407 4.10051 6.77412 4.48047C5.3842 5.75045 4.42373 7.48 4.12373 9.41992C4.04375 9.89981 3.62411 10.2498 3.14424 10.25C2.52424 10.25 2.05424 9.69984 2.14424 9.08984C2.52426 6.71003 3.70394 4.59021 5.41377 3.03027ZM17.2038 3.0498C17.5838 2.66985 18.2042 2.66029 18.6042 3.03027C20.304 4.60025 21.4742 6.71021 21.8542 9.08008C21.9541 9.69001 21.4739 10.2402 20.864 10.2402C20.374 10.2402 19.9535 9.89011 19.8835 9.41016C19.5835 7.47016 18.6141 5.73973 17.2341 4.46973C16.8241 4.08972 16.8038 3.44979 17.2038 3.0498Z" fill="#2F455C"/>
</g>
</svg>
