<svg width="24" height="24" viewBox="0 0 24 24" fill="none" xmlns="http://www.w3.org/2000/svg">
<g id="Social/publicon/social/24px">
<path id="Icon Shape" d="M12 2C17.52 2 22 6.48 22 12C22 17.52 17.52 22 12 22C6.48 22 2 17.52 2 12C2 6.48 6.48 2 12 2ZM4.20996 10.21C4.07996 10.79 4 11.38 4 12C4 16.08 7.05002 19.4397 11 19.9297V18C9.9 18 9 17.1 9 16V15L4.20996 10.21ZM15 5C15 6.1 14.1 7 13 7H11V9C11 9.55 10.55 10 10 10H8V12H14C14.55 12 15 12.45 15 13V16H16C16.8999 16 17.6403 16.5798 17.9004 17.3896C19.2002 15.9697 20 14.0798 20 12C20 8.65 17.93 5.77984 15 4.58984V5Z" fill="#2F455C"/>
</g>
</svg>
