<svg width="24" height="24" viewBox="0 0 24 24" fill="none" xmlns="http://www.w3.org/2000/svg">
<g id="Social/notifications-none">
<path id="Icon Shape" d="M13.9999 19.75C13.9999 20.85 13.0999 21.75 11.9999 21.75C10.89 21.7499 9.99992 20.8499 9.99992 19.75H13.9999ZM11.9999 2.25C12.8299 2.25 13.4999 2.92 13.4999 3.75V4.42969C16.3599 5.10969 17.9999 7.68 17.9999 10.75V15.75L19.29 17.04C19.92 17.67 19.48 18.75 18.58 18.75H5.41008C4.52021 18.7499 4.08014 17.67 4.70988 17.04L5.99992 15.75V10.75C5.99992 7.67006 7.63002 5.10974 10.4999 4.42969V3.75C10.4999 2.92008 11.17 2.25013 11.9999 2.25ZM11.9999 6.25C9.51007 6.25013 7.99992 8.27008 7.99992 10.75V16.75H15.9999V10.75C15.9999 8.27 14.4899 6.25 11.9999 6.25Z" fill="#2F455C"/>
</g>
</svg>
