<svg width="24" height="24" viewBox="0 0 24 24" fill="none" xmlns="http://www.w3.org/2000/svg">
<g id="Social/location-city">
<path id="Icon Shape" d="M11.9951 2.70898C12.2596 2.70902 12.5134 2.81473 12.7002 3.00195L14.4102 4.71191C14.7899 5.0818 14.9999 5.59137 15 6.12109V11.291H19C20.0998 11.291 20.9998 12.1912 21 13.291V19.291C21 20.391 20.1 21.291 19 21.291H5C3.9 21.291 3 20.391 3 19.291V9.29102C3.00025 8.19122 3.90015 7.29102 5 7.29102H9V6.12109C9.0001 5.59123 9.20993 5.08108 9.58984 4.70117L11.29 3.00195C11.4769 2.8147 11.7306 2.70898 11.9951 2.70898ZM5 19.291H7V17.291H5V19.291ZM11 19.291H13V17.291H11V19.291ZM17 19.291H19V17.291H17V19.291ZM5 15.291H7V13.291H5V15.291ZM11 15.291H13V13.291H11V15.291ZM17 13.291V15.291H19V13.291H17ZM5 11.291H7V9.29102H5V11.291ZM11 11.291H13V9.29102H11V11.291ZM11 7.29102H13V5.29102H11V7.29102Z" fill="#2F455C"/>
</g>
</svg>
