<svg width="24" height="24" viewBox="0 0 24 24" fill="none" xmlns="http://www.w3.org/2000/svg">
<g id="Social/person-add">
<path id="Icon Shape" d="M15 14C17.67 14 23 15.34 23 18V19C23 19.55 22.55 20 22 20H8C7.45 20 7 19.55 7 19V18C7 15.34 12.33 14 15 14ZM5 7C5.55 7 6 7.45 6 8V10H8C8.55 10 9 10.45 9 11C9 11.55 8.55 12 8 12H6V14C6 14.55 5.55 15 5 15C4.45 15 4 14.55 4 14V12H2C1.45 12 1 11.55 1 11C1 10.45 1.45 10 2 10H4V8C4 7.45 4.45 7 5 7ZM15 4C17.21 4 19 5.79 19 8C19 10.21 17.21 12 15 12C12.79 12 11 10.21 11 8C11 5.79 12.79 4 15 4Z" fill="#2F455C"/>
</g>
</svg>
