<svg width="24" height="24" viewBox="0 0 24 24" fill="none" xmlns="http://www.w3.org/2000/svg">
<g id="Social/group-add">
<path id="Icon Shape" d="M13 13.5C15 13.5 19 14.5 19 16.5V17.5C19 18.05 18.55 18.5 18 18.5H8C7.45 18.5 7 18.05 7 17.5V16.5C7 14.5 11 13.5 13 13.5ZM19.6201 13.6602C21.6301 14.0102 24 14.96 24 16.5V18C24 18.28 23.78 18.5 23.5 18.5H20.9502C20.9802 18.34 21 18.17 21 18V16.5C21 15.3201 20.45 14.3901 19.6201 13.6602ZM4 7.5C4.55 7.5 5 7.95 5 8.5V10.5H7C7.55 10.5 8 10.95 8 11.5C8 12.05 7.55 12.5 7 12.5H5V14.5C5 15.05 4.55 15.5 4 15.5C3.45 15.5 3 15.05 3 14.5V12.5H1C0.45 12.5 0 12.05 0 11.5C0 10.95 0.45 10.5 1 10.5H3V8.5C3 7.95 3.45 7.5 4 7.5ZM13 5.5C14.66 5.5 15.9902 6.84 15.9902 8.5C15.9902 10.16 14.66 11.5 13 11.5C11.34 11.5 10 10.16 10 8.5C10 6.84 11.34 5.5 13 5.5ZM18 5.5C19.66 5.5 20.9902 6.84 20.9902 8.5C20.9902 10.16 19.66 11.5 18 11.5C17.68 11.5 17.3698 11.4504 17.0898 11.3604C17.6498 10.5404 17.9902 9.57 17.9902 8.5C17.9902 7.43 17.6598 6.44965 17.0898 5.63965C17.3698 5.54965 17.68 5.5 18 5.5Z" fill="#2F455C"/>
</g>
</svg>
