<svg width="24" height="24" viewBox="0 0 24 24" fill="none" xmlns="http://www.w3.org/2000/svg">
<g id="Social/group">
<path id="Icon Shape" d="M8 13C10.33 13 15 14.17 15 16.5V18C15 18.55 14.55 19 14 19H2C1.45 19 1 18.55 1 18V16.5C1 14.17 5.67 13 8 13ZM16 13C18.33 13 23 14.17 23 16.5V18C23 18.55 22.55 19 22 19H16.8203C16.9303 18.69 17 18.35 17 18V16.5C17 15.0301 16.2102 13.9198 15.0703 13.0898C15.0603 13.0799 15.0502 13.0598 15.0303 13.0498C15.3802 13.0198 15.7101 13 16 13ZM8 5C9.66 5 10.9902 6.34 10.9902 8C10.9902 9.66 9.66 11 8 11C6.34 11 5 9.66 5 8C5 6.34 6.34 5 8 5ZM16 5C17.66 5 18.9902 6.34 18.9902 8C18.9902 9.66 17.66 11 16 11C14.34 11 13 9.66 13 8C13 6.34 14.34 5 16 5Z" fill="#2F455C"/>
</g>
</svg>
