<svg width="70" height="70" viewBox="0 0 70 70" fill="none" xmlns="http://www.w3.org/2000/svg">
<rect width="70" height="70" rx="16" fill="#EAEAED"/>
<path d="M34.6632 60C29.7853 60 25.0169 58.5631 20.9611 55.871C16.9052 53.1789 13.7441 49.3525 11.8774 44.8757C10.0107 40.399 9.52227 35.4728 10.4739 30.7203C11.4255 25.9678 13.7745 21.6023 17.2237 18.1759C20.6729 14.7495 25.0675 12.4161 29.8517 11.4708C34.6359 10.5254 39.5948 11.0106 44.1014 12.865C48.6081 14.7193 52.4599 17.8595 55.1699 21.8885C57.88 25.9175 59.3265 30.6544 59.3265 35.5C59.3191 41.9956 56.7183 48.223 52.0946 52.816C47.471 57.4091 41.2021 59.9927 34.6632 60ZM34.6632 16.4414C30.8688 16.4414 27.1596 17.5591 24.0047 19.6532C20.8497 21.7473 18.3908 24.7237 16.9387 28.2061C15.4866 31.6885 15.1067 35.5204 15.847 39.2173C16.5872 42.9142 18.4144 46.31 21.0975 48.9753C23.7805 51.6406 27.1989 53.4557 30.9204 54.191C34.642 54.9264 38.4994 54.549 42.005 53.1065C45.5106 51.6641 48.5068 49.2214 50.6149 46.0873C52.723 42.9532 53.8481 39.2686 53.8481 35.4993C53.8419 30.4469 51.8186 25.6032 48.222 22.0307C44.6255 18.4583 39.7493 16.4488 34.6632 16.443" fill="#1D2833"/>
<path d="M45.5412 35.5002C45.5413 37.6375 44.9034 39.7268 43.7081 41.5039C42.5128 43.2811 40.8139 44.6662 38.8262 45.4841C36.8384 46.3021 34.6512 46.5161 32.541 46.0992C30.4308 45.6822 28.4925 44.6531 26.9711 43.1418C25.4497 41.6305 24.4137 39.705 23.994 37.6087C23.5743 35.5125 23.7897 33.3397 24.6131 31.3651C25.4365 29.3906 26.8309 27.7029 28.6198 26.5155C30.4088 25.3282 32.512 24.6945 34.6636 24.6946C37.5484 24.6948 40.3151 25.8333 42.355 27.8597C44.3949 29.8861 45.541 32.6344 45.5412 35.5002Z" fill="#E3000F"/>
</svg>
