<svg xmlns="http://www.w3.org/2000/svg" viewBox="0 0 200 280">
  <!-- Paper -->
  <rect width="196" height="272" rx="4" fill="#fffefa"/>
  <rect x="196" y="4" width="3" height="268" rx="2" fill="#00000008"/>

  <!-- Header (teal) -->
  <rect width="196" height="54" rx="4" fill="#0f766e"/>
  <rect y="30" width="196" height="24" fill="#0f766e"/>
  <!-- Stars row -->
  <rect x="78" y="10" width="6" height="6" rx="1" fill="#fcd34d" opacity="0.9"/>
  <rect x="87" y="10" width="6" height="6" rx="1" fill="#fcd34d" opacity="0.9"/>
  <rect x="96" y="10" width="6" height="6" rx="1" fill="#fcd34d" opacity="0.9"/>
  <rect x="105" y="10" width="6" height="6" rx="1" fill="#fcd34d" opacity="0.9"/>
  <rect x="114" y="10" width="6" height="6" rx="1" fill="#fcd34d" opacity="0.9"/>
  <!-- Name -->
  <rect x="54" y="22" width="88" height="8" rx="4" fill="white" opacity="0.95"/>
  <!-- Sub-label -->
  <rect x="66" y="35" width="64" height="5" rx="2.5" fill="white" opacity="0.55"/>
  <!-- Address -->
  <rect x="52" y="45" width="92" height="4" rx="2" fill="white" opacity="0.4"/>

  <!-- Separator -->
  <line x1="16" y1="67" x2="180" y2="67" stroke="#e5e7eb" stroke-width="1" stroke-dasharray="4,3"/>

  <!-- Stay details -->
  <rect x="16" y="75" width="44" height="5" rx="2.5" fill="#9ca3af"/>
  <rect x="66" y="75" width="60" height="5" rx="2.5" fill="#d1d5db"/>
  <rect x="132" y="75" width="44" height="5" rx="2.5" fill="#d1d5db"/>

  <!-- Separator -->
  <line x1="16" y1="89" x2="180" y2="89" stroke="#e5e7eb" stroke-width="1"/>

  <!-- Items -->
  <rect x="16" y="101" width="120" height="6" rx="3" fill="#374151"/>
  <rect x="154" y="101" width="26" height="6" rx="3" fill="#374151"/>

  <rect x="16" y="115" width="84" height="6" rx="3" fill="#374151"/>
  <rect x="154" y="115" width="26" height="6" rx="3" fill="#374151"/>

  <rect x="16" y="129" width="68" height="6" rx="3" fill="#374151"/>
  <rect x="154" y="129" width="26" height="6" rx="3" fill="#374151"/>

  <rect x="16" y="143" width="98" height="6" rx="3" fill="#374151"/>
  <rect x="154" y="143" width="26" height="6" rx="3" fill="#374151"/>

  <!-- Separator -->
  <line x1="16" y1="158" x2="180" y2="158" stroke="#e5e7eb" stroke-width="1"/>

  <!-- Subtotal -->
  <rect x="16" y="167" width="44" height="5" rx="2.5" fill="#9ca3af"/>
  <rect x="154" y="167" width="26" height="5" rx="2.5" fill="#9ca3af"/>

  <!-- Tax -->
  <rect x="16" y="179" width="36" height="5" rx="2.5" fill="#9ca3af"/>
  <rect x="154" y="179" width="26" height="5" rx="2.5" fill="#9ca3af"/>

  <!-- Thick separator -->
  <line x1="16" y1="192" x2="180" y2="192" stroke="#374151" stroke-width="1.5"/>

  <!-- Total -->
  <rect x="16" y="202" width="36" height="8" rx="4" fill="#111827"/>
  <rect x="136" y="202" width="44" height="8" rx="4" fill="#0f766e"/>

  <!-- Payment -->
  <rect x="16" y="220" width="118" height="5" rx="2.5" fill="#d1d5db"/>

  <!-- Barcode -->
  <rect x="28" y="236" width="140" height="16" rx="2" fill="#f3f4f6"/>
  <rect x="34" y="238" width="2" height="12" fill="#1f2937"/>
  <rect x="38" y="238" width="3" height="12" fill="#1f2937"/>
  <rect x="43" y="238" width="2" height="12" fill="#1f2937"/>
  <rect x="47" y="238" width="4" height="12" fill="#1f2937"/>
  <rect x="53" y="238" width="2" height="12" fill="#1f2937"/>
  <rect x="57" y="238" width="2" height="12" fill="#1f2937"/>
  <rect x="61" y="238" width="3" height="12" fill="#1f2937"/>
  <rect x="66" y="238" width="2" height="12" fill="#1f2937"/>
  <rect x="70" y="238" width="4" height="12" fill="#1f2937"/>
  <rect x="76" y="238" width="2" height="12" fill="#1f2937"/>
  <rect x="80" y="238" width="3" height="12" fill="#1f2937"/>
  <rect x="85" y="238" width="2" height="12" fill="#1f2937"/>
  <rect x="89" y="238" width="4" height="12" fill="#1f2937"/>
  <rect x="95" y="238" width="2" height="12" fill="#1f2937"/>
  <rect x="99" y="238" width="2" height="12" fill="#1f2937"/>
  <rect x="103" y="238" width="3" height="12" fill="#1f2937"/>
  <rect x="108" y="238" width="2" height="12" fill="#1f2937"/>
  <rect x="112" y="238" width="4" height="12" fill="#1f2937"/>
  <rect x="118" y="238" width="2" height="12" fill="#1f2937"/>
  <rect x="122" y="238" width="3" height="12" fill="#1f2937"/>
  <rect x="127" y="238" width="2" height="12" fill="#1f2937"/>
  <rect x="131" y="238" width="2" height="12" fill="#1f2937"/>
  <rect x="135" y="238" width="4" height="12" fill="#1f2937"/>
  <rect x="141" y="238" width="2" height="12" fill="#1f2937"/>
  <rect x="145" y="238" width="3" height="12" fill="#1f2937"/>
  <rect x="150" y="238" width="2" height="12" fill="#1f2937"/>
  <rect x="154" y="238" width="4" height="12" fill="#1f2937"/>
  <rect x="160" y="238" width="2" height="12" fill="#1f2937"/>

  <!-- Footer label -->
  <rect x="52" y="260" width="92" height="4" rx="2" fill="#e5e7eb"/>

  <!-- Torn edge -->
  <path d="M0 267 Q10 261 20 267 Q30 273 40 267 Q50 261 60 267 Q70 273 80 267 Q90 261 100 267 Q110 273 120 267 Q130 261 140 267 Q150 273 160 267 Q170 261 180 267 Q190 273 196 267 L196 280 L0 280 Z" fill="#f0ede8"/>
</svg>
